<svg width="117" height="127" viewBox="0 0 117 127" fill="none" xmlns="http://www.w3.org/2000/svg">
<path fill-rule="evenodd" clip-rule="evenodd" d="M116.667 67.9993C116.667 100.216 90.5499 126.333 58.3333 126.333C26.1168 126.333 0 100.216 0 67.9993C0 35.7828 26.1168 9.66602 58.3333 9.66602C90.5499 9.66602 116.667 35.7828 116.667 67.9993Z" fill="#E6F1F5"/>
<mask id="mask0_12604_18607" style="mask-type:alpha" maskUnits="userSpaceOnUse" x="0" y="0" width="117" height="126">
<path fill-rule="evenodd" clip-rule="evenodd" d="M117 67.3333C117 99.5499 90.8829 125.667 58.6663 125.667C26.4498 125.667 0.333008 99.5499 0.333008 67.3333C0.333008 35.1168 5.5 0.0102132 50.5 8.94874e-06C140.667 -0.0204374 95.5 12.5 117 67.3333Z" fill="#E6F1F5"/>
</mask>
<g mask="url(#mask0_12604_18607)">
<path fill-rule="evenodd" clip-rule="evenodd" d="M56.9209 126.026C77.0889 126.026 94.9189 116.139 105.797 100.992H8.04492C18.9229 116.139 36.7529 126.026 56.9209 126.026Z" fill="#62A60A"/>
<path fill-rule="evenodd" clip-rule="evenodd" d="M9.38201 102.788C14.552 105.732 27.211 109.952 57.323 109.952C86.622 109.952 99.074 105.957 104.268 103.029C105.043 102.042 105.795 101.036 106.508 100H7.33301C7.98701 100.952 8.67501 101.878 9.38201 102.788Z" fill="#666B70"/>
<rect x="14.892" y="30.3574" width="84" height="60" rx="2" transform="rotate(-17.7419 14.892 30.3574)" fill="white"/>
<path fill-rule="evenodd" clip-rule="evenodd" d="M18.5487 41.7867L29.978 38.1299L26.3212 26.7007L16.7968 29.748C15.7448 30.0846 15.1648 31.2103 15.5014 32.2623L18.5487 41.7867Z" fill="#313D47"/>
<path fill-rule="evenodd" clip-rule="evenodd" d="M33.6352 49.5601L45.0644 45.9034L41.4077 34.4741L29.9784 38.1309L33.6352 49.5601Z" fill="#313D47"/>
<path fill-rule="evenodd" clip-rule="evenodd" d="M40.9486 72.4175L52.3779 68.7608L48.7211 57.3315L37.2919 60.9883L40.9486 72.4175Z" fill="#313D47"/>
<path fill-rule="evenodd" clip-rule="evenodd" d="M41.4076 34.4742L52.8369 30.8174L49.1801 19.3882L37.7509 23.0449L41.4076 34.4742Z" fill="#313D47"/>
<path fill-rule="evenodd" clip-rule="evenodd" d="M56.4936 42.2457L67.9228 38.5889L64.2661 27.1596L52.8368 30.8164L56.4936 42.2457Z" fill="#313D47"/>
<path fill-rule="evenodd" clip-rule="evenodd" d="M79.3521 34.9332L90.7813 31.2764L87.1246 19.8471L75.6953 23.5039L79.3521 34.9332Z" fill="#313D47"/>
<path fill-rule="evenodd" clip-rule="evenodd" d="M48.7211 57.3316L60.1504 53.6749L56.4936 42.2456L45.0643 45.9023L48.7211 57.3316Z" fill="#313D47"/>
<path fill-rule="evenodd" clip-rule="evenodd" d="M25.8626 64.6461L37.2918 60.9893L33.6351 49.56L22.2058 53.2168L25.8626 64.6461Z" fill="#313D47"/>
<path fill-rule="evenodd" clip-rule="evenodd" d="M32.5663 85.5986C32.9029 86.6506 34.0286 87.2306 35.0807 86.894L44.6051 83.8467L40.9483 72.4175L29.519 76.0742L32.5663 85.5986Z" fill="#313D47"/>
<path fill-rule="evenodd" clip-rule="evenodd" d="M56.025 80.1617L67.4543 76.5049L63.7976 65.0757L52.3683 68.7324L56.025 80.1617Z" fill="#313D47"/>
<path fill-rule="evenodd" clip-rule="evenodd" d="M86.6655 57.7906L98.0948 54.1338L94.4381 42.7046L83.0088 46.3613L86.6655 57.7906Z" fill="#313D47"/>
<path fill-rule="evenodd" clip-rule="evenodd" d="M63.807 65.105L75.2363 61.4483L71.5795 50.019L60.1503 53.6758L63.807 65.105Z" fill="#313D47"/>
<path fill-rule="evenodd" clip-rule="evenodd" d="M78.8931 72.8765L90.3224 69.2198L86.6656 57.7905L75.2363 61.4473L78.8931 72.8765Z" fill="#313D47"/>
<path fill-rule="evenodd" clip-rule="evenodd" d="M101.751 65.564L111.276 62.5167C112.328 62.1801 112.908 61.0544 112.571 60.0024L109.524 50.478L98.0947 54.1348L101.751 65.564Z" fill="#313D47"/>
<path fill-rule="evenodd" clip-rule="evenodd" d="M71.5796 50.0191L83.0089 46.3624L79.3521 34.9331L67.9229 38.5898L71.5796 50.0191Z" fill="#313D47"/>
<path fill-rule="evenodd" clip-rule="evenodd" d="M94.3902 42.5562L105.819 38.8995L102.163 27.4702L90.7334 31.127L94.3902 42.5562Z" fill="#313D47"/>
<path fill-rule="evenodd" clip-rule="evenodd" d="M64.266 27.1597L75.6953 23.503L72.0385 12.0737L60.6093 15.7305L64.266 27.1597Z" fill="#313D47"/>
<path fill-rule="evenodd" clip-rule="evenodd" d="M87.1245 19.8472L98.5538 16.1905L95.5065 6.66609C95.1699 5.61405 94.0442 5.03407 92.9922 5.37067L83.4678 8.41797L87.1245 19.8472Z" fill="#313D47"/>
<path d="M14.3451 30.516L24.9996 26.9971L70.9994 75.4975L32.7575 88.0709L14.3451 30.516Z" fill="#242C33" fill-opacity="0.25"/>
<rect x="11.6962" y="32.3008" width="3" height="120" transform="rotate(-17.7419 11.6962 32.3008)" fill="#A2A6AB"/>
<path d="M15.365 33.9237C14.9978 34.268 14.5503 34.5381 14.039 34.7017C13.5277 34.8653 13.0065 34.9051 12.5076 34.8379L12.0009 33.2539L14.8582 32.3397L15.365 33.9237Z" fill="#A2A6AB"/>
<circle cx="12.6675" cy="30.4154" r="3.5" transform="rotate(-17.7419 12.6675 30.4154)" fill="#A2A6AB"/>
<rect x="12.6996" y="31.293" width="3" height="120" transform="rotate(-17.7419 12.6996 31.293)" fill="#BCBFC2"/>
<circle cx="13.671" cy="29.4076" r="3.5" transform="rotate(-17.7419 13.671 29.4076)" fill="#BCBFC2"/>
<rect x="13.9404" y="30.6641" width="3" height="120" transform="rotate(-17.7419 13.9404 30.6641)" fill="#D9D9D9"/>
<path d="M17.6092 32.287C17.242 32.6312 16.7945 32.9014 16.2832 33.065C15.772 33.2286 15.2507 33.2683 14.7519 33.2012L14.2451 31.6172L17.1024 30.703L17.6092 32.287Z" fill="#BCBFC2" fill-opacity="0.5"/>
<circle cx="14.9118" cy="28.7787" r="3.5" transform="rotate(-17.7419 14.9118 28.7787)" fill="#D9D9D9"/>
</g>
</svg>
