<svg width="121" height="132" viewBox="0 0 121 132" fill="none" xmlns="http://www.w3.org/2000/svg">
<circle cx="60.1982" cy="72" r="60" fill="#E6F1F5"/>
<mask id="mask0_7729_104605" style="mask-type:alpha" maskUnits="userSpaceOnUse" x="0" y="12" width="121" height="120">
<circle cx="60.1982" cy="72" r="60" fill="#E6F1F5"/>
</mask>
<g mask="url(#mask0_7729_104605)">
<path fill-rule="evenodd" clip-rule="evenodd" d="M54.979 58.1996L56.3496 58.5683L56.7919 58.0402C57.0955 57.6792 57.3731 57.2964 57.6214 56.8952L59.957 53.1305C60.3408 52.4095 60.8255 51.0433 60.7995 50.1791L60.6954 49.3301L60.6542 49.5339C60.536 50.1205 59.8453 52.1623 56.4732 56.3661L54.979 58.1996Z" fill="#E09F73"/>
<path fill-rule="evenodd" clip-rule="evenodd" d="M64.1709 59.4517L66.0088 59.0982C66.4978 58.606 67.3251 57.1617 67.4856 56.7182L68.095 55.1395C68.4322 54.1105 68.5905 53.0544 68.5113 51.9755C68.4788 51.5179 68.4148 51.0647 68.3248 50.6917L68.0462 49.8828L68.0483 50.0899C68.0538 50.6884 68.0039 51.2848 67.8944 51.8725C67.8814 51.9462 67.8196 54.3425 65.5967 57.5878L64.1709 59.4517Z" fill="#E09F73"/>
<path fill-rule="evenodd" clip-rule="evenodd" d="M71.7195 69.1426C71.4311 69.341 69.2191 72.0431 68.562 72.9408C69.9781 69.7975 72.0014 65.2066 73.2516 62.4188C73.5606 61.4527 73.4175 61.9179 73.913 60.5419C74.0507 60.0746 74.0344 59.8079 74.0605 59.4565C74.2893 56.4303 72.4362 53.8952 69.3286 55.6008C68.6054 55.9976 67.9797 56.7404 67.468 57.5287C67.0798 58.1239 66.5571 59.1117 66.1343 59.7656C65.9597 59.7591 65.6127 59.6712 65.4891 59.6485C65.3655 59.6268 65.449 59.643 65.4392 59.6376C65.8166 59.4761 66.066 59.1313 66.3099 58.8298C66.6482 58.4124 66.9844 57.6696 67.2272 57.2457C67.6241 56.5528 68.2508 54.7908 68.356 54.2573C69.0554 50.7312 67.7249 46.676 63.6176 49.0321C62.5962 49.6187 62.2232 50.2465 61.4143 51.3373C61.0543 51.822 61.0739 51.9164 60.3582 53.0592C59.6415 54.2031 58.1419 56.697 57.2756 58.1012C56.9991 58.2801 56.8809 58.1229 56.6478 58.1706C57.1162 57.7553 57.4209 57.4051 57.7375 56.8456C58.4184 55.6409 59.249 54.5284 59.8844 53.2522C60.1761 52.6678 60.7041 51.4805 60.7681 50.6911C60.8657 49.481 60.6282 48.8239 60.1598 47.9836C59.3455 46.5198 57.1736 46.509 54.4044 48.8825C53.0251 50.0644 49.8547 54.3614 48.3139 55.7895C46.5248 57.4484 41.0231 62.5804 39.0334 64.2285C39.041 64.2372 39.0486 64.2459 39.0551 64.2546C35.517 67.5736 31.7458 71.1051 29.5642 73.1306C26.0966 76.351 26.8285 76.2599 24.5667 78.4404C23.0281 79.9454 23.3935 76.1059 23.6331 73.9861C23.6526 72.3857 24.5624 70.525 25.0883 69.0677C26.0685 66.8612 26.449 65.8257 27.3295 63.309C28.2099 60.7935 28.2609 55.7136 26.0023 53.4983C25.9622 53.4604 25.6868 53.1817 25.5263 53.0223C24.3477 51.8936 22.9251 52.1235 22.3385 53.7076C22.1184 54.6152 21.831 55.9391 21.6359 56.7729C20.9636 59.6582 19.9021 61.894 18.4448 64.5148C16.0366 68.8476 13.0493 72.8769 11.4034 77.7128C10.5012 80.5027 9.93088 83.002 9.21091 85.9047C8.49094 88.8063 7.89783 91.7165 7.71567 94.9206C7.65278 96.0179 7.77856 94.5097 7.48688 98.7287C7.34159 100.832 7.13015 102.816 6.2085 105.185C11.6452 113.784 19.0303 121.026 27.7589 126.273C29.2379 123.592 30.6388 120.811 32.2836 118.436C34.6029 115.085 34.8361 115.565 39.1678 112.932C39.7046 112.607 42.1236 111.081 45.6432 107.842C48.8116 104.925 56.5252 97.8482 58.297 96.4625C61.3189 93.9686 64.0557 91.5842 65.8881 89.9133C65.899 89.9231 65.9098 89.9339 65.9207 89.9437C66.1787 90.1801 69.4663 86.3449 70.6634 83.8022C71.9819 81.0004 72.9534 77.0492 74.0507 74.2507C76.293 68.0615 72.7485 68.4345 71.7195 69.1426Z" fill="#F39E7C"/>
</g>
<path fill-rule="evenodd" clip-rule="evenodd" d="M31.0303 76.1215L31.1854 74.0732C31.2385 73.6645 31.2949 73.2308 31.3621 72.8491C31.5898 71.549 32.2643 70.2045 32.6969 68.9912C32.7457 68.8534 32.8639 68.6312 32.9311 68.5011L34.1303 65.7188L32.1862 69.1484C31.6657 70.1188 30.6194 70.6859 29.5232 70.5916L28.8509 70.5341C28.7642 70.5276 28.7414 70.6534 28.826 70.6761L29.3475 70.8182C30.344 71.0904 30.9826 71.973 31.0054 72.9879C31.0086 73.1548 31.013 73.3218 31.0282 73.4877L31.0303 76.1215Z" fill="#E09F73"/>
<path fill-rule="evenodd" clip-rule="evenodd" d="M15.3818 104.056C13.2674 103.405 10.2765 101.146 9.58165 100.184L9.24353 99.8541C8.74708 99.3675 8.42997 98.7287 8.34283 98.0391L7.92341 94.7267L7.64261 98.4209C7.60762 98.8777 7.52857 99.3306 7.40675 99.772L7.36177 99.9352C7.73211 100.397 8.09851 100.862 8.48081 101.313L8.76733 101.533C10.7331 103.038 13.0864 104.311 15.5453 104.609L19.0939 105.041L15.3818 104.056Z" fill="#DD876B"/>
<path fill-rule="evenodd" clip-rule="evenodd" d="M27.021 113.76L31.2649 114.642C32.0185 114.8 32.8458 114.985 33.6027 114.843L37.0605 114.01L35.2551 115.163C34.4571 115.739 33.4411 116.641 32.8643 117.411L32.8003 117.497C32.7786 117.528 32.7309 117.511 32.7331 117.475L32.8003 115.696C32.2375 115.668 31.6824 115.55 31.1565 115.348L27.021 113.76Z" fill="#DD876B"/>
<path fill-rule="evenodd" clip-rule="evenodd" d="M24.6543 96.6895L24.2282 100.039C24.1306 100.812 24.2336 101.621 24.5231 102.334C24.9536 103.398 25.6562 103.772 26.4835 103.762C27.1428 103.756 27.7738 103.497 28.2683 103.062L28.4526 102.9C30.1756 101.386 32.2411 100.87 34.362 100.909L39.2771 101C43.1502 101.071 46.7327 98.5535 49.0488 94.6185C49.1974 94.3659 49.2082 94.0103 49.0748 93.7229L45.5097 86.0385C45.3665 85.7306 45.09 85.5733 44.8331 85.6536L28.946 90.624C26.7058 91.3255 25.036 93.6839 24.6543 96.6895Z" fill="#DD876B"/>
<path fill-rule="evenodd" clip-rule="evenodd" d="M95.7666 112.071H26.685C24.8883 112.071 23.4321 110.614 23.4321 108.818V17.3974C23.4321 15.6007 24.8883 14.1445 26.685 14.1445H95.7666C97.5632 14.1445 99.0195 15.6007 99.0195 17.3974V108.818C99.0195 110.614 97.5632 112.071 95.7666 112.071Z" fill="#313D47"/>
<path fill-rule="evenodd" clip-rule="evenodd" d="M26.5229 108.067H95.9309V18.1465H26.5229V108.067Z" fill="white"/>
<path fill-rule="evenodd" clip-rule="evenodd" d="M69.9639 10.1348H51.3238C46.5323 10.1348 42.6494 14.0187 42.6494 18.8091V20.4171H78.6383V18.8091C78.6383 14.0187 74.7543 10.1348 69.9639 10.1348Z" fill="#FACD46"/>
<path fill-rule="evenodd" clip-rule="evenodd" d="M58.7158 5.14165C58.7158 4.07688 59.5789 3.21378 60.6437 3.21378C61.7085 3.21378 62.5716 4.07688 62.5716 5.14165C62.5716 6.20643 61.7085 7.06953 60.6437 7.06953C59.5789 7.06953 58.7158 6.20643 58.7158 5.14165ZM66.4261 7.06961H65.4026C65.6444 6.47325 65.7842 5.82484 65.7842 5.14173C65.7842 2.30196 63.4823 0 60.6425 0C57.8027 0 55.5008 2.30196 55.5008 5.14173C55.5008 5.82484 55.6406 6.47325 55.8824 7.06961H54.8589C53.0839 7.06961 51.645 8.50847 51.645 10.2835H69.64C69.64 8.50847 68.2011 7.06961 66.4261 7.06961Z" fill="#AC6000"/>
<path fill-rule="evenodd" clip-rule="evenodd" d="M83.268 64.5084H38.9018C38.3759 64.5084 37.9487 64.0812 37.9487 63.5553V62.8906C37.9487 62.3647 38.3759 61.9375 38.9018 61.9375H83.268C83.7938 61.9375 84.221 62.3647 84.221 62.8906V63.5553C84.221 64.0812 83.7938 64.5084 83.268 64.5084Z" fill="#D4D7D9"/>
<path fill-rule="evenodd" clip-rule="evenodd" d="M83.268 51.6548H38.9018C38.3759 51.6548 37.9487 51.2276 37.9487 50.7018V50.0371C37.9487 49.5112 38.3759 49.084 38.9018 49.084H83.268C83.7938 49.084 84.221 49.5112 84.221 50.0371V50.7018C84.221 51.2276 83.7938 51.6548 83.268 51.6548Z" fill="#D4D7D9"/>
<path fill-rule="evenodd" clip-rule="evenodd" d="M83.268 38.8013H38.9018C38.3759 38.8013 37.9487 38.3741 37.9487 37.8482V37.1836C37.9487 36.6577 38.3759 36.2305 38.9018 36.2305H83.268C83.7938 36.2305 84.221 36.6577 84.221 37.1836V37.8482C84.221 38.3741 83.7938 38.8013 83.268 38.8013Z" fill="#D4D7D9"/>
<path d="M39.2334 88.1765C39.2334 88.1765 40.9292 85.3335 42.8398 83.4013C45.8476 80.3598 44.1897 86.5219 44.7861 88.1765C45.8194 91.0423 48.7145 90.254 51.3786 83.4013C52.6873 80.0367 56.2861 76.1918 55.4133 83.4013" stroke="#313D47" stroke-width="3" stroke-linecap="round"/>
<path fill-rule="evenodd" clip-rule="evenodd" d="M14.5607 72.0901C16.2024 73.3576 17.9654 74.4929 19.7892 75.4796C20.6057 75.922 21.4439 76.3405 22.3221 76.6463C22.6355 76.7547 22.9619 76.8556 23.2839 76.8989C23.3273 76.9055 23.3706 76.9098 23.4151 76.9141C23.4205 75.9654 23.5365 74.8377 23.633 73.9865C23.6526 72.3861 24.5623 70.5244 25.0882 69.0682C26.0684 66.8616 26.449 65.825 27.3294 63.3095C28.2088 60.7928 28.2608 55.7129 26.0011 53.4988C25.9621 53.4597 25.6867 53.1811 25.5262 53.0217C24.3476 51.8929 22.925 52.1239 22.3384 53.7069C22.1183 54.6156 21.8309 55.9384 21.6358 56.7723C20.9624 59.6576 19.9009 61.8934 18.4447 64.5152C17.0828 66.9646 15.5355 69.3176 14.1509 71.7746C14.2886 71.8819 14.4274 71.9871 14.5607 72.0901Z" fill="#F39E7C"/>
<path fill-rule="evenodd" clip-rule="evenodd" d="M23.441 76.1234L23.596 74.0752C23.6492 73.6664 23.7055 73.2327 23.7728 72.851C24.0005 71.551 24.6749 70.2064 25.1075 68.9931C25.1563 68.8554 25.2745 68.6331 25.3417 68.503L26.541 65.7207L24.5968 69.1503C24.0764 70.1208 23.03 70.6879 21.9338 70.5935L21.2615 70.5361C21.1748 70.5296 21.152 70.6553 21.2366 70.6781L21.7581 70.8201C22.7546 71.0923 23.3933 71.9749 23.416 72.9898C23.4193 73.1568 23.4236 73.3238 23.4388 73.4897L23.441 76.1234Z" fill="#DD876B"/>
<mask id="mask1_7729_104605" style="mask-type:alpha" maskUnits="userSpaceOnUse" x="0" y="11" width="121" height="121">
<path fill-rule="evenodd" clip-rule="evenodd" d="M0.438232 71.5195C0.438232 104.657 27.3012 131.52 60.4382 131.52C93.5752 131.52 120.438 104.657 120.438 71.5195C120.438 38.3825 93.5752 11.5195 60.4382 11.5195C27.3012 11.5195 0.438232 38.3825 0.438232 71.5195Z" fill="white"/>
</mask>
<g mask="url(#mask1_7729_104605)">
<path fill-rule="evenodd" clip-rule="evenodd" d="M69.5035 93.6638C67.5185 95.3028 67.6735 96.8837 69.2005 98.4288C71.4765 98.9517 73.6835 99.5928 77.3615 97.7438C77.7145 97.5658 78.1085 97.4857 78.5035 97.5097C79.9755 97.5977 82.1985 96.8788 84.2555 96.4398L81.6925 92.2188L69.5035 93.6638Z" fill="#DD876B"/>
</g>
<mask id="mask2_7729_104605" style="mask-type:alpha" maskUnits="userSpaceOnUse" x="0" y="11" width="121" height="121">
<path fill-rule="evenodd" clip-rule="evenodd" d="M0.438232 71.5195C0.438232 104.657 27.3012 131.52 60.4382 131.52C93.5752 131.52 120.438 104.657 120.438 71.5195C120.438 38.3825 93.5752 11.5195 60.4382 11.5195C27.3012 11.5195 0.438232 38.3825 0.438232 71.5195Z" fill="white"/>
</mask>
<g mask="url(#mask2_7729_104605)">
<path fill-rule="evenodd" clip-rule="evenodd" d="M84.5547 96.6367C79.7697 100.528 77.6377 104.88 77.1897 109.979L81.4527 112.034C82.1327 110.093 83.7237 107.696 84.7777 104.692C84.8527 104.479 85.0377 104.327 85.2587 104.284C86.2897 104.08 87.6037 103.34 88.9187 102.597L84.5547 96.6367Z" fill="#DD876B"/>
</g>
<mask id="mask3_7729_104605" style="mask-type:alpha" maskUnits="userSpaceOnUse" x="0" y="11" width="121" height="121">
<path fill-rule="evenodd" clip-rule="evenodd" d="M0.438232 71.5195C0.438232 104.657 27.3012 131.52 60.4382 131.52C93.5752 131.52 120.438 104.657 120.438 71.5195C120.438 38.3825 93.5752 11.5195 60.4382 11.5195C27.3012 11.5195 0.438232 38.3825 0.438232 71.5195Z" fill="white"/>
</mask>
<g mask="url(#mask3_7729_104605)">
<path fill-rule="evenodd" clip-rule="evenodd" d="M100.438 155.519C91.438 135.519 83.141 134.953 73.563 121.846C73.563 121.846 69.084 112.117 67.511 108.01C67.148 107.061 67.117 105.984 67.339 105.221C67.429 104.915 67.946 102.509 67.852 99.0537C67.932 98.1497 68.54 97.3647 69.408 97.0967C72.412 96.1727 75.049 102.235 75.209 104.512C75.239 104.945 75.407 105.358 75.698 105.68C76.916 107.026 78.01 110.228 80.294 110.835C80.856 110.985 81.45 110.781 81.822 110.334C81.953 110.176 82.092 110.02 82.237 109.866C85.394 106.51 85.767 101.407 83.218 97.5687C82.54 96.5477 81.906 95.5197 81.322 94.4827C81.013 93.9337 80.388 93.6427 79.768 93.7547C73.76 94.8397 67.986 95.7027 66.732 92.2737C66.327 91.1647 66.832 89.9287 67.884 89.3957C70.413 88.1147 75.912 87.0497 82.139 86.0377C83.507 85.8147 84.913 86.0677 86.109 86.7687C87.285 87.4577 88.334 88.2427 89.216 89.1527C93.938 90.1947 95.156 92.2257 99.28 94.3047C100.997 95.1697 102.97 95.7187 104.899 96.4867C106.805 97.2457 108.247 98.8507 108.795 100.827C111.187 109.449 109.438 137.519 118.438 146.519L100.438 155.519Z" fill="#F39E7C"/>
</g>
<mask id="mask4_7729_104605" style="mask-type:alpha" maskUnits="userSpaceOnUse" x="0" y="11" width="121" height="121">
<path fill-rule="evenodd" clip-rule="evenodd" d="M0.438232 71.5195C0.438232 104.657 27.3012 131.52 60.4382 131.52C93.5752 131.52 120.438 104.657 120.438 71.5195C120.438 38.3825 93.5752 11.5195 60.4382 11.5195C27.3012 11.5195 0.438232 38.3825 0.438232 71.5195Z" fill="white"/>
</mask>
<g mask="url(#mask4_7729_104605)">
<path fill-rule="evenodd" clip-rule="evenodd" d="M89.2166 89.1523C93.5876 92.9303 97.2436 95.6683 100.166 97.1663C96.0956 94.0503 92.4126 91.1253 90.4746 89.4763C90.0776 89.3573 89.6556 89.2503 89.2166 89.1523Z" fill="#DD876B"/>
</g>
<mask id="mask5_7729_104605" style="mask-type:alpha" maskUnits="userSpaceOnUse" x="0" y="11" width="121" height="121">
<path fill-rule="evenodd" clip-rule="evenodd" d="M0.438232 71.5195C0.438232 104.657 27.3012 131.52 60.4382 131.52C93.5752 131.52 120.438 104.657 120.438 71.5195C120.438 38.3825 93.5752 11.5195 60.4382 11.5195C27.3012 11.5195 0.438232 38.3825 0.438232 71.5195Z" fill="white"/>
</mask>
<g mask="url(#mask5_7729_104605)">
<path fill-rule="evenodd" clip-rule="evenodd" d="M103.689 122.67L103.877 122.354C104.062 122.009 104.129 121.768 104.149 121.612C104.165 121.487 104.123 121.361 104.038 121.267C103.377 120.539 100.542 117.231 89.3624 108.01L88.2004 109.42L86.8484 111.059C86.8484 111.059 102.038 123.588 103.689 122.67Z" fill="#1A4C71"/>
</g>
<mask id="mask6_7729_104605" style="mask-type:alpha" maskUnits="userSpaceOnUse" x="0" y="11" width="121" height="121">
<path fill-rule="evenodd" clip-rule="evenodd" d="M0.438232 71.5195C0.438232 104.657 27.3012 131.52 60.4382 131.52C93.5752 131.52 120.438 104.657 120.438 71.5195C120.438 38.3825 93.5752 11.5195 60.4382 11.5195C27.3012 11.5195 0.438232 38.3825 0.438232 71.5195Z" fill="white"/>
</mask>
<g mask="url(#mask6_7729_104605)">
<path fill-rule="evenodd" clip-rule="evenodd" d="M101.967 123.777C102.075 123.843 102.207 123.86 102.327 123.82C102.476 123.771 102.7 123.66 103.004 123.412L103.295 123.15C103.462 122.999 103.605 122.825 103.72 122.632L103.9 122.31C103.913 122.285 103.925 122.261 103.937 122.237C103.666 122.449 103.47 122.556 103.332 122.602C103.212 122.641 103.08 122.624 102.972 122.558C102.131 122.049 98.3134 119.932 87.1344 110.711L86.1604 111.893C97.3394 121.113 101.126 123.267 101.967 123.777Z" fill="#00253D"/>
</g>
<mask id="mask7_7729_104605" style="mask-type:alpha" maskUnits="userSpaceOnUse" x="0" y="11" width="121" height="121">
<path fill-rule="evenodd" clip-rule="evenodd" d="M0.438232 71.5195C0.438232 104.657 27.3012 131.52 60.4382 131.52C93.5752 131.52 120.438 104.657 120.438 71.5195C120.438 38.3825 93.5752 11.5195 60.4382 11.5195C27.3012 11.5195 0.438232 38.3825 0.438232 71.5195Z" fill="white"/>
</mask>
<g mask="url(#mask7_7729_104605)">
<path fill-rule="evenodd" clip-rule="evenodd" d="M84.7585 110.596L87.8915 106.797L89.3635 108.01L86.2295 111.809L84.7585 110.596Z" fill="#FACD46"/>
</g>
<mask id="mask8_7729_104605" style="mask-type:alpha" maskUnits="userSpaceOnUse" x="0" y="11" width="121" height="121">
<path fill-rule="evenodd" clip-rule="evenodd" d="M0.438232 71.5195C0.438232 104.657 27.3012 131.52 60.4382 131.52C93.5752 131.52 120.438 104.657 120.438 71.5195C120.438 38.3825 93.5752 11.5195 60.4382 11.5195C27.3012 11.5195 0.438232 38.3825 0.438232 71.5195Z" fill="white"/>
</mask>
<g mask="url(#mask8_7729_104605)">
<path fill-rule="evenodd" clip-rule="evenodd" d="M66.7375 95.8752L69.9405 91.9922L87.8945 106.8L84.6915 110.683L66.7375 95.8752Z" fill="#1A4C71"/>
</g>
<mask id="mask9_7729_104605" style="mask-type:alpha" maskUnits="userSpaceOnUse" x="0" y="11" width="121" height="121">
<path fill-rule="evenodd" clip-rule="evenodd" d="M0.438232 71.5195C0.438232 104.657 27.3012 131.52 60.4382 131.52C93.5752 131.52 120.438 104.657 120.438 71.5195C120.438 38.3825 93.5752 11.5195 60.4382 11.5195C27.3012 11.5195 0.438232 38.3825 0.438232 71.5195Z" fill="white"/>
</mask>
<g mask="url(#mask9_7729_104605)">
<path fill-rule="evenodd" clip-rule="evenodd" d="M66.2673 95.4865L69.4703 91.6035L69.9413 91.9915L66.7383 95.8745L66.2673 95.4865Z" fill="#F6C053"/>
</g>
<mask id="mask10_7729_104605" style="mask-type:alpha" maskUnits="userSpaceOnUse" x="0" y="11" width="121" height="121">
<path fill-rule="evenodd" clip-rule="evenodd" d="M0.438232 71.5195C0.438232 104.657 27.3012 131.52 60.4382 131.52C93.5752 131.52 120.438 104.657 120.438 71.5195C120.438 38.3825 93.5752 11.5195 60.4382 11.5195C27.3012 11.5195 0.438232 38.3825 0.438232 71.5195Z" fill="white"/>
</mask>
<g mask="url(#mask10_7729_104605)">
<path fill-rule="evenodd" clip-rule="evenodd" d="M67.6343 93.8293L68.1033 93.2603L69.4703 91.6033L62.3013 87.0293L61.5923 87.8903L61.1233 88.4593L60.4133 89.3193L66.2673 95.4863L67.6343 93.8293Z" fill="#BEBEBE"/>
</g>
<mask id="mask11_7729_104605" style="mask-type:alpha" maskUnits="userSpaceOnUse" x="0" y="11" width="121" height="121">
<path fill-rule="evenodd" clip-rule="evenodd" d="M0.438232 71.5195C0.438232 104.657 27.3012 131.52 60.4382 131.52C93.5752 131.52 120.438 104.657 120.438 71.5195C120.438 38.3825 93.5752 11.5195 60.4382 11.5195C27.3012 11.5195 0.438232 38.3825 0.438232 71.5195Z" fill="white"/>
</mask>
<g mask="url(#mask11_7729_104605)">
<path fill-rule="evenodd" clip-rule="evenodd" d="M67.2418 94.305L61.0198 88.584L61.1228 88.459L60.4128 89.319L66.2678 95.486L67.2418 94.305Z" fill="#929292"/>
</g>
<mask id="mask12_7729_104605" style="mask-type:alpha" maskUnits="userSpaceOnUse" x="0" y="11" width="121" height="121">
<path fill-rule="evenodd" clip-rule="evenodd" d="M0.438232 71.5195C0.438232 104.657 27.3012 131.52 60.4382 131.52C93.5752 131.52 120.438 104.657 120.438 71.5195C120.438 38.3825 93.5752 11.5195 60.4382 11.5195C27.3012 11.5195 0.438232 38.3825 0.438232 71.5195Z" fill="white"/>
</mask>
<g mask="url(#mask12_7729_104605)">
<path fill-rule="evenodd" clip-rule="evenodd" d="M60.4126 89.3195L61.3566 88.1745L62.3016 87.0295C62.3016 87.0295 60.0646 85.0195 58.7236 83.5185C56.9566 83.9095 54.7506 82.5195 54.7506 82.5195L54.6496 82.6425L54.5476 82.7655C54.5476 82.7655 56.3326 84.6665 56.2846 86.4755C58.0136 87.5065 60.4126 89.3195 60.4126 89.3195Z" fill="#F6C053"/>
</g>
<mask id="mask13_7729_104605" style="mask-type:alpha" maskUnits="userSpaceOnUse" x="0" y="11" width="121" height="121">
<path fill-rule="evenodd" clip-rule="evenodd" d="M0.438232 71.5195C0.438232 104.657 27.3012 131.52 60.4382 131.52C93.5752 131.52 120.438 104.657 120.438 71.5195C120.438 38.3825 93.5752 11.5195 60.4382 11.5195C27.3012 11.5195 0.438232 38.3825 0.438232 71.5195Z" fill="white"/>
</mask>
<g mask="url(#mask13_7729_104605)">
<path fill-rule="evenodd" clip-rule="evenodd" d="M60.4126 89.3196L61.0306 88.5706C61.0306 88.5706 58.6316 86.7576 56.9026 85.7266C56.9276 84.8006 54.6496 82.6426 54.6496 82.6426L54.5476 82.7656C54.5476 82.7656 56.3326 84.6666 56.2846 86.4756C58.0136 87.5066 60.4126 89.3196 60.4126 89.3196Z" fill="#AC6000"/>
</g>
<mask id="mask14_7729_104605" style="mask-type:alpha" maskUnits="userSpaceOnUse" x="0" y="11" width="121" height="121">
<path fill-rule="evenodd" clip-rule="evenodd" d="M0.438232 71.5195C0.438232 104.657 27.3012 131.52 60.4382 131.52C93.5752 131.52 120.438 104.657 120.438 71.5195C120.438 38.3825 93.5752 11.5195 60.4382 11.5195C27.3012 11.5195 0.438232 38.3825 0.438232 71.5195Z" fill="white"/>
</mask>
<g mask="url(#mask14_7729_104605)">
<path fill-rule="evenodd" clip-rule="evenodd" d="M89.2143 112.014L90.0483 111.003C90.1063 110.933 90.2103 110.923 90.2803 110.981L102.637 121.172C102.707 121.23 102.717 121.334 102.659 121.404L101.825 122.415C101.767 122.486 101.663 122.496 101.593 122.438L89.2363 112.246C89.1663 112.188 89.1563 112.084 89.2143 112.014Z" fill="#FACD46"/>
</g>
<mask id="mask15_7729_104605" style="mask-type:alpha" maskUnits="userSpaceOnUse" x="0" y="11" width="121" height="121">
<path fill-rule="evenodd" clip-rule="evenodd" d="M0.438232 71.5195C0.438232 104.657 27.3012 131.52 60.4382 131.52C93.5752 131.52 120.438 104.657 120.438 71.5195C120.438 38.3825 93.5752 11.5195 60.4382 11.5195C27.3012 11.5195 0.438232 38.3825 0.438232 71.5195Z" fill="black"/>
</mask>
<g mask="url(#mask15_7729_104605)">
<path fill-rule="evenodd" clip-rule="evenodd" d="M66.7351 95.8724L67.7091 94.6914L77.6851 102.918L85.6631 109.499L84.6891 110.68L66.7351 95.8724Z" fill="#00253D"/>
</g>
<path fill-rule="evenodd" clip-rule="evenodd" d="M57.714 85.4898C57.613 85.4068 57.598 85.2568 57.682 85.1558C57.765 85.0548 57.915 85.0398 58.016 85.1238C58.117 85.2068 58.132 85.3568 58.048 85.4578C57.965 85.5588 57.815 85.5728 57.714 85.4898Z" fill="#AC6000"/>
<path fill-rule="evenodd" clip-rule="evenodd" d="M67.8844 89.3959C66.8414 89.9249 66.3304 91.1529 66.7254 92.2539C67.6194 94.7459 70.8814 94.9889 74.8904 94.5219L68.9824 88.9199C68.5714 89.0749 68.2044 89.2339 67.8844 89.3959Z" fill="#F39E7C"/>
</svg>
