<svg width="64" height="26" viewBox="0 0 64 26" fill="none" xmlns="http://www.w3.org/2000/svg">
<path fill-rule="evenodd" clip-rule="evenodd" d="M11.9421 17.7346C10.3913 17.7346 9.13232 19.0119 9.13232 20.5833C9.13232 22.1555 10.3904 23.4337 11.9421 23.4337C13.4938 23.4337 14.7527 22.1564 14.7527 20.5833C14.7527 19.011 13.4929 17.7346 11.9421 17.7346ZM11.9422 19.2095C11.1951 19.2095 10.5872 19.8258 10.5872 20.5833C10.5872 21.3407 11.1942 21.9589 11.9422 21.9589C12.6902 21.9589 13.299 21.3425 13.299 20.5833C13.299 19.8249 12.6902 19.2095 11.9422 19.2095ZM49.9495 19.2095C49.2024 19.2095 48.5945 19.8258 48.5945 20.5833C48.5945 21.3407 49.2015 21.9589 49.9495 21.9589C50.6975 21.9589 51.3063 21.3425 51.3063 20.5833C51.3063 19.8249 50.6975 19.2095 49.9495 19.2095ZM49.9494 17.7346C48.3995 17.7346 47.1396 19.0119 47.1396 20.5833C47.1396 22.1555 48.3986 23.4337 49.9494 23.4337C51.5011 23.4337 52.76 22.1564 52.76 20.5833C52.76 19.011 51.5002 17.7346 49.9494 17.7346ZM2.90942 22.6964H5.84039C5.61769 22.0336 5.49557 21.3226 5.49557 20.5833C5.49557 16.9772 8.38433 14.0485 11.9421 14.0485C15.4998 14.0485 18.3895 16.9763 18.3895 20.5833C18.3895 21.3226 18.2674 22.0336 18.0447 22.6964H43.8478C43.6251 22.0336 43.503 21.3226 43.503 20.5833C43.503 16.9772 46.3926 14.0485 49.9495 14.0485C53.5072 14.0485 56.3969 16.9763 56.3969 20.5833C56.3969 21.3226 56.2748 22.0336 56.0512 22.6964H62.5453L64 21.2215V19.7467H58.1812L59.6359 18.2718H62.5453L64 15.323L62.5453 13.8482H58.1812L56.7274 12.3733H61.0906L55.2726 10.8985L43.6368 9.42364L32 5H20.3641L10.1821 7.94879H18.9094L21.8188 6.47485H32L42.1821 10.8985L37.8179 15.323L39.2735 12.3733L17.4556 9.42364H4.36502L1.45471 10.8985H8.72825L5.81883 12.3733H1.45471L0 15.323V18.2718L2.90942 22.6964ZM49.9494 15.5225C52.7061 15.5225 54.9421 17.7912 54.9421 20.5834C54.9421 21.9845 54.379 23.2536 53.4703 24.1704H62.5452V25.6452H49.9494H11.942H1.45459V24.1704H8.42193C7.51318 23.2536 6.95016 21.9845 6.95016 20.5834C6.95016 17.7912 9.18789 15.5225 11.942 15.5225C14.6978 15.5225 16.9347 17.7912 16.9347 20.5834C16.9347 21.9845 16.3725 23.2536 15.4629 24.1704H46.4293C45.5215 23.2536 44.9585 21.9845 44.9585 20.5834C44.9585 17.7912 47.1953 15.5225 49.9494 15.5225Z" fill="#3E8500"/>
</svg>
