<svg width="121" height="132" viewBox="0 0 121 132" fill="none" xmlns="http://www.w3.org/2000/svg">
<path fill-rule="evenodd" clip-rule="evenodd" d="M120.198 71.4695C120.198 104.362 93.3353 131.027 60.1983 131.027C27.0612 131.027 0.198242 104.362 0.198242 71.4695C0.198242 38.577 27.0612 11.9121 60.1983 11.9121C93.3353 11.9121 120.198 38.577 120.198 71.4695Z" fill="#E6F1F5"/>
<path fill-rule="evenodd" clip-rule="evenodd" d="M60.1983 131.026C80.3662 131.026 98.1963 121.139 109.074 105.992H11.3223C22.2003 121.139 40.0303 131.026 60.1983 131.026Z" fill="#D4D7D9"/>
<path fill-rule="evenodd" clip-rule="evenodd" d="M12.6594 107.788C17.8294 110.732 30.4883 114.952 60.6003 114.952C89.8993 114.952 102.351 110.957 107.545 108.029C108.32 107.042 109.072 106.036 109.785 105H10.6104C11.2644 105.952 11.9524 106.878 12.6594 107.788Z" fill="#666B70"/>
<path fill-rule="evenodd" clip-rule="evenodd" d="M21.4971 104.317C21.4971 105.645 22.7189 106.722 24.2285 106.722H31.167C32.6756 106.722 33.8984 105.645 33.8984 104.317V92.0377C33.8984 90.7088 32.6756 89.6328 31.167 89.6328H24.2285C22.7189 89.6328 21.4971 90.7088 21.4971 92.0377V104.317Z" fill="black"/>
<path fill-rule="evenodd" clip-rule="evenodd" d="M100.2 104.317C100.2 105.645 98.9774 106.722 97.4698 106.722H90.5303C89.0217 106.722 87.7988 105.645 87.7988 104.317V92.0377C87.7988 90.7088 89.0217 89.6328 90.5303 89.6328H97.4698C98.9774 89.6328 100.2 90.7088 100.2 92.0377V104.317Z" fill="black"/>
<path fill-rule="evenodd" clip-rule="evenodd" d="M101.245 84.4336C101.245 84.4336 101.245 84.4782 101.244 84.5566C101.242 85.1317 101.229 87.5366 101.206 87.73C101.102 88.6215 100.79 91.0393 100.346 92.627C100.231 93.0415 100.107 93.4005 99.9717 93.6603C99.2314 95.1052 99.3353 95.733 96.7897 95.733H24.908C22.3634 95.733 22.4663 95.1052 21.725 93.6603C21.5911 93.4005 21.4662 93.0415 21.3523 92.627C20.9077 91.0393 20.596 88.6215 20.4901 87.73C20.4861 87.6834 20.4801 87.5148 20.4761 87.2738C20.4622 86.4993 20.4552 84.9949 20.4512 84.5566V84.4336L21.0096 84.4544L30.7405 84.8094L37.9038 85.0713L60.8473 85.9092L90.9542 84.8094L100.688 84.4544L101.245 84.4336Z" fill="#306700"/>
<mask id="mask0_7729_104594" style="mask-type:alpha" maskUnits="userSpaceOnUse" x="0" y="0" width="120" height="132">
<path fill-rule="evenodd" clip-rule="evenodd" d="M0 132H120V0H0V132Z" fill="white"/>
</mask>
<g mask="url(#mask0_7729_104594)">
<path fill-rule="evenodd" clip-rule="evenodd" d="M93.7593 59.7491H96.0963V58.2402H93.7593V59.7491Z" fill="#152021"/>
<path fill-rule="evenodd" clip-rule="evenodd" d="M103.613 57.4668C103.478 58.6687 102.048 59.471 100.927 59.6307C99.5941 59.8211 95.5259 59.7517 95.5259 59.7517V57.0949V55.5627C95.5259 55.0332 95.9874 54.578 96.6678 54.6176C98.1125 54.7029 100.539 54.8953 101.593 55.2622C103.004 55.7551 103.556 56.3561 103.619 57.0949C103.629 57.2149 103.626 57.3389 103.613 57.4668Z" fill="#306700"/>
<path fill-rule="evenodd" clip-rule="evenodd" d="M103.619 57.0929H95.5259V55.5618C95.5259 55.0322 95.9874 54.576 96.6678 54.6157C98.1115 54.701 100.539 54.8934 101.593 55.2613C103.004 55.7542 103.556 56.3541 103.619 57.0929Z" fill="#62A744"/>
<path fill-rule="evenodd" clip-rule="evenodd" d="M25.8359 59.7491H28.173V58.2402H25.8359V59.7491Z" fill="#152021"/>
<path fill-rule="evenodd" clip-rule="evenodd" d="M26.409 55.5627V57.0939V59.7517C26.409 59.7517 22.3408 59.8201 21.008 59.6307C19.8871 59.471 18.4564 58.6687 18.3225 57.4668C18.3076 57.3379 18.3056 57.2149 18.3165 57.0939C18.3785 56.3561 18.93 55.7541 20.3416 55.2622C21.3967 54.8943 23.8234 54.7019 25.267 54.6176C25.9474 54.578 26.409 55.0332 26.409 55.5627Z" fill="#306700"/>
<path fill-rule="evenodd" clip-rule="evenodd" d="M26.4093 55.5627V57.0939H18.3169C18.3788 56.3561 18.9303 55.7541 20.342 55.2622C21.397 54.8943 23.8237 54.7019 25.2674 54.6176C25.9477 54.578 26.4093 55.0332 26.4093 55.5627Z" fill="#62A744"/>
<path fill-rule="evenodd" clip-rule="evenodd" d="M94.2298 59.7175L91.6363 61.091L60.2477 62.8264L47.5776 62.3296L34.4628 61.8139L30.2108 60.4702L27.8311 59.7175L30.049 52.846L32.2219 47.6386L33.7635 44.4553L35.6547 41.7797L36.8466 40.9119L53.1004 39.8984H79.165L83.5788 40.55L85.6459 41.497L86.1015 41.7083L87.643 43.9495L90.0957 48.9397L92.3386 54.3623L94.2298 59.7175Z" fill="#262728"/>
<path fill-rule="evenodd" clip-rule="evenodd" d="M29.2842 58.3062C29.2842 58.3062 29.3601 57.964 29.517 57.3581C30.1733 54.869 32.2474 47.9549 36.3605 42.2516C36.3605 42.2516 58.1521 39.6494 85.2667 42.1098C85.2667 42.1098 88.7105 45.794 92.41 56.9902C92.5509 57.4166 92.6918 57.8569 92.8346 58.3062C92.8346 58.3062 29.6169 58.3409 29.2842 58.3062ZM101.377 69.4465C101.295 68.5332 101.057 67.4255 100.817 66.6539C100.767 66.4923 100.717 66.3455 100.666 66.2176C100.579 65.9935 100.483 65.7783 100.38 65.572C100.144 65.1009 99.8675 64.6785 99.5718 64.3056C99.2031 63.8326 98.8065 63.4359 98.4159 63.1106C98.0932 62.8359 97.6616 62.5354 97.217 62.2468C96.3548 61.6885 95.4317 61.1728 95.087 60.9834C94.9981 60.9338 94.9481 60.908 94.9471 60.9051C94.9361 60.8664 94.9211 60.8208 94.9072 60.7712C94.8702 60.6512 94.8222 60.5005 94.7653 60.319C94.4945 59.4532 93.998 57.933 93.4016 56.2183C93.3576 56.0904 93.3117 55.9605 93.2647 55.8296C92.5184 53.7054 91.6352 51.3451 90.837 49.5888C90.3914 48.6041 89.747 47.2405 89.1915 46.0931C88.8578 45.4049 88.5221 44.8118 88.3283 44.4072C86.8947 41.4569 85.1143 40.4405 82.7016 39.9912C81.4987 39.7661 76.3745 39.537 75.7371 39.5231C74.9279 39.5053 74.1006 39.4874 73.2714 39.4706H73.2684C71.0445 39.4269 68.7936 39.3853 66.7485 39.3526C64.4387 39.3159 62.3896 39.2911 60.942 39.2871H60.7591C58.773 39.2911 55.6649 39.3377 52.2951 39.3982C50.5247 39.4299 48.6785 39.4656 46.8851 39.5023C46.4645 39.5112 46.0469 39.5192 45.6343 39.5291C45.1268 39.542 40.4012 39.7939 38.9885 39.9912C36.6377 40.3185 34.8524 41.8447 33.3728 44.4072C32.7723 45.4426 31.5925 47.9992 30.8581 49.5888C30.4845 50.402 29.4325 53.3017 28.4894 55.9615C27.816 57.8566 27.1966 59.6298 26.9138 60.441C26.8429 60.6472 26.7939 60.79 26.768 60.8604C26.758 60.8902 26.753 60.9051 26.753 60.9051C26.749 60.908 26.688 60.9398 26.5801 61.0003C26.0167 61.3117 24.2094 62.3282 23.2822 63.1106C23.2003 63.179 23.1154 63.2494 23.0335 63.3258C22.7108 63.6174 22.3871 63.9625 22.0814 64.3562C21.8026 64.7181 21.5419 65.1218 21.3171 65.572C21.2132 65.7783 21.1183 65.9935 21.0313 66.2176C20.9514 66.4229 20.8665 66.6817 20.7876 66.9713C20.5808 67.7111 20.3909 68.6532 20.319 69.4465C20.3 69.6598 20.29 69.864 20.29 70.0485C20.29 70.4323 20.3 70.9966 20.314 71.6392C20.322 72.0488 20.332 72.4901 20.343 72.9343C20.351 73.2309 20.359 73.5303 20.367 73.8219C20.374 74.0113 20.38 74.1978 20.383 74.3773C20.3929 74.7938 20.4039 75.6258 20.4149 76.563C20.4349 78.5424 20.4509 80.9879 20.4509 80.9879L21.0094 81.0166L60.8501 91.7557L100.687 81.0166L101.243 80.9879V80.8312C101.25 80.257 101.264 78.2409 101.282 76.563C101.293 75.6258 101.304 74.7938 101.316 74.3773C101.322 74.0926 101.331 73.7971 101.341 73.4976C101.346 73.3102 101.351 73.1228 101.354 72.9343C101.369 72.38 101.381 71.8306 101.389 71.3377C101.397 70.823 101.405 70.3718 101.405 70.0485C101.405 69.8621 101.396 69.6598 101.377 69.4465Z" fill="#62A744"/>
<path fill-rule="evenodd" clip-rule="evenodd" d="M20.3955 80.4082C20.4015 80.8237 20.4085 81.3354 20.4145 81.8858C20.4345 83.8653 20.4505 86.3108 20.4505 86.3108L21.0089 86.3395L30.7388 86.7937L37.9011 87.1299L60.8496 88.2059L90.9544 86.7937L100.686 86.3395L101.243 86.3108V86.1531C101.25 85.5799 101.264 83.5638 101.282 81.8858C101.288 81.3354 101.295 80.8237 101.302 80.4082C101.302 80.4082 88.4377 84.4325 60.8496 84.4325C33.2605 84.4325 20.3955 80.4082 20.3955 80.4082Z" fill="#306700"/>
<path fill-rule="evenodd" clip-rule="evenodd" d="M37.3423 68.631H84.63V68.1966H37.3423V68.631Z" fill="#004F5C"/>
<path fill-rule="evenodd" clip-rule="evenodd" d="M26.9152 60.4395C26.8433 60.6457 26.7943 60.7885 26.7684 60.8579C26.7594 60.8887 26.7534 60.9036 26.7534 60.9036C26.7494 60.9055 26.6884 60.9383 26.5815 60.9998L27.9702 69.6067L28.176 69.572L28.3849 69.5373L26.9152 60.4395Z" fill="#004F5C"/>
<path fill-rule="evenodd" clip-rule="evenodd" d="M79.3231 94.3802C79.1663 93.3152 78.9455 91.8217 78.7726 90.6584C78.6947 90.1417 78.6278 89.6905 78.5798 89.3702C78.3041 87.5375 76.292 86.292 74.4027 86.2077C72.9141 86.1373 70.886 86.049 68.5612 85.9776C66.2344 85.9022 63.6138 85.8477 60.9393 85.8457H60.7595C55.4115 85.8477 50.2723 86.0698 47.2961 86.2077C45.4059 86.292 43.3968 87.5375 43.119 89.3702C43.0711 89.6905 43.0032 90.1417 42.9262 90.6584C42.7534 91.8217 42.5326 93.3152 42.3747 94.3802C42.2578 95.1756 42.7094 95.7329 43.4917 95.7329H78.2052C78.9894 95.7329 79.441 95.1756 79.3231 94.3802Z" fill="black"/>
<path fill-rule="evenodd" clip-rule="evenodd" d="M79.3231 94.1652C79.1663 92.9315 78.9455 91.202 78.7726 89.8553C78.0483 88.343 76.3889 87.3651 74.8123 87.2818C73.2808 87.2045 71.1907 87.0994 68.795 87.0121C66.3992 86.9268 63.6968 86.8594 60.9433 86.8594H60.7545C55.2477 86.8594 49.9506 87.1261 46.8865 87.2818C45.31 87.3651 43.6505 88.343 42.9262 89.8553C42.7534 91.202 42.5326 92.9315 42.3747 94.1652C42.2578 95.0855 42.7094 95.7311 43.4917 95.7311H78.2052C78.9894 95.7311 79.441 95.0855 79.3231 94.1652Z" fill="black"/>
<path fill-rule="evenodd" clip-rule="evenodd" d="M94.947 60.9045C94.937 60.8658 94.922 60.8192 94.907 60.7696C94.871 60.6506 94.8231 60.4988 94.7661 60.3184L93.0737 70.8016L93.2825 70.8383L93.4883 70.873L95.0878 60.9828C94.9989 60.9322 94.949 60.9064 94.947 60.9045Z" fill="#004F5C"/>
<path fill-rule="evenodd" clip-rule="evenodd" d="M101.377 69.4449C101.295 68.5315 101.057 67.4238 100.817 66.6532C100.767 66.4906 100.718 66.3438 100.666 66.2159C100.579 65.9918 100.483 65.7766 100.38 65.5703C100.113 65.5773 99.8434 65.5842 99.5727 65.5911C98.5596 65.6239 97.5116 65.6744 96.4586 65.7379C93.8351 65.8976 91.1796 66.1386 88.9556 66.3657C88.2373 66.441 87.5639 66.5124 86.9525 66.5808C84.8235 66.8189 83.4288 67.0033 83.4288 67.0033C83.4108 67.0608 83.3978 67.1144 83.3809 67.1709C84.1232 67.5071 84.7576 68.5216 85.1432 69.9318C85.4 70.8729 85.5498 71.9806 85.5498 73.1726V74.1931C85.5498 74.4767 85.5159 74.7762 85.4709 75.0797C86.7247 75.0866 87.9216 75.0638 89.0496 75.0093C90.2724 74.9537 91.4203 74.8625 92.4963 74.7485C93.9729 74.5918 95.3147 74.3895 96.5226 74.1604C97.6545 73.9452 98.6705 73.7072 99.5727 73.4652C100.226 73.2887 100.82 73.1102 101.355 72.9336C101.369 72.3783 101.382 71.8289 101.39 71.336C101.398 70.8213 101.406 70.3711 101.406 70.0468C101.406 69.8604 101.396 69.6581 101.377 69.4449Z" fill="white"/>
<path fill-rule="evenodd" clip-rule="evenodd" d="M36.2356 73.1736C36.2356 71.9826 36.3844 70.8739 36.6422 69.9337C37.0148 68.5721 37.6183 67.5775 38.3266 67.2076C38.3056 67.1391 38.2906 67.0737 38.2687 67.0053C38.2687 67.0053 36.835 66.8149 34.656 66.5729C34.3483 66.5382 34.0256 66.5025 33.69 66.4678C31.55 66.2387 28.8835 65.9838 26.191 65.8004C24.8053 65.7081 23.4116 65.6328 22.0828 65.5911C21.8261 65.5852 21.5703 65.5772 21.3185 65.5723C21.2146 65.7775 21.1197 65.9927 21.0328 66.2179C20.9529 66.4231 20.868 66.681 20.789 66.9715C20.5812 67.7114 20.3924 68.6525 20.3205 69.4458C20.3005 69.66 20.2915 69.8633 20.2915 70.0488C20.2915 70.4326 20.3005 70.9968 20.3155 71.6395C20.3235 72.049 20.3335 72.4903 20.3445 72.9346C20.868 73.1062 21.4454 73.2817 22.0828 73.4543C23.2417 73.7696 24.5905 74.0741 26.136 74.3319C27.5847 74.5759 29.2042 74.7802 31.0045 74.912C31.8327 74.9745 32.6989 75.0201 33.603 75.0489C34.4682 75.0777 35.3794 75.0836 36.3145 75.0777C36.2705 74.7752 36.2356 74.4767 36.2356 74.1951V73.1736Z" fill="white"/>
<path fill-rule="evenodd" clip-rule="evenodd" d="M95.8873 86.4998C95.8503 86.6843 95.7913 86.8965 95.7084 87.1345C95.7084 87.1345 95.087 89.4065 92.5184 90.9535C92.4794 90.9773 92.4335 90.9863 92.3915 91.0011C92.3915 91.0011 90.79 91.8847 84.5099 91.7479C84.5099 91.7479 83.0283 91.9512 83.2661 89.9152L83.4599 88.1461L83.6217 86.6605C83.6217 86.6605 83.6807 85.7263 85.0424 85.642C85.0424 85.642 88.689 85.4556 95.4137 85.166C95.4137 85.166 96.169 85.166 95.8873 86.4998Z" fill="black"/>
<path fill-rule="evenodd" clip-rule="evenodd" d="M85.0336 86.2245C85.0336 86.2245 88.3894 86.0768 94.5806 85.8457C94.5806 85.8457 95.4808 85.8457 94.8534 87.4156C94.8534 87.4156 94.2799 89.2304 91.9141 90.464C91.8782 90.4829 91.8372 90.4898 91.7982 90.5027C91.7982 90.5027 90.3256 91.2058 84.543 91.0977C84.543 91.0977 83.1793 91.2604 83.3971 89.636L83.7248 87.0367C83.7248 87.0367 83.7787 86.292 85.0336 86.2245Z" fill="black"/>
<path fill-rule="evenodd" clip-rule="evenodd" d="M25.8095 86.4998C25.8465 86.6843 25.9054 86.8965 25.9884 87.1345C25.9884 87.1345 26.6108 89.4065 29.1784 90.9535C29.2173 90.9773 29.2633 90.9863 29.3053 91.0011C29.3053 91.0011 30.9068 91.8847 37.1869 91.7479C37.1869 91.7479 38.6685 91.9512 38.4307 89.9152L38.2359 88.1461L38.075 86.6605C38.075 86.6605 38.0161 85.7263 36.6544 85.642C36.6544 85.642 33.0078 85.4556 26.2831 85.166C26.2831 85.166 25.5278 85.166 25.8095 86.4998Z" fill="black"/>
<path fill-rule="evenodd" clip-rule="evenodd" d="M36.6626 86.2245C36.6626 86.2245 33.3067 86.0768 27.1165 85.8457C27.1165 85.8457 26.2164 85.8457 26.8428 87.4156C26.8428 87.4156 27.4162 89.2304 29.782 90.464C29.818 90.4829 29.8589 90.4898 29.8979 90.5027C29.8979 90.5027 31.3715 91.2058 37.1531 91.0977C37.1531 91.0977 38.5168 91.2604 38.299 89.636L37.9713 87.0367C37.9713 87.0367 37.9174 86.292 36.6626 86.2245Z" fill="black"/>
<path fill-rule="evenodd" clip-rule="evenodd" d="M85.5497 73.1727V74.1941C85.5497 74.5224 85.5167 74.8685 85.4577 75.2235C85.3448 75.9008 85.132 76.6158 84.8573 77.3289C84.2708 78.8402 83.3937 80.3357 82.5395 81.3928C81.8102 82.2972 81.0998 82.8823 80.6033 82.8823H41.1802C40.6857 82.8823 39.9744 82.2972 39.244 81.3928C38.3928 80.3357 37.5127 78.8402 36.9262 77.3289C36.6515 76.6158 36.4387 75.9008 36.3268 75.2235C36.2668 74.8685 36.2349 74.5224 36.2349 74.1941V73.1727C36.2349 71.9816 36.3837 70.8729 36.6415 69.9328C37.116 68.1963 37.9652 67.041 38.9323 67.041H82.8522C83.8183 67.041 84.6675 68.1963 85.143 69.9328C85.3998 70.8729 85.5497 71.9816 85.5497 73.1727Z" fill="black"/>
</g>
<path fill-rule="evenodd" clip-rule="evenodd" d="M81.1982 20.8451C81.1982 32.3574 71.7961 41.6902 60.1982 41.6902C48.6004 41.6902 39.1982 32.3574 39.1982 20.8451C39.1982 9.33282 48.6004 0 60.1982 0C71.7961 0 81.1982 9.33282 81.1982 20.8451Z" fill="#FACD46"/>
<path fill-rule="evenodd" clip-rule="evenodd" d="M59.8804 15.5137H67.6574V11.0135H62.9931V8.04883H58.4583V11.1802C55.7866 11.8172 53.7939 14.2086 53.7939 17.0539C53.7939 20.3857 56.5239 23.0955 59.8804 23.0955H61.5709C62.4273 23.0955 63.1238 23.7869 63.1238 24.6369C63.1238 25.4869 62.4273 26.1771 61.5709 26.1771H53.7939V30.6785H58.4583V33.6431H62.9931V30.5117C65.6659 29.8748 67.6574 27.4823 67.6574 24.6369C67.6574 21.3052 64.9274 18.5953 61.5709 18.5953H59.8804C59.0241 18.5953 58.3276 17.9039 58.3276 17.0539C58.3276 16.2051 59.0241 15.5137 59.8804 15.5137Z" fill="#AC6000"/>
<path fill-rule="evenodd" clip-rule="evenodd" d="M58.8258 15.5137H66.6028V11.0135H61.9384V8.04883H57.4036V11.1802C54.7319 11.8172 52.7393 14.2086 52.7393 17.0539C52.7393 20.3857 55.4693 23.0955 58.8258 23.0955H60.5163C61.3726 23.0955 62.0691 23.7869 62.0691 24.6369C62.0691 25.4869 61.3726 26.1771 60.5163 26.1771H52.7393V30.6785H57.4036V33.6431H61.9384V30.5117C64.6113 29.8748 66.6028 27.4823 66.6028 24.6369C66.6028 21.3052 63.8728 18.5953 60.5163 18.5953H58.8258C57.9694 18.5953 57.2729 17.9039 57.2729 17.0539C57.2729 16.2051 57.9694 15.5137 58.8258 15.5137Z" fill="#FFE494"/>
<path fill-rule="evenodd" clip-rule="evenodd" d="M42.3711 20.8448C42.3711 10.6608 50.5342 2.38529 60.7262 2.10967C60.5501 2.10504 60.3751 2.10156 60.1989 2.10156C49.7631 2.10156 41.3164 10.4848 41.3164 20.8448C41.3164 31.2036 49.7619 39.588 60.1989 39.588C60.3751 39.588 60.5501 39.5845 60.7262 39.5799C50.5529 39.3054 42.3711 31.0473 42.3711 20.8448Z" fill="#AC6000"/>
<path fill-rule="evenodd" clip-rule="evenodd" d="M78.0261 20.8448C78.0261 10.6608 69.8629 2.38529 59.6709 2.10967C59.8471 2.10504 60.0221 2.10156 60.1982 2.10156C70.6341 2.10156 79.0807 10.4848 79.0807 20.8448C79.0807 31.2036 70.6352 39.588 60.1982 39.588C60.0221 39.588 59.8471 39.5845 59.6709 39.5799C69.8442 39.3054 78.0261 31.0473 78.0261 20.8448Z" fill="#FFDF80"/>
</svg>
