<svg width="24" height="24" viewBox="0 0 24 24" fill="none" xmlns="http://www.w3.org/2000/svg">
<path fill-rule="evenodd" clip-rule="evenodd" d="M14.5 12.5C14.5 13.603 13.603 14.5 12.5 14.5C11.397 14.5 10.5 13.603 10.5 12.5C10.5 11.397 11.397 10.5 12.5 10.5C13.603 10.5 14.5 11.397 14.5 12.5ZM7.5 12.5C7.5 15.261 9.739 17.5 12.5 17.5C15.261 17.5 17.5 15.261 17.5 12.5C17.5 9.739 15.261 7.5 12.5 7.5C9.739 7.5 7.5 9.739 7.5 12.5Z" fill="#242C33"/>
<mask id="mask0_7729_104458" style="mask-type:luminance" maskUnits="userSpaceOnUse" x="2" y="2" width="21" height="21">
<path fill-rule="evenodd" clip-rule="evenodd" d="M2.69629 2.69922H22.5V22.4992H2.69629V2.69922Z" fill="white"/>
</mask>
<g mask="url(#mask0_7729_104458)">
<path fill-rule="evenodd" clip-rule="evenodd" d="M14.4913 2.69922V4.76122C17.9403 5.64922 20.5003 8.77722 20.5003 12.4992C20.5003 16.9112 16.9113 20.4992 12.5003 20.4992C8.77029 20.4992 5.63829 17.9312 4.75629 14.4722H2.69629C3.61329 19.0502 7.65229 22.4992 12.5003 22.4992C18.0233 22.4992 22.5003 18.0222 22.5003 12.4992C22.5003 7.65922 19.0603 3.62222 14.4913 2.69922Z" fill="#242C33"/>
</g>
<path fill-rule="evenodd" clip-rule="evenodd" d="M12.5 6V1C6.159 1 1 6.159 1 12.5H6C6 8.916 8.916 6 12.5 6Z" fill="#242C33"/>
</svg>
