<svg width="121" height="120" viewBox="0 0 121 120" fill="none" xmlns="http://www.w3.org/2000/svg">
<path fill-rule="evenodd" clip-rule="evenodd" d="M120.198 60C120.198 93.137 93.3352 120 60.1982 120C27.0612 120 0.198242 93.137 0.198242 60C0.198242 26.863 27.0612 0 60.1982 0C93.3352 0 120.198 26.863 120.198 60Z" fill="#E6F1F5"/>
<path fill-rule="evenodd" clip-rule="evenodd" d="M55.0669 57.3951L56.1329 57.6811L56.4779 57.2711C56.7139 56.9901 56.9289 56.6921 57.1229 56.3801L58.9399 53.4511C59.2389 52.8901 59.6149 51.8271 59.5959 51.1551L59.5139 50.4941L59.4829 50.6531C59.3899 51.1091 58.8539 52.6971 56.2299 55.9681L55.0669 57.3951Z" fill="#E09F73"/>
<path fill-rule="evenodd" clip-rule="evenodd" d="M62.2197 58.3708L63.6497 58.0958C64.0307 57.7138 64.6737 56.5898 64.7987 56.2448L65.2727 55.0168C65.5347 54.2148 65.6577 53.3938 65.5967 52.5538C65.5717 52.1978 65.5217 51.8458 65.4507 51.5548L65.2347 50.9258L65.2367 51.0878C65.2407 51.5528 65.2017 52.0168 65.1167 52.4748C65.1067 52.5318 65.0577 54.3958 63.3287 56.9208L62.2197 58.3708Z" fill="#E09F73"/>
<path fill-rule="evenodd" clip-rule="evenodd" d="M68.0917 65.9085C67.8667 66.0635 66.1467 68.1655 65.6347 68.8635C66.7367 66.4185 68.3107 62.8465 69.2837 60.6785C69.5247 59.9265 69.4117 60.2874 69.7977 59.2175C69.9047 58.8534 69.8927 58.6465 69.9127 58.3735C70.0907 56.0185 68.6497 54.0465 66.2317 55.3735C65.6687 55.6815 65.1817 56.2604 64.7827 56.8724C64.4827 57.3364 64.0747 58.1045 63.7457 58.6135C63.6107 58.6075 63.3407 58.5405 63.2437 58.5225C63.1487 58.5055 63.2127 58.5175 63.2057 58.5135C63.4987 58.3875 63.6937 58.1194 63.8827 57.8864C64.1457 57.5604 64.4067 56.9834 64.5967 56.6525C64.9047 56.1144 65.3927 54.7435 65.4747 54.3275C66.0187 51.5845 64.9837 48.4295 61.7877 50.2625C60.9927 50.7195 60.7037 51.2085 60.0737 52.0555C59.7937 52.4335 59.8087 52.5075 59.2517 53.3965C58.6947 54.2854 57.5287 56.2255 56.8547 57.3184C56.6387 57.4585 56.5477 57.3364 56.3657 57.3724C56.7297 57.0505 56.9667 56.7775 57.2127 56.3425C57.7437 55.4055 58.3897 54.5395 58.8837 53.5465C59.1107 53.0915 59.5217 52.1675 59.5707 51.5535C59.6467 50.6125 59.4627 50.1015 59.0987 49.4475C58.4647 48.3085 56.7747 48.2995 54.6197 50.1465C53.5477 51.0665 51.0807 54.4095 49.8827 55.5195C48.4897 56.8105 44.2097 60.8035 42.6617 62.0855C42.6667 62.0925 42.6727 62.0984 42.6787 62.1065C39.9257 64.6875 36.9917 67.4355 35.2947 69.0125C32.5967 71.5165 33.1667 71.4465 31.4057 73.1425C30.2097 74.3134 30.4937 71.3265 30.6797 69.6775C30.6957 68.4324 31.4037 66.9845 31.8117 65.8505C32.5747 64.1345 32.8707 63.3285 33.5557 61.3705C34.2397 59.4135 34.2807 55.4605 32.5227 53.7385C32.4917 53.7074 32.2777 53.4915 32.1537 53.3665C31.2357 52.4885 30.1297 52.6685 29.6727 53.9005C29.5017 54.6065 29.2777 55.6364 29.1267 56.2845C28.6027 58.5294 27.7767 60.2685 26.6437 62.3085C24.7697 65.6795 22.4457 68.8144 21.1657 72.5765C20.4627 74.7474 20.0197 76.6915 19.4587 78.9494C18.8987 81.2075 18.4377 83.4715 18.2957 85.9645C18.2477 86.8175 18.3447 85.6445 18.1177 88.9275C17.9207 91.7835 17.5757 94.3525 14.3867 98.7285C19.2227 104.442 25.0987 109.245 31.7357 112.828C31.9667 112.836 32.1967 112.848 32.4277 112.856C34.1817 110.099 35.6057 106.865 37.4097 104.259C39.2147 101.652 39.3957 102.024 42.7657 99.9775C43.1837 99.7234 45.0657 98.5374 47.8037 96.0164C50.2687 93.7484 56.2697 88.2425 57.6487 87.1635C59.9997 85.2225 62.1287 83.3685 63.5547 82.0685C63.5627 82.0765 63.5707 82.0844 63.5797 82.0924C63.7797 82.2764 66.3387 79.2934 67.2697 77.3134C68.2947 75.1355 69.0507 72.0595 69.9047 69.8834C71.6497 65.0674 68.8927 65.3575 68.0917 65.9085Z" fill="#F39E7C"/>
<path fill-rule="evenodd" clip-rule="evenodd" d="M32.1982 87.3422L31.8672 89.9472C31.7902 90.5492 31.8712 91.1792 32.0962 91.7342C32.4312 92.5612 32.9782 92.8522 33.6222 92.8452C34.1342 92.8392 34.6252 92.6382 35.0102 92.3002L35.1532 92.1732C36.4942 90.9952 38.1002 90.5942 39.7512 90.6242L43.5752 90.6962C46.5882 90.7502 49.3762 88.7922 51.1772 85.7312C51.2932 85.5342 51.3012 85.2572 51.1982 85.0342L48.4242 79.0552C48.3122 78.8162 48.0982 78.6942 47.8972 78.7562L35.5372 82.6232C33.7942 83.1682 32.4952 85.0032 32.1982 87.3422Z" fill="#DD876B"/>
<path fill-rule="evenodd" clip-rule="evenodd" d="M30.5311 71.3391L30.6511 69.7461C30.6931 69.4281 30.7371 69.0901 30.7891 68.7931C30.9671 67.7821 31.4911 66.7361 31.8271 65.7921C31.8651 65.6851 31.9571 65.5121 32.0101 65.4111L32.9431 63.2461L31.4301 65.9151C31.0251 66.6691 30.2111 67.1101 29.3581 67.0371L28.8351 66.9931C28.7671 66.9871 28.7501 67.0851 28.8161 67.1031L29.2221 67.2141C29.9971 67.4251 30.4941 68.1111 30.5111 68.9011C30.5141 69.0311 30.5171 69.1611 30.5291 69.2911L30.5311 71.3391Z" fill="#E09F73"/>
<path fill-rule="evenodd" clip-rule="evenodd" d="M18.8101 94.3229L18.5781 94.0389C18.2361 93.6199 18.0461 93.0979 18.0381 92.5569L18.0011 89.9609L17.4641 92.7919C17.3971 93.1419 17.2971 93.4849 17.1641 93.8159L16.7891 94.7509C16.4921 95.3639 15.8961 96.5429 15.3301 97.3659L14.8511 98.0789L16.2151 96.8159C16.6431 96.3589 17.0221 95.8589 17.3461 95.3229L17.5761 94.9419C17.5991 94.9049 17.6501 94.8979 17.6811 94.9279L18.0631 95.2959C19.4541 96.6299 21.1631 97.8179 23.0371 98.2619L25.7441 98.9029L22.9591 97.8199C21.3801 97.1339 19.2651 95.1279 18.8101 94.3229Z" fill="#DD876B"/>
<path fill-rule="evenodd" clip-rule="evenodd" d="M33.3169 100.623L36.6189 101.31C37.2049 101.432 37.8489 101.576 38.4379 101.466L41.1279 100.817L39.7229 101.715C39.1019 102.162 38.3119 102.864 37.8629 103.464L37.8139 103.531C37.7959 103.555 37.7589 103.542 37.7599 103.513L37.8129 102.13C37.3749 102.107 36.9429 102.016 36.5339 101.858L33.3169 100.623Z" fill="#DD876B"/>
<path fill-rule="evenodd" clip-rule="evenodd" d="M28.7488 58.6864C29.1228 58.6434 29.5038 58.3084 29.5968 57.9444L30.5378 54.2284C30.5878 54.0284 30.4988 53.7564 30.3708 53.5664L30.2938 53.4674C30.2168 53.3684 30.0818 53.2494 30.0818 53.2494L30.0648 53.2344C30.0078 53.2954 29.9878 53.3154 29.9058 53.4364C29.8218 53.5614 29.7038 53.7784 29.6668 53.9254L28.9268 57.0514C28.9098 57.1244 28.8898 57.1964 28.8668 57.2674L28.4628 58.4984C28.4508 58.7264 28.7488 58.6864 28.7488 58.6864Z" fill="white"/>
<path fill-rule="evenodd" clip-rule="evenodd" d="M87.0546 99.3071H34.2466C32.5896 99.3071 31.2466 97.9631 31.2466 96.3071V26.1191C31.2466 24.4621 32.5896 23.1191 34.2466 23.1191H87.0546C88.7116 23.1191 90.0546 24.4621 90.0546 26.1191V96.3071C90.0546 97.9631 88.7116 99.3071 87.0546 99.3071Z" fill="#313D47"/>
<path fill-rule="evenodd" clip-rule="evenodd" d="M33.6509 96.1934H87.6509V26.2344H33.6509V96.1934Z" fill="white"/>
<path fill-rule="evenodd" clip-rule="evenodd" d="M23.6222 68.203C24.8992 69.189 26.2712 70.072 27.6892 70.84C28.3252 71.183 28.9772 71.51 29.6612 71.747C29.9042 71.832 30.1592 71.911 30.4092 71.944C30.4422 71.949 30.4762 71.953 30.5112 71.956C30.5152 71.218 30.6052 70.34 30.6802 69.678C30.6962 68.433 31.4032 66.984 31.8122 65.851C32.5752 64.135 32.8712 63.329 33.5562 61.371C34.2412 59.414 34.2812 55.461 32.5232 53.739C32.4922 53.708 32.2782 53.492 32.1532 53.368C31.2362 52.489 30.1292 52.669 29.6732 53.901C29.5022 54.607 29.2782 55.637 29.1262 56.286C28.6022 58.53 27.7772 60.269 26.6432 62.309C25.5842 64.216 24.3802 66.046 23.3032 67.957C23.4112 68.041 23.5182 68.122 23.6222 68.203Z" fill="#F39E7C"/>
<path fill-rule="evenodd" clip-rule="evenodd" d="M30.5311 71.3391L30.6511 69.7461C30.6931 69.4281 30.7371 69.0901 30.7891 68.7931C30.9671 67.7821 31.4911 66.7361 31.8271 65.7921C31.8651 65.6851 31.9571 65.5121 32.0101 65.4111L32.9431 63.2461L31.4301 65.9151C31.0251 66.6691 30.2111 67.1101 29.3581 67.0371L28.8351 66.9931C28.7671 66.9871 28.7501 67.0851 28.8161 67.1031L29.2221 67.2141C29.9971 67.4251 30.4941 68.1111 30.5111 68.9011C30.5141 69.0311 30.5171 69.1611 30.5291 69.2911L30.5311 71.3391Z" fill="#DD876B"/>
<path fill-rule="evenodd" clip-rule="evenodd" d="M28.7488 58.6864C29.1228 58.6434 29.5038 58.3084 29.5968 57.9444L30.5378 54.2284C30.5878 54.0284 30.4988 53.7564 30.3708 53.5664L30.2938 53.4674C30.2168 53.3684 30.0818 53.2494 30.0818 53.2494L30.0648 53.2344C30.0078 53.2954 29.9878 53.3154 29.9058 53.4364C29.8218 53.5614 29.7038 53.7784 29.6668 53.9254L28.9268 57.0514C28.9098 57.1244 28.8898 57.1964 28.8668 57.2674L28.4628 58.4984C28.4508 58.7264 28.7488 58.6864 28.7488 58.6864Z" fill="white"/>
<path fill-rule="evenodd" clip-rule="evenodd" d="M77.7719 36.8848H43.5299C43.0449 36.8848 42.6509 36.4908 42.6509 36.0058V35.7638C42.6509 35.2788 43.0449 34.8848 43.5299 34.8848H77.7719C78.2569 34.8848 78.6509 35.2788 78.6509 35.7638V36.0058C78.6509 36.4908 78.2569 36.8848 77.7719 36.8848Z" fill="#D4D7D9"/>
<path fill-rule="evenodd" clip-rule="evenodd" d="M77.7719 44.8848H43.5299C43.0449 44.8848 42.6509 44.4908 42.6509 44.0058V43.7638C42.6509 43.2788 43.0449 42.8848 43.5299 42.8848H77.7719C78.2569 42.8848 78.6509 43.2788 78.6509 43.7638V44.0058C78.6509 44.4908 78.2569 44.8848 77.7719 44.8848Z" fill="#D4D7D9"/>
<path fill-rule="evenodd" clip-rule="evenodd" d="M77.7719 52.8848H43.5299C43.0449 52.8848 42.6509 52.4908 42.6509 52.0058V51.7638C42.6509 51.2788 43.0449 50.8848 43.5299 50.8848H77.7719C78.2569 50.8848 78.6509 51.2788 78.6509 51.7638V52.0058C78.6509 52.4908 78.2569 52.8848 77.7719 52.8848Z" fill="#D4D7D9"/>
<path fill-rule="evenodd" clip-rule="evenodd" d="M69.2282 110.422L60.5472 105.297L51.8662 110.422V90.2676H69.2282V110.422Z" fill="#3E8500"/>
<path fill-rule="evenodd" clip-rule="evenodd" d="M62.3429 60.8848H43.5299C43.0449 60.8848 42.6509 60.4908 42.6509 60.0058V59.7638C42.6509 59.2788 43.0449 58.8848 43.5299 58.8848H62.3429C62.8279 58.8848 63.2229 59.2788 63.2229 59.7638V60.0058C63.2229 60.4908 62.8279 60.8848 62.3429 60.8848Z" fill="#D4D7D9"/>
<path fill-rule="evenodd" clip-rule="evenodd" d="M69.2282 90.2656H51.8662V90.7096C53.5512 93.7716 56.8062 95.8476 60.5472 95.8476C64.2892 95.8476 67.5422 93.7716 69.2282 90.7106V90.2656Z" fill="#306700"/>
<path fill-rule="evenodd" clip-rule="evenodd" d="M73.5464 81.252C73.5464 88.432 67.7264 94.252 60.5464 94.252C53.3674 94.252 47.5464 88.432 47.5464 81.252C47.5464 74.072 53.3674 68.252 60.5464 68.252C67.7264 68.252 73.5464 74.072 73.5464 81.252Z" fill="#62A744"/>
<path fill-rule="evenodd" clip-rule="evenodd" d="M58.9994 86.5155L54.3564 81.8715L55.9034 80.3255L58.9994 83.4205L65.1884 77.2305L66.7374 78.7775L58.9994 86.5155Z" fill="white"/>
<path fill-rule="evenodd" clip-rule="evenodd" d="M66.1987 20H54.1987C49.7807 20 46.1987 23.582 46.1987 28H74.1987C74.1987 23.582 70.6167 20 66.1987 20Z" fill="#FACD46"/>
<path fill-rule="evenodd" clip-rule="evenodd" d="M58.6987 16.1153C58.6987 15.2863 59.3697 14.6153 60.1987 14.6153C61.0277 14.6153 61.6987 15.2863 61.6987 16.1153C61.6987 16.9433 61.0277 17.6153 60.1987 17.6153C59.3697 17.6153 58.6987 16.9433 58.6987 16.1153ZM64.6982 17.6152H63.9012C64.0902 17.1512 64.1982 16.6462 64.1982 16.1152C64.1982 13.9062 62.4072 12.1152 60.1982 12.1152C57.9892 12.1152 56.1982 13.9062 56.1982 16.1152C56.1982 16.6462 56.3062 17.1512 56.4952 17.6152H55.6982C54.3172 17.6152 53.1982 18.7342 53.1982 20.1152H67.1982C67.1982 18.7342 66.0792 17.6152 64.6982 17.6152Z" fill="#AC6000"/>
</svg>
