<svg width="40" height="40" viewBox="0 0 40 40" fill="none" xmlns="http://www.w3.org/2000/svg">
<path fill-rule="evenodd" clip-rule="evenodd" d="M13.3394 30.5701C17.4674 31.2531 23.2974 31.2161 27.3874 30.5701C27.9724 30.4941 28.9094 30.0171 29.2624 29.4201C31.7264 25.2441 30.9454 18.5831 28.1434 10.1311C27.5944 8.48312 26.4704 8.15512 24.9194 8.12012H15.8084C14.2614 8.15512 13.1324 8.48312 12.5884 10.1311C9.78144 18.5831 9.00144 25.2441 11.4644 29.4201C11.8174 30.0171 12.7554 30.4941 13.3394 30.5701ZM13.2034 31.604C12.1854 31.471 11.8324 30.954 10.6334 31.129C9.20735 31.333 8.77935 32.555 9.10135 33.84C10.0644 37.667 9.95835 40 15.1734 40H25.5534C30.7694 40 30.6684 37.667 31.6264 33.84C31.9484 32.555 31.5194 31.333 30.0984 31.129C28.8944 30.954 28.5424 31.471 27.5244 31.604C24.2154 32.173 17.0814 32.301 13.2034 31.604ZM17.4214 7.076H23.3064C24.3294 7.076 25.4484 7.107 25.4634 5.787C25.4784 4.6 25.0594 2.932 24.5204 1.289C24.1374 0.128 22.6864 0 20.3634 0C18.0404 0 16.5894 0.128 16.2064 1.289C15.6674 2.932 15.2544 4.6 15.2644 5.787C15.2794 7.107 16.3984 7.076 17.4214 7.076Z" fill="#313D47"/>
</svg>
