<svg width="121" height="120" viewBox="0 0 121 120" fill="none" xmlns="http://www.w3.org/2000/svg">
<path fill-rule="evenodd" clip-rule="evenodd" d="M120.198 60C120.198 93.137 93.3352 120 60.1982 120C27.0612 120 0.198242 93.137 0.198242 60C0.198242 26.863 27.0612 0 60.1982 0C93.3352 0 120.198 26.863 120.198 60Z" fill="#E6F1F5"/>
<path fill-rule="evenodd" clip-rule="evenodd" d="M55.0669 57.3961L56.1329 57.6821L56.4779 57.2721C56.7139 56.9911 56.9289 56.6931 57.1229 56.3811L58.9399 53.4521C59.2389 52.8911 59.6149 51.8281 59.5959 51.1561L59.5139 50.4961L59.4819 50.6541C59.3899 51.1101 58.8529 52.6991 56.2289 55.9691L55.0669 57.3961Z" fill="#E09F73"/>
<path fill-rule="evenodd" clip-rule="evenodd" d="M62.2197 58.3708L63.6497 58.0958C64.0307 57.7128 64.6737 56.5898 64.7987 56.2438L65.2727 55.0158C65.5357 54.2148 65.6587 53.3938 65.5967 52.5538C65.5707 52.1978 65.5217 51.8458 65.4517 51.5548L65.2347 50.9258L65.2357 51.0878C65.2407 51.5528 65.2017 52.0168 65.1167 52.4738C65.1057 52.5318 65.0577 54.3958 63.3297 56.9208L62.2197 58.3708Z" fill="#E09F73"/>
<path fill-rule="evenodd" clip-rule="evenodd" d="M68.0914 65.9086C67.8664 66.0636 66.1465 68.1656 65.6344 68.8636C66.7365 66.4186 68.3104 62.8466 69.2834 60.6776C69.5244 59.9256 69.4124 60.2876 69.7974 59.2166C69.9054 58.8536 69.8924 58.6456 69.9134 58.3736C70.0914 56.0186 68.6484 54.0466 66.2314 55.3726C65.6684 55.6816 65.1824 56.2596 64.7834 56.8726C64.4824 57.3366 64.0755 58.1046 63.7464 58.6126C63.6105 58.6076 63.3404 58.5396 63.2444 58.5226C63.1484 58.5046 63.2134 58.5176 63.2054 58.5136C63.4984 58.3876 63.6934 58.1196 63.8834 57.8856C64.1454 57.5606 64.4074 56.9826 64.5964 56.6526C64.9054 56.1136 65.3924 54.7426 65.4744 54.3276C66.0185 51.5846 64.9834 48.4296 61.7884 50.2626C60.9935 50.7186 60.7034 51.2076 60.0734 52.0556C59.7934 52.4336 59.8094 52.5066 59.2524 53.3956C58.6945 54.2856 57.5284 56.2256 56.8544 57.3176C56.6394 57.4576 56.5475 57.3356 56.3654 57.3726C56.7304 57.0496 56.9664 56.7766 57.2134 56.3416C57.7435 55.4046 58.3895 54.5386 58.8844 53.5466C59.1105 53.0916 59.5214 52.1676 59.5714 51.5536C59.6464 50.6116 59.4624 50.1006 59.0984 49.4466C58.4644 48.3086 56.7745 48.2996 54.6204 50.1466C53.5475 51.0656 51.0804 54.4086 49.8824 55.5196C48.4894 56.8106 44.2094 60.8026 42.6614 62.0856C42.6674 62.0926 42.6724 62.0986 42.6784 62.1056C39.9265 64.6876 36.9914 67.4356 35.2944 69.0116C32.5964 71.5166 33.1664 71.4456 31.4064 73.1426C30.2094 74.3136 30.4935 71.3266 30.6804 69.6766C30.6954 68.4326 31.4035 66.9836 31.8124 65.8506C32.5744 64.1346 32.8714 63.3276 33.5554 61.3706C34.2404 59.4126 34.2805 55.4606 32.5224 53.7376C32.4925 53.7076 32.2775 53.4906 32.1535 53.3666C31.2355 52.4886 30.1294 52.6676 29.6725 53.8996C29.5015 54.6066 29.2775 55.6356 29.1265 56.2846C28.6025 58.5296 27.7765 60.2686 26.6434 62.3086C24.7695 65.6796 22.4455 68.8146 21.1655 72.5766C20.4625 74.7476 20.0195 76.6916 19.4595 78.9496C18.8985 81.2076 18.4385 83.4716 18.2965 85.9636C18.2475 86.8176 18.3445 85.6436 18.1175 88.9266C17.9205 91.7826 17.5765 94.3526 14.3875 98.7286C19.2225 104.443 25.0984 109.246 31.7354 112.829C31.9664 112.837 32.1975 112.849 32.4284 112.857C34.1814 110.1 35.6055 106.866 37.4104 104.259C39.2145 101.653 39.3954 102.025 42.7664 99.9776C43.1834 99.7236 45.0655 98.5366 47.8034 96.0166C50.2684 93.7476 56.2705 88.2416 57.6484 87.1636C59.9995 85.2226 62.1294 83.3686 63.5544 82.0686C63.5624 82.0766 63.5714 82.0846 63.5794 82.0916C63.7804 82.2766 66.3384 79.2926 67.2694 77.3136C68.2954 75.1346 69.0514 72.0596 69.9054 69.8826C71.6494 65.0676 68.8924 65.3576 68.0914 65.9086Z" fill="#F39E7C"/>
<path fill-rule="evenodd" clip-rule="evenodd" d="M32.1975 87.3407L31.8665 89.9467C31.7895 90.5487 31.8705 91.1777 32.0955 91.7327C32.4305 92.5597 32.9775 92.8507 33.6205 92.8437C34.1335 92.8387 34.6245 92.6367 35.0095 92.2987L35.1525 92.1727C36.4935 90.9947 38.0995 90.5927 39.7495 90.6237L43.5745 90.6937C46.5875 90.7497 49.3745 88.7917 51.1765 85.7297C51.2925 85.5327 51.3005 85.2557 51.1975 85.0327L48.4235 79.0537C48.3115 78.8137 48.0975 78.6917 47.8965 78.7547L35.5365 82.6217C33.7935 83.1667 32.4945 85.0027 32.1975 87.3407Z" fill="#DD876B"/>
<path fill-rule="evenodd" clip-rule="evenodd" d="M30.5302 71.3381L30.6502 69.7451C30.6922 69.4271 30.7362 69.0891 30.7882 68.7921C30.9662 67.7811 31.4902 66.7351 31.8262 65.7901C31.8642 65.6831 31.9572 65.5101 32.0092 65.4091L32.9422 63.2441L31.4292 65.9131C31.0242 66.6681 30.2102 67.1091 29.3572 67.0361L28.8352 66.9911C28.7662 66.9861 28.7492 67.0831 28.8152 67.1011L29.2212 67.2121C29.9962 67.4241 30.4932 68.1101 30.5102 68.9001C30.5132 69.0301 30.5162 69.1601 30.5282 69.2891L30.5302 71.3381Z" fill="#E09F73"/>
<path fill-rule="evenodd" clip-rule="evenodd" d="M18.8108 94.322L18.5788 94.037C18.2368 93.619 18.0468 93.097 18.0388 92.556L18.0018 89.959L17.4648 92.791C17.3978 93.141 17.2978 93.484 17.1648 93.815L16.7908 94.749C16.4928 95.363 15.8968 96.542 15.3308 97.365L14.8518 98.078L16.2158 96.815C16.6438 96.358 17.0228 95.857 17.3468 95.322L17.5768 94.941C17.5998 94.904 17.6508 94.897 17.6818 94.927L18.0638 95.294C19.4538 96.628 21.1628 97.817 23.0378 98.261L25.7438 98.902L22.9598 97.818C21.3808 97.132 19.2648 95.126 18.8108 94.322Z" fill="#DD876B"/>
<path fill-rule="evenodd" clip-rule="evenodd" d="M33.3169 100.621L36.6189 101.308C37.2049 101.43 37.8489 101.574 38.4379 101.464L41.1279 100.816L39.7239 101.713C39.1019 102.16 38.3119 102.862 37.8629 103.462L37.8139 103.529C37.7969 103.553 37.7599 103.54 37.7609 103.511L37.8129 102.128C37.3749 102.106 36.9439 102.014 36.5349 101.857L33.3169 100.621Z" fill="#DD876B"/>
<path fill-rule="evenodd" clip-rule="evenodd" d="M28.7495 58.6844C29.1235 58.6404 29.5045 58.3064 29.5975 57.9414L30.5385 54.2254C30.5885 54.0264 30.4995 53.7544 30.3705 53.5634L30.2945 53.4654C30.2175 53.3664 30.0825 53.2474 30.0825 53.2474L30.0655 53.2324C30.0085 53.2934 29.9885 53.3134 29.9065 53.4344C29.8225 53.5584 29.7035 53.7754 29.6675 53.9224L28.9275 57.0494C28.9105 57.1224 28.8905 57.1944 28.8665 57.2644L28.4635 58.4954C28.4515 58.7244 28.7495 58.6844 28.7495 58.6844Z" fill="white"/>
<path fill-rule="evenodd" clip-rule="evenodd" d="M87.0543 99.3071H34.2463C32.5893 99.3071 31.2463 97.9641 31.2463 96.3071V26.1191C31.2463 24.4631 32.5893 23.1191 34.2463 23.1191H87.0543C88.7113 23.1191 90.0543 24.4631 90.0543 26.1191V96.3071C90.0543 97.9641 88.7113 99.3071 87.0543 99.3071Z" fill="#313D47"/>
<path fill-rule="evenodd" clip-rule="evenodd" d="M33.6516 96.1914H87.6516V26.2324H33.6516V96.1914Z" fill="white"/>
<path fill-rule="evenodd" clip-rule="evenodd" d="M23.6215 68.2011C24.8985 69.1871 26.2705 70.0701 27.6885 70.8381C28.3245 71.1821 28.9765 71.5081 29.6605 71.7461C29.9035 71.8301 30.1585 71.9091 30.4085 71.9431C30.4415 71.9471 30.4765 71.9511 30.5105 71.9541C30.5145 71.2161 30.6045 70.3381 30.6795 69.6761C30.6955 68.4311 31.4025 66.9831 31.8115 65.8501C32.5745 64.1331 32.8705 63.3271 33.5555 61.3691C34.2405 59.4121 34.2805 55.4591 32.5225 53.7371C32.4915 53.7071 32.2775 53.4901 32.1525 53.3661C31.2355 52.4871 30.1285 52.6671 29.6725 53.8991C29.5015 54.6051 29.2775 55.6351 29.1265 56.2841C28.6025 58.5291 27.7765 60.2681 26.6425 62.3081C25.5835 64.2141 24.3805 66.0441 23.3025 67.9561C23.4105 68.0391 23.5175 68.1211 23.6215 68.2011Z" fill="#F39E7C"/>
<path fill-rule="evenodd" clip-rule="evenodd" d="M30.5302 71.3381L30.6502 69.7451C30.6922 69.4271 30.7362 69.0891 30.7882 68.7921C30.9662 67.7811 31.4902 66.7351 31.8262 65.7901C31.8642 65.6831 31.9572 65.5101 32.0092 65.4091L32.9422 63.2441L31.4292 65.9131C31.0242 66.6681 30.2102 67.1091 29.3572 67.0361L28.8352 66.9911C28.7662 66.9861 28.7492 67.0831 28.8152 67.1011L29.2212 67.2121C29.9962 67.4241 30.4932 68.1101 30.5102 68.9001C30.5132 69.0301 30.5162 69.1601 30.5282 69.2891L30.5302 71.3381Z" fill="#DD876B"/>
<path fill-rule="evenodd" clip-rule="evenodd" d="M28.7495 58.6844C29.1235 58.6404 29.5045 58.3064 29.5975 57.9414L30.5385 54.2254C30.5885 54.0264 30.4995 53.7544 30.3705 53.5634L30.2945 53.4654C30.2175 53.3664 30.0825 53.2474 30.0825 53.2474L30.0655 53.2324C30.0085 53.2934 29.9885 53.3134 29.9065 53.4344C29.8225 53.5584 29.7035 53.7754 29.6675 53.9224L28.9275 57.0494C28.9105 57.1224 28.8905 57.1944 28.8665 57.2644L28.4635 58.4954C28.4515 58.7244 28.7495 58.6844 28.7495 58.6844Z" fill="white"/>
<path fill-rule="evenodd" clip-rule="evenodd" d="M66.198 20H54.198C49.78 20 46.198 23.582 46.198 28H74.198C74.198 23.582 70.616 20 66.198 20Z" fill="#FACD46"/>
<path fill-rule="evenodd" clip-rule="evenodd" d="M58.6982 16.1153C58.6982 15.2873 59.3702 14.6153 60.1982 14.6153C61.0262 14.6153 61.6982 15.2873 61.6982 16.1153C61.6982 16.9433 61.0262 17.6153 60.1982 17.6153C59.3702 17.6153 58.6982 16.9433 58.6982 16.1153ZM64.6985 17.6152H63.9015C64.0895 17.1512 64.1985 16.6462 64.1985 16.1152C64.1985 13.9062 62.4075 12.1152 60.1985 12.1152C57.9895 12.1152 56.1985 13.9062 56.1985 16.1152C56.1985 16.6462 56.3075 17.1512 56.4955 17.6152H55.6985C54.3175 17.6152 53.1985 18.7342 53.1985 20.1152H67.1985C67.1985 18.7342 66.0795 17.6152 64.6985 17.6152Z" fill="#AC6000"/>
<path fill-rule="evenodd" clip-rule="evenodd" d="M77.7717 44.6289H59.2557C58.7697 44.6289 58.3767 44.2349 58.3767 43.7499V43.5079C58.3767 43.0229 58.7697 42.6289 59.2557 42.6289H77.7717C78.2577 42.6289 78.6507 43.0229 78.6507 43.5079V43.7499C78.6507 44.2349 78.2577 44.6289 77.7717 44.6289Z" fill="#D4D7D9"/>
<path fill-rule="evenodd" clip-rule="evenodd" d="M77.7717 62.3027H59.2557C58.7697 62.3027 58.3767 61.9087 58.3767 61.4237V61.1817C58.3767 60.6967 58.7697 60.3027 59.2557 60.3027H77.7717C78.2577 60.3027 78.6507 60.6967 78.6507 61.1817V61.4237C78.6507 61.9087 78.2577 62.3027 77.7717 62.3027Z" fill="#D4D7D9"/>
<path fill-rule="evenodd" clip-rule="evenodd" d="M77.7717 80.2129H59.2557C58.7697 80.2129 58.3767 79.8189 58.3767 79.3339V79.0919C58.3767 78.6069 58.7697 78.2129 59.2557 78.2129H77.7717C78.2577 78.2129 78.6507 78.6069 78.6507 79.0919V79.3339C78.6507 79.8189 78.2577 80.2129 77.7717 80.2129Z" fill="#D4D7D9"/>
<path fill-rule="evenodd" clip-rule="evenodd" d="M54.4812 43.2129C54.4812 46.8029 51.5712 49.7129 47.9812 49.7129C44.3912 49.7129 41.4812 46.8029 41.4812 43.2129C41.4812 39.6229 44.3912 36.7129 47.9812 36.7129C51.5712 36.7129 54.4812 39.6229 54.4812 43.2129Z" fill="#62A744"/>
<path fill-rule="evenodd" clip-rule="evenodd" d="M46.8564 46.5879L43.4814 43.2129L44.6064 42.0879L46.8564 44.3379L51.3554 39.8379L52.4814 40.9629L46.8564 46.5879Z" fill="white"/>
<mask id="mask0_7729_104601" style="mask-type:alpha" maskUnits="userSpaceOnUse" x="43" y="40" width="10" height="7">
<path fill-rule="evenodd" clip-rule="evenodd" d="M46.574 44.6674L44.323 42.3326L43.198 43.4995L46.574 47L52.198 41.1668L51.073 40L46.574 44.6674Z" fill="white"/>
</mask>
<g mask="url(#mask0_7729_104601)">
<path fill-rule="evenodd" clip-rule="evenodd" d="M42.073 48.1687H53.323V38.834H42.073V48.1687Z" fill="white"/>
</g>
<path fill-rule="evenodd" clip-rule="evenodd" d="M54.1985 61.5C54.1985 65.09 51.2885 68 47.6985 68C44.1085 68 41.1985 65.09 41.1985 61.5C41.1985 57.91 44.1085 55 47.6985 55C51.2885 55 54.1985 57.91 54.1985 61.5Z" fill="#62A744"/>
<path fill-rule="evenodd" clip-rule="evenodd" d="M46.573 64.875L43.198 61.5L44.323 60.375L46.573 62.625L51.072 58.125L52.198 59.25L46.573 64.875Z" fill="white"/>
<mask id="mask1_7729_104601" style="mask-type:alpha" maskUnits="userSpaceOnUse" x="43" y="58" width="10" height="7">
<path fill-rule="evenodd" clip-rule="evenodd" d="M46.574 62.6674L44.323 60.3326L43.198 61.4995L46.574 65L52.198 59.1658L51.073 58L46.574 62.6674Z" fill="white"/>
</mask>
<g mask="url(#mask1_7729_104601)">
<path fill-rule="evenodd" clip-rule="evenodd" d="M42.073 66.1667H53.323V56.832H42.073V66.1667Z" fill="white"/>
</g>
<path fill-rule="evenodd" clip-rule="evenodd" d="M54.1985 79.5C54.1985 83.09 51.2885 86 47.6985 86C44.1085 86 41.1985 83.09 41.1985 79.5C41.1985 75.91 44.1085 73 47.6985 73C51.2885 73 54.1985 75.91 54.1985 79.5Z" fill="#62A744"/>
<path fill-rule="evenodd" clip-rule="evenodd" d="M46.573 82.875L43.198 79.5L44.323 78.375L46.573 80.625L51.072 76.125L52.198 77.25L46.573 82.875Z" fill="white"/>
<mask id="mask2_7729_104601" style="mask-type:alpha" maskUnits="userSpaceOnUse" x="43" y="76" width="10" height="7">
<path fill-rule="evenodd" clip-rule="evenodd" d="M46.574 80.6674L44.323 78.3326L43.198 79.4995L46.574 83L52.198 77.1668L51.073 76L46.574 80.6674Z" fill="white"/>
</mask>
<g mask="url(#mask2_7729_104601)">
<path fill-rule="evenodd" clip-rule="evenodd" d="M42.073 84.1687H53.323V74.834H42.073V84.1687Z" fill="white"/>
</g>
</svg>
