<svg width="32" height="32" viewBox="0 0 32 32" fill="none" xmlns="http://www.w3.org/2000/svg">
<path fill-rule="evenodd" clip-rule="evenodd" d="M4.00008 5.33333V25.3333H2.66675V28H20.0001V25.3333H18.6667V18.6667H21.3334V24C21.3334 26.2091 23.1243 28 25.3334 28C27.5426 28 29.3334 26.2091 29.3334 24V12C29.3338 11.6463 29.1932 11.3071 28.9427 11.0573L22.3427 4.45733L20.4574 6.34267L22.6667 8.552V13.3333C22.6667 14.0697 23.2637 14.6667 24.0001 14.6667H26.6667V24C26.6667 24.7364 26.0698 25.3333 25.3334 25.3333C24.597 25.3333 24.0001 24.7364 24.0001 24V18.6667C24.0001 17.1939 22.8062 16 21.3334 16H18.6667V5.33333C18.6667 4.59695 18.0698 4 17.3334 4H5.33341C4.59704 4 4.00008 4.59695 4.00008 5.33333ZM6.66675 14.6667V6.66667H16.0001V14.6667H6.66675Z" fill="#242C33"/>
</svg>
