<svg width="121" height="120" viewBox="0 0 121 120" fill="none" xmlns="http://www.w3.org/2000/svg">
<path fill-rule="evenodd" clip-rule="evenodd" d="M120.198 60C120.198 93.137 93.3352 120 60.1982 120C27.0612 120 0.198242 93.137 0.198242 60C0.198242 26.863 27.0612 0 60.1982 0C93.3352 0 120.198 26.863 120.198 60Z" fill="#E6F1F5"/>
<path fill-rule="evenodd" clip-rule="evenodd" d="M108.198 96H12.1985C22.3654 110.4 40.4219 120 60.0816 120C79.7413 120 97.4117 111 108.198 96Z" fill="#D4D7D9"/>
<path fill-rule="evenodd" clip-rule="evenodd" d="M12.3484 95.9707H108.397C108.397 95.9707 98.4792 105.541 84.2345 107.45C67.9242 109.637 57.6548 104.717 45.271 104.444C25.9367 104.017 12.3484 95.9707 12.3484 95.9707Z" fill="#666B70"/>
<path fill-rule="evenodd" clip-rule="evenodd" d="M88.5934 60.7223C88.5934 60.7223 89.583 56.668 92.2649 56.668H98.2989C98.2989 56.668 99.7674 56.9873 99.1287 59.5731C98.4906 62.1909 91.9773 59.9245 89.7426 62.3826L88.4017 63.9147L87.9871 63.5639L88.5934 60.7223Z" fill="#62A744"/>
<path fill-rule="evenodd" clip-rule="evenodd" d="M99.0292 59.0293C99.0292 59.0293 98.7179 59.6518 95.2939 60.2744C91.8699 60.8969 90.0347 59.3406 90.0347 59.3406L90.6248 61.5195C90.6248 61.5195 94.6679 61.6496 96.2277 61.5195C99.963 61.2082 99.0292 59.0293 99.0292 59.0293Z" fill="#306700"/>
<path fill-rule="evenodd" clip-rule="evenodd" d="M34.4477 60.7223C34.4477 60.7223 33.4576 56.668 30.7763 56.668H24.7105C24.7105 56.668 23.2737 56.9873 23.8804 59.5731C24.5188 62.1909 31.0315 59.9245 33.2665 62.3826L34.6071 63.9147L35.0223 63.5639L34.4477 60.7223Z" fill="#62A744"/>
<path fill-rule="evenodd" clip-rule="evenodd" d="M29.3041 59.0297C30.8604 57.7847 32.7281 57.1621 32.7281 57.1621C32.7281 57.1621 32.4168 57.4734 31.7942 59.6523C31.1717 61.8312 28.059 61.2086 25.2575 60.8974C24.0199 60.7601 24.0125 59.6523 24.0125 59.6523C24.0125 59.6523 27.5501 60.433 29.3041 59.0297Z" fill="#306700"/>
<path fill-rule="evenodd" clip-rule="evenodd" d="M99.4802 72.7188H95.2659C93.1268 72.7188 91.4033 74.4423 91.4033 76.5499V94.4916C91.4033 96.6306 93.1268 98.3542 95.2659 98.3542H99.4802C101.588 98.3542 103.343 96.6306 103.343 94.4916V76.5499C103.343 74.4423 101.588 72.7188 99.4802 72.7188Z" fill="#1C1C1C"/>
<path fill-rule="evenodd" clip-rule="evenodd" d="M27.7757 72.7188H23.5296C21.4226 72.7188 19.6985 74.4423 19.6985 76.5499V94.4916C19.6985 96.6306 21.4226 98.3542 23.5296 98.3542H27.7757C29.8827 98.3542 31.6386 96.6306 31.6386 94.4916V76.5499C31.6386 74.4423 29.8827 72.7188 27.7757 72.7188Z" fill="#1C1C1C"/>
<path fill-rule="evenodd" clip-rule="evenodd" d="M77.994 45.5418C80.3525 45.9567 87.8909 49.6123 91.9449 59.3819C91.9449 59.3819 94.4036 60.0203 95.17 60.3076C95.936 60.5632 96.1916 63.4359 96.1916 63.4359C96.1916 63.4359 101.587 63.7235 101.587 74.8976C101.587 86.0392 102.448 89.3275 99.863 92.2961C97.2764 95.2656 61.5209 94.3713 61.5209 94.3713C61.5209 94.3713 25.7328 95.2656 23.1464 92.2961C20.5607 89.3275 21.4226 86.0392 21.4226 74.8976C21.4226 63.7235 26.8178 63.4359 26.8178 63.4359C26.8178 63.4359 27.0737 60.5632 27.8394 60.3076C28.6055 60.0203 31.0636 59.3819 31.0636 59.3819C35.1185 49.6123 42.6731 46.0607 45.0154 45.5418C47.3577 45.0229 54.0504 44.4004 61.6765 44.4004C69.3027 44.4004 75.6352 45.1269 77.994 45.5418Z" fill="#62A744"/>
<path fill-rule="evenodd" clip-rule="evenodd" d="M101.683 82.1756C101.683 82.1756 95.2942 88.6003 85.956 86.7326C78.4777 85.237 71.9488 86.4213 56.3852 87.0439C40.8216 87.6664 35.8733 89.1985 28.3707 87.6664C20.8685 86.1334 21.3273 74.9043 21.3273 74.9043C21.2314 80.4593 20.5889 89.8453 23.147 92.2954C25.9908 95.0193 61.5215 94.3706 61.5215 94.3706C61.5215 94.3706 97.2769 95.2649 99.8633 92.2954C101.779 90.0934 101.811 87.7309 101.683 82.1756Z" fill="#306700"/>
<path fill-rule="evenodd" clip-rule="evenodd" d="M61.365 60.2744C49.848 60.2744 32.4168 59.3406 32.4168 59.3406C32.4168 59.3406 29.9929 60.8275 31.1717 62.7646C34.8612 68.8269 41.7801 72.654 41.7801 72.654C41.7801 72.654 49.8166 75.5267 60.7425 75.5267C71.6684 75.5267 75.6966 74.3308 80.0413 72.7253C83.0706 71.6056 87.0204 69.4192 90.9359 64.3209C92.8545 61.8226 91.5584 59.0293 91.5584 59.0293C80.3526 60.5857 72.8821 60.2744 61.365 60.2744Z" fill="#62A744"/>
<path fill-rule="evenodd" clip-rule="evenodd" d="M61.5212 60.4319H35.4217C35.4217 60.4319 34.0751 60.6249 32.7283 59.5342C34.2672 55.9437 36.5121 52.2884 39.5258 49.5308C40.5835 48.5049 45.802 46.5781 61.5212 46.5781C77.2404 46.5781 82.4256 48.5049 83.5157 49.5308C86.4976 52.2884 88.7743 55.9437 90.3135 59.5342C88.9343 60.6249 87.6201 60.4319 87.6201 60.4319H61.5212Z" fill="#262728"/>
<path fill-rule="evenodd" clip-rule="evenodd" d="M61.5205 72.0547H42.014C42.014 72.0547 41.1197 72.7572 40.9924 73.555C40.9924 73.555 45.7493 82.6535 61.5205 82.6535C77.2593 82.6535 82.0479 73.555 82.0479 73.555C81.9206 72.7572 80.9946 72.0547 80.9946 72.0547H61.5205Z" fill="#1C1C1C"/>
<path fill-rule="evenodd" clip-rule="evenodd" d="M35.3747 72.2732L26.1838 67.8506C25.3848 67.4659 24.4174 67.9089 24.2203 68.7739C23.9016 70.1743 24.0124 73.9709 26.1913 74.9047C30.5102 76.7555 32.2502 76.5445 34.2844 75.5272C35.5294 74.9047 36.434 72.7827 35.3747 72.2732Z" fill="#FFEBEC"/>
<path fill-rule="evenodd" clip-rule="evenodd" d="M87.8637 72.1537L96.6537 67.9238C97.5548 67.4905 98.6365 68.0222 98.8155 69.0055C99.0657 70.3822 99.2478 74.4789 96.8498 75.2169C92.8033 76.462 89.9897 75.822 87.9191 74.9324C86.716 74.4157 86.684 72.7214 87.8637 72.1537Z" fill="#FFEBEC"/>
<path fill-rule="evenodd" clip-rule="evenodd" d="M61.2095 90.835H84.0577C84.6946 90.835 85.1033 90.1593 84.8079 89.5949C84.0649 88.1749 82.8179 85.9113 81.9062 84.8695C81.731 84.6694 81.4745 84.5623 81.209 84.58L61.254 85.9154C61.2241 85.9176 61.1945 85.9179 61.165 85.9166L42.1014 85.1898C41.8776 85.1811 41.6604 85.2614 41.4957 85.413C40.5501 86.2827 38.6883 88.0551 37.3592 89.3251C36.8079 89.852 37.1799 90.7824 37.9428 90.784L61.2095 90.835Z" fill="#62A744"/>
<path fill-rule="evenodd" clip-rule="evenodd" d="M75.7988 36C75.7988 44.2843 69.0831 51 60.7988 51C52.5145 51 45.7988 44.2843 45.7988 36C45.7988 27.7157 52.5145 21 60.7988 21C69.0831 21 75.7988 27.7157 75.7988 36Z" fill="#F42434"/>
<path fill-rule="evenodd" clip-rule="evenodd" d="M66.2293 32.2001L64.5975 30.5684L60.7983 34.3676L56.999 30.5684L55.3672 32.2001L59.1665 35.9994L55.3672 39.7998L56.999 41.4305L60.7983 37.6312L64.5975 41.4305L66.2293 39.7998L62.43 35.9994L66.2293 32.2001Z" fill="white"/>
</svg>
