<svg width="40" height="40" viewBox="0 0 40 40" fill="none" xmlns="http://www.w3.org/2000/svg">
<path fill-rule="evenodd" clip-rule="evenodd" d="M6.00291 13.5381C6.03791 13.2261 6.31191 12.9961 6.62991 13.0351L8.74291 13.2671C9.05491 13.3021 9.27991 13.5831 9.24591 13.8951C9.21291 14.1861 8.96691 14.4011 8.68091 14.4011C8.65991 14.4011 8.63891 14.4001 8.61791 14.3981L6.50591 14.1651C6.19391 14.1311 5.96891 13.8501 6.00291 13.5381ZM30.7541 13.895C30.7191 13.583 30.9451 13.302 31.2571 13.267L33.3691 13.035C33.6701 13.002 33.9611 13.226 33.9961 13.538C34.0311 13.85 33.8051 14.131 33.4931 14.165L31.3811 14.398C31.3601 14.4 31.3391 14.401 31.3181 14.401C31.0331 14.401 30.7871 14.186 30.7541 13.895ZM27.6511 7.43004C27.4291 7.20804 27.4291 6.84804 27.6511 6.62604L29.1541 5.12304C29.3771 4.90104 29.7361 4.90104 29.9591 5.12304C30.1801 5.34604 30.1801 5.70504 29.9591 5.92704L28.4551 7.43004C28.3431 7.54104 28.1991 7.59704 28.0531 7.59704C27.9081 7.59704 27.7621 7.54104 27.6511 7.43004ZM10.051 5.92704C9.82902 5.70504 9.82902 5.34604 10.051 5.12304C10.273 4.90104 10.633 4.90104 10.855 5.12304L12.357 6.62604C12.58 6.84804 12.58 7.20804 12.357 7.43004C12.247 7.54104 12.101 7.59704 11.956 7.59704C11.81 7.59704 11.665 7.54104 11.554 7.43004L10.051 5.92704ZM19.436 3.694V1.569C19.436 1.255 19.691 1 20.004 1C20.319 1 20.573 1.255 20.573 1.569V3.694C20.573 4.008 20.319 4.262 20.004 4.262C19.691 4.262 19.436 4.008 19.436 3.694ZM11.0039 15.0769C11.0039 10.1069 15.0339 6.0769 20.0039 6.0769C24.9749 6.0769 29.0039 10.1069 29.0039 15.0769H11.0039ZM32.8571 27.3301C33.0081 28.4241 32.2591 29.4361 31.1841 29.5891L27.2921 30.1461L27.0181 28.1651L32.8571 27.3301ZM12.65 30.1461L8.75705 29.5891C7.68205 29.4361 6.93405 28.4241 7.08505 27.3301L12.923 28.1651L12.65 30.1461ZM11.7881 19.091C11.8991 18.956 12.0891 18.77 12.4101 18.728C18.3741 18.339 21.3541 18.34 27.5491 18.725C27.9091 18.77 28.0991 18.955 28.2101 19.091C28.6461 19.622 29.0751 20.144 29.4941 20.654H29.4931C30.4081 21.769 30.4141 22.226 30.4191 22.752C30.4231 23.441 29.7701 23.547 29.4891 23.562C23.1031 23.888 16.8971 23.888 10.5091 23.562C10.2291 23.547 9.5761 23.441 9.5801 22.755C9.5861 22.226 9.5901 21.769 10.5061 20.654H10.5051C10.9241 20.143 11.3531 19.621 11.7881 19.091ZM35.172 25.443C34.987 25.217 34.213 24.277 33.122 22.947L33.343 22.722H35.524V21.36H32.788L32.259 21.897C31.354 20.795 30.312 19.526 29.238 18.218C28.84 17.734 28.328 17.45 27.672 17.369C21.371 16.976 18.357 16.976 12.285 17.373C11.671 17.45 11.159 17.734 10.761 18.218C9.65702 19.563 8.58202 20.872 7.65302 22.002L7.02102 21.36H4.28602V22.722H6.46602L6.79102 23.052C5.74102 24.33 4.99802 25.235 4.81902 25.452C4.25502 26.162 3.98102 27.089 4.00102 28.198V37.708C4.00102 38.461 4.61102 39.075 5.36102 39.075H10.14C10.89 39.075 11.5 38.461 11.5 37.715L11.515 36.343C16.94 36.627 22.907 36.623 28.484 36.33L28.498 37.708C28.498 38.461 29.108 39.075 29.859 39.075H34.637C35.388 39.075 35.999 38.461 35.999 37.708V28.211C36.02 27.089 35.744 26.161 35.172 25.443Z" fill="#313D47"/>
</svg>
