<svg width="24" height="24" viewBox="0 0 24 24" fill="none" xmlns="http://www.w3.org/2000/svg">
<path fill-rule="evenodd" clip-rule="evenodd" d="M21.1667 22.1111V15.4444L22.3061 15.1689C22.7139 15.0698 23 14.7144 23 14.3067V13.6667C23 13.4212 22.7948 13.2222 22.5417 13.2222H20.8229L18.8631 8.15378C18.5948 7.45971 17.9106 6.99991 17.1462 7H6.85383C6.08945 6.99991 5.40522 7.45971 5.13692 8.15378L3.17708 13.2222H1.45833C1.2052 13.2222 1 13.4212 1 13.6667V14.3067C1.00001 14.7144 1.28606 15.0698 1.69392 15.1689L2.83333 15.4444V22.1111C2.83333 22.602 3.24374 23 3.75 23H4.66667C5.17293 23 5.58333 22.602 5.58333 22.1111V21.2222H18.4167V22.1111C18.4167 22.602 18.8271 23 19.3333 23H20.25C20.7563 23 21.1667 22.602 21.1667 22.1111ZM4.66667 18.5556V16.7778C6.7915 16.7778 8.22333 17.448 8.96125 18.7902C9.03724 18.9279 9.03319 19.0941 8.95058 19.2281C8.86797 19.3621 8.71891 19.4442 8.55792 19.4444H5.58333C5.07707 19.4444 4.66667 19.0465 4.66667 18.5556ZM19.3333 16.7778C17.2094 16.7778 15.7776 17.4489 15.0378 18.7902C14.9618 18.928 14.9659 19.0944 15.0487 19.2284C15.1316 19.3625 15.2809 19.4445 15.4421 19.4444H18.4167C18.9229 19.4444 19.3333 19.0465 19.3333 18.5556V16.7778ZM5.06919 12.9414L6.50011 8.77783H17.5001L18.931 12.9414C19.0241 13.2123 18.9772 13.5101 18.8051 13.7418C18.633 13.9735 18.3565 14.1109 18.062 14.1112H5.93819C5.6437 14.1109 5.36724 13.9735 5.19511 13.7418C5.02298 13.5101 4.97613 13.2123 5.06919 12.9414Z" fill="#242C33"/>
<path fill-rule="evenodd" clip-rule="evenodd" d="M12 7L17 1H7L12 7Z" fill="#242C33"/>
</svg>
