<svg width="121" height="132" viewBox="0 0 121 132" fill="none" xmlns="http://www.w3.org/2000/svg">
<path fill-rule="evenodd" clip-rule="evenodd" d="M120.198 72C120.198 105.137 93.3352 132 60.1982 132C27.0612 132 0.198242 105.137 0.198242 72C0.198242 38.863 27.0612 12 60.1982 12C93.3352 12 120.198 38.863 120.198 72Z" fill="#E6F1F5"/>
<path fill-rule="evenodd" clip-rule="evenodd" d="M108.198 108H12.1982C22.3652 122.4 40.4217 132 60.0814 132C79.7411 132 97.4115 123 108.198 108Z" fill="#D4D7D9"/>
<path fill-rule="evenodd" clip-rule="evenodd" d="M96.1987 111C96.1987 114.314 80.0803 117 60.1987 117C40.3161 117 24.1987 114.314 24.1987 111C24.1987 107.686 40.3161 105 60.1987 105C80.0803 105 96.1987 107.686 96.1987 111Z" fill="#A2A6AB"/>
<path d="M18.1987 59C18.1987 54.5817 21.7805 51 26.1987 51H94.1987C98.617 51 102.199 54.5817 102.199 59V103C102.199 107.418 98.617 111 94.1987 111H26.1987C21.7805 111 18.1987 107.418 18.1987 103V59Z" fill="white"/>
<path fill-rule="evenodd" clip-rule="evenodd" d="M93.9228 76.0277H64.4328C64.0833 76.0277 63.7993 75.4405 63.7993 74.7177V73.8041C63.7993 73.0813 64.0833 72.4941 64.4328 72.4941H93.9228C94.2723 72.4941 94.5563 73.0813 94.5563 73.8041V74.7177C94.5563 75.4405 94.2723 76.0277 93.9228 76.0277Z" fill="#A2A6AB"/>
<path fill-rule="evenodd" clip-rule="evenodd" d="M93.9228 84.5316H64.4328C64.0833 84.5316 63.7993 83.9444 63.7993 83.2216V82.308C63.7993 81.5852 64.0833 80.998 64.4328 80.998H93.9228C94.2723 80.998 94.5563 81.5852 94.5563 82.308V83.2216C94.5563 83.9444 94.2723 84.5316 93.9228 84.5316Z" fill="#A2A6AB"/>
<path fill-rule="evenodd" clip-rule="evenodd" d="M93.9228 93.0452H64.4328C64.0833 93.0452 63.7993 92.4581 63.7993 91.7353V90.8217C63.7993 90.0989 64.0833 89.5117 64.4328 89.5117H93.9228C94.2723 89.5117 94.5563 90.0989 94.5563 90.8217V91.7353C94.5563 92.4581 94.2723 93.0452 93.9228 93.0452Z" fill="#A2A6AB"/>
<path fill-rule="evenodd" clip-rule="evenodd" d="M34.2439 74.3772L32.5643 79.894C32.3762 80.5118 32.6805 81.1781 33.245 81.3841C33.3543 81.4235 33.4691 81.4447 33.584 81.4447H47.8159C48.4108 81.4447 48.8908 80.9162 48.8908 80.265C48.8908 80.1393 48.8729 80.0136 48.8355 79.894L47.1559 74.3772H34.2439ZM49.3234 84.9386C46.829 84.9386 45.1494 85.8275 44.2806 87.6053C44.1409 87.8915 44.2391 88.2489 44.5019 88.4019C44.578 88.4473 44.6666 88.4715 44.7551 88.4715H48.247C48.8419 88.4715 49.3234 87.9445 49.3234 87.2949V84.9386ZM32.1058 84.9386V87.2949C32.1058 87.9445 32.5873 88.4715 33.1822 88.4715H36.6741C36.9715 88.4715 37.2123 88.208 37.2109 87.8825C37.2109 87.7855 37.1887 87.6901 37.1472 87.6053C36.2812 85.826 34.6002 84.9386 32.1058 84.9386ZM51.4721 83.1895V92.0242C51.4721 92.6738 50.9907 93.2008 50.3971 93.2008H49.3208C48.7259 93.2008 48.2444 92.6738 48.2444 92.0242V90.846H33.1797V92.0242C33.1797 92.6738 32.6982 93.2008 32.1033 93.2008H31.0284C30.4335 93.2008 29.952 92.6738 29.952 92.0242V83.1895L28.6142 82.8245C28.1355 82.6928 27.7993 82.2218 27.7993 81.6827V80.8347C27.7993 80.5091 28.04 80.2456 28.3375 80.2456H30.3546L32.6553 73.5295C32.9708 72.6103 33.7732 72 34.6711 72H46.753C47.6495 72 48.4534 72.6103 48.7688 73.5295L51.0695 80.2456H53.0866C53.3841 80.2456 53.6248 80.5091 53.6248 80.8347V81.6827C53.6248 82.2218 53.2886 82.6928 52.8099 82.8245L51.4721 83.1895Z" fill="#313D47"/>
<path fill-rule="evenodd" clip-rule="evenodd" d="M80.97 0H40.6017C37.9893 0 35.8525 2.11336 35.8525 4.69636V28.9609C35.8525 31.5439 37.9893 33.6573 40.6017 33.6573H53.7638L60.6588 45.4667L67.5539 33.6573H80.97C83.5821 33.6573 85.7192 31.5439 85.7192 28.9609V4.69636C85.7192 2.11336 83.5821 0 80.97 0Z" fill="#F42434"/>
<path fill-rule="evenodd" clip-rule="evenodd" d="M68.4468 11.8569C69.1935 11.1102 69.1935 9.89954 68.4468 9.15282C67.7001 8.40611 66.4894 8.40611 65.7427 9.15282L60.7988 14.0967L55.855 9.15282C55.1082 8.40611 53.8976 8.40611 53.1509 9.15282C52.4042 9.89954 52.4042 11.1102 53.1509 11.8569L58.0947 16.8008L53.1506 21.7463C52.4041 22.4931 52.4044 23.7036 53.1512 24.45C53.8978 25.1961 55.1078 25.1959 55.8542 24.4495L60.7988 19.5049L65.7435 24.4495C66.4898 25.1959 67.6998 25.1961 68.4464 24.45C69.1933 23.7036 69.1936 22.4931 68.4471 21.7463L63.5029 16.8008L68.4468 11.8569Z" fill="white"/>
</svg>
