<svg width="120" height="120" viewBox="0 0 120 120" fill="none" xmlns="http://www.w3.org/2000/svg">
<path fill-rule="evenodd" clip-rule="evenodd" d="M120 60C120 93.137 93.137 120 60 120C26.863 120 0 93.137 0 60C0 26.863 26.863 0 60 0C93.137 0 120 26.863 120 60Z" fill="#E6F1F5"/>
<path fill-rule="evenodd" clip-rule="evenodd" d="M91.2002 48.8964L93.5242 72.6885L119.787 69.5748L118.175 55.8875L105.825 57.3536L104.868 47.5527L91.2002 48.8964Z" fill="white"/>
<path fill-rule="evenodd" clip-rule="evenodd" d="M103.129 62.1578C91.6983 73.7869 60.0182 106.103 60.0182 106.103C60.0182 106.103 29.5192 75.2951 16.9201 62.1578C2.52512 47.175 10.5901 15.002 38.2082 15.002C50.4392 15.002 60.0182 25.45 60.0182 25.45C60.0182 25.45 71.8462 15.002 81.8423 15.002C109.457 15.002 117.525 47.175 103.129 62.1578Z" fill="white"/>
<path fill-rule="evenodd" clip-rule="evenodd" d="M60.0414 115.904L55.1454 110.958C54.8414 110.65 24.4633 79.9614 11.9723 66.9354C2.8213 57.4106 0.418298 42.1569 5.99831 28.9824C11.5333 15.9123 23.5743 8.11133 38.2084 8.11133C47.6024 8.11133 55.5374 12.8336 60.2984 16.5174C65.3954 12.9179 73.7264 8.11133 81.8424 8.11133C96.4765 8.11133 108.517 15.9123 114.052 28.9824C119.632 42.1569 117.229 57.4106 108.072 66.9395L108.02 66.9967C96.5915 78.6248 64.9124 110.934 64.9124 110.935L60.0414 115.904ZM38.2086 21.8919C25.7796 21.8919 20.6126 29.7119 18.6386 34.373C15.2386 42.4007 16.5636 51.8594 21.8636 57.3744C31.2516 67.1642 50.8536 87.0398 59.9976 96.2968C69.3246 86.784 89.5427 66.1688 98.2117 57.3493C103.488 51.8303 104.807 42.3876 101.411 34.373C99.4377 29.7119 94.2707 21.8919 81.8427 21.8919C76.4967 21.8919 68.3956 27.2514 64.5466 30.6301L59.5056 35.0513L54.9636 30.1143C54.9076 30.0541 47.1876 21.8919 38.2086 21.8919Z" fill="white"/>
<path fill-rule="evenodd" clip-rule="evenodd" d="M60.0059 113.43L56.3589 109.746C56.0529 109.437 25.6879 78.757 13.2039 65.742C4.52384 56.7078 2.25984 42.2048 7.57284 29.6584C12.8299 17.2436 24.2799 9.83398 38.2029 9.83398C47.8239 9.83398 55.8629 15.0751 60.2439 18.6675C65.0049 15.1574 73.587 9.83398 81.837 9.83398C95.773 9.83398 107.231 17.2566 112.485 29.6915C117.79 42.2429 115.516 56.7329 106.828 65.7501L99.422 58.5653C105.185 52.5856 106.656 42.3713 103.003 33.7265C99.361 25.1107 91.647 20.1697 81.837 20.1697C75.265 20.1697 66.1059 26.9531 63.4149 29.3293L59.6339 32.6708L56.2219 28.949C56.1519 28.8727 47.9549 20.1697 38.2029 20.1697C28.4029 20.1697 20.6939 25.1017 17.0529 33.6994C13.3929 42.3452 14.8599 52.5736 20.6229 58.5713C30.4699 68.8377 51.5369 90.1895 60.0199 98.7731C66.0789 92.666 78.327 80.3113 86.341 72.1622L93.673 79.4203C82.71 90.5708 63.8499 109.561 63.6599 109.751L60.0059 113.43Z" fill="#62A744"/>
<path fill-rule="evenodd" clip-rule="evenodd" d="M57.9363 105.635L55.5103 103.18L57.1353 101.562L59.5623 104.018L57.9363 105.635ZM62.8086 104.913L61.1876 103.292L63.6156 100.847L65.2386 102.467L62.8086 104.913ZM52.2795 99.9101L49.8575 97.4557L51.4835 95.8391L53.9055 98.2925L52.2795 99.9101ZM68.4727 99.2047L66.8507 97.5821L69.2757 95.1397L70.8987 96.7583L68.4727 99.2047ZM46.6305 94.1854L44.2115 91.7289L45.8375 90.1143L48.2575 92.5698L46.6305 94.1854ZM74.1305 93.496L72.5065 91.8764L74.9285 89.4289L76.5525 91.0495L74.1305 93.496ZM40.9865 88.4546L38.5694 85.9981L40.2004 84.3845L42.6165 86.842L40.9865 88.4546ZM79.7833 87.7832L78.1583 86.1657L80.5783 83.7162L82.2043 85.3338L79.7833 87.7832ZM35.3506 82.7198L32.9336 80.2563L34.5656 78.6457L36.9806 81.1082L35.3506 82.7198ZM85.4304 82.0655L83.8014 80.4499L86.2184 77.9964L87.8474 79.611L85.4304 82.0655ZM29.7162 76.9759L27.3062 74.5104L28.9422 72.9049L31.3492 75.3664L29.7162 76.9759ZM24.0964 71.2231L21.6924 68.7525L23.3314 67.148L25.7334 69.6165L24.0964 71.2231ZM100.863 66.2459L99.1984 64.6695L101.548 62.1588L103.215 63.7312L100.863 66.2459ZM18.4922 65.4491C17.6392 64.5661 16.8372 63.7342 16.0972 62.9625L17.7472 61.371C18.4852 62.1397 19.2842 62.9696 20.1342 63.8496L18.4922 65.4491ZM106.288 60.1227L104.421 58.7911C105.044 57.9121 105.615 56.9699 106.12 55.9875L108.154 57.0421C107.599 58.1168 106.972 59.1544 106.288 60.1227ZM13.1255 59.1926C12.4825 58.1931 11.9015 57.1304 11.3955 56.0356L13.4715 55.0693C13.9335 56.0698 14.4635 57.0371 15.0485 57.9473L13.1255 59.1926ZM109.959 52.6088L107.771 51.9285C108.094 50.8869 108.356 49.8081 108.551 48.7194L110.804 49.1268C110.592 50.3069 110.308 51.4789 109.959 52.6088ZM9.77357 51.5371C9.46757 50.3942 9.22757 49.2131 9.05957 48.027L11.3266 47.7029C11.4806 48.7987 11.7026 49.8884 11.9836 50.9411L9.77357 51.5371ZM111.279 44.3834L108.991 44.3282C108.996 44.1024 108.999 43.8756 108.999 43.6479C108.999 42.7758 108.96 41.8908 108.881 41.0158L111.162 40.8121C111.246 41.7543 111.288 42.7086 111.288 43.6479C111.288 43.8937 111.285 44.1396 111.279 44.3834ZM11.0444 43.2987L8.75439 43.2716C8.76839 42.0855 8.85039 40.8853 8.99739 39.7073L11.2674 39.9922C11.1314 41.086 11.0564 42.1979 11.0444 43.2987ZM108.166 36.6557C107.906 35.58 107.584 34.5143 107.208 33.4838L109.357 32.693C109.763 33.8049 110.111 34.9559 110.39 36.1149L108.166 36.6557ZM12.1332 35.6593L9.9292 35.0401C10.2502 33.8922 10.6372 32.7532 11.0822 31.6585L13.2022 32.5244C12.7912 33.539 12.4312 34.5946 12.1332 35.6593ZM105.38 29.4719C104.846 28.5076 104.251 27.5713 103.609 26.6893L105.459 25.3356C106.155 26.2939 106.801 27.3104 107.381 28.3561L105.38 29.4719ZM15.1714 28.5869L13.2134 27.3967C13.8344 26.3702 14.5184 25.3788 15.2504 24.4526L17.0444 25.8765C16.3734 26.7304 15.7424 27.6416 15.1714 28.5869ZM57.9096 24.9914C57.1106 24.2529 56.2516 23.5274 55.3536 22.832L56.7526 21.0147C57.7016 21.7492 58.6126 22.5189 59.4596 23.3006L57.9096 24.9914ZM62.8365 24.6332L61.4435 22.8119C62.3605 22.1055 63.3145 21.4101 64.2795 20.7488L65.5715 22.6443C64.6415 23.2825 63.7215 23.9518 62.8365 24.6332ZM100.739 23.3739C99.9546 22.6122 99.1126 21.8957 98.2366 21.2455L99.5976 19.3981C100.555 20.1086 101.475 20.8923 102.332 21.7242L100.739 23.3739ZM20.0436 22.6825L18.5186 20.9686C19.4086 20.1718 20.3586 19.4293 21.3416 18.7589L22.6276 20.6595C21.7266 21.2726 20.8576 21.953 20.0436 22.6825ZM51.6835 20.3093C50.7185 19.7253 49.7345 19.1924 48.7585 18.7268L49.7425 16.6536C50.7855 17.1514 51.8365 17.7193 52.8655 18.3415L51.6835 20.3093ZM69.3753 20.2501L68.2403 18.2552C69.2943 17.6521 70.3443 17.1002 71.3643 16.6175L72.3433 18.6927C71.3773 19.1523 70.3783 19.6761 69.3753 20.2501ZM94.5087 18.9616C93.5397 18.479 92.5197 18.0535 91.4787 17.6932L92.2257 15.5217C93.3577 15.9131 94.4677 16.3777 95.5247 16.9035L94.5087 18.9616ZM26.4453 18.5291L25.5113 16.4319C26.5863 15.9502 27.7123 15.5298 28.8613 15.1816L29.5233 17.3812C28.4673 17.7003 27.4313 18.0876 26.4453 18.5291ZM44.6565 17.1343C43.5875 16.8142 42.5125 16.5694 41.4625 16.4068L41.8125 14.136C42.9645 14.3156 44.1415 14.5835 45.3105 14.9317L44.6565 17.1343ZM76.4516 17.063L75.7706 14.8705C76.9826 14.4932 78.1656 14.2162 79.2856 14.0486L79.6226 16.3215C78.6166 16.471 77.5496 16.7209 76.4516 17.063ZM87.2284 16.6025C86.1634 16.4179 85.0594 16.2874 83.9474 16.2172L84.0904 13.9242C85.2854 14.0005 86.4724 14.14 87.6214 14.3387L87.2284 16.6025ZM33.8154 16.4469L33.5024 14.1711C34.6524 14.0115 35.8424 13.9122 37.0394 13.873L37.1134 16.169C35.9964 16.2051 34.8864 16.2984 33.8154 16.4469Z" fill="white"/>
<path fill-rule="evenodd" clip-rule="evenodd" d="M16.3311 85.5015H106.371V65.959H16.3311V85.5015Z" fill="#313D47"/>
<path fill-rule="evenodd" clip-rule="evenodd" d="M36.2765 78.4341C36.0015 78.8304 35.5475 79.1887 34.9185 79.5098C34.2885 79.8339 33.4785 79.9945 32.4895 79.9945C31.2385 79.9945 30.2095 79.5961 29.4015 78.8013C28.5925 78.0076 28.1895 76.9811 28.1895 75.7217V73.5462C28.1895 72.2868 28.5705 71.2603 29.3335 70.4656C30.0965 69.6708 31.0825 69.2734 32.2895 69.2734C33.5115 69.2734 34.4615 69.5755 35.1385 70.1776C35.8165 70.7826 36.1625 71.5684 36.1765 72.5367L36.1625 72.5799H34.5215C34.4845 72.0069 34.2805 71.5463 33.9125 71.1951C33.5445 70.8449 33.0095 70.6693 32.3105 70.6693C31.5925 70.6693 31.0135 70.9382 30.5745 71.477C30.1345 72.0159 29.9155 72.7003 29.9155 73.5291V75.7167C29.9155 76.5556 30.1535 77.244 30.6305 77.7858C31.1095 78.3287 31.7285 78.5976 32.4895 78.5976C33.0315 78.5976 33.4705 78.5354 33.8085 78.41C34.1465 78.2835 34.3905 78.134 34.5435 77.9634V75.8501H32.4825V74.5476H36.2765V78.4341Z" fill="white"/>
<path fill-rule="evenodd" clip-rule="evenodd" d="M51.0755 79.8433C51.0135 79.6476 50.9625 79.4559 50.9225 79.2723C50.8815 79.0846 50.8535 78.9 50.8405 78.7124C50.6015 79.0756 50.2895 79.3787 49.9015 79.6235C49.5135 79.8714 49.0805 79.9938 48.6005 79.9938C47.7975 79.9938 47.1795 79.7861 46.7495 79.3706C46.3195 78.9542 46.1045 78.3862 46.1045 77.6607C46.1045 76.9111 46.3995 76.3281 46.9885 75.9107C47.5785 75.4932 48.4075 75.2845 49.4775 75.2845H50.8255V74.6042C50.8255 74.1998 50.7065 73.8827 50.4695 73.6539C50.2305 73.4241 49.8905 73.3087 49.4495 73.3087C49.0545 73.3087 48.7405 73.405 48.5085 73.5957C48.2745 73.7874 48.1585 74.0332 48.1585 74.3332H46.4895L46.4825 74.2901C46.4495 73.679 46.7205 73.1371 47.2995 72.6665C47.8765 72.1938 48.6295 71.957 49.5555 71.957C50.4545 71.957 51.1795 72.1858 51.7315 72.6444C52.2825 73.101 52.5585 73.7603 52.5585 74.6192V78.0621C52.5585 78.3812 52.5795 78.6883 52.6225 78.9813C52.6655 79.2753 52.7345 79.5623 52.8295 79.8433H51.0755ZM48.9495 78.598C49.3865 78.598 49.7805 78.4876 50.1305 78.2688C50.4795 78.0491 50.7115 77.7992 50.8255 77.5182V76.3723H49.4495C48.9455 76.3723 48.5505 76.4987 48.2645 76.7486C47.9805 76.9984 47.8375 77.2935 47.8375 77.6326C47.8375 77.9287 47.9335 78.1635 48.1265 78.3371C48.3185 78.5117 48.5935 78.598 48.9495 78.598Z" fill="white"/>
<path fill-rule="evenodd" clip-rule="evenodd" d="M42.9504 78.7114C42.7084 79.1219 42.4014 79.439 42.0304 79.6597C41.6594 79.8815 41.2314 79.9929 40.7474 79.9929C39.9194 79.9929 39.2724 79.7279 38.8064 79.1981C38.3414 78.6683 38.1074 77.8454 38.1074 76.7276V72.0996H39.8344V76.7436C39.8344 77.421 39.9434 77.8966 40.1624 78.1686C40.3814 78.4395 40.7114 78.575 41.1534 78.575C41.5714 78.575 41.9224 78.5007 42.2054 78.3512C42.4874 78.1997 42.7104 77.9799 42.8724 77.6959V72.0996H44.6054V79.8423H43.0934L42.9504 78.7114Z" fill="white"/>
<path fill-rule="evenodd" clip-rule="evenodd" d="M58.2425 73.6679L57.5005 73.6398C57.1625 73.6398 56.8815 73.7111 56.6555 73.8546C56.4305 73.9971 56.2545 74.1998 56.1315 74.4627V79.8433H54.3975V72.1005H55.9805L56.0965 73.2244C56.2905 72.828 56.5415 72.518 56.8475 72.2942C57.1545 72.0694 57.5075 71.957 57.9075 71.957C58.0115 71.957 58.1085 71.9671 58.1995 71.9821C58.2895 71.9992 58.3735 72.0182 58.4495 72.0433L58.2425 73.6679Z" fill="white"/>
<path fill-rule="evenodd" clip-rule="evenodd" d="M64.096 79.8433C64.034 79.6476 63.983 79.4559 63.944 79.2723C63.903 79.0846 63.873 78.9 63.861 78.7124C63.622 79.0756 63.311 79.3787 62.923 79.6235C62.535 79.8714 62.103 79.9938 61.622 79.9938C60.819 79.9938 60.2 79.7861 59.771 79.3706C59.341 78.9542 59.125 78.3862 59.125 77.6607C59.125 76.9111 59.419 76.3281 60.011 75.9107C60.6 75.4932 61.428 75.2845 62.498 75.2845H63.848V74.6042C63.848 74.1998 63.728 73.8827 63.491 73.6539C63.252 73.4241 62.911 73.3087 62.47 73.3087C62.075 73.3087 61.761 73.405 61.53 73.5957C61.295 73.7874 61.179 74.0332 61.179 74.3332H59.512L59.504 74.2901C59.471 73.679 59.742 73.1371 60.322 72.6665C60.898 72.1938 61.652 71.957 62.576 71.957C63.476 71.957 64.2 72.1858 64.752 72.6444C65.304 73.101 65.579 73.7603 65.579 74.6192V78.0621C65.579 78.3812 65.601 78.6883 65.644 78.9813C65.687 79.2753 65.755 79.5623 65.85 79.8433H64.096ZM61.9709 78.598C62.4089 78.598 62.8009 78.4876 63.1519 78.2688C63.4989 78.0491 63.7339 77.7992 63.8479 77.5183V76.3723H62.4699C61.9649 76.3723 61.5729 76.4987 61.2869 76.7486C61.0009 76.9985 60.8589 77.2935 60.8589 77.6327C60.8589 77.9287 60.9539 78.1635 61.1469 78.3371C61.3399 78.5117 61.6159 78.598 61.9709 78.598Z" fill="white"/>
<path fill-rule="evenodd" clip-rule="evenodd" d="M68.9658 72.1006L69.0678 73.2164C69.3198 72.8211 69.6368 72.511 70.0198 72.2882C70.4018 72.0685 70.8328 71.9551 71.3138 71.9551C72.1158 71.9551 72.7418 72.2019 73.1928 72.6906C73.6428 73.1793 73.8658 73.9409 73.8658 74.9765V79.8433H72.1328V74.9916C72.1328 74.4096 72.0138 73.9961 71.7738 73.7503C71.5318 73.5024 71.1678 73.381 70.6798 73.381C70.3398 73.381 70.0388 73.4573 69.7738 73.6058C69.5058 73.7563 69.2868 73.961 69.1158 74.2249V79.8433H67.3848V72.1006H68.9658Z" fill="white"/>
<path fill-rule="evenodd" clip-rule="evenodd" d="M77.8239 70.2188V72.1013H79.2079V73.3897H77.8239V77.6685C77.8239 77.9886 77.8919 78.2164 78.0299 78.3508C78.1689 78.4873 78.3499 78.5565 78.5809 78.5565C78.6759 78.5565 78.7659 78.5475 78.8569 78.5304C78.9469 78.5144 79.0329 78.4913 79.1139 78.4632L79.3009 79.7356C79.1519 79.8159 78.9759 79.8811 78.7709 79.9263C78.5669 79.9714 78.3559 79.9945 78.1369 79.9945C77.5009 79.9945 77.0009 79.8079 76.6389 79.4336C76.2779 79.0583 76.0969 78.4702 76.0969 77.6685V73.3897H74.9219V72.1013H76.0969V70.2188H77.8239Z" fill="white"/>
<path fill-rule="evenodd" clip-rule="evenodd" d="M84.0558 79.9939C82.9628 79.9939 82.0908 79.6346 81.4438 78.9171C80.7938 78.1987 80.4688 77.2765 80.4688 76.1506V75.8646C80.4688 74.7387 80.7918 73.8045 81.4358 73.0629C82.0808 72.3214 82.8868 71.9511 83.8578 71.9551C84.8988 71.9551 85.6968 72.2732 86.2498 72.9054C86.8028 73.5366 87.0808 74.3845 87.0808 75.4492V76.4707H82.2658L82.2528 76.5078C82.2818 77.122 82.4608 77.6237 82.7908 78.013C83.1218 78.4024 83.5798 78.597 84.1638 78.597C84.6288 78.597 85.0298 78.5419 85.3628 78.4265C85.6958 78.3101 86.0158 78.1475 86.3258 77.9307L86.8808 79.0737C86.5908 79.3316 86.2058 79.5503 85.7258 79.7269C85.2458 79.9046 84.6898 79.9939 84.0558 79.9939ZM83.8576 73.3529C83.4286 73.3529 83.0776 73.5235 82.8016 73.8647C82.5266 74.2049 82.3536 74.6384 82.2876 75.1642L82.3016 75.1993H85.3626V75.0197C85.3626 74.529 85.2386 74.1266 84.9876 73.8175C84.7386 73.5074 84.3616 73.3529 83.8576 73.3529Z" fill="white"/>
<path fill-rule="evenodd" clip-rule="evenodd" d="M91.7872 79.9939C90.6932 79.9939 89.8222 79.6346 89.1752 78.9171C88.5252 78.1987 88.2002 77.2765 88.2002 76.1506V75.8646C88.2002 74.7387 88.5222 73.8045 89.1662 73.0629C89.8112 72.3214 90.6182 71.9511 91.5882 71.9551C92.6292 71.9551 93.4282 72.2732 93.9812 72.9054C94.5342 73.5366 94.8112 74.3845 94.8112 75.4492V76.4707H89.9972L89.9832 76.5078C90.0122 77.122 90.1922 77.6237 90.5212 78.013C90.8522 78.4024 91.3102 78.597 91.8942 78.597C92.3602 78.597 92.7612 78.5419 93.0942 78.4265C93.4272 78.3101 93.7462 78.1475 94.0562 77.9307L94.6112 79.0737C94.3212 79.3316 93.9372 79.5503 93.4562 79.7269C92.9762 79.9046 92.4192 79.9939 91.7872 79.9939ZM91.588 73.3529C91.159 73.3529 90.808 73.5235 90.532 73.8647C90.257 74.2049 90.085 74.6384 90.019 75.1642L90.032 75.1993H93.094V75.0197C93.094 74.529 92.969 74.1266 92.719 73.8175C92.469 73.5074 92.092 73.3529 91.588 73.3529Z" fill="white"/>
<path fill-rule="evenodd" clip-rule="evenodd" d="M95.0692 70.8345L92.9102 48.7292L103.162 47.7207L104.283 59.2084L116.26 57.644L117.59 67.8924L95.0692 70.8345Z" fill="#62A744"/>
<path fill-rule="evenodd" clip-rule="evenodd" d="M100.863 66.2453L99.1992 64.6689L101.55 62.1582L103.217 63.7306L100.863 66.2453Z" fill="white"/>
<path fill-rule="evenodd" clip-rule="evenodd" d="M106.288 60.1226L104.422 58.792C105.044 57.9129 105.614 56.9697 106.12 55.9883L108.153 57.0429C107.6 58.1176 106.973 59.1542 106.288 60.1226Z" fill="white"/>
<path fill-rule="evenodd" clip-rule="evenodd" d="M41.8425 41.5799L34.5235 58.4702H30.5575L37.8905 42.5161H28.4785V39.4746H41.8425V41.5799Z" fill="#313D47"/>
<path fill-rule="evenodd" clip-rule="evenodd" d="M49.8174 58.1831V39.1875H55.6414C57.3054 39.1875 58.7944 39.5648 60.1074 40.3164C61.4194 41.069 62.4444 42.1387 63.1824 43.5255C63.9184 44.9133 64.2864 46.4897 64.2864 48.2548V49.1288C64.2864 50.8949 63.9244 52.4643 63.2004 53.8381C62.4784 55.2128 61.4574 56.2775 60.1404 57.0341C58.8224 57.7907 57.3364 58.1741 55.6814 58.1831H49.8174ZM53.7174 42.3584V55.0382H55.6034C57.1284 55.0382 58.2934 54.5385 59.1004 53.5381C59.9054 52.5386 60.3174 51.1077 60.3354 49.2462V48.2418C60.3354 46.3111 59.9354 44.847 59.1384 43.8516C58.3414 42.8562 57.1764 42.3584 55.6414 42.3584H53.7174Z" fill="#313D47"/>
<path fill-rule="evenodd" clip-rule="evenodd" d="M74.4718 58.1823C74.2988 57.8431 74.1738 57.4206 74.0948 56.9169C73.1858 57.9344 72.0018 58.4432 70.5467 58.4432C69.1687 58.4432 68.0267 58.0428 67.1207 57.243C66.2147 56.4433 65.7607 55.4348 65.7607 54.2166C65.7607 52.7214 66.3147 51.5725 67.4197 50.7727C68.5247 49.9729 70.1207 49.5675 72.2098 49.5595H73.9398V48.7507C73.9398 48.0985 73.7728 47.5767 73.4398 47.1843C73.1058 46.794 72.5788 46.5973 71.8598 46.5973C71.2268 46.5973 70.7308 46.7508 70.3707 47.0539C70.0107 47.3589 69.8307 47.7763 69.8307 48.3072H66.0737C66.0737 47.4894 66.3257 46.7327 66.8267 46.0373C67.3297 45.3409 68.0417 44.7951 68.9607 44.3997C69.8787 44.0033 70.9098 43.8066 72.0538 43.8066C73.7878 43.8066 75.1638 44.2442 76.1818 45.1172C77.2008 45.9912 77.7108 47.2194 77.7108 48.8029V54.92C77.7188 56.2596 77.9048 57.2731 78.2698 57.9615V58.1823H74.4718ZM71.3655 55.5602C71.9195 55.5602 72.4305 55.4368 72.8995 55.1879C73.3675 54.9411 73.7135 54.6079 73.9395 54.1905V51.7641H72.5355C70.6545 51.7641 69.6535 52.4164 69.5325 53.7209L69.5195 53.9426C69.5195 54.4113 69.6845 54.7986 70.0125 55.1036C70.3415 55.4087 70.7925 55.5602 71.3655 55.5602Z" fill="#313D47"/>
<path fill-rule="evenodd" clip-rule="evenodd" d="M84.9265 52.8467L87.5275 44.0664H91.5575L85.9025 60.3747L85.5905 61.1183C84.7485 62.9617 83.3625 63.8838 81.4295 63.8838C80.8835 63.8838 80.3275 63.8005 79.7665 63.635V60.7791L80.3375 60.7922C81.0485 60.7922 81.5785 60.6838 81.9305 60.466C82.2805 60.2473 82.5565 59.887 82.7555 59.3823L83.1975 58.2203L78.2705 44.0664H82.3145L84.9265 52.8467Z" fill="#313D47"/>
<path fill-rule="evenodd" clip-rule="evenodd" d="M41.9746 50.3038H47.0116V47.0957H41.9746V50.3038Z" fill="#313D47"/>
</svg>
