<svg width="32" height="32" viewBox="0 0 32 32" fill="none" xmlns="http://www.w3.org/2000/svg">
<path fill-rule="evenodd" clip-rule="evenodd" d="M15.9999 24.9216C11.0498 24.9216 7.03668 20.9272 7.03668 16C7.03668 11.0725 11.0498 7.07812 15.9999 7.07812C20.9499 7.07812 24.963 11.0725 24.963 16C24.963 20.9272 20.9499 24.9216 15.9999 24.9216ZM15.9999 2.58398C8.55613 2.58398 2.52148 8.59058 2.52148 16.0003C2.52148 23.4099 8.55613 29.4163 15.9999 29.4163C23.4438 29.4163 29.4783 23.4099 29.4783 16.0003C29.4783 8.59058 23.4438 2.58398 15.9999 2.58398Z" fill="#231F20"/>
<path fill-rule="evenodd" clip-rule="evenodd" d="M22.6967 16.565C21.3576 16.9219 19.9563 16.1811 19.5197 14.8534C19.0832 13.5258 19.7731 12.1038 21.0655 11.6035C21.6409 12.2599 22.0965 13.0393 22.3861 13.9196C22.6753 14.7998 22.771 15.6968 22.6967 16.565ZM19.9721 21.3938C19.2218 21.9411 18.3952 22.3107 17.5433 22.5105C16.7856 21.3545 17.0575 19.7984 18.1891 18.9725C19.3209 18.1465 20.8935 18.357 21.7729 19.4238C21.3252 20.1723 20.7225 20.846 19.9721 21.3938ZM14.3202 15.9999C14.3202 15.0768 15.072 14.3282 15.9997 14.3282C16.9271 14.3282 17.6792 15.0768 17.6792 15.9999C17.6792 16.9231 16.9271 17.6717 15.9997 17.6717C15.072 17.6717 14.3202 16.9231 14.3202 15.9999ZM14.5265 22.5278C13.6724 22.3372 12.8419 21.9766 12.0854 21.4371C11.3293 20.8975 10.7192 20.2304 10.2637 19.4865C11.1317 18.4105 12.7018 18.1833 13.8424 18.9971C14.983 19.8109 15.2715 21.3641 14.5265 22.5278ZM9.30885 16.6369C9.22529 15.7695 9.31129 14.8715 9.5912 13.9883C9.87112 13.1049 10.3184 12.3207 10.8868 11.6582C12.1843 12.1446 12.8895 13.5594 12.4674 14.8914C12.0452 16.2237 10.6522 16.9795 9.30885 16.6369ZM15.9993 9.31055C16.9296 9.31055 17.8159 9.49921 18.6216 9.83943C18.546 11.2175 17.4025 12.3126 15.9993 12.3126C14.596 12.3126 13.4527 11.2175 13.377 9.83943C14.1828 9.49921 15.0686 9.31055 15.9993 9.31055ZM15.9997 8.03711C11.5817 8.03711 8 11.6023 8 15.9999C8 20.3976 11.5817 23.9625 15.9997 23.9625C20.4179 23.9625 23.9993 20.3976 23.9993 15.9999C23.9993 11.6023 20.4179 8.03711 15.9997 8.03711Z" fill="#231F20"/>
</svg>
