<svg width="121" height="120" viewBox="0 0 121 120" fill="none" xmlns="http://www.w3.org/2000/svg">
<path fill-rule="evenodd" clip-rule="evenodd" d="M120.198 60C120.198 76.4 113.598 91.2 102.998 102C102.798 102.2 102.498 102.5 102.298 102.7C101.898 103.1 101.398 103.6 100.898 104C100.498 104.3 100.198 104.7 99.7982 105C99.0982 105.6 98.4982 106.1 97.7982 106.7C97.3982 107 96.9982 107.4 96.5982 107.7C86.4982 115.4 73.8982 120 60.1982 120C46.4982 120 33.8982 115.4 23.8982 107.7C23.4982 107.4 22.9982 107 22.5982 106.7C21.9982 106.2 21.4982 105.8 20.8982 105.3C20.3982 104.9 19.9982 104.5 19.4982 104C18.9982 103.6 18.5982 103.1 18.0982 102.7C17.8982 102.5 17.5982 102.2 17.3982 102C13.8982 98.4 10.7982 94.4 8.19824 90C6.79824 87.6 5.59824 85.2 4.59824 82.6C2.19824 76.7 0.698242 70.3 0.298242 63.6V63.5C0.298242 63 0.198242 62.4 0.198242 61.9C0.198242 61.2 0.198242 60.6 0.198242 59.9C0.198242 59 0.198242 58.2 0.298242 57.3C0.298242 57.1 0.298242 56.8 0.298242 56.5C0.398242 54.6 0.598242 52.7 0.898242 50.9C1.39824 47.7 2.19824 44.4 3.19824 41.2C3.29824 41 3.39824 40.7 3.39824 40.4C3.59824 40 3.69824 39.6 3.89824 39.1C4.09824 38.7 4.19824 38.2 4.39824 37.8C13.1982 15.7 34.8982 0 60.1982 0C93.2982 0 120.198 26.9 120.198 60Z" fill="#E6F1F5"/>
<path d="M102.298 102.799C100.498 104.599 98.5981 106.199 96.5981 107.799C86.4981 115.399 73.8981 119.999 60.1981 119.999C46.4981 119.999 33.8981 115.399 23.8981 107.699C21.8981 106.199 19.9981 104.499 18.1981 102.699H102.298V102.799Z" fill="#D4D7D9"/>
<path fill-rule="evenodd" clip-rule="evenodd" d="M102.998 102.1C102.798 102.3 102.498 102.6 102.298 102.8C101.898 103.2 101.398 103.7 100.898 104.1C100.498 104.4 100.198 104.8 99.7983 105.1C99.0983 105.7 98.4983 106.2 97.7983 106.8C97.3983 107.1 96.9983 107.5 96.5983 107.8H23.8983C23.4983 107.5 22.9983 107.1 22.5983 106.8C21.9983 106.3 21.4983 105.9 20.8983 105.4C20.3983 105 19.9983 104.6 19.4983 104.1C18.9983 103.7 18.5983 103.2 18.0983 102.8C17.8983 102.6 17.5983 102.3 17.3983 102.1H102.998Z" fill="#666B70"/>
<path fill-rule="evenodd" clip-rule="evenodd" d="M28.798 88.1C28.798 96.1 24.598 102.6 19.398 102.6H17.998C17.798 102.4 17.598 102.2 17.398 102C14.298 98.8 11.498 95.3 9.09802 91.5C8.79802 91 8.49802 90.5 8.19802 90C6.79802 87.6 5.59802 85.2 4.59802 82.6C5.09802 80.8 5.79802 79.2 6.69802 77.8C8.39802 75.2 10.798 73.5 13.398 73.5H19.498C24.598 73.6 28.798 80.1 28.798 88.1Z" fill="#1B1B1B"/>
<path d="M52.1982 79.5L26.6982 92.5L22.1982 87L20.6982 75.5L25.6982 67H42.1982L52.1982 79.5Z" fill="#1B1B1B"/>
<path fill-rule="evenodd" clip-rule="evenodd" d="M13.8984 86C13.0984 86 12.4984 87 12.4984 88.2C12.4984 89.4 13.0984 90.4 13.8984 90.4C14.6984 90.4 15.2984 89.4 15.2984 88.2C15.2984 87 14.5984 86 13.8984 86Z" fill="#1B1B1B"/>
<path fill-rule="evenodd" clip-rule="evenodd" d="M82.6983 102.6H88.7983C93.9983 102.6 98.1983 96.0996 98.1983 88.0996C98.1983 80.0996 93.9983 73.5996 88.7983 73.5996H82.6983C76.9983 73.5996 76.8983 102.6 82.6983 102.6Z" fill="#1B1B1B"/>
<path fill-rule="evenodd" clip-rule="evenodd" d="M82.6983 102.6C77.4983 102.6 73.2983 96.0996 73.2983 88.0996C73.2983 80.0996 77.4983 73.5996 82.6983 73.5996C87.8983 73.5996 92.0983 80.0996 92.0983 88.0996C92.0983 96.0996 87.8983 102.6 82.6983 102.6Z" fill="#1B1B1B"/>
<path fill-rule="evenodd" clip-rule="evenodd" d="M82.6983 98.7C78.8983 98.7 75.7983 93.9 75.7983 88.1C75.7983 82.3 78.8983 77.5 82.6983 77.5C86.4983 77.5 89.5983 82.3 89.5983 88.1C89.5983 94 86.4983 98.7 82.6983 98.7Z" fill="#1B1B1B"/>
<path fill-rule="evenodd" clip-rule="evenodd" d="M82.6983 97.2C79.4983 97.2 76.7983 93.1 76.7983 88.1C76.7983 83.1 79.3983 79 82.6983 79C85.8983 79 88.5983 83.1 88.5983 88.1C88.5983 93.1 85.8983 97.2 82.6983 97.2Z" fill="#1B1B1B"/>
<path fill-rule="evenodd" clip-rule="evenodd" d="M83.7983 97.1008C86.4983 96.3008 88.5983 92.6008 88.5983 88.2008C88.5983 83.8008 86.5983 80.1008 83.7983 79.3008C81.0983 80.1008 78.9983 83.8008 78.9983 88.2008C79.0983 92.6008 81.0983 96.2008 83.7983 97.1008Z" fill="#1B1B1B"/>
<path fill-rule="evenodd" clip-rule="evenodd" d="M83.5982 97.0996C84.5982 96.8996 85.5982 96.1996 86.3982 95.1996C85.6982 95.6996 85.1982 95.7996 84.9982 95.1996C84.7982 94.5996 85.0982 93.0996 85.6982 92.5996C86.2982 92.0996 87.0982 92.6996 87.2982 93.2996C87.2982 93.4996 87.3982 93.5996 87.2982 93.7996C87.5982 93.1996 87.8982 92.3996 88.1982 91.6996C88.1982 91.6996 88.1982 91.6996 88.0982 91.6996C87.6982 91.5996 87.1982 90.2996 87.2982 89.1996C87.3982 88.1996 88.2982 87.3996 88.5982 87.4996C88.5982 86.7996 88.4982 86.0996 88.3982 85.3996C88.0982 85.7996 87.1982 85.6996 86.7982 84.8996C86.3982 84.0996 86.5982 82.4996 86.8982 82.0996C86.9982 81.9996 87.0982 81.8996 87.1982 81.9996C86.2982 80.4996 85.0982 79.3996 83.6982 79.0996C81.0982 79.6996 78.3982 82.4996 78.3982 88.0996C78.2982 93.7996 80.9982 96.4996 83.5982 97.0996ZM84.3982 80.1996C85.0982 80.1996 85.6982 80.5996 85.6982 81.1996C85.6982 81.7996 85.0982 82.9996 84.3982 82.9996C83.7982 82.9996 83.0982 81.7996 83.0982 81.1996C83.0982 80.5996 83.5982 80.1996 84.3982 80.1996ZM80.6982 83.1996C81.1982 82.1996 81.5982 81.7996 81.8982 82.1996C82.1982 82.5996 82.3982 84.1996 81.9982 84.9996C81.5982 85.7996 80.6982 85.8996 80.3982 85.4996C80.0982 85.0996 80.2982 84.1996 80.6982 83.1996ZM79.7982 89.8996C79.5982 88.6996 79.6982 87.6996 80.0982 87.5996C80.4982 87.4996 81.2982 88.1996 81.3982 89.2996C81.4982 90.2996 80.9982 91.5996 80.5982 91.7996C80.2982 91.8996 79.9982 91.0996 79.7982 89.8996ZM82.2982 95.1996C81.5982 94.6996 81.2982 93.9996 81.3982 93.3996C81.5982 92.7996 82.3982 92.1996 82.9982 92.6996C83.5982 93.1996 83.7982 94.6996 83.6982 95.2996C83.4982 95.7996 82.9982 95.7996 82.2982 95.1996Z" fill="#1B1B1B"/>
<path fill-rule="evenodd" clip-rule="evenodd" d="M83.0982 97.1996C86.0982 96.8996 88.4982 93.0996 88.5982 88.3996V88.1996C88.5982 83.2996 86.0982 79.3996 82.9982 79.0996C80.1982 79.2996 77.8982 83.2996 77.8982 88.1996C77.8982 93.0996 80.1982 97.0996 83.0982 97.1996ZM83.2982 80.1996C83.9982 80.1996 84.5982 80.5996 84.5982 81.1996C84.5982 81.7996 83.9982 82.9996 83.2982 82.9996C82.6982 82.9996 81.9982 81.7996 81.9982 81.1996C81.9982 80.5996 82.4982 80.1996 83.2982 80.1996ZM79.5982 83.1996C80.0982 82.1996 80.4982 81.7996 80.7982 82.1996C81.0982 82.5996 81.2982 84.1996 80.8982 84.9996C80.4982 85.7996 79.5982 85.8996 79.2982 85.4996C78.9982 85.0996 79.0982 84.1996 79.5982 83.1996ZM78.6982 89.8996C78.4982 88.6996 78.5982 87.6996 78.9982 87.5996C79.3982 87.4996 80.1982 88.1996 80.2982 89.2996C80.3982 90.2996 79.8982 91.5996 79.4982 91.7996C79.1982 91.8996 78.8982 91.0996 78.6982 89.8996ZM81.1982 95.1996C80.4982 94.6996 80.1982 93.9996 80.2982 93.3996C80.4982 92.7996 81.2982 92.1996 81.8982 92.6996C82.4982 93.1996 82.6982 94.6996 82.5982 95.2996C82.3982 95.7996 81.8982 95.7996 81.1982 95.1996ZM85.1982 95.2996C84.4982 95.7996 83.9982 95.8996 83.7982 95.2996C83.5982 94.6996 83.8982 93.1996 84.4982 92.6996C85.0982 92.1996 85.8982 92.7996 86.0982 93.3996C86.2982 93.9996 85.8982 94.6996 85.1982 95.2996ZM87.7982 89.8996C87.5982 91.0996 87.2982 91.8996 86.8982 91.7996C86.4982 91.6996 85.9982 90.3996 86.0982 89.2996C86.1982 88.2996 87.0982 87.4996 87.3982 87.5996C87.7982 87.7996 87.8982 88.6996 87.7982 89.8996ZM86.8982 83.1996C87.3982 84.1996 87.4982 85.0996 87.1982 85.4996C86.8982 85.8996 85.9982 85.7996 85.5982 84.9996C85.1982 84.1996 85.3982 82.5996 85.6982 82.1996C85.8982 81.7996 86.3982 82.1996 86.8982 83.1996Z" fill="#1B1B1B"/>
<path fill-rule="evenodd" clip-rule="evenodd" d="M83.1981 86C82.3981 86 81.7981 87 81.7981 88.2C81.7981 89.4 82.3981 90.4 83.1981 90.4C83.9981 90.4 84.5981 89.4 84.5981 88.2C84.6981 87 83.9981 86 83.1981 86Z" fill="#1B1B1B"/>
<path fill-rule="evenodd" clip-rule="evenodd" d="M34.8983 73.5996H40.9983C46.1983 73.5996 50.3983 80.0996 50.3983 88.0996C50.3983 96.0996 46.1983 102.6 40.9983 102.6H34.8983C29.1983 102.6 29.0983 73.5996 34.8983 73.5996Z" fill="#1B1B1B"/>
<path fill-rule="evenodd" clip-rule="evenodd" d="M34.8984 102.6C29.6984 102.6 25.4984 96.0996 25.4984 88.0996C25.4984 80.0996 29.6984 73.5996 34.8984 73.5996C40.0984 73.5996 44.2984 80.0996 44.2984 88.0996C44.2984 96.0996 40.0984 102.6 34.8984 102.6Z" fill="#343434"/>
<path fill-rule="evenodd" clip-rule="evenodd" d="M34.8982 98.7C31.0982 98.7 27.9982 93.9 27.9982 88.1C27.9982 82.3 31.0982 77.5 34.8982 77.5C38.6982 77.5 41.7982 82.3 41.7982 88.1C41.7982 94 38.6982 98.7 34.8982 98.7Z" fill="white"/>
<path fill-rule="evenodd" clip-rule="evenodd" d="M34.8983 97.2C31.6983 97.2 28.9983 93.1 28.9983 88.1C28.9983 83.1 31.5983 79 34.8983 79C38.1983 79 40.7983 83.1 40.7983 88.1C40.7983 93.1 38.1983 97.2 34.8983 97.2Z" fill="#989898"/>
<path fill-rule="evenodd" clip-rule="evenodd" d="M35.9981 79.1992C38.6981 79.9992 40.7981 83.6992 40.7981 88.0992C40.7981 92.4992 38.7981 96.1992 35.9981 96.9992C33.2981 96.1992 31.1981 92.4992 31.1981 88.0992C31.2981 83.6992 33.2981 79.9992 35.9981 79.1992Z" fill="#1B1B1B"/>
<path fill-rule="evenodd" clip-rule="evenodd" d="M36.3983 94.1992C34.1983 94.1992 32.4983 91.4992 32.4983 88.1992C32.4983 84.8992 34.2983 82.1992 36.3983 82.1992C38.5983 82.1992 40.2983 84.8992 40.2983 88.1992C40.2983 91.3992 38.5983 94.1992 36.3983 94.1992Z" fill="#CBCBCB"/>
<path fill-rule="evenodd" clip-rule="evenodd" d="M38.6981 81.2C39.2981 82 39.8981 83.1 40.1981 84.3L38.8981 87.1L40.7981 88V88.2C40.7981 89.4 40.5981 90.6 40.3981 91.7L38.2981 90.7V95.8C37.5981 96.5 36.8981 97 36.0981 97.2H35.9981V90.8L31.9981 92.6H30.8981C31.4981 90.7 31.3981 90.9 31.2981 89.1L35.1981 87.3L32.7981 82.1C33.4981 80.9 33.5981 81.4 33.5981 80H34.6981L37.0981 85.1L38.6981 81.2Z" fill="#676767"/>
<path fill-rule="evenodd" clip-rule="evenodd" d="M37.9982 80.4008C38.6982 81.1008 39.2982 81.9008 39.7982 83.0008L37.8982 87.2008L40.8982 88.6008C40.8982 89.9008 40.6982 91.1008 40.2982 92.2008L37.1982 90.7008V96.7008C36.6982 97.0008 36.0982 97.2008 35.4982 97.3008C35.2982 97.3008 34.9982 97.2008 34.7982 97.1008V90.7008L30.7982 92.5008C30.5982 92.0008 30.4982 91.6008 30.3982 91.0008L30.1982 90.5008C30.0982 90.0008 30.0982 89.5008 29.9982 89.0008L33.8982 87.2008L31.4982 82.0008C31.6982 81.6008 31.9982 81.2008 32.2982 80.9008L32.5982 80.6008C32.8982 80.3008 33.1982 80.0008 33.4982 79.8008L35.8982 84.9008L37.9982 80.4008Z" fill="white"/>
<path fill-rule="evenodd" clip-rule="evenodd" d="M35.6983 90.0004C34.9983 90.0004 34.4983 89.2004 34.4983 88.2004C34.4983 87.2004 34.9983 86.4004 35.6983 86.4004C36.3983 86.4004 36.8983 87.2004 36.8983 88.2004C36.8983 89.1004 36.2983 90.0004 35.6983 90.0004Z" fill="#B2B2B2"/>
<path fill-rule="evenodd" clip-rule="evenodd" d="M108.298 80.9992C108.198 81.4992 107.398 81.9992 107.398 82.5992C107.598 87.2992 106.398 91.0992 103.098 93.2992H51.3982L48.7982 89.9992H46.2982C46.4982 88.7992 46.6982 87.4992 46.6982 86.1992C46.6982 77.6992 42.0982 70.5992 35.0982 70.5992C28.1982 70.5992 23.4982 77.6992 23.4982 86.1992C23.4982 87.2992 23.5982 88.3992 23.7982 89.4992L21.9982 93.1992L18.0982 89.9992H8.19824C6.79824 87.5992 5.59824 85.1992 4.59824 82.5992C2.19824 76.6992 0.698242 70.2992 0.298242 63.5992C0.198242 62.4992 0.198242 61.1992 0.198242 59.9992C0.198242 59.0992 0.198242 58.2992 0.298242 57.3992C0.598242 50.9992 1.79824 44.8992 3.89824 39.1992C4.09824 38.7992 4.19824 38.2992 4.39824 37.8992C8.29824 37.7992 11.8982 37.6992 15.2982 37.6992C26.7982 37.6992 44.8982 37.6992 50.2982 40.3992C59.6982 45.1992 66.0982 51.8992 74.2982 57.3992C84.4982 58.7992 95.6982 60.7992 99.9982 62.7992C100.198 62.8992 100.498 62.9992 100.698 63.0992C100.898 63.1992 101.098 63.2992 101.298 63.3992C102.398 63.9992 103.198 64.5992 103.798 65.1992C103.898 65.2992 103.998 65.3992 104.098 65.4992C105.898 67.4992 105.998 69.8992 106.398 73.8992C106.498 74.8992 107.998 75.0992 108.298 76.0992C108.698 77.5992 108.498 80.0992 108.298 80.9992Z" fill="#306700"/>
<path fill-rule="evenodd" clip-rule="evenodd" d="M43.7983 67.6995C39.4983 64.8995 33.7983 64.3995 28.7983 67.6995C25.4983 69.8995 23.8983 73.5995 23.9983 75.0995C24.0983 76.0995 27.1983 72.6995 30.5983 71.2995C34.0983 69.7995 38.4983 69.2995 41.3983 70.7995C47.1983 73.6995 47.6983 86.3995 48.7983 85.0995C49.9983 83.8995 50.4983 71.9995 43.7983 67.6995Z" fill="#62A744"/>
<path fill-rule="evenodd" clip-rule="evenodd" d="M104.098 65.4992C96.1982 66.3992 83.3982 66.6992 72.6982 66.3992C63.4982 65.8992 56.2982 66.3992 49.0982 65.2992C43.5982 64.3992 38.9982 64.1992 35.2982 63.6992H0.298242V63.5992C0.298242 62.9992 0.298242 62.4992 0.198242 61.9992C0.198242 61.2992 0.198242 60.6992 0.198242 59.9992C0.198242 59.0992 0.198242 58.2992 0.298242 57.3992H22.8982C24.3982 57.3992 25.4982 55.8992 23.7982 53.7992C20.3982 49.4992 18.4982 46.4992 14.2982 41.7992C12.7982 40.1992 9.19824 39.3992 3.99824 39.1992C4.19824 38.7992 4.29824 38.2992 4.49824 37.8992C8.39824 37.7992 11.9982 37.6992 15.3982 37.6992C26.8982 37.6992 44.9982 37.6992 50.3982 40.3992C59.7982 45.1992 66.1982 51.8992 74.3982 57.3992C84.5982 58.7992 95.7982 60.7992 100.098 62.7992C100.298 62.8992 100.598 62.9992 100.798 63.0992C100.998 63.1992 101.198 63.2992 101.398 63.3992C102.498 63.9992 103.298 64.5992 103.898 65.1992C103.898 65.2992 103.998 65.3992 104.098 65.4992Z" fill="#62A744"/>
<path fill-rule="evenodd" clip-rule="evenodd" d="M50.8984 40.8008C59.9984 45.6008 66.2984 52.1008 74.2984 57.5008H29.0984C28.5984 57.5008 28.0984 57.3008 27.6984 56.9008L15.6984 41.6008C15.2984 41.2008 15.4984 40.8008 16.1984 40.8008H50.8984Z" fill="#1B1B1B"/>
<path fill-rule="evenodd" clip-rule="evenodd" d="M48.5983 90.0004H46.0983C46.2983 88.8004 46.4983 87.5004 46.4983 86.3004C46.4983 77.8004 41.6983 71.0004 35.1983 71.0004C28.6983 71.0004 23.8983 77.9004 23.8983 86.3004C23.8983 87.6004 23.9983 88.8004 24.2983 90.0004C24.6983 91.9004 23.4983 93.3004 22.5983 93.3004C21.8983 91.1004 21.4983 88.8004 21.4983 86.3004C21.4983 76.2004 26.9983 67.9004 35.2983 67.9004C43.5983 67.9004 49.0983 76.1004 49.0983 86.3004C48.8983 87.6004 48.7983 88.8004 48.5983 90.0004Z" fill="#343434"/>
<path fill-rule="evenodd" clip-rule="evenodd" d="M105.998 90C105.498 91 104.398 92.5 103.098 93.3H80.2985C69.7985 93.3 59.9985 93.3 49.3985 93.3C47.6985 93.3 45.9985 91.7 45.9985 90L48.6985 88.5L50.3985 90H67.3985L68.8985 88.5L70.9985 83.2C71.3985 82.2 72.0985 81.5 73.1985 81.5H103.698C104.898 81.5 105.798 82 105.998 83.2L106.898 87.5C106.698 88.3 106.398 89.2 105.998 90ZM22.7985 90L22.3985 93.3H21.3985C20.9985 93.3 20.4985 93.1 20.0985 92.8L16.7985 90H22.7985Z" fill="#343434"/>
<path fill-rule="evenodd" clip-rule="evenodd" d="M21.5982 57.4004H0.298218C0.498218 51.5004 1.69822 45.8004 3.49822 40.4004C7.19822 40.6004 10.5982 41.2004 12.1982 42.9004C15.6982 46.6004 18.9982 51.9004 21.9982 56.5004C22.1982 57.0004 21.9982 57.4004 21.5982 57.4004Z" fill="#1B1B1B"/>
<path fill-rule="evenodd" clip-rule="evenodd" d="M65.3982 51.0992C60.9982 47.5992 56.6982 44.2992 51.6982 41.4992H16.6982L28.3982 56.2992C28.5982 56.4992 28.7982 56.6992 29.1982 56.6992H72.7982C70.2982 54.8992 67.7982 52.9992 65.3982 51.0992ZM11.4982 43.4992C10.0982 41.9992 6.69822 41.3992 3.19822 41.1992C2.19822 44.3992 1.39822 47.5992 0.898218 50.9992C0.598218 52.7992 0.398218 54.6992 0.298218 56.5992H21.0982C18.1982 52.1992 15.0982 47.2992 11.4982 43.4992Z" fill="url(#paint0_linear_7729_104597)"/>
<path fill-rule="evenodd" clip-rule="evenodd" d="M68.7982 53.7992C58.9982 51.2992 47.8982 49.4992 36.1982 48.6992C31.2982 48.2992 26.4982 48.1992 21.8982 48.1992L28.3982 56.3992C28.5982 56.5992 28.7982 56.7992 29.1982 56.7992H72.7982C71.3982 55.6992 70.0982 54.7992 68.7982 53.7992ZM18.9982 53.4992C13.1982 52.3992 7.19822 51.5992 0.898218 50.9992C0.598218 52.7992 0.398218 54.6992 0.298218 56.5992H21.0982C20.3982 55.5992 19.6982 54.4992 18.9982 53.4992Z" fill="#1B1B1B"/>
<path fill-rule="evenodd" clip-rule="evenodd" d="M102.898 71.3008H71.8983L71.5983 72.1008C71.3983 72.6008 71.8983 73.1008 72.4983 73.3008L74.8983 74.2008C75.8983 74.6008 77.0983 75.0008 78.2983 75.0008H100.598C101.298 75.0008 101.898 74.6008 102.298 74.2008L103.098 73.3008C103.398 73.0008 103.398 72.5008 103.198 72.1008L102.898 71.3008ZM100.598 66.8008H74.2983C73.7983 66.8008 73.4983 67.0008 73.2983 67.5008L72.3983 70.0008H102.498L101.598 67.5008C101.498 67.2008 101.098 66.8008 100.598 66.8008Z" fill="#343434"/>
<path fill-rule="evenodd" clip-rule="evenodd" d="M101.198 71.3008H71.8983L71.5983 72.1008C71.3983 72.6008 71.8983 73.1008 72.4983 73.3008L74.8983 74.2008C75.8983 74.6008 77.0983 75.0008 78.2983 75.0008H98.7983C99.4983 75.0008 100.098 74.6008 100.498 74.2008L101.298 73.3008C101.598 73.0008 101.598 72.5008 101.398 72.1008L101.198 71.3008ZM100.698 70.0008L99.7983 67.5008C99.6983 67.1008 99.2983 66.8008 98.7983 66.8008H74.2983C73.7983 66.8008 73.4983 67.0008 73.2983 67.5008L72.3983 70.0008H100.698Z" fill="#1B1B1B"/>
<path fill-rule="evenodd" clip-rule="evenodd" d="M81.3982 90.0004H73.1982C72.5982 90.0004 71.9982 90.4004 71.5982 90.8004L69.1982 93.3004H79.3982L81.6982 90.9004C82.0982 90.5004 81.8982 90.0004 81.3982 90.0004ZM101.698 90.0004H96.9982C96.2982 90.0004 95.6982 90.3004 95.1982 90.8004L92.7982 93.3004H103.098L102.698 90.9004C102.598 90.4004 102.298 90.0004 101.698 90.0004ZM93.2982 90.0004C93.7982 90.0004 93.9982 90.5004 93.6982 90.8004L91.3982 93.2004H81.0982L83.4982 90.7004C83.8982 90.3004 84.2982 89.9004 85.0982 89.9004H93.2982V90.0004Z" fill="#1E1E1E"/>
<path fill-rule="evenodd" clip-rule="evenodd" d="M103.698 87.6008H74.2984C73.7984 87.6008 73.1984 87.0008 73.3984 86.5008L73.8984 85.2008C74.0984 84.7008 74.5984 84.3008 75.0984 84.3008H103.798C104.298 84.3008 104.698 84.7008 104.698 85.2008V86.6008C104.598 87.2008 104.198 87.6008 103.698 87.6008Z" fill="#222222"/>
<path fill-rule="evenodd" clip-rule="evenodd" d="M101.898 87.6008H74.2984C73.7984 87.6008 73.1984 87.0008 73.3984 86.5008L73.8984 85.2008C74.0984 84.7008 74.5984 84.3008 75.0984 84.3008H101.998C102.498 84.3008 102.898 84.7008 102.898 85.2008V86.6008C102.798 87.2008 102.398 87.6008 101.898 87.6008Z" fill="#1B1B1B"/>
<path fill-rule="evenodd" clip-rule="evenodd" d="M64.5982 81.5996H58.1982C57.3982 81.5996 56.5982 82.2996 56.3982 83.0996L56.0982 84.5996C55.8982 85.3996 56.3982 86.0996 57.2982 86.0996H63.6982C64.4982 86.0996 65.2982 85.3996 65.4982 84.5996L65.7982 83.0996C65.8982 82.1996 65.3982 81.5996 64.5982 81.5996Z" fill="#343434"/>
<path fill-rule="evenodd" clip-rule="evenodd" d="M62.8982 81.5996H58.1982C57.3982 81.5996 56.5982 82.2996 56.3982 83.0996L56.0982 84.5996C55.8982 85.3996 56.3982 86.0996 57.2982 86.0996H61.9982C62.7982 86.0996 63.5982 85.3996 63.7982 84.5996L64.0982 83.0996C64.2982 82.1996 63.7982 81.5996 62.8982 81.5996Z" fill="#1B1B1B"/>
<path fill-rule="evenodd" clip-rule="evenodd" d="M60.7982 82.4004H58.6982C58.1982 82.4004 57.5982 82.8004 57.4982 83.4004L57.2982 84.4004C57.1982 84.9004 57.4982 85.4004 58.0982 85.4004H60.1982C60.6982 85.4004 61.2982 85.0004 61.3982 84.4004L61.5982 83.4004C61.6982 82.8004 61.3982 82.4004 60.7982 82.4004Z" fill="#E5E5E5"/>
<path fill-rule="evenodd" clip-rule="evenodd" d="M54.4983 65.0995L69.4983 66.5995C70.0983 66.6995 70.4983 67.2995 70.2983 67.7995L68.9983 71.2995C68.7983 71.7995 68.2983 72.0995 67.6983 72.0995L58.4983 71.4995C57.9983 71.4995 57.5983 71.1995 57.1983 70.7995L53.6983 66.3995C53.3983 65.8995 53.6983 64.9995 54.4983 65.0995Z" fill="#E5E5E5"/>
<path fill-rule="evenodd" clip-rule="evenodd" d="M104.498 66C105.698 66.6 106.498 71 106.198 72.2H105.598C104.998 72.2 104.498 72 104.298 71.4L102.998 68C102.798 67.4 102.998 67.1 103.398 66.7L104.498 66Z" fill="#E5E5E5"/>
<path fill-rule="evenodd" clip-rule="evenodd" d="M10.7983 50.6992H15.4983C18.2983 50.6992 18.2983 56.3992 15.4983 56.3992H10.7983C9.69834 56.3992 8.79834 55.4992 8.79834 54.3992V52.6992C8.79834 51.5992 9.69834 50.6992 10.7983 50.6992Z" fill="#62A744"/>
<path fill-rule="evenodd" clip-rule="evenodd" d="M16.3982 53.699L19.1982 54.499C19.7982 54.699 20.1982 55.199 20.0982 55.999C19.9982 56.699 19.1982 57.199 17.9982 56.899L16.1982 56.399C15.7982 56.299 15.3982 56.099 15.4982 55.699L15.7982 54.499C15.7982 53.999 15.9982 53.599 16.3982 53.699Z" fill="#62A744"/>
<path fill-rule="evenodd" clip-rule="evenodd" d="M9.69834 51.8008C10.1983 51.8008 10.5983 52.2008 10.5983 52.7008V54.9008C10.5983 55.3008 10.7983 55.5008 11.1983 55.5008H15.5983C16.3983 55.5008 16.3983 56.4008 15.5983 56.4008H10.7983C9.59834 56.4008 8.79834 55.5008 8.79834 54.3008V52.7008C8.79834 52.2008 9.19834 51.8008 9.69834 51.8008Z" fill="#306700"/>
<path fill-rule="evenodd" clip-rule="evenodd" d="M107.598 76.9004C107.798 76.6004 107.598 76.2004 107.298 76.0004C106.998 75.8004 106.598 76.0004 106.398 76.3004C106.198 76.6004 105.998 76.8004 105.598 77.0004C105.198 77.2004 104.598 77.3004 103.898 77.3004C91.3983 77.3004 69.3983 77.3004 58.1983 74.9004C54.3983 74.1004 58.7983 78.2004 60.1983 78.2004C73.1983 79.0004 90.7983 78.6004 103.798 78.6004C104.698 78.6004 105.398 78.5004 105.998 78.3004C106.798 77.9004 107.298 77.5004 107.598 76.9004Z" fill="#62A744"/>
<path fill-rule="evenodd" clip-rule="evenodd" d="M19.5984 90V91.5H9.09836C8.79836 91 8.49836 90.5 8.19836 90H19.5984Z" fill="#343434"/>
<path fill-rule="evenodd" clip-rule="evenodd" d="M88.4985 69.9004H92.1985C92.5985 69.9004 92.9985 70.3004 92.9985 70.7004C92.9985 71.1004 92.5985 71.5004 92.1985 71.5004H88.4985C88.0985 71.5004 87.6985 71.1004 87.6985 70.7004C87.6985 70.2004 87.9985 69.9004 88.4985 69.9004Z" fill="#B2B2B2"/>
<path fill-rule="evenodd" clip-rule="evenodd" d="M74.1983 66.0993C72.4983 64.3993 67.7983 62.8993 61.3983 61.5993C54.5983 60.2993 46.7983 59.4993 37.1983 58.6993C35.4983 58.5993 31.2983 58.9993 34.5983 59.2993C44.7983 60.0993 54.0983 61.1993 61.1983 62.5993C66.9983 63.6993 71.2983 64.9993 72.9983 66.4993C73.4983 66.8993 73.6983 66.9993 74.1983 66.7993C74.5983 66.5993 74.2983 66.1993 74.1983 66.0993Z" fill="#306700"/>
<path d="M88.6983 5.09961C84.0983 10.1996 74.6983 11.1996 69.6983 10.4996C69.6983 24.7996 69.5983 40.1996 88.6983 47.6996C107.798 40.1996 107.698 24.7996 107.698 10.4996C102.698 11.1996 93.2983 10.1996 88.6983 5.09961Z" fill="#62A608"/>
<path d="M88.6975 48.6992V6.19922C93.2975 11.2992 102.698 12.2992 107.698 11.5992C107.698 25.8992 107.798 41.1992 88.6975 48.6992Z" fill="#E0A03A"/>
<path d="M88.698 48.6992V6.19922C84.098 11.2992 74.698 12.2992 69.698 11.5992C69.698 25.8992 69.598 41.1992 88.698 48.6992Z" fill="#FACD46"/>
<defs>
<linearGradient id="paint0_linear_7729_104597" x1="36.5381" y1="26.6299" x2="36.5381" y2="47.2376" gradientUnits="userSpaceOnUse">
<stop stop-color="#1F222E"/>
<stop offset="1" stop-color="#252A2F"/>
</linearGradient>
</defs>
</svg>
