<svg width="121" height="132" viewBox="0 0 121 132" fill="none" xmlns="http://www.w3.org/2000/svg">
<path fill-rule="evenodd" clip-rule="evenodd" d="M120.198 72C120.198 105.137 93.3352 132 60.1982 132C27.0612 132 0.198242 105.137 0.198242 72C0.198242 38.863 27.0612 12 60.1982 12C93.3352 12 120.198 38.863 120.198 72Z" fill="#E6F1F5"/>
<mask id="mask0_7729_104591" style="mask-type:alpha" maskUnits="userSpaceOnUse" x="0" y="12" width="121" height="120">
<path fill-rule="evenodd" clip-rule="evenodd" d="M120.198 72C120.198 105.137 93.3352 132 60.1982 132C27.0612 132 0.198242 105.137 0.198242 72C0.198242 38.863 27.0612 12 60.1982 12C93.3352 12 120.198 38.863 120.198 72Z" fill="#E6F1F5"/>
</mask>
<g mask="url(#mask0_7729_104591)">
<path fill-rule="evenodd" clip-rule="evenodd" d="M31.809 76.0505C34.5423 69.6879 34.4868 62.0074 39.5838 51.7161C40.0088 50.8399 40.4767 49.9511 40.9907 49.0352L37.89 50.0778L30.2807 52.6258C29.685 52.8257 29.1135 53.0707 28.5649 53.3522V80.9255C29.7751 79.7499 30.8994 78.1734 31.809 76.0505Z" fill="#DD876B"/>
<path fill-rule="evenodd" clip-rule="evenodd" d="M28.569 53.3516V80.9259C25.8609 83.5565 22.7246 84.1459 20.5943 84.1846C19.2795 84.2098 18.2714 83.0363 18.5143 81.7445C18.5164 81.7309 18.5195 81.7173 18.5227 81.7037C19.0011 79.1704 19.8029 74.9108 20.5158 71.0324C21.2036 67.2596 21.8118 63.8491 21.9531 62.7374C22.4681 58.6746 24.9889 55.1919 28.569 53.3516Z" fill="#F39E7C"/>
<path fill-rule="evenodd" clip-rule="evenodd" d="M28.3846 38.3572C26.5045 39.0785 23.7273 40.0405 21.2233 40.8853C17.6128 42.1038 17.103 47.0312 20.4057 48.9301C22.3612 50.0534 25.0117 50.7495 28.5626 50.2952L28.5657 50.2921V38.2871C28.5071 38.3101 28.4443 38.3353 28.3846 38.3572Z" fill="#F39E7C"/>
<path fill-rule="evenodd" clip-rule="evenodd" d="M42.2762 42.9263C39.9303 39.8884 37.5906 37.5456 35.3703 35.5273C35.318 35.5504 35.2615 35.5755 35.2091 35.5985C32.8758 36.5961 30.645 37.4912 28.5649 38.2868V50.2917C33.0589 49.716 37.4347 47.7793 43.2812 46.3881C43.6988 46.2897 44.1301 46.1965 44.5635 46.1034C43.8056 44.9634 43.0446 43.9071 42.2835 42.9263H42.2762Z" fill="#DD876B"/>
<path fill-rule="evenodd" clip-rule="evenodd" d="M88.3655 95.3217C87.3145 95.0862 86.1609 94.8789 84.9162 94.7135C71.0375 92.8062 46.5565 94.9689 39.7553 95.6399C38.6007 95.7499 37.959 95.82 37.959 95.82C37.959 95.82 38.3526 96.9799 39.2445 98.7364C41.1999 102.586 45.5338 109.31 53.3305 113.043C59.4209 115.962 61.4661 128.002 64.8003 134.961C80.3346 133.235 91.8416 128.632 102.198 120.002C99.8038 113.402 94.4245 106.83 94.6894 99.7581C94.7658 97.63 92.3058 96.2199 88.3655 95.3217Z" fill="#F39E7C"/>
</g>
<path fill-rule="evenodd" clip-rule="evenodd" d="M35.3707 35.5276C39.1697 33.8998 43.2188 32.0145 47.2208 29.8842C47.7044 29.6288 48.187 29.365 48.6685 29.1022C47.0606 28.09 45.4977 27.0651 43.9945 26.0455C41.1283 24.11 38.4808 22.189 36.1328 20.4189C35.7801 20.1561 35.4419 19.8934 35.1049 19.639C33.3211 18.2813 30.6307 16.0777 28.5664 14.3672V29.4948C29.8728 30.7541 31.3133 31.9758 32.8458 33.301C33.6644 34.0056 34.5092 34.7446 35.3707 35.5276Z" fill="#DD876B"/>
<path fill-rule="evenodd" clip-rule="evenodd" d="M28.515 14.3248C26.7825 12.8885 24.1738 13.7134 23.5331 15.8699C22.7114 18.6419 22.6685 22.6125 26.2057 26.961C26.9259 27.8466 27.7183 28.6777 28.5652 29.4953V14.3666C28.5485 14.352 28.5317 14.3384 28.515 14.3248Z" fill="#F39E7C"/>
<path fill-rule="evenodd" clip-rule="evenodd" d="M84.0249 27.3369V7.85556C84.0249 5.18722 81.8622 3.02344 79.1928 3.02344H38.5855C35.9162 3.02344 33.7534 5.18722 33.7534 7.85556V27.3369V27.338V87.9677C33.7534 89.3202 34.2768 90.5482 35.1342 91.462C36.0679 92.4607 37.3932 93.0815 38.8661 93.0815H78.9112C80.4898 93.0815 81.9082 92.3654 82.842 91.237C83.4942 90.456 83.916 89.4741 84.005 88.399C84.0134 88.3258 84.0176 88.2493 84.0218 88.1729C84.026 88.1248 84.026 88.0724 84.026 88.0201V27.338C84.0249 27.338 84.0249 27.3369 84.0249 27.3369Z" fill="white"/>
<path fill-rule="evenodd" clip-rule="evenodd" d="M84.0246 17.4411V48.3422V87.8472C84.0246 89.0908 83.5808 90.2287 82.8438 91.1143C81.9069 92.2438 80.4926 92.9619 78.9098 92.9619H51.7082H38.8658C36.0415 92.9619 33.7521 90.6725 33.7521 87.8482V45.8236V16.2122V7.83026C33.7521 5.16191 35.9159 2.99813 38.5842 2.99813H79.1925C81.8619 2.99813 84.0246 5.16191 84.0246 7.83026V17.4411ZM79.3894 0H38.3854C34.3541 0 31.0859 3.26818 31.0859 7.29948V88.6605C31.0859 92.6918 34.3541 95.96 38.3854 95.96H79.3894C83.4207 95.96 86.6889 92.6918 86.6889 88.6605V7.29948C86.6889 3.26818 83.4207 0 79.3894 0Z" fill="#42144A"/>
<path fill-rule="evenodd" clip-rule="evenodd" d="M84.9162 94.7148C84.0181 95.4884 82.8498 95.9585 81.579 95.9585H41.5318C40.9026 95.9585 40.3081 95.8486 39.7553 95.6413C38.6007 95.7512 37.959 95.8213 37.959 95.8213C37.959 95.8213 38.3526 96.9812 39.2445 98.7378C39.8244 98.8822 40.4263 98.9587 41.0555 98.9587H82.0553C84.7508 98.9587 87.101 97.5004 88.3655 95.323C87.3145 95.0875 86.1599 94.8802 84.9162 94.7148Z" fill="#DD876B"/>
<path fill-rule="evenodd" clip-rule="evenodd" d="M22.65 77.2172L22.1549 80.9858C22.0617 81.6746 21.4577 82.1771 20.7657 82.1415L18.5234 82.0337C19.0018 79.5004 19.8037 75.2398 20.5155 71.3613C22.0826 72.7955 22.9484 74.9456 22.65 77.2172Z" fill="white"/>
<path fill-rule="evenodd" clip-rule="evenodd" d="M92.8981 98.7396C92.2365 98.2811 91.3331 98.4497 90.8651 99.1071C74.5232 120.597 59.0135 106.621 71.2676 83.4393C75.3628 75.2751 82.5157 68.6519 83.2621 59.13C84.5224 48.9622 80.9957 42.4154 81.5673 35.8875C82.1755 28.8779 86.1345 25.9144 89.0908 24.5619C90.9489 23.7119 92.695 24.9429 92.8373 26.9413C93.7156 39.1399 96.4039 52.3686 100.626 65.4675C102.625 71.6081 95.7496 89.8082 94.6902 100.006C94.5353 101.489 93.7596 99.261 92.8981 98.7396Z" fill="#F39E7C"/>
<path fill-rule="evenodd" clip-rule="evenodd" d="M94.1272 37.4535C93.6624 34.179 93.3086 30.9517 93.0814 27.7945C93.0332 27.1287 92.7956 26.5603 92.447 26.1133C91.2568 26.3509 89.3882 27.0669 89.6593 29.2098C89.897 31.0815 90.3733 32.9783 90.3733 32.9783C90.7784 35.1034 92.2544 36.7333 94.1272 37.4535Z" fill="white"/>
<path fill-rule="evenodd" clip-rule="evenodd" d="M82.2102 43.4253L82.1735 43.1489C82.1735 43.1489 82.184 43.2557 82.2102 43.4253Z" fill="#DD876B"/>
<path fill-rule="evenodd" clip-rule="evenodd" d="M82.209 43.4258L82.2498 43.7356C82.6769 46.1088 83.1647 48.6473 83.3971 51.4758C83.3908 49.5874 83.753 47.9952 86.1754 47.5796C83.104 47.8078 82.3608 44.4182 82.209 43.4258Z" fill="#DD876B"/>
<path fill-rule="evenodd" clip-rule="evenodd" d="M66.8494 98.8557L67.5812 105.443C67.5812 105.443 64.7757 99.4649 65.2635 97.1473C65.7513 94.8286 66.8494 98.8557 66.8494 98.8557Z" fill="#DD876B"/>
<path d="M67.6741 55.8194V60.3267C67.6744 60.9963 67.1566 61.552 66.4886 61.5989C65.9316 61.6371 65.4765 61.6575 65.1247 61.6575C53.8602 61.6575 44.7295 52.5268 44.7295 41.2623C44.7295 40.9105 44.7486 40.4554 44.7881 39.8984C44.835 39.2304 45.3907 38.7126 46.0603 38.7129H50.5676C50.8952 38.7126 51.1697 38.9606 51.2024 39.2865C51.2317 39.5797 51.2585 39.813 51.284 39.9901C51.5373 41.7581 52.0565 43.4775 52.8238 45.0902C52.9449 45.3452 52.8659 45.6498 52.6365 45.813L49.8857 47.7786C51.5676 51.6976 54.6907 54.8207 58.6097 56.5026L60.5728 53.7569C60.7383 53.5254 61.0458 53.4455 61.3032 53.567C62.9157 54.3329 64.6347 54.8508 66.402 55.103C66.5791 55.1285 66.8124 55.1565 67.103 55.1846C67.4285 55.2179 67.6758 55.4923 67.6754 55.8194H67.6741Z" fill="#242C33"/>
<path fill-rule="evenodd" clip-rule="evenodd" d="M69.631 35.4436C65.9909 32.0491 61.3509 30.4167 56.7906 30.5226L56.7908 30.5251L56.9592 34.0821C60.6061 33.9987 64.3166 35.3037 67.229 38.0195C70.1414 40.7354 71.7033 44.347 71.8733 47.9922L75.4358 47.9095C75.2234 43.3555 73.2712 38.8381 69.631 35.4436ZM64.4153 41.0365C62.2319 39.0005 59.5186 37.9451 56.8973 37.8854L57.2128 41.2875C58.9587 41.3264 60.7671 42.0304 62.2227 43.3877C63.6796 44.7463 64.5069 46.5025 64.6665 48.2425L68.0833 48.3188C67.8409 45.708 66.5999 43.0738 64.4153 41.0365Z" fill="#62A744"/>
</svg>
