<svg width="40" height="40" viewBox="0 0 40 40" fill="none" xmlns="http://www.w3.org/2000/svg">
<path fill-rule="evenodd" clip-rule="evenodd" d="M25.272 25.103C25.272 27.865 23.034 30.103 20.272 30.103C17.511 30.103 15.272 27.865 15.272 25.103C15.272 22.341 17.511 20.103 20.272 20.103C23.034 20.103 25.272 22.341 25.272 25.103ZM34.5 18C33.671 18 33 17.329 33 16.5C33 15.672 33.671 15 34.5 15C35.328 15 36 15.672 36 16.5C36 17.329 35.328 18 34.5 18ZM20.272 33.103C15.854 33.103 12.272 29.521 12.272 25.103C12.272 20.685 15.854 17.103 20.272 17.103C24.69 17.103 28.272 20.685 28.272 25.103C28.272 29.521 24.69 33.103 20.272 33.103ZM36 12H26V10H21V5H25C26.657 5 28 3.657 28 2H12C12 3.657 13.343 5 15 5H19V10H14V12H4C2.343 12 1 13.248 1 14.786V35.214C1 36.753 2.343 38 4 38H36C37.657 38 39 36.753 39 35.214V14.786C39 13.248 37.657 12 36 12Z" fill="#313D47"/>
</svg>
