<svg width="120" height="132" viewBox="0 0 120 132" fill="none" xmlns="http://www.w3.org/2000/svg">
<path fill-rule="evenodd" clip-rule="evenodd" d="M120 72C120 105.137 93.137 132 60 132C26.863 132 0 105.137 0 72C0 38.863 26.863 12 60 12C93.137 12 120 38.863 120 72Z" fill="#E6F1F5"/>
<path fill-rule="evenodd" clip-rule="evenodd" d="M120 72C120 105.137 93.137 132 60 132C26.863 132 0 105.137 0 72C0 38.863 26.863 12 60 12C93.137 12 120 38.863 120 72Z" fill="#E6F1F5"/>
<path fill-rule="evenodd" clip-rule="evenodd" d="M31.6108 76.0504C34.344 69.6878 34.2886 62.0073 39.3855 51.716C39.8105 50.8398 40.2785 49.9511 40.7925 49.0351L37.6918 50.0777L30.0824 52.6257C29.4868 52.8256 28.9152 53.0706 28.3667 53.3522V80.9255C29.5768 79.7499 30.7011 78.1734 31.6108 76.0504Z" fill="#DD876B"/>
<path fill-rule="evenodd" clip-rule="evenodd" d="M28.3708 53.3505V80.9248C25.6627 83.5555 22.5264 84.1449 20.3961 84.1836C19.0813 84.2087 18.0732 83.0352 18.3161 81.7435C18.3182 81.7298 18.3213 81.7162 18.3244 81.7026C18.8028 79.1693 19.6047 74.9098 20.3176 71.0313C21.0053 67.2586 21.6135 63.848 21.7549 62.7363C22.2699 58.6736 24.7906 55.1908 28.3708 53.3505Z" fill="#F39E7C"/>
<path fill-rule="evenodd" clip-rule="evenodd" d="M28.1864 38.357C26.3063 39.0783 23.529 40.0403 21.0251 40.8851C17.4146 42.1036 16.9048 47.031 20.2075 48.9299C22.1629 50.0532 24.8135 50.7493 28.3643 50.295L28.3675 50.2918V38.2869C28.3088 38.3099 28.246 38.335 28.1864 38.357Z" fill="#F39E7C"/>
<path fill-rule="evenodd" clip-rule="evenodd" d="M42.078 42.9262C39.732 39.8883 37.3924 37.5455 35.1721 35.5272C35.1197 35.5503 35.0632 35.5754 35.0109 35.5984C32.6775 36.596 30.4475 37.4913 28.3675 38.2869V50.2918C32.8615 49.7161 37.2364 47.7792 43.0829 46.388C43.5006 46.2896 43.9319 46.1964 44.3653 46.1033C43.6074 44.9633 42.8463 43.907 42.0853 42.9262H42.078Z" fill="#DD876B"/>
<path fill-rule="evenodd" clip-rule="evenodd" d="M88.1673 95.3225C87.1163 95.087 85.9627 94.8797 84.718 94.7143C70.8392 92.807 46.3583 94.9697 39.5571 95.6407C38.4024 95.7507 37.7607 95.8208 37.7607 95.8208C37.7607 95.8208 38.1543 96.9807 39.0462 98.7372C41.0017 102.586 45.3355 109.311 53.1323 113.044C59.2227 115.963 60.6659 124.91 64 131.869C81.3804 130.5 91.5 125 100.427 116.336C98.0334 109.736 94.2263 106.831 94.4911 99.7589C94.5675 97.6308 92.1075 96.2207 88.1673 95.3225Z" fill="#F39E7C"/>
<path fill-rule="evenodd" clip-rule="evenodd" d="M35.1721 35.5272C38.971 33.8994 43.0205 32.0142 47.0225 29.8839C47.5061 29.6285 47.9887 29.3647 48.4703 29.102C46.8624 28.0897 45.2994 27.0649 43.7962 26.0452C40.93 24.1097 38.2826 22.1888 35.9346 20.4186C35.5818 20.1558 35.2437 19.8931 34.9066 19.6387C33.1228 18.281 30.4325 16.0774 28.3682 14.3669V29.4945C29.6746 30.7539 31.115 31.9755 32.6476 33.3008C33.4662 34.0053 34.3106 34.7442 35.1721 35.5272Z" fill="#DD876B"/>
<path fill-rule="evenodd" clip-rule="evenodd" d="M28.3167 14.3247C26.5842 12.8884 23.9755 13.7133 23.3349 15.8698C22.5131 18.6417 22.4702 22.6123 26.0074 26.9608C26.7276 27.8464 27.5201 28.6776 28.367 29.4952V14.3665C28.3502 14.3519 28.3335 14.3383 28.3167 14.3247Z" fill="#F39E7C"/>
<path fill-rule="evenodd" clip-rule="evenodd" d="M83.8267 27.3368V7.85547C83.8267 5.18713 81.6639 3.02335 78.9945 3.02335H38.3873C35.7179 3.02335 33.5552 5.18713 33.5552 7.85547V87.9677C33.5552 89.3201 34.0786 90.5481 34.9359 91.4619C35.8697 92.4606 37.195 93.0814 38.6679 93.0814H78.7129C80.2915 93.0814 81.71 92.3653 82.6438 91.2369C83.2959 90.4559 83.7178 89.474 83.8068 88.3989C83.8152 88.3257 83.8193 88.2493 83.8235 88.1728C83.8277 88.1247 83.8277 88.0723 83.8277 88.02V27.3379L83.8267 27.3368Z" fill="#62A744"/>
<path fill-rule="evenodd" clip-rule="evenodd" d="M75.1846 45.7012C75.6837 54.858 68.6652 62.6865 59.5084 63.1846C50.3516 63.6837 42.5232 56.6652 42.0251 47.5084C41.526 38.3516 48.5444 30.5232 57.7012 30.025C66.858 29.526 74.6855 36.5444 75.1846 45.7012Z" fill="#3E8500"/>
<path fill-rule="evenodd" clip-rule="evenodd" d="M72.5165 45.8463C72.9344 53.5308 67.0451 60.0991 59.3615 60.5179C51.678 60.9358 45.1088 55.0474 44.69 47.3638C44.2711 39.6793 50.1614 33.1102 57.8449 32.6923C65.5294 32.2734 72.0977 38.1627 72.5165 45.8463Z" fill="#62A744"/>
<path fill-rule="evenodd" clip-rule="evenodd" d="M54.7833 55.7727L55.4558 53.5458C54.4632 53.1971 53.5342 52.71 52.8008 52.198C52.1882 51.7709 52.0139 50.9425 52.4004 50.3032L52.4465 50.2266C52.8727 49.5237 53.8091 49.3253 54.4761 49.805C55.1578 50.2939 55.9696 50.7349 56.8866 51.0117C58.2233 51.4148 59.2934 51.1759 59.5757 50.2377C59.8451 49.3475 59.2648 48.5578 57.7076 47.448C55.4548 45.8465 54.0978 44.1574 54.7842 41.8844C55.4078 39.8216 57.3497 38.6436 60.0056 38.9084L60.679 36.6823L62.9761 37.3761L62.3524 39.4379C63.1928 39.734 63.8598 40.0596 64.3986 40.3936C65.0563 40.8004 65.2593 41.6657 64.8589 42.3272C64.4438 43.0117 63.5434 43.2183 62.8746 42.7801C62.3727 42.4508 61.7307 42.115 60.9032 41.8659C59.3792 41.4047 58.6892 41.913 58.4908 42.5689C58.2574 43.3419 58.929 44.0827 60.6947 45.4342C63.1864 47.2617 63.9216 48.8908 63.2851 51.0006C62.6541 53.0864 60.6403 54.4222 57.8026 54.0753L57.0803 56.4664L54.7833 55.7727Z" fill="white"/>
<path fill-rule="evenodd" clip-rule="evenodd" d="M83.8264 87.8472C83.8264 89.0908 83.3825 90.2287 82.6456 91.1143C81.7086 92.2438 80.2944 92.9619 78.7116 92.9619H38.6676C35.8432 92.9619 33.5538 90.6725 33.5538 87.8482V7.83026C33.5538 5.16191 35.7176 2.99813 38.386 2.99813H78.9942C81.6636 2.99813 83.8264 5.16191 83.8264 7.83026V87.8472ZM79.1912 0H38.1872C34.1559 0 30.8877 3.26818 30.8877 7.29948V88.6605C30.8877 92.6918 34.1559 95.96 38.1872 95.96H79.1912C83.2225 95.96 86.4907 92.6918 86.4907 88.6605V7.29948C86.4907 3.26818 83.2225 0 79.1912 0Z" fill="#42144A"/>
<path fill-rule="evenodd" clip-rule="evenodd" d="M84.718 94.7143C83.8198 95.4879 82.6512 95.9578 81.3804 95.9578H41.3332C40.7041 95.9578 40.1098 95.848 39.5571 95.6407C38.4024 95.7507 37.7607 95.8208 37.7607 95.8208C37.7607 95.8208 38.1543 96.9807 39.0462 98.7372C39.6262 98.8817 40.2278 98.9579 40.8569 98.9579H81.8567C84.5523 98.9579 86.9027 97.4999 88.1673 95.3225C87.1163 95.087 85.9616 94.8797 84.718 94.7143Z" fill="#DD876B"/>
<path fill-rule="evenodd" clip-rule="evenodd" d="M22.4514 77.2174L21.9562 80.986C21.863 81.6748 21.259 82.1773 20.5671 82.1417L18.3248 82.0339C18.8032 79.5005 19.6051 75.24 20.3169 71.3615C21.884 72.7957 22.7497 74.9458 22.4514 77.2174Z" fill="white"/>
<path fill-rule="evenodd" clip-rule="evenodd" d="M92.6998 98.7399C92.0382 98.2814 91.1348 98.4499 90.6669 99.1073C74.325 120.598 58.8153 106.621 71.0694 83.4396C75.1645 75.2754 82.3174 68.6522 83.0638 59.1303C84.3242 48.9625 80.7975 42.4157 81.369 35.8877C81.9772 28.8782 85.9363 25.9147 88.8925 24.5622C90.7506 23.7121 92.4967 24.9432 92.6391 26.9416C93.5174 39.1402 96.2056 52.3689 100.427 65.4677C102.427 71.6084 95.5514 89.8084 94.492 100.007C94.337 101.489 93.5613 99.2612 92.6998 98.7399Z" fill="#F39E7C"/>
<path fill-rule="evenodd" clip-rule="evenodd" d="M93.9293 37.4538C93.4645 34.1794 93.1107 30.952 92.8836 27.7948C92.8354 27.129 92.5978 26.5606 92.2492 26.1136C91.0589 26.3513 89.1904 27.0673 89.4615 29.2101C89.6991 31.0818 90.1754 32.9787 90.1754 32.9787C90.5806 35.1037 92.0566 36.7336 93.9293 37.4538Z" fill="white"/>
<path fill-rule="evenodd" clip-rule="evenodd" d="M82.0123 43.4256L81.9756 43.1492C81.9756 43.1492 81.9861 43.256 82.0123 43.4256Z" fill="#DD876B"/>
<path fill-rule="evenodd" clip-rule="evenodd" d="M82.0103 43.4256L82.0511 43.7354C82.4782 46.1086 82.966 48.6471 83.1984 51.4756C83.1922 49.5871 83.5544 47.9949 85.9767 47.5793C82.9053 47.8075 82.1621 44.4179 82.0103 43.4256Z" fill="#DD876B"/>
<path fill-rule="evenodd" clip-rule="evenodd" d="M66.6511 98.8565L67.3829 105.444C67.3829 105.444 64.5774 99.4658 65.0652 97.1481C65.553 94.8294 66.6511 98.8565 66.6511 98.8565Z" fill="#DD876B"/>
</svg>
