<svg width="64" height="27" viewBox="0 0 64 27" fill="none" xmlns="http://www.w3.org/2000/svg">
<path fill-rule="evenodd" clip-rule="evenodd" d="M14.1338 17.9597C12.532 17.9597 11.2297 19.2612 11.2297 20.8638C11.2297 22.4671 12.5304 23.7694 14.1338 23.7694C15.7379 23.7694 17.0394 22.4679 17.0394 20.8638C17.0394 19.2604 15.7372 17.9597 14.1338 17.9597ZM52.3283 17.9597C50.7265 17.9597 49.425 19.2612 49.425 20.8638C49.425 22.4663 50.7258 23.7694 52.3283 23.7694C53.9333 23.7694 55.2348 22.4679 55.2348 20.8638C55.2348 19.2604 53.9317 17.9597 52.3283 17.9597ZM14.1339 19.24C13.2386 19.24 12.51 19.9686 12.51 20.8639C12.51 21.76 13.237 22.4894 14.1339 22.4894C15.0316 22.4894 15.7602 21.7616 15.7602 20.8639C15.7602 19.967 15.03 19.24 14.1339 19.24ZM52.3284 19.24C51.4339 19.24 50.7053 19.9686 50.7053 20.8639C50.7053 21.76 51.4323 22.4894 52.3284 22.4894C53.2261 22.4894 53.9547 21.7616 53.9547 20.8639C53.9547 19.967 53.2253 19.24 52.3284 19.24ZM0 18.9198V16.3595H5.11984L1.28016 15.0794V9.95953L15.3603 8.67937V3.55953H11.5206L10.2405 8.67937H2.56032L3.84047 2.27937L5.11984 1H37.1198L39.6802 3.55953H17.9206L20.4802 8.67937H40.9603L38.4 4.83968H39.6802L44.8 8.67937L60.1603 9.95953L61.4405 12.5198H58.8802L60.1603 13.7992H62.7206V16.3595H60.1603L61.4405 17.6397H64L62.7206 21.4794L60.1603 22.7595H58.8035C58.9789 22.1574 59.0753 21.522 59.0753 20.8638C59.0753 17.1411 56.0512 14.12 52.3284 14.12C48.6073 14.12 45.5847 17.1418 45.5847 20.8638C45.5847 21.522 45.6795 22.1582 45.8557 22.7595H20.6082C20.7852 22.1582 20.88 21.522 20.88 20.8638C20.88 17.1411 17.8566 14.12 14.1339 14.12C10.4127 14.12 7.39015 17.1418 7.39015 20.8638C7.39015 21.522 7.48418 22.1582 7.66119 22.7595H5.11984L0 18.9198ZM52.3286 15.3994C55.3464 15.3994 57.7945 17.8483 57.7945 20.8638C57.7945 22.543 57.0359 24.0468 55.8419 25.0496H60.1604V26.3298H52.3286H14.134H1.28027V25.0496H10.6231C9.42982 24.0468 8.66963 22.543 8.66963 20.8638C8.66963 17.8483 11.1193 15.3994 14.134 15.3994C17.1511 15.3994 19.6 17.8483 19.6 20.8638C19.6 22.543 18.8414 24.0468 17.6473 25.0496H48.8176C47.6244 24.0468 46.865 22.543 46.865 20.8638C46.865 17.8483 49.3139 15.3994 52.3286 15.3994Z" fill="#3E8500"/>
</svg>
