<svg width="24" height="24" viewBox="0 0 24 24" fill="none" xmlns="http://www.w3.org/2000/svg">
<path fill-rule="evenodd" clip-rule="evenodd" d="M10.989 16.6598L12.1464 13.4004H9.01816L11.1116 9.31523H12.6511L11.2688 12.0126H14.0909L10.989 16.6598ZM22.1053 6.87083H21.045C20.5509 6.87083 20.1503 7.29661 20.1503 7.82177V8.48005H19.6382L17.056 5.93546V5.91986H17.0402L17.0224 5.90232L17.0071 5.91986H13.4361H13.2923V5.09723H16.206V4H6.8001V5.09723H9.71385V5.91986H9.62389H5.99156C5.59851 5.91986 5.27989 6.34561 5.27989 6.8708V7.99544H3.59114C3.10545 7.99544 2.71179 8.56473 2.71179 9.26699V10.51H2.03227V7.41288H1V17.4107H2.03227V14.3136H2.71179V16.4067C2.71179 17.109 3.10545 17.6783 3.59114 17.6783H5.45762L7.68338 19.9669V19.9825H7.69857L7.71562 20L7.73029 19.9825H11.1527H14.8063H18.2875C18.6642 19.9825 18.9696 19.5567 18.9696 19.0315V17.4223H20.1503V18.5926C20.1503 19.1178 20.5509 19.5435 21.045 19.5435H22.1053C22.5995 19.5435 23 19.1178 23 18.5926V7.82177C23 7.29661 22.5995 6.87083 22.1053 6.87083Z" fill="#242C33"/>
</svg>
