<svg width="65" height="26" viewBox="0 0 65 26" fill="none" xmlns="http://www.w3.org/2000/svg">
<path fill-rule="evenodd" clip-rule="evenodd" d="M54.4316 19.9306C54.4316 20.8276 53.7036 21.5556 52.8056 21.5556C51.9096 21.5556 51.1826 20.8266 51.1826 19.9306C51.1826 19.0346 51.9106 18.3066 52.8056 18.3066C53.7026 18.3066 54.4316 19.0336 54.4316 19.9306V19.9306Z" fill="white"/>
<path fill-rule="evenodd" clip-rule="evenodd" d="M58.274 19.9318C58.274 16.9158 55.827 14.4668 52.809 14.4668C49.794 14.4668 47.346 16.9158 47.346 19.9318C47.346 21.6108 48.104 23.1148 49.298 24.1178H18.128C19.322 23.1148 20.08 21.6108 20.08 19.9318C20.08 16.9158 17.631 14.4668 14.614 14.4668C11.6 14.4668 9.14999 16.9158 9.14999 19.9318C9.14999 21.6108 9.90999 23.1148 11.103 24.1178H1.76099V25.3978H14.614H52.809H62.641V24.1178H56.322C57.517 23.1148 58.274 21.6108 58.274 19.9318ZM52.8056 22.8363C51.2026 22.8363 49.9016 21.5343 49.9016 19.9313C49.9016 18.3283 51.2036 17.0273 52.8056 17.0273C54.4086 17.0273 55.7126 18.3273 55.7126 19.9313C55.7126 21.5353 54.4106 22.8363 52.8056 22.8363ZM11.7063 19.9313C11.7063 21.5353 13.0073 22.8363 14.6103 22.8363C16.2153 22.8363 17.5163 21.5353 17.5163 19.9313C17.5163 18.3273 16.2143 17.0273 14.6103 17.0273C13.0093 17.0273 11.7063 18.3283 11.7063 19.9313Z" fill="#3E8500"/>
<path fill-rule="evenodd" clip-rule="evenodd" d="M16.2373 19.9306C16.2373 20.8276 15.5083 21.5556 14.6103 21.5556C13.7133 21.5556 12.9863 20.8266 12.9863 19.9306C12.9863 19.0346 13.7153 18.3066 14.6103 18.3066C15.5073 18.3066 16.2373 19.0336 16.2373 19.9306V19.9306Z" fill="#3E8500"/>
<path fill-rule="evenodd" clip-rule="evenodd" d="M54.4368 19.9306C54.4368 20.8276 53.7078 21.5556 52.8098 21.5556C51.9128 21.5556 51.1858 20.8266 51.1858 19.9306C51.1858 19.0346 51.9148 18.3066 52.8098 18.3066C53.7068 18.3066 54.4368 19.0336 54.4368 19.9306V19.9306Z" fill="#3E8500"/>
<path fill-rule="evenodd" clip-rule="evenodd" d="M37.2189 0.960379H37.2469C39.2029 0.960379 40.2174 1.21273 41.9473 2.08952C43.4736 2.86314 44.2987 3.47131 46.4518 5.05831L46.4519 5.05834L46.4519 5.05836L46.4521 5.05853L46.4531 5.05923L46.4531 5.05927L46.4539 5.05987C47.3933 5.75226 48.5854 6.63087 50.1985 7.79063C50.5896 7.88638 53.1286 8.26044 55.6226 8.62786L55.6227 8.62788L55.623 8.62791C57.8643 8.95811 60.0692 9.28294 60.646 9.3956C60.9417 9.45336 61.9454 9.75186 62.0765 10.0129C62.4015 10.6601 62.7061 11.3263 62.9356 12.0211L55.0832 10.8048L61.0806 14.5783L64.1504 15.0563C64.3136 17.0571 64.3093 18.2908 63.3154 20.168H62.4092H59.8154H59.3895C59.3922 20.0899 59.3936 20.0114 59.3936 19.9326C59.3936 16.2969 56.4463 13.3496 52.8106 13.3496C49.1749 13.3496 46.2276 16.2969 46.2276 19.9326C46.2276 20.0114 46.229 20.0899 46.2317 20.168H43.3156H27.3157H21.1922C21.1949 20.0899 21.1963 20.0114 21.1963 19.9326C21.1963 16.2969 18.249 13.3496 14.6133 13.3496C10.9776 13.3496 8.03032 16.2969 8.03032 19.9326C8.03032 20.0114 8.0317 20.0899 8.03445 20.168H1.83098C1.50764 20.168 1.1997 20.0203 1.03455 19.7534C0.189097 18.3867 -0.119465 16.6789 0.0407225 15.0957L7.95912 15.0957L5.16295 14.4676H0.850954C0.770211 14.1726 0.69427 13.8798 0.626947 13.5859H4.51574L2.32132 10.31H0.402192C0.664725 8.10077 1.85625 5.38041 5.02146 1.28655C5.20556 1.0768 5.47886 0.960379 5.76451 0.960379H6.81525C7.27135 0.377215 7.99752 0 8.81543 0H35.2187C36.0366 0 36.6017 0.424016 37.2189 0.960379ZM14.3435 1.98521H22.6943L20.4674 8.80726H16.2414H12.0155H3.56348L4.77805 5.39623L5.38533 3.69072L6.7089 2.77364L8.08033 1.98521H10.168H14.3435ZM24.1134 1.98518H33.8146L32.2977 8.80722H25.2917V11.7598L24.117 8.80722H24.1134V8.79829L24.112 8.79472V7.55859L24.1134 7.55933V1.98518ZM37.6723 2.19333L35.7441 1.98322V8.80527H42.1386H48.5331L42.7704 4.27375C41.2992 3.11687 39.5329 2.39607 37.6723 2.19333Z" fill="#3E8500"/>
</svg>
