<svg width="32" height="32" viewBox="0 0 32 32" fill="none" xmlns="http://www.w3.org/2000/svg">
<path fill-rule="evenodd" clip-rule="evenodd" d="M7.85192 21.334H2.66659C1.93021 21.334 1.33325 20.7371 1.33325 20.0007V12.0007C1.33325 11.2643 1.93021 10.6674 2.66659 10.6674H7.85192L14.9106 4.89135C15.1099 4.72791 15.3857 4.69406 15.6186 4.80442C15.8516 4.91477 16.0001 5.14956 15.9999 5.40735V26.594C16.0001 26.8518 15.8516 27.0866 15.6186 27.197C15.3857 27.3073 15.1099 27.2735 14.9106 27.11L7.85325 21.334H7.85192ZM25.8746 26.846L23.9866 24.958C26.5432 22.6832 28.004 19.4229 27.9999 16.0007C28.0033 12.3989 26.3854 8.98689 23.5946 6.71002L25.4879 4.81669C28.7763 7.60061 30.6709 11.6921 30.6666 16.0007C30.6666 20.298 28.8186 24.1634 25.8746 26.846ZM19.2547 20.226L21.1507 22.122C22.8934 20.654 24.0001 18.4567 24.0001 16.0007C24.0022 13.4579 22.7937 11.066 20.7454 9.55933L18.8267 11.478C20.3334 12.4207 21.3334 14.094 21.3334 16.0007C21.3349 17.6556 20.5667 19.2172 19.2547 20.226Z" fill="#242C33"/>
</svg>
