<svg width="32" height="32" viewBox="0 0 32 32" fill="none" xmlns="http://www.w3.org/2000/svg">
<svg x="1" y="8" width="30" height="16" viewBox="0 0 22.5 12" overflow="visible">
<path d="M11.25 0C4.95 0 0 2.775 0 2.775L5.4 12C5.4 12 7.65 10.6125 11.25 10.6125C14.85 10.6125 17.1 12 17.1 12L22.5 2.775C22.5 2.775 17.55 0 11.25 0ZM16.2 10.1625C16.2 10.1625 14.2875 9.225 11.25 9.225C8.2125 9.225 6.3 10.1625 6.3 10.1625L2.25 3.675C2.25 3.675 5.9625 1.35 11.25 1.35C16.5375 1.35 20.25 3.675 20.25 3.675L16.2 10.1625Z" fill="#242C33"/>
<path d="M7.80016 6.97507V7.68757L8.36266 8.21257V6.82507L8.13766 6.63757L7.80016 6.97507Z" fill="#242C33"/>
<path d="M6.375 6.52507L6.6375 6.78757H7.8L8.0625 6.52507L7.8 6.26257H6.6375L6.375 6.52507Z" fill="#242C33"/>
<path d="M7.80016 6.07493L8.13766 6.41243L8.36266 6.22493V4.79993L7.80016 5.36243V6.07493Z" fill="#242C33"/>
<path d="M6.7125 7.79993L6.1875 8.32493H8.25L7.725 7.79993H6.7125Z" fill="#242C33"/>
<path d="M7.725 5.24985L8.25 4.72485H6.1875L6.7125 5.24985H7.725Z" fill="#242C33"/>
<path d="M10.7249 6.07493L11.0624 6.41243L11.2499 6.22493V4.79993L10.7249 5.36243V6.07493Z" fill="#242C33"/>
<path d="M9.59984 7.79993L9.07484 8.32493H11.1373L10.6123 7.79993H9.59984Z" fill="#242C33"/>
<path d="M10.7249 6.97507V7.68757L11.2499 8.21257V6.82507L11.0624 6.63757L10.7249 6.97507Z" fill="#242C33"/>
<path d="M9.48758 6.97507L9.15008 6.63757L8.96258 6.82507V8.21257L9.48758 7.68757V6.97507Z" fill="#242C33"/>
<path d="M10.6123 5.24985L11.1373 4.72485H9.07484L9.59984 5.24985H10.6123Z" fill="#242C33"/>
<path d="M9.48758 6.07493V5.32493L8.96258 4.79993V6.22493L9.15008 6.41243L9.48758 6.07493Z" fill="#242C33"/>
<path d="M10.3125 7.80011C10.35 7.80011 10.3125 7.76261 10.3125 7.80011Z" fill="#242C33"/>
</svg>
</svg>
