<svg width="32" height="32" viewBox="0 0 32 32" fill="none" xmlns="http://www.w3.org/2000/svg">
<svg x="3.08" y="10" width="25.85" height="12" viewBox="0 0 25.8462 12" overflow="visible">
<path d="M14.5 0H2.5C1 0 0 1 0 2.5V9.5C0 11 1 12 2.5 12H14.5C16 12 17 11 17 9.5V2.5C17 1 16 0 14.5 0ZM13 9.5C13 10.5 12.5 11 11.5 11H2.5C1.5 11 1 10.5 1 9.5V2.5C1 1.5 1.5 1 2.5 1H11.5C12.5 1 13 1.5 13 2.5V9.5ZM15 3C14.45 3 14 2.55 14 2C14 1.45 14.45 1 15 1C15.55 1 16 1.45 16 2C16 2.55 15.55 3 15 3Z" fill="#242C33"/>
<path d="M1.5 2.5V9.5C1.5 10.05 1.95 10.5 2.5 10.5H5V1.5H2.5C1.95 1.5 1.5 1.95 1.5 2.5Z" fill="#242C33"/>
<path d="M8.5 1.5H5.5V10.5H8.5V1.5Z" fill="#242C33"/>
<path d="M11.5 1.5H9V10.5H11.5C12.05 10.5 12.5 10.05 12.5 9.5V2.5C12.5 1.95 12.05 1.5 11.5 1.5Z" fill="#242C33"/>
<path d="M23.555 0.459961L22.905 1.11496C25.6 3.80996 25.6 8.18996 22.905 10.885L23.555 11.535C26.61 8.47996 26.61 3.51496 23.555 0.459961Z" fill="#242C33"/>
<path d="M21.925 2.08984L21.275 2.73984C23.07 4.53484 23.07 7.45984 21.275 9.25484L21.925 9.90484C24.08 7.74984 24.08 4.24484 21.925 2.08984Z" fill="#242C33"/>
<path d="M19.65 4.36973C20.085 4.80473 20.325 5.38473 20.325 5.99973C20.325 6.61473 20.085 7.19473 19.65 7.62973L20.3 8.27973C20.91 7.66973 21.245 6.85973 21.245 5.99973C21.245 5.13473 20.91 4.32973 20.3 3.71973L19.65 4.36973Z" fill="#242C33"/>
</svg>
</svg>
