<svg width="121" height="134" viewBox="0 0 121 134" fill="none" xmlns="http://www.w3.org/2000/svg">
<path fill-rule="evenodd" clip-rule="evenodd" d="M120.198 73.022C120.198 83.3251 117.598 92.9279 113.098 101.33C112.698 102.031 112.298 102.731 111.898 103.431C111.198 104.631 110.398 105.932 109.598 107.032C98.7982 122.737 80.6982 133.04 60.1982 133.04C39.6982 133.04 21.5982 122.737 10.7982 107.032C9.99824 105.832 9.19824 104.631 8.49824 103.431C8.09824 102.731 7.69824 102.031 7.29824 101.33C2.79824 92.9279 0.198242 83.225 0.198242 73.022C0.198242 39.912 27.0982 13.0039 60.1982 13.0039C93.2982 13.0039 120.198 39.812 120.198 73.022Z" fill="#E6F1F5"/>
<path d="M111.898 103.432C101.498 121.137 82.198 133.041 60.198 133.041C38.198 133.041 18.898 121.137 8.49805 103.432H111.898Z" fill="#D4D7D9"/>
<path fill-rule="evenodd" clip-rule="evenodd" d="M98.5288 105.245C98.5288 108.323 81.4868 110.819 60.4635 110.819C39.4403 110.819 22.3982 108.323 22.3982 105.245C22.3982 102.166 39.4403 99.6699 60.4635 99.6699C81.4868 99.6699 98.5288 102.166 98.5288 105.245Z" fill="#A2A6AB"/>
<path fill-rule="evenodd" clip-rule="evenodd" d="M86.773 85.7345H34.1533C29.2071 85.7345 25.1968 94.005 25.1968 89.0793V9.91942C25.1968 4.99367 29.2071 1 34.1533 1H86.773C91.7193 1 95.7296 4.99367 95.7296 9.91942V89.0793C95.7296 94.005 91.7193 85.7345 86.773 85.7345Z" fill="#C2C2C2"/>
<path fill-rule="evenodd" clip-rule="evenodd" d="M87.3323 86.8503H33.593C28.6468 86.8503 24.6365 95.1209 24.6365 90.1951V13.2651C24.6365 8.33937 28.6468 4.3457 33.593 4.3457H87.3323C92.2785 4.3457 96.2888 8.33937 96.2888 13.2651V90.1951C96.2888 95.1209 92.2785 86.8503 87.3323 86.8503Z" fill="#CCCCCC"/>
<path fill-rule="evenodd" clip-rule="evenodd" d="M87.3323 91.3093H33.593C28.6468 91.3093 24.6365 99.5799 24.6365 94.6541V17.7241C24.6365 12.7984 28.6468 8.80469 33.593 8.80469H87.3323C92.2785 8.80469 96.2888 12.7984 96.2888 17.7241V94.6541C96.2888 99.5799 92.2785 91.3093 87.3323 91.3093Z" fill="#E6E6E6"/>
<path fill-rule="evenodd" clip-rule="evenodd" d="M88.452 103.573H32.4736C27.5274 103.573 23.5171 99.5791 23.5171 94.6534V22.1831C23.5171 17.2573 27.5274 13.2637 32.4736 13.2637H88.452C93.3983 13.2637 97.4086 17.2573 97.4086 22.1831V94.6534C97.4086 99.5791 93.3983 103.573 88.452 103.573Z" fill="white"/>
<path fill-rule="evenodd" clip-rule="evenodd" d="M73.8259 70.7092L75.7415 81.8328L60.4627 73.8332L45.184 81.8328L47.197 70.1506L48.1016 64.8904L35.7427 52.8915L46.1211 51.3897L52.8239 50.4197L60.4627 35.0059L68.1016 50.4197L74.5133 51.3474L85.1828 52.8915L72.8239 64.8904L73.8259 70.7092Z" fill="#E6A92E"/>
<path fill-rule="evenodd" clip-rule="evenodd" d="M72.8227 64.8915L73.8247 70.7103C73.0444 70.7794 72.2539 70.8151 71.4557 70.8151C59.3005 70.8151 49.0778 62.5713 46.1199 51.3908L52.8227 50.4208L60.4615 35.0059L68.1015 50.4208L74.5132 51.3485L85.1827 52.8926L72.8227 64.8915Z" fill="#FACD46"/>
</svg>
