<svg width="120" height="132" viewBox="0 0 120 132" fill="none" xmlns="http://www.w3.org/2000/svg">
<path fill-rule="evenodd" clip-rule="evenodd" d="M120 72C120 82.3 117.4 91.9 112.9 100.3C112.5 101 112.1 101.7 111.7 102.4C111 103.6 110.2 104.9 109.4 106C98.6 121.7 80.5 132 60 132C39.5 132 21.4 121.7 10.6 106C9.8 104.8 9 103.6 8.3 102.4C7.9 101.7 7.5 101 7.1 100.3C2.6 91.9 0 82.2 0 72C0 38.9 26.9 12 60 12C93.1 12 120 38.8 120 72Z" fill="#E6F1F5"/>
<path d="M111.7 102.4C101.3 120.1 81.9998 132 59.9998 132C37.9998 132 18.6998 120.1 8.2998 102.4H111.7Z" fill="#D4D7D9"/>
<path fill-rule="evenodd" clip-rule="evenodd" d="M112.9 100.301C112.5 101.001 112.1 101.701 111.7 102.401C111 103.601 110.2 104.901 109.4 106.001H10.6001C9.8001 104.801 9.0001 103.601 8.3001 102.401C7.9001 101.701 7.5001 101.001 7.1001 100.301H112.9Z" fill="#666B70"/>
<path d="M105.9 92.3359L103.3 92.6359L87.8998 93.2359L84.6998 93.5359L38.5998 93.3359L17.3999 92.3359L15.0999 84.8359L22.3999 77.8359H98.7998L106.6 82.7359L105.9 92.3359Z" fill="black"/>
<path d="M7.19458 83.2364C7.19458 83.2364 8.59458 82.6364 8.29458 80.8364C7.99458 79.0364 8.49458 77.4364 8.49458 77.4364C8.49458 77.4364 8.69458 75.5364 8.09458 73.1364C7.49458 70.7364 9.09458 70.1364 9.09458 70.1364C9.59458 69.3364 15.6946 64.4364 15.6946 64.4364C15.6946 64.4364 11.9946 63.2364 14.4946 62.5364C16.9946 61.8364 26.7946 60.5364 26.7946 60.5364C41.9946 59.3364 52.3946 58.7364 61.4946 60.5364C70.5946 62.3364 82.0946 71.4364 82.8946 71.7364C83.6946 72.0364 85.2946 72.3364 85.2946 72.3364C103.995 73.8364 107.895 76.0364 110.395 77.0364C112.895 78.0364 113.195 80.5364 113.195 80.5364L113.295 84.3364C113.895 84.6364 113.895 85.7364 113.895 85.7364C113.895 85.7364 113.495 89.6364 113.195 91.6364C112.895 93.6364 106.395 92.8364 106.395 92.8364L105.195 92.9364C105.195 92.9364 105.295 90.4364 105.095 89.0364C105.095 89.0364 105.595 81.5364 95.3946 80.3364C85.1946 79.2364 85.1946 90.2364 85.1946 90.2364C85.1946 90.2364 85.4946 93.7364 84.7946 94.3364H39.0946C37.4946 94.3364 37.6946 92.8364 37.6946 92.8364C37.6946 88.9364 37.1946 87.3364 36.3946 85.6364C34.7946 82.2364 29.5946 79.9364 24.4946 81.1364C16.2946 83.1364 18.0946 91.4364 18.1946 92.1364C18.2946 92.7364 17.7946 93.0364 17.7946 93.0364H17.4946C17.4946 93.0364 10.9946 92.0364 9.09458 91.2364C7.19458 90.4364 6.89458 90.0364 6.19458 86.9364C5.49458 83.7364 7.19458 83.2364 7.19458 83.2364Z" fill="#62A744"/>
<path d="M6.19979 86.8366C5.89979 85.3366 6.09979 84.4366 6.39979 83.9366C6.39979 83.9366 5.59979 86.8366 16.8998 87.2366C16.8998 87.2366 18.3998 79.4366 26.0998 79.6366C26.0998 79.6366 33.2998 79.3366 35.9998 83.0366C38.6998 86.7366 38.3998 89.3366 38.3998 89.3366C38.3998 89.3366 80.2998 90.3366 83.9998 90.4366C83.9998 90.4366 84.2998 79.8366 93.4998 79.3366C93.4998 79.3366 98.8998 78.5366 103.3 82.2366C103.3 82.2366 106.9 85.6366 106.2 90.4366C106.2 90.4366 108.7 89.8366 109.5 91.2366C110.3 92.6366 113.1 92.1366 113.1 92.1366C112.1 93.6366 106.4 93.0366 106.4 93.0366L105.2 93.1366C105.2 93.1366 105.3 90.6366 105.1 89.2366C105.1 89.2366 105.6 81.7366 95.3998 80.5366C85.1998 79.4366 85.1998 90.4366 85.1998 90.4366C85.1998 90.4366 85.4998 93.9366 84.7998 94.5366H39.0998C37.4998 94.5366 37.6998 93.0366 37.6998 93.0366C37.6998 89.1366 37.1998 87.5366 36.3998 85.8366C34.7998 82.4366 29.5998 80.1366 24.4998 81.3366C16.2998 83.3366 18.0998 91.6366 18.1998 92.3366C18.2998 92.9366 17.7998 93.2366 17.7998 93.2366H17.4998C17.4998 93.2366 10.9998 92.2366 9.09979 91.4366C7.09979 90.3366 6.79979 89.9366 6.19979 86.8366Z" fill="#222222"/>
<path d="M39.6001 93.5364C40.9001 93.1364 45.2001 91.8364 46.6001 91.8364C48.3001 91.7364 75.7001 92.1364 75.7001 92.1364C75.7001 92.1364 79.4001 92.1364 81.5001 93.3364V93.5364" fill="#343434"/>
<path d="M113.2 87.1367L112.6 91.0367C112.6 91.0367 111.1 91.4367 110.1 90.3367C109.1 89.2367 110.7 87.6367 110.7 87.6367C110.7 87.6367 112.5 87.7367 113.2 87.1367Z" fill="#222222"/>
<path opacity="0.12" d="M6 85.1363C6.1 83.4363 7.2 83.2363 7.2 83.2363C7.2 83.2363 7.6 83.0363 7.9 82.7363C11.5 84.2363 16.5 83.9363 16.5 83.9363C15.8 85.4363 15.1 88.1363 15.1 88.1363C9.8 87.9363 7.2 86.3363 6 85.1363Z" fill="#343434"/>
<path opacity="0.12" d="M85.7 81.5375C73.3 79.1375 38.5 77.4375 31.4 77.4375L32.6 79.8375C32.6 79.8375 37 80.9375 38.6 85.9375C38.6 85.9375 51.4 83.5375 78.7 84.8375C78.7 84.8375 75.1 87.6375 72.3 88.3375C72.3 88.3375 76.8 90.1375 82.9 90.2375C82.9 90.3375 83.2 84.5375 85.7 81.5375Z" fill="#343434"/>
<path opacity="0.12" d="M73.3997 88.0371C73.3997 88.0371 44.3997 86.9371 42.0997 85.5371C42.0997 85.5371 39.2997 85.8371 38.5997 86.0371L39.6997 89.3371C39.6997 89.3371 80.2997 90.3371 82.1997 90.3371C82.0997 90.2371 73.2997 88.8371 73.3997 88.0371Z" fill="#343434"/>
<path opacity="0.12" d="M102.4 76.4372C102.4 76.4372 101 77.3372 100.7 77.8372C100.4 78.3372 99.4999 76.1372 87.0999 75.5372C87.0999 75.4372 94.9999 74.4372 102.4 76.4372Z" fill="#343434"/>
<path opacity="0.12" d="M8.1997 82.1375C8.2997 81.8375 8.3997 81.4375 8.2997 80.8375C7.9997 79.3375 8.2997 77.9375 8.3997 77.5375V77.4375C10.1997 78.0375 11.8997 77.4375 11.8997 77.4375C12.3997 79.8375 10.4997 82.6375 10.4997 82.6375C9.4997 82.8375 8.1997 82.1375 8.1997 82.1375Z" fill="#343434"/>
<path opacity="0.12" d="M28.1002 78.6379C28.1002 78.6379 21.4002 77.0379 17.0002 83.2379C17.0002 83.2379 13.0002 83.4379 11.6002 83.1379C11.6002 83.1379 13.4002 79.2379 13.0002 77.5379C13.0002 77.5379 18.7002 78.4379 26.2002 77.5379C26.3002 77.4379 27.1002 78.2379 28.1002 78.6379Z" fill="#343434"/>
<path opacity="0.12" d="M109.1 82.4371C110.4 82.0371 111.2 82.3371 111.8 81.5371C111.8 81.5371 112.4 81.3371 113.3 81.0371L113.4 84.3371C114 84.6371 114 85.7371 114 85.7371C114 85.7371 114 85.9371 113.9 86.3371C113.5 86.5371 113.3 86.6371 113.3 86.6371C113.3 86.6371 111.8 87.3371 110.7 87.0371C109.6 86.8371 109 89.2371 109 89.2371C109 89.2371 107.8 89.0371 107.2 89.2371C107.2 89.2371 107.5 85.3371 104.3 81.6371C104.3 81.6371 107.8 82.9371 109.1 82.4371Z" fill="#343434"/>
<path d="M15.7999 64.3359L18.0999 65.2359C18.0999 65.2359 11.2999 71.4359 8.49988 70.5359C8.49988 70.5359 13.3999 65.9359 15.7999 64.3359Z" fill="#131519"/>
<path d="M96.3584 99.9816C101.189 99.4513 104.676 95.1052 104.146 90.2743C103.615 85.4434 99.2692 81.9569 94.4382 82.4872C89.6073 83.0174 86.1209 87.3635 86.6511 92.1945C87.1814 97.0254 91.5275 100.512 96.3584 99.9816Z" fill="#121615"/>
<path d="M95.2004 83.4352C94.8004 83.4352 94.4004 83.5352 94.0004 83.5352L93.7004 82.2352C94.2004 82.1352 94.7004 82.1352 95.2004 82.0352V83.4352Z" fill="#121615"/>
<path d="M99.701 84.8352C99.401 84.6352 99.001 84.4352 98.601 84.2352L99.101 83.0352C99.601 83.2352 100.001 83.5352 100.401 83.7352L99.701 84.8352Z" fill="#121615"/>
<path d="M96.8005 83.6344C96.4005 83.5344 96.0005 83.5344 95.6005 83.5344V82.2344C96.1005 82.2344 96.6005 82.3344 97.1005 82.4344L96.8005 83.6344Z" fill="#121615"/>
<path d="M98.3007 84.0359C97.9007 83.8359 97.5007 83.7359 97.1007 83.6359L97.4007 82.3359C97.9007 82.4359 98.4007 82.6359 98.8007 82.8359L98.3007 84.0359Z" fill="#121615"/>
<path d="M103.001 86.3348L101.901 87.0348C101.701 86.7348 101.401 86.3348 101.201 86.0348L102.101 85.1348C102.401 85.5348 102.701 85.9348 103.001 86.3348Z" fill="#121615"/>
<path d="M103.001 89.9344C102.901 89.5344 102.801 89.1344 102.701 88.7344L103.901 88.2344C104.101 88.7344 104.201 89.1344 104.301 89.6344L103.001 89.9344Z" fill="#121615"/>
<path d="M102.6 88.4348C102.5 88.0348 102.3 87.7348 102.1 87.3348L103.2 86.6348C103.4 87.0348 103.7 87.5348 103.8 87.9348L102.6 88.4348Z" fill="#121615"/>
<path d="M88.7006 87.3348C88.5006 87.6348 88.3006 88.0348 88.2006 88.4348L87.0006 87.9348C87.2006 87.4348 87.4006 87.0348 87.6006 86.6348L88.7006 87.3348Z" fill="#121615"/>
<path d="M101.601 95.9355L102.701 96.6355C102.401 97.0355 102.101 97.3355 101.801 97.6355L100.901 96.7355C101.101 96.5355 101.301 96.2355 101.601 95.9355Z" fill="#121615"/>
<path d="M89.2008 95.9355C89.4008 96.2355 89.7008 96.5355 89.9008 96.7355L89.0008 97.6355C88.7008 97.3355 88.4008 96.9355 88.1008 96.6355L89.2008 95.9355Z" fill="#121615"/>
<path d="M103.201 91.2355C103.201 90.9355 103.201 90.5355 103.101 90.2355L104.401 89.9355C104.501 90.3355 104.501 90.7355 104.501 91.1355C104.501 91.2355 104.501 91.2355 104.501 91.3355H103.201C103.201 91.3355 103.201 91.3355 103.201 91.2355Z" fill="#121615"/>
<path d="M91.6009 82.9355L92.1009 84.1355C91.7009 84.3355 91.4009 84.5355 91.0009 84.7355L90.3009 83.6355C90.7009 83.4355 91.2009 83.1355 91.6009 82.9355Z" fill="#121615"/>
<path d="M93.601 83.6359C93.201 83.7359 92.801 83.8359 92.401 84.0359L92.001 82.8359C92.501 82.6359 92.901 82.5359 93.401 82.3359L93.601 83.6359Z" fill="#121615"/>
<path d="M103.001 92.9344C103.101 92.5344 103.101 92.1344 103.201 91.7344H104.501C104.501 92.2344 104.401 92.7344 104.301 93.1344L103.001 92.9344Z" fill="#121615"/>
<path d="M89.601 86.0348C89.301 86.3348 89.101 86.6348 88.901 87.0348L87.801 86.3348C88.101 85.9348 88.401 85.5348 88.701 85.1348L89.601 86.0348Z" fill="#121615"/>
<path d="M86.8008 88.2344L88.0008 88.7344C87.9008 89.1344 87.8008 89.5344 87.7008 89.9344L86.4008 89.6344C86.6008 89.1344 86.7008 88.7344 86.8008 88.2344Z" fill="#121615"/>
<path d="M87.7008 91.7344C87.7008 92.1344 87.8008 92.5344 87.9008 92.9344L86.6008 93.2344C86.5008 92.7344 86.4008 92.3344 86.4008 91.8344H87.7008V91.7344Z" fill="#121615"/>
<path d="M91.4007 97.8359C91.7007 98.0359 92.0007 98.2359 92.4007 98.3359L91.9007 99.5359C91.5007 99.3359 91.1007 99.1359 90.7007 98.9359L91.4007 97.8359Z" fill="#121615"/>
<path d="M88.5004 94.6348C88.7004 94.9348 88.9004 95.3348 89.1004 95.6348L88.0004 96.3348C87.7004 95.9348 87.5004 95.5348 87.3004 95.1348L88.5004 94.6348Z" fill="#121615"/>
<path d="M90.2005 97.0352C90.5005 97.2352 90.8005 97.5352 91.1005 97.7352L90.4005 98.8352C90.0005 98.5352 89.7005 98.3352 89.3005 98.0352L90.2005 97.0352Z" fill="#121615"/>
<path d="M87.9007 93.2344C88.0007 93.6344 88.1007 93.9344 88.3007 94.3344L87.1007 94.8344C86.9007 94.4344 86.8007 93.9344 86.6007 93.5344L87.9007 93.2344Z" fill="#121615"/>
<path d="M101 85.8355C100.7 85.5355 100.4 85.2355 100.1 85.0355L100.8 83.9355C101.2 84.2355 101.6 84.5355 101.9 84.9355L101 85.8355Z" fill="#121615"/>
<path d="M90.8006 85.0355C90.5006 85.2355 90.2006 85.5355 89.9006 85.8355L89.0006 84.9355C89.3006 84.5355 89.7006 84.2355 90.1006 83.9355L90.8006 85.0355Z" fill="#121615"/>
<path d="M86.4008 90.0352L87.7008 90.3352C87.7008 90.6352 87.6008 90.9352 87.6008 91.3352C87.6008 91.4352 87.6008 91.4352 87.6008 91.5352H86.3008C86.3008 91.4352 86.3008 91.4352 86.3008 91.3352C86.3008 90.8352 86.4008 90.4352 86.4008 90.0352Z" fill="#121615"/>
<path d="M99.7006 97.6355C100.001 97.4355 100.301 97.2355 100.601 96.9355L101.501 97.8355C101.201 98.1355 100.801 98.4355 100.401 98.6355L99.7006 97.6355Z" fill="#121615"/>
<path d="M102.5 94.3344C102.7 94.0344 102.8 93.6344 102.9 93.2344L104.2 93.5344C104.1 94.0344 103.9 94.4344 103.7 94.8344L102.5 94.3344Z" fill="#121615"/>
<path d="M92.7009 98.5352C93.0009 98.6352 93.4009 98.7352 93.8009 98.8352L93.5009 100.135C93.1009 100.035 92.6009 99.9352 92.2009 99.7352L92.7009 98.5352Z" fill="#121615"/>
<path d="M101.801 95.6348C102.001 95.3348 102.201 95.0348 102.401 94.6348L103.601 95.1348C103.401 95.5348 103.201 95.9348 102.901 96.3348L101.801 95.6348Z" fill="#121615"/>
<path d="M98.401 98.3359C98.701 98.2359 99.101 98.0359 99.401 97.8359L100.101 98.9359C99.701 99.1359 99.301 99.3359 98.901 99.5359L98.401 98.3359Z" fill="#121615"/>
<path d="M97.0007 98.8352C97.4007 98.7352 97.7007 98.6352 98.1007 98.5352L98.6007 99.7352C98.2007 99.9352 97.7007 100.035 97.3007 100.135L97.0007 98.8352Z" fill="#121615"/>
<path d="M94.1004 98.8359C94.5004 98.9359 94.8004 98.9359 95.2004 98.9359V100.236C94.7004 100.236 94.3004 100.136 93.8004 100.136L94.1004 98.8359Z" fill="#121615"/>
<path d="M95.6005 98.9359C96.0005 98.9359 96.3005 98.9359 96.7005 98.8359L97.0005 100.136C96.6005 100.236 96.1005 100.236 95.6005 100.236V98.9359Z" fill="#121615"/>
<path d="M95.4002 99.6359C100.039 99.6359 103.8 95.8751 103.8 91.2359C103.8 86.5967 100.039 82.8359 95.4002 82.8359C90.7611 82.8359 87.0002 86.5967 87.0002 91.2359C87.0002 95.8751 90.7611 99.6359 95.4002 99.6359Z" fill="#252525"/>
<path d="M96.4794 97.8491C100.132 97.2563 102.612 93.8148 102.02 90.1622C101.427 86.5096 97.9853 84.0292 94.3327 84.622C90.6801 85.2148 88.1997 88.6563 88.7925 92.3089C89.3852 95.9615 92.8268 98.4419 96.4794 97.8491Z" fill="#1A1A1A"/>
<path d="M95.4001 93.2363C96.5047 93.2363 97.4001 92.3409 97.4001 91.2363C97.4001 90.1318 96.5047 89.2363 95.4001 89.2363C94.2956 89.2363 93.4001 90.1318 93.4001 91.2363C93.4001 92.3409 94.2956 93.2363 95.4001 93.2363Z" fill="#535353"/>
<path d="M95.4002 84.8359C98.9002 84.8359 101.8 87.6359 101.8 91.2359C101.8 94.7359 98.9002 97.6359 95.4002 97.6359C91.9002 97.6359 89.0002 94.7359 89.0002 91.2359C89.0002 87.7359 91.9002 84.8359 95.4002 84.8359ZM95.5002 85.0359C95.4002 85.0359 95.2002 85.0359 95.1002 85.0359C94.5002 85.1359 94.7002 85.6359 94.8002 85.8359C95.2002 86.7359 95.3002 87.3359 95.5002 87.9359C96.0002 89.5359 96.9002 89.2359 97.5002 88.7359C98.0002 88.2359 98.3002 87.5359 98.5002 87.1359C98.7002 86.6359 98.7002 86.2359 98.1002 85.8359C97.3002 85.3359 96.4002 85.0359 95.5002 85.0359ZM92.6002 86.0359C92.4002 86.0359 92.3002 86.0359 92.0002 86.1359C91.0002 86.6359 90.2002 87.3359 89.8002 88.3359C89.6002 88.9359 90.1002 88.9359 90.4002 89.0359C91.3002 89.1359 91.9002 89.3359 92.6002 89.4359C94.2002 89.8359 94.4002 88.8359 94.3002 88.1359C94.1002 87.4359 93.7002 86.8359 93.4002 86.4359C93.2002 86.2359 93.0002 86.0359 92.6002 86.0359ZM100.2 87.6359C100 87.6359 99.8002 87.8359 99.7002 88.0359C99.1002 88.8359 98.7002 89.2359 98.3002 89.7359C97.2002 90.9359 97.9002 91.6359 98.6002 91.8359C99.3002 91.9359 100 91.9359 100.5 91.9359C101 91.8359 101.4 91.6359 101.4 90.9359C101.4 89.8359 101.2 88.8359 100.6 87.9359C100.4 87.6359 100.3 87.6359 100.2 87.6359ZM90.9002 90.5359C90.7002 90.5359 90.5002 90.5359 90.4002 90.5359C89.9002 90.6359 89.5002 90.8359 89.4002 91.5359C89.3002 92.6359 89.5002 93.6359 90.2002 94.5359C90.6002 94.9359 90.9002 94.5359 91.1002 94.3359C91.7002 93.6359 92.1002 93.1359 92.6002 92.7359C93.7002 91.5359 93.1002 90.8359 92.3002 90.6359C91.8002 90.5359 91.3002 90.5359 90.9002 90.5359ZM97.6002 92.8359C96.5002 92.8359 96.4002 93.6359 96.5002 94.2359C96.7002 94.9359 97.1002 95.5359 97.4002 95.9359C97.7002 96.3359 98.1002 96.5359 98.7002 96.2359C99.7002 95.7359 100.5 95.0359 100.9 94.0359C101.1 93.4359 100.6 93.4359 100.3 93.3359C99.4002 93.2359 98.8002 93.0359 98.1002 92.9359C98.0002 92.8359 97.8002 92.8359 97.6002 92.8359ZM94.2002 93.2359C93.9002 93.2359 93.6002 93.4359 93.3002 93.6359C92.9002 94.1359 92.5002 94.8359 92.3002 95.2359C92.1002 95.7359 92.1002 96.1359 92.7002 96.5359C93.6002 97.1359 94.6002 97.4359 95.7002 97.3359C96.3002 97.1359 96.1002 96.7359 96.0002 96.5359C95.6002 95.6359 95.5002 95.1359 95.3002 94.4359C95.0002 93.5359 94.6002 93.2359 94.2002 93.2359Z" fill="#E0E0E0"/>
<path d="M95.4002 89.0352C96.6002 89.0352 97.5002 90.0352 97.5002 91.1352C97.5002 92.3352 96.5002 93.2352 95.4002 93.2352C94.2002 93.2352 93.3002 92.2352 93.3002 91.1352C93.3002 90.0352 94.2002 89.0352 95.4002 89.0352ZM95.4002 89.7352C94.6002 89.7352 93.9002 90.4352 93.9002 91.2352C93.9002 92.0352 94.6002 92.7352 95.4002 92.7352C96.2002 92.7352 96.9002 92.0352 96.9002 91.2352C96.9002 90.4352 96.2002 89.7352 95.4002 89.7352Z" fill="#1A1A1A"/>
<path d="M95.2006 89.3348C95.2006 89.4348 95.3006 89.5348 95.4006 89.5348C95.5006 89.5348 95.6006 89.4348 95.6006 89.3348C95.6006 89.2348 95.5006 89.1348 95.4006 89.1348C95.3006 89.1348 95.2006 89.2348 95.2006 89.3348Z" fill="#535353"/>
<path d="M95.2006 93.1355C95.2006 93.2355 95.3006 93.3355 95.4006 93.3355C95.5006 93.3355 95.6006 93.2355 95.6006 93.1355C95.6006 93.0355 95.5006 92.9355 95.4006 92.9355C95.3006 92.9355 95.2006 93.0355 95.2006 93.1355Z" fill="#535353"/>
<path d="M97.3007 91.0352C97.2007 91.0352 97.1007 91.1352 97.1007 91.2352C97.1007 91.3352 97.2007 91.4352 97.3007 91.4352C97.4007 91.4352 97.5007 91.3352 97.5007 91.2352C97.5007 91.1352 97.4007 91.0352 97.3007 91.0352Z" fill="#535353"/>
<path d="M93.5005 91.0352C93.4005 91.0352 93.3005 91.1352 93.3005 91.2352C93.3005 91.3352 93.4005 91.4352 93.5005 91.4352C93.6005 91.4352 93.7005 91.3352 93.7005 91.2352C93.7005 91.1352 93.6005 91.0352 93.5005 91.0352Z" fill="#535353"/>
<path d="M96.6005 89.7352C96.5005 89.8352 96.5005 89.9352 96.6005 90.0352C96.7005 90.1352 96.8005 90.1352 96.9005 90.0352C97.0005 89.9352 97.0005 89.8352 96.9005 89.7352C96.8005 89.6352 96.7005 89.6352 96.6005 89.7352Z" fill="#535353"/>
<path d="M93.9007 92.4344C93.8007 92.5344 93.8007 92.6344 93.9007 92.7344C94.0007 92.8344 94.1007 92.8344 94.2007 92.7344C94.3007 92.6344 94.3007 92.5344 94.2007 92.4344C94.1007 92.3344 94.0007 92.3344 93.9007 92.4344Z" fill="#535353"/>
<path d="M94.2007 89.7352C94.3007 89.8352 94.3007 89.9352 94.2007 90.0352C94.1007 90.1352 94.0007 90.1352 93.9007 90.0352C93.8007 89.9352 93.8007 89.8352 93.9007 89.7352C94.0007 89.6352 94.1007 89.6352 94.2007 89.7352Z" fill="#535353"/>
<path d="M96.9005 92.4344C97.0005 92.5344 97.0005 92.6344 96.9005 92.7344C96.8005 92.8344 96.7005 92.8344 96.6005 92.7344C96.5005 92.6344 96.5005 92.5344 96.6005 92.4344C96.7005 92.3344 96.8005 92.3344 96.9005 92.4344Z" fill="#535353"/>
<path d="M28.6265 100.103C33.4701 99.7025 37.0716 95.4511 36.6708 90.6075C36.2699 85.7639 32.0184 82.1624 27.1749 82.5632C22.3313 82.9641 18.7297 87.2156 19.1306 92.0591C19.5315 96.9027 23.7829 100.504 28.6265 100.103Z" fill="#121615"/>
<path d="M27.6996 83.5367C27.2996 83.5367 26.8996 83.6367 26.4996 83.6367L26.1996 82.3367C26.6996 82.2367 27.1996 82.2367 27.6996 82.1367V83.5367Z" fill="#121615"/>
<path d="M32.2001 84.9367C31.9001 84.7367 31.5001 84.5367 31.1001 84.3367L31.6001 83.1367C32.1001 83.3367 32.5001 83.6367 32.9001 83.8367L32.2001 84.9367Z" fill="#121615"/>
<path d="M29.2998 83.7363C28.8998 83.6363 28.4998 83.5363 27.9998 83.5363V82.2363C28.4998 82.2363 28.9998 82.3363 29.4998 82.4363L29.2998 83.7363Z" fill="#121615"/>
<path d="M30.8 84.1375C30.4 83.9375 30 83.8375 29.6 83.7375L29.9 82.4375C30.4 82.5375 30.9 82.7375 31.3 82.9375L30.8 84.1375Z" fill="#121615"/>
<path d="M35.5 86.4363L34.4 87.1363C34.2 86.8363 33.9 86.4363 33.7 86.1363L34.5999 85.2363C34.8999 85.6363 35.2 86.0363 35.5 86.4363Z" fill="#121615"/>
<path d="M35.5002 90.0359C35.4002 89.6359 35.3002 89.2359 35.2002 88.8359L36.4002 88.3359C36.6002 88.8359 36.7002 89.2359 36.8002 89.7359L35.5002 90.0359Z" fill="#121615"/>
<path d="M35.0997 88.5363C34.9997 88.1363 34.7997 87.8363 34.5997 87.4363L35.6997 86.7363C35.8997 87.1363 36.1997 87.6363 36.2997 88.0363L35.0997 88.5363Z" fill="#121615"/>
<path d="M21.1998 87.4363C20.9998 87.7363 20.7998 88.1363 20.6998 88.5363L19.4998 88.0363C19.6998 87.5363 19.8998 87.1363 20.0998 86.7363L21.1998 87.4363Z" fill="#121615"/>
<path d="M34 96.0371L35.1 96.7371C34.8 97.1371 34.5001 97.4371 34.2001 97.7371L33.3 96.8371C33.5 96.6371 33.8 96.3371 34 96.0371Z" fill="#121615"/>
<path d="M21.7001 96.0371C21.9001 96.3371 22.2001 96.6371 22.4001 96.8371L21.5001 97.7371C21.2001 97.4371 20.9001 97.0371 20.6001 96.7371L21.7001 96.0371Z" fill="#121615"/>
<path d="M35.6001 91.3371C35.6001 91.0371 35.6001 90.6371 35.5001 90.3371L36.8001 90.0371C36.9001 90.4371 36.9001 90.8371 36.9001 91.2371C36.9001 91.3371 36.9001 91.3371 36.9001 91.4371H35.6001C35.6001 91.4371 35.6001 91.4371 35.6001 91.3371Z" fill="#121615"/>
<path d="M24.1001 83.0371L24.6001 84.2371C24.2001 84.4371 23.9 84.6371 23.5 84.8371L22.8 83.7371C23.2 83.5371 23.6001 83.3371 24.1001 83.0371Z" fill="#121615"/>
<path d="M26.1003 83.7375C25.7003 83.8375 25.3003 83.9375 24.9003 84.1375L24.4003 82.9375C24.9003 82.7375 25.3003 82.6375 25.8003 82.4375L26.1003 83.7375Z" fill="#121615"/>
<path d="M35.4001 93.0359C35.5001 92.6359 35.5001 92.2359 35.6001 91.8359H36.9001C36.9001 92.3359 36.8001 92.8359 36.7001 93.2359L35.4001 93.0359Z" fill="#121615"/>
<path d="M22.1002 86.1363C21.8002 86.4363 21.6002 86.7363 21.4002 87.1363L20.3002 86.4363C20.6002 86.0363 20.9002 85.6363 21.2002 85.2363L22.1002 86.1363Z" fill="#121615"/>
<path d="M19.2999 88.3359L20.4999 88.8359C20.3999 89.2359 20.2999 89.6359 20.1999 90.0359L18.8999 89.7359C18.9999 89.2359 19.0999 88.8359 19.2999 88.3359Z" fill="#121615"/>
<path d="M20.1 91.8359C20.1 92.2359 20.2 92.6359 20.3 93.0359L19 93.3359C18.9 92.8359 18.8 92.4359 18.8 91.9359H20.1V91.8359Z" fill="#121615"/>
<path d="M23.8999 97.9375C24.1999 98.1375 24.4999 98.3375 24.8999 98.4375L24.3999 99.6375C23.9999 99.4375 23.6 99.2375 23.2 99.0375L23.8999 97.9375Z" fill="#121615"/>
<path d="M20.8997 94.7363C21.0997 95.0363 21.2997 95.4363 21.4997 95.7363L20.3997 96.4363C20.0997 96.0363 19.8997 95.6363 19.6997 95.2363L20.8997 94.7363Z" fill="#121615"/>
<path d="M22.6997 97.1367C22.9997 97.3367 23.2997 97.6367 23.5997 97.8367L22.8997 98.9367C22.4997 98.6367 22.1997 98.4367 21.7997 98.1367L22.6997 97.1367Z" fill="#121615"/>
<path d="M20.3999 93.3359C20.4999 93.7359 20.5999 94.0359 20.7999 94.4359L19.5999 94.9359C19.3999 94.5359 19.2999 94.0359 19.0999 93.6359L20.3999 93.3359Z" fill="#121615"/>
<path d="M33.3996 85.9371C33.0996 85.6371 32.7996 85.3371 32.4996 85.1371L33.1996 84.0371C33.5996 84.3371 33.9996 84.6371 34.2996 85.0371L33.3996 85.9371Z" fill="#121615"/>
<path d="M23.1998 85.1371C22.8998 85.3371 22.5998 85.6371 22.2998 85.9371L21.3998 85.0371C21.6998 84.6371 22.0998 84.3371 22.4998 84.0371L23.1998 85.1371Z" fill="#121615"/>
<path d="M18.9 90.1367L20.2001 90.4367C20.2001 90.7367 20.1 91.0367 20.1 91.4367C20.1 91.5367 20.1 91.5367 20.1 91.6367H18.8C18.8 91.5367 18.8 91.5367 18.8 91.4367C18.8 90.9367 18.8 90.5367 18.9 90.1367Z" fill="#121615"/>
<path d="M32.0999 97.8367C32.3999 97.6367 32.6999 97.4367 32.9999 97.1367L33.8999 98.0367C33.5999 98.3367 33.1999 98.6367 32.7999 98.8367L32.0999 97.8367Z" fill="#121615"/>
<path d="M34.8995 94.4359C35.0995 94.1359 35.1995 93.7359 35.2995 93.3359L36.5995 93.6359C36.4995 94.1359 36.2995 94.5359 36.0995 94.9359L34.8995 94.4359Z" fill="#121615"/>
<path d="M25.2001 98.6367C25.5001 98.7367 25.9001 98.8367 26.3001 98.9367L26.0001 100.237C25.6001 100.137 25.1001 100.037 24.7001 99.8367L25.2001 98.6367Z" fill="#121615"/>
<path d="M34.1998 95.7363C34.3998 95.4363 34.5998 95.1363 34.7998 94.7363L35.9998 95.2363C35.7998 95.6363 35.5998 96.0363 35.2998 96.4363L34.1998 95.7363Z" fill="#121615"/>
<path d="M30.8002 98.4375C31.1002 98.3375 31.5002 98.1375 31.8002 97.9375L32.5002 99.0375C32.1002 99.2375 31.7002 99.4375 31.3002 99.6375L30.8002 98.4375Z" fill="#121615"/>
<path d="M29.5 98.9367C29.9 98.8367 30.2 98.7367 30.6 98.6367L31.1 99.8367C30.7 100.037 30.2 100.137 29.8 100.237L29.5 98.9367Z" fill="#121615"/>
<path d="M26.5996 98.9375C26.9996 99.0375 27.2996 99.0375 27.6996 99.0375V100.338C27.1996 100.338 26.7996 100.237 26.2996 100.237L26.5996 98.9375Z" fill="#121615"/>
<path d="M27.9998 99.0375C28.3998 99.0375 28.6998 99.0375 29.0998 98.9375L29.3998 100.237C28.9998 100.337 28.4998 100.338 27.9998 100.338V99.0375Z" fill="#121615"/>
<path d="M27.8996 99.7375C32.5388 99.7375 36.2996 95.9767 36.2996 91.3375C36.2996 86.6983 32.5388 82.9375 27.8996 82.9375C23.2604 82.9375 19.4996 86.6983 19.4996 91.3375C19.4996 95.9767 23.2604 99.7375 27.8996 99.7375Z" fill="#252525"/>
<path d="M29.0465 97.9285C32.6924 97.2968 35.1359 93.8292 34.5043 90.1833C33.8727 86.5374 30.405 84.0938 26.7591 84.7255C23.1132 85.3571 20.6696 88.8247 21.3013 92.4707C21.9329 96.1166 25.4006 98.5601 29.0465 97.9285Z" fill="#1A1A1A"/>
<path d="M28.2797 93.2959C29.3644 93.087 30.0744 92.0384 29.8655 90.9537C29.6567 89.869 28.608 89.159 27.5233 89.3679C26.4386 89.5768 25.7287 90.6254 25.9375 91.7101C26.1464 92.7948 27.195 93.5048 28.2797 93.2959Z" fill="#535353"/>
<path d="M27.8996 84.9375C31.3996 84.9375 34.2996 87.7375 34.2996 91.3375C34.2996 94.8375 31.3996 97.7375 27.8996 97.7375C24.3996 97.7375 21.4996 94.8375 21.4996 91.3375C21.4996 87.8375 24.2996 84.9375 27.8996 84.9375ZM27.8996 85.1375C27.7996 85.1375 27.5996 85.1375 27.4996 85.1375C26.8996 85.2375 27.0996 85.7375 27.1996 85.9375C27.5996 86.8375 27.6996 87.4375 27.8996 88.0375C28.3996 89.6375 29.2996 89.3375 29.8996 88.8375C30.3996 88.3375 30.6996 87.6375 30.8996 87.2375C31.0996 86.7375 31.0996 86.3375 30.4996 85.9375C29.6996 85.4375 28.8996 85.1375 27.8996 85.1375ZM25.0996 86.1375C24.8996 86.1375 24.7996 86.1375 24.4996 86.2375C23.4996 86.7375 22.6996 87.4375 22.2996 88.4375C22.0996 89.0375 22.5996 89.0375 22.8996 89.1375C23.7996 89.2375 24.3996 89.4375 25.0996 89.5375C26.6996 89.9375 26.8996 88.9375 26.7996 88.2375C26.5996 87.5375 26.1996 86.9375 25.8996 86.5375C25.6996 86.3375 25.3996 86.1375 25.0996 86.1375ZM32.6996 87.7375C32.4996 87.7375 32.2996 87.9375 32.1996 88.1375C31.5996 88.9375 31.1996 89.3375 30.7996 89.8375C29.6996 91.0375 30.3996 91.7375 31.0996 91.9375C31.7996 92.0375 32.4996 92.0375 32.9996 92.0375C33.4996 91.9375 33.8996 91.7375 33.8996 91.0375C33.8996 89.9375 33.6996 88.9375 33.0996 88.0375C32.8996 87.7375 32.7996 87.7375 32.6996 87.7375ZM23.3996 90.6375C23.1996 90.6375 22.9996 90.6375 22.8996 90.6375C22.3996 90.7375 21.9996 90.9375 21.8996 91.6375C21.7996 92.7375 21.9996 93.7375 22.6996 94.6375C23.0996 95.0375 23.3996 94.6375 23.5996 94.4375C24.1996 93.7375 24.5996 93.2375 25.0996 92.8375C26.1996 91.6375 25.5996 90.9375 24.7996 90.7375C24.2996 90.6375 23.7996 90.6375 23.3996 90.6375ZM30.0996 92.9375C28.9996 92.9375 28.8996 93.7375 28.9996 94.3375C29.1996 95.0375 29.5996 95.6375 29.8996 96.0375C30.1996 96.4375 30.5996 96.6375 31.1996 96.3375C32.1996 95.8375 32.9996 95.1375 33.3996 94.1375C33.5996 93.5375 33.0996 93.5375 32.7996 93.4375C31.8996 93.3375 31.2996 93.1375 30.5996 93.0375C30.3996 92.9375 30.1996 92.9375 30.0996 92.9375ZM26.6996 93.3375C26.3996 93.3375 26.0996 93.5375 25.7996 93.7375C25.3996 94.2375 24.9996 94.9375 24.7996 95.3375C24.5996 95.8375 24.5996 96.2375 25.1996 96.6375C26.0996 97.2375 27.0996 97.5375 28.1996 97.4375C28.7996 97.2375 28.5996 96.8375 28.4996 96.6375C28.0996 95.7375 27.9996 95.2375 27.7996 94.5375C27.4996 93.6375 27.0996 93.3375 26.6996 93.3375Z" fill="#E0E0E0"/>
<path d="M27.8998 89.2363C29.0998 89.2363 29.9998 90.2363 29.9998 91.3363C29.9998 92.5363 28.9998 93.4363 27.8998 93.4363C26.6998 93.4363 25.7998 92.4363 25.7998 91.3363C25.6998 90.1363 26.6998 89.2363 27.8998 89.2363ZM27.8998 89.8363C27.0998 89.8363 26.3998 90.5363 26.3998 91.3363C26.3998 92.1363 27.0998 92.8363 27.8998 92.8363C28.6998 92.8363 29.3998 92.1363 29.3998 91.3363C29.3998 90.5363 28.6998 89.8363 27.8998 89.8363Z" fill="#1A1A1A"/>
<path d="M27.5999 89.4363C27.5999 89.5363 27.6999 89.6363 27.7999 89.6363C27.8999 89.6363 27.9999 89.5363 27.9999 89.4363C27.9999 89.3363 27.8999 89.2363 27.7999 89.2363C27.6999 89.2363 27.5999 89.3363 27.5999 89.4363Z" fill="#535353"/>
<path d="M27.5999 93.2371C27.5999 93.3371 27.6999 93.4371 27.7999 93.4371C27.8999 93.4371 27.9999 93.3371 27.9999 93.2371C27.9999 93.1371 27.8999 93.0371 27.7999 93.0371C27.6999 93.0371 27.5999 93.1371 27.5999 93.2371Z" fill="#535353"/>
<path d="M29.8 91.1367C29.7 91.1367 29.6 91.2367 29.6 91.3367C29.6 91.4367 29.7 91.5367 29.8 91.5367C29.9 91.5367 30 91.4367 30 91.3367C30 91.2367 29.9 91.1367 29.8 91.1367Z" fill="#535353"/>
<path d="M25.9998 91.1367C25.8998 91.1367 25.7998 91.2367 25.7998 91.3367C25.7998 91.4367 25.8998 91.5367 25.9998 91.5367C26.0998 91.5367 26.1998 91.4367 26.1998 91.3367C26.1998 91.2367 26.0998 91.1367 25.9998 91.1367Z" fill="#535353"/>
<path d="M28.9998 89.8367C28.8998 89.9367 28.8998 90.0367 28.9998 90.1367C29.0998 90.2367 29.1998 90.2367 29.2998 90.1367C29.3998 90.0367 29.3998 89.9367 29.2998 89.8367C29.2998 89.7367 29.0998 89.7367 28.9998 89.8367Z" fill="#535353"/>
<path d="M26.3 92.5359C26.2 92.6359 26.2 92.7359 26.3 92.8359C26.4 92.9359 26.5 92.9359 26.6 92.8359C26.7 92.7359 26.7 92.6359 26.6 92.5359C26.6 92.4359 26.4 92.4359 26.3 92.5359Z" fill="#535353"/>
<path d="M26.7 89.8367C26.8 89.9367 26.8 90.0367 26.7 90.1367C26.6 90.2367 26.5 90.2367 26.4 90.1367C26.3 90.0367 26.3 89.9367 26.4 89.8367C26.4 89.7367 26.6 89.7367 26.7 89.8367Z" fill="#535353"/>
<path d="M29.2001 92.9371C29.3106 92.9371 29.4001 92.8476 29.4001 92.7371C29.4001 92.6266 29.3106 92.5371 29.2001 92.5371C29.0897 92.5371 29.0001 92.6266 29.0001 92.7371C29.0001 92.8476 29.0897 92.9371 29.2001 92.9371Z" fill="#535353"/>
<path d="M82.1001 72.7355C82.1001 72.7355 73.7001 65.9355 67.2001 63.0355C67.2001 63.0355 66.0001 62.2355 65.1001 61.4355C73.4001 64.4355 82.1001 71.3355 82.8001 71.6355C83.2001 71.8355 83.8001 71.9355 84.3001 72.1355L82.1001 72.7355Z" fill="#252A31"/>
<path d="M110 77.5357C110 77.5357 113.6 79.0357 110.8 81.0357C110.8 81.0357 109.7 80.9357 109.1 81.4357C108.5 81.9357 106.3 80.9357 106.3 80.9357C106.3 80.9357 104 78.6357 102.5 78.4357C101 78.2357 101.7 77.4357 103.1 77.0357C104.5 76.5357 109.2 77.1357 110 77.5357Z" fill="#E5E5E5"/>
<path d="M8.0003 72.6372C8.0003 72.6372 8.2003 71.5372 10.5003 71.7372H16.2003C16.2003 71.7372 18.9003 72.4372 16.7003 74.0372C14.5003 75.6372 13.7003 76.0372 12.5003 76.9372C12.5003 76.9372 9.7003 77.5372 8.6003 76.9372C8.5003 76.7372 7.5003 74.0372 8.0003 72.6372Z" fill="#F42434"/>
<path d="M10.2001 72.6367C10.2001 72.6367 8.50013 72.8367 8.30013 72.7367C8.30013 72.7367 7.80013 74.5367 8.70013 76.3367C8.70013 76.3367 9.40013 76.5367 10.2001 76.5367C9.90013 76.7367 9.50013 73.9367 10.2001 72.6367Z" fill="white"/>
<path d="M80.6997 72.8372C80.6997 72.8372 69.2998 63.2372 60.4998 61.9372C51.6998 60.6372 35.9998 61.9372 35.9998 61.9372C35.9998 61.9372 28.7998 62.0372 24.4998 64.4372C24.4998 64.4372 21.4998 65.7371 21.4998 67.1371C21.4998 67.1371 21.6998 68.4372 22.4998 69.0371C23.1998 69.6371 26.4998 69.9372 26.4998 69.9372C26.4998 69.9372 29.1998 70.4372 31.1998 70.5371C32.6998 70.6371 42.2998 71.4372 42.2998 71.4372C42.2998 71.4372 49.5998 71.9371 53.8998 72.2371C66.5998 73.0371 76.6997 73.8372 80.6997 72.8372Z" fill="#131519"/>
<path d="M77.8004 72.5379C77.8004 72.5379 67.3004 62.3379 54.2004 62.3379L57.6004 71.7379C57.6004 71.7379 74.7004 73.2379 77.8004 72.5379Z" fill="#1B1B1B"/>
<path d="M51.0999 62.3368L51.7999 71.4368C51.7999 71.4368 32.9999 70.5368 32.4999 70.1368L35.6999 62.9368C35.6999 62.9368 42.1999 62.1368 51.0999 62.3368Z" fill="#1B1B1B"/>
<path d="M61.9004 72.1379L54.7004 63.6379L54.3004 62.3379C54.7004 62.3379 55.1004 62.3379 55.5004 62.3379L63.9004 72.2379C63.2004 72.2379 62.5004 72.1379 61.9004 72.1379Z" fill="url(#paint0_linear_7729_104595)"/>
<path d="M40.4005 70.8367L35.0005 64.5367L35.6005 63.1367L42.3005 70.9367C41.6005 70.9367 41.0005 70.8367 40.4005 70.8367Z" fill="url(#paint1_linear_7729_104595)"/>
<path d="M35.3996 74.9363C36.1728 74.9363 36.7996 74.4438 36.7996 73.8363C36.7996 73.2288 36.1728 72.7363 35.3996 72.7363C34.6264 72.7363 33.9996 73.2288 33.9996 73.8363C33.9996 74.4438 34.6264 74.9363 35.3996 74.9363Z" fill="url(#paint2_linear_7729_104595)"/>
<path d="M37.9998 73.6371C37.9998 73.6371 38.7998 74.3371 37.9998 74.3371C37.1998 74.4371 34.0998 74.1371 33.3998 73.9371C32.6998 73.8371 32.2998 74.0371 32.0998 73.5371C31.8998 73.0371 32.7998 73.1371 32.7998 73.1371C32.7998 73.1371 35.0998 73.0371 37.9998 73.6371Z" fill="url(#paint3_linear_7729_104595)"/>
<path d="M37.8 73.736C37.8 73.736 38.5 74.236 37.8 74.336C37.1 74.336 34.2 74.136 33.6 74.036C32.9 73.936 32.6 74.136 32.4 73.736C32.2 73.336 33 73.436 33 73.436C33 73.436 35.1 73.236 37.8 73.736Z" fill="url(#paint4_linear_7729_104595)"/>
<path d="M60.8996 77.0359C61.6728 77.0359 62.2996 76.5434 62.2996 75.9359C62.2996 75.3284 61.6728 74.8359 60.8996 74.8359C60.1264 74.8359 59.4996 75.3284 59.4996 75.9359C59.4996 76.5434 60.1264 77.0359 60.8996 77.0359Z" fill="url(#paint5_linear_7729_104595)"/>
<path d="M63.4998 75.8363C63.4998 75.8363 64.2998 76.5363 63.4998 76.5363C62.6998 76.6363 59.5998 76.3363 58.8998 76.1363C58.1998 76.0363 57.7998 76.2363 57.5998 75.7363C57.3998 75.2363 58.2998 75.3363 58.2998 75.3363C58.2998 75.3363 60.5998 75.2363 63.4998 75.8363Z" fill="url(#paint6_linear_7729_104595)"/>
<path d="M63.3 75.8356C63.3 75.8356 64 76.3356 63.3 76.4356C62.6 76.4356 59.7 76.2356 59.1 76.1356C58.4 76.0356 58.1 76.2356 57.9 75.8356C57.7 75.4356 58.5 75.5356 58.5 75.5356C58.5 75.5356 60.6 75.3356 63.3 75.8356Z" fill="url(#paint7_linear_7729_104595)"/>
<path d="M78.1982 72.8371C78.0982 72.3371 77.9982 71.9371 77.3982 71.0371C76.4982 69.8371 75.2982 69.5371 74.0982 69.0371C72.5982 69.4371 72.0982 71.3371 72.7982 72.5371C74.6982 72.9371 76.4982 72.9371 78.1982 72.8371Z" fill="#62A744"/>
<path d="M78.1998 72.8379C78.0998 72.4379 78.0998 71.8379 77.5998 71.3379C75.9998 71.8379 74.1998 71.4379 72.5998 70.8379C72.2998 71.9379 72.5998 72.2379 72.7998 72.6379C74.7998 73.0379 76.4998 72.9379 78.1998 72.8379Z" fill="#306700"/>
<path d="M55.3673 54C51.38 54 48.0762 50.3544 48.0762 45.9114C48.0762 44.8861 48.8736 44.0886 49.899 44.0886C50.9243 44.0886 51.7217 44.8861 51.7217 45.9114C51.7217 48.4177 53.4306 50.4684 55.4812 50.4684C57.5319 50.4684 59.2407 48.4177 59.2407 45.9114V1.82278C59.2407 0.797468 60.0382 0 61.0635 0C62.0888 0 62.8863 0.797468 62.8863 1.82278V45.9114C62.6584 50.3544 59.3546 54 55.3673 54Z" fill="#306700"/>
<path d="M103.899 37.3675C103.899 37.3675 91.9373 30.0764 81.2284 39.7599C81.2284 39.7599 74.393 36.0005 60.9499 36.0005C47.6208 36.0005 40.7854 39.7599 40.7854 39.7599C30.0765 30.0764 18.1145 37.3675 18.1145 37.3675C30.9879 3.53209 60.9499 4.78526 60.9499 4.78526C60.9499 4.78526 90.798 3.53209 103.899 37.3675Z" fill="#FACD46"/>
<path d="M103.9 37.3675C103.9 37.3675 91.9375 30.0764 81.2287 39.7599C81.2287 39.7599 77.697 15.1523 60.9502 4.78526C60.9502 4.78526 90.7983 3.53209 103.9 37.3675Z" fill="#EDBD43"/>
<path d="M18 37.3675C18 37.3675 29.962 30.0764 40.6709 39.7599C40.6709 39.7599 44.2025 15.1523 60.9494 4.78526C60.9494 4.78526 31.1013 3.53209 18 37.3675Z" fill="#EDBD43"/>
<defs>
<linearGradient id="paint0_linear_7729_104595" x1="63.851" y1="67.2962" x2="54.2621" y2="67.2962" gradientUnits="userSpaceOnUse">
<stop stop-color="#1F222E"/>
<stop offset="1" stop-color="#252A2F"/>
</linearGradient>
<linearGradient id="paint1_linear_7729_104595" x1="42.27" y1="67.0353" x2="34.9824" y2="67.0353" gradientUnits="userSpaceOnUse">
<stop stop-color="#1F222E"/>
<stop offset="1" stop-color="#252A2F"/>
</linearGradient>
<linearGradient id="paint2_linear_7729_104595" x1="36.8155" y1="73.8124" x2="33.9176" y2="73.8124" gradientUnits="userSpaceOnUse">
<stop stop-color="#1F222E"/>
<stop offset="1" stop-color="#252A2F"/>
</linearGradient>
<linearGradient id="paint3_linear_7729_104595" x1="38.3274" y1="73.8072" x2="32.0901" y2="73.8072" gradientUnits="userSpaceOnUse">
<stop stop-color="#1F222E"/>
<stop offset="1" stop-color="#252A2F"/>
</linearGradient>
<linearGradient id="paint4_linear_7729_104595" x1="38.0898" y1="73.8149" x2="32.3276" y2="73.8149" gradientUnits="userSpaceOnUse">
<stop stop-color="#1F222E"/>
<stop offset="1" stop-color="#252A2F"/>
</linearGradient>
<linearGradient id="paint5_linear_7729_104595" x1="62.3385" y1="75.955" x2="59.4405" y2="75.955" gradientUnits="userSpaceOnUse">
<stop stop-color="#1F222E"/>
<stop offset="1" stop-color="#252A2F"/>
</linearGradient>
<linearGradient id="paint6_linear_7729_104595" x1="63.8504" y1="75.9493" x2="57.6131" y2="75.9493" gradientUnits="userSpaceOnUse">
<stop stop-color="#1F222E"/>
<stop offset="1" stop-color="#252A2F"/>
</linearGradient>
<linearGradient id="paint7_linear_7729_104595" x1="63.6128" y1="75.9575" x2="57.8506" y2="75.9575" gradientUnits="userSpaceOnUse">
<stop stop-color="#1F222E"/>
<stop offset="1" stop-color="#252A2F"/>
</linearGradient>
</defs>
</svg>
