<svg width="24" height="24" viewBox="0 0 24 24" fill="none" xmlns="http://www.w3.org/2000/svg">
<path fill-rule="evenodd" clip-rule="evenodd" d="M5.889 16H2C1.44772 16 1 15.5523 1 15V9.00003C1 8.44774 1.44772 8.00003 2 8.00003H5.889L11.183 3.66803C11.3325 3.54545 11.5393 3.52006 11.714 3.60282C11.8888 3.68559 12.0001 3.86168 12 4.05503V19.945C12.0001 20.1384 11.8888 20.3145 11.714 20.3972C11.5393 20.48 11.3325 20.4546 11.183 20.332L5.89 16H5.889ZM19.406 20.134L17.99 18.718C19.9075 17.0119 21.0031 14.5667 21 12C21.0025 9.29869 19.7891 6.73968 17.696 5.03203L19.116 3.61203C21.5823 5.69997 23.0032 8.76861 23 12C23 15.223 21.614 18.122 19.406 20.134ZM14.4411 15.169L15.8631 16.591C17.1701 15.49 18.0001 13.842 18.0001 12C18.0017 10.0929 17.0953 8.29904 15.5591 7.16901L14.1201 8.60801C15.2501 9.31501 16.0001 10.57 16.0001 12C16.0012 13.2412 15.4251 14.4124 14.4411 15.169Z" fill="#242C33"/>
</svg>
