<svg width="24" height="24" viewBox="0 0 24 24" fill="none" xmlns="http://www.w3.org/2000/svg">
<path fill-rule="evenodd" clip-rule="evenodd" d="M3 4V19H2V21H15V19H14V14H16V18C16 19.6569 17.3431 21 19 21C20.6569 21 22 19.6569 22 18V9C22.0003 8.73474 21.8948 8.48031 21.707 8.293L16.757 3.343L15.343 4.757L17 6.414V10C17 10.5523 17.4477 11 18 11H20V18C20 18.5523 19.5523 19 19 19C18.4477 19 18 18.5523 18 18V14C18 12.8954 17.1046 12 16 12H14V4C14 3.44772 13.5523 3 13 3H4C3.44772 3 3 3.44772 3 4ZM5 11V5H12V11H5Z" fill="#242C33"/>
</svg>
