<svg width="124" height="132" viewBox="0 0 124 132" fill="none" xmlns="http://www.w3.org/2000/svg">
<path fill-rule="evenodd" clip-rule="evenodd" d="M83.7257 42.7787L83.6899 42.5065C83.6899 42.5065 83.7001 42.6116 83.7257 42.7787Z" fill="#DD876B"/>
<g clip-path="url(#clip0_7729_104584)">
<path fill-rule="evenodd" clip-rule="evenodd" d="M120.198 72C120.198 105.137 93.3352 132 60.1982 132C27.0612 132 0.198242 105.137 0.198242 72C0.198242 38.863 27.0612 12 60.1982 12C93.3352 12 120.198 38.863 120.198 72Z" fill="#E6F1F5"/>
<path fill-rule="evenodd" clip-rule="evenodd" d="M108.199 108H12.1986C22.3656 122.4 40.422 132 60.0817 132C79.7414 132 97.4118 123 108.199 108Z" fill="#D4D7D9"/>
<path fill-rule="evenodd" clip-rule="evenodd" d="M12.3483 107.971H108.397C108.397 107.971 98.479 117.541 84.2344 119.45C67.9241 121.637 57.6546 116.717 45.2709 116.444C25.9366 116.017 12.3483 107.971 12.3483 107.971Z" fill="#666B70"/>
<path fill-rule="evenodd" clip-rule="evenodd" d="M88.5934 72.7223C88.5934 72.7223 89.583 68.668 92.2649 68.668H98.2989C98.2989 68.668 99.7675 68.9873 99.1287 71.5731C98.4906 74.1909 91.9773 71.9245 89.7426 74.3826L88.4017 75.9147L87.9871 75.5639L88.5934 72.7223Z" fill="#62A744"/>
<path fill-rule="evenodd" clip-rule="evenodd" d="M99.0292 71.0293C99.0292 71.0293 98.7179 71.6518 95.2939 72.2744C91.8699 72.8969 90.0347 71.3406 90.0347 71.3406L90.6248 73.5195C90.6248 73.5195 94.6679 73.6496 96.2277 73.5195C99.963 73.2082 99.0292 71.0293 99.0292 71.0293Z" fill="#306700"/>
<path fill-rule="evenodd" clip-rule="evenodd" d="M34.4476 72.7223C34.4476 72.7223 33.4575 68.668 30.7762 68.668H24.7104C24.7104 68.668 23.2736 68.9873 23.8802 71.5731C24.5187 74.1909 31.0314 71.9245 33.2663 74.3826L34.607 75.9147L35.0222 75.5639L34.4476 72.7223Z" fill="#62A744"/>
<path fill-rule="evenodd" clip-rule="evenodd" d="M29.3041 71.0297C30.8604 69.7847 32.7281 69.1621 32.7281 69.1621C32.7281 69.1621 32.4168 69.4734 31.7942 71.6523C31.1717 73.8312 28.059 73.2086 25.2575 72.8974C24.0199 72.7601 24.0125 71.6523 24.0125 71.6523C24.0125 71.6523 27.5501 72.433 29.3041 71.0297Z" fill="#306700"/>
<path fill-rule="evenodd" clip-rule="evenodd" d="M99.4802 84.7188H95.2659C93.1268 84.7188 91.4033 86.4423 91.4033 88.5499V106.492C91.4033 108.631 93.1268 110.354 95.2659 110.354H99.4802C101.588 110.354 103.343 108.631 103.343 106.492V88.5499C103.343 86.4423 101.588 84.7188 99.4802 84.7188Z" fill="#1C1C1C"/>
<path fill-rule="evenodd" clip-rule="evenodd" d="M27.7757 84.7188H23.5296C21.4226 84.7188 19.6985 86.4423 19.6985 88.5499V106.492C19.6985 108.631 21.4226 110.354 23.5296 110.354H27.7757C29.8827 110.354 31.6386 108.631 31.6386 106.492V88.5499C31.6386 86.4423 29.8827 84.7188 27.7757 84.7188Z" fill="#1C1C1C"/>
<path fill-rule="evenodd" clip-rule="evenodd" d="M77.9939 57.5418C80.3524 57.9567 87.8908 61.6123 91.9448 71.3819C91.9448 71.3819 94.4035 72.0203 95.1699 72.3076C95.9359 72.5632 96.1915 75.4359 96.1915 75.4359C96.1915 75.4359 101.587 75.7235 101.587 86.8975C101.587 98.0392 102.448 101.327 99.8629 104.296C97.2763 107.266 61.5208 106.371 61.5208 106.371C61.5208 106.371 25.7326 107.266 23.1463 104.296C20.5605 101.327 21.4225 98.0392 21.4225 86.8975C21.4225 75.7235 26.8177 75.4359 26.8177 75.4359C26.8177 75.4359 27.0736 72.5632 27.8393 72.3076C28.6054 72.0203 31.0635 71.3819 31.0635 71.3819C35.1184 61.6123 42.673 58.0607 45.0153 57.5418C47.3576 57.0229 54.0503 56.4004 61.6764 56.4004C69.3026 56.4004 75.6351 57.1269 77.9939 57.5418Z" fill="#62A744"/>
<path fill-rule="evenodd" clip-rule="evenodd" d="M101.683 94.1756C101.683 94.1756 95.2943 100.6 85.9561 98.7326C78.4778 97.237 71.9489 98.4213 56.3853 99.0439C40.8217 99.6664 35.8734 101.199 28.3709 99.6664C20.8686 98.1334 21.3274 86.9043 21.3274 86.9043C21.2315 92.4592 20.5891 101.845 23.1471 104.295C25.9909 107.019 61.5216 106.371 61.5216 106.371C61.5216 106.371 97.2771 107.265 99.8634 104.295C101.779 102.093 101.811 99.7309 101.683 94.1756Z" fill="#306700"/>
<path fill-rule="evenodd" clip-rule="evenodd" d="M61.365 72.2744C49.848 72.2744 32.4168 71.3406 32.4168 71.3406C32.4168 71.3406 29.9929 72.8275 31.1717 74.7646C34.8612 80.8269 41.7801 84.654 41.7801 84.654C41.7801 84.654 49.8165 87.5267 60.7425 87.5267C71.6684 87.5267 75.6966 86.3308 80.0413 84.7252C83.0706 83.6056 87.0204 81.4192 90.9358 76.3209C92.8545 73.8226 91.5584 71.0293 91.5584 71.0293C80.3526 72.5857 72.8821 72.2744 61.365 72.2744Z" fill="#62A744"/>
<path fill-rule="evenodd" clip-rule="evenodd" d="M61.5212 72.4319H35.4217C35.4217 72.4319 34.0751 72.6249 32.7283 71.5342C34.2672 67.9437 36.5121 64.2884 39.5258 61.5308C40.5835 60.5049 45.802 58.5781 61.5212 58.5781C77.2404 58.5781 82.4256 60.5049 83.5157 61.5308C86.4977 64.2884 88.7743 67.9437 90.3135 71.5342C88.9343 72.6249 87.6201 72.4319 87.6201 72.4319H61.5212Z" fill="#262728"/>
<path fill-rule="evenodd" clip-rule="evenodd" d="M61.5205 84.0547H42.014C42.014 84.0547 41.1197 84.7572 40.9924 85.555C40.9924 85.555 45.7493 94.6535 61.5205 94.6535C77.2593 94.6535 82.0479 85.555 82.0479 85.555C81.9206 84.7572 80.9946 84.0547 80.9946 84.0547H61.5205Z" fill="#1C1C1C"/>
<path fill-rule="evenodd" clip-rule="evenodd" d="M35.3746 84.2732L26.1837 79.8506C25.3847 79.4659 24.4172 79.9089 24.2202 80.7739C23.9015 82.1743 24.0123 85.9709 26.1912 86.9047C30.5101 88.7555 32.2501 88.5445 34.2842 87.5272C35.5293 86.9047 36.4339 84.7827 35.3746 84.2732Z" fill="#FFEBEC"/>
<path fill-rule="evenodd" clip-rule="evenodd" d="M87.8637 84.1537L96.6537 79.9238C97.5548 79.4905 98.6365 80.0222 98.8155 81.0055C99.0657 82.3822 99.2478 86.4789 96.8498 87.2169C92.8033 88.462 89.9897 87.822 87.9191 86.9324C86.716 86.4157 86.684 84.7214 87.8637 84.1537Z" fill="#FFEBEC"/>
<path fill-rule="evenodd" clip-rule="evenodd" d="M61.2095 102.835H84.0577C84.6946 102.835 85.1033 102.159 84.8079 101.595C84.0649 100.175 82.8179 97.9113 81.9062 96.8695C81.731 96.6694 81.4745 96.5623 81.209 96.58L61.254 97.9154C61.2241 97.9176 61.1945 97.9179 61.1649 97.9166L42.1014 97.1898C41.8776 97.1811 41.6604 97.2614 41.4957 97.413C40.5501 98.2827 38.6883 100.055 37.3592 101.325C36.8079 101.852 37.1799 102.782 37.9428 102.784L61.2095 102.835Z" fill="#62A744"/>
<mask id="mask0_7729_104584" style="mask-type:alpha" maskUnits="userSpaceOnUse" x="36" y="0" width="50" height="56">
<path fill-rule="evenodd" clip-rule="evenodd" d="M36.1982 0H85.9984V55.8293H36.1982V0Z" fill="white"/>
</mask>
<g mask="url(#mask0_7729_104584)">
<path fill-rule="evenodd" clip-rule="evenodd" d="M61.0983 -0.00195312C55.0896 6.69761 42.7541 8.02635 36.1983 7.03398C36.1983 25.8388 36.0294 45.9375 61.0983 55.8277C86.1672 45.9375 85.9983 25.8388 85.9983 7.03398C79.4425 8.02635 67.107 6.69761 61.0983 -0.00195312Z" fill="#AC6000"/>
</g>
<path fill-rule="evenodd" clip-rule="evenodd" d="M61.0989 57.2262V1.39648C67.1075 8.09605 79.4431 9.42479 85.9989 8.43242C85.9989 27.2372 86.1678 47.3359 61.0989 57.2262Z" fill="#E6A92E"/>
<path fill-rule="evenodd" clip-rule="evenodd" d="M61.0983 57.2262V1.39648C55.0896 8.09605 42.7541 9.42479 36.1983 8.43242C36.1983 27.2372 36.0294 47.3359 61.0983 57.2262Z" fill="#FACD46"/>
<path fill-rule="evenodd" clip-rule="evenodd" d="M82.1633 12.5494C82.0712 29.2522 80.7132 44.6752 61.0974 53.0845V6.56445C68.3636 12.0762 78.4758 12.5522 81.7181 12.5522C81.8661 12.5522 82.0154 12.5508 82.1633 12.5494Z" fill="#E6A92E"/>
<path fill-rule="evenodd" clip-rule="evenodd" d="M61.0978 6.56445V53.0845C41.482 44.6752 40.1254 29.2522 40.0319 12.5494C40.1812 12.5508 40.3292 12.5522 40.4771 12.5522C43.7222 12.5522 53.8316 12.0734 61.0978 6.56445Z" fill="#FACD46"/>
</g>
<defs>
<clipPath id="clip0_7729_104584">
<rect width="121" height="132" fill="white"/>
</clipPath>
</defs>
</svg>
