<svg width="121" height="132" viewBox="0 0 121 132" fill="none" xmlns="http://www.w3.org/2000/svg">
<path fill-rule="evenodd" clip-rule="evenodd" d="M120.198 72C120.198 105.137 93.3353 132 60.1982 132C27.0612 132 0.198242 105.137 0.198242 72C0.198242 38.863 27.0612 12 60.1982 12C93.3353 12 120.198 38.863 120.198 72Z" fill="#E6F1F5"/>
<path fill-rule="evenodd" clip-rule="evenodd" d="M108.199 108H12.1986C22.3656 122.4 40.422 132 60.0817 132C79.7414 132 97.4118 123 108.199 108Z" fill="#D4D7D9"/>
<path fill-rule="evenodd" clip-rule="evenodd" d="M12.3483 107.971H108.397C108.397 107.971 98.4791 117.541 84.2344 119.45C67.9241 121.637 57.6547 116.717 45.2709 116.444C25.9366 116.017 12.3483 107.971 12.3483 107.971Z" fill="#666B70"/>
<path fill-rule="evenodd" clip-rule="evenodd" d="M88.5934 72.7223C88.5934 72.7223 89.583 68.668 92.2649 68.668H98.2989C98.2989 68.668 99.7674 68.9873 99.1287 71.5731C98.4906 74.1909 91.9773 71.9245 89.7426 74.3826L88.4017 75.9147L87.9871 75.5639L88.5934 72.7223Z" fill="#62A744"/>
<path fill-rule="evenodd" clip-rule="evenodd" d="M99.0291 71.0312C99.0291 71.0312 98.7178 71.6538 95.2938 72.2763C91.8698 72.8989 90.0345 71.3425 90.0345 71.3425L90.6247 73.5214C90.6247 73.5214 94.6678 73.6515 96.2276 73.5214C99.9629 73.2102 99.0291 71.0312 99.0291 71.0312Z" fill="#306700"/>
<path fill-rule="evenodd" clip-rule="evenodd" d="M34.4476 72.7223C34.4476 72.7223 33.4574 68.668 30.7762 68.668H24.7104C24.7104 68.668 23.2736 68.9873 23.8802 71.5731C24.5187 74.1909 31.0314 71.9245 33.2663 74.3826L34.607 75.9147L35.0222 75.5639L34.4476 72.7223Z" fill="#62A744"/>
<path fill-rule="evenodd" clip-rule="evenodd" d="M29.3041 71.0297C30.8604 69.7847 32.7281 69.1621 32.7281 69.1621C32.7281 69.1621 32.4168 69.4734 31.7942 71.6523C31.1717 73.8312 28.059 73.2086 25.2575 72.8974C24.0199 72.7601 24.0125 71.6523 24.0125 71.6523C24.0125 71.6523 27.5501 72.433 29.3041 71.0297Z" fill="#306700"/>
<path fill-rule="evenodd" clip-rule="evenodd" d="M99.4803 84.7188H95.266C93.127 84.7188 91.4034 86.4423 91.4034 88.5499V106.492C91.4034 108.631 93.127 110.354 95.266 110.354H99.4803C101.588 110.354 103.344 108.631 103.344 106.492V88.5499C103.344 86.4423 101.588 84.7188 99.4803 84.7188Z" fill="#1C1C1C"/>
<path fill-rule="evenodd" clip-rule="evenodd" d="M27.7757 84.7188H23.5296C21.4226 84.7188 19.6985 86.4423 19.6985 88.5499V106.492C19.6985 108.631 21.4226 110.354 23.5296 110.354H27.7757C29.8827 110.354 31.6386 108.631 31.6386 106.492V88.5499C31.6386 86.4423 29.8827 84.7188 27.7757 84.7188Z" fill="#1C1C1C"/>
<path fill-rule="evenodd" clip-rule="evenodd" d="M77.9939 57.5418C80.3524 57.9567 87.8908 61.6123 91.9448 71.3819C91.9448 71.3819 94.4035 72.0203 95.1699 72.3076C95.9359 72.5632 96.1915 75.4359 96.1915 75.4359C96.1915 75.4359 101.587 75.7235 101.587 86.8975C101.587 98.0392 102.448 101.327 99.8629 104.296C97.2762 107.266 61.5208 106.371 61.5208 106.371C61.5208 106.371 25.7326 107.266 23.1463 104.296C20.5605 101.327 21.4225 98.0392 21.4225 86.8975C21.4225 75.7235 26.8177 75.4359 26.8177 75.4359C26.8177 75.4359 27.0736 72.5632 27.8393 72.3076C28.6054 72.0203 31.0635 71.3819 31.0635 71.3819C35.1184 61.6123 42.673 58.0607 45.0153 57.5418C47.3576 57.0229 54.0503 56.4004 61.6764 56.4004C69.3026 56.4004 75.6351 57.1269 77.9939 57.5418Z" fill="#62A744"/>
<path fill-rule="evenodd" clip-rule="evenodd" d="M101.683 94.1776C101.683 94.1776 95.2943 100.602 85.9562 98.7346C78.4778 97.2389 71.9489 98.4233 56.3853 99.0458C40.8217 99.6684 35.8734 101.2 28.3709 99.6684C20.8686 98.1354 21.3274 86.9062 21.3274 86.9062C21.2315 92.4612 20.5891 101.847 23.1471 104.297C25.9909 107.021 61.5216 106.373 61.5216 106.373C61.5216 106.373 97.2771 107.267 99.8635 104.297C101.779 102.095 101.811 99.7328 101.683 94.1776Z" fill="#306700"/>
<path fill-rule="evenodd" clip-rule="evenodd" d="M61.3651 72.2763C49.848 72.2763 32.4168 71.3425 32.4168 71.3425C32.4168 71.3425 29.9929 72.8295 31.1717 74.7665C34.8612 80.8288 41.7801 84.6559 41.7801 84.6559C41.7801 84.6559 49.8166 87.5287 60.7425 87.5287C71.6685 87.5287 75.6966 86.3328 80.0414 84.7272C83.0707 83.6076 87.0204 81.4212 90.9359 76.3229C92.8545 73.8246 91.5584 71.0312 91.5584 71.0312C80.3526 72.5876 72.8821 72.2763 61.3651 72.2763Z" fill="#62A744"/>
<path fill-rule="evenodd" clip-rule="evenodd" d="M61.5212 72.4338H35.4217C35.4217 72.4338 34.0751 72.6268 32.7283 71.5361C34.2672 67.9456 36.5121 64.2904 39.5258 61.5328C40.5835 60.5068 45.802 58.5801 61.5212 58.5801C77.2404 58.5801 82.4256 60.5068 83.5157 61.5328C86.4976 64.2904 88.7743 67.9456 90.3135 71.5361C88.9343 72.6268 87.6201 72.4338 87.6201 72.4338H61.5212Z" fill="#262728"/>
<path fill-rule="evenodd" clip-rule="evenodd" d="M61.5205 84.0566H42.014C42.014 84.0566 41.1197 84.7592 40.9924 85.557C40.9924 85.557 45.7493 94.6554 61.5205 94.6554C77.2593 94.6554 82.0479 85.557 82.0479 85.557C81.9206 84.7592 80.9946 84.0566 80.9946 84.0566H61.5205Z" fill="#1C1C1C"/>
<path fill-rule="evenodd" clip-rule="evenodd" d="M35.3746 84.2732L26.1837 79.8506C25.3847 79.4659 24.4172 79.9089 24.2202 80.7739C23.9015 82.1743 24.0123 85.9709 26.1912 86.9047C30.5101 88.7555 32.2501 88.5445 34.2842 87.5272C35.5293 86.9047 36.4339 84.7827 35.3746 84.2732Z" fill="#FFEBEC"/>
<path fill-rule="evenodd" clip-rule="evenodd" d="M87.8636 84.1537L96.6536 79.9238C97.5547 79.4905 98.6364 80.0222 98.8154 81.0055C99.0656 82.3822 99.2477 86.4789 96.8497 87.2169C92.8031 88.462 89.9896 87.822 87.919 86.9324C86.7159 86.4157 86.6839 84.7214 87.8636 84.1537Z" fill="#FFEBEC"/>
<path fill-rule="evenodd" clip-rule="evenodd" d="M61.2095 102.835H84.0578C84.6946 102.835 85.1033 102.159 84.8079 101.595C84.0649 100.175 82.818 97.9113 81.9062 96.8695C81.731 96.6694 81.4745 96.5623 81.209 96.58L61.254 97.9154C61.2241 97.9176 61.1945 97.9179 61.165 97.9166L42.1014 97.1898C41.8776 97.1811 41.6604 97.2614 41.4957 97.413C40.5501 98.2827 38.6883 100.055 37.3592 101.325C36.8079 101.852 37.1799 102.782 37.9428 102.784L61.2095 102.835Z" fill="#62A744"/>
<path d="M84.1982 24C84.1982 37.2548 73.4531 48 60.1982 48C46.9434 48 36.1982 37.2548 36.1982 24C36.1982 10.7452 46.9434 0 60.1982 0C73.4531 0 84.1982 10.7452 84.1982 24Z" fill="#3E8500"/>
<path fill-rule="evenodd" clip-rule="evenodd" d="M60.197 39.7573C51.4941 39.7573 44.4395 32.7027 44.4395 23.9998C44.4395 15.2969 51.4941 8.24219 60.197 8.24219C68.8999 8.24219 75.9546 15.2969 75.9546 23.9998C75.9546 32.7027 68.8999 39.7573 60.197 39.7573ZM60.197 36.6058C67.1592 36.6058 72.8031 30.9619 72.8031 23.9998C72.8031 17.0376 67.1592 11.3937 60.197 11.3937C53.2349 11.3937 47.591 17.0376 47.591 23.9998C47.591 30.9619 53.2349 36.6058 60.197 36.6058ZM63.3485 27.1513H54.6819V30.3028H58.6213V33.4543H61.7728V30.3028H63.3485C65.5242 30.3028 67.2879 28.5391 67.2879 26.3634C67.2879 24.1877 65.5242 22.424 63.3485 22.424H57.0455C56.6104 22.424 56.2576 22.0713 56.2576 21.6361C56.2576 21.201 56.6104 20.8482 57.0455 20.8482H65.7122V17.6967H61.7728V14.5452H58.6213V17.6967H57.0455C54.8698 17.6967 53.1061 19.4605 53.1061 21.6361C53.1061 23.8118 54.8698 25.5755 57.0455 25.5755H63.3485C63.7837 25.5755 64.1364 25.9283 64.1364 26.3634C64.1364 26.7985 63.7837 27.1513 63.3485 27.1513Z" fill="white"/>
</svg>
