<svg width="124" height="132" viewBox="0 0 124 132" fill="none" xmlns="http://www.w3.org/2000/svg">
<path fill-rule="evenodd" clip-rule="evenodd" d="M83.5279 42.7787L83.4921 42.5065C83.4921 42.5065 83.5024 42.6116 83.5279 42.7787Z" fill="#DD876B"/>
<path fill-rule="evenodd" clip-rule="evenodd" d="M122 72C122 105.137 95.1374 132 62.0004 132C28.8634 132 2.00037 105.137 2.00037 72C2.00037 38.863 28.8634 12 62.0004 12C95.1374 12 122 38.863 122 72Z" fill="#E6F1F5"/>
<path fill-rule="evenodd" clip-rule="evenodd" d="M110 108H14.0004C24.1673 122.4 42.2238 132 61.8835 132C81.5432 132 99.2136 123 110 108Z" fill="#D4D7D9"/>
<path fill-rule="evenodd" clip-rule="evenodd" d="M96.3208 113.417C96.3208 116.098 81.5455 118.27 63.3208 118.27C45.0951 118.27 30.3208 116.098 30.3208 113.417C30.3208 110.737 45.0951 108.564 63.3208 108.564C81.5455 108.564 96.3208 110.737 96.3208 113.417Z" fill="#A2A6AB"/>
<path fill-rule="evenodd" clip-rule="evenodd" d="M86.6144 107.111H40.0262C35.7381 107.111 32.2615 103.634 32.2615 99.3458V58.5811C32.2615 54.2931 35.7381 50.8164 40.0262 50.8164H86.6144C90.9025 50.8164 94.3791 54.2931 94.3791 58.5811V99.3458C94.3791 103.634 90.9025 107.111 86.6144 107.111Z" fill="#3E8500"/>
<path fill-rule="evenodd" clip-rule="evenodd" d="M87.5857 111.964H39.0563C34.7683 111.964 31.2916 108.487 31.2916 104.199V59.5518C31.2916 55.2638 34.7683 51.7871 39.0563 51.7871H87.5857C91.8738 51.7871 95.3504 55.2638 95.3504 59.5518V104.199C95.3504 108.487 91.8738 111.964 87.5857 111.964Z" fill="white"/>
<mask id="mask0_7729_104581" style="mask-type:alpha" maskUnits="userSpaceOnUse" x="39" y="78" width="9" height="8">
<path fill-rule="evenodd" clip-rule="evenodd" d="M42.3326 83.3305L40.1488 81.1467L39.0569 82.2386L42.3326 85.5144L47.7922 80.0548L46.6993 78.9629L42.3326 83.3305Z" fill="white"/>
</mask>
<g mask="url(#mask0_7729_104581)">
<path fill-rule="evenodd" clip-rule="evenodd" d="M37.9644 86.6064H48.8835V77.8711H37.9644V86.6064Z" fill="#242C33"/>
</g>
<path fill-rule="evenodd" clip-rule="evenodd" d="M31.2916 67.3165V59.5518C31.2916 55.2638 34.7683 51.7871 39.0563 51.7871H87.5857C91.8738 51.7871 95.3504 55.2638 95.3504 59.5518V67.3165H31.2916Z" fill="#62A744"/>
<path fill-rule="evenodd" clip-rule="evenodd" d="M45.4687 57.611C45.4687 59.2192 44.1652 60.5227 42.5569 60.5227C40.9486 60.5227 39.6451 59.2192 39.6451 57.611C39.6451 56.0027 40.9486 54.6992 42.5569 54.6992C44.1652 54.6992 45.4687 56.0027 45.4687 57.611Z" fill="#3E8500"/>
<path fill-rule="evenodd" clip-rule="evenodd" d="M59.3112 57.611C59.3112 59.2192 58.0077 60.5227 56.3994 60.5227C54.7912 60.5227 53.4877 59.2192 53.4877 57.611C53.4877 56.0027 54.7912 54.6992 56.3994 54.6992C58.0077 54.6992 59.3112 56.0027 59.3112 57.611Z" fill="#3E8500"/>
<path fill-rule="evenodd" clip-rule="evenodd" d="M73.154 57.611C73.154 59.2192 71.8505 60.5227 70.2422 60.5227C68.6349 60.5227 67.3304 59.2192 67.3304 57.611C67.3304 56.0027 68.6349 54.6992 70.2422 54.6992C71.8505 54.6992 73.154 56.0027 73.154 57.611Z" fill="#3E8500"/>
<path fill-rule="evenodd" clip-rule="evenodd" d="M86.9954 57.611C86.9954 59.2192 85.6919 60.5227 84.0836 60.5227C82.4763 60.5227 81.1719 59.2192 81.1719 57.611C81.1719 56.0027 82.4763 54.6992 84.0836 54.6992C85.6919 54.6992 86.9954 56.0027 86.9954 57.611Z" fill="#3E8500"/>
<path fill-rule="evenodd" clip-rule="evenodd" d="M84.0848 58.5807C83.2811 58.5807 82.6289 57.9294 82.6289 57.1248V48.3895C82.6289 47.5849 83.2811 46.9336 84.0848 46.9336C84.8894 46.9336 85.5407 47.5849 85.5407 48.3895V57.1248C85.5407 57.9294 84.8894 58.5807 84.0848 58.5807Z" fill="#242C33"/>
<path fill-rule="evenodd" clip-rule="evenodd" d="M70.242 58.5807C69.4384 58.5807 68.7861 57.9294 68.7861 57.1248V48.3895C68.7861 47.5849 69.4384 46.9336 70.242 46.9336C71.0457 46.9336 71.6979 47.5849 71.6979 48.3895V57.1248C71.6979 57.9294 71.0457 58.5807 70.242 58.5807Z" fill="#242C33"/>
<path fill-rule="evenodd" clip-rule="evenodd" d="M56.4005 58.5807C55.5958 58.5807 54.9446 57.9294 54.9446 57.1248V48.3895C54.9446 47.5849 55.5958 46.9336 56.4005 46.9336C57.2041 46.9336 57.8563 47.5849 57.8563 48.3895V57.1248C57.8563 57.9294 57.2041 58.5807 56.4005 58.5807Z" fill="#242C33"/>
<path fill-rule="evenodd" clip-rule="evenodd" d="M42.5583 58.5807C41.7547 58.5807 41.1024 57.9294 41.1024 57.1248V48.3895C41.1024 47.5849 41.7547 46.9336 42.5583 46.9336C43.3629 46.9336 44.0142 47.5849 44.0142 48.3895V57.1248C44.0142 57.9294 43.3629 58.5807 42.5583 58.5807Z" fill="#242C33"/>
<path fill-rule="evenodd" clip-rule="evenodd" d="M53.9733 77.7909C53.1698 77.7909 52.5175 78.4433 52.5175 79.2468V84.0997C52.5175 84.9032 53.1698 85.5556 53.9733 85.5556H58.8263C59.6298 85.5556 60.2822 84.9032 60.2822 84.0997V79.2468C60.2822 78.4433 59.6298 77.7909 58.8263 77.7909H53.9733ZM51.5469 79.2468C51.5469 77.9072 52.6338 76.8203 53.9733 76.8203H58.8263C60.1658 76.8203 61.2528 77.9072 61.2528 79.2468V84.0997C61.2528 85.4393 60.1658 86.5262 58.8263 86.5262H53.9733C52.6338 86.5262 51.5469 85.4393 51.5469 84.0997V79.2468Z" fill="#BCBFC2"/>
<path fill-rule="evenodd" clip-rule="evenodd" d="M67.8155 77.7909C67.012 77.7909 66.3596 78.4433 66.3596 79.2468V84.0997C66.3596 84.9032 67.012 85.5556 67.8155 85.5556H72.6684C73.472 85.5556 74.1243 84.9032 74.1243 84.0997V79.2468C74.1243 78.4433 73.472 77.7909 72.6684 77.7909H67.8155ZM65.389 79.2468C65.389 77.9072 66.476 76.8203 67.8155 76.8203H72.6684C74.008 76.8203 75.0949 77.9072 75.0949 79.2468V84.0997C75.0949 85.4393 74.008 86.5262 72.6684 86.5262H67.8155C66.476 86.5262 65.389 85.4393 65.389 84.0997V79.2468Z" fill="#BCBFC2"/>
<path fill-rule="evenodd" clip-rule="evenodd" d="M81.658 77.7909C80.8545 77.7909 80.2022 78.4433 80.2022 79.2468V84.0997C80.2022 84.9032 80.8545 85.5556 81.658 85.5556H86.511C87.3145 85.5556 87.9669 84.9032 87.9669 84.0997V79.2468C87.9669 78.4433 87.3145 77.7909 86.511 77.7909H81.658ZM79.2316 79.2468C79.2316 77.9072 80.3185 76.8203 81.658 76.8203H86.511C87.8505 76.8203 88.9374 77.9072 88.9374 79.2468V84.0997C88.9374 85.4393 87.8505 86.5262 86.511 86.5262H81.658C80.3185 86.5262 79.2316 85.4393 79.2316 84.0997V79.2468Z" fill="#BCBFC2"/>
<path fill-rule="evenodd" clip-rule="evenodd" d="M53.9733 93.7616C53.1698 93.7616 52.5175 94.414 52.5175 95.2175V100.07C52.5175 100.874 53.1698 101.526 53.9733 101.526H58.8263C59.6298 101.526 60.2822 100.874 60.2822 100.07V95.2175C60.2822 94.414 59.6298 93.7616 58.8263 93.7616H53.9733ZM51.5469 95.2175C51.5469 93.8779 52.6338 92.791 53.9733 92.791H58.8263C60.1658 92.791 61.2528 93.8779 61.2528 95.2175V100.07C61.2528 101.41 60.1658 102.497 58.8263 102.497H53.9733C52.6338 102.497 51.5469 101.41 51.5469 100.07V95.2175Z" fill="#BCBFC2"/>
<path fill-rule="evenodd" clip-rule="evenodd" d="M40.1302 93.7616C39.3267 93.7616 38.6743 94.414 38.6743 95.2175V100.07C38.6743 100.874 39.3267 101.526 40.1302 101.526H44.9831C45.7867 101.526 46.439 100.874 46.439 100.07V95.2175C46.439 94.414 45.7867 93.7616 44.9831 93.7616H40.1302ZM37.7037 95.2175C37.7037 93.8779 38.7907 92.791 40.1302 92.791H44.9831C46.3227 92.791 47.4096 93.8779 47.4096 95.2175V100.07C47.4096 101.41 46.3227 102.497 44.9831 102.497H40.1302C38.7907 102.497 37.7037 101.41 37.7037 100.07V95.2175Z" fill="#BCBFC2"/>
<path fill-rule="evenodd" clip-rule="evenodd" d="M67.8155 93.7616C67.012 93.7616 66.3596 94.414 66.3596 95.2175V100.07C66.3596 100.874 67.012 101.526 67.8155 101.526H72.6684C73.472 101.526 74.1243 100.874 74.1243 100.07V95.2175C74.1243 94.414 73.472 93.7616 72.6684 93.7616H67.8155ZM65.389 95.2175C65.389 93.8779 66.476 92.791 67.8155 92.791H72.6684C74.008 92.791 75.0949 93.8779 75.0949 95.2175V100.07C75.0949 101.41 74.008 102.497 72.6684 102.497H67.8155C66.476 102.497 65.389 101.41 65.389 100.07V95.2175Z" fill="#BCBFC2"/>
<path fill-rule="evenodd" clip-rule="evenodd" d="M81.658 93.7616C80.8545 93.7616 80.2022 94.414 80.2022 95.2175V100.07C80.2022 100.874 80.8545 101.526 81.658 101.526H86.511C87.3145 101.526 87.9669 100.874 87.9669 100.07V95.2175C87.9669 94.414 87.3145 93.7616 86.511 93.7616H81.658ZM79.2316 95.2175C79.2316 93.8779 80.3185 92.791 81.658 92.791H86.511C87.8505 92.791 88.9374 93.8779 88.9374 95.2175V100.07C88.9374 101.41 87.8505 102.497 86.511 102.497H81.658C80.3185 102.497 79.2316 101.41 79.2316 100.07V95.2175Z" fill="#BCBFC2"/>
<path fill-rule="evenodd" clip-rule="evenodd" d="M82.7716 0H42.4034C39.7909 0 37.6542 2.11336 37.6542 4.69636V28.9609C37.6542 31.5439 39.7909 33.6573 42.4034 33.6573H55.5654L62.4605 45.4667L69.3555 33.6573H82.7716C85.3837 33.6573 87.5208 31.5439 87.5208 28.9609V4.69636C87.5208 2.11336 85.3837 0 82.7716 0Z" fill="#313D47"/>
<path fill-rule="evenodd" clip-rule="evenodd" d="M56.7207 9.29007L55.1945 13.8698C55.0235 14.3828 55.3001 14.9359 55.813 15.1069C55.9123 15.1396 56.0167 15.1572 56.121 15.1572H69.0532C69.5938 15.1572 70.03 14.7184 70.03 14.1778C70.03 14.0735 70.0137 13.9692 69.9797 13.8698L68.4536 9.29007H56.7207ZM70.4109 18.0901C68.1443 18.0901 66.6181 18.8281 65.8286 20.304C65.7016 20.5416 65.7909 20.8382 66.0298 20.9652C66.0989 21.0029 66.1794 21.023 66.2598 21.023H69.4328C69.9734 21.023 70.4109 20.5856 70.4109 20.0462V18.0901ZM54.765 18.0901V20.0462C54.765 20.5856 55.2025 21.023 55.7431 21.023H58.9161C59.1864 21.023 59.4051 20.8043 59.4039 20.534C59.4039 20.4536 59.3837 20.3744 59.346 20.304C58.5591 18.8268 57.0316 18.0901 54.765 18.0901ZM72.3651 16.623V23.9572C72.3651 24.4965 71.9276 24.934 71.3883 24.934H70.4102C69.8697 24.934 69.4322 24.4965 69.4322 23.9572V22.9791H55.7432V23.9572C55.7432 24.4965 55.3057 24.934 54.7651 24.934H53.7883C53.2477 24.934 52.8102 24.4965 52.8102 23.9572V16.623L51.5946 16.32C51.1596 16.2107 50.8541 15.8197 50.8541 15.3722V14.6682C50.8541 14.3979 51.0729 14.1791 51.3432 14.1791H53.1761L55.2667 8.6037C55.5533 7.84061 56.2825 7.33398 57.0984 7.33398H68.077C68.8916 7.33398 69.622 7.84061 69.9086 8.6037L71.9993 14.1791H73.8322C74.1025 14.1791 74.3212 14.3979 74.3212 14.6682V15.3722C74.3212 15.8197 74.0157 16.2107 73.5808 16.32L72.3651 16.623Z" fill="white"/>
</svg>
