<svg width="40" height="40" viewBox="0 0 40 40" fill="none" xmlns="http://www.w3.org/2000/svg">
<path fill-rule="evenodd" clip-rule="evenodd" d="M13.3393 30.5703C14.2363 30.688 15.1232 30.7905 15.9949 30.8672C15.6271 30.1252 15.5615 29.24 15.7731 28.3704H14.7856L16.2973 25.1879L17.809 28.3704H16.8162C16.5138 29.3016 16.6349 30.2582 17.2345 30.8977C17.2546 30.9233 17.2798 30.9437 17.3001 30.9694C18.2271 31.0309 19.1392 31.0667 20.036 31.0769C19.5726 30.2941 19.4718 29.327 19.7036 28.3704H18.716L20.2277 25.1879L21.7392 28.3704H20.7465C20.4443 29.3016 20.5652 30.2582 21.1648 30.8977C21.2153 30.949 21.2656 31.0103 21.3109 31.0667C22.1576 31.0463 23.0192 31.0053 23.891 30.9387C23.493 30.1815 23.4173 29.2707 23.634 28.3704H22.6463L24.158 25.1879L25.6697 28.3704H24.6771C24.3797 29.276 24.4856 30.2019 25.0449 30.8416C25.8158 30.7647 26.5969 30.6726 27.388 30.5703C27.9724 30.4936 28.9096 30.0176 29.2625 29.4191C31.7264 25.2441 30.9454 18.5826 28.1438 10.1303C27.5945 8.48297 26.4709 8.15537 24.9188 8.11963H15.8085C14.2614 8.15537 13.1328 8.48297 12.5885 10.1303C9.78193 18.5826 9.00084 25.2441 11.465 29.4191C11.8175 30.0176 12.7548 30.4936 13.3393 30.5703ZM17.4209 7.07594H23.3064C24.3293 7.07594 25.448 7.10662 25.4631 5.78666C25.4782 4.59973 25.0599 2.93178 24.5207 1.28927C24.1378 0.127971 22.6866 0 20.3636 0C18.0406 0 16.5895 0.127971 16.2064 1.28927C15.6672 2.93178 15.2541 4.59973 15.2643 5.78666C15.2794 7.10662 16.398 7.07594 17.4209 7.07594ZM20.3636 32.1207C19.5473 32.1207 18.731 32.0951 17.9147 32.0543C18.2674 33.1389 18.0608 34.4386 17.3453 35.5537L16.4986 35.0012C17.1487 33.9984 17.2696 32.8268 16.7859 31.9827C15.5867 31.8904 14.3923 31.7624 13.2033 31.6042C12.1854 31.4709 11.8325 30.9542 10.6333 31.1282C9.20733 31.3329 8.7791 32.5557 9.10156 33.8398C10.064 37.6668 9.9582 40 15.1734 40H25.5537C30.7689 40 30.6683 37.6668 31.6258 33.8398C31.948 32.5557 31.5198 31.3329 30.0989 31.1282C28.8944 30.9542 28.5417 31.4709 27.5239 31.6042C26.9143 31.6859 26.2996 31.7576 25.6897 31.824C26.1533 32.9497 25.972 34.3567 25.206 35.5537L24.3595 35.0012C25.0247 33.978 25.1354 32.7757 24.6116 31.9263C23.6943 32.0083 22.7772 32.0644 21.8552 32.0951C22.1928 33.1696 21.9812 34.454 21.2757 35.5537L20.4292 35.0012C21.0439 34.0497 21.1848 32.9497 20.7868 32.1157C20.6459 32.1207 20.5047 32.1207 20.3636 32.1207Z" fill="#313D47"/>
</svg>
