<svg width="121" height="133" viewBox="0 0 121 133" fill="none" xmlns="http://www.w3.org/2000/svg">
<mask id="mask0_7729_104598" style="mask-type:alpha" maskUnits="userSpaceOnUse" x="0" y="12" width="121" height="121">
<path fill-rule="evenodd" clip-rule="evenodd" d="M0.198242 72.1172C0.198242 105.254 27.0612 132.117 60.1982 132.117C93.3352 132.117 120.198 105.254 120.198 72.1172C120.198 38.9802 93.3352 12.1172 60.1982 12.1172C27.0612 12.1172 0.198242 38.9802 0.198242 72.1172Z" fill="white"/>
</mask>
<g mask="url(#mask0_7729_104598)">
<path fill-rule="evenodd" clip-rule="evenodd" d="M-0.783691 133.1H121.18V11.1348H-0.783691V133.1Z" fill="#D4D7D9"/>
</g>
<mask id="mask1_7729_104598" style="mask-type:alpha" maskUnits="userSpaceOnUse" x="0" y="12" width="121" height="87">
<path fill-rule="evenodd" clip-rule="evenodd" d="M0.198242 72.1172C0.198242 81.7412 2.46724 90.8352 6.49624 98.8962H113.9C117.928 90.8352 120.198 81.7412 120.198 72.1172C120.198 38.9802 93.3352 12.1172 60.1982 12.1172C27.0612 12.1172 0.198242 38.9802 0.198242 72.1172Z" fill="white"/>
</mask>
<g mask="url(#mask1_7729_104598)">
<path fill-rule="evenodd" clip-rule="evenodd" d="M-0.783691 99.8788H121.181V11.1348H-0.783691V99.8788Z" fill="#E6F1F5"/>
</g>
<mask id="mask2_7729_104598" style="mask-type:alpha" maskUnits="userSpaceOnUse" x="7" y="98" width="107" height="6">
<path fill-rule="evenodd" clip-rule="evenodd" d="M7.31763 98.8965C7.31763 98.8965 16.8256 102.477 38.5246 103.007C52.4236 103.346 77.4836 103.846 91.6506 102.752C108.492 101.45 113.901 98.8965 113.901 98.8965H7.31763Z" fill="white"/>
</mask>
<g mask="url(#mask2_7729_104598)">
<path fill-rule="evenodd" clip-rule="evenodd" d="M6.33447 116.828H114.882V97.9141H6.33447V116.828Z" fill="#666B70"/>
</g>
<mask id="mask3_7729_104598" style="mask-type:alpha" maskUnits="userSpaceOnUse" x="88" y="67" width="14" height="10">
<path fill-rule="evenodd" clip-rule="evenodd" d="M98.6286 67.5654L89.0556 72.1714C87.7716 72.7894 87.8066 74.6344 89.1166 75.1974C91.3716 76.1664 94.4356 76.8634 98.8426 75.5074C101.454 74.7034 101.256 70.2414 100.983 68.7434C100.836 67.9294 100.119 67.3984 99.3526 67.3984C99.1106 67.3984 98.8636 67.4514 98.6286 67.5654Z" fill="white"/>
</mask>
<g mask="url(#mask3_7729_104598)">
<path fill-rule="evenodd" clip-rule="evenodd" d="M86.7891 77.8463H102.436V66.1113H86.7891V77.8463Z" fill="#FFEBEC"/>
</g>
<mask id="mask4_7729_104598" style="mask-type:alpha" maskUnits="userSpaceOnUse" x="0" y="12" width="121" height="121">
<path fill-rule="evenodd" clip-rule="evenodd" d="M0.198242 72.1172C0.198242 105.254 27.0612 132.117 60.1982 132.117C93.3352 132.117 120.198 105.254 120.198 72.1172C120.198 38.9802 93.3352 12.1172 60.1982 12.1172C27.0612 12.1172 0.198242 38.9802 0.198242 72.1172Z" fill="white"/>
</mask>
<g mask="url(#mask4_7729_104598)">
<path fill-rule="evenodd" clip-rule="evenodd" d="M14.883 99.3046H21.004C26.201 99.3046 30.415 92.8046 30.415 84.7866C30.415 76.7676 26.201 70.2676 21.004 70.2676H14.883C9.22301 70.2676 9.03801 99.3046 14.883 99.3046Z" fill="#1B1B1B"/>
</g>
<mask id="mask5_7729_104598" style="mask-type:alpha" maskUnits="userSpaceOnUse" x="0" y="12" width="121" height="121">
<path fill-rule="evenodd" clip-rule="evenodd" d="M0.198242 72.1172C0.198242 105.254 27.0612 132.117 60.1982 132.117C93.3352 132.117 120.198 105.254 120.198 72.1172C120.198 38.9802 93.3352 12.1172 60.1982 12.1172C27.0612 12.1172 0.198242 38.9802 0.198242 72.1172Z" fill="white"/>
</mask>
<g mask="url(#mask5_7729_104598)">
<path fill-rule="evenodd" clip-rule="evenodd" d="M14.8829 99.3046C9.69992 99.3046 5.47192 92.7826 5.47192 84.7856C5.47192 76.7896 9.69992 70.2676 14.8829 70.2676C20.0669 70.2676 24.2939 76.7896 24.2939 84.7856C24.2939 92.7826 20.0669 99.3046 14.8829 99.3046Z" fill="#1B1B1B"/>
</g>
<mask id="mask6_7729_104598" style="mask-type:alpha" maskUnits="userSpaceOnUse" x="0" y="12" width="121" height="121">
<path fill-rule="evenodd" clip-rule="evenodd" d="M0.198242 72.1172C0.198242 105.254 27.0612 132.117 60.1982 132.117C93.3352 132.117 120.198 105.254 120.198 72.1172C120.198 38.9802 93.3352 12.1172 60.1982 12.1172C27.0612 12.1172 0.198242 38.9802 0.198242 72.1172Z" fill="white"/>
</mask>
<g mask="url(#mask6_7729_104598)">
<path fill-rule="evenodd" clip-rule="evenodd" d="M14.8827 95.3865C11.0987 95.3865 8.01172 90.6245 8.01172 84.7855C8.01172 78.9475 11.0987 74.1855 14.8827 74.1855C18.6677 74.1855 21.7547 78.9475 21.7547 84.7855C21.7547 90.6245 18.6677 95.3865 14.8827 95.3865Z" fill="#1B1B1B"/>
</g>
<mask id="mask7_7729_104598" style="mask-type:alpha" maskUnits="userSpaceOnUse" x="0" y="12" width="121" height="121">
<path fill-rule="evenodd" clip-rule="evenodd" d="M0.198242 72.1172C0.198242 105.254 27.0612 132.117 60.1982 132.117C93.3352 132.117 120.198 105.254 120.198 72.1172C120.198 38.9802 93.3352 12.1172 60.1982 12.1172C27.0612 12.1172 0.198242 38.9802 0.198242 72.1172Z" fill="white"/>
</mask>
<g mask="url(#mask7_7729_104598)">
<path fill-rule="evenodd" clip-rule="evenodd" d="M14.8825 93.8774C11.6365 93.8774 8.98853 89.7924 8.98853 84.7844C8.98853 79.7764 11.6365 75.6914 14.8825 75.6914C18.1285 75.6914 20.7765 79.7764 20.7765 84.7844C20.7765 89.7924 18.1285 93.8774 14.8825 93.8774Z" fill="#1B1B1B"/>
</g>
<mask id="mask8_7729_104598" style="mask-type:alpha" maskUnits="userSpaceOnUse" x="0" y="12" width="121" height="121">
<path fill-rule="evenodd" clip-rule="evenodd" d="M0.198242 72.1172C0.198242 105.254 27.0612 132.117 60.1982 132.117C93.3352 132.117 120.198 105.254 120.198 72.1172C120.198 38.9802 93.3352 12.1172 60.1982 12.1172C27.0612 12.1172 0.198242 38.9802 0.198242 72.1172Z" fill="white"/>
</mask>
<g mask="url(#mask8_7729_104598)">
<path fill-rule="evenodd" clip-rule="evenodd" d="M16.023 93.7083C18.733 92.8893 20.777 89.2063 20.777 84.7863C20.777 80.3663 18.733 76.6823 16.023 75.8633C13.313 76.6823 11.269 80.3663 11.269 84.7863C11.269 89.2063 13.313 92.8893 16.023 93.7083Z" fill="#1B1B1B"/>
</g>
<mask id="mask9_7729_104598" style="mask-type:alpha" maskUnits="userSpaceOnUse" x="0" y="12" width="121" height="121">
<path fill-rule="evenodd" clip-rule="evenodd" d="M0.198242 72.1172C0.198242 105.254 27.0612 132.117 60.1982 132.117C93.3352 132.117 120.198 105.254 120.198 72.1172C120.198 38.9802 93.3352 12.1172 60.1982 12.1172C27.0612 12.1172 0.198242 38.9802 0.198242 72.1172Z" fill="white"/>
</mask>
<g mask="url(#mask9_7729_104598)">
<path fill-rule="evenodd" clip-rule="evenodd" d="M14.4958 91.892C13.8328 91.352 13.4568 90.647 13.6218 90.062C13.7868 89.478 14.6458 88.875 15.2178 89.335C15.7878 89.803 16.0498 91.317 15.8838 91.901C15.7188 92.485 15.1588 92.43 14.4958 91.892ZM11.9831 86.517C11.8181 85.302 11.9091 84.363 12.2811 84.217C12.6531 84.071 13.4671 84.834 13.6121 85.88C13.7521 86.927 13.2171 88.218 12.8451 88.364C12.4731 88.509 12.1491 87.733 11.9831 86.517ZM12.8918 79.833C13.3488 78.857 13.8378 78.391 14.1368 78.793C14.4358 79.196 14.5928 80.75 14.2018 81.595C13.8058 82.434 12.8778 82.53 12.5788 82.128C12.2798 81.726 12.4358 80.812 12.8918 79.833ZM16.5556 76.868C17.2906 76.869 17.8096 77.23 17.8096 77.878C17.8096 78.526 17.1886 79.699 16.5556 79.704C15.9216 79.699 15.3006 78.526 15.3006 77.878C15.3006 77.23 15.8206 76.869 16.5556 76.868ZM15.7875 93.772C16.8205 93.527 17.7635 92.868 18.5465 91.909L18.5395 91.915C17.8775 92.456 17.3175 92.515 17.1505 91.931C16.9845 91.348 17.2425 89.833 17.8115 89.361C18.3835 88.898 19.2435 89.495 19.4095 90.079C19.4545 90.235 19.4605 90.4 19.4315 90.568C19.7755 89.925 20.0625 89.208 20.2825 88.435C20.2595 88.433 20.2375 88.427 20.2145 88.418C19.8415 88.275 19.3045 86.988 19.4425 85.939C19.5855 84.896 20.3935 84.13 20.7675 84.268C20.7405 83.532 20.6565 82.821 20.5235 82.142L20.5065 82.166C20.2085 82.57 19.2795 82.479 18.8825 81.643C18.4905 80.8 18.6435 79.245 18.9415 78.84C19.0325 78.717 19.1425 78.674 19.2635 78.703C18.3665 77.167 17.1355 76.106 15.7465 75.791C13.1605 76.435 10.4465 79.142 10.4465 84.776C10.4465 90.411 13.1825 93.158 15.7875 93.772Z" fill="#1B1B1B"/>
</g>
<mask id="mask10_7729_104598" style="mask-type:alpha" maskUnits="userSpaceOnUse" x="0" y="12" width="121" height="121">
<path fill-rule="evenodd" clip-rule="evenodd" d="M0.198242 72.1172C0.198242 105.254 27.0612 132.117 60.1982 132.117C93.3352 132.117 120.198 105.254 120.198 72.1172C120.198 38.9802 93.3352 12.1172 60.1982 12.1172C27.0612 12.1172 0.198242 38.9802 0.198242 72.1172Z" fill="white"/>
</mask>
<g mask="url(#mask10_7729_104598)">
<path fill-rule="evenodd" clip-rule="evenodd" d="M19.0806 79.8721C19.5386 80.8471 19.6966 81.7611 19.3976 82.1651C19.0996 82.5691 18.1706 82.4781 17.7736 81.6421C17.3806 80.7981 17.5336 79.2431 17.8326 78.8391C18.1316 78.4351 18.6216 78.8991 19.0806 79.8721ZM19.9626 86.5661C19.7986 87.7811 19.4766 88.5611 19.1036 88.4171C18.7316 88.2741 18.1946 86.9861 18.3326 85.9381C18.4756 84.8921 19.2876 84.1241 19.6596 84.2681C20.0326 84.4111 20.1246 85.3501 19.9626 86.5661ZM17.4301 91.9141C16.7681 92.4551 16.2081 92.5141 16.0411 91.9301C15.8751 91.3471 16.1331 89.8321 16.7021 89.3601C17.2741 88.8971 18.1341 89.4941 18.3001 90.0781C18.4661 90.6621 18.0911 91.3691 17.4301 91.9141ZM13.3856 91.8911C12.7226 91.3511 12.3456 90.6461 12.5116 90.0611C12.6766 89.4771 13.5356 88.8741 14.1076 89.3341C14.6776 89.8021 14.9396 91.3161 14.7736 91.9001C14.6086 92.4841 14.0486 92.4291 13.3856 91.8911ZM10.8726 86.5161C10.7076 85.3011 10.7986 84.3611 11.1706 84.2161C11.5426 84.0701 12.3566 84.8331 12.5016 85.8791C12.6416 86.9261 12.1066 88.2171 11.7346 88.3631C11.3626 88.5081 11.0386 87.7311 10.8726 86.5161ZM11.7808 79.8321C12.2388 78.8561 12.7278 78.3891 13.0268 78.7921C13.3268 79.1951 13.4828 80.7491 13.0918 81.5941C12.6958 82.4331 11.7678 82.5291 11.4688 82.1271C11.1688 81.7241 11.3258 80.8101 11.7808 79.8321ZM15.4441 76.8671C16.1791 76.8681 16.6991 77.2291 16.6991 77.8771C16.6991 78.5241 16.0781 79.6981 15.4441 79.7031C14.8111 79.6981 14.1901 78.5241 14.1901 77.8771C14.1901 77.2291 14.7091 76.8681 15.4441 76.8671ZM15.2899 93.8561C18.3059 93.5391 20.6979 89.7231 20.7749 85.0201L20.7759 85.0101L20.7769 84.7851V84.7751C20.7739 79.9051 18.2889 75.9321 15.1679 75.7031C12.3289 75.9281 10.0669 79.9031 10.0669 84.7751C10.0669 89.7171 12.3939 93.7371 15.2899 93.8561Z" fill="#1B1B1B"/>
</g>
<mask id="mask11_7729_104598" style="mask-type:alpha" maskUnits="userSpaceOnUse" x="0" y="12" width="121" height="121">
<path fill-rule="evenodd" clip-rule="evenodd" d="M0.198242 72.1172C0.198242 105.254 27.0612 132.117 60.1982 132.117C93.3352 132.117 120.198 105.254 120.198 72.1172C120.198 38.9802 93.3352 12.1172 60.1982 12.1172C27.0612 12.1172 0.198242 38.9802 0.198242 72.1172Z" fill="white"/>
</mask>
<g mask="url(#mask11_7729_104598)">
<path fill-rule="evenodd" clip-rule="evenodd" d="M15.4222 82.6836C14.6332 82.6836 13.9932 83.6696 13.9932 84.8866C13.9932 86.1026 14.6332 87.0896 15.4222 87.0896C16.2112 87.0896 16.8502 86.1026 16.8502 84.8866C16.8502 83.6696 16.2112 82.6836 15.4222 82.6836Z" fill="#1B1B1B"/>
</g>
<mask id="mask12_7729_104598" style="mask-type:alpha" maskUnits="userSpaceOnUse" x="0" y="12" width="121" height="121">
<path fill-rule="evenodd" clip-rule="evenodd" d="M0.198242 72.1172C0.198242 105.254 27.0612 132.117 60.1982 132.117C93.3352 132.117 120.198 105.254 120.198 72.1172C120.198 38.9802 93.3352 12.1172 60.1982 12.1172C27.0612 12.1172 0.198242 38.9802 0.198242 72.1172Z" fill="white"/>
</mask>
<g mask="url(#mask12_7729_104598)">
<path fill-rule="evenodd" clip-rule="evenodd" d="M84.2648 99.3046H90.3858C95.5828 99.3046 99.7968 92.8046 99.7968 84.7866C99.7968 76.7676 95.5828 70.2676 90.3858 70.2676H84.2648C78.6048 70.2676 78.4198 99.3046 84.2648 99.3046Z" fill="#1B1B1B"/>
</g>
<mask id="mask13_7729_104598" style="mask-type:alpha" maskUnits="userSpaceOnUse" x="0" y="12" width="121" height="121">
<path fill-rule="evenodd" clip-rule="evenodd" d="M0.198242 72.1172C0.198242 105.254 27.0612 132.117 60.1982 132.117C93.3352 132.117 120.198 105.254 120.198 72.1172C120.198 38.9802 93.3352 12.1172 60.1982 12.1172C27.0612 12.1172 0.198242 38.9802 0.198242 72.1172Z" fill="white"/>
</mask>
<g mask="url(#mask13_7729_104598)">
<path fill-rule="evenodd" clip-rule="evenodd" d="M84.2655 99.3046C79.0825 99.3046 74.8545 92.7826 74.8545 84.7856C74.8545 76.7896 79.0825 70.2676 84.2655 70.2676C89.4495 70.2676 93.6765 76.7896 93.6765 84.7856C93.6765 92.7826 89.4495 99.3046 84.2655 99.3046Z" fill="#1B1B1B"/>
</g>
<mask id="mask14_7729_104598" style="mask-type:alpha" maskUnits="userSpaceOnUse" x="0" y="12" width="121" height="121">
<path fill-rule="evenodd" clip-rule="evenodd" d="M0.198242 72.1172C0.198242 105.254 27.0612 132.117 60.1982 132.117C93.3352 132.117 120.198 105.254 120.198 72.1172C120.198 38.9802 93.3352 12.1172 60.1982 12.1172C27.0612 12.1172 0.198242 38.9802 0.198242 72.1172Z" fill="white"/>
</mask>
<g mask="url(#mask14_7729_104598)">
<path fill-rule="evenodd" clip-rule="evenodd" d="M84.2653 95.3865C80.4813 95.3865 77.3943 90.6245 77.3943 84.7855C77.3943 78.9475 80.4813 74.1855 84.2653 74.1855C88.0503 74.1855 91.1373 78.9475 91.1373 84.7855C91.1373 90.6245 88.0503 95.3865 84.2653 95.3865Z" fill="#1B1B1B"/>
</g>
<mask id="mask15_7729_104598" style="mask-type:alpha" maskUnits="userSpaceOnUse" x="0" y="12" width="121" height="121">
<path fill-rule="evenodd" clip-rule="evenodd" d="M0.198242 72.1172C0.198242 105.254 27.0612 132.117 60.1982 132.117C93.3352 132.117 120.198 105.254 120.198 72.1172C120.198 38.9802 93.3352 12.1172 60.1982 12.1172C27.0612 12.1172 0.198242 38.9802 0.198242 72.1172Z" fill="white"/>
</mask>
<g mask="url(#mask15_7729_104598)">
<path fill-rule="evenodd" clip-rule="evenodd" d="M84.2653 93.8774C81.0193 93.8774 78.3713 89.7924 78.3713 84.7844C78.3713 79.7764 81.0193 75.6914 84.2653 75.6914C87.5113 75.6914 90.1593 79.7764 90.1593 84.7844C90.1593 89.7924 87.5113 93.8774 84.2653 93.8774Z" fill="#1B1B1B"/>
</g>
<mask id="mask16_7729_104598" style="mask-type:alpha" maskUnits="userSpaceOnUse" x="0" y="12" width="121" height="121">
<path fill-rule="evenodd" clip-rule="evenodd" d="M0.198242 72.1172C0.198242 105.254 27.0612 132.117 60.1982 132.117C93.3352 132.117 120.198 105.254 120.198 72.1172C120.198 38.9802 93.3352 12.1172 60.1982 12.1172C27.0612 12.1172 0.198242 38.9802 0.198242 72.1172Z" fill="white"/>
</mask>
<g mask="url(#mask16_7729_104598)">
<path fill-rule="evenodd" clip-rule="evenodd" d="M85.4049 93.7083C88.1149 92.8893 90.1589 89.2063 90.1589 84.7863C90.1589 80.3663 88.1149 76.6823 85.4049 75.8633C82.6949 76.6823 80.6509 80.3663 80.6509 84.7863C80.6509 89.2063 82.6949 92.8893 85.4049 93.7083Z" fill="#1B1B1B"/>
</g>
<mask id="mask17_7729_104598" style="mask-type:alpha" maskUnits="userSpaceOnUse" x="0" y="12" width="121" height="121">
<path fill-rule="evenodd" clip-rule="evenodd" d="M0.198242 72.1172C0.198242 105.254 27.0612 132.117 60.1982 132.117C93.3352 132.117 120.198 105.254 120.198 72.1172C120.198 38.9802 93.3352 12.1172 60.1982 12.1172C27.0612 12.1172 0.198242 38.9802 0.198242 72.1172Z" fill="white"/>
</mask>
<g mask="url(#mask17_7729_104598)">
<path fill-rule="evenodd" clip-rule="evenodd" d="M83.8781 91.892C83.2151 91.352 82.8391 90.647 83.0041 90.062C83.1691 89.478 84.0281 88.875 84.6001 89.335C85.1701 89.803 85.4321 91.317 85.2661 91.901C85.1011 92.485 84.5411 92.43 83.8781 91.892ZM81.3655 86.517C81.2005 85.302 81.2915 84.363 81.6635 84.217C82.0355 84.071 82.8495 84.834 82.9945 85.88C83.1345 86.927 82.5995 88.218 82.2275 88.364C81.8555 88.509 81.5315 87.733 81.3655 86.517ZM82.2742 79.833C82.7312 78.857 83.2202 78.391 83.5192 78.793C83.8192 79.196 83.9752 80.75 83.5842 81.595C83.1882 82.434 82.2602 82.53 81.9612 82.128C81.6622 81.726 81.8182 80.812 82.2742 79.833ZM85.9373 76.868C86.6723 76.869 87.1913 77.23 87.1913 77.878C87.1913 78.526 86.5703 79.699 85.9373 79.704C85.3033 79.699 84.6823 78.526 84.6823 77.878C84.6823 77.23 85.2023 76.869 85.9373 76.868ZM85.1703 93.772C86.2033 93.527 87.1463 92.868 87.9293 91.909L87.9223 91.915C87.2603 92.456 86.7003 92.515 86.5333 91.931C86.3673 91.348 86.6253 89.833 87.1943 89.361C87.7663 88.898 88.6263 89.495 88.7923 90.079C88.8373 90.235 88.8433 90.4 88.8143 90.568C89.1583 89.925 89.4453 89.208 89.6653 88.435C89.6423 88.433 89.6203 88.427 89.5973 88.418C89.2243 88.275 88.6873 86.988 88.8253 85.939C88.9683 84.896 89.7763 84.13 90.1503 84.268C90.1233 83.532 90.0393 82.821 89.9063 82.142L89.8893 82.166C89.5913 82.57 88.6633 82.479 88.2653 81.643C87.8733 80.8 88.0263 79.245 88.3243 78.84C88.4153 78.717 88.5253 78.674 88.6463 78.703C87.7493 77.167 86.5183 76.106 85.1293 75.791C82.5433 76.435 79.8293 79.142 79.8293 84.776C79.8293 90.411 82.5653 93.158 85.1703 93.772Z" fill="#1B1B1B"/>
</g>
<mask id="mask18_7729_104598" style="mask-type:alpha" maskUnits="userSpaceOnUse" x="0" y="12" width="121" height="121">
<path fill-rule="evenodd" clip-rule="evenodd" d="M0.198242 72.1172C0.198242 105.254 27.0612 132.117 60.1982 132.117C93.3352 132.117 120.198 105.254 120.198 72.1172C120.198 38.9802 93.3352 12.1172 60.1982 12.1172C27.0612 12.1172 0.198242 38.9802 0.198242 72.1172Z" fill="white"/>
</mask>
<g mask="url(#mask18_7729_104598)">
<path fill-rule="evenodd" clip-rule="evenodd" d="M88.4635 79.8721C88.9215 80.8471 89.0795 81.7611 88.7805 82.1651C88.4825 82.5691 87.5535 82.4781 87.1565 81.6421C86.7635 80.7981 86.9165 79.2431 87.2155 78.8391C87.5145 78.4351 88.0045 78.8991 88.4635 79.8721ZM89.3462 86.5661C89.1822 87.7811 88.8602 88.5611 88.4872 88.4171C88.1152 88.2741 87.5782 86.9861 87.7162 85.9381C87.8592 84.8921 88.6712 84.1241 89.0432 84.2681C89.4162 84.4111 89.5082 85.3501 89.3462 86.5661ZM86.813 91.9141C86.151 92.4551 85.591 92.5141 85.424 91.9301C85.258 91.3471 85.516 89.8321 86.085 89.3601C86.656 88.8971 87.517 89.4941 87.683 90.0781C87.849 90.6621 87.474 91.3691 86.813 91.9141ZM82.7684 91.8911C82.1054 91.3511 81.7284 90.6461 81.8944 90.0611C82.0594 89.4771 82.9184 88.8741 83.4904 89.3341C84.0604 89.8021 84.3214 91.3161 84.1564 91.9001C83.9914 92.4841 83.4314 92.4291 82.7684 91.8911ZM80.2564 86.5161C80.0914 85.3011 80.1814 84.3611 80.5544 84.2161C80.9264 84.0701 81.7404 84.8331 81.8854 85.8791C82.0254 86.9261 81.4904 88.2171 81.1184 88.3631C80.7464 88.5081 80.4224 87.7311 80.2564 86.5161ZM81.1643 79.8321C81.6223 78.8561 82.1113 78.3891 82.4103 78.7921C82.7103 79.1951 82.8663 80.7491 82.4753 81.5941C82.0793 82.4331 81.1513 82.5291 80.8523 82.1271C80.5523 81.7241 80.7093 80.8101 81.1643 79.8321ZM84.827 76.8671C85.562 76.8681 86.082 77.2291 86.082 77.8771C86.082 78.5241 85.461 79.6981 84.827 79.7031C84.194 79.6981 83.573 78.5241 83.573 77.8771C83.573 77.2291 84.092 76.8681 84.827 76.8671ZM84.6717 93.8561C87.6877 93.5391 90.0797 89.7231 90.1567 85.0201L90.1577 85.0101L90.1587 84.7851V84.7751C90.1557 79.9051 87.6707 75.9321 84.5497 75.7031C81.7107 75.9281 79.4487 79.9031 79.4487 84.7751C79.4487 89.7171 81.7757 93.7371 84.6717 93.8561Z" fill="#1B1B1B"/>
</g>
<mask id="mask19_7729_104598" style="mask-type:alpha" maskUnits="userSpaceOnUse" x="0" y="12" width="121" height="121">
<path fill-rule="evenodd" clip-rule="evenodd" d="M0.198242 72.1172C0.198242 105.254 27.0612 132.117 60.1982 132.117C93.3352 132.117 120.198 105.254 120.198 72.1172C120.198 38.9802 93.3352 12.1172 60.1982 12.1172C27.0612 12.1172 0.198242 38.9802 0.198242 72.1172Z" fill="white"/>
</mask>
<g mask="url(#mask19_7729_104598)">
<path fill-rule="evenodd" clip-rule="evenodd" d="M84.8047 82.6836C84.0157 82.6836 83.3767 83.6696 83.3767 84.8866C83.3767 86.1026 84.0157 87.0896 84.8047 87.0896C85.5937 87.0896 86.2337 86.1026 86.2337 84.8866C86.2337 83.6696 85.5937 82.6836 84.8047 82.6836Z" fill="#1B1B1B"/>
</g>
<mask id="mask20_7729_104598" style="mask-type:alpha" maskUnits="userSpaceOnUse" x="0" y="12" width="121" height="121">
<path fill-rule="evenodd" clip-rule="evenodd" d="M0.198242 72.1172C0.198242 105.254 27.0612 132.117 60.1982 132.117C93.3352 132.117 120.198 105.254 120.198 72.1172C120.198 38.9802 93.3352 12.1172 60.1982 12.1172C27.0612 12.1172 0.198242 38.9802 0.198242 72.1172Z" fill="white"/>
</mask>
<g mask="url(#mask20_7729_104598)">
<path fill-rule="evenodd" clip-rule="evenodd" d="M56.5883 89.9302L-19.6637 89.9242L-44.2947 86.2942L-44.3667 63.3262H56.5883V89.9302Z" fill="#1B1B1B"/>
</g>
<mask id="mask21_7729_104598" style="mask-type:alpha" maskUnits="userSpaceOnUse" x="0" y="12" width="121" height="121">
<path fill-rule="evenodd" clip-rule="evenodd" d="M0.198242 72.1172C0.198242 105.254 27.0612 132.117 60.1982 132.117C93.3352 132.117 120.198 105.254 120.198 72.1172C120.198 38.9802 93.3352 12.1172 60.1982 12.1172C27.0612 12.1172 0.198242 38.9802 0.198242 72.1172Z" fill="white"/>
</mask>
<g mask="url(#mask21_7729_104598)">
<path fill-rule="evenodd" clip-rule="evenodd" d="M36.4748 70.2676H42.5958C47.7938 70.2676 52.0068 76.7676 52.0068 84.7866C52.0068 92.8046 47.7938 99.3046 42.5958 99.3046H36.4748C30.8148 99.3046 30.6298 70.2676 36.4748 70.2676Z" fill="#1B1B1B"/>
</g>
<mask id="mask22_7729_104598" style="mask-type:alpha" maskUnits="userSpaceOnUse" x="0" y="12" width="121" height="121">
<path fill-rule="evenodd" clip-rule="evenodd" d="M0.198242 72.1172C0.198242 105.254 27.0612 132.117 60.1982 132.117C93.3352 132.117 120.198 105.254 120.198 72.1172C120.198 38.9802 93.3352 12.1172 60.1982 12.1172C27.0612 12.1172 0.198242 38.9802 0.198242 72.1172Z" fill="white"/>
</mask>
<g mask="url(#mask22_7729_104598)">
<path fill-rule="evenodd" clip-rule="evenodd" d="M36.4747 99.3046C31.2907 99.3046 27.0637 92.7826 27.0637 84.7856C27.0637 76.7896 31.2907 70.2676 36.4747 70.2676C41.6587 70.2676 45.8857 76.7896 45.8857 84.7856C45.8857 92.7826 41.6587 99.3046 36.4747 99.3046Z" fill="#343434"/>
</g>
<mask id="mask23_7729_104598" style="mask-type:alpha" maskUnits="userSpaceOnUse" x="0" y="12" width="121" height="121">
<path fill-rule="evenodd" clip-rule="evenodd" d="M0.198242 72.1172C0.198242 105.254 27.0612 132.117 60.1982 132.117C93.3352 132.117 120.198 105.254 120.198 72.1172C120.198 38.9802 93.3352 12.1172 60.1982 12.1172C27.0612 12.1172 0.198242 38.9802 0.198242 72.1172Z" fill="white"/>
</mask>
<g mask="url(#mask23_7729_104598)">
<path fill-rule="evenodd" clip-rule="evenodd" d="M36.4748 95.3875C32.6898 95.3875 29.6028 90.6255 29.6028 84.7865C29.6028 78.9485 32.6898 74.1855 36.4748 74.1855C40.2588 74.1855 43.3468 78.9485 43.3468 84.7865C43.3468 90.6255 40.2588 95.3875 36.4748 95.3875Z" fill="white"/>
</g>
<mask id="mask24_7729_104598" style="mask-type:alpha" maskUnits="userSpaceOnUse" x="0" y="12" width="121" height="121">
<path fill-rule="evenodd" clip-rule="evenodd" d="M0.198242 72.1172C0.198242 105.254 27.0612 132.117 60.1982 132.117C93.3352 132.117 120.198 105.254 120.198 72.1172C120.198 38.9802 93.3352 12.1172 60.1982 12.1172C27.0612 12.1172 0.198242 38.9802 0.198242 72.1172Z" fill="white"/>
</mask>
<g mask="url(#mask24_7729_104598)">
<path fill-rule="evenodd" clip-rule="evenodd" d="M36.4743 93.8794C33.2283 93.8794 30.5803 89.7944 30.5803 84.7864C30.5803 79.7784 33.2283 75.6934 36.4743 75.6934C39.7203 75.6934 42.3683 79.7784 42.3683 84.7864C42.3683 89.7944 39.7203 93.8794 36.4743 93.8794Z" fill="#989898"/>
</g>
<mask id="mask25_7729_104598" style="mask-type:alpha" maskUnits="userSpaceOnUse" x="0" y="12" width="121" height="121">
<path fill-rule="evenodd" clip-rule="evenodd" d="M0.198242 72.1172C0.198242 105.254 27.0612 132.117 60.1982 132.117C93.3352 132.117 120.198 105.254 120.198 72.1172C120.198 38.9802 93.3352 12.1172 60.1982 12.1172C27.0612 12.1172 0.198242 38.9802 0.198242 72.1172Z" fill="white"/>
</mask>
<g mask="url(#mask25_7729_104598)">
<path fill-rule="evenodd" clip-rule="evenodd" d="M37.6144 75.8633C40.3244 76.6823 42.3694 80.3653 42.3694 84.7853C42.3694 89.2063 40.3244 92.8893 37.6144 93.7083C34.9044 92.8893 32.8594 89.2063 32.8594 84.7853C32.8594 80.3653 34.9044 76.6823 37.6144 75.8633Z" fill="#1B1B1B"/>
</g>
<mask id="mask26_7729_104598" style="mask-type:alpha" maskUnits="userSpaceOnUse" x="0" y="12" width="121" height="121">
<path fill-rule="evenodd" clip-rule="evenodd" d="M0.198242 72.1172C0.198242 105.254 27.0612 132.117 60.1982 132.117C93.3352 132.117 120.198 105.254 120.198 72.1172C120.198 38.9802 93.3352 12.1172 60.1982 12.1172C27.0612 12.1172 0.198242 38.9802 0.198242 72.1172Z" fill="white"/>
</mask>
<g mask="url(#mask26_7729_104598)">
<path fill-rule="evenodd" clip-rule="evenodd" d="M37.9679 90.8077C35.8179 90.8077 34.0649 88.1027 34.0649 84.7857C34.0649 81.4687 35.8179 78.7637 37.9679 78.7637C40.1179 78.7637 41.8719 81.4687 41.8719 84.7857C41.8719 88.1027 40.1179 90.8077 37.9679 90.8077Z" fill="#CBCBCB"/>
</g>
<mask id="mask27_7729_104598" style="mask-type:alpha" maskUnits="userSpaceOnUse" x="0" y="12" width="121" height="121">
<path fill-rule="evenodd" clip-rule="evenodd" d="M0.198242 72.1172C0.198242 105.254 27.0612 132.117 60.1982 132.117C93.3352 132.117 120.198 105.254 120.198 72.1172C120.198 38.9802 93.3352 12.1172 60.1982 12.1172C27.0612 12.1172 0.198242 38.9802 0.198242 72.1172Z" fill="white"/>
</mask>
<g mask="url(#mask27_7729_104598)">
<path fill-rule="evenodd" clip-rule="evenodd" d="M40.2856 77.8503C40.9256 78.6883 41.4486 79.7333 41.8106 80.9183L40.5116 83.7553L42.3676 84.6163L42.3696 84.7863C42.3696 86.0193 42.2096 87.1943 41.9226 88.2663L39.7746 87.2713V92.3233C39.1086 93.0173 38.3466 93.5083 37.5256 93.7353C37.4756 93.7213 37.4256 93.7073 37.3756 93.6913V87.2713L33.3916 89.1173H32.2776C32.8346 87.2453 32.8086 87.4543 32.7036 85.5793L36.6386 83.7553L34.2686 78.5793C34.9686 77.4243 35.0406 77.8763 35.1086 76.4473H36.2226L38.5746 81.5863L40.2856 77.8503Z" fill="#676767"/>
</g>
<mask id="mask28_7729_104598" style="mask-type:alpha" maskUnits="userSpaceOnUse" x="0" y="12" width="121" height="121">
<path fill-rule="evenodd" clip-rule="evenodd" d="M0.198242 72.1172C0.198242 105.254 27.0612 132.117 60.1982 132.117C93.3352 132.117 120.198 105.254 120.198 72.1172C120.198 38.9802 93.3352 12.1172 60.1982 12.1172C27.0612 12.1172 0.198242 38.9802 0.198242 72.1172Z" fill="white"/>
</mask>
<g mask="url(#mask28_7729_104598)">
<path fill-rule="evenodd" clip-rule="evenodd" d="M39.5484 77.0253C40.2424 77.6813 40.8424 78.5523 41.3084 79.5793L39.3974 83.7533L42.3644 85.1293C42.3334 86.4113 42.1314 87.6263 41.7904 88.7193L38.6604 87.2693V93.2323C38.1284 93.5593 37.5604 93.7713 36.9664 93.8463C36.7274 93.8153 36.4924 93.7633 36.2614 93.6893V87.2693L32.2774 89.1153C32.1144 88.6543 31.9784 88.1693 31.8694 87.6643L31.7614 87.1073C31.6764 86.6133 31.6184 86.1013 31.5894 85.5773L35.5244 83.7533L33.1544 78.5773C33.3964 78.1793 33.6604 77.8133 33.9454 77.4863L34.1994 77.2103C34.4854 76.9163 34.7894 76.6593 35.1084 76.4453L37.4604 81.5853L39.5484 77.0253Z" fill="white"/>
</g>
<mask id="mask29_7729_104598" style="mask-type:alpha" maskUnits="userSpaceOnUse" x="0" y="12" width="121" height="121">
<path fill-rule="evenodd" clip-rule="evenodd" d="M0.198242 72.1172C0.198242 105.254 27.0612 132.117 60.1982 132.117C93.3352 132.117 120.198 105.254 120.198 72.1172C120.198 38.9802 93.3352 12.1172 60.1982 12.1172C27.0612 12.1172 0.198242 38.9802 0.198242 72.1172Z" fill="white"/>
</mask>
<g mask="url(#mask29_7729_104598)">
<path fill-rule="evenodd" clip-rule="evenodd" d="M37.2215 86.6365C36.5615 86.6365 36.0225 85.8055 36.0225 84.7865C36.0225 83.7685 36.5615 82.9375 37.2215 82.9375C37.8825 82.9375 38.4205 83.7685 38.4205 84.7865C38.4205 85.8055 37.8825 86.6365 37.2215 86.6365Z" fill="#B2B2B2"/>
</g>
<mask id="mask30_7729_104598" style="mask-type:alpha" maskUnits="userSpaceOnUse" x="0" y="12" width="121" height="121">
<path fill-rule="evenodd" clip-rule="evenodd" d="M0.198242 72.1172C0.198242 105.254 27.0612 132.117 60.1982 132.117C93.3352 132.117 120.198 105.254 120.198 72.1172C120.198 38.9802 93.3352 12.1172 60.1982 12.1172C27.0612 12.1172 0.198242 38.9802 0.198242 72.1172Z" fill="white"/>
</mask>
<g mask="url(#mask30_7729_104598)">
<path fill-rule="evenodd" clip-rule="evenodd" d="M-18.7451 89.9273H22.3549V87.1953H-18.7451V89.9273Z" fill="#1B1B1B"/>
<path fill-rule="evenodd" clip-rule="evenodd" d="M-31.5202 38.0315C-16.7042 35.3075 2.80784 34.3965 16.8458 34.3965C28.3848 34.3965 46.4678 34.4105 51.8858 37.1225C61.2838 41.9375 67.6938 48.5975 75.9328 54.1075C86.1578 55.5085 97.3468 57.4665 101.653 59.4715C107.316 62.1075 107.373 64.5745 107.916 70.5785C108.003 71.5345 109.482 71.8235 109.811 72.8145C110.282 74.2315 110.067 76.7475 109.822 77.6835C109.689 78.1945 108.887 78.7125 108.907 79.2405C109.079 83.9395 107.938 87.7085 104.621 89.9315L52.9608 89.9295L50.3148 86.6725H47.8578C48.1048 85.4735 48.2368 84.2185 48.2368 82.9255C48.2368 74.4555 43.6278 67.3345 36.6828 67.3345C29.7378 67.3345 25.1288 74.4555 25.1288 82.9255C25.1288 84.0595 25.2298 85.1645 25.4208 86.2275L23.6308 89.9275L19.6838 86.6725H-19.1902L-21.3162 82.9255C-21.3162 74.4555 -25.9252 67.3345 -32.8702 67.3345C-38.8262 67.3345 -42.7932 72.6385 -44.0932 79.4185L-44.2942 86.2935L-48.6622 82.2595C-49.4702 79.7205 -50.2782 78.4575 -51.0862 75.9185C-51.1802 72.9025 -50.9132 70.4915 -50.7542 69.3735C-50.6932 68.9475 -50.5312 68.4975 -50.3642 68.1575C-49.9102 67.2335 -49.0572 65.6405 -49.0402 65.4505C-48.8572 63.3255 -49.0502 61.7195 -48.5752 59.7695C-48.2932 58.6125 -48.7252 56.8535 -48.5382 55.8365C-48.4012 55.0965 -44.8372 53.6885 -44.4852 53.3575L-35.0152 40.2485C-34.1862 39.1005 -33.1462 38.3305 -31.5202 38.0315Z" fill="#306700"/>
<path fill-rule="evenodd" clip-rule="evenodd" d="M45.3886 64.3265C41.1076 61.5555 35.3906 61.0415 30.3536 64.3355C27.0496 66.4965 25.4776 70.2645 25.5756 71.6955C25.6426 72.6825 28.7756 69.3345 32.1436 67.9235C35.6516 66.4535 40.0236 65.9725 42.9866 67.4595C48.7946 70.3755 49.2686 83.0615 50.4326 81.7985C51.5976 80.5355 52.0766 68.6555 45.3886 64.3265Z" fill="#62A744"/>
<path fill-rule="evenodd" clip-rule="evenodd" d="M-31.52 38.0315C-16.704 35.3075 2.80796 34.3965 16.846 34.3965C28.385 34.3965 46.4679 34.4105 51.8859 37.1225C61.284 41.9375 67.694 48.5975 75.933 54.1075C86.158 55.5085 97.347 57.4665 101.653 59.4715C103.532 60.3465 104.794 61.2025 105.661 62.1755C97.7789 63.0245 84.9749 63.3465 74.3029 63.0925C65.144 62.5595 57.9409 63.0875 50.6649 61.9535C45.151 61.0955 40.586 60.8465 36.874 60.3145H-48.686C-48.592 59.8065 -48.559 59.2975 -48.629 58.7875L-44.485 53.3575L-37.118 54.0965H24.416C25.959 54.0965 26.977 52.5975 25.282 50.4675C21.88 46.1895 19.949 43.1305 15.774 38.4995C11.742 34.0255 -7.98504 36.0335 -31.52 38.0315Z" fill="#62A744"/>
<path fill-rule="evenodd" clip-rule="evenodd" d="M-21.1412 84.6699C-20.6152 78.9959 -22.8442 71.1119 -26.2712 66.6289C-24.5962 67.7789 -20.0522 69.0539 -19.3742 70.3979C-15.6652 77.7459 -13.3952 82.0829 9.00376 83.5119C9.68676 83.5559 9.76076 84.6299 8.98976 84.6309L-21.1412 84.6699Z" fill="#62A744"/>
<path fill-rule="evenodd" clip-rule="evenodd" d="M52.472 37.4277C61.546 42.2127 67.8569 48.7027 75.916 54.0957H30.703C30.182 54.0957 29.703 53.8917 29.352 53.4497L17.292 38.2477C16.939 37.8027 17.075 37.4277 17.77 37.4277H52.472Z" fill="#1B1B1B"/>
<path fill-rule="evenodd" clip-rule="evenodd" d="M50.1411 86.6742H47.6031C47.8501 85.4752 47.9821 84.2202 47.9821 82.9272C47.9821 74.4572 43.2061 67.5912 36.6831 67.5912C30.1601 67.5912 25.3841 74.4572 25.3841 82.9272C25.3841 84.2052 25.5131 85.4472 25.7541 86.6342C26.1451 88.5512 24.9951 89.9282 24.0461 89.9282C23.3151 87.7702 22.9111 85.4062 22.9111 82.9272C22.9111 72.7912 28.3721 64.5742 36.6831 64.5742C44.9941 64.5742 50.4551 72.7912 50.4551 82.9272C50.4551 84.2112 50.3471 85.4642 50.1411 86.6742Z" fill="#343434"/>
<path fill-rule="evenodd" clip-rule="evenodd" d="M-13.3217 86.6735L-17.8557 89.9275L-20.5357 89.9245L-21.5017 86.6735H-13.3217ZM24.4148 86.6735L24.0458 89.9275H23.0138C22.5698 89.9275 22.1338 89.7445 21.7618 89.4375L18.4078 86.6735H24.4148ZM107.554 86.6735C107.005 87.7065 105.927 89.2105 104.62 89.9315H81.8301C71.3031 89.9315 61.4821 89.9305 50.9551 89.9295C49.3031 89.9295 47.6031 88.3685 47.6031 86.6735L50.3441 85.1605L52.0541 86.6735H69.0302L70.5032 85.1605L72.5862 79.8805C72.9991 78.8355 73.7061 78.2285 74.7952 78.2285H105.305C106.466 78.2285 107.409 78.7375 107.641 79.8805L108.505 84.1525C108.293 84.9855 108.002 85.8245 107.554 86.6735Z" fill="#343434"/>
<path fill-rule="evenodd" clip-rule="evenodd" d="M-31.974 40.9822C-23.864 39.1312 -12.632 37.6302 -4.58596 37.2852C0.767044 37.0562 10.705 36.4272 13.668 39.6062C17.141 43.3322 20.506 48.5792 23.504 53.1922C23.784 53.6232 23.579 54.0972 23.143 54.0972H-38.97C-39.345 54.0972 -39.632 53.6632 -39.452 53.3452L-32.775 41.5772C-32.609 41.2842 -32.42 41.0842 -31.974 40.9822Z" fill="#1B1B1B"/>
</g>
<mask id="mask31_7729_104598" style="mask-type:alpha" maskUnits="userSpaceOnUse" x="3" y="38" width="72" height="16">
<path fill-rule="evenodd" clip-rule="evenodd" d="M18.2236 38.1934L29.9496 52.9734C30.1426 53.2174 30.3926 53.3304 30.7006 53.3304H74.3466C71.8306 51.5654 69.4156 49.6704 67.0026 47.7664C62.5846 44.2814 58.2676 40.9194 53.3496 38.1934H18.2236ZM3.1958 53.3302H22.6788C19.7808 48.8602 16.7138 43.9972 13.1058 40.1252C12.5108 39.4872 11.5518 39.0182 10.3708 38.6772C7.3508 43.1682 4.9218 48.0892 3.1958 53.3302Z" fill="white"/>
</mask>
<g mask="url(#mask31_7729_104598)">
<path fill-rule="evenodd" clip-rule="evenodd" d="M18.2236 38.1934L29.9496 52.9734C30.1426 53.2174 30.3926 53.3304 30.7006 53.3304H74.3466C71.8306 51.5654 69.4156 49.6704 67.0026 47.7664C62.5846 44.2814 58.2676 40.9194 53.3496 38.1934H18.2236ZM3.1958 53.3302H22.6788C19.7808 48.8602 16.7138 43.9972 13.1058 40.1252C12.5108 39.4872 11.5518 39.0182 10.3708 38.6772C7.3508 43.1682 4.9218 48.0892 3.1958 53.3302Z" fill="url(#paint0_linear_7729_104598)"/>
</g>
<mask id="mask32_7729_104598" style="mask-type:alpha" maskUnits="userSpaceOnUse" x="0" y="12" width="121" height="121">
<path fill-rule="evenodd" clip-rule="evenodd" d="M0.198242 72.1172C0.198242 105.254 27.0612 132.117 60.1982 132.117C93.3352 132.117 120.198 105.254 120.198 72.1172C120.198 38.9802 93.3352 12.1172 60.1982 12.1172C27.0612 12.1172 0.198242 38.9802 0.198242 72.1172Z" fill="white"/>
</mask>
<g mask="url(#mask32_7729_104598)">
<path fill-rule="evenodd" clip-rule="evenodd" d="M-25.4152 47.2247C-28.9232 47.4217 -32.3252 47.7197 -35.6012 48.1107L-38.5632 53.3307H-27.5842L-25.4152 47.2247ZM-7.3388 47.0869C-12.5628 46.8859 -17.6508 46.8909 -22.5508 47.0889L-24.6698 53.3309H-8.1438L-7.3388 47.0869ZM74.348 53.3308H30.703C30.395 53.3308 30.145 53.2168 29.952 52.9738L23.436 44.7598C28.086 44.7618 32.869 44.9288 37.749 45.2778C49.498 46.1178 60.557 47.9118 70.383 50.4048C71.686 51.4048 73.003 52.3868 74.348 53.3308ZM22.6806 53.3308H-3.56137L-3.05337 47.2958C-2.23437 47.3448 -1.41337 47.3968 -0.589371 47.4558C6.78563 47.9828 13.8876 48.8868 20.5846 50.1018C21.2966 51.1878 21.9936 52.2708 22.6806 53.3308Z" fill="#1B1B1B"/>
</g>
<mask id="mask33_7729_104598" style="mask-type:alpha" maskUnits="userSpaceOnUse" x="0" y="12" width="121" height="121">
<path fill-rule="evenodd" clip-rule="evenodd" d="M0.198242 72.1172C0.198242 105.254 27.0612 132.117 60.1982 132.117C93.3352 132.117 120.198 105.254 120.198 72.1172C120.198 38.9802 93.3352 12.1172 60.1982 12.1172C27.0612 12.1172 0.198242 38.9802 0.198242 72.1172Z" fill="white"/>
</mask>
<g mask="url(#mask33_7729_104598)">
<path fill-rule="evenodd" clip-rule="evenodd" d="M102.197 63.4941H75.8315C75.3465 63.4941 75.0305 63.7431 74.8445 64.2411L73.9305 66.7041H104.046L103.165 64.2411C103.017 63.8261 102.676 63.4941 102.197 63.4941ZM104.503 67.9842H73.4569L73.1929 68.7502C73.0189 69.2532 73.5329 69.7462 74.0879 69.9582L76.4729 70.8662C77.5209 71.2652 78.6239 71.7152 79.9119 71.7152H102.165C102.867 71.7152 103.46 71.3422 103.874 70.8662L104.666 69.9582C104.965 69.6142 104.921 69.1532 104.777 68.7502L104.503 67.9842Z" fill="#343434"/>
</g>
<mask id="mask34_7729_104598" style="mask-type:alpha" maskUnits="userSpaceOnUse" x="0" y="12" width="121" height="121">
<path fill-rule="evenodd" clip-rule="evenodd" d="M0.198242 72.1172C0.198242 105.254 27.0612 132.117 60.1982 132.117C93.3352 132.117 120.198 105.254 120.198 72.1172C120.198 38.9802 93.3352 12.1172 60.1982 12.1172C27.0612 12.1172 0.198242 38.9802 0.198242 72.1172Z" fill="white"/>
</mask>
<g mask="url(#mask34_7729_104598)">
<path fill-rule="evenodd" clip-rule="evenodd" d="M102.274 66.7041L101.394 64.2411C101.245 63.8261 100.904 63.4941 100.425 63.4941H75.8307C75.3467 63.4941 75.0297 63.7431 74.8447 64.2411L73.9297 66.7041H102.274ZM102.732 67.9841H73.4565L73.1925 68.7501C73.0195 69.2531 73.5335 69.7461 74.0885 69.9571L76.4735 70.8661C77.5215 71.2651 78.6235 71.7141 79.9125 71.7141H100.393C101.095 71.7141 101.688 71.3421 102.102 70.8661L102.894 69.9571C103.194 69.6141 103.149 69.1521 103.005 68.7501L102.732 67.9841Z" fill="#1B1B1B"/>
</g>
<mask id="mask35_7729_104598" style="mask-type:alpha" maskUnits="userSpaceOnUse" x="0" y="12" width="121" height="121">
<path fill-rule="evenodd" clip-rule="evenodd" d="M0.198242 72.1172C0.198242 105.254 27.0612 132.117 60.1982 132.117C93.3352 132.117 120.198 105.254 120.198 72.1172C120.198 38.9802 93.3352 12.1172 60.1982 12.1172C27.0612 12.1172 0.198242 38.9802 0.198242 72.1172Z" fill="white"/>
</mask>
<g mask="url(#mask35_7729_104598)">
<path fill-rule="evenodd" clip-rule="evenodd" d="M94.8373 86.6738C95.3393 86.6738 95.5273 87.1738 95.1923 87.5188L92.8423 89.9318H82.6663L85.0913 87.4428C85.4693 87.0538 85.8983 86.6738 86.6863 86.6738H94.8373ZM103.263 86.6738H98.5566C97.8426 86.6738 97.2096 86.9338 96.7146 87.4428L94.2896 89.9318H104.621L104.214 87.5368C104.132 87.0518 103.826 86.6738 103.263 86.6738ZM82.9244 86.6738H74.7944C74.1644 86.6738 73.6354 87.0278 73.2304 87.4428L70.8064 89.9318H80.9624L83.2864 87.5448C83.6484 87.1728 83.4594 86.6738 82.9244 86.6738Z" fill="#1E1E1E"/>
</g>
<mask id="mask36_7729_104598" style="mask-type:alpha" maskUnits="userSpaceOnUse" x="0" y="12" width="121" height="121">
<path fill-rule="evenodd" clip-rule="evenodd" d="M0.198242 72.1172C0.198242 105.254 27.0612 132.117 60.1982 132.117C93.3352 132.117 120.198 105.254 120.198 72.1172C120.198 38.9802 93.3352 12.1172 60.1982 12.1172C27.0612 12.1172 0.198242 38.9802 0.198242 72.1172Z" fill="white"/>
</mask>
<g mask="url(#mask36_7729_104598)">
<path fill-rule="evenodd" clip-rule="evenodd" d="M105.251 84.2744H75.8302C75.3192 84.2744 74.7792 83.6894 74.9502 83.2084L75.4112 81.9104C75.5822 81.4294 76.0862 80.9824 76.5952 80.9824H105.251C105.761 80.9824 106.18 81.4004 106.18 81.9104V83.3454C106.18 83.8554 105.762 84.2744 105.251 84.2744Z" fill="#222222"/>
</g>
<mask id="mask37_7729_104598" style="mask-type:alpha" maskUnits="userSpaceOnUse" x="0" y="12" width="121" height="121">
<path fill-rule="evenodd" clip-rule="evenodd" d="M0.198242 72.1172C0.198242 105.254 27.0612 132.117 60.1982 132.117C93.3352 132.117 120.198 105.254 120.198 72.1172C120.198 38.9802 93.3352 12.1172 60.1982 12.1172C27.0612 12.1172 0.198242 38.9802 0.198242 72.1172Z" fill="white"/>
</mask>
<g mask="url(#mask37_7729_104598)">
<path fill-rule="evenodd" clip-rule="evenodd" d="M103.479 84.2744H75.83C75.319 84.2744 74.78 83.6894 74.951 83.2084L75.412 81.9104C75.583 81.4294 76.087 80.9824 76.596 80.9824H103.479C103.989 80.9824 104.407 81.4004 104.407 81.9104V83.3454C104.407 83.8554 103.99 84.2744 103.479 84.2744Z" fill="#1B1B1B"/>
</g>
<mask id="mask38_7729_104598" style="mask-type:alpha" maskUnits="userSpaceOnUse" x="0" y="12" width="121" height="121">
<path fill-rule="evenodd" clip-rule="evenodd" d="M0.198242 72.1172C0.198242 105.254 27.0612 132.117 60.1982 132.117C93.3352 132.117 120.198 105.254 120.198 72.1172C120.198 38.9802 93.3352 12.1172 60.1982 12.1172C27.0612 12.1172 0.198242 38.9802 0.198242 72.1172Z" fill="white"/>
</mask>
<g mask="url(#mask38_7729_104598)">
<path fill-rule="evenodd" clip-rule="evenodd" d="M66.1505 78.2285H59.7875C58.9665 78.2285 58.1445 78.9015 57.9605 79.7225L57.6255 81.2275C57.4415 82.0495 57.9645 82.7225 58.7865 82.7225H65.1485C65.9705 82.7225 66.7925 82.0495 66.9755 81.2275L67.3115 79.7225C67.4945 78.9015 66.9725 78.2285 66.1505 78.2285Z" fill="#343434"/>
</g>
<mask id="mask39_7729_104598" style="mask-type:alpha" maskUnits="userSpaceOnUse" x="0" y="12" width="121" height="121">
<path fill-rule="evenodd" clip-rule="evenodd" d="M0.198242 72.1172C0.198242 105.254 27.0612 132.117 60.1982 132.117C93.3352 132.117 120.198 105.254 120.198 72.1172C120.198 38.9802 93.3352 12.1172 60.1982 12.1172C27.0612 12.1172 0.198242 38.9802 0.198242 72.1172Z" fill="white"/>
</mask>
<g mask="url(#mask39_7729_104598)">
<path fill-rule="evenodd" clip-rule="evenodd" d="M64.5045 78.2285H59.7875C58.9665 78.2285 58.1445 78.9015 57.9605 79.7225L57.6255 81.2275C57.4415 82.0495 57.9645 82.7225 58.7865 82.7225H63.5025C64.3245 82.7225 65.1465 82.0495 65.3295 81.2275L65.6655 79.7225C65.8485 78.9015 65.3265 78.2285 64.5045 78.2285Z" fill="#1B1B1B"/>
</g>
<mask id="mask40_7729_104598" style="mask-type:alpha" maskUnits="userSpaceOnUse" x="0" y="12" width="121" height="121">
<path fill-rule="evenodd" clip-rule="evenodd" d="M0.198242 72.1172C0.198242 105.254 27.0612 132.117 60.1982 132.117C93.3352 132.117 120.198 105.254 120.198 72.1172C120.198 38.9802 93.3352 12.1172 60.1982 12.1172C27.0612 12.1172 0.198242 38.9802 0.198242 72.1172Z" fill="white"/>
</mask>
<g mask="url(#mask40_7729_104598)">
<path fill-rule="evenodd" clip-rule="evenodd" d="M62.4066 79.0234H60.3056C59.7736 79.0234 59.2436 79.4574 59.1246 79.9884L58.9076 80.9604C58.7896 81.4914 59.1266 81.9254 59.6576 81.9254H61.7596C62.2906 81.9254 62.8216 81.4914 62.9396 80.9604L63.1566 79.9884C63.2746 79.4574 62.9376 79.0234 62.4066 79.0234Z" fill="#E5E5E5"/>
</g>
<mask id="mask41_7729_104598" style="mask-type:alpha" maskUnits="userSpaceOnUse" x="0" y="12" width="121" height="121">
<path fill-rule="evenodd" clip-rule="evenodd" d="M0.198242 72.1172C0.198242 105.254 27.0612 132.117 60.1982 132.117C93.3352 132.117 120.198 105.254 120.198 72.1172C120.198 38.9802 93.3352 12.1172 60.1982 12.1172C27.0612 12.1172 0.198242 38.9802 0.198242 72.1172Z" fill="white"/>
</mask>
<g mask="url(#mask41_7729_104598)">
<path fill-rule="evenodd" clip-rule="evenodd" d="M56.1007 61.7733L71.0807 63.2903C71.6967 63.3523 72.0777 63.9653 71.8747 64.5403L70.6227 68.0683C70.4417 68.5773 69.9707 68.8673 69.3667 68.8253L60.1607 68.1953C59.6537 68.1613 59.2107 67.9023 58.8987 67.5053L55.4157 63.0743C54.9867 62.5293 55.2817 61.6903 56.1007 61.7733Z" fill="#E5E5E5"/>
</g>
<mask id="mask42_7729_104598" style="mask-type:alpha" maskUnits="userSpaceOnUse" x="0" y="12" width="121" height="121">
<path fill-rule="evenodd" clip-rule="evenodd" d="M0.198242 72.1172C0.198242 105.254 27.0612 132.117 60.1982 132.117C93.3352 132.117 120.198 105.254 120.198 72.1172C120.198 38.9802 93.3352 12.1172 60.1982 12.1172C27.0612 12.1172 0.198242 38.9802 0.198242 72.1172Z" fill="white"/>
</mask>
<g mask="url(#mask42_7729_104598)">
<path fill-rule="evenodd" clip-rule="evenodd" d="M106.042 62.6348C107.23 63.2478 108.005 67.6158 107.772 68.7998L107.146 68.8428C106.501 68.8878 105.998 68.5948 105.806 68.0868L104.527 64.7078C104.31 64.1338 104.501 63.7718 104.968 63.4028L106.042 62.6348Z" fill="#E5E5E5"/>
</g>
<mask id="mask43_7729_104598" style="mask-type:alpha" maskUnits="userSpaceOnUse" x="0" y="12" width="121" height="121">
<path fill-rule="evenodd" clip-rule="evenodd" d="M0.198242 72.1172C0.198242 105.254 27.0612 132.117 60.1982 132.117C93.3352 132.117 120.198 105.254 120.198 72.1172C120.198 38.9802 93.3352 12.1172 60.1982 12.1172C27.0612 12.1172 0.198242 38.9802 0.198242 72.1172Z" fill="white"/>
</mask>
<g mask="url(#mask43_7729_104598)">
<path fill-rule="evenodd" clip-rule="evenodd" d="M12.3805 47.3867H17.0975C19.8865 47.3867 19.8865 53.0757 17.0975 53.0757H12.3805C11.2775 53.0757 10.3745 52.1737 10.3745 51.0697V49.3927C10.3745 48.2897 11.2775 47.3867 12.3805 47.3867Z" fill="#62A744"/>
</g>
<mask id="mask44_7729_104598" style="mask-type:alpha" maskUnits="userSpaceOnUse" x="0" y="12" width="121" height="121">
<path fill-rule="evenodd" clip-rule="evenodd" d="M0.198242 72.1172C0.198242 105.254 27.0612 132.117 60.1982 132.117C93.3352 132.117 120.198 105.254 120.198 72.1172C120.198 38.9802 93.3352 12.1172 60.1982 12.1172C27.0612 12.1172 0.198242 38.9802 0.198242 72.1172Z" fill="white"/>
</mask>
<g mask="url(#mask44_7729_104598)">
<path fill-rule="evenodd" clip-rule="evenodd" d="M17.9708 50.3215L20.7688 51.1075C21.4178 51.2895 21.7408 51.8225 21.6408 52.5915C21.5498 53.3005 20.7908 53.7845 19.5018 53.4605L17.6618 52.9995C17.2638 52.8985 16.8118 52.6495 16.9158 52.2525L17.2238 51.0685C17.3278 50.6705 17.5758 50.2105 17.9708 50.3215Z" fill="#62A744"/>
</g>
<mask id="mask45_7729_104598" style="mask-type:alpha" maskUnits="userSpaceOnUse" x="0" y="12" width="121" height="121">
<path fill-rule="evenodd" clip-rule="evenodd" d="M0.198242 72.1172C0.198242 105.254 27.0612 132.117 60.1982 132.117C93.3352 132.117 120.198 105.254 120.198 72.1172C120.198 38.9802 93.3352 12.1172 60.1982 12.1172C27.0612 12.1172 0.198242 38.9802 0.198242 72.1172Z" fill="white"/>
</mask>
<g mask="url(#mask45_7729_104598)">
<path fill-rule="evenodd" clip-rule="evenodd" d="M11.2915 48.4766C11.7955 48.4766 12.2085 48.8906 12.2085 49.3936V51.5466C12.2085 51.9606 12.4575 52.1826 12.8545 52.1826H17.2255C18.0645 52.1826 18.0655 53.0766 17.2255 53.0766H12.3805C11.1655 53.0766 10.3745 52.1566 10.3745 51.0106V49.3936C10.3745 48.8896 10.7875 48.4766 11.2915 48.4766Z" fill="#306700"/>
</g>
<mask id="mask46_7729_104598" style="mask-type:alpha" maskUnits="userSpaceOnUse" x="0" y="12" width="121" height="121">
<path fill-rule="evenodd" clip-rule="evenodd" d="M0.198242 72.1172C0.198242 105.254 27.0612 132.117 60.1982 132.117C93.3352 132.117 120.198 105.254 120.198 72.1172C120.198 38.9802 93.3352 12.1172 60.1982 12.1172C27.0612 12.1172 0.198242 38.9802 0.198242 72.1172Z" fill="white"/>
</mask>
<g mask="url(#mask46_7729_104598)">
<path fill-rule="evenodd" clip-rule="evenodd" d="M109.176 73.5413C109.34 73.2303 109.22 72.8453 108.909 72.6813C108.598 72.5183 108.213 72.6373 108.049 72.9483C107.883 73.2623 107.607 73.4853 107.233 73.6323C106.789 73.8073 106.214 73.8843 105.522 73.8853V73.8833C92.9977 73.8833 71.0497 73.8443 59.8317 71.4673C56.0067 70.6573 60.3887 74.7583 61.8717 74.7583C74.8467 75.5523 92.4837 75.1593 105.522 75.1593V75.1563C106.374 75.1543 107.103 75.0523 107.696 74.8193C108.359 74.5583 108.857 74.1433 109.176 73.5413Z" fill="#62A744"/>
</g>
<mask id="mask47_7729_104598" style="mask-type:alpha" maskUnits="userSpaceOnUse" x="0" y="12" width="121" height="121">
<path fill-rule="evenodd" clip-rule="evenodd" d="M0.198242 72.1172C0.198242 105.254 27.0612 132.117 60.1982 132.117C93.3352 132.117 120.198 105.254 120.198 72.1172C120.198 38.9802 93.3352 12.1172 60.1982 12.1172C27.0612 12.1172 0.198242 38.9802 0.198242 72.1172Z" fill="white"/>
</mask>
<g mask="url(#mask47_7729_104598)">
<path fill-rule="evenodd" clip-rule="evenodd" d="M-16.1199 88.1818H21.1281V86.6738H-16.1199V88.1818Z" fill="#343434"/>
<path fill-rule="evenodd" clip-rule="evenodd" d="M90.041 66.5312H93.783C94.213 66.5312 94.565 66.8832 94.565 67.3132C94.565 67.7442 94.213 68.0952 93.783 68.0952H90.041C89.611 68.0952 89.259 67.7442 89.259 67.3132C89.259 66.8832 89.611 66.5312 90.041 66.5312Z" fill="#B2B2B2"/>
<path fill-rule="evenodd" clip-rule="evenodd" d="M75.7722 62.7286C74.0492 61.0046 69.4152 59.4956 62.9462 58.2276C56.1642 56.8996 48.3392 56.1436 38.7092 55.3496C36.9892 55.2076 32.8232 55.6516 36.1572 55.9126C46.3122 56.7196 55.6682 57.8416 62.7502 59.2286C68.5152 60.3576 72.8892 61.6626 74.5752 63.0986C75.0672 63.5186 75.3142 63.5626 75.7622 63.3846C76.2092 63.2066 75.8532 62.8096 75.7722 62.7286Z" fill="#306700"/>
</g>
<path fill-rule="evenodd" clip-rule="evenodd" d="M107.116 0H66.7477C64.1353 0 61.9985 2.11336 61.9985 4.69636V28.9609C61.9985 31.5439 64.1353 33.6573 66.7477 33.6573H79.9098L86.8048 45.4667L93.6999 33.6573H107.116C109.728 33.6573 111.865 31.5439 111.865 28.9609V4.69636C111.865 2.11336 109.728 0 107.116 0Z" fill="#313D47"/>
<path fill-rule="evenodd" clip-rule="evenodd" d="M87.7004 7.80499L89.4289 13.1247C89.5462 13.4861 89.8825 13.7302 90.2628 13.7302H95.8559C96.7055 13.7302 97.0585 14.8176 96.3713 15.3162L91.8467 18.6046C91.5388 18.8277 91.4099 19.2237 91.5283 19.5841L93.2558 24.9038C93.5187 25.7115 92.5937 26.384 91.9065 25.8843L87.3819 22.597C87.075 22.3738 86.658 22.3738 86.3511 22.597L81.8265 25.8843C81.1393 26.384 80.2143 25.7115 80.4762 24.9038L82.2047 19.5841C82.3221 19.2237 82.1942 18.8277 81.8863 18.6046L77.3617 15.3162C76.6745 14.8176 77.0275 13.7302 77.8771 13.7302H83.4702C83.8494 13.7302 84.1868 13.4861 84.3041 13.1247L86.0326 7.80499C86.2945 6.9973 87.4374 6.9973 87.7004 7.80499Z" fill="#FACD46"/>
<defs>
<linearGradient id="paint0_linear_7729_104598" x1="-30.7045" y1="23.1801" x2="-30.7045" y2="43.8569" gradientUnits="userSpaceOnUse">
<stop stop-color="#1F212D"/>
<stop offset="1" stop-color="#242A2F"/>
</linearGradient>
</defs>
</svg>
