<svg width="121" height="120" viewBox="0 0 121 120" fill="none" xmlns="http://www.w3.org/2000/svg">
<circle cx="60.1982" cy="60" r="60" fill="#EBF0F1"/>
<mask id="mask0_7729_104587" style="mask-type:alpha" maskUnits="userSpaceOnUse" x="0" y="0" width="121" height="120">
<circle cx="60.1982" cy="60" r="60" fill="white"/>
</mask>
<g mask="url(#mask0_7729_104587)">
<path d="M27.6809 97.4367L50.3543 119.998H120.198V62.3967L87.8534 29.9573L85.9015 29.1398L76.9475 20.1455L70.1984 21.7964L63.6837 15.3398L42.9575 55.5305L27.6809 97.4367Z" fill="#D9E1E2"/>
</g>
<path d="M55.3582 18.1888L28.5325 76.9926C27.6815 78.8587 28.5111 81.0809 30.3773 81.932L56.0974 93.6647C57.9636 94.5158 60.1858 93.6862 61.0369 91.82L87.8635 33.0172C88.7145 31.1511 87.8849 28.9289 86.0187 28.0778L60.2986 16.3441C58.4324 15.4931 56.2102 16.3236 55.3582 18.1888Z" fill="#016938"/>
<path d="M41.9432 20.4184L38.496 84.9594C38.387 87.0073 39.9726 88.7718 42.0205 88.8818L70.25 90.3891C72.298 90.4982 74.0625 88.9126 74.1725 86.8647L77.6197 22.3237C77.7287 20.2758 76.1431 18.5112 74.0952 18.4012L45.8657 16.894C43.8177 16.7849 42.0531 18.3714 41.9432 20.4184Z" fill="#027B38"/>
<path d="M31.0442 28.8709L53.5558 89.4578C54.2699 91.3799 56.4269 92.3689 58.3499 91.6539L84.8503 81.8087C86.7724 81.0947 87.7614 78.9378 87.0464 77.0148L64.5348 16.4288C63.8208 14.5067 61.6637 13.5177 59.7407 14.2327L33.2413 24.0779C31.3192 24.7919 30.3302 26.9489 31.0442 28.8709Z" fill="#89BC49"/>
<path d="M31.0442 28.8709L53.5558 89.4578C54.2699 91.3799 56.4269 92.3689 58.3499 91.6539L84.8503 81.8087C86.7724 81.0947 87.7614 78.9378 87.0464 77.0148L64.5348 16.4288C63.8208 14.5067 61.6637 13.5177 59.7407 14.2327L33.2413 24.0779C31.3192 24.7919 30.3302 26.9489 31.0442 28.8709Z" fill="#92C142"/>
<mask id="mask1_7729_104587" style="mask-type:alpha" maskUnits="userSpaceOnUse" x="30" y="14" width="58" height="78">
<path fill-rule="evenodd" clip-rule="evenodd" d="M31.0442 28.8709L53.5558 89.4578C54.2699 91.3799 56.4269 92.3689 58.3499 91.6539L84.8503 81.8087C86.7724 81.0947 87.7614 78.9378 87.0464 77.0148L64.5348 16.4288C63.8208 14.5067 61.6637 13.5177 59.7407 14.2327L33.2413 24.0779C31.3192 24.7919 30.3302 26.9489 31.0442 28.8709Z" fill="white"/>
</mask>
<g mask="url(#mask1_7729_104587)">
<path fill-rule="evenodd" clip-rule="evenodd" d="M39.3147 21.8194C39.2242 21.578 39.118 21.3468 39.0117 21.1157L28.8689 24.8843L32.6796 35.1396C32.7274 35.1252 32.7754 35.111 32.8234 35.0969C32.983 35.0498 33.143 35.0026 33.3013 34.9439L51.2976 83.3832C51.1339 83.4439 50.9774 83.5146 50.8204 83.5855C50.7797 83.6039 50.739 83.6223 50.6982 83.6405L55.042 95.3313L64.9695 91.6429C64.8717 90.8906 64.6973 90.1375 64.4214 89.3964C64.4214 89.396 64.4212 89.3955 64.421 89.395C64.4207 89.3946 64.4205 89.3941 64.4205 89.3936L78.7748 84.0627V84.0637C79.0507 84.8047 79.4105 85.4889 79.8272 86.1228L90.0884 82.3103L85.7548 70.6456C85.4677 70.7211 85.1825 70.804 84.8982 70.9057L66.8963 22.4551C67.1778 22.347 67.4481 22.2221 67.7147 22.0925L63.9143 11.8633L53.4378 15.7559C53.4433 15.775 53.4489 15.7941 53.4544 15.8132C53.5196 16.0383 53.5847 16.2633 53.668 16.4867C53.668 16.4876 53.669 16.4885 53.669 16.4895L39.3147 21.8203V21.8194ZM54.4681 82.7568L36.1111 33.3499C38.6372 31.3347 40.0644 28.2195 39.9423 24.9905L55.2632 19.3008C57.3046 21.8567 60.4721 23.2922 63.7431 23.1291L82.0712 72.4576C79.4863 74.4701 78.0247 77.6263 78.1477 80.8953L62.8258 86.5851C60.8105 84.0609 57.6961 82.6347 54.4681 82.7568Z" fill="#3C9C36"/>
</g>
<ellipse cx="59.044" cy="52.9408" rx="8.61309" ry="11.0052" transform="rotate(-110.383 59.044 52.9408)" fill="#3C9C36"/>
<path d="M46.1426 31.8814L48.4711 38.1491C49.2933 40.361 51.7523 41.488 53.9644 40.6658L54.3857 40.5092C56.5977 39.6871 57.7247 37.2281 56.9025 35.0162L54.574 28.7485C53.7518 26.5365 51.2928 25.4096 49.0808 26.2317L48.6594 26.3883C46.4484 27.2095 45.3214 29.6694 46.1426 31.8814Z" fill="#3C9C36"/>
<path d="M60.6746 70.9927L63.0031 77.2604C63.8253 79.4723 66.2843 80.5993 68.4963 79.7772L68.9177 79.6206C71.1297 78.7984 72.2567 76.3394 71.4345 74.1275L69.106 67.8598C68.2838 65.6479 65.8248 64.5209 63.6128 65.343L63.1914 65.4996C60.9803 66.3209 59.8534 68.7808 60.6746 70.9927Z" fill="#3C9C36"/>
<path d="M89.4544 99H29.9426C27.8749 99 26.1985 97.3313 26.1985 95.2731V51.7269C26.1985 49.6687 27.8749 48 29.9426 48H89.4544C91.522 48 93.1985 49.6687 93.1985 51.7269V95.2731C93.1985 97.3313 91.522 99 89.4544 99Z" fill="#AC6000"/>
<path opacity="0.67" d="M90.2269 48H87.2495C89.4416 48 91.2197 49.7562 91.2197 51.9234V80.3177L70.198 78.4804L89.9158 97.9658C89.2106 98.6022 88.28 99 87.2505 99H90.2279C92.4199 99 94.198 97.2438 94.198 95.0766V51.9234C94.1971 49.7562 92.4199 48 90.2269 48Z" fill="#6B3C00"/>
<path fill-rule="evenodd" clip-rule="evenodd" d="M79.8208 51.9955H81.7901C82.0604 51.9955 82.2803 51.7731 82.2803 51.4977C82.2803 51.2224 82.0613 51 81.7901 51H79.8208C79.5496 51 79.3306 51.2224 79.3306 51.4977C79.3306 51.7731 79.5496 51.9955 79.8208 51.9955ZM87.7081 53.4153C87.4369 53.4153 87.2179 53.1929 87.2179 52.9176V52.4955C87.2179 52.2211 86.998 51.9978 86.7277 51.9978C86.4565 51.9978 86.23 51.7754 86.23 51.5C86.23 51.2247 86.4435 51.0023 86.7147 51.0023H86.7268C87.5385 51.0023 88.1984 51.6723 88.1984 52.4965V52.9185C88.1993 53.192 87.9793 53.4153 87.7081 53.4153ZM32.1992 53.071C32.1992 53.3464 32.4182 53.5688 32.6894 53.5688C32.9597 53.5688 33.1796 53.3464 33.1806 53.0701V52.4928C33.1806 52.2468 33.3614 52.0348 33.6009 51.9998C33.8693 51.961 34.0557 51.7093 34.0175 51.4368C33.9793 51.1633 33.7258 50.9816 33.463 51.0138C32.7426 51.1189 32.1992 51.7548 32.1992 52.4938V53.071ZM87.7082 60.4136C87.437 60.4136 87.218 60.1912 87.218 59.9158V57.9163C87.218 57.641 87.437 57.4186 87.7082 57.4186C87.9794 57.4186 88.1984 57.641 88.1984 57.9163V59.9158C88.1994 60.1902 87.9794 60.4136 87.7082 60.4136ZM32.2007 60.07C32.2007 60.3454 32.4197 60.5678 32.6909 60.5678C32.9612 60.5678 33.1811 60.3454 33.1811 60.07V58.0706C33.1811 57.7952 32.9621 57.5728 32.6909 57.5728C32.4197 57.5728 32.2007 57.7952 32.2007 58.0706V60.07ZM32.6909 67.5693C32.4197 67.5693 32.2007 67.3469 32.2007 67.0715V65.0721C32.2007 64.7967 32.4197 64.5743 32.6909 64.5743C32.9621 64.5743 33.1811 64.7967 33.1811 65.0721V67.0715C33.1811 67.346 32.9612 67.5693 32.6909 67.5693ZM32.2007 74.0712C32.2007 74.3465 32.4197 74.5689 32.6909 74.5689C32.9612 74.5689 33.1811 74.3456 33.1811 74.0702V72.0707C33.1811 71.7954 32.9621 71.573 32.6909 71.573C32.4197 71.573 32.2007 71.7954 32.2007 72.0707V74.0712ZM32.6909 81.5685C32.4197 81.5685 32.2007 81.3462 32.2007 81.0708V79.0713C32.2007 78.7959 32.4197 78.5736 32.6909 78.5736C32.9621 78.5736 33.1811 78.7959 33.1811 79.0713V81.0708C33.1811 81.3462 32.9612 81.5685 32.6909 81.5685ZM87.218 87.9171C87.218 88.1925 87.437 88.4148 87.7082 88.4148C87.9794 88.4148 88.1994 88.1915 88.1984 87.9171V85.9157C88.1984 85.6404 87.9794 85.418 87.7082 85.418C87.437 85.418 87.218 85.6404 87.218 85.9157V87.9171ZM32.6909 88.5691C32.4197 88.5691 32.2007 88.3467 32.2007 88.0713V86.0699C32.2007 85.7946 32.4197 85.5722 32.6909 85.5722C32.9621 85.5722 33.1811 85.7946 33.1811 86.0699V88.0713C33.1811 88.3467 32.9612 88.5691 32.6909 88.5691ZM86.3942 94.5675C86.4324 94.8136 86.6411 94.9886 86.8779 94.9886C86.904 94.9886 86.9301 94.9867 86.9543 94.9829C87.6756 94.8684 88.1985 94.2467 88.1985 93.5067V92.9172C88.1985 92.6418 87.9795 92.4195 87.7082 92.4195C87.437 92.4195 87.218 92.6418 87.218 92.9172V93.5067C87.218 93.7499 87.04 93.961 86.8033 93.9988C86.5349 94.0414 86.3522 94.2959 86.3942 94.5675ZM33.6962 95H33.6701C32.8583 95 32.1985 94.33 32.1985 93.5058V93.0705C32.1985 92.7952 32.4175 92.5728 32.6887 92.5728C32.9599 92.5728 33.1789 92.7952 33.1789 93.0705V93.5058C33.1789 93.7802 33.3989 94.0036 33.6691 94.0036C33.9403 94.0036 34.1724 94.2259 34.1724 94.5013C34.1733 94.7776 33.9674 95 33.6962 95ZM38.6206 95H40.5898C40.861 95 41.08 94.7776 41.08 94.5023C41.08 94.2269 40.861 94.0045 40.5898 94.0045H38.6206C38.3494 94.0045 38.1304 94.2269 38.1304 94.5023C38.1304 94.7776 38.3494 95 38.6206 95ZM47.4834 95H45.5141C45.2429 95 45.0239 94.7776 45.0239 94.5023C45.0239 94.2269 45.2429 94.0045 45.5141 94.0045H47.4834C47.7546 94.0045 47.9736 94.2269 47.9736 94.5023C47.9745 94.7776 47.7546 95 47.4834 95ZM52.4077 95H54.3788C54.6491 95 54.869 94.7776 54.869 94.5023C54.869 94.2269 54.65 94.0045 54.3788 94.0045H52.4077C52.1365 94.0045 51.9175 94.2269 51.9175 94.5023C51.9175 94.7776 52.1365 95 52.4077 95ZM61.2734 95H59.3042C59.033 95 58.814 94.7776 58.814 94.5023C58.814 94.2269 59.033 94.0045 59.3042 94.0045H61.2734C61.5446 94.0045 61.7636 94.2269 61.7636 94.5023C61.7636 94.7776 61.5446 95 61.2734 95ZM66.1977 95H68.167C68.4382 95 68.6572 94.7776 68.6572 94.5023C68.6572 94.2269 68.4382 94.0045 68.167 94.0045H66.1977C65.9265 94.0045 65.7075 94.2269 65.7075 94.5023C65.7075 94.7776 65.9265 95 66.1977 95ZM75.0605 95H73.0913C72.8201 95 72.6011 94.7776 72.6011 94.5023C72.6011 94.2269 72.8201 94.0045 73.0913 94.0045H75.0605C75.3317 94.0045 75.5507 94.2269 75.5507 94.5023C75.5507 94.7776 75.3317 95 75.0605 95ZM81.9556 95H79.9863C79.7151 95 79.4961 94.7776 79.4961 94.5023C79.4961 94.2269 79.7151 94.0045 79.9863 94.0045H81.9556C82.2268 94.0045 82.4458 94.2269 82.4458 94.5023C82.4467 94.7776 82.2268 95 81.9556 95ZM74.8956 51.9955H72.9263C72.6551 51.9955 72.4361 51.7731 72.4361 51.4977C72.4361 51.2224 72.6551 51 72.9263 51H74.8956C75.1668 51 75.3858 51.2224 75.3858 51.4977C75.3858 51.7731 75.1668 51.9955 74.8956 51.9955ZM66.0324 51.9955H68.0016C68.2728 51.9955 68.4918 51.7731 68.4918 51.4977C68.4918 51.2224 68.2728 51 68.0016 51H66.0324C65.7612 51 65.5422 51.2224 65.5422 51.4977C65.5422 51.7731 65.7612 51.9955 66.0324 51.9955ZM61.1081 51.9955H59.1369C58.8657 51.9955 58.6467 51.7731 58.6467 51.4977C58.6467 51.2224 58.8657 51 59.1369 51H61.1081C61.3793 51 61.5983 51.2224 61.5983 51.4977C61.5983 51.7731 61.3793 51.9955 61.1081 51.9955ZM52.2442 51.9955H54.2135C54.4847 51.9955 54.7037 51.7731 54.7037 51.4977C54.7037 51.2224 54.4847 51 54.2135 51H52.2442C51.973 51 51.754 51.2224 51.754 51.4977C51.754 51.7731 51.973 51.9955 52.2442 51.9955ZM47.3183 51.9955H45.3491C45.0779 51.9955 44.8589 51.7731 44.8589 51.4977C44.8589 51.2224 45.0779 51 45.3491 51H47.3183C47.5895 51 47.8086 51.2224 47.8086 51.4977C47.8086 51.7731 47.5895 51.9955 47.3183 51.9955ZM38.4537 51.9955H40.4248C40.696 51.9955 40.915 51.7731 40.915 51.4977C40.915 51.2224 40.696 51 40.4248 51H38.4537C38.1825 51 37.9634 51.2224 37.9634 51.4977C37.9634 51.7731 38.1825 51.9955 38.4537 51.9955Z" fill="#FBCA76"/>
<path opacity="0.5" d="M29.1984 95.0756V51.9234C29.1984 49.7572 30.989 48 33.1985 48H30.1986C27.99 48 26.1985 49.7563 26.1985 51.9234V95.0766C26.1985 97.2428 27.9891 99 30.1986 99H33.1985C30.989 98.9991 29.1984 97.2428 29.1984 95.0756Z" fill="#F9C187"/>
<path d="M94.2978 81H75.7977C71.6006 81 68.1978 77.5971 68.1978 73.4V72.6C68.1978 68.4029 71.6006 65 75.7977 65H94.2978C95.3475 65 96.1978 65.8503 96.1978 66.9V79.1C96.1978 80.1488 95.3475 81 94.2978 81Z" fill="#D17311"/>
<mask id="mask2_7729_104587" style="mask-type:alpha" maskUnits="userSpaceOnUse" x="89" y="65" width="8" height="16">
<path fill-rule="evenodd" clip-rule="evenodd" d="M94.142 65H89.1985V81H94.142C95.2782 81 96.1985 80.1041 96.1985 79.0002V66.9998C96.1985 65.8949 95.2782 65 94.142 65Z" fill="white"/>
</mask>
<g mask="url(#mask2_7729_104587)">
<rect x="93.1125" y="61.3613" width="3.08528" height="24.3905" fill="#CA6213"/>
</g>
<mask id="mask3_7729_104587" style="mask-type:alpha" maskUnits="userSpaceOnUse" x="68" y="65" width="29" height="16">
<path fill-rule="evenodd" clip-rule="evenodd" d="M94.2978 81H75.7977C71.6006 81 68.1978 77.5971 68.1978 73.4V72.6C68.1978 68.4029 71.6006 65 75.7977 65H94.2978C95.3475 65 96.1978 65.8503 96.1978 66.9V79.1C96.1978 80.1488 95.3475 81 94.2978 81Z" fill="white"/>
</mask>
<g mask="url(#mask3_7729_104587)">
<path d="M73.3525 75.6704L79.2225 81.4454H89.5423L78.6145 70.5156L73.3525 75.6704Z" fill="#C56415"/>
</g>
<circle cx="75.6982" cy="73.5" r="3.5" fill="#D8B997"/>
<path d="M74.0932 73.4995C74.0932 72.1393 74.5172 70.9195 75.1887 70.0508C73.499 70.2992 72.1982 71.7405 72.1982 73.4995C72.1982 75.2576 73.4999 76.6997 75.1887 76.9482C74.5172 76.0795 74.0932 74.8597 74.0932 73.4995Z" fill="#F1D2AE"/>
<path d="M77.3031 73.4995C77.3031 74.8597 76.8791 76.0795 76.2075 76.9482C77.8972 76.6997 79.198 75.2585 79.198 73.4995C79.198 71.7414 77.8963 70.2992 76.2075 70.0508C76.8791 70.9186 77.3031 72.1384 77.3031 73.4995Z" fill="#C8A57E"/>
</svg>
