<svg width="65" height="26" viewBox="0 0 65 26" fill="none" xmlns="http://www.w3.org/2000/svg">
<path fill-rule="evenodd" clip-rule="evenodd" d="M54.4316 19.9306C54.4316 20.8276 53.7036 21.5556 52.8056 21.5556C51.9096 21.5556 51.1826 20.8266 51.1826 19.9306C51.1826 19.0346 51.9106 18.3066 52.8056 18.3066C53.7026 18.3066 54.4316 19.0336 54.4316 19.9306Z" fill="white"/>
<path d="M52.8088 14.4668C55.8268 14.4668 58.2736 16.9157 58.2737 19.9316C58.2737 21.6106 57.5165 23.1152 56.3215 24.1182H62.6409V25.3975H1.76099V24.1182H11.1028C9.90978 23.1152 9.14966 21.6106 9.14966 19.9316C9.14974 16.9159 11.5998 14.467 14.6135 14.4668C17.6305 14.4668 20.0802 16.9157 20.0803 19.9316C20.0803 21.6106 19.3222 23.1152 18.1282 24.1182H49.2981C48.1041 23.1152 47.3459 21.6106 47.3459 19.9316C47.346 16.9158 49.794 14.4669 52.8088 14.4668ZM14.6106 17.0273C13.0096 17.0273 11.7063 18.3286 11.7063 19.9316C11.7065 21.5355 13.0077 22.8359 14.6106 22.8359C16.2154 22.8358 17.5157 21.5354 17.5159 19.9316C17.5159 18.3277 16.2145 17.0275 14.6106 17.0273ZM52.8059 17.0273C51.2039 17.0273 49.9016 18.3286 49.9016 19.9316C49.9018 21.5345 51.203 22.8359 52.8059 22.8359C54.4107 22.8358 55.712 21.5354 55.7122 19.9316C55.7122 18.3277 54.4088 17.0275 52.8059 17.0273Z" fill="#313D47"/>
<path fill-rule="evenodd" clip-rule="evenodd" d="M16.2373 19.9306C16.2373 20.8276 15.5083 21.5556 14.6103 21.5556C13.7133 21.5556 12.9863 20.8266 12.9863 19.9306C12.9863 19.0346 13.7153 18.3066 14.6103 18.3066C15.5073 18.3066 16.2373 19.0336 16.2373 19.9306Z" fill="#313D47"/>
<path fill-rule="evenodd" clip-rule="evenodd" d="M54.4368 19.9306C54.4368 20.8276 53.7078 21.5556 52.8098 21.5556C51.9128 21.5556 51.1858 20.8266 51.1858 19.9306C51.1858 19.0346 51.9148 18.3066 52.8098 18.3066C53.7068 18.3066 54.4368 19.0336 54.4368 19.9306Z" fill="#313D47"/>
<path fill-rule="evenodd" clip-rule="evenodd" d="M35.2188 0C36.0366 1.71367e-05 36.6018 0.423725 37.2188 0.959961H37.2471C39.203 0.959979 40.2175 1.21309 41.9473 2.08984C44.1397 3.20105 44.8853 3.97113 50.1983 7.79102C50.941 7.97283 59.4278 9.15748 60.6466 9.39551C60.9427 9.45345 61.9446 9.75184 62.0762 10.0127C62.401 10.6594 62.7023 11.3263 62.9317 12.0205L55.0831 10.8047L61.0811 14.5781L64.1485 15.0557C64.3118 17.0569 64.3095 18.2905 63.3155 20.168H59.3878C59.3905 20.0898 59.3936 20.0114 59.3936 19.9326C59.3936 16.2969 56.4463 13.3496 52.8106 13.3496C49.1749 13.3496 46.2276 16.2969 46.2276 19.9326C46.2276 20.0114 46.2307 20.0898 46.2335 20.168H21.1905C21.1932 20.0898 21.1964 20.0114 21.1964 19.9326C21.1964 16.2969 18.249 13.3496 14.6133 13.3496C10.9777 13.3496 8.03034 16.2969 8.03034 19.9326C8.03034 20.0114 8.03345 20.0898 8.0362 20.168H1.83112C1.50779 20.168 1.1994 20.0199 1.03425 19.7529C0.18899 18.3862 -0.118146 16.6787 0.0420603 15.0957H7.95905L5.16315 14.4678H0.851631C0.77092 14.1729 0.697259 13.8797 0.629951 13.5859H4.51569L2.32136 10.3096H0.403388C0.666058 8.10043 1.85662 5.37964 5.02155 1.28613C5.20565 1.07654 5.47918 0.959961 5.76472 0.959961H6.8155C7.27162 0.376995 7.99775 8.5872e-10 8.8155 0H35.2188ZM24.1133 7.55859H24.1124V8.79492L24.1133 8.79688V8.80762H24.1173L25.2921 11.7598V8.80762H32.2979L33.8145 1.98535H24.1133V7.55859ZM6.70905 2.77344L5.38581 3.69043L4.77839 5.39648L3.56354 8.80762H20.4678L22.6944 1.98535H8.08015L6.70905 2.77344ZM35.7442 8.80566H48.5333L42.7706 4.27344C41.2994 3.1166 39.5325 2.39609 37.6719 2.19336L35.7442 1.9834V8.80566Z" fill="#313D47"/>
</svg>
