<svg width="121" height="120" viewBox="0 0 121 120" fill="none" xmlns="http://www.w3.org/2000/svg">
<path fill-rule="evenodd" clip-rule="evenodd" d="M120.198 60C120.198 93.137 93.3352 120 60.1982 120C27.0612 120 0.198242 93.137 0.198242 60C0.198242 26.863 27.0612 0 60.1982 0C93.3352 0 120.198 26.863 120.198 60Z" fill="#E6F1F5"/>
<path fill-rule="evenodd" clip-rule="evenodd" d="M55.0669 57.3961L56.1329 57.6821L56.4779 57.2721C56.7139 56.9911 56.9289 56.6931 57.1229 56.3811L58.9399 53.4521C59.2389 52.8911 59.6149 51.8281 59.5959 51.1561L59.5139 50.4961L59.4819 50.6541C59.3899 51.1101 58.8529 52.6991 56.2289 55.9691L55.0669 57.3961Z" fill="#E09F73"/>
<path fill-rule="evenodd" clip-rule="evenodd" d="M62.2197 58.3708L63.6497 58.0958C64.0307 57.7128 64.6737 56.5898 64.7987 56.2438L65.2727 55.0158C65.5357 54.2148 65.6587 53.3938 65.5967 52.5538C65.5707 52.1978 65.5217 51.8458 65.4517 51.5548L65.2347 50.9258L65.2357 51.0878C65.2407 51.5528 65.2017 52.0168 65.1167 52.4738C65.1057 52.5318 65.0577 54.3958 63.3297 56.9208L62.2197 58.3708Z" fill="#E09F73"/>
<path fill-rule="evenodd" clip-rule="evenodd" d="M68.0922 65.9086C67.8672 66.0636 66.1472 68.1656 65.6352 68.8636C66.7372 66.4186 68.3112 62.8466 69.2842 60.6776C69.5252 59.9256 69.4132 60.2876 69.7982 59.2166C69.9062 58.8536 69.8932 58.6456 69.9142 58.3736C70.0922 56.0186 68.6492 54.0466 66.2322 55.3726C65.6692 55.6816 65.1832 56.2596 64.7842 56.8726C64.4832 57.3366 64.0762 58.1046 63.7472 58.6126C63.6112 58.6076 63.3412 58.5396 63.2452 58.5226C63.1492 58.5046 63.2142 58.5176 63.2062 58.5136C63.4992 58.3876 63.6942 58.1196 63.8842 57.8856C64.1462 57.5606 64.4082 56.9826 64.5972 56.6526C64.9062 56.1136 65.3932 54.7426 65.4752 54.3276C66.0192 51.5846 64.9842 48.4296 61.7892 50.2626C60.9942 50.7186 60.7042 51.2076 60.0742 52.0556C59.7942 52.4336 59.8102 52.5066 59.2532 53.3956C58.6952 54.2856 57.5292 56.2256 56.8552 57.3176C56.6402 57.4576 56.5482 57.3356 56.3662 57.3726C56.7312 57.0496 56.9672 56.7766 57.2142 56.3416C57.7442 55.4046 58.3902 54.5386 58.8852 53.5466C59.1112 53.0916 59.5222 52.1676 59.5722 51.5536C59.6472 50.6116 59.4632 50.1006 59.0992 49.4466C58.4652 48.3086 56.7752 48.2996 54.6212 50.1466C53.5482 51.0656 51.0812 54.4086 49.8832 55.5196C48.4902 56.8106 44.2102 60.8026 42.6622 62.0856C42.6682 62.0926 42.6732 62.0986 42.6792 62.1056C39.9272 64.6876 36.9922 67.4356 35.2952 69.0116C32.5972 71.5166 33.1672 71.4456 31.4072 73.1426C30.2102 74.3136 30.4942 71.3266 30.6812 69.6766C30.6962 68.4326 31.4042 66.9836 31.8132 65.8506C32.5752 64.1346 32.8722 63.3276 33.5562 61.3706C34.2412 59.4126 34.2812 55.4606 32.5232 53.7376C32.4932 53.7076 32.2782 53.4906 32.1542 53.3666C31.2362 52.4886 30.1302 52.6676 29.6732 53.8996C29.5022 54.6066 29.2782 55.6356 29.1272 56.2846C28.6032 58.5296 27.7772 60.2686 26.6442 62.3086C24.7702 65.6796 22.4462 68.8146 21.1662 72.5766C20.4632 74.7476 20.0202 76.6916 19.4602 78.9496C18.8992 81.2076 18.4392 83.4716 18.2972 85.9636C18.2482 86.8176 18.3452 85.6436 18.1182 88.9266C17.9212 91.7826 17.5772 94.3526 14.3882 98.7286C19.2232 104.443 25.0992 109.246 31.7362 112.829C31.9672 112.837 32.1982 112.849 32.4292 112.857C34.1822 110.1 35.6062 106.866 37.4112 104.259C39.2152 101.653 39.3962 102.025 42.7672 99.9776C43.1842 99.7236 45.0662 98.5366 47.8042 96.0166C50.2692 93.7476 56.2712 88.2416 57.6492 87.1636C60.0002 85.2226 62.1302 83.3686 63.5552 82.0686C63.5632 82.0766 63.5722 82.0846 63.5802 82.0916C63.7812 82.2766 66.3392 79.2926 67.2702 77.3136C68.2962 75.1346 69.0522 72.0596 69.9062 69.8826C71.6502 65.0676 68.8932 65.3576 68.0922 65.9086Z" fill="#F39E7C"/>
<path fill-rule="evenodd" clip-rule="evenodd" d="M32.1982 87.3407L31.8672 89.9467C31.7902 90.5487 31.8712 91.1777 32.0962 91.7327C32.4312 92.5597 32.9782 92.8507 33.6212 92.8437C34.1342 92.8387 34.6252 92.6367 35.0102 92.2987L35.1532 92.1727C36.4942 90.9947 38.1002 90.5927 39.7502 90.6237L43.5752 90.6937C46.5882 90.7497 49.3752 88.7917 51.1772 85.7297C51.2932 85.5327 51.3012 85.2557 51.1982 85.0327L48.4242 79.0537C48.3122 78.8137 48.0982 78.6917 47.8972 78.7547L35.5372 82.6217C33.7942 83.1667 32.4952 85.0027 32.1982 87.3407Z" fill="#DD876B"/>
<path fill-rule="evenodd" clip-rule="evenodd" d="M30.531 71.3401L30.651 69.7471C30.693 69.4291 30.737 69.0911 30.789 68.7941C30.967 67.7831 31.491 66.7371 31.827 65.7921C31.865 65.6851 31.958 65.5121 32.01 65.4111L32.943 63.2461L31.43 65.9151C31.025 66.6701 30.211 67.1111 29.358 67.0381L28.836 66.9931C28.767 66.9881 28.75 67.0851 28.816 67.1031L29.222 67.2141C29.997 67.4261 30.494 68.1121 30.511 68.9021C30.514 69.0321 30.517 69.1621 30.529 69.2911L30.531 71.3401Z" fill="#E09F73"/>
<path fill-rule="evenodd" clip-rule="evenodd" d="M18.8101 94.322L18.5781 94.037C18.2361 93.619 18.0461 93.097 18.0381 92.556L18.0011 89.959L17.4641 92.791C17.3971 93.141 17.2971 93.484 17.1641 93.815L16.7901 94.749C16.4921 95.363 15.8961 96.542 15.3301 97.365L14.8511 98.078L16.2151 96.815C16.6431 96.358 17.0221 95.857 17.3461 95.322L17.5761 94.941C17.5991 94.904 17.6501 94.897 17.6811 94.927L18.0631 95.294C19.4531 96.628 21.1621 97.817 23.0371 98.261L25.7431 98.902L22.9591 97.818C21.3801 97.132 19.2641 95.126 18.8101 94.322Z" fill="#DD876B"/>
<path fill-rule="evenodd" clip-rule="evenodd" d="M33.3169 100.621L36.6189 101.308C37.2049 101.43 37.8489 101.574 38.4379 101.464L41.1279 100.816L39.7239 101.713C39.1019 102.16 38.3119 102.862 37.8629 103.462L37.8139 103.529C37.7969 103.553 37.7599 103.54 37.7609 103.511L37.8129 102.128C37.3749 102.106 36.9439 102.014 36.5349 101.857L33.3169 100.621Z" fill="#DD876B"/>
<path fill-rule="evenodd" clip-rule="evenodd" d="M28.7488 58.6864C29.1228 58.6424 29.5038 58.3084 29.5968 57.9434L30.5378 54.2274C30.5878 54.0284 30.4988 53.7564 30.3698 53.5654L30.2938 53.4674C30.2168 53.3684 30.0818 53.2494 30.0818 53.2494L30.0648 53.2344C30.0078 53.2954 29.9878 53.3154 29.9058 53.4364C29.8218 53.5604 29.7028 53.7774 29.6668 53.9244L28.9268 57.0514C28.9098 57.1244 28.8898 57.1964 28.8658 57.2664L28.4628 58.4974C28.4508 58.7264 28.7488 58.6864 28.7488 58.6864Z" fill="white"/>
<path fill-rule="evenodd" clip-rule="evenodd" d="M87.0551 99.3071H34.2471C32.5901 99.3071 31.2471 97.9641 31.2471 96.3071V26.1191C31.2471 24.4631 32.5901 23.1191 34.2471 23.1191H87.0551C88.7121 23.1191 90.0551 24.4631 90.0551 26.1191V96.3071C90.0551 97.9641 88.7121 99.3071 87.0551 99.3071Z" fill="#313D47"/>
<mask id="mask0_7729_104600" style="mask-type:alpha" maskUnits="userSpaceOnUse" x="0" y="0" width="121" height="120">
<path fill-rule="evenodd" clip-rule="evenodd" d="M0.198242 120H120.198V0H0.198242V120Z" fill="white"/>
</mask>
<g mask="url(#mask0_7729_104600)">
<path fill-rule="evenodd" clip-rule="evenodd" d="M33.6509 96.1934H87.6509V26.2344H33.6509V96.1934Z" fill="white"/>
<path fill-rule="evenodd" clip-rule="evenodd" d="M23.6222 68.2011C24.8992 69.1871 26.2712 70.0701 27.6892 70.8381C28.3252 71.1821 28.9772 71.5081 29.6612 71.7461C29.9042 71.8301 30.1592 71.9091 30.4092 71.9431C30.4422 71.9471 30.4772 71.9511 30.5112 71.9541C30.5152 71.2161 30.6052 70.3381 30.6802 69.6761C30.6962 68.4311 31.4032 66.9831 31.8122 65.8501C32.5752 64.1331 32.8712 63.3271 33.5562 61.3691C34.2412 59.4121 34.2812 55.4591 32.5232 53.7371C32.4922 53.7071 32.2782 53.4901 32.1532 53.3661C31.2362 52.4871 30.1292 52.6671 29.6732 53.8991C29.5022 54.6051 29.2782 55.6351 29.1272 56.2841C28.6032 58.5291 27.7772 60.2681 26.6432 62.3081C25.5842 64.2141 24.3812 66.0441 23.3032 67.9561C23.4112 68.0391 23.5182 68.1211 23.6222 68.2011Z" fill="#F39E7C"/>
<path fill-rule="evenodd" clip-rule="evenodd" d="M30.531 71.3401L30.651 69.7471C30.693 69.4291 30.737 69.0911 30.789 68.7941C30.967 67.7831 31.491 66.7371 31.827 65.7921C31.865 65.6851 31.958 65.5121 32.01 65.4111L32.943 63.2461L31.43 65.9151C31.025 66.6701 30.211 67.1111 29.358 67.0381L28.836 66.9931C28.767 66.9881 28.75 67.0851 28.816 67.1031L29.222 67.2141C29.997 67.4261 30.494 68.1121 30.511 68.9021C30.514 69.0321 30.517 69.1621 30.529 69.2911L30.531 71.3401Z" fill="#DD876B"/>
<path fill-rule="evenodd" clip-rule="evenodd" d="M28.7488 58.6864C29.1228 58.6424 29.5038 58.3084 29.5968 57.9434L30.5378 54.2274C30.5878 54.0284 30.4988 53.7564 30.3698 53.5654L30.2938 53.4674C30.2168 53.3684 30.0818 53.2494 30.0818 53.2494L30.0648 53.2344C30.0078 53.2954 29.9878 53.3154 29.9058 53.4364C29.8218 53.5604 29.7028 53.7774 29.6668 53.9244L28.9268 57.0514C28.9098 57.1244 28.8898 57.1964 28.8658 57.2664L28.4628 58.4974C28.4508 58.7264 28.7488 58.6864 28.7488 58.6864Z" fill="white"/>
<path fill-rule="evenodd" clip-rule="evenodd" d="M66.1987 20H54.1987C49.7807 20 46.1987 23.582 46.1987 28H74.1987C74.1987 23.582 70.6167 20 66.1987 20Z" fill="#FACD46"/>
<path fill-rule="evenodd" clip-rule="evenodd" d="M58.6978 16.1152C58.6978 15.2872 59.3698 14.6152 60.1978 14.6152C61.0258 14.6152 61.6978 15.2872 61.6978 16.1152C61.6978 16.9432 61.0258 17.6152 60.1978 17.6152C59.3698 17.6152 58.6978 16.9432 58.6978 16.1152ZM64.6978 17.6152H63.9008C64.0888 17.1512 64.1978 16.6462 64.1978 16.1152C64.1978 13.9062 62.4068 12.1152 60.1978 12.1152C57.9888 12.1152 56.1978 13.9062 56.1978 16.1152C56.1978 16.6462 56.3068 17.1512 56.4948 17.6152H55.6978C54.3168 17.6152 53.1978 18.7342 53.1978 20.1152H67.1978C67.1978 18.7342 66.0788 17.6152 64.6978 17.6152Z" fill="#AC6000"/>
<path fill-rule="evenodd" clip-rule="evenodd" d="M77.771 44.6309H59.255C58.769 44.6309 58.376 44.2369 58.376 43.7519V43.5099C58.376 43.0249 58.769 42.6309 59.255 42.6309H77.771C78.257 42.6309 78.65 43.0249 78.65 43.5099V43.7519C78.65 44.2369 78.257 44.6309 77.771 44.6309Z" fill="#D4D7D9"/>
<path fill-rule="evenodd" clip-rule="evenodd" d="M77.771 62.3027H59.255C58.769 62.3027 58.376 61.9087 58.376 61.4237V61.1817C58.376 60.6967 58.769 60.3027 59.255 60.3027H77.771C78.257 60.3027 78.65 60.6967 78.65 61.1817V61.4237C78.65 61.9087 78.257 62.3027 77.771 62.3027Z" fill="#D4D7D9"/>
<path fill-rule="evenodd" clip-rule="evenodd" d="M77.771 80.2129H59.255C58.769 80.2129 58.376 79.8189 58.376 79.3339V79.0919C58.376 78.6069 58.769 78.2129 59.255 78.2129H77.771C78.257 78.2129 78.65 78.6069 78.65 79.0919V79.3339C78.65 79.8189 78.257 80.2129 77.771 80.2129Z" fill="#D4D7D9"/>
<path fill-rule="evenodd" clip-rule="evenodd" d="M54.4819 43.2129C54.4819 46.8029 51.5719 49.7129 47.9819 49.7129C44.3919 49.7129 41.4819 46.8029 41.4819 43.2129C41.4819 39.6229 44.3919 36.7129 47.9819 36.7129C51.5719 36.7129 54.4819 39.6229 54.4819 43.2129Z" fill="#62A744"/>
<path fill-rule="evenodd" clip-rule="evenodd" d="M47.5767 40.9167H50.6159V39.1581H48.793V38H47.0211V39.2233C45.9766 39.4724 45.1982 40.4069 45.1982 41.5186C45.1982 42.8204 46.2653 43.8792 47.5767 43.8792H48.2374C48.572 43.8792 48.8439 44.1493 48.8439 44.4814C48.8439 44.8134 48.572 45.0833 48.2374 45.0833H45.1982V46.8419H47.0211V48H48.793V46.7767C49.8375 46.5276 50.6159 45.5931 50.6159 44.4814C50.6159 43.1796 49.5491 42.1208 48.2374 42.1208H47.5767C47.2422 42.1208 46.9702 41.8507 46.9702 41.5186C46.9702 41.1869 47.2422 40.9167 47.5767 40.9167Z" fill="white"/>
<path fill-rule="evenodd" clip-rule="evenodd" d="M54.4819 61.2129C54.4819 64.8029 51.5719 67.7129 47.9819 67.7129C44.3919 67.7129 41.4819 64.8029 41.4819 61.2129C41.4819 57.6229 44.3919 54.7129 47.9819 54.7129C51.5719 54.7129 54.4819 57.6229 54.4819 61.2129Z" fill="#62A744"/>
<path fill-rule="evenodd" clip-rule="evenodd" d="M47.5767 58.9167H50.6159V57.1581H48.793V56H47.0211V57.2233C45.9766 57.4724 45.1982 58.4069 45.1982 59.5186C45.1982 60.8204 46.2653 61.8792 47.5767 61.8792H48.2374C48.572 61.8792 48.8439 62.1493 48.8439 62.4814C48.8439 62.8134 48.572 63.0833 48.2374 63.0833H45.1982V64.8419H47.0211V66H48.793V64.7767C49.8375 64.5276 50.6159 63.5931 50.6159 62.4814C50.6159 61.1796 49.5491 60.1208 48.2374 60.1208H47.5767C47.2422 60.1208 46.9702 59.8507 46.9702 59.5186C46.9702 59.1869 47.2422 58.9167 47.5767 58.9167Z" fill="white"/>
<path fill-rule="evenodd" clip-rule="evenodd" d="M54.4819 79.2129C54.4819 82.8029 51.5719 85.7129 47.9819 85.7129C44.3919 85.7129 41.4819 82.8029 41.4819 79.2129C41.4819 75.6229 44.3919 72.7129 47.9819 72.7129C51.5719 72.7129 54.4819 75.6229 54.4819 79.2129Z" fill="#62A744"/>
<path fill-rule="evenodd" clip-rule="evenodd" d="M47.5767 76.9167H50.6159V75.1581H48.793V74H47.0211V75.2233C45.9766 75.4724 45.1982 76.4069 45.1982 77.5186C45.1982 78.8204 46.2653 79.8792 47.5767 79.8792H48.2374C48.572 79.8792 48.8439 80.1493 48.8439 80.4814C48.8439 80.8134 48.572 81.0833 48.2374 81.0833H45.1982V82.8419H47.0211V84H48.793V82.7767C49.8375 82.5276 50.6159 81.5931 50.6159 80.4814C50.6159 79.1796 49.5491 78.1208 48.2374 78.1208H47.5767C47.2422 78.1208 46.9702 77.8507 46.9702 77.5186C46.9702 77.1869 47.2422 76.9167 47.5767 76.9167Z" fill="white"/>
</g>
</svg>
