<svg width="105" height="40" viewBox="0 0 105 40" fill="none" xmlns="http://www.w3.org/2000/svg">
<path d="M103.284 17.3323V20.2202C103.284 20.5737 102.997 20.8603 102.643 20.8603H99.4349C99.0814 20.8603 98.7948 21.1469 98.7948 21.5005V37.8548C98.7948 38.2083 98.5082 38.4949 98.1546 38.4949H35.9516H15.8271C15.5846 38.4949 15.3629 38.3579 15.2545 38.141L15.1108 37.8536H9.33935C8.98582 37.8536 8.69923 37.5671 8.69921 37.2135L8.69824 14.7684V12.273C8.69824 11.9194 8.98484 11.6328 9.33838 11.6328H75.0694C75.4229 11.6328 75.7095 11.9194 75.7095 12.273V16.052C75.7095 16.4056 75.9961 16.6922 76.3497 16.6922H102.643C102.997 16.6922 103.284 16.9788 103.284 17.3323Z" fill="white"/>
<path d="M35.9516 38.4949H98.1546C98.5082 38.4949 98.7948 38.2083 98.7948 37.8548V21.5005C98.7948 21.1469 99.0814 20.8603 99.4349 20.8603H102.643C102.997 20.8603 103.284 20.5737 103.284 20.2202V17.3323C103.284 16.9788 102.997 16.6922 102.643 16.6922H76.3497C75.9961 16.6922 75.7095 16.4056 75.7095 16.052V12.273C75.7095 11.9194 75.4229 11.6328 75.0694 11.6328H9.33838C8.98484 11.6328 8.69824 11.9194 8.69824 12.273V14.7684L8.69921 37.2135C8.69923 37.5671 8.98582 37.8536 9.33935 37.8536H15.1108M35.9516 38.4949H15.8271C15.5846 38.4949 15.3629 38.3579 15.2545 38.141L15.1108 37.8536M35.9516 38.4949L15.1108 37.8536" stroke="white" stroke-width="0.160035" stroke-linecap="round"/>
<rect x="65.8545" y="23.6836" width="7.04943" height="11.2791" fill="#3E8500"/>
<path d="M47.5264 26.2195C47.5264 24.8179 48.6626 23.6816 50.0642 23.6816V34.9607H47.5264V26.2195Z" fill="#3E8500"/>
<rect x="49.7822" y="23.6816" width="3.38378" height="11.2791" fill="#3E8500"/>
<path d="M81.1582 36.8242L93.9833 36.8242" stroke="#3E8500" stroke-width="0.320069"/>
<path d="M81.1582 34.2363L93.9833 34.2363" stroke="#3E8500" stroke-width="0.320069"/>
<path d="M81.1582 31.6797L93.9833 31.6797" stroke="#3E8500" stroke-width="0.320069"/>
<path d="M81.1582 29.1133L93.9833 29.1133" stroke="#3E8500" stroke-width="0.320069"/>
<path d="M1.17202 10.0498C1.06629 9.9946 1 9.88524 1 9.76599V5.77546C1 5.60499 1.13361 5.46444 1.30385 5.4558L89.1571 0.99948C89.34 0.990202 89.4934 1.136 89.4934 1.31914V5.39338C89.4934 5.44452 89.4811 5.49493 89.4576 5.54036L83.7221 16.6348H75.7064V12.844C75.7064 12.3137 75.2765 11.8838 74.7462 11.8838H8.09874H4.68722L1.17202 10.0498Z" fill="#3E8500"/>
<path d="M83.7221 16.6348L89.4576 5.54036C89.4811 5.49493 89.4934 5.44452 89.4934 5.39338V1.31914C89.4934 1.136 89.34 0.990202 89.1571 0.99948L1.30385 5.4558C1.13361 5.46444 1 5.60499 1 5.77546V9.76599C1 9.88524 1.06629 9.9946 1.17202 10.0498L4.68722 11.8838M83.7221 16.6348L103.597 16.3768C103.776 16.3745 103.922 16.5184 103.922 16.6968V20.8619C103.922 21.0387 103.778 21.182 103.602 21.182H98.471M83.7221 16.6348H75.7064V12.844C75.7064 12.3137 75.2765 11.8838 74.7462 11.8838H8.09874M4.68722 11.8838L8.09874 13.8075V11.8838M4.68722 11.8838H8.09874" stroke="#3E8500" stroke-width="0.960208"/>
<path d="M43.6446 38.4978V24.384C43.6446 22.4395 45.2209 20.8632 47.1654 20.8632H98.4726C98.6494 20.8632 98.7927 21.0065 98.7927 21.1833V36.4978C98.7927 37.6024 97.8973 38.4978 96.7927 38.4978H43.6446ZM43.6446 38.4978H10.0166C8.91203 38.4978 8.0166 37.6024 8.0166 36.4978V11.2363" stroke="#3E8500" stroke-width="2"/>
<path d="M77.1338 20.8633V38.8185" stroke="#3E8500" stroke-width="2"/>
<path d="M81.3633 26.824V38.3677C81.3633 38.5445 81.5066 38.6878 81.6834 38.6878H94.189C94.3657 38.6878 94.509 38.5445 94.509 38.3677V26.824C94.509 26.6472 94.3657 26.5039 94.189 26.5039H81.6834C81.5066 26.5039 81.3633 26.6472 81.3633 26.824Z" fill="#3E8500" stroke="#3E8500" stroke-width="0.320069"/>
<path d="M1.96191 6.43997L88.5315 1.95117V4.5162L1.96191 9.00499V6.43997Z" fill="white"/>
<rect x="17.1143" y="16.6348" width="7.46753" height="7.0745" fill="#3E8500"/>
<rect x="27.0557" y="16.6348" width="7.46753" height="7.0745" fill="#3E8500"/>
<path d="M98.471 20.864H103.602C103.778 20.864 103.922 20.7207 103.922 20.5439V16.2315C103.922 16.0547 103.778 15.9114 103.602 15.9114H84.1832L89.4586 5.5396C89.4814 5.49465 89.4934 5.44493 89.4934 5.3945V1.31914C89.4934 1.136 89.34 0.990202 89.1571 0.99948L1.30385 5.4558C1.13361 5.46444 1 5.60499 1 5.77546V9.76599C1 9.88524 1.06629 9.9946 1.17202 10.0498L4.68722 11.8838M4.68722 11.8838L7.9276 13.2321V12.2038C7.9276 12.0271 7.7843 11.8838 7.60753 11.8838H4.68722Z" stroke="#3E8500" stroke-width="2"/>
<rect x="17.1143" y="25.7441" width="7.46753" height="8.64661" fill="#3E8500"/>
<rect x="27.0557" y="25.7441" width="7.46753" height="8.64661" fill="#3E8500"/>
<rect x="55.9856" y="23.6836" width="7.04943" height="11.2791" fill="#3E8500"/>
</svg>
