<svg width="32" height="32" viewBox="0 0 32 32" fill="none" xmlns="http://www.w3.org/2000/svg">
<svg x="2" y="2.03" width="27.93" height="27.98" viewBox="0 0 20.9512 20.982" overflow="visible">
<path d="M16.4957 13.857C10.4957 14.8695 6.3707 16.857 6.3707 16.857L3.3707 20.982H16.1207C16.1207 20.982 17.2457 20.607 17.9957 19.857C19.2707 18.582 20.3207 16.9695 20.3207 16.9695C20.3207 16.9695 23.2457 12.732 16.4957 13.857Z" fill="#242C33"/>
<path d="M5.99583 16.107L2.84583 1.89449C2.35833 -0.130514 1.08333 -0.355514 0.333333 0.394486C-0.416667 1.14449 0.333333 3.91949 0.333333 3.91949L3.37083 19.482L5.99583 16.107Z" fill="#242C33"/>
<path d="M4.6832 3.28169C4.8707 3.43169 9.6332 6.58169 7.1582 12.9567C7.0832 13.1442 7.1957 13.3692 7.3832 13.4442C7.4207 13.4442 7.4582 13.4817 7.5332 13.4817C7.6832 13.4817 7.8332 13.4067 7.8707 13.2567C10.5707 6.31919 5.1707 2.71919 5.0957 2.68169C4.9082 2.56919 4.6832 2.60669 4.5707 2.79419C4.4582 2.94419 4.4957 3.16919 4.6832 3.28169Z" fill="#242C33"/>
<path d="M6.9332 2.53169C7.1207 2.68169 11.8832 5.83169 9.4082 12.2067C9.3332 12.3942 9.4457 12.6192 9.6332 12.6942C9.6707 12.6942 9.7082 12.7317 9.7832 12.7317C9.9332 12.7317 10.0832 12.6567 10.1207 12.5067C12.8207 5.56919 7.4207 1.96919 7.3457 1.93169C7.1582 1.81919 6.9332 1.85669 6.8207 2.04419C6.7082 2.19419 6.7457 2.41919 6.9332 2.53169Z" fill="#242C33"/>
</svg>
</svg>
