<svg width="64" height="26" viewBox="0 0 64 26" fill="none" xmlns="http://www.w3.org/2000/svg">
<path fill-rule="evenodd" clip-rule="evenodd" d="M14.7227 18.3496C13.7876 18.3496 13.0303 19.1076 13.0303 20.0445C13.0303 20.9796 13.7876 21.7377 14.7227 21.7377C15.6586 21.7377 16.415 20.9805 16.415 20.0445C16.415 19.1076 15.6586 18.3496 14.7227 18.3496ZM14.7226 17.0156C13.0508 17.0156 11.6968 18.371 11.6968 20.0444C11.6968 21.717 13.0508 23.0733 14.7226 23.0733C16.3944 23.0733 17.7485 21.717 17.7485 20.0444C17.7485 18.371 16.3944 17.0156 14.7226 17.0156ZM53.175 18.3496C52.2399 18.3496 51.4834 19.1076 51.4834 20.0445C51.4834 20.9796 52.2399 21.7377 53.175 21.7377C54.1109 21.7377 54.8682 20.9805 54.8682 20.0445C54.8682 19.1076 54.1109 18.3496 53.175 18.3496ZM53.1749 17.0156C51.504 17.0156 50.1499 18.371 50.1499 20.0444C50.1499 21.717 51.504 23.0733 53.1749 23.0733C54.8476 23.0733 56.2016 21.717 56.2016 20.0444C56.2016 18.371 54.8476 17.0156 53.1749 17.0156ZM53.1749 14.3467C56.3193 14.3467 58.8677 16.8976 58.8677 20.0443C58.8677 21.796 58.0775 23.3623 56.8354 24.4079H61.333V25.7418H53.1749H14.7227H1.3335V24.4079H11.063C9.82008 23.3623 9.02986 21.796 9.02986 20.0443C9.02986 16.8976 11.5791 14.3467 14.7227 14.3467C17.8663 14.3467 20.4155 16.8976 20.4155 20.0443C20.4155 21.796 19.6245 23.3623 18.3824 24.4079H49.5152C48.2723 23.3623 47.4829 21.796 47.4829 20.0443C47.4829 16.8976 50.0321 14.3467 53.1749 14.3467ZM0 18.0158V15.3462H5.33313L1.33349 14.0114V12.6775H0V10.0087H6.66662H33.3331L27.9999 8.67394L29.3334 3.33479L30.6669 2H41.3332L42.6667 3.33479H34.6666V8.67394L36 10.0087H42.6667L44.0002 8.67394L41.3332 4.66958H42.6667L46.6663 8.67394L61.333 10.0087L62.6665 11.3435L59.9995 12.6775L61.333 14.0114H64V15.3462H61.333L64 16.6819V19.3514L61.333 22.0194H59.9197C60.1024 21.3923 60.202 20.7299 60.202 20.0435C60.202 16.1619 57.0527 13.0112 53.1749 13.0112C49.2987 13.0112 46.1502 16.1628 46.1502 20.0435C46.1502 20.7299 46.249 21.3923 46.4325 22.0194H21.4667C21.6502 21.3923 21.7498 20.7299 21.7498 20.0435C21.7498 16.1619 18.5997 13.0112 14.7227 13.0112C10.8465 13.0112 7.69719 16.1628 7.69719 20.0435C7.69719 20.7299 7.79596 21.3923 7.97952 22.0194H5.33313L0 18.0158Z" fill="#3E8500"/>
</svg>
