<svg width="64" height="27" viewBox="0 0 64 27" fill="none" xmlns="http://www.w3.org/2000/svg">
<path fill-rule="evenodd" clip-rule="evenodd" d="M12.8274 20.1758C12.0964 20.1758 11.5024 20.7608 11.5024 21.4808C11.5024 22.1988 12.0964 22.7848 12.8274 22.7848C13.5584 22.7848 14.1544 22.1998 14.1544 21.4808C14.1544 20.7598 13.5584 20.1758 12.8274 20.1758Z" fill="#3E8500"/>
<mask id="mask0_7729_104484" style="mask-type:alpha" maskUnits="userSpaceOnUse" x="0" y="2" width="64" height="21">
<path fill-rule="evenodd" clip-rule="evenodd" d="M0 2H63.9676V22.7597H0V2Z" fill="white"/>
</mask>
<g mask="url(#mask0_7729_104484)">
<path fill-rule="evenodd" clip-rule="evenodd" d="M43.261 11.118L29.231 10.046L28.012 3.35803C32.164 3.29403 38.992 6.85003 42.355 8.66103C43.16 9.09403 43.883 9.76803 43.883 9.76803L43.261 11.118ZM9.91309 8.5699L11.8981 3.9399L25.1551 3.3689L25.6061 9.7689L9.91309 8.5699ZM63.968 15.387L62.513 13.912H58.186L56.696 12.437H61.059L55.24 10.962L46.817 9.631C35.759 2.13 27.288 2 27.288 2L7.76 2.776L7.695 4.587L2.626 9.74L5.806 12.448H1.178V17.993L3.677 19.554H0V19.559L4.877 22.76H6.71C6.624 22.347 6.578 21.919 6.578 21.48C6.578 18.029 9.376 15.23 12.828 15.23C16.28 15.23 19.078 18.029 19.078 21.48C19.078 21.919 19.032 22.347 18.946 22.76H45.731C45.645 22.347 45.599 21.919 45.599 21.48C45.599 18.029 48.397 15.23 51.849 15.23C55.3 15.23 58.099 18.029 58.099 21.48C58.099 21.919 58.052 22.347 57.966 22.76H62.513L63.968 21.285V19.791L59.63 18.317H63.968V15.387Z" fill="#3E8500"/>
</g>
<mask id="mask1_7729_104484" style="mask-type:alpha" maskUnits="userSpaceOnUse" x="1" y="16" width="62" height="11">
<path fill-rule="evenodd" clip-rule="evenodd" d="M1.38989 16.6758H62.6089V26.2822H1.38989V16.6758Z" fill="white"/>
</mask>
<g mask="url(#mask1_7729_104484)">
<path fill-rule="evenodd" clip-rule="evenodd" d="M51.8481 24.1839C50.3301 24.1839 49.1011 22.9709 49.1011 21.4789C49.1011 19.9869 50.3311 18.7749 51.8481 18.7749C53.3641 18.7749 54.5961 19.9859 54.5961 21.4789C54.5961 22.9709 53.3651 24.1839 51.8481 24.1839ZM12.8268 24.1839C11.3098 24.1839 10.0798 22.9709 10.0798 21.4789C10.0798 19.9869 11.3108 18.7749 12.8268 18.7749C14.3438 18.7749 15.5758 19.9859 15.5758 21.4789C15.5758 22.9709 14.3448 24.1839 12.8268 24.1839ZM56.7289 21.4788C56.7289 18.8288 54.5419 16.6758 51.8479 16.6758C49.1559 16.6758 46.9669 18.8288 46.9669 21.4788C46.9669 22.8088 47.5179 24.0118 48.4069 24.8818H16.2699C17.1589 24.0118 17.7089 22.8088 17.7089 21.4788C17.7089 18.8288 15.5219 16.6758 12.8269 16.6758C10.1349 16.6758 7.94689 18.8288 7.94689 21.4788C7.94689 22.8088 8.49689 24.0118 9.38589 24.8818H1.38989V26.2828H12.8269H51.8479H62.6089V24.8818H55.2899C56.1789 24.0118 56.7289 22.8088 56.7289 21.4788Z" fill="#3E8500"/>
</g>
<path fill-rule="evenodd" clip-rule="evenodd" d="M51.848 20.1758C51.118 20.1758 50.522 20.7608 50.522 21.4808C50.522 22.1988 51.117 22.7848 51.848 22.7848C52.579 22.7848 53.175 22.1998 53.175 21.4808C53.175 20.7598 52.579 20.1758 51.848 20.1758Z" fill="#3E8500"/>
</svg>
