<svg width="121" height="132" viewBox="0 0 121 132" fill="none" xmlns="http://www.w3.org/2000/svg">
<mask id="mask0_7729_104599" style="mask-type:alpha" maskUnits="userSpaceOnUse" x="0" y="11" width="121" height="121">
<path fill-rule="evenodd" clip-rule="evenodd" d="M0.198242 71.5191C0.198242 104.921 27.0612 131.999 60.1982 131.999C93.3352 131.999 120.198 104.921 120.198 71.5191C120.198 38.117 93.3352 11.0391 60.1982 11.0391C27.0612 11.0391 0.198242 38.117 0.198242 71.5191Z" fill="white"/>
</mask>
<g mask="url(#mask0_7729_104599)">
<path fill-rule="evenodd" clip-rule="evenodd" d="M-0.783691 132.99H121.181V10.0488H-0.783691V132.99Z" fill="#D4D7D9"/>
</g>
<mask id="mask1_7729_104599" style="mask-type:alpha" maskUnits="userSpaceOnUse" x="0" y="11" width="121" height="88">
<path fill-rule="evenodd" clip-rule="evenodd" d="M0.198242 71.5191C0.198242 81.2201 2.46824 90.3868 6.49624 98.5123H113.9C117.929 90.3868 120.198 81.2201 120.198 71.5191C120.198 38.117 93.3352 11.0391 60.1982 11.0391C27.0612 11.0391 0.198242 38.117 0.198242 71.5191Z" fill="white"/>
</mask>
<g mask="url(#mask1_7729_104599)">
<path fill-rule="evenodd" clip-rule="evenodd" d="M-0.783691 99.5028H121.181V10.0488H-0.783691V99.5028Z" fill="#E6F1F5"/>
</g>
<mask id="mask2_7729_104599" style="mask-type:alpha" maskUnits="userSpaceOnUse" x="7" y="98" width="107" height="16">
<path fill-rule="evenodd" clip-rule="evenodd" d="M7.31738 98.5137C7.31738 98.5137 22.5674 108.574 44.2664 109.107C58.1644 109.448 69.6904 115.599 87.9954 112.865C103.981 110.479 113.9 98.5137 113.9 98.5137H7.31738Z" fill="white"/>
</mask>
<g mask="url(#mask2_7729_104599)">
<path fill-rule="evenodd" clip-rule="evenodd" d="M6.33545 116.589H114.883V97.5234H6.33545V116.589Z" fill="#666B70"/>
</g>
<mask id="mask3_7729_104599" style="mask-type:alpha" maskUnits="userSpaceOnUse" x="90" y="51" width="14" height="9">
<path fill-rule="evenodd" clip-rule="evenodd" d="M95.5308 51.3047C92.4648 51.3047 91.3339 55.9775 91.3339 55.9775L90.6399 59.2533L91.1145 59.6576L92.6464 57.8911C95.2021 55.0588 102.651 57.6699 103.381 54.6535C104.11 51.673 102.431 51.3047 102.431 51.3047H95.5308Z" fill="white"/>
</mask>
<g mask="url(#mask3_7729_104599)">
<path fill-rule="evenodd" clip-rule="evenodd" d="M89.6086 60.6972H105.142V50.2656H89.6086V60.6972Z" fill="#62A744"/>
</g>
<mask id="mask4_7729_104599" style="mask-type:alpha" maskUnits="userSpaceOnUse" x="92" y="54" width="12" height="3">
<path fill-rule="evenodd" clip-rule="evenodd" d="M98.9958 55.4615C95.0804 56.1801 92.9814 54.3851 92.9814 54.3851L93.6566 56.8967C93.6566 56.8967 98.2787 57.047 100.064 56.8967C104.334 56.5379 103.266 54.0273 103.266 54.0273C103.266 54.0273 102.91 54.7439 98.9958 55.4615Z" fill="white"/>
</mask>
<g mask="url(#mask4_7729_104599)">
<path fill-rule="evenodd" clip-rule="evenodd" d="M91.9502 58.0857H105.366V52.9863H91.9502V58.0857Z" fill="#306700"/>
</g>
<mask id="mask5_7729_104599" style="mask-type:alpha" maskUnits="userSpaceOnUse" x="17" y="51" width="14" height="9">
<path fill-rule="evenodd" clip-rule="evenodd" d="M18.285 51.3047C18.285 51.3047 16.6417 51.673 17.3358 54.6535C18.0666 57.6699 25.5132 55.0588 28.0678 57.8911L29.6019 59.6576L30.0765 59.2533L29.4192 55.9775C29.4192 55.9775 28.2873 51.3047 25.2213 51.3047H18.285Z" fill="white"/>
</mask>
<g mask="url(#mask5_7729_104599)">
<path fill-rule="evenodd" clip-rule="evenodd" d="M15.6106 60.6972H31.1075V50.2656H15.6106V60.6972Z" fill="#62A744"/>
</g>
<mask id="mask6_7729_104599" style="mask-type:alpha" maskUnits="userSpaceOnUse" x="17" y="51" width="11" height="6">
<path fill-rule="evenodd" clip-rule="evenodd" d="M23.5375 54.0278C21.532 55.645 17.4863 54.7443 17.4863 54.7443C17.4863 54.7443 17.4947 56.0218 18.9101 56.1806C22.1137 56.5383 25.6732 57.257 26.3851 54.7443C27.097 52.2338 27.4529 51.875 27.4529 51.875C27.4529 51.875 25.3172 52.5915 23.5375 54.0278Z" fill="white"/>
</mask>
<g mask="url(#mask6_7729_104599)">
<path fill-rule="evenodd" clip-rule="evenodd" d="M16.4551 58.2946H28.4839V50.834H16.4551V58.2946Z" fill="#306700"/>
</g>
<mask id="mask7_7729_104599" style="mask-type:alpha" maskUnits="userSpaceOnUse" x="94" y="69" width="15" height="31">
<path fill-rule="evenodd" clip-rule="evenodd" d="M98.9619 69.8047C96.5164 69.8047 94.5466 71.7924 94.5466 74.2214V94.9015C94.5466 97.3665 96.5164 99.3531 98.9619 99.3531H103.781C106.191 99.3531 108.2 97.3665 108.2 94.9015V74.2214C108.2 71.7924 106.191 69.8047 103.781 69.8047H98.9619Z" fill="white"/>
</mask>
<g mask="url(#mask7_7729_104599)">
<path fill-rule="evenodd" clip-rule="evenodd" d="M93.5146 100.393H109.231V68.7656H93.5146V100.393Z" fill="#1C1C1C"/>
</g>
<mask id="mask8_7729_104599" style="mask-type:alpha" maskUnits="userSpaceOnUse" x="12" y="69" width="15" height="31">
<path fill-rule="evenodd" clip-rule="evenodd" d="M16.9341 69.8047C14.5254 69.8047 12.5535 71.7924 12.5535 74.2214V94.9015C12.5535 97.3665 14.5254 99.3531 16.9341 99.3531H21.7903C24.199 99.3531 26.2066 97.3665 26.2066 94.9015V74.2214C26.2066 71.7924 24.199 69.8047 21.7903 69.8047H16.9341Z" fill="white"/>
</mask>
<g mask="url(#mask8_7729_104599)">
<path fill-rule="evenodd" clip-rule="evenodd" d="M11.5222 100.393H27.2386V68.7656H11.5222V100.393Z" fill="#1C1C1C"/>
</g>
<mask id="mask9_7729_104599" style="mask-type:alpha" maskUnits="userSpaceOnUse" x="14" y="37" width="93" height="58">
<path fill-rule="evenodd" clip-rule="evenodd" d="M41.5039 38.4797C38.8243 39.0776 30.1859 43.1715 25.5491 54.4319C25.5491 54.4319 22.7383 55.1685 21.8626 55.4998C20.9879 55.794 20.6939 59.1058 20.6939 59.1058C20.6939 59.1058 14.5252 59.437 14.5252 72.3167C14.5252 85.1583 13.5403 88.9484 16.496 92.3692C19.4539 95.7931 60.3766 94.7622 60.3766 94.7622C60.3766 94.7622 101.263 95.7931 104.22 92.3692C107.176 88.9484 106.191 85.1583 106.191 72.3167C106.191 59.437 100.021 59.1058 100.021 59.1058C100.021 59.1058 99.7295 55.794 98.8538 55.4998C97.9771 55.1685 95.1662 54.4319 95.1662 54.4319C90.5305 43.1715 81.911 38.9591 79.2136 38.4797C76.5161 38.0013 69.2753 37.1641 60.5551 37.1641C51.8338 37.1641 44.1814 37.8827 41.5039 38.4797Z" fill="white"/>
</mask>
<g mask="url(#mask9_7729_104599)">
<path fill-rule="evenodd" clip-rule="evenodd" d="M12.5081 96.8327H108.207V36.125H12.5081V96.8327Z" fill="#62A744"/>
</g>
<mask id="mask10_7729_104599" style="mask-type:alpha" maskUnits="userSpaceOnUse" x="14" y="72" width="93" height="23">
<path fill-rule="evenodd" clip-rule="evenodd" d="M14.4099 72.6417C14.412 72.5348 14.4141 72.429 14.4162 72.3242C14.4162 72.3242 14.412 72.4364 14.4099 72.6417ZM16.4976 92.3693C19.7494 95.5096 60.3771 94.7613 60.3771 94.7613C60.3771 94.7613 101.263 95.7922 104.221 92.3693C106.411 89.8313 106.447 87.108 106.301 80.7047C106.301 80.7047 98.9961 88.1103 88.3176 85.9586C79.7664 84.2344 72.3008 85.5987 54.5044 86.3163C36.7069 87.0339 31.0495 88.7993 22.471 87.0339C14.6916 85.4315 14.3976 74.6411 14.4102 72.6418C14.2842 79.079 13.6195 89.5921 16.4976 92.3693Z" fill="white"/>
</mask>
<g mask="url(#mask10_7729_104599)">
<path fill-rule="evenodd" clip-rule="evenodd" d="M12.54 96.8309H107.478V71.2832H12.54V96.8309Z" fill="#306700"/>
</g>
<mask id="mask11_7729_104599" style="mask-type:alpha" maskUnits="userSpaceOnUse" x="25" y="54" width="71" height="20">
<path fill-rule="evenodd" clip-rule="evenodd" d="M60.1976 55.4615C47.0285 55.4615 27.0963 54.3851 27.0963 54.3851C27.0963 54.3851 24.3243 56.0997 25.6725 58.3329C29.8914 65.3194 37.8032 69.7308 37.8032 69.7308C37.8032 69.7308 46.9928 73.0426 59.4867 73.0426C71.9786 73.0426 76.586 71.6635 81.5535 69.8123C85.0175 68.5221 89.5346 66.0031 94.0118 60.1258C96.2052 57.247 94.7237 54.0273 94.7237 54.0273C81.9105 55.8203 73.3677 55.4615 60.1976 55.4615Z" fill="white"/>
</mask>
<g mask="url(#mask11_7729_104599)">
<path fill-rule="evenodd" clip-rule="evenodd" d="M23.2932 74.0813H97.2363V52.9863H23.2932V74.0813Z" fill="#62A744"/>
</g>
<mask id="mask12_7729_104599" style="mask-type:alpha" maskUnits="userSpaceOnUse" x="27" y="39" width="67" height="17">
<path fill-rule="evenodd" clip-rule="evenodd" d="M35.2259 43.0796C31.7798 46.2569 29.2125 50.4704 27.4517 54.6098C28.992 55.8672 30.5324 55.6439 30.5324 55.6439H60.3765H90.2196C90.2196 55.6439 91.7222 55.8672 93.2993 54.6098C91.5405 50.4704 88.9365 46.2569 85.5272 43.0796C84.2808 41.8963 78.3504 39.6758 60.3765 39.6758C42.4016 39.6758 36.4355 41.8963 35.2259 43.0796Z" fill="white"/>
</mask>
<g mask="url(#mask12_7729_104599)">
<path fill-rule="evenodd" clip-rule="evenodd" d="M26.4219 56.9068H94.3317V38.6367H26.4219V56.9068Z" fill="#262728"/>
</g>
<mask id="mask13_7729_104599" style="mask-type:alpha" maskUnits="userSpaceOnUse" x="36" y="69" width="48" height="13">
<path fill-rule="evenodd" clip-rule="evenodd" d="M60.3766 69.041H38.0715C38.0715 69.041 37.0488 69.8507 36.9028 70.7704C36.9028 70.7704 42.3429 81.2571 60.3766 81.2571C78.3736 81.2571 83.8494 70.7704 83.8494 70.7704C83.7034 69.8507 82.645 69.041 82.645 69.041H60.3766Z" fill="white"/>
</mask>
<g mask="url(#mask13_7729_104599)">
<path fill-rule="evenodd" clip-rule="evenodd" d="M35.8716 82.2978H84.8803V68.002H35.8716V82.2978Z" fill="#1C1C1C"/>
</g>
<mask id="mask14_7729_104599" style="mask-type:alpha" maskUnits="userSpaceOnUse" x="17" y="64" width="15" height="10">
<path fill-rule="evenodd" clip-rule="evenodd" d="M17.7252 65.2578C17.3598 66.8718 17.4869 71.2483 19.9785 72.3247C24.9177 74.4574 26.9064 74.214 29.2332 73.0423C30.656 72.3247 31.6913 69.8787 30.4796 69.2913L19.9701 64.193C19.7444 64.084 19.5071 64.0332 19.2729 64.0332C18.5631 64.0332 17.8943 64.5074 17.7252 65.2578Z" fill="white"/>
</mask>
<g mask="url(#mask14_7729_104599)">
<path fill-rule="evenodd" clip-rule="evenodd" d="M16.3291 75.4975H32.7228V62.7109H16.3291V75.4975Z" fill="#FFEBEC"/>
</g>
<mask id="mask15_7729_104599" style="mask-type:alpha" maskUnits="userSpaceOnUse" x="89" y="64" width="15" height="10">
<path fill-rule="evenodd" clip-rule="evenodd" d="M100.551 64.2783L90.4993 69.1533C89.15 69.8074 89.1878 71.7601 90.5623 72.356C92.9311 73.3816 96.1472 74.1193 100.775 72.6841C103.517 71.8332 103.308 67.1106 103.023 65.5251C102.867 64.6636 102.115 64.1016 101.311 64.1016C101.057 64.1016 100.798 64.1577 100.551 64.2783Z" fill="white"/>
</mask>
<g mask="url(#mask15_7729_104599)">
<path fill-rule="evenodd" clip-rule="evenodd" d="M88.1194 75.1586H104.549V62.7383H88.1194V75.1586Z" fill="#FFEBEC"/>
</g>
<mask id="mask16_7729_104599" style="mask-type:alpha" maskUnits="userSpaceOnUse" x="32" y="83" width="56" height="8">
<path fill-rule="evenodd" clip-rule="evenodd" d="M82.8897 83.4767L60.0722 85.0156C60.0375 85.0188 60.0039 85.0188 59.9693 85.0178L38.1713 84.1795C37.9151 84.17 37.6662 84.2631 37.4783 84.4367C36.3978 85.4401 34.2684 87.4828 32.7491 88.9465C32.1191 89.5541 32.5443 90.6262 33.4158 90.6273L60.0207 90.6865H86.1468C86.8755 90.6865 87.3428 89.9076 87.0047 89.2577C86.1552 87.6204 84.7293 85.0114 83.6877 83.8112C83.5008 83.5963 83.2341 83.4746 82.9538 83.4746C82.9328 83.4746 82.9107 83.4757 82.8897 83.4767Z" fill="white"/>
</mask>
<g mask="url(#mask16_7729_104599)">
<path fill-rule="evenodd" clip-rule="evenodd" d="M31.0869 91.7277H88.3739V82.418H31.0869V91.7277Z" fill="#62A744"/>
</g>
<path fill-rule="evenodd" clip-rule="evenodd" d="M60.8561 33.9615L60.85 33.9646H60.847L60.8561 33.9615Z" stroke="#333333" stroke-width="0.1" stroke-linecap="round" stroke-linejoin="round"/>
<path opacity="0.5" fill-rule="evenodd" clip-rule="evenodd" d="M89.3212 49.1529C88.4566 54.0493 87.1609 58.308 85.4317 61.9279C83.2463 57.2917 80.6547 52.7849 77.657 48.4099C77.2814 47.8512 76.9057 47.3112 76.5322 46.7909C74.6125 44.1117 72.7331 41.9395 70.8939 40.2734C70.3767 39.8025 69.8617 39.3722 69.351 38.9826C68.3819 38.2439 67.4258 37.6501 66.4796 37.2001C65.7958 36.8752 65.1805 36.558 64.6339 36.2496C62.3266 34.9434 61.2257 33.7723 61.3324 32.735C61.0351 33.0215 60.7499 33.2553 60.4765 33.4375C60.4275 33.4704 60.3796 33.5023 60.3317 33.5319C59.4062 34.084 58.8508 33.7712 58.6668 32.5935C57.897 33.1796 57.3841 33.0061 57.1304 32.0743C56.9616 32.4167 56.8026 32.6769 56.6524 32.8514C56.3867 33.1587 56.1493 33.2037 55.9402 32.9875C55.9947 33.1137 56.0502 33.2399 56.109 33.3684C56.8941 35.0905 56.3736 36.873 54.5497 38.7148C54.125 39.1439 53.7091 39.6071 53.304 40.1065C53.2692 40.1482 53.2354 40.1899 53.2006 40.2327L53.0667 40.3996C52.0202 41.731 51.038 43.2983 50.1201 45.1006L37.8777 69.1831C35.4375 65.0758 34.1211 60.5471 33.9262 55.5992C28.2269 57.4706 23.3835 58.128 19.3982 57.5726C22.3208 54.3907 25.1094 50.4547 27.763 45.7647C27.8131 45.6757 27.8632 45.5857 27.9133 45.4968C29.4715 42.7166 31.082 40.1614 32.7458 37.8301C32.7915 37.7642 32.8373 37.6995 32.883 37.6347C33.9741 36.1189 35.0869 34.6986 36.2226 33.3738C36.2727 33.3168 36.3228 33.2586 36.3729 33.2015C36.7366 32.7822 37.1035 32.3728 37.4716 31.9733C38.8098 30.2698 41.2413 29.8385 44.766 30.6825C48.698 31.6012 53.1755 31.3543 58.1986 29.9395H65.2154C68.0792 30.4685 70.8341 30.8373 73.4768 31.0469C73.4909 31.048 73.504 31.0491 73.5182 31.0502C76.1729 31.2577 78.7176 31.3038 81.1491 31.1885C83.2496 31.1062 85.2009 31.3674 87.0041 31.9733C87.9449 32.2883 88.8454 32.6977 89.7056 33.2015C92.9298 35.0916 95.5834 38.3021 97.6686 42.833C98.0182 43.5958 98.3525 44.3948 98.6715 45.2323C99.6559 47.9006 87.0215 42.4279 88.571 44.2511" fill="black"/>
<path fill-rule="evenodd" clip-rule="evenodd" d="M52.6935 95.0123C52.2569 94.9463 52.0162 94.776 51.9727 94.4996V31.8684C57.8407 31.3381 63.6292 31.3381 69.3393 31.8684V94.3985C69.2991 94.7678 68.6751 94.9824 67.4697 95.0453C62.7919 95.1639 58.1238 95.1598 53.4655 95.035C53.2085 95.0278 52.9505 95.0205 52.6935 95.0123Z" fill="#F42434"/>
<path opacity="0.5" fill-rule="evenodd" clip-rule="evenodd" d="M68.2773 82.5291C69.1019 81.8531 69.3312 80.5075 69.3661 78.1387L69.3627 91.7293C69.3211 93.8336 69.4875 95.3476 68.2773 95.7003C63.5847 96.3762 57.3021 95.7003 53.0328 95.7003C51.9439 95.7003 51.9852 93.8806 51.9404 92.3053V79.2035C51.9677 81.4724 52.4003 82.7714 53.2403 83.0947C58.3053 84.2703 63.4536 86.0205 68.2773 82.5291Z" fill="black"/>
<path opacity="0.5" fill-rule="evenodd" clip-rule="evenodd" d="M65.5074 36.2217C64.1169 35.5785 62.4814 35.2733 60.6009 35.3052C58.3839 35.3919 56.2366 36.3062 54.1579 38.0481L51.6143 40.1807V31.8938C57.4823 31.3297 63.2719 31.3297 68.982 31.8938V38.4805C68.1022 37.6442 66.9447 36.8912 65.5074 36.2217Z" fill="black"/>
<path fill-rule="evenodd" clip-rule="evenodd" d="M91.3389 11.0358C91.5545 11.4178 91.9334 11.9666 92.4768 12.6833C93.0169 13.4 93.4209 14.4087 93.6844 15.7094C93.7007 15.7632 93.717 15.818 93.7334 15.8729C93.8445 16.301 93.9261 16.773 93.9762 17.2899C94.1385 22.0403 90.6115 25.5483 83.3922 27.8126C77.938 29.5205 71.8783 30.032 65.2121 29.3471C68.0781 29.8212 70.834 30.1527 73.4779 30.3415C73.4909 30.3415 73.504 30.3426 73.5182 30.3448C76.1729 30.5292 78.7176 30.5687 81.1491 30.4644C83.2496 30.3909 85.2009 30.6269 87.003 31.1702C87.9438 31.4534 88.8443 31.8211 89.7056 32.2722C92.9287 33.9669 95.5834 36.8459 97.6675 40.9092C98.0182 41.5941 98.3525 42.3119 98.6715 43.0638C99.6559 45.4555 100.923 47.4685 102.473 49.1028C98.0356 49.2532 93.6528 48.4113 89.3212 46.5783C88.4566 50.9698 87.1609 54.7895 85.4317 58.0351C83.2463 53.8773 80.6547 49.836 77.657 45.9121C77.2803 45.4115 76.9057 44.9275 76.5322 44.4621C74.6125 42.0584 72.7331 40.1079 70.8939 38.613C70.3767 38.1904 69.8617 37.8052 69.351 37.455C68.383 36.7932 67.4258 36.2609 66.4807 35.858C65.7968 35.5672 65.1816 35.2829 64.635 35.0052C62.3276 33.8341 61.2268 32.7837 61.3313 31.8529C61.0351 32.1097 60.7498 32.3194 60.4754 32.4818C60.4275 32.5115 60.3796 32.54 60.3317 32.5674C59.4062 33.0635 58.8519 32.7837 58.6679 31.7278C57.897 32.2513 57.3841 32.0955 57.1304 31.2569C56.9616 31.5653 56.8015 31.7991 56.6524 31.9561C56.3867 32.2327 56.1493 32.2744 55.9402 32.0801C55.9947 32.1942 56.0502 32.3084 56.109 32.4236C56.893 33.968 56.3736 35.5661 54.5497 37.2169C54.124 37.601 53.7091 38.0181 53.304 38.4659C53.2692 38.5033 53.2354 38.5417 53.2006 38.5801L53.0656 38.7261C52.0202 39.9214 51.0391 41.3274 50.1212 42.9431L37.8788 64.5416C35.4386 60.8581 34.1211 56.797 33.9272 52.3583C28.2269 54.0365 23.3846 54.6259 19.3982 54.1276C22.3219 51.2738 25.1094 47.744 27.7641 43.539C27.8131 43.4589 27.8632 43.3788 27.9122 43.2987C29.4704 40.8049 31.082 38.5131 32.7447 36.4222C32.7915 36.3629 32.8373 36.3037 32.8841 36.2455C33.9752 34.8867 35.088 33.6134 36.2237 32.4269C36.2727 32.3754 36.3228 32.3238 36.3718 32.2722C36.7366 31.8968 37.1024 31.5291 37.4716 31.1702C38.8098 29.6423 41.2413 29.2549 44.7671 30.0111C48.698 30.8365 52.0126 29.897 54.7098 27.1925C52.4046 28.7686 49.3013 28.9739 45.3976 27.806C45.3726 27.7984 45.3464 27.7896 45.3214 27.7819L45.1232 27.7193C44.1182 27.4076 43.0619 27.0048 41.9545 26.5131C38.3046 24.893 35.3853 22.9096 33.1955 20.5641C33.1476 20.5136 33.0997 20.462 33.0518 20.4104C31.9738 19.2283 31.0787 17.9551 30.3666 16.5908C29.4247 14.1343 29.4584 12.5231 30.4657 11.7547C30.5256 11.7086 30.5898 11.6647 30.6562 11.6252C32.2885 10.5155 33.5657 9.31915 34.488 8.03496C37.3431 4.06165 41.5516 1.51522 47.1126 0.395663C47.9118 0.241999 48.6229 0.128946 49.2436 0.0576024C50.7081 -0.16082 51.6097 0.241999 51.9484 1.26496C52.2238 2.09146 52.7476 3.11881 53.5196 4.34702C53.5882 4.46008 53.6601 4.57313 53.7352 4.68838C54.1316 5.30633 54.5878 5.97147 55.1029 6.68491C55.399 7.09651 55.6636 7.49933 55.8967 7.89337C56.0654 8.17985 56.2168 8.46083 56.3518 8.73743C57.077 10.2269 57.3198 11.5923 57.0803 12.8348C56.7362 14.6272 56.0535 16.5919 55.0343 18.7289C54.0129 20.8659 53.9574 22.599 54.8655 23.9282C55.0571 22.6704 55.4143 21.7198 55.937 21.0745C56.8429 19.9549 57.6204 19.9988 58.2704 21.2062C58.9205 22.4157 59.8537 22.5112 61.07 21.4904C62.2874 20.4686 63.0463 20.5432 63.3501 21.7144C63.6539 22.8855 64.267 23.4255 65.1893 23.3322C66.399 23.431 66.7017 24.0907 66.0963 25.3134C66.5634 24.454 66.8694 23.6615 67.0164 22.9349C67.0338 22.8592 67.0491 22.7834 67.061 22.7088C67.171 22.0371 67.1362 21.4268 66.9587 20.8758C66.6037 19.7518 66.5318 18.5368 66.742 17.2329C66.9979 15.6326 67.6806 13.8961 68.7913 12.0258C70.319 9.45306 72.3835 7.05371 74.9827 4.82668C75.3704 4.4974 75.77 4.17251 76.1794 3.84981C76.2763 3.77408 76.3721 3.69834 76.4701 3.62371C76.848 3.33065 77.2367 3.04198 77.6353 2.7555C78.9452 1.99377 80.0352 1.97511 80.903 2.70172C81.9418 3.56444 82.9098 4.11872 83.8049 4.36459C86.9006 5.26133 89.3016 7.29079 91.0079 10.453C91.0123 10.4596 91.1222 10.6538 91.3389 11.0358Z" fill="#F42434"/>
<path fill-rule="evenodd" clip-rule="evenodd" d="M45.719 38.9447C43.6686 36.8856 40.7144 36.2886 36.8576 37.1524C33.3045 37.947 30.2731 40.0753 27.7632 43.5382C27.8133 43.4581 27.8623 43.378 27.9124 43.2989C29.4706 40.8052 31.081 38.5123 32.7449 36.4214C32.7917 36.3621 32.8374 36.3039 32.8842 36.2446C33.9753 34.8858 35.0881 33.6137 36.2228 32.4272C35.6141 33.1077 35.5237 33.6302 35.9516 33.9935C36.6104 34.55 38.4844 34.1658 41.5736 32.8388C44.2686 31.6786 46.5901 31.57 48.537 32.5139C50.3674 33.3898 51.1471 34.9846 50.8759 37.2972C50.7464 38.4168 50.9576 39.0918 51.5086 39.3223C51.9659 39.5122 52.5561 39.2367 53.278 38.4947C53.2519 38.5222 53.2258 38.5507 53.1996 38.5792L53.0657 38.7263C52.0204 39.9216 51.0382 41.3265 50.1213 42.9433L47.4971 47.5686M53.5197 4.34722C53.5883 4.45918 53.6601 4.57223 53.7342 4.68748C54.1316 5.30543 54.5879 5.97167 55.1018 6.68511C55.3991 7.09561 55.6637 7.49843 55.8967 7.89357C55.1378 6.73231 54.0968 6.24497 52.7727 6.43266C47.9217 7.03963 44.2162 8.86933 41.6551 11.9218C39.9096 13.9995 39.522 15.8962 40.4889 17.6106C39.4229 16.0246 38.4386 14.7217 37.5337 13.6999C37.5272 13.6922 37.5195 13.6856 37.513 13.679L37.4782 13.6373C36.5232 12.5156 36.6658 11.0569 37.9072 9.26008C40.8788 5.46677 45.084 3.37036 50.523 2.97193C51.8471 2.94449 52.8456 3.40329 53.5197 4.34722ZM74.7546 23.9142C71.9093 27.4879 68.2169 29.2397 63.6784 29.1673C63.821 29.1607 63.9626 29.1497 64.103 29.1354C67.4971 28.8237 70.546 26.6845 73.2497 22.7178C74.172 21.3348 74.9647 20.9276 75.6268 21.4961C76.0634 21.8254 75.7727 22.6322 74.7546 23.9142ZM91.3386 11.035C91.5531 11.4181 91.9331 11.9669 92.4754 12.6825C93.0166 13.3992 93.4195 14.409 93.6841 15.7097C93.2246 14.1138 92.3099 13.1611 90.9433 12.8493C90.1691 12.6726 89.2839 12.8669 88.2875 13.4322C89.0182 12.7264 89.1358 11.687 88.6403 10.3117C87.8455 8.09014 85.0481 5.93665 80.2505 3.85011C78.5169 3.20801 77.256 3.13228 76.4687 3.62291C76.8477 3.33095 77.2364 3.04118 77.6339 2.7547C78.9449 1.99297 80.0338 1.97541 80.9027 2.70202C81.9415 3.56473 82.9084 4.11902 83.8046 4.36379C86.8992 5.26053 89.3002 7.28999 91.0076 10.4533C91.0119 10.4588 91.1219 10.653 91.3386 11.035Z" fill="#FF4D4D"/>
<path opacity="0.5" fill-rule="evenodd" clip-rule="evenodd" d="M52.3604 19.7333C51.7038 21.6201 50.91 22.8724 49.9769 23.4893C49.0339 24.0721 48.7214 23.5222 49.0393 21.8374C49.2538 20.7156 50.2142 19.6488 51.9205 18.639C52.6022 18.234 52.7492 18.5984 52.3604 19.7333ZM55.106 12.0401C55.0417 14.0762 53.6697 15.5898 50.9889 16.5842C49.3185 17.1945 48.2917 18.3283 47.9095 19.9857C47.6482 21.1195 47.1811 21.867 46.5092 22.2281C45.9386 22.5497 45.4726 22.5025 45.1133 22.0865C44.6396 21.5454 44.8247 20.5674 45.6664 19.1537C47.18 16.6665 49.0518 15.1573 51.2829 14.6272C52.9892 14.2266 54.2632 13.3639 55.106 12.0401ZM37.5345 13.7008C38.4382 14.7227 39.4237 16.0255 40.4897 17.6105C40.505 17.6346 40.5224 17.6599 40.5387 17.684C41.4229 19.0077 42.3626 20.5246 43.3578 22.2369C46.0877 26.9291 49.8716 28.581 54.7095 27.1925C52.9706 27.0509 52.021 26.5142 51.861 25.5834C51.7205 24.7504 51.8479 23.982 52.2421 23.2796C52.9542 22.2687 53.7774 23.5726 54.7095 27.1925C54.814 28.4394 55.1462 29.571 55.7069 30.5885C55.7701 30.7038 55.8376 30.8179 55.9084 30.9299C56.3189 31.5456 56.6641 31.5149 56.9428 30.8366C57.0114 30.5468 57.0212 30.2417 56.9711 29.9223C56.565 26.8918 57.0931 25.2816 58.5555 25.0928C59.5322 24.9468 59.358 26.3704 58.0361 29.3636C57.6462 30.2461 57.5537 30.8552 57.7573 31.1922C58.0382 31.4567 58.4128 31.4117 58.8832 31.0572C59.2937 30.7422 59.6476 29.908 59.9449 28.5536C60.2411 27.2013 60.8737 26.6119 61.8417 26.7864C62.8098 26.9609 62.629 27.7128 61.3006 29.0409C59.971 30.3712 59.3014 31.2965 59.2894 31.8178C59.2774 32.5806 59.6727 32.8024 60.4763 32.4819C60.4273 32.5115 60.3794 32.54 60.3314 32.5675C59.4059 33.0636 58.8516 32.7837 58.6676 31.7278C57.8967 32.2514 57.3838 32.0955 57.1301 31.2569C56.9613 31.5654 56.8024 31.7992 56.6521 31.9561C56.3864 32.2327 56.149 32.2744 55.94 32.0801C55.8376 31.8617 55.7407 31.6422 55.6503 31.4238C55.0536 29.9925 54.74 28.581 54.7095 27.1925L54.1542 31.8035C53.9756 33.3051 53.589 33.9219 52.9912 33.6541C52.3945 33.3852 52.2138 32.7354 52.4501 31.7048C52.8573 29.9179 53.6108 28.4142 54.7095 27.1925C52.4043 28.7687 49.301 28.9739 45.3973 27.8061C45.3723 27.7984 45.3472 27.7896 45.3222 27.7819L45.1229 27.7194C43.678 27.2277 42.8167 26.3627 42.539 25.1246C42.1655 23.4804 40.8316 22.6309 38.5373 22.5771C36.1592 22.4575 34.3789 21.7857 33.1952 20.5641C33.1473 20.5136 33.0994 20.462 33.0515 20.4105C31.9735 19.2283 31.0784 17.9551 30.3663 16.5908C29.4244 14.1344 29.4582 12.5231 30.4654 11.7548C30.5264 11.7087 30.5895 11.6648 30.6559 11.6253C32.592 10.464 34.5095 10.7691 36.4107 12.5407C36.7515 12.8601 37.1076 13.2256 37.4778 13.6372L37.5127 13.6789C37.5203 13.6855 37.5268 13.6931 37.5345 13.7008ZM73.377 33.5565C73.0895 35.1348 71.2036 35.4696 67.7169 34.5619C64.9424 33.8353 62.9193 32.8365 61.6475 31.5665C61.7662 31.4502 61.8881 31.3262 62.0122 31.1956C64.398 31.7905 67.0712 32.0407 70.0308 31.9485C72.4634 31.8772 73.5784 32.4139 73.377 33.5565ZM85.9383 15.2495C86.78 14.4472 87.5629 13.8413 88.287 13.4319C89.2833 12.8677 90.1686 12.6735 90.9428 12.8502C92.3104 13.1608 93.224 14.1146 93.6846 15.7094C93.701 15.7632 93.7162 15.8181 93.7325 15.873C93.8436 16.301 93.9253 16.773 93.9753 17.29C94.1376 22.0404 90.6107 25.5483 83.3924 27.8127C77.9382 29.5205 71.8774 30.032 65.2113 29.3471C68.0772 29.8213 70.8332 30.1528 73.477 30.3415C71.1882 31.2943 67.4522 31.4852 62.268 30.9156C62.709 30.4239 63.1718 29.8421 63.6552 29.1704C63.8589 28.8905 64.0647 28.5942 64.2748 28.2824C64.6396 27.7369 65.0174 27.1442 65.4051 26.5032C65.5924 26.1937 65.7829 25.8721 65.9767 25.5406C66.0192 25.4627 66.0595 25.387 66.0954 25.3134C66.5626 24.454 66.8696 23.6615 67.0166 22.9349C67.033 22.8592 67.0482 22.7835 67.0613 22.7088C67.5349 20.2623 68.4779 19.2536 69.8902 19.6827C70.7287 20 71.2034 20.642 71.3156 21.6101C71.4059 22.9371 70.8746 24.2828 69.7214 25.6471C68.0337 27.5668 66.1608 28.7303 64.1028 29.1364C63.9623 29.1506 63.8197 29.1605 63.677 29.1682L63.6705 29.1704C63.8643 29.1967 64.0581 29.2209 64.2519 29.2428C68.846 29.6775 73.2854 28.0607 77.5701 24.3936C79.4899 22.7538 81.378 20.7013 83.2345 18.2383C84.1939 17.0463 85.0955 16.0497 85.9383 15.2495Z" fill="black"/>
</svg>
