<svg width="64" height="27" viewBox="0 0 64 27" fill="none" xmlns="http://www.w3.org/2000/svg">
<mask id="mask0_7729_104491" style="mask-type:alpha" maskUnits="userSpaceOnUse" x="0" y="1" width="64" height="26">
<path fill-rule="evenodd" clip-rule="evenodd" d="M0 1H63.9997V26.2047H0V1Z" fill="white"/>
</mask>
<g mask="url(#mask0_7729_104491)">
<path fill-rule="evenodd" clip-rule="evenodd" d="M48.0969 9.96562C45.7299 9.78062 44.1309 9.55562 36.6739 9.08462L31.4739 3.05762C35.0889 3.17962 38.4009 3.36162 40.8339 3.58662C41.6799 4.01062 45.6129 6.00762 49.5369 8.42262L48.0969 9.96562ZM21.9427 8.20872L19.6067 2.93172C22.9487 2.89872 26.5827 2.90972 29.9997 3.00272L32.8807 8.86072C32.8807 8.86072 25.0237 8.36573 21.9427 8.20872ZM17.4997 8.02064L7.77271 7.66064C7.77271 7.66064 8.22871 6.11864 8.5097 5.33264C9.11471 3.63664 10.5077 3.22364 11.5647 3.15464C13.3077 3.04364 15.3117 2.97164 17.4997 2.93164V8.02064ZM63.4338 15.3957L62.7738 13.9237H61.0248L59.7438 12.6447H62.2008L61.3078 10.6527L53.9808 9.01774C53.9808 9.01774 44.8638 3.47274 41.4098 1.73274C35.5448 1.19374 14.9938 0.242739 5.10876 2.07074C4.38176 2.23274 4.11776 2.85574 4.52276 3.45474L4.68876 3.69974C3.74376 5.01774 2.54476 6.44774 1.68376 9.14574L2.17276 9.30374L2.51876 13.0787H0.852756C0.768756 13.7397 0.698756 14.4407 0.650756 15.2067L4.48276 16.4847H-0.000244141V19.0447L4.99976 21.3257L7.52076 21.5657C7.48676 21.2947 7.46376 21.0207 7.46376 20.7387C7.46376 17.0807 10.4298 14.1147 14.0888 14.1147C17.7478 14.1147 20.7138 17.0807 20.7138 20.7387C20.7138 21.4537 20.5978 22.1417 20.3878 22.7857L21.4208 22.8847H45.8028L46.0148 22.8677C45.7878 22.1987 45.6588 21.4857 45.6588 20.7387C45.6588 17.0807 48.6248 14.1147 52.2838 14.1147C55.9438 14.1147 58.9098 17.0807 58.9098 20.7387C58.9098 21.1307 58.8688 21.5117 58.8038 21.8847L59.0038 21.8687L61.2298 21.7617L63.9998 19.7897V16.3547C63.9478 16.2027 63.4338 15.3957 63.4338 15.3957ZM53.9087 20.7387C53.9087 21.6367 53.1807 22.3637 52.2827 22.3637C51.3867 22.3637 50.6597 21.6347 50.6597 20.7387C50.6597 19.8437 51.3877 19.1147 52.2827 19.1147C53.1797 19.1147 53.9087 19.8417 53.9087 20.7387ZM15.7149 20.7387C15.7149 21.6367 14.9859 22.3637 14.0879 22.3637C13.1909 22.3637 12.4639 21.6347 12.4639 20.7387C12.4639 19.8437 13.1929 19.1147 14.0879 19.1147C14.9849 19.1147 15.7149 19.8417 15.7149 20.7387ZM52.2827 23.6447C50.6797 23.6447 49.3787 22.3417 49.3787 20.7387C49.3787 19.1367 50.6807 17.8347 52.2827 17.8347C53.8857 17.8347 55.1897 19.1357 55.1897 20.7387C55.1897 22.3427 53.8877 23.6447 52.2827 23.6447ZM14.0878 23.6447C12.4848 23.6447 11.1838 22.3427 11.1838 20.7387C11.1838 19.1367 12.4868 17.8347 14.0878 17.8347C15.6918 17.8347 16.9938 19.1357 16.9938 20.7387C16.9938 22.3427 15.6928 23.6447 14.0878 23.6447ZM57.7479 20.7387C57.7479 17.7237 55.3009 15.2747 52.2829 15.2747C49.2679 15.2747 46.8199 17.7237 46.8199 20.7387C46.8199 22.4177 47.5779 23.9217 48.7719 24.9247H17.6019C18.7959 23.9217 19.5539 22.4177 19.5539 20.7387C19.5539 17.7237 17.1049 15.2747 14.0879 15.2747C11.0739 15.2747 8.62386 17.7237 8.62386 20.7387C8.62386 22.4177 9.38386 23.9217 10.5769 24.9247H1.23486V26.2047H14.0879H52.2829H60.1149V24.9247H55.7959C56.9909 23.9217 57.7479 22.4177 57.7479 20.7387Z" fill="#313D47"/>
</g>
</svg>
