<svg width="64" height="27" viewBox="0 0 64 27" fill="none" xmlns="http://www.w3.org/2000/svg">
<mask id="mask0_7729_104486" style="mask-type:alpha" maskUnits="userSpaceOnUse" x="0" y="3" width="64" height="24">
<path fill-rule="evenodd" clip-rule="evenodd" d="M0 3H63.991V26.074H0V3Z" fill="white"/>
</mask>
<g mask="url(#mask0_7729_104486)">
<path fill-rule="evenodd" clip-rule="evenodd" d="M53.1987 21.2711C53.1987 21.9901 52.6017 22.5751 51.8717 22.5751C51.1397 22.5751 50.5457 21.9891 50.5457 21.2711C50.5457 20.5511 51.1407 19.9661 51.8717 19.9661C52.6017 19.9661 53.1987 20.5501 53.1987 21.2711ZM14.1776 21.2711C14.1776 21.9901 13.5816 22.5751 12.8506 22.5751C12.1196 22.5751 11.5256 21.9891 11.5256 21.2711C11.5256 20.5511 12.1196 19.9661 12.8506 19.9661C13.5816 19.9661 14.1776 20.5501 14.1776 21.2711ZM38.6338 12.9659L40.0918 10.2249L30.6428 9.96893L25.8068 5.49993H23.3858L25.2568 9.82393L14.4478 9.53093V9.52393L13.0078 8.10893L18.5078 4.48193H34.2118L41.9068 9.55893L38.6338 12.9659ZM63.9918 15.178L62.5368 13.703H58.2098L56.7198 12.228H61.0828L57.0278 10.782L46.8408 9.422L34.5598 3H16.7838L5.58476 8.894L11.6878 9.531H2.64976L-0.000244141 12.239V17.784L3.70076 19.345H0.0237559V19.35L4.90076 22.551H6.73376C6.64776 22.138 6.60176 21.709 6.60176 21.271C6.60176 17.82 9.39976 15.021 12.8518 15.021C16.3038 15.021 19.1018 17.82 19.1018 21.271C19.1018 21.709 19.0558 22.138 18.9698 22.551H45.7548C45.6688 22.138 45.6228 21.709 45.6228 21.271C45.6228 17.82 48.4208 15.021 51.8728 15.021C55.3238 15.021 58.1228 17.82 58.1228 21.271C58.1228 21.709 58.0758 22.138 57.9898 22.551H62.5368L63.9918 21.076V19.582L59.6538 18.108H63.9918V15.178ZM51.8718 23.9759C50.3528 23.9759 49.1248 22.7629 49.1248 21.2709C49.1248 19.7789 50.3538 18.5669 51.8718 18.5669C53.3868 18.5669 54.6198 19.7779 54.6198 21.2709C54.6198 22.7629 53.3878 23.9759 51.8718 23.9759ZM12.8508 23.9759C11.3338 23.9759 10.1038 22.7629 10.1038 21.2709C10.1038 19.7789 11.3348 18.5669 12.8508 18.5669C14.3678 18.5669 15.5998 19.7779 15.5998 21.2709C15.5998 22.7629 14.3688 23.9759 12.8508 23.9759ZM56.7528 21.271C56.7528 18.621 54.5658 16.468 51.8718 16.468C49.1788 16.468 46.9908 18.621 46.9908 21.271C46.9908 22.601 47.5418 23.804 48.4298 24.674H16.2938C17.1828 23.804 17.7328 22.601 17.7328 21.271C17.7328 18.621 15.5458 16.468 12.8508 16.468C10.1588 16.468 7.96982 18.621 7.96982 21.271C7.96982 22.601 8.52082 23.804 9.40982 24.674H1.41382V26.075H12.8508H51.8718H62.6328V24.674H55.3128C56.2028 23.804 56.7528 22.601 56.7528 21.271Z" fill="#3E8500"/>
</g>
</svg>
