<svg width="24" height="24" viewBox="0 0 24 24" fill="none" xmlns="http://www.w3.org/2000/svg">
<path fill-rule="evenodd" clip-rule="evenodd" d="M12.8477 13.9387C12.6103 13.7833 12.3278 13.6931 12.0247 13.6931C11.1826 13.6931 10.5 14.3888 10.5 15.247C10.5 16.1051 11.1826 16.8008 12.0247 16.8008C12.8668 16.8008 13.5494 16.1051 13.5494 15.247C13.5494 14.9083 13.4431 14.5949 13.2626 14.3397L15 12.7017L14.5851 12.3008L12.8477 13.9387Z" fill="#313D47"/>
<path d="M12 4.72656V7.80325M12 4.72656C14.7552 4.72656 17.2501 5.90193 19.0588 7.80325M12 4.72656C9.24482 4.72656 6.74988 5.90193 4.94122 7.80325M19.0588 7.80325C20.8756 9.7132 22 12.3557 22 15.2752H19.0588M19.0588 7.80325L17 9.97499M4.94122 7.80325C3.12436 9.7132 2 12.3557 2 15.2752H4.94122M4.94122 7.80325L7 9.97499" stroke="#313D47" stroke-width="1.5"/>
<path d="M12 15.2761L15.75 11.3203" stroke="#313D47" stroke-width="1.5"/>
<path d="M12 15.2761L15.75 11.3203" stroke="#313D47" stroke-width="1.5"/>
</svg>
