<svg width="24" height="24" viewBox="0 0 24 24" fill="none" xmlns="http://www.w3.org/2000/svg">
<path fill-rule="evenodd" clip-rule="evenodd" d="M12 1L3.783 2.826C3.32556 2.92769 3.00008 3.33339 3 3.802V13.79C3.00048 15.7957 4.00312 17.6685 5.672 18.781L12 23L18.328 18.781C19.9972 17.6683 20.9999 15.795 21 13.789V3.802C20.9999 3.33339 20.6744 2.92769 20.217 2.826L12 1ZM14.9391 15.045L12.0001 13.5L9.06212 15.045L9.62212 11.773L7.24512 9.455L10.5301 8.977L12.0001 6L13.4691 8.977L16.7551 9.455L14.3781 11.773L14.9391 15.045Z" fill="#242C33"/>
</svg>
