<svg width="40" height="40" viewBox="0 0 40 40" fill="none" xmlns="http://www.w3.org/2000/svg">
<path fill-rule="evenodd" clip-rule="evenodd" d="M18.3619 24.8651H15.3689C14.8859 24.8651 14.4949 24.4731 14.4949 23.9911V22.4281C14.4949 21.1201 15.5559 20.0581 16.8649 20.0581H24.1249C25.4329 20.0581 26.4949 21.1201 26.4949 22.4281V23.9911C26.4949 24.4731 26.1029 24.8651 25.6209 24.8651H22.6279H18.3619ZM23.9949 13.0701C25.3759 13.0701 26.4949 14.1311 26.4949 15.4401V17.0031C26.4949 17.4851 26.0819 17.8761 25.5729 17.8761H22.4169C21.9079 17.8761 21.4949 17.4851 21.4949 17.0031V15.4401C21.4949 14.1311 22.6139 13.0701 23.9949 13.0701ZM18.3619 31.856H15.3689C14.8859 31.856 14.4949 31.465 14.4949 30.982V29.42C14.4949 28.11 15.5559 27.05 16.8649 27.05H24.1249C25.4329 27.05 26.4949 28.11 26.4949 29.42V30.982C26.4949 31.465 26.1029 31.856 25.6209 31.856H22.6279H18.3619ZM16.9949 13.0701C18.3759 13.0701 19.4949 14.1311 19.4949 15.4401V17.0031C19.4949 17.4851 19.0819 17.8761 18.5729 17.8761H15.4169C14.9069 17.8761 14.4949 17.4851 14.4949 17.0031V15.4401C14.4949 14.1311 15.6139 13.0701 16.9949 13.0701ZM28.827 4.81296C29.111 6.02696 27.816 7.08096 27.007 6.07196C21.973 -0.21304 28.281 2.47496 28.827 4.81296ZM12.144 4.81296C12.69 2.47496 18.997 -0.21304 13.964 6.07196C13.155 7.08096 11.86 6.02696 12.144 4.81296ZM25.4949 10.103C27.1519 10.103 28.4949 11.447 28.4949 13.103V31.822C28.4949 33.479 27.1519 34.822 25.4949 34.822H15.4949C13.8379 34.822 12.4949 33.479 12.4949 31.822V13.103C12.4949 11.447 13.8379 10.103 15.4949 10.103H25.4949ZM10.117 6.886V14.164L7.86899 14.983C7.30199 15.19 6.91799 15.846 7.01499 16.441L7.09599 16.937C7.12699 17.128 7.30899 17.258 7.49999 17.227L10.117 16.8V33.999C10.117 37.312 12.804 40 16.118 40H24.852C28.167 40 30.853 37.312 30.853 33.999V16.8L33.471 17.227C33.662 17.258 33.843 17.128 33.875 16.937L33.974 16.329C34.066 15.766 33.745 15.218 33.209 15.022L30.853 14.164V6.886C30.853 1.452 25.67 0 20.486 0C15.301 0 10.117 1.452 10.117 6.886Z" fill="#313D47"/>
</svg>
