<svg width="120" height="120" viewBox="0 0 120 120" fill="none" xmlns="http://www.w3.org/2000/svg">
<path fill-rule="evenodd" clip-rule="evenodd" d="M120 60C120 93.137 93.137 120 60 120C26.863 120 0 93.137 0 60C0 26.863 26.863 0 60 0C93.137 0 120 26.863 120 60Z" fill="#E6F1F5"/>
<path fill-rule="evenodd" clip-rule="evenodd" d="M108 96H12.0004C22.1673 110.4 40.2238 120 59.8835 120C79.5432 120 97.2136 111 108 96Z" fill="#D4D7D9"/>
<path fill-rule="evenodd" clip-rule="evenodd" d="M12.15 95.9707H108.199C108.199 95.9707 98.2808 105.541 84.0362 107.45C67.7259 109.637 57.4564 104.717 45.0727 104.444C25.7383 104.017 12.15 95.9707 12.15 95.9707Z" fill="#666B70"/>
<path fill-rule="evenodd" clip-rule="evenodd" d="M88.3952 60.7223C88.3952 60.7223 89.3847 56.668 92.0666 56.668H98.1006C98.1006 56.668 99.5692 56.9873 98.9305 59.5731C98.2924 62.1909 91.779 59.9245 89.5444 62.3826L88.2034 63.9147L87.7888 63.5639L88.3952 60.7223Z" fill="#62A744"/>
<path fill-rule="evenodd" clip-rule="evenodd" d="M98.8308 59.0293C98.8308 59.0293 98.5195 59.6518 95.0956 60.2744C91.6716 60.8969 89.8363 59.3406 89.8363 59.3406L90.4265 61.5195C90.4265 61.5195 94.4696 61.6496 96.0294 61.5195C99.7646 61.2082 98.8308 59.0293 98.8308 59.0293Z" fill="#306700"/>
<path fill-rule="evenodd" clip-rule="evenodd" d="M34.2494 60.7223C34.2494 60.7223 33.2592 56.668 30.5779 56.668H24.5122C24.5122 56.668 23.0753 56.9873 23.682 59.5731C24.3204 62.1909 30.8332 59.9245 33.0681 62.3826L34.4087 63.9147L34.824 63.5639L34.2494 60.7223Z" fill="#62A744"/>
<path fill-rule="evenodd" clip-rule="evenodd" d="M29.1058 59.0297C30.6622 57.7847 32.5298 57.1621 32.5298 57.1621C32.5298 57.1621 32.2185 57.4734 31.596 59.6523C30.9735 61.8312 27.8607 61.2086 25.0593 60.8974C23.8217 60.7601 23.8142 59.6523 23.8142 59.6523C23.8142 59.6523 27.3518 60.433 29.1058 59.0297Z" fill="#306700"/>
<path fill-rule="evenodd" clip-rule="evenodd" d="M99.2821 72.7188H95.0678C92.9287 72.7188 91.2052 74.4423 91.2052 76.5499V94.4916C91.2052 96.6306 92.9287 98.3542 95.0678 98.3542H99.2821C101.389 98.3542 103.145 96.6306 103.145 94.4916V76.5499C103.145 74.4423 101.389 72.7188 99.2821 72.7188Z" fill="#1C1C1C"/>
<path fill-rule="evenodd" clip-rule="evenodd" d="M27.5774 72.7188H23.3314C21.2244 72.7188 19.5002 74.4423 19.5002 76.5499V94.4916C19.5002 96.6306 21.2244 98.3542 23.3314 98.3542H27.5774C29.6844 98.3542 31.4403 96.6306 31.4403 94.4916V76.5499C31.4403 74.4423 29.6844 72.7188 27.5774 72.7188Z" fill="#1C1C1C"/>
<path fill-rule="evenodd" clip-rule="evenodd" d="M77.7957 45.5418C80.1542 45.9567 87.6925 49.6123 91.7465 59.3819C91.7465 59.3819 94.2053 60.0203 94.9716 60.3076C95.7377 60.5632 95.9932 63.4359 95.9932 63.4359C95.9932 63.4359 101.388 63.7235 101.388 74.8976C101.388 86.0392 102.25 89.3275 99.6647 92.2961C97.078 95.2656 61.3225 94.3713 61.3225 94.3713C61.3225 94.3713 25.5344 95.2656 22.948 92.2961C20.3623 89.3275 21.2242 86.0392 21.2242 74.8976C21.2242 63.7235 26.6195 63.4359 26.6195 63.4359C26.6195 63.4359 26.8753 60.5632 27.6411 60.3076C28.4071 60.0203 30.8652 59.3819 30.8652 59.3819C34.9202 49.6123 42.4747 46.0607 44.817 45.5418C47.1594 45.0229 53.852 44.4004 61.4782 44.4004C69.1043 44.4004 75.4368 45.1269 77.7957 45.5418Z" fill="#62A744"/>
<path fill-rule="evenodd" clip-rule="evenodd" d="M101.485 82.1756C101.485 82.1756 95.096 88.6003 85.7579 86.7326C78.2796 85.237 71.7507 86.4213 56.1871 87.0439C40.6235 87.6664 35.6752 89.1985 28.1726 87.6664C20.6703 86.1334 21.1292 74.9043 21.1292 74.9043C21.0333 80.4593 20.3908 89.8453 22.9489 92.2954C25.7926 95.0193 61.3234 94.3706 61.3234 94.3706C61.3234 94.3706 97.0788 95.2649 99.6652 92.2954C101.581 90.0934 101.613 87.7309 101.485 82.1756Z" fill="#306700"/>
<path fill-rule="evenodd" clip-rule="evenodd" d="M61.1668 60.2744C49.6498 60.2744 32.2185 59.3406 32.2185 59.3406C32.2185 59.3406 29.7947 60.8275 30.9735 62.7646C34.663 68.8269 41.5819 72.654 41.5819 72.654C41.5819 72.654 49.6183 75.5267 60.5443 75.5267C71.4702 75.5267 75.4984 74.3308 79.8431 72.7253C82.8724 71.6056 86.8221 69.4192 90.7376 64.3209C92.6563 61.8226 91.3602 59.0293 91.3602 59.0293C80.1544 60.5857 72.6839 60.2744 61.1668 60.2744Z" fill="#62A744"/>
<path fill-rule="evenodd" clip-rule="evenodd" d="M61.323 60.4319H35.2235C35.2235 60.4319 33.8769 60.6249 32.53 59.5342C34.069 55.9437 36.3138 52.2884 39.3276 49.5308C40.3853 48.5049 45.6038 46.5781 61.323 46.5781C77.0422 46.5781 82.2273 48.5049 83.3174 49.5308C86.2994 52.2884 88.576 55.9437 90.1153 59.5342C88.736 60.6249 87.4219 60.4319 87.4219 60.4319H61.323Z" fill="#262728"/>
<path fill-rule="evenodd" clip-rule="evenodd" d="M61.3222 72.0547H41.8158C41.8158 72.0547 40.9215 72.7572 40.7942 73.555C40.7942 73.555 45.551 82.6535 61.3222 82.6535C77.0611 82.6535 81.8497 73.555 81.8497 73.555C81.7224 72.7572 80.7963 72.0547 80.7963 72.0547H61.3222Z" fill="#1C1C1C"/>
<path fill-rule="evenodd" clip-rule="evenodd" d="M35.1764 72.2732L25.9855 67.8506C25.1864 67.4659 24.219 67.9089 24.022 68.7739C23.7032 70.1743 23.814 73.9709 25.9929 74.9047C30.3118 76.7555 32.0518 76.5445 34.086 75.5272C35.3311 74.9047 36.2356 72.7827 35.1764 72.2732Z" fill="#FFEBEC"/>
<path fill-rule="evenodd" clip-rule="evenodd" d="M87.6653 72.1537L96.4553 67.9238C97.3565 67.4905 98.4381 68.0222 98.6171 69.0055C98.8674 70.3822 99.0495 74.4789 96.6514 75.2169C92.6049 76.462 89.7913 75.822 87.7207 74.9324C86.5177 74.4157 86.4856 72.7214 87.6653 72.1537Z" fill="#FFEBEC"/>
<path fill-rule="evenodd" clip-rule="evenodd" d="M61.0112 90.835H83.8595C84.4964 90.835 84.9051 90.1593 84.6097 89.5949C83.8666 88.1749 82.6197 85.9113 81.708 84.8695C81.5327 84.6694 81.2762 84.5623 81.0107 84.58L61.0557 85.9154C61.0259 85.9176 60.9963 85.9179 60.9667 85.9166L41.9032 85.1898C41.6794 85.1811 41.4621 85.2614 41.2975 85.413C40.3518 86.2827 38.4901 88.0551 37.161 89.3251C36.6097 89.852 36.9817 90.7824 37.7446 90.784L61.0112 90.835Z" fill="#62A744"/>
<path fill-rule="evenodd" clip-rule="evenodd" d="M76 36C76 44.2843 69.2843 51 61 51C52.7157 51 46 44.2843 46 36C46 27.7157 52.7157 21 61 21C69.2843 21 76 27.7157 76 36Z" fill="#FF8500"/>
<path d="M59 25H63V39H59V25Z" fill="#FFEBEC"/>
<path d="M59 42H63V46H59V42Z" fill="#FFEBEC"/>
</svg>
