<svg width="32" height="32" viewBox="0 0 32 32" fill="none" xmlns="http://www.w3.org/2000/svg">
<path fill-rule="evenodd" clip-rule="evenodd" d="M29.3333 26.6667V16.6667L30.9907 16.2533C31.5839 16.1047 32 15.5716 32 14.96V14C32 13.6318 31.7015 13.3333 31.3333 13.3333H28.8333L25.9827 5.73067C25.5924 4.68957 24.5972 3.99986 23.4853 4H8.51467C7.40283 3.99986 6.40759 4.68957 6.01733 5.73067L3.16667 13.3333H0.666667C0.298477 13.3333 0 13.6318 0 14V14.96C1.60773e-05 15.5716 0.416092 16.1047 1.00933 16.2533L2.66667 16.6667V26.6667C2.66667 27.403 3.26362 28 4 28H5.33333C6.06971 28 6.66667 27.403 6.66667 26.6667V25.3333H25.3333V26.6667C25.3333 27.403 25.9303 28 26.6667 28H28C28.7364 28 29.3333 27.403 29.3333 26.6667ZM5.33333 21.3333V18.6667C8.424 18.6667 10.5067 19.672 11.58 21.6853C11.6905 21.8918 11.6846 22.1411 11.5645 22.3421C11.4443 22.5431 11.2275 22.6663 10.9933 22.6667H6.66667C5.93029 22.6667 5.33333 22.0697 5.33333 21.3333ZM26.6667 18.6667C23.5773 18.6667 21.4947 19.6733 20.4187 21.6853C20.308 21.892 20.314 22.1416 20.4345 22.3427C20.555 22.5437 20.7723 22.6668 21.0067 22.6667H25.3333C26.0697 22.6667 26.6667 22.0697 26.6667 21.3333V18.6667ZM5.91867 12.912L8 6.66667H24L26.0813 12.912C26.2167 13.3184 26.1486 13.7651 25.8982 14.1127C25.6478 14.4602 25.2457 14.6663 24.8173 14.6667H7.18267C6.75431 14.6663 6.35219 14.4602 6.10182 14.1127C5.85145 13.7651 5.78331 13.3184 5.91867 12.912Z" fill="#242C33"/>
</svg>
