<svg width="24" height="24" viewBox="0 0 24 24" fill="none" xmlns="http://www.w3.org/2000/svg">
<path fill-rule="evenodd" clip-rule="evenodd" d="M11 5.05V2L6 2.001V5.001L7.364 6.138C8.49482 5.54505 9.72935 5.17565 11 5.05ZM18 2.001V5.001L16.637 6.139C15.5059 5.54558 14.2711 5.17583 13 5.05V2.001H18ZM12 7.001C16.4183 7.001 20 10.5827 20 15.001C20 19.4193 16.4183 23.001 12 23.001C7.58172 23.001 4 19.4193 4 15.001C4 10.5827 7.58172 7.001 12 7.001ZM12 9.001C8.68629 9.001 6 11.6873 6 15.001C6 18.3147 8.68629 21.001 12 21.001C15.3137 21.001 18 18.3147 18 15.001C18 11.6873 15.3137 9.001 12 9.001ZM13.323 13.181L12 10.501L10.677 13.18L7.72 13.61L9.86 15.696L9.355 18.641L12 17.251L14.645 18.642L14.14 15.696L16.28 13.611L13.323 13.181Z" fill="#313D47"/>
</svg>
