<svg width="40" height="40" viewBox="0 0 40 40" fill="none" xmlns="http://www.w3.org/2000/svg">
<path fill-rule="evenodd" clip-rule="evenodd" d="M5.829 10.926C4.048 13.505 3 16.629 3 20C3 23.371 4.048 26.495 5.829 29.074L4.558 32.709C1.711 29.253 0 24.826 0 20C0 15.174 1.711 10.747 4.558 7.29199L5.829 10.926ZM40.0002 20C40.0002 24.826 38.2902 29.253 35.4442 32.709L34.1722 29.074C35.9532 26.495 37.0002 23.371 37.0002 20C37.0002 16.629 35.9532 13.505 34.1722 10.926L35.4442 7.29199C38.2902 10.747 40.0002 15.174 40.0002 20ZM26.1871 6.76788C21.4061 0.798882 27.3971 3.35188 27.9161 5.57288C28.1861 6.72688 26.9551 7.72688 26.1871 6.76788ZM26.1302 17.7291C23.7862 16.8401 15.9052 16.8091 13.8522 17.7291L12.9442 14.4721C15.8082 12.2951 24.1742 12.2951 27.0382 14.4721L26.1302 17.7291ZM12.0672 5.57288C12.5862 3.35188 18.5782 0.798882 13.7962 6.76788C13.0282 7.72688 11.7972 6.72688 12.0672 5.57288ZM32.0789 15.272L29.8409 14.456V7.542C29.8409 2.38 24.9159 1 19.9919 1C15.0669 1 10.1409 2.38 10.1409 7.542V14.456L8.0059 15.235C7.4669 15.431 7.1019 16.054 7.1949 16.62L7.2709 17.091C7.3009 17.272 7.4739 17.396 7.6549 17.366L10.1409 16.96V33.299C10.1409 36.447 12.6939 39 15.8429 39H24.1399C27.2879 39 29.8409 36.447 29.8409 33.299V16.96L32.3279 17.366C32.5089 17.396 32.6819 17.272 32.7109 17.091L32.8049 16.513C32.8929 15.979 32.5869 15.457 32.0789 15.272Z" fill="#313D47"/>
</svg>
