<svg width="24" height="24" viewBox="0 0 24 24" fill="none" xmlns="http://www.w3.org/2000/svg">
<path fill-rule="evenodd" clip-rule="evenodd" d="M6 7C6 10.315 8.685 13 12 13C15.315 13 18 10.315 18 7C18 3.685 15.315 1 12 1C8.685 1 6 3.685 6 7ZM12 16V14C7.58172 14 4 17.5817 4 22H6C6 18.6863 8.68629 16 12 16ZM12 11C14.21 11 16 9.21 16 7C16 4.79 14.21 3 12 3C9.79 3 8 4.79 8 7C8 9.21 9.79 11 12 11ZM15.061 23.045L18 21.5L20.938 23.045L20.378 19.773L22.755 17.455L19.47 16.977L18 14L16.531 16.977L13.245 17.455L15.622 19.773L15.061 23.045Z" fill="#313D47"/>
</svg>
