<svg width="120" height="132" viewBox="0 0 120 132" fill="none" xmlns="http://www.w3.org/2000/svg">
<path fill-rule="evenodd" clip-rule="evenodd" d="M120 72C120 105.137 93.137 132 60 132C26.863 132 0 105.137 0 72C0 38.863 26.863 12 60 12C93.137 12 120 38.863 120 72Z" fill="#E6F1F5"/>
<path fill-rule="evenodd" clip-rule="evenodd" d="M60 43.4556L47.2723 30.7278C40.2426 23.6982 40.2426 12.3013 47.2723 5.27198C54.3016 -1.75733 65.6984 -1.75733 72.7277 5.27198C79.7574 12.3013 79.7574 23.6982 72.7277 30.7278L60 43.4556Z" fill="#3E8500"/>
<path fill-rule="evenodd" clip-rule="evenodd" d="M59.9991 21.9348L55.3637 24.7656L56.6237 19.4823L52.4995 15.9491L57.9133 15.5156L59.9991 10.5L62.0848 15.5156L67.4994 15.9491L63.3744 19.4823L64.6344 24.7656L59.9991 21.9348Z" fill="white"/>
<path fill-rule="evenodd" clip-rule="evenodd" d="M108 108H12.0002C22.1672 122.4 40.2237 132 59.8834 132C79.5431 132 97.2135 123 108 108Z" fill="#D4D7D9"/>
<path fill-rule="evenodd" clip-rule="evenodd" d="M12.1501 107.971H108.199C108.199 107.971 98.2809 117.541 84.0363 119.45C67.726 121.637 57.4565 116.717 45.0728 116.444C25.7384 116.017 12.1501 107.971 12.1501 107.971Z" fill="#666B70"/>
<path fill-rule="evenodd" clip-rule="evenodd" d="M79.7605 82.2812C79.7605 82.2812 80.4399 79.498 82.2806 79.498H86.4224C86.4224 79.498 87.4306 79.7175 86.992 81.4921C86.5538 83.289 82.0835 81.7332 80.5496 83.4207L79.6289 84.4721L79.3442 84.2317L79.7605 82.2812Z" fill="#62A744"/>
<path fill-rule="evenodd" clip-rule="evenodd" d="M86.9259 81.1191C86.9259 81.1191 86.7121 81.5468 84.3619 81.974C82.0117 82.4013 80.7522 81.333 80.7522 81.333L81.1572 82.8286C81.1572 82.8286 83.9325 82.9178 85.003 82.8286C87.567 82.6151 86.9259 81.1191 86.9259 81.1191Z" fill="#306700"/>
<path fill-rule="evenodd" clip-rule="evenodd" d="M42.5962 82.2812C42.5962 82.2812 41.9168 79.498 40.0764 79.498H35.9127C35.9127 79.498 34.9264 79.7175 35.3427 81.4921C35.781 83.289 40.2516 81.7332 41.7855 83.4207L42.7059 84.4721L42.9909 84.2317L42.5962 82.2812Z" fill="#62A744"/>
<path fill-rule="evenodd" clip-rule="evenodd" d="M39.0643 81.1197C40.1326 80.2652 41.4144 79.8379 41.4144 79.8379C41.4144 79.8379 41.2006 80.0514 40.7734 81.5473C40.3461 83.043 38.2097 82.6157 36.2864 82.4019C35.4372 82.3074 35.4319 81.5473 35.4319 81.5473C35.4319 81.5473 37.8603 82.0833 39.0643 81.1197Z" fill="#306700"/>
<path fill-rule="evenodd" clip-rule="evenodd" d="M87.2334 90.5156H84.3409C82.8725 90.5156 81.6895 91.6987 81.6895 93.1451V105.461C81.6895 106.929 82.8725 108.112 84.3409 108.112H87.2334C88.6798 108.112 89.8852 106.929 89.8852 105.461V93.1451C89.8852 91.6987 88.6798 90.5156 87.2334 90.5156Z" fill="#1C1C1C"/>
<path fill-rule="evenodd" clip-rule="evenodd" d="M38.017 90.5156H35.1029C33.6561 90.5156 32.4727 91.6987 32.4727 93.1451V105.461C32.4727 106.929 33.6561 108.112 35.1029 108.112H38.017C39.4634 108.112 40.6684 106.929 40.6684 105.461V93.1451C40.6684 91.6987 39.4634 90.5156 38.017 90.5156Z" fill="#1C1C1C"/>
<path fill-rule="evenodd" clip-rule="evenodd" d="M72.4873 71.8615C74.1062 72.1465 79.2805 74.656 82.0633 81.3618C82.0633 81.3618 83.7508 81.7997 84.2772 81.9972C84.8029 82.1724 84.9781 84.1445 84.9781 84.1445C84.9781 84.1445 88.6817 84.3417 88.6817 92.0118C88.6817 99.6592 89.2732 101.917 87.4982 103.954C85.7233 105.993 61.1799 105.379 61.1799 105.379C61.1799 105.379 36.6146 105.993 34.8393 103.954C33.0644 101.917 33.6559 99.6592 33.6559 92.0118C33.6559 84.3417 37.3594 84.1445 37.3594 84.1445C37.3594 84.1445 37.535 82.1724 38.0607 81.9972C38.5864 81.7997 40.2739 81.3618 40.2739 81.3618C43.057 74.656 48.2427 72.218 49.8506 71.8615C51.4584 71.5054 56.0519 71.0781 61.2865 71.0781C66.5214 71.0781 70.8685 71.5769 72.4873 71.8615Z" fill="#62A744"/>
<path fill-rule="evenodd" clip-rule="evenodd" d="M88.747 97.007C88.747 97.007 84.3613 101.417 77.9518 100.135C72.8185 99.1083 68.3373 99.9211 57.654 100.348C46.971 100.776 43.5744 101.828 38.4248 100.776C33.2752 99.7236 33.5899 92.0156 33.5899 92.0156C33.5241 95.8289 33.083 102.271 34.8392 103.953C36.7908 105.823 61.1794 105.378 61.1794 105.378C61.1794 105.378 85.7228 105.991 87.4981 103.953C88.8128 102.442 88.8348 100.82 88.747 97.007Z" fill="#306700"/>
<path fill-rule="evenodd" clip-rule="evenodd" d="M61.0728 81.974C53.1674 81.974 41.2023 81.333 41.2023 81.333C41.2023 81.333 39.5385 82.3535 40.3477 83.6831C42.8802 87.8444 47.6294 90.4718 47.6294 90.4718C47.6294 90.4718 53.1458 92.4432 60.6456 92.4432C68.1454 92.4432 70.9101 91.6226 73.8925 90.5206C75.9719 89.7521 78.6828 88.2508 81.3707 84.7515C82.6879 83.0367 81.798 81.1191 81.798 81.1191C74.106 82.1879 68.9783 81.974 61.0728 81.974Z" fill="#62A744"/>
<path fill-rule="evenodd" clip-rule="evenodd" d="M61.1797 82.0817H43.2649C43.2649 82.0817 42.3407 82.2141 41.416 81.4657C42.4723 79.0009 44.0133 76.4917 46.0821 74.5989C46.8078 73.8948 50.3902 72.5723 61.1797 72.5723C71.9696 72.5723 75.529 73.8948 76.277 74.5989C78.3242 76.4917 79.8867 79.0009 80.9434 81.4657C79.9964 82.2141 79.0941 82.0817 79.0941 82.0817H61.1797Z" fill="#262728"/>
<path fill-rule="evenodd" clip-rule="evenodd" d="M61.1784 90.0605H47.7892C47.7892 90.0605 47.1753 90.5427 47.0879 91.0903C47.0879 91.0903 50.3528 97.3356 61.1784 97.3356C71.9821 97.3356 75.2689 91.0903 75.2689 91.0903C75.1815 90.5427 74.5457 90.0605 74.5457 90.0605H61.1784Z" fill="#1C1C1C"/>
<path fill-rule="evenodd" clip-rule="evenodd" d="M43.2317 90.2096L36.9231 87.1741C36.3744 86.91 35.7103 87.2137 35.5751 87.8077C35.3563 88.7688 35.4324 91.375 36.9277 92.016C39.8921 93.2862 41.0869 93.1411 42.4834 92.4433C43.3379 92.016 43.9588 90.5593 43.2317 90.2096Z" fill="#FFEBEC"/>
<path fill-rule="evenodd" clip-rule="evenodd" d="M79.2617 90.127L85.2956 87.2239C85.9136 86.9262 86.6563 87.2908 86.7792 87.9662C86.9512 88.9107 87.0762 91.7232 85.4301 92.2294C82.6523 93.0843 80.7208 92.645 79.2995 92.0344C78.474 91.6797 78.4521 90.5168 79.2617 90.127Z" fill="#FFEBEC"/>
<path fill-rule="evenodd" clip-rule="evenodd" d="M60.9657 102.951H76.6492C77.0864 102.951 77.3667 102.487 77.1643 102.1C76.6538 101.125 75.7982 99.5715 75.1723 98.8565C75.052 98.7191 74.876 98.6455 74.6937 98.6575L60.9965 99.5744C60.9759 99.5758 60.9558 99.5761 60.9352 99.5754L47.8497 99.0763C47.6964 99.0703 47.547 99.1252 47.4338 99.2292C46.7849 99.8264 45.507 101.043 44.5951 101.915C44.2166 102.276 44.4719 102.915 44.9954 102.916L60.9657 102.951Z" fill="#62A744"/>
<path fill-rule="evenodd" clip-rule="evenodd" d="M83.6576 47.4004H21V54.4715H83.6576C89.4985 54.4715 94.2775 59.2444 94.2775 65.0783V108.212H101.357V65.0783C101.357 55.3554 93.3925 47.4004 83.6576 47.4004Z" fill="#313D47"/>
<path fill-rule="evenodd" clip-rule="evenodd" d="M22.5923 107.934H26.1323V54.834H22.5923V107.934Z" fill="#D4D7D9"/>
</svg>
