<svg width="32" height="32" viewBox="0 0 32 32" fill="none" xmlns="http://www.w3.org/2000/svg">
<path fill-rule="evenodd" clip-rule="evenodd" d="M19.3333 16.6667C19.3333 18.1373 18.1373 19.3333 16.6667 19.3333C15.196 19.3333 14 18.1373 14 16.6667C14 15.196 15.196 14 16.6667 14C18.1373 14 19.3333 15.196 19.3333 16.6667ZM10 16.6667C10 20.348 12.9853 23.3333 16.6667 23.3333C20.348 23.3333 23.3333 20.348 23.3333 16.6667C23.3333 12.9853 20.348 10 16.6667 10C12.9853 10 10 12.9853 10 16.6667Z" fill="#242C33"/>
<mask id="mask0_7729_104499" style="mask-type:luminance" maskUnits="userSpaceOnUse" x="3" y="3" width="27" height="27">
<path fill-rule="evenodd" clip-rule="evenodd" d="M3.59497 3.59961H29.9999V29.9996H3.59497V3.59961Z" fill="white"/>
</mask>
<g mask="url(#mask0_7729_104499)">
<path fill-rule="evenodd" clip-rule="evenodd" d="M19.3216 3.59961V6.34894C23.9203 7.53294 27.3336 11.7036 27.3336 16.6663C27.3336 22.5489 22.5483 27.3329 16.667 27.3329C11.6936 27.3329 7.51764 23.9089 6.34164 19.2969H3.59497C4.81764 25.4009 10.203 29.9996 16.667 29.9996C24.031 29.9996 30.0003 24.0303 30.0003 16.6663C30.0003 10.2129 25.4136 4.83028 19.3216 3.59961Z" fill="#242C33"/>
</g>
<path fill-rule="evenodd" clip-rule="evenodd" d="M16.6666 8.00065V1.33398C8.21192 1.33398 1.33325 8.21265 1.33325 16.6673H7.99992C7.99992 11.8886 11.8879 8.00065 16.6666 8.00065Z" fill="#242C33"/>
</svg>
