<svg width="81" height="39" viewBox="0 0 81 39" fill="none" xmlns="http://www.w3.org/2000/svg">
<mask id="mask0_12604_23690" style="mask-type:alpha" maskUnits="userSpaceOnUse" x="27" y="3" width="46" height="17">
<path fill-rule="evenodd" clip-rule="evenodd" d="M72.6619 3.60156H27.1925V19.997H72.6619V3.60156Z" fill="white"/>
</mask>
<g mask="url(#mask0_12604_23690)">
<path fill-rule="evenodd" clip-rule="evenodd" d="M34.8627 16.5933C34.8627 17.1042 35.2869 17.5199 35.8056 17.5199C36.3257 17.5199 36.7478 17.1035 36.7478 16.5933C36.7478 16.0817 36.325 15.666 35.8056 15.666C35.2869 15.666 34.8627 16.081 34.8627 16.5933ZM62.589 16.5933C62.589 17.1042 63.0125 17.5199 63.5319 17.5199C64.0513 17.5199 64.4734 17.1035 64.4734 16.5933C64.4734 16.0817 64.0513 15.666 63.5319 15.666C63.0125 15.666 62.589 16.081 62.589 16.5933ZM45.2099 10.6866L44.1739 8.73894L50.888 8.55704L54.3243 5.38155H56.0445L54.7151 8.45401L62.3955 8.24582V8.24084L63.4187 7.2354L59.5106 4.6582H48.352L42.8843 8.26571L45.2099 10.6866ZM27.1908 12.2528L28.2247 11.2047H31.2992L32.358 10.1566H29.2578L32.1391 9.12918L39.3776 8.16282L48.104 3.59961H60.7349L68.6924 7.78764L64.3559 8.24027H70.7779L72.6609 10.1645V14.1045L70.0311 15.2137H72.6438V15.2173L69.1784 17.4917H67.876C67.9371 17.1983 67.9698 16.8935 67.9698 16.5822C67.9698 14.1301 65.9816 12.1412 63.5288 12.1412C61.0759 12.1412 59.0878 14.1301 59.0878 16.5822C59.0878 16.8935 59.1205 17.1983 59.1816 17.4917H40.1493C40.2104 17.1983 40.2431 16.8935 40.2431 16.5822C40.2431 14.1301 38.2549 12.1412 35.8021 12.1412C33.3499 12.1412 31.3611 14.1301 31.3611 16.5822C31.3611 16.8935 31.3945 17.1983 31.4556 17.4917H28.2247L27.1908 16.4437V15.3821L30.2732 14.3347H27.1908V12.2528ZM35.8047 18.5036C36.884 18.5036 37.7566 17.6417 37.7566 16.5815C37.7566 15.5214 36.8833 14.6602 35.8047 14.6602C34.7282 14.6602 33.8521 15.5206 33.8521 16.5815C33.8521 17.6417 34.7275 18.5036 35.8047 18.5036ZM63.5303 18.5036C64.6082 18.5036 65.4822 17.6417 65.4822 16.5815C65.4822 15.5214 64.6075 14.6602 63.5303 14.6602C62.4524 14.6602 61.5769 15.5206 61.5769 16.5815C61.5769 17.6417 62.4516 18.5036 63.5303 18.5036ZM32.3258 16.5964C32.3258 14.7134 33.8798 13.1836 35.7941 13.1836C37.7076 13.1836 39.2623 14.7134 39.2623 16.5964C39.2623 17.5415 38.8708 18.3963 38.2398 19.0144H61.0743C60.4426 18.3963 60.0518 17.5415 60.0518 16.5964C60.0518 14.7134 61.6058 13.1836 63.5208 13.1836C65.4336 13.1836 66.989 14.7134 66.989 16.5964C66.989 17.5415 66.5975 18.3963 65.9658 19.0144H66.8782V20.0099H63.5208H35.7941H28.1477V19.0144H33.349C32.7166 18.3963 32.3258 17.5415 32.3258 16.5964Z" fill="#3E8500"/>
</g>
<path fill-rule="evenodd" clip-rule="evenodd" d="M11.8988 0H23.2398C24.1349 0 24.8605 0.725649 24.8605 1.62078V17.225C24.8605 18.1202 25.5862 18.8458 26.4813 18.8458H79.3467C80.2419 18.8458 80.9675 19.5715 80.9675 20.4666V29.2543C80.9675 30.1494 80.2419 30.8751 79.3467 30.8751L70.5802 30.8764C70.5802 25.3378 66.5968 21.2788 61.0582 21.2788C55.52 21.2788 51.5557 25.3371 51.5551 30.8751H22.3196C22.3196 25.3364 18.4375 21.2775 12.8988 21.2775C7.3602 21.2775 3.37673 25.3364 3.37673 30.8751H1.62087C0.725746 30.8751 0.000106812 30.1494 0.000106812 29.2543V19.6567H5.21701C6.10282 19.6567 6.8209 18.9387 6.8209 18.0528V18.0191C6.8209 17.1333 6.10282 16.4152 5.21701 16.4152H0.000106812V11.8987C0.000106812 11.4688 0.170868 11.0565 0.474815 10.7526L10.7527 0.474715C11.0566 0.17076 11.4689 0 11.8988 0ZM19.1794 11.1476V2.63852C19.1794 2.41474 18.998 2.23333 18.7742 2.23333H12.3615C12.2517 2.23333 12.1466 2.27788 12.0703 2.35679L3.83866 10.8659C3.58991 11.123 3.77212 11.5528 4.12988 11.5528H18.7742C18.998 11.5528 19.1794 11.3714 19.1794 11.1476Z" fill="#3E8500"/>
<circle cx="7.61852" cy="7.61852" r="5.96284" transform="matrix(-1 0 0 1 20.448 22.8457)" stroke="#3E8500" stroke-width="3.31137"/>
<circle cx="2.12728" cy="2.12728" r="2.12728" transform="matrix(-1 0 0 1 14.9177 28.373)" fill="#3E8500"/>
<circle cx="7.61852" cy="7.61852" r="5.96284" transform="matrix(-1 0 0 1 68.7263 22.8457)" stroke="#3E8500" stroke-width="3.31137"/>
<circle cx="2.12728" cy="2.12728" r="2.12728" transform="matrix(-1 0 0 1 63.196 28.373)" fill="#3E8500"/>
</svg>
