<svg width="64" height="27" viewBox="0 0 64 27" fill="none" xmlns="http://www.w3.org/2000/svg">
<path fill-rule="evenodd" clip-rule="evenodd" d="M10.1121 21.5136C10.1121 23.0057 11.3422 24.2188 12.8594 24.2188C14.3766 24.2188 15.6075 23.0057 15.6075 21.5136C15.6075 20.0206 14.3757 18.8101 12.8594 18.8101C11.343 18.8101 10.1121 20.0223 10.1121 21.5136ZM49.1326 21.5136C49.1326 23.0057 50.3627 24.2188 51.8799 24.2188C53.3962 24.2188 54.628 23.0057 54.628 21.5136C54.628 20.0206 53.3953 18.8101 51.8799 18.8101C50.3635 18.8101 49.1326 20.0223 49.1326 21.5136ZM11.5344 21.5135C11.5344 22.2333 12.128 22.8191 12.8593 22.8191C13.5907 22.8191 14.186 22.2341 14.186 21.5135C14.186 20.7938 13.5907 20.2097 12.8593 20.2097C12.128 20.2097 11.5344 20.7947 11.5344 21.5135ZM50.5542 21.5135C50.5542 22.2333 51.1486 22.8191 51.88 22.8191C52.6114 22.8191 53.2067 22.2341 53.2067 21.5135C53.2067 20.7938 52.6114 20.2097 51.88 20.2097C51.1495 20.2097 50.5542 20.7947 50.5542 21.5135ZM1.42238 21.3943L0 18.5957H2.84476L1.42238 17.196V14.3974H5.68864L7.11101 12.9968H2.84476L4.26714 10.1983H11.3781L9.95577 8.79856H15.6444L17.0668 7.39971H18.4892V8.79856H19.9107L25.6002 10.1983H27.0217V8.79856H28.4441L29.8664 10.1983H39.8213L35.5551 6H36.9774L42.667 8.79856L41.2446 10.1983H45.5108L58.3105 12.9968L62.5767 15.7971H59.7329L61.1544 17.196H64V18.5957L62.5767 19.9954H59.7329L62.5767 21.3943L61.1544 22.794H58.048C58.1366 22.381 58.1841 21.9533 58.1841 21.5135C58.1841 18.0903 55.3586 15.3116 51.8799 15.3116C48.4013 15.3116 45.5767 18.0911 45.5767 21.5135C45.5767 21.9533 45.6241 22.381 45.7119 22.794H19.0274C19.1161 22.381 19.1635 21.9533 19.1635 21.5135C19.1635 18.0903 16.338 15.3116 12.8594 15.3116C9.38155 15.3116 6.55611 18.0911 6.55611 21.5135C6.55611 21.9533 6.60352 22.381 6.69132 22.794H5.68864L1.42238 21.3943ZM56.7608 21.5134C56.7608 22.844 56.2111 24.0476 55.3226 24.9177H61.1544V26.3174H51.8799H12.8593H1.42236V24.9177H9.41753C8.52899 24.0476 7.97847 22.844 7.97847 21.5134C7.97847 18.8635 10.1665 16.7112 12.8593 16.7112C15.554 16.7112 17.7411 18.8635 17.7411 21.5134C17.7411 22.844 17.1906 24.0476 16.302 24.9177H48.4381C47.5496 24.0476 46.9991 22.844 46.9991 21.5134C46.9991 18.8635 49.1871 16.7112 51.8799 16.7112C54.5745 16.7112 56.7608 18.8635 56.7608 21.5134Z" fill="#3E8500"/>
</svg>
