<svg width="32" height="32" viewBox="0 0 32 32" fill="none" xmlns="http://www.w3.org/2000/svg">
<path fill-rule="evenodd" clip-rule="evenodd" d="M29.2666 14.666C28.5986 7.92868 22.9133 2.66602 15.9999 2.66602C9.0866 2.66602 3.40127 7.92868 2.73193 14.666H5.41593C6.08914 9.33317 10.6248 5.33412 15.9999 5.33412C21.3751 5.33412 25.9107 9.33317 26.5839 14.666H29.2666ZM23.9999 14.666V17.3327H22.6666C19.8247 17.3327 17.482 19.561 17.3399 22.3993L17.3333 22.666V23.9993H14.6666V22.666C14.6666 19.8241 12.4382 17.4814 9.59993 17.3393L9.33327 17.3327H7.99993V14.666H23.9999ZM13.9984 26.478C9.94642 25.7018 6.70386 22.6612 5.66911 18.6673V18.666H2.93311C4.05407 24.1439 8.47079 28.3425 13.9984 29.1847V26.478ZM17.8666 29.2033C23.4514 28.4112 27.9351 24.1934 29.0666 18.6673L26.3306 18.666C25.284 22.7085 21.9775 25.7702 17.8666 26.5033V29.2033Z" fill="#242C33"/>
</svg>
