<svg width="24" height="24" viewBox="0 0 24 24" fill="none" xmlns="http://www.w3.org/2000/svg">
<path fill-rule="evenodd" clip-rule="evenodd" d="M21.1399 19.889V12.9136L22.2959 12.6253C22.7098 12.5217 23 12.1498 23 11.7232V11.0535C23 10.7967 22.7918 10.5885 22.535 10.5885H20.7911L18.8027 5.28533C18.5304 4.55913 17.8362 4.07803 17.0607 4.07812H6.61803C5.84248 4.07803 5.14826 4.55913 4.87604 5.28533L2.88759 10.5885H1.14374C0.886911 10.5885 0.678711 10.7967 0.678711 11.0535V11.7232C0.678722 12.1498 0.968952 12.5217 1.38276 12.6253L2.53882 12.9136V19.889C2.53882 20.4027 2.95522 20.8191 3.46887 20.8191H4.39893C4.91258 20.8191 5.32898 20.4027 5.32898 19.889V18.959H18.3497V19.889C18.3497 20.4027 18.7661 20.8191 19.2798 20.8191H20.2098C20.7235 20.8191 21.1399 20.4027 21.1399 19.889ZM4.39893 16.1688V14.3087C6.55479 14.3087 8.00753 15.01 8.75623 16.4144C8.83333 16.5584 8.82922 16.7323 8.7454 16.8725C8.66158 17.0127 8.51035 17.0986 8.347 17.0989H5.32898C4.81532 17.0989 4.39893 16.6825 4.39893 16.1688ZM19.2799 14.3087C17.1249 14.3087 15.6722 15.0109 14.9216 16.4144C14.8445 16.5585 14.8487 16.7326 14.9327 16.8729C15.0167 17.0131 15.1683 17.0989 15.3318 17.0989H18.3498C18.8635 17.0989 19.2799 16.6825 19.2799 16.1688V14.3087ZM4.80717 10.2946L6.25898 5.93823H17.4196L18.8714 10.2946C18.9659 10.5781 18.9183 10.8897 18.7437 11.1321C18.569 11.3746 18.2885 11.5183 17.9897 11.5186H5.68886C5.39006 11.5183 5.10957 11.3746 4.93492 11.1321C4.76028 10.8897 4.71275 10.5781 4.80717 10.2946Z" fill="#242C33"/>
</svg>
