<svg width="32" height="32" viewBox="0 0 32 32" fill="none" xmlns="http://www.w3.org/2000/svg">
<svg x="3.07" y="2.49" width="25.87" height="27.01" viewBox="0 0 19.4062 20.25" overflow="visible">
<path d="M9.70312 16.125C12.8788 16.125 15.4531 13.4387 15.4531 10.125C15.4531 6.81129 12.8788 4.125 9.70312 4.125C6.52749 4.125 3.95312 6.81129 3.95312 10.125C3.95312 13.4387 6.52749 16.125 9.70312 16.125Z" fill="#242C33"/>
<path d="M6.28905 16.295C5.9453 16.0881 5.50573 16.2112 5.30709 16.5697L4.58852 17.8686C4.39005 18.2275 4.5078 18.6864 4.85155 18.8933C5.19514 19.1002 5.63505 18.9775 5.83334 18.6186L6.55227 17.3197C6.75056 16.9608 6.63264 16.5023 6.28905 16.295Z" fill="#242C33"/>
<path d="M13.1172 3.95481C13.4611 4.16172 13.9005 4.03867 14.0992 3.68015L14.8176 2.3812C15.0162 2.02231 14.8983 1.56345 14.5547 1.35654C14.2104 1.14982 13.7714 1.27231 13.5727 1.6312L12.854 2.92997C12.6557 3.28885 12.7736 3.74772 13.1172 3.95481Z" fill="#242C33"/>
<path d="M2.80796 13.4129L1.56313 14.1629C1.21937 14.3702 1.10145 14.8291 1.29992 15.1876C1.49838 15.5461 1.93812 15.6692 2.28188 15.4619L3.52671 14.7123C3.87047 14.505 3.98821 14.0461 3.78975 13.6876C3.59128 13.3291 3.15172 13.206 2.80796 13.4129Z" fill="#242C33"/>
<path d="M16.5983 6.83706L17.8431 6.08706C18.187 5.87997 18.3046 5.42092 18.1063 5.06258C17.9073 4.70388 17.4683 4.58102 17.1244 4.78811L15.8795 5.53792C15.536 5.7452 15.418 6.20406 15.6163 6.56258C15.815 6.92129 16.2547 7.04415 16.5983 6.83706Z" fill="#242C33"/>
<path d="M2.875 10.125C2.875 9.71082 2.55318 9.375 2.15625 9.375H0.718925C0.321999 9.375 0 9.71082 0 10.125C0 10.5392 0.321999 10.875 0.718925 10.875H2.15625C2.55318 10.875 2.875 10.5392 2.875 10.125Z" fill="#242C33"/>
<path d="M18.6875 9.37518L17.25 9.375C16.8531 9.37518 16.5312 9.71118 16.5312 10.1252C16.5312 10.5394 16.8531 10.8752 17.25 10.8752H18.6875C19.0844 10.8752 19.4062 10.539 19.4062 10.1252C19.4059 9.71082 19.0844 9.37518 18.6875 9.37518Z" fill="#242C33"/>
<path d="M3.52671 5.53811L2.28188 4.78811C1.93812 4.58102 1.49838 4.70388 1.29992 5.06258C1.10145 5.42129 1.21937 5.88015 1.56313 6.08724L2.80796 6.83706C3.15172 7.04415 3.59128 6.92129 3.78975 6.56258C3.98821 6.20388 3.87047 5.7452 3.52671 5.53811Z" fill="#242C33"/>
<path d="M17.8431 14.1629L16.5983 13.4129C16.2547 13.206 15.815 13.3291 15.6163 13.6876C15.418 14.0461 15.536 14.505 15.8795 14.7123L17.1244 15.4623C17.4683 15.6692 17.908 15.5461 18.1063 15.1876C18.3046 14.8287 18.187 14.3702 17.8431 14.1629Z" fill="#242C33"/>
<path d="M5.30727 3.68027C5.50573 4.03898 5.9453 4.16184 6.28905 3.95475C6.63281 3.74766 6.75056 3.28898 6.55209 2.93027L5.83334 1.63132C5.63488 1.27262 5.19531 1.14957 4.85155 1.35666C4.5078 1.56376 4.39005 2.02262 4.58852 2.38132L5.30727 3.68027Z" fill="#242C33"/>
<path d="M14.0992 16.5697C13.9005 16.2112 13.4608 16.0881 13.1172 16.295C12.7736 16.5023 12.6557 16.9612 12.854 17.3197L13.5727 18.6186C13.7714 18.9775 14.2111 19.1002 14.5547 18.8933C14.8983 18.686 15.0162 18.2275 14.8179 17.8686L14.0992 16.5697Z" fill="#242C33"/>
<path d="M9.70312 3C10.1001 3 10.4219 2.66418 10.4219 2.25V0.75C10.4219 0.335815 10.1001 0 9.70312 0C9.3062 0 8.98438 0.335815 8.98438 0.75V2.25C8.98438 2.66418 9.3062 3 9.70312 3Z" fill="#242C33"/>
<path d="M9.70312 17.25C9.3062 17.25 8.98438 17.5858 8.98438 18V19.5C8.98438 19.9142 9.3062 20.25 9.70312 20.25C10.1001 20.25 10.4219 19.9142 10.4219 19.5V18C10.4219 17.5858 10.1001 17.25 9.70312 17.25Z" fill="#242C33"/>
</svg>
</svg>
