<svg width="32" height="32" viewBox="0 0 32 32" fill="none" xmlns="http://www.w3.org/2000/svg">
<path fill-rule="evenodd" clip-rule="evenodd" d="M10.6667 6.66732C10.6667 3.7218 13.0545 1.33398 16 1.33398C18.9455 1.33398 21.3334 3.7218 21.3334 6.66732V13.674C24.68 16.0043 26.1262 20.2375 24.9051 24.1283C23.6839 28.0192 20.078 30.6667 16 30.6667C11.922 30.6667 8.31619 28.0192 7.095 24.1283C5.87382 20.2375 7.32008 16.0043 10.6667 13.674V6.66732ZM12.192 15.8607C9.80085 17.5247 8.76703 20.5486 9.63902 23.3282C10.511 26.1078 13.0868 27.9994 16 27.9994C18.9132 27.9994 21.4891 26.1078 22.361 23.3282C23.233 20.5486 22.1992 17.5247 19.808 15.8607L18.6667 15.0647V6.66732C18.6667 5.19456 17.4728 4.00065 16 4.00065C14.5273 4.00065 13.3334 5.19456 13.3334 6.66732V15.0647L12.192 15.8607ZM16 26.6673C18.9455 26.6673 21.3334 24.2795 21.3334 21.334H10.6667C10.6667 24.2795 13.0545 26.6673 16 26.6673Z" fill="#242C33"/>
</svg>
