<svg width="24" height="24" viewBox="0 0 24 24" fill="none" xmlns="http://www.w3.org/2000/svg">
<path fill-rule="evenodd" clip-rule="evenodd" d="M8.00002 5C8.00002 2.79086 9.79088 1 12 1C14.2092 1 16 2.79086 16 5V10.255C18.51 12.0027 19.5947 15.1776 18.6788 18.0958C17.7629 21.0139 15.0585 22.9996 12 22.9996C8.94153 22.9996 6.23714 21.0139 5.32125 18.0958C4.40537 15.1776 5.49006 12.0027 8.00002 10.255V5ZM9.14402 11.895C7.35064 13.143 6.57527 15.4109 7.22926 17.4957C7.88326 19.5804 9.81513 20.9991 12 20.9991C14.1849 20.9991 16.1168 19.5804 16.7708 17.4957C17.4248 15.4109 16.6494 13.143 14.856 11.895L14 11.298V5C14 3.89543 13.1046 3 12 3C10.8955 3 10 3.89543 10 5V11.298L9.14402 11.895ZM12 20C14.2092 20 16 18.2091 16 16H8.00002C8.00002 18.2091 9.79088 20 12 20Z" fill="#242C33"/>
</svg>
