<svg width="121" height="132" viewBox="0 0 121 132" fill="none" xmlns="http://www.w3.org/2000/svg">
<circle cx="60.1982" cy="72" r="60" fill="#E6F1F5"/>
<mask id="mask0_7729_104603" style="mask-type:alpha" maskUnits="userSpaceOnUse" x="0" y="12" width="121" height="120">
<circle cx="60.1982" cy="72" r="60" fill="#E6F1F5"/>
</mask>
<g mask="url(#mask0_7729_104603)">
<path fill-rule="evenodd" clip-rule="evenodd" d="M54.979 58.1996L56.3496 58.5683L56.7919 58.0402C57.0955 57.6792 57.3731 57.2964 57.6214 56.8952L59.957 53.1305C60.3408 52.4095 60.8255 51.0433 60.7995 50.1791L60.6954 49.3301L60.6542 49.5339C60.536 50.1205 59.8453 52.1623 56.4732 56.3661L54.979 58.1996Z" fill="#E09F73"/>
<path fill-rule="evenodd" clip-rule="evenodd" d="M64.1709 59.4517L66.0088 59.0982C66.4978 58.606 67.3251 57.1617 67.4856 56.7182L68.095 55.1395C68.4322 54.1105 68.5905 53.0544 68.5113 51.9755C68.4788 51.5179 68.4148 51.0647 68.3248 50.6917L68.0462 49.8828L68.0483 50.0899C68.0538 50.6884 68.0039 51.2848 67.8944 51.8725C67.8814 51.9462 67.8196 54.3425 65.5967 57.5878L64.1709 59.4517Z" fill="#E09F73"/>
<path fill-rule="evenodd" clip-rule="evenodd" d="M71.7195 69.1426C71.4311 69.341 69.2191 72.0431 68.562 72.9408C69.9781 69.7975 72.0014 65.2066 73.2516 62.4188C73.5606 61.4527 73.4175 61.9179 73.913 60.5419C74.0507 60.0746 74.0344 59.8079 74.0605 59.4565C74.2893 56.4303 72.4362 53.8952 69.3286 55.6008C68.6054 55.9976 67.9797 56.7404 67.468 57.5287C67.0798 58.1239 66.5571 59.1117 66.1343 59.7656C65.9597 59.7591 65.6127 59.6712 65.4891 59.6485C65.3655 59.6268 65.449 59.643 65.4392 59.6376C65.8166 59.4761 66.066 59.1313 66.3099 58.8298C66.6482 58.4124 66.9844 57.6696 67.2272 57.2457C67.6241 56.5528 68.2508 54.7908 68.356 54.2573C69.0554 50.7312 67.7249 46.676 63.6176 49.0321C62.5962 49.6187 62.2232 50.2465 61.4143 51.3373C61.0543 51.822 61.0739 51.9164 60.3582 53.0592C59.6415 54.2031 58.1419 56.697 57.2756 58.1012C56.9991 58.2801 56.8809 58.1229 56.6478 58.1706C57.1162 57.7553 57.4209 57.4051 57.7375 56.8456C58.4184 55.6409 59.249 54.5284 59.8844 53.2522C60.1761 52.6678 60.7041 51.4805 60.7681 50.6911C60.8657 49.481 60.6282 48.8239 60.1598 47.9836C59.3455 46.5198 57.1736 46.509 54.4044 48.8825C53.0251 50.0644 49.8547 54.3614 48.3139 55.7895C46.5248 57.4484 41.0231 62.5804 39.0334 64.2285C39.041 64.2372 39.0486 64.2459 39.0551 64.2546C35.517 67.5736 31.7458 71.1051 29.5642 73.1306C26.0966 76.351 26.8285 76.2599 24.5667 78.4404C23.0281 79.9454 23.3935 76.1059 23.6331 73.9861C23.6526 72.3857 24.5624 70.525 25.0883 69.0677C26.0685 66.8612 26.449 65.8257 27.3295 63.309C28.2099 60.7935 28.2609 55.7136 26.0023 53.4983C25.9622 53.4604 25.6868 53.1817 25.5263 53.0223C24.3477 51.8936 22.9251 52.1235 22.3385 53.7076C22.1184 54.6152 21.831 55.9391 21.6359 56.7729C20.9636 59.6582 19.9021 61.894 18.4448 64.5148C16.0366 68.8476 13.0493 72.8769 11.4034 77.7128C10.5012 80.5027 9.93088 83.002 9.21091 85.9047C8.49094 88.8063 7.89783 91.7165 7.71567 94.9206C7.65278 96.0179 7.77856 94.5097 7.48688 98.7287C7.34159 100.832 7.13015 102.816 6.2085 105.185C11.6452 113.784 19.0303 121.026 27.7589 126.273C29.2379 123.592 30.6388 120.811 32.2836 118.436C34.6029 115.085 34.8361 115.565 39.1678 112.932C39.7046 112.607 42.1236 111.081 45.6432 107.842C48.8116 104.925 56.5252 97.8482 58.297 96.4625C61.3189 93.9686 64.0557 91.5842 65.8881 89.9133C65.899 89.9231 65.9098 89.9339 65.9207 89.9437C66.1787 90.1801 69.4663 86.3449 70.6634 83.8022C71.9819 81.0004 72.9534 77.0492 74.0507 74.2507C76.293 68.0615 72.7485 68.4345 71.7195 69.1426Z" fill="#F39E7C"/>
</g>
<path fill-rule="evenodd" clip-rule="evenodd" d="M31.0303 76.1215L31.1854 74.0732C31.2385 73.6645 31.2949 73.2308 31.3621 72.8491C31.5898 71.549 32.2643 70.2045 32.6969 68.9912C32.7457 68.8534 32.8639 68.6312 32.9311 68.5011L34.1303 65.7188L32.1862 69.1484C31.6657 70.1188 30.6194 70.6859 29.5232 70.5916L28.8509 70.5341C28.7642 70.5276 28.7414 70.6534 28.826 70.6761L29.3475 70.8182C30.344 71.0904 30.9826 71.973 31.0054 72.9879C31.0086 73.1548 31.013 73.3218 31.0282 73.4877L31.0303 76.1215Z" fill="#E09F73"/>
<path fill-rule="evenodd" clip-rule="evenodd" d="M15.3818 104.056C13.2674 103.405 10.2765 101.146 9.58165 100.184L9.24353 99.8541C8.74708 99.3675 8.42997 98.7287 8.34283 98.0391L7.92341 94.7267L7.64261 98.4209C7.60762 98.8777 7.52857 99.3306 7.40675 99.772L7.36177 99.9352C7.73211 100.397 8.09851 100.862 8.48081 101.313L8.76733 101.533C10.7331 103.038 13.0864 104.311 15.5453 104.609L19.0939 105.041L15.3818 104.056Z" fill="#DD876B"/>
<path fill-rule="evenodd" clip-rule="evenodd" d="M27.021 113.76L31.2649 114.642C32.0185 114.8 32.8458 114.985 33.6027 114.843L37.0605 114.01L35.2551 115.163C34.4571 115.739 33.4411 116.641 32.8643 117.411L32.8003 117.497C32.7786 117.528 32.7309 117.511 32.7331 117.475L32.8003 115.696C32.2375 115.668 31.6824 115.55 31.1565 115.348L27.021 113.76Z" fill="#DD876B"/>
<path fill-rule="evenodd" clip-rule="evenodd" d="M24.6543 96.6895L24.2282 100.039C24.1306 100.812 24.2336 101.621 24.5231 102.334C24.9536 103.398 25.6562 103.772 26.4835 103.762C27.1428 103.756 27.7738 103.497 28.2683 103.062L28.4526 102.9C30.1756 101.386 32.2411 100.87 34.362 100.909L39.2771 101C43.1502 101.071 46.7327 98.5535 49.0488 94.6185C49.1974 94.3659 49.2082 94.0103 49.0748 93.7229L45.5097 86.0385C45.3665 85.7306 45.09 85.5733 44.8331 85.6536L28.946 90.624C26.7058 91.3255 25.036 93.6839 24.6543 96.6895Z" fill="#DD876B"/>
<path fill-rule="evenodd" clip-rule="evenodd" d="M95.7666 112.071H26.685C24.8883 112.071 23.4321 110.614 23.4321 108.818V17.3974C23.4321 15.6007 24.8883 14.1445 26.685 14.1445H95.7666C97.5632 14.1445 99.0195 15.6007 99.0195 17.3974V108.818C99.0195 110.614 97.5632 112.071 95.7666 112.071Z" fill="#313D47"/>
<path fill-rule="evenodd" clip-rule="evenodd" d="M26.5229 108.067H95.9309V18.1465H26.5229V108.067Z" fill="white"/>
<path fill-rule="evenodd" clip-rule="evenodd" d="M69.9639 10.1348H51.3238C46.5323 10.1348 42.6494 14.0187 42.6494 18.8091V20.4171H78.6383V18.8091C78.6383 14.0187 74.7543 10.1348 69.9639 10.1348Z" fill="#FACD46"/>
<path fill-rule="evenodd" clip-rule="evenodd" d="M58.7158 5.14165C58.7158 4.07688 59.5789 3.21378 60.6437 3.21378C61.7085 3.21378 62.5716 4.07688 62.5716 5.14165C62.5716 6.20643 61.7085 7.06953 60.6437 7.06953C59.5789 7.06953 58.7158 6.20643 58.7158 5.14165ZM66.4261 7.06961H65.4026C65.6444 6.47325 65.7842 5.82484 65.7842 5.14173C65.7842 2.30196 63.4823 0 60.6425 0C57.8027 0 55.5008 2.30196 55.5008 5.14173C55.5008 5.82484 55.6406 6.47325 55.8824 7.06961H54.8589C53.0839 7.06961 51.645 8.50847 51.645 10.2835H69.64C69.64 8.50847 68.2011 7.06961 66.4261 7.06961Z" fill="#AC6000"/>
<path fill-rule="evenodd" clip-rule="evenodd" d="M83.268 64.5084H38.9018C38.3759 64.5084 37.9487 64.0812 37.9487 63.5553V62.8906C37.9487 62.3647 38.3759 61.9375 38.9018 61.9375H83.268C83.7938 61.9375 84.221 62.3647 84.221 62.8906V63.5553C84.221 64.0812 83.7938 64.5084 83.268 64.5084Z" fill="#D4D7D9"/>
<path fill-rule="evenodd" clip-rule="evenodd" d="M83.268 51.6548H38.9018C38.3759 51.6548 37.9487 51.2276 37.9487 50.7018V50.0371C37.9487 49.5112 38.3759 49.084 38.9018 49.084H83.268C83.7938 49.084 84.221 49.5112 84.221 50.0371V50.7018C84.221 51.2276 83.7938 51.6548 83.268 51.6548Z" fill="#D4D7D9"/>
<path fill-rule="evenodd" clip-rule="evenodd" d="M83.268 38.8013H38.9018C38.3759 38.8013 37.9487 38.3741 37.9487 37.8482V37.1836C37.9487 36.6577 38.3759 36.2305 38.9018 36.2305H83.268C83.7938 36.2305 84.221 36.6577 84.221 37.1836V37.8482C84.221 38.3741 83.7938 38.8013 83.268 38.8013Z" fill="#D4D7D9"/>
<path d="M39.2334 88.1765C39.2334 88.1765 40.9292 85.3335 42.8398 83.4013C45.8476 80.3598 44.1897 86.5219 44.7861 88.1765C45.8194 91.0423 48.7145 90.254 51.3786 83.4013C52.6873 80.0367 56.2861 76.1918 55.4133 83.4013" stroke="#D4D7D9" stroke-width="3" stroke-linecap="round"/>
<path fill-rule="evenodd" clip-rule="evenodd" d="M14.5607 72.0901C16.2024 73.3576 17.9654 74.4929 19.7892 75.4796C20.6057 75.922 21.4439 76.3405 22.3221 76.6463C22.6355 76.7547 22.9619 76.8556 23.2839 76.8989C23.3273 76.9055 23.3706 76.9098 23.4151 76.9141C23.4205 75.9654 23.5365 74.8377 23.633 73.9865C23.6526 72.3861 24.5623 70.5244 25.0882 69.0682C26.0684 66.8616 26.449 65.825 27.3294 63.3095C28.2088 60.7928 28.2608 55.7129 26.0011 53.4988C25.9621 53.4597 25.6867 53.1811 25.5262 53.0217C24.3476 51.8929 22.925 52.1239 22.3384 53.7069C22.1183 54.6156 21.8309 55.9384 21.6358 56.7723C20.9624 59.6576 19.9009 61.8934 18.4447 64.5152C17.0828 66.9646 15.5355 69.3176 14.1509 71.7746C14.2886 71.8819 14.4274 71.9871 14.5607 72.0901Z" fill="#F39E7C"/>
<path fill-rule="evenodd" clip-rule="evenodd" d="M23.441 76.1234L23.596 74.0752C23.6492 73.6664 23.7055 73.2327 23.7728 72.851C24.0005 71.551 24.6749 70.2064 25.1075 68.9931C25.1563 68.8554 25.2745 68.6331 25.3417 68.503L26.541 65.7207L24.5968 69.1503C24.0764 70.1208 23.03 70.6879 21.9338 70.5935L21.2615 70.5361C21.1748 70.5296 21.152 70.6553 21.2366 70.6781L21.7581 70.8201C22.7546 71.0923 23.3933 71.9749 23.416 72.9898C23.4193 73.1568 23.4236 73.3238 23.4388 73.4897L23.441 76.1234Z" fill="#DD876B"/>
<path fill-rule="evenodd" clip-rule="evenodd" d="M75.8642 93.2508C80.3551 93.2508 83.9964 89.6095 83.9964 85.1185C83.9964 80.6276 80.3551 76.9863 75.8642 76.9863C71.3722 76.9863 67.7319 80.6276 67.7319 85.1185C67.7319 89.6095 71.3722 93.2508 75.8642 93.2508ZM79.6584 80.2392L75.8632 84.0344L72.068 80.2392L70.9839 81.3233L74.7791 85.1185L70.9839 88.9137L72.068 89.9979L75.8632 86.2027L79.6584 89.9979L80.7425 88.9137L76.9473 85.1185L80.7425 81.3233L79.6584 80.2392Z" fill="#B30715"/>
</svg>
