<svg width="32" height="32" viewBox="0 0 32 32" fill="none" xmlns="http://www.w3.org/2000/svg">
<path fill-rule="evenodd" clip-rule="evenodd" d="M14.6519 22.2138L16.1952 17.8678H12.0241L14.8154 12.421H16.868L15.0249 16.0174H18.7878L14.6519 22.2138ZM29.4737 9.16176H28.0599C27.4011 9.16176 26.867 9.72947 26.867 10.4297V11.3074H26.1842L22.7413 7.9146V7.8938H22.7202L22.6965 7.87042L22.6761 7.8938H17.9147H17.7229V6.79696H21.6079V5.33398H9.06672V6.79696H12.9517V7.8938H12.8318H7.98867C7.4646 7.8938 7.03977 8.46147 7.03977 9.16172V10.6612H4.78811C4.14052 10.6612 3.61564 11.4203 3.61564 12.3566V14.0139H2.70961V9.88449H1.33325V23.2149H2.70961V19.0854H3.61564V21.8763C3.61564 22.8127 4.14052 23.5717 4.78811 23.5717H7.27674L10.2444 26.6231V26.6439H10.2647L10.2874 26.6673L10.307 26.6439H14.8702H19.7417H24.3833C24.8855 26.6439 25.2927 26.0762 25.2927 25.376V23.2304H26.867V24.7908C26.867 25.491 27.4011 26.0587 28.0599 26.0587H29.4737C30.1325 26.0587 30.6666 25.491 30.6666 24.7908V10.4297C30.6666 9.72947 30.1325 9.16176 29.4737 9.16176Z" fill="#242C33"/>
</svg>
