<svg width="32" height="32" viewBox="0 0 32 32" fill="none" xmlns="http://www.w3.org/2000/svg">
<path fill-rule="evenodd" clip-rule="evenodd" d="M9.15139 15.8441C9.50968 12.3499 12.3094 9.56377 15.8257 9.20022C15.9626 9.18579 16.0795 9.08818 16.0795 8.91174V2.88294C16.0795 2.72228 15.9523 2.57631 15.8066 2.5843C8.63022 2.98605 2.87764 8.70962 2.49014 15.8414C2.4839 15.9592 2.55074 16.0782 2.70904 16.0782H8.92773C9.07773 16.0782 9.13781 15.9799 9.15139 15.8441ZM18.6344 16.6036C18.6344 17.7148 17.7273 18.6159 16.6081 18.6159C15.4889 18.6159 14.5821 17.7148 14.5821 16.6036C14.5821 15.492 15.4889 14.591 16.6081 14.591C17.7273 14.591 18.6344 15.492 18.6344 16.6036ZM20.7338 15.2732C20.3154 15.513 19.779 15.3703 19.5375 14.9543C19.2955 14.5386 19.439 14.0061 19.8581 13.766C20.2767 13.5257 20.8127 13.6687 21.0544 14.0844C21.2964 14.5007 21.1531 15.0327 20.7338 15.2732ZM19.8312 19.4867C19.4126 19.2465 19.2688 18.7145 19.5108 18.2982C19.7526 17.8825 20.2888 17.7395 20.7072 17.9796C21.1268 18.2201 21.2698 18.7521 21.028 19.1678C20.7863 19.5844 20.2508 19.7271 19.8312 19.4867ZM15.7056 20.8168C15.7056 20.3366 16.0978 19.9471 16.5815 19.9471C17.0654 19.9471 17.4577 20.3366 17.4577 20.8168C17.4577 21.2973 17.0654 21.6871 16.5815 21.6866C16.0978 21.6866 15.7056 21.2973 15.7056 20.8168ZM12.4827 17.9339C12.9011 17.6938 13.4371 17.8364 13.6788 18.2526C13.9206 18.6683 13.7776 19.2005 13.3584 19.4409C12.9396 19.6809 12.4038 19.5384 12.1619 19.1224C11.9199 18.7062 12.0632 18.1742 12.4827 17.9339ZM13.385 13.7201C13.8039 13.9602 13.9474 14.4924 13.7057 14.9086C13.464 15.3244 12.9278 15.4671 12.5094 15.2273C12.0898 14.9867 11.9468 14.4547 12.1885 14.0387C12.4303 13.6228 12.966 13.4798 13.385 13.7201ZM17.511 12.3898C17.511 12.8699 17.1187 13.2597 16.635 13.2597C16.1508 13.2597 15.7589 12.8699 15.7589 12.3898C15.7589 11.9089 16.1508 11.5201 16.635 11.5201C17.1187 11.5201 17.511 11.9089 17.511 12.3898ZM16.6081 23.0144C20.1674 23.0144 23.0635 20.1383 23.0635 16.6036C23.0638 13.0686 20.1674 10.1924 16.6081 10.1924C13.0486 10.1924 10.1527 13.0686 10.1527 16.6036C10.1527 20.1383 13.0486 23.0144 16.6081 23.0144ZM29.5102 16.6036C29.5102 23.6684 23.7224 29.4163 16.6081 29.4163C9.67153 29.4163 3.99832 23.9506 3.71966 17.1286H5.09463C5.372 23.1978 10.4296 28.0511 16.6081 28.0511C22.9643 28.0511 28.1352 22.9156 28.1352 16.6036C28.1352 10.4674 23.2487 5.44495 17.1371 5.16923V3.80377C24.0068 4.08051 29.5102 9.71426 29.5102 16.6036Z" fill="#242C33"/>
</svg>
