<svg width="121" height="132" viewBox="0 0 121 132" fill="none" xmlns="http://www.w3.org/2000/svg">
<path fill-rule="evenodd" clip-rule="evenodd" d="M120.198 72C120.198 105.137 93.3352 132 60.1982 132C27.0612 132 0.198242 105.137 0.198242 72C0.198242 38.863 27.0612 12 60.1982 12C93.3352 12 120.198 38.863 120.198 72Z" fill="#E6F1F5"/>
<path fill-rule="evenodd" clip-rule="evenodd" d="M100.504 16.3791C100.457 14.5843 100.2 12.5989 99.4807 11.1552C98.3261 8.83581 95.7006 8.87516 94.0809 7.05517C92.4448 5.21701 91.1759 2.63734 88.9656 1.38433C86.8226 0.16966 83.6015 0.390602 81.2769 0.706377C79.9203 0.890999 78.5484 1.38433 77.1796 1.42469C75.4803 1.47614 74.1727 0.654925 72.5835 0.268529C70.6006 -0.2127 68.4148 -0.00991781 66.4768 0.581277C63.3434 1.53869 60.5711 3.55945 58.9299 6.31264C57.1592 6.59714 55.515 7.60702 54.3817 9.04465C53.423 10.2613 52.8395 11.7484 52.61 13.2678C52.4825 14.1132 52.5917 14.9294 52.5233 15.7687C52.4132 17.1075 51.8542 18.2627 51.5431 19.551C51.0811 21.4668 50.7975 23.5612 50.6965 25.5255C50.5925 27.5523 51.1066 29.5065 51.1096 31.5262C51.1178 36.3284 50.5904 41.06 51.1392 45.8672C51.1871 46.292 51.8052 46.3131 51.8236 45.8672C51.8369 45.5525 51.8328 45.2387 51.8399 44.9239C51.8542 44.9865 51.8675 45.049 51.8817 45.1106C51.9368 45.3567 52.2245 45.5 52.4601 45.4354C60.0274 43.3723 68.1251 44.1511 75.8883 43.8253C79.1706 43.6871 82.6457 43.7173 85.8506 42.9153C89.1145 42.0981 91.7461 39.928 94.6776 38.3976C96.588 37.3998 98.6147 36.2305 98.6841 33.8486C98.7086 32.9951 98.3118 32.1588 98.3455 31.3184C98.3924 30.1582 99.1003 29.3955 99.8622 28.6156C100.691 27.7652 101.487 26.9863 102.03 25.9109C103.909 22.1861 102.514 19.2029 100.504 16.3791Z" fill="#7D2D1A"/>
<path fill-rule="evenodd" clip-rule="evenodd" d="M78.1982 57.6131C78.1982 57.6131 75.1316 54.5401 74.4795 53.4411C73.1764 51.2478 71.2432 49.5601 69.5083 47.8241C65.5384 43.8503 61.2656 39.2643 56.3793 36.7155C56.3936 36.6498 56.4101 36.5841 56.4233 36.5172C56.507 36.0972 55.9431 35.77 55.769 36.2074C55.7316 36.3029 55.6996 36.4032 55.6622 36.4986C55.5465 36.5742 55.5201 36.8803 55.5201 36.8803L42.1982 70.4615C42.1982 70.4615 48.5221 74.1392 49.7635 74.7885C54.1266 77.0685 58.7167 82.6049 63.3717 83.9629C64.6209 84.3272 67.7602 81.9048 69.0479 81.165C70.1979 80.5033 70.5592 77.9136 70.9293 76.693C71.7764 73.9038 78.1982 57.6131 78.1982 57.6131Z" fill="#F39E7C"/>
<path fill-rule="evenodd" clip-rule="evenodd" d="M90.9458 17.4879C88.1184 11.9331 81.9933 8.32539 75.4348 8.65125C72.1361 8.81973 68.8946 9.16476 65.9917 10.7769C63.3061 12.268 61.1569 14.5057 59.5556 16.9936C58.0755 19.2958 57.0953 21.8412 56.3701 24.441C56.3416 24.4319 56.3324 24.4138 56.3038 24.4037C53.8538 23.4352 52.0637 25.6153 51.3283 27.6663C50.2542 30.6869 49.887 33.6691 51.7526 36.4374C52.5349 37.6027 53.713 38.7215 55.0319 39.5599C55.5786 42.8225 56.4925 46.6532 58.406 49.3287C61.5343 53.7001 68.2469 59.9541 73.506 60.401C79.8197 60.9327 84.6035 53.9887 86.9128 49.1421C89.1833 44.36 91.1345 37.2112 92.2463 32.5694C92.4442 31.7301 92.6135 30.9754 92.7553 30.3318C93.0378 29.0455 93.198 28.198 93.2173 28.0114C93.556 24.4884 92.5951 20.7223 90.9458 17.4879Z" fill="#F39E7C"/>
<path fill-rule="evenodd" clip-rule="evenodd" d="M70.8344 29.2652C69.4839 28.0717 68.3629 31.628 69.5359 32.0305C70.7354 32.4421 71.6799 30.0128 70.8344 29.2652Z" fill="#2E1A15"/>
<path fill-rule="evenodd" clip-rule="evenodd" d="M86.7048 33.8979C85.6276 32.6721 84.2078 35.7451 85.2176 36.2405C86.2488 36.7459 87.379 34.6666 86.7048 33.8979Z" fill="#2E1A15"/>
<path fill-rule="evenodd" clip-rule="evenodd" d="M73.907 24.5242C73.8631 24.5111 73.8213 24.499 73.7815 24.4879C72.3035 24.0672 70.7032 23.6929 69.1711 23.6142C68.1695 23.5628 66.2998 23.6061 66.2519 24.9792C66.2458 25.1699 66.3814 25.3606 66.5457 25.4483C67.2913 25.8458 68.2205 25.8993 69.0446 26.0133C70.3533 26.1959 71.4641 26.44 72.7023 26.9324C73.6479 27.3077 75.593 27.9029 76.0214 26.4784C76.3641 25.3363 74.7903 24.7825 73.907 24.5242Z" fill="#7D2D1A"/>
<path fill-rule="evenodd" clip-rule="evenodd" d="M92.7549 30.3313C92.6132 30.974 92.4438 31.7296 92.246 32.568C91.8216 32.4378 91.3984 32.2613 90.9924 32.112C89.7582 31.6459 88.6648 31.3382 87.3459 31.1798C86.328 31.0587 84.3298 30.6572 84.6501 29.2034C84.9051 28.0382 86.5544 28.2995 87.4591 28.4952C87.4969 28.5043 87.5438 28.5133 87.5815 28.5234C89.0799 28.8584 90.6721 29.2871 92.0481 29.949C92.2653 30.0519 92.5101 30.1729 92.7549 30.3313Z" fill="#7D2D1A"/>
<path fill-rule="evenodd" clip-rule="evenodd" d="M92.5869 18.282C91.4037 16.1241 90.0767 14.0882 88.2866 12.3701C85.0777 9.29001 80.9121 7.40444 76.467 6.99585C71.4486 6.53278 66.5465 6.85764 62.3452 9.84791C60.6489 11.0555 59.1781 12.5476 57.9051 14.182C57.1809 15.1112 56.3027 16.1553 55.8499 17.2489C55.3756 18.395 55.6714 19.5653 55.0573 20.6862C54.9869 20.7033 54.9217 20.7426 54.9023 20.8133C54.5963 21.921 54.9033 22.6787 55.5704 23.6391C56.0569 24.3403 56.7485 24.8578 57.2768 25.5216C57.8113 26.1935 58.1989 26.9795 58.3998 27.8108C58.6487 28.8418 58.6253 30.906 59.9706 31.2106C60.2532 31.2752 60.6091 31.0139 60.4867 30.7002C60.4123 30.5105 60.3388 30.3208 60.2654 30.1312C60.3256 30.1937 60.3878 30.2522 60.448 30.3148C60.753 30.6346 61.2252 30.2956 61.1477 29.9122C61.0692 29.5218 60.9621 29.1576 60.8397 28.7984C61.0947 28.7581 61.2803 28.4806 61.1508 28.178C61.0896 28.0347 61.0284 27.8915 60.9672 27.7482C61.059 27.72 61.1375 27.6574 61.1355 27.5242C61.0804 24.4179 63.3856 22.2025 64.0547 19.3C64.3464 18.0338 64.4902 16.8726 64.938 15.6711C66.4374 14.8105 67.9623 13.9348 69.6014 13.387C71.214 12.8483 72.2411 12.6374 73.8395 13.61C74.2852 13.8814 74.4688 14.2889 74.9716 14.5422C75.7999 14.9568 76.777 14.8993 77.6736 14.8761C78.7069 14.8489 79.9043 14.6067 80.959 14.8852C82.5798 15.3129 84.0618 16.2704 85.7489 16.682C87.5737 17.1269 89.1883 18.1146 90.4225 19.5139C91.2976 20.5056 92.8705 22.8391 92.8705 22.8391C92.8705 22.8391 93.2479 22.7372 93.3917 22.5021C94.2903 21.0423 93.3244 19.6268 92.5869 18.282Z" fill="#7D2D1A"/>
<path fill-rule="evenodd" clip-rule="evenodd" d="M80.432 38.4911C80.3381 36.9374 80.2912 35.3777 80.0495 33.8392C79.9913 33.472 79.4364 33.584 79.4201 33.924C79.3283 35.8539 79.515 37.8071 79.6088 39.737C79.6374 40.3343 79.8893 41.6559 79.7098 42.2279C79.261 43.6595 77.5954 43.8028 76.3887 44.1004C75.8777 44.2265 76.0256 44.9287 76.507 44.966C77.9728 45.078 80.1535 44.3748 80.6543 42.8302C81.0123 41.7225 80.5013 39.6311 80.432 38.4911Z" fill="#DD876B"/>
<path fill-rule="evenodd" clip-rule="evenodd" d="M76.0106 42.3544C75.5414 42.0396 74.8764 41.961 74.3205 41.965C73.7534 41.97 73.7595 42.8013 74.3205 42.8316C74.8305 42.8599 75.3211 42.992 75.8281 43.0223C76.2116 43.0455 76.286 42.539 76.0106 42.3544Z" fill="#DD876B"/>
<mask id="mask0_7729_104588" style="mask-type:alpha" maskUnits="userSpaceOnUse" x="0" y="12" width="121" height="120">
<path fill-rule="evenodd" clip-rule="evenodd" d="M120.198 72C120.198 105.137 93.3352 132 60.1982 132C27.0612 132 0.198242 105.137 0.198242 72C0.198242 38.863 27.0612 12 60.1982 12C93.3352 12 120.198 38.863 120.198 72Z" fill="#E6F1F5"/>
</mask>
<g mask="url(#mask0_7729_104588)">
<path fill-rule="evenodd" clip-rule="evenodd" d="M106.548 111.537C108.811 109.007 110.863 106.289 112.676 103.409C112.287 102.308 111.892 101.216 111.497 100.142C109.83 95.6074 107.514 91.3752 104.116 87.711C100.92 84.2758 96.938 81.5367 92.3725 79.8055C89.1493 78.5777 85.8058 77.6526 82.6193 76.333C81.4942 75.876 78.6138 75.0941 77.2174 74.7249C73.5811 77.5013 72.1256 82.4094 68.5077 85.8567C65.3967 88.8217 61.8686 89.5552 58.8443 86.1583C55.8057 82.7464 52.6713 79.4191 49.5369 76.0949C46.74 73.1288 43.9218 69.0752 40.1458 67.2694C38.8371 66.6439 36.9553 64.7189 35.7088 64.5041C33.8851 64.1913 31.8971 64.9691 30.1437 65.3606C28.0517 65.8287 25.921 66.0597 23.8545 66.6509C20.5579 67.5942 16.381 69.2114 13.9167 71.4188C8.52705 76.2281 7.84977 80.7155 6.6115 88.0227C5.95258 91.9109 6.15148 95.8556 6.7186 100.006C9.2186 104.624 12.3102 108.879 15.8883 112.682C27.8539 113.016 50.6517 111.537 50.6517 111.537H86.9084H106.548Z" fill="#62A744"/>
<path fill-rule="evenodd" clip-rule="evenodd" d="M96.8507 108.614L86.9089 106.016L69.5425 111.537L69.9974 131.304C82.6422 129.397 94.0029 123.65 102.856 115.319L96.8507 108.614Z" fill="#306700"/>
</g>
<path fill-rule="evenodd" clip-rule="evenodd" d="M55.6224 25.9234C55.4439 25.651 54.9594 25.8175 55.0706 26.1534C55.4439 27.2813 56.4649 30.0053 55.5541 31.1624C55.1552 31.6699 54.533 31.7092 54.2067 32.3963C53.9098 33.0208 54.2944 33.5837 54.1291 34.0841C53.4009 36.3016 52.7032 32.931 52.9388 32.0543C53.2621 30.8507 54.0751 30.0083 55.0787 29.3313C55.5051 29.0428 55.1328 28.3911 54.6697 28.6393C52.9357 29.5694 51.6098 31.6154 51.9851 33.6241C52.1748 34.643 53.2489 36.4489 54.5708 35.7911C55.2062 35.4753 54.9829 35.2524 55.1654 34.7399C55.1471 34.5583 55.0951 34.3827 55.0094 34.2153C54.6707 33.4798 54.9227 32.7282 55.7652 31.9625C55.8631 31.8293 56.1202 31.8757 56.2018 31.6891C56.9831 29.9034 56.6781 27.5356 55.6224 25.9234Z" fill="#DD876B"/>
<path fill-rule="evenodd" clip-rule="evenodd" d="M66.943 58.2674C66.943 58.2674 61.4706 54.7999 59.5474 52.251C57.4199 49.4306 54.9202 46.541 54.4828 42.6956C54.4544 42.453 54.1583 42.4944 54.1036 42.6879C53.1789 45.9772 56.542 49.4809 58.1759 51.7367C60.1826 54.5078 63.7518 56.7742 66.7181 58.1225C66.9298 58.2185 66.943 58.2674 66.943 58.2674Z" fill="#DD876B"/>
<path fill-rule="evenodd" clip-rule="evenodd" d="M81.2928 54.9628C79.9824 55.3024 78.2741 55.5594 76.9332 55.3645C76.1531 55.2513 73.5143 54.6261 73.1005 54.0866C72.6415 53.4871 74.334 50.6586 74.6743 48.8354C73.8331 48.5902 72.9739 48.2624 72.3294 47.7839C71.6692 48.4002 71.3334 49.431 70.906 50.0512C70.0151 51.3379 69.5131 52.5695 67.6601 52.3805C65.9868 52.2112 65.3401 51.6274 64.309 50.6754C63.3966 49.8336 62.4797 48.3874 61.7844 47.4C60.2479 45.2164 60.2095 42.4343 59.9133 39.9307C59.642 37.6408 60.6866 34.5486 59.2609 32.5205C59.0993 32.2911 58.2898 32.4427 58.0783 32.5441C57.5639 32.7913 57.5266 33.2658 57.461 33.7659C57.3129 34.8902 57.5492 36.0302 57.3593 37.1525C57.114 38.6056 56.1801 40.3068 56.2117 41.7796C56.266 44.2388 55.4339 48.0606 56.7295 50.2205C57.8873 52.1491 57.9427 54.5385 59.8104 56.2082C60.7737 57.0706 62.7646 58.1446 63.7573 58.9756C64.8121 59.8586 65.4588 60.595 66.9557 60.8667C68.5171 61.1513 70.2062 61.0026 71.6601 61.6652C72.1259 61.8768 72.551 62.1682 73.0542 62.3031C74.455 62.6752 76.7173 61.8916 78.0378 61.4368C79.5234 60.9258 80.8349 60.151 82.0344 59.2404C82.8586 58.6162 84.2029 56.4848 84.8553 55.714C85.71 54.7058 85.9983 52.3805 85.9983 52.3805C85.9983 52.3805 82.8485 54.5592 81.2928 54.9628Z" fill="#7D2D1A"/>
<path fill-rule="evenodd" clip-rule="evenodd" d="M78.1751 47.9139C77.8263 47.698 77.3224 47.6162 76.9868 47.5204C75.2049 47.0129 73.5209 46.1685 72.0541 45.0467C71.382 44.5332 70.5303 43.6373 69.596 43.8643C69.4154 43.9077 69.2634 44.062 69.2165 44.2386C68.7912 45.8578 70.1457 47.3903 71.3942 48.2438C73.1618 49.4524 75.6211 50.1283 77.7447 49.5795C78.1955 49.4635 78.6249 48.9439 78.5658 48.4697C78.5342 48.2165 78.3822 48.042 78.1751 47.9139Z" fill="white"/>
<path fill-rule="evenodd" clip-rule="evenodd" d="M34.7559 65.3502C34.7559 65.3502 39.3866 63.7501 40.9299 62.26C42.4741 60.7699 43.6084 57.7958 45.1251 58.3668C46.6418 58.9378 58.946 66.2662 60.2037 70.0827C61.4603 73.9003 63.1616 78.0225 63.1616 78.0225C63.1616 78.0225 65.8218 71.6858 67.519 71.0755C69.2163 70.4651 72.6649 69.1526 73.539 69.2454C74.4122 69.3372 77.2171 74.7245 77.2171 74.7245C77.2171 74.7245 71.5225 88.7599 70.427 88.5823C69.3326 88.4037 60.7606 91.1367 58.0229 90.3054C55.2853 89.4731 34.7559 65.3502 34.7559 65.3502Z" fill="white"/>
<path fill-rule="evenodd" clip-rule="evenodd" d="M95.5144 82.9633C95.4858 82.6233 95.0013 82.5285 94.8962 82.8806C94.1996 85.202 94.0874 87.7312 93.6427 90.1162C93.1918 92.5334 92.6186 94.9204 91.9984 97.3003C91.8281 97.9561 92.843 98.2335 93.0245 97.5798C94.273 93.0873 95.9019 87.6636 95.5144 82.9633Z" fill="#306700"/>
<path fill-rule="evenodd" clip-rule="evenodd" d="M111.708 82.0005C112.601 82.8701 113.065 85.6193 110.589 87.7863C113.118 88.4219 113.505 91.7401 112.376 93.2857C115.487 94.8171 114.461 97.7559 113.793 98.8092C114.275 99.6708 114.839 102.032 113.07 103.31C112.155 103.97 98.0846 109.919 93.2999 110.755C92.6552 110.868 85.959 114.836 85.959 114.836L77.8745 100.265C77.8745 100.265 83.7823 96.6048 83.9435 96.3698C84.8247 95.0925 85.0838 91.6039 85.4796 89.6568C85.8774 87.7107 86.7699 84.2624 85.859 81.4597C84.3147 76.935 84.1056 75.461 85.1664 74.9213C87.4084 73.7863 89.2678 77.165 90.3286 79.7497C90.9019 81.143 91.8015 83.1577 92.5134 87.6189C92.5134 87.6189 103.108 82.8046 104.888 82.2124C107.299 81.4123 110.3 80.6294 111.708 82.0005Z" fill="#F39E7C"/>
<path fill-rule="evenodd" clip-rule="evenodd" d="M68.2183 102.793C68.2183 102.793 77.8225 99.1289 78.7487 99.1289C79.6748 99.1289 90.1593 112.87 90.0685 113.443C89.9778 114.015 82.1636 117.908 82.1636 117.908L68.2183 102.793Z" fill="white"/>
<mask id="mask1_7729_104588" style="mask-type:alpha" maskUnits="userSpaceOnUse" x="6" y="91" width="80" height="41">
<path fill-rule="evenodd" clip-rule="evenodd" d="M6.61157 91.1113H85.7843V132.001H6.61157V91.1113Z" fill="white"/>
</mask>
<g mask="url(#mask1_7729_104588)">
<path fill-rule="evenodd" clip-rule="evenodd" d="M81.6341 113.42C77.6265 108.751 73.2559 103.471 68.2048 99.7139C67.9182 99.9187 67.6408 100.129 67.3817 100.341C66.7422 100.869 66.2199 101.463 65.6753 102.062C64.5522 103.293 63.5037 103.529 61.731 103.694C59.796 103.873 57.9529 104.201 56.1536 104.876C54.6481 105.44 53.0896 109.478 51.7126 110.454C51.5514 109.615 51.3617 108.762 50.9272 108.025C50.5151 107.326 47.6969 91.1113 47.6969 91.1113L6.61157 98.47C6.64013 98.9906 6.68297 99.5031 6.72377 100.018C18.1985 120.001 37.3337 132.001 60.6946 132.001C64.3595 132.001 67.9427 131.664 71.4301 131.053C71.9186 130.459 72.3929 129.853 72.8183 129.205C74.6777 126.378 76.6218 124.736 79.9062 123.33C81.8544 122.498 86.2342 121.589 85.7467 118.818C85.3948 116.816 82.904 114.899 81.6341 113.42Z" fill="#62A744"/>
</g>
<path fill-rule="evenodd" clip-rule="evenodd" d="M69.041 101.612C64.4877 101.16 59.8457 102.275 55.7688 104.295C53.3871 105.475 51.3716 107.148 49.1378 108.558C47.0591 109.869 44.7753 110.771 42.4253 111.489C38.3259 112.742 34.0562 113.469 30.0793 115.102C27.5211 116.153 25.3016 117.611 23.3779 119.43C23.7104 119.683 24.0409 119.94 24.3796 120.186C26.5205 118.3 28.7696 116.702 31.7449 115.626C33.4912 114.993 35.2823 114.507 37.0805 114.042C35.7841 114.696 34.5519 115.518 33.3198 116.244C31.7776 117.154 30.2364 118.068 28.9042 119.268C28.0893 120.002 27.3324 120.852 26.6368 121.764C26.9724 121.987 27.3192 122.195 27.6599 122.411C28.3229 121.481 29.0644 120.596 29.9844 119.809C32.7486 117.448 36.4328 116.311 39.1134 113.883C39.2286 113.778 39.2317 113.626 39.1725 113.503C40.7035 113.108 42.2294 112.695 43.7268 112.191C47.8353 110.81 50.8943 108.306 54.5489 106.112C59.0114 103.432 63.892 102.436 69.041 102.106C69.3653 102.085 69.3582 101.643 69.041 101.612Z" fill="#306700"/>
<path fill-rule="evenodd" clip-rule="evenodd" d="M42.015 100.501C41.1572 99.9743 39.7945 99.3851 39.36 98.4196C38.6715 96.8892 39.5752 95.4152 39.8618 93.9443C40.2015 92.206 39.8527 90.4698 39.1744 88.8526C37.5118 84.8857 34.2447 81.3093 31.2949 78.2222C28.0248 74.7981 24.4028 71.7816 20.3606 69.2927C20.0312 69.0899 19.7731 69.5742 20.0648 69.7931C23.7837 72.5796 27.3608 75.584 30.5452 78.9637C33.6236 82.2304 37.4598 86.2537 38.6236 90.6948C39.4936 94.017 36.3163 97.439 39.3804 100.102C40.6901 101.241 42.3598 101.857 43.6501 103.035C45.4116 104.645 46.4551 106.729 47.0497 108.998C47.218 109.641 48.1523 109.361 48.0412 108.727C47.4016 105.093 45.1148 102.405 42.015 100.501Z" fill="#306700"/>
<path fill-rule="evenodd" clip-rule="evenodd" d="M93.5918 108.67C93.1818 108.887 92.8187 109.217 92.4484 109.495C92.1159 109.745 91.7222 109.966 91.5049 110.326C91.3346 110.609 91.6151 110.943 91.9262 110.868C92.3536 110.763 92.7034 110.428 93.0543 110.176C93.4174 109.916 93.8173 109.678 94.1345 109.366C94.4996 109.004 94.0366 108.435 93.5918 108.67Z" fill="#DD876B"/>
<path fill-rule="evenodd" clip-rule="evenodd" d="M36.1566 89.728C34.9254 87.8152 32.8906 86.7054 30.8893 85.7087C28.4689 84.5021 25.8781 82.906 23.2557 82.223C22.8508 82.1181 22.6876 82.6276 22.9874 82.8516C26.9481 85.8005 31.9817 86.546 35.5089 90.2223C35.8281 90.5553 36.4106 90.1225 36.1566 89.728Z" fill="#306700"/>
<path fill-rule="evenodd" clip-rule="evenodd" d="M86.4017 113.855C86.1702 113.254 85.7244 112.728 85.3236 112.23C85.0502 111.889 84.4719 111.862 84.4229 112.41C84.3811 112.526 84.3801 112.662 84.4566 112.806C84.6585 113.188 84.8615 113.569 85.0655 113.949C85.1216 114.055 85.1808 114.164 85.2705 114.245C85.6051 114.548 86.6598 114.525 86.4017 113.855Z" fill="#E6E6E6"/>
<path fill-rule="evenodd" clip-rule="evenodd" d="M57.8382 70.6767C56.6764 72.2203 56.0797 74.3722 55.3259 76.1438C55.0923 76.6956 55.0393 77.428 54.3671 77.5653C53.75 77.6914 53.6195 77.3483 53.1921 76.9357C52.5107 76.2779 51.8569 75.6252 51.0073 75.1884C50.7849 75.0744 50.5575 75.3024 50.6707 75.5213C51.2551 76.6492 52.3363 77.7701 53.338 78.557C53.8949 78.9948 54.4773 79.1532 55.0974 78.7073C55.9328 78.108 56.2327 76.7622 56.6019 75.8855C57.2639 74.3096 58.2105 72.6299 58.4665 70.939C58.5246 70.5536 58.0779 70.3589 57.8382 70.6767Z" fill="#E6E6E6"/>
<path fill-rule="evenodd" clip-rule="evenodd" d="M64.6386 81.9047C64.5458 80.8504 63.844 80.0151 63.7594 78.9769C63.7267 78.5714 63.0668 78.4099 62.9852 78.873C62.7843 80.009 63.5809 80.801 63.6992 81.9047C63.8083 82.9176 63.3494 84.0939 63.9817 84.9676C64.1256 85.1663 64.4234 85.1421 64.505 84.9C64.7937 84.0384 64.7182 82.8096 64.6386 81.9047Z" fill="#E6E6E6"/>
<path fill-rule="evenodd" clip-rule="evenodd" d="M72.5578 78.1683C71.8948 78.4175 71.3899 78.8453 70.7932 79.2176C70.323 79.5101 70.1302 79.7644 69.6957 79.5142C69.4223 79.3568 69.1796 78.3378 69.0643 78.0695C68.3432 76.3877 67.7495 74.6181 66.8999 72.9969C66.6949 72.6065 66.0982 72.8819 66.1992 73.2895C66.5449 74.6908 67.1508 76.0497 67.7057 77.3824C68.0647 78.242 68.4095 79.7724 69.0868 80.41C70.1822 81.4421 72.3212 79.4698 72.8638 78.5628C72.977 78.3752 72.7863 78.0826 72.5578 78.1683Z" fill="#E6E6E6"/>
<path fill-rule="evenodd" clip-rule="evenodd" d="M64.1977 13.6853C63.6724 13.1455 62.9676 12.8388 62.5504 12.1851C62.1261 11.5213 62.3046 10.7636 61.9374 10.131C61.762 9.82636 61.5427 9.68209 61.2275 9.5348C61.051 9.45207 60.7257 9.46115 60.5676 9.34816C59.9127 8.88005 59.8536 7.95794 59.7883 7.26082C59.7526 6.89157 59.263 6.81187 59.1345 7.17305C58.8672 7.91961 58.7856 8.79228 59.2395 9.49445C59.6077 10.0645 60.0984 10.0392 60.6114 10.3641C61.2928 10.7949 61.2469 12.0136 61.662 12.6986C62.1669 13.5319 63.0196 13.9012 63.65 14.6033C63.8366 14.8122 64.1386 14.674 64.2242 14.454C64.2589 14.3622 64.2946 14.2714 64.3303 14.1796C64.3946 14.0132 64.316 13.8073 64.1977 13.6853Z" fill="#6E200E"/>
<path fill-rule="evenodd" clip-rule="evenodd" d="M96.1762 21.4C95.4775 19.0877 93.7731 18.5994 92.2105 17.0387C90.5173 15.3478 90.0012 13.548 87.5573 12.6158C85.2184 11.7229 82.4757 11.8501 80.0787 12.4473C79.7197 12.5361 79.8074 13.0607 80.1644 13.0728C82.2074 13.1394 84.2525 12.8105 86.267 13.3291C88.9975 14.0322 89.431 15.6232 90.9263 17.5501C91.879 18.7779 93.4947 19.0463 94.4025 20.3447C95.5275 21.9538 95.4388 23.8364 94.6411 25.5444C94.3545 26.1588 95.1787 26.6541 95.5663 26.0791C96.4883 24.7091 96.6505 22.9688 96.1762 21.4Z" fill="#6E200E"/>
<path fill-rule="evenodd" clip-rule="evenodd" d="M94.9573 28.0952C94.588 28.1265 94.3667 28.643 94.7523 28.8418C95.6539 29.3069 95.7182 30.0958 95.6988 31.024C95.6907 31.4104 95.6529 31.7877 95.4826 32.1388C95.3408 32.4323 95.2092 32.5726 95.199 32.9055C95.1929 33.0942 95.3612 33.2384 95.5428 33.2455C97.4348 33.3161 97.3043 27.8955 94.9573 28.0952Z" fill="#6E200E"/>
<path fill-rule="evenodd" clip-rule="evenodd" d="M92.5876 9.84545C90.8087 9.2593 89.596 7.79947 87.7212 7.29806C85.4487 6.69072 82.9405 7.01861 80.7057 7.62292C80.162 7.77021 80.2467 8.69231 80.8424 8.62875C82.916 8.4058 85.0121 7.88421 87.0909 8.34829C88.8667 8.74477 89.5072 9.88378 90.9546 10.6525C91.5115 10.9481 92.2704 10.9441 92.8773 11.1479C93.9748 11.5151 94.9917 12.1255 95.8404 12.9033C97.0735 14.0332 97.7386 15.4507 98.4801 16.9035C98.6158 17.1698 99.0727 17.0477 99.0533 16.7501C98.8259 13.2483 95.7047 10.8725 92.5876 9.84545Z" fill="#6E200E"/>
<path fill-rule="evenodd" clip-rule="evenodd" d="M75.2752 1.95631C73.1648 1.87358 70.8892 1.14114 68.786 1.45793C67.0703 1.71519 65.3578 2.71699 64.1307 3.89636C63.787 4.22625 64.2215 4.7206 64.6213 4.52589C66.5287 3.5937 67.9567 2.32454 70.2282 2.41131C71.9541 2.47688 73.5351 2.65747 75.2752 2.42846C75.571 2.39012 75.5924 1.96841 75.2752 1.95631Z" fill="#6E200E"/>
<path fill-rule="evenodd" clip-rule="evenodd" d="M62.1888 16.4549C62.1837 16.4257 62.1786 16.3964 62.1735 16.3662C62.1409 16.1755 61.9165 16.0958 61.7492 16.1281C60.5773 16.3541 59.8612 18.852 59.4961 19.8457C58.8331 21.6496 58.2609 23.7359 58.5587 25.6619C58.6138 26.017 59.1574 25.9736 59.2421 25.6619C59.6572 24.1344 59.7398 22.5505 60.208 21.0261C60.4753 20.1575 60.8027 19.308 61.1842 18.4818C61.3015 18.2265 62.0552 16.7778 61.9308 16.7899C62.1154 16.7727 62.2205 16.6355 62.1888 16.4549Z" fill="#6E200E"/>
<path fill-rule="evenodd" clip-rule="evenodd" d="M80.8101 117.28C79.2648 117.755 78.15 119.027 76.6261 119.541C75.1002 116.971 73.509 114.439 71.7087 112.046C70.8683 110.929 69.9676 109.864 69.0404 108.821C69.7259 108.716 70.4062 108.597 71.0957 108.462C71.9739 108.289 73.1551 108.348 73.814 107.709C73.9048 107.622 73.8946 107.441 73.7722 107.383C72.945 106.997 71.9352 107.422 71.0753 107.608C70.2104 107.795 69.3913 108.014 68.5784 108.307C67.9745 107.638 67.3646 106.976 66.7475 106.318C68.3703 106.214 70.0727 105.781 71.6108 105.456C72.2177 105.328 71.9484 104.462 71.3589 104.552C69.6555 104.809 67.7369 105.025 66.0916 105.614C65.5357 105.02 64.9778 104.428 64.427 103.831C64.1169 103.495 63.5019 103.945 63.7793 104.325C65.9886 107.354 68.8415 109.851 71.0672 112.886C73.2469 115.86 75.1369 119.027 77.0637 122.164C77.3819 122.683 78.1949 122.216 77.8878 121.687C77.6349 121.251 77.3768 120.817 77.1208 120.382C77.7083 120.201 78.2244 119.864 78.7538 119.507C79.5657 118.96 80.4348 118.47 81.0641 117.711C81.2161 117.526 81.0804 117.197 80.8101 117.28Z" fill="#306700"/>
<path fill-rule="evenodd" clip-rule="evenodd" d="M107.999 88.9218C109.454 87.9805 112.035 85.752 112.035 85.752C112.035 85.752 111.375 87.5134 108.397 89.4C105.419 91.2856 106.243 90.0568 107.999 88.9218Z" fill="#DD876B"/>
<path fill-rule="evenodd" clip-rule="evenodd" d="M110.201 94.678C111.095 94.1141 112.677 92.7773 112.677 92.7773C112.677 92.7773 112.274 93.8367 110.447 94.9666C108.62 96.0965 109.124 95.358 110.201 94.678Z" fill="#DD876B"/>
<path fill-rule="evenodd" clip-rule="evenodd" d="M111.554 100.307C112.447 99.743 114.029 98.4062 114.029 98.4062C114.029 98.4062 113.627 99.4656 111.8 100.595C109.973 101.725 110.477 100.987 111.554 100.307Z" fill="#DD876B"/>
</svg>
