<svg width="80" height="80" viewBox="0 0 80 80" fill="none" xmlns="http://www.w3.org/2000/svg">
<circle cx="40" cy="40" r="40" fill="#666B70"/>
<path fill-rule="evenodd" clip-rule="evenodd" d="M57.1667 22.5469C58.5474 22.5469 59.6667 23.6662 59.6667 25.0469V38.3802C59.6667 39.7609 58.5474 40.8802 57.1667 40.8802H33.8334C32.4527 40.8802 31.3334 39.7609 31.3334 38.3802V25.0469C31.3334 23.6662 32.4527 22.5469 33.8334 22.5469H57.1667ZM55.9167 37.5469C56.1468 37.5469 56.3334 37.3603 56.3334 37.1302L56.3384 26.2969C56.3384 26.0668 56.1518 25.8802 55.9217 25.8802H35.0884C34.8583 25.8802 34.6717 26.0668 34.6717 26.2969V37.1302C34.6717 37.3603 34.8583 37.5469 35.0884 37.5469H55.9167ZM48.8384 31.7135C48.8384 33.5545 47.346 35.0469 45.505 35.0469C43.6641 35.0469 42.1717 33.5545 42.1717 31.7135C42.1717 29.8726 43.6641 28.3802 45.505 28.3802C47.346 28.3802 48.8384 29.8726 48.8384 31.7135ZM53.6484 47.5452H53.6667C55.0459 47.0864 56.5647 47.3857 57.6667 48.3335C57.898 48.5137 58.0221 48.799 57.9961 49.091C57.9702 49.383 57.7978 49.642 57.5384 49.7785C47.5276 54.8427 44.4566 57.1931 41.2308 57.4294C38.4211 57.6352 35.494 56.2372 27.7617 53.6319C27.2844 53.4729 26.7612 53.534 26.3334 53.7985L20.965 57.1485C20.8368 57.2296 20.6746 57.2342 20.542 57.1606C20.4094 57.087 20.3275 56.9469 20.3284 56.7952V47.8052C20.3281 47.6472 20.4171 47.5027 20.5584 47.4319L25.5867 44.9185C26.5124 44.4552 27.5332 44.2139 28.5684 44.2135H32C34.4258 44.3448 36.7528 45.2175 38.6667 46.7135H44.5C45.4205 46.7135 46.1667 47.4597 46.1667 48.3802C46.1667 49.3007 45.4205 50.0469 44.5 50.0469H37.8334C37.3731 50.0469 37 50.42 37 50.8802C37 51.3404 37.3731 51.7135 37.8334 51.7135H44.5C45.8108 51.7077 46.9966 50.9342 47.53 49.7369C47.5774 49.6252 47.6702 49.5391 47.785 49.5002L53.6484 47.5452Z" fill="white"/>
</svg>
