<svg width="80" height="80" viewBox="0 0 80 80" fill="none" xmlns="http://www.w3.org/2000/svg">
<circle cx="40" cy="40" r="40" fill="#666B70"/>
<path fill-rule="evenodd" clip-rule="evenodd" d="M38.3334 28.4154V23.332L30.0001 23.3337V28.3337L32.2734 30.2287C34.1581 29.2405 36.2157 28.6248 38.3334 28.4154ZM50.0001 23.3337V28.3337L47.7284 30.2304C45.8433 29.2413 43.7852 28.6251 41.6667 28.4154V23.3337H50.0001ZM40.0001 31.667C47.3639 31.667 53.3334 37.6366 53.3334 45.0004C53.3334 52.3642 47.3639 58.3337 40.0001 58.3337C32.6363 58.3337 26.6667 52.3642 26.6667 45.0004C26.6667 37.6366 32.6363 31.667 40.0001 31.667ZM40.0001 35.0004C34.4772 35.0004 30.0001 39.4775 30.0001 45.0004C30.0001 50.5232 34.4772 55.0004 40.0001 55.0004C45.5229 55.0004 50.0001 50.5232 50.0001 45.0004C50.0001 39.4775 45.5229 35.0004 40.0001 35.0004ZM42.2051 41.967L40.0001 37.5004L37.7951 41.9654L32.8667 42.682L36.4334 46.1587L35.5917 51.067L40.0001 48.7504L44.4084 51.0687L43.5667 46.1587L47.1334 42.6837L42.2051 41.967Z" fill="white"/>
</svg>
