<svg width="24" height="24" viewBox="0 0 24 24" fill="none" xmlns="http://www.w3.org/2000/svg">
<path fill-rule="evenodd" clip-rule="evenodd" d="M20 9.9993H7V8.9993C6.99876 6.67956 8.59323 4.66361 10.8509 4.13048C13.1085 3.59735 15.4364 4.68706 16.473 6.7623L18.262 5.8683C16.8107 2.96333 13.5521 1.43792 10.3916 2.18407C7.23115 2.93021 4.99883 5.75197 5 8.9993V9.9993H4C3.44772 9.9993 3 10.447 3 10.9993V20.9993C3 21.5516 3.44772 21.9993 4 21.9993H20C20.5523 21.9993 21 21.5516 21 20.9993V10.9993C21 10.447 20.5523 9.9993 20 9.9993ZM10 16.9993V14.9993H14V16.9993H10Z" fill="#242C33"/>
</svg>
