<svg width="73" height="73" viewBox="0 0 73 73" fill="none" xmlns="http://www.w3.org/2000/svg">
<g filter="url(#filter0_d_7729_104610)">
<ellipse cx="36.561" cy="34.5003" rx="27.019" ry="26.8323" fill="white"/>
</g>
<path fill-rule="evenodd" clip-rule="evenodd" d="M29.7129 34.3441C30.0712 30.8499 32.8709 28.0638 36.3872 27.7002C36.5242 27.6858 36.641 27.5882 36.641 27.4117V21.3829C36.641 21.2223 36.5139 21.0763 36.3681 21.0843C29.1917 21.486 23.4392 27.2096 23.0517 34.3414C23.0454 34.4592 23.1123 34.5782 23.2706 34.5782H29.4893C29.6393 34.5782 29.6993 34.4799 29.7129 34.3441M39.1959 35.1036C39.1959 36.2148 38.2888 37.1159 37.1697 37.1159C36.0505 37.1159 35.1437 36.2148 35.1437 35.1036C35.1437 33.992 36.0505 33.091 37.1697 33.091C38.2888 33.091 39.1959 33.992 39.1959 35.1036M41.2953 33.7732C40.877 34.013 40.3405 33.8703 40.099 33.4543C39.857 33.0386 40.0005 32.5061 40.4196 32.266C40.8382 32.0257 41.3742 32.1687 41.6159 32.5844C41.8579 33.0007 41.7147 33.5327 41.2953 33.7732M40.3927 37.9867C39.9741 37.7465 39.8304 37.2145 40.0724 36.7982C40.3141 36.3825 40.8503 36.2395 41.2687 36.4796C41.6883 36.7201 41.8313 37.2521 41.5896 37.6678C41.3478 38.0844 40.8124 38.2271 40.3927 37.9867M36.2671 39.3168C36.2671 38.8366 36.6593 38.4471 37.143 38.4471C37.627 38.4471 38.0192 38.8366 38.0192 39.3168C38.0192 39.7973 37.627 40.1871 37.143 40.1866C36.6593 40.1866 36.2671 39.7973 36.2671 39.3168M33.0443 36.4339C33.4626 36.1938 33.9986 36.3364 34.2403 36.7526C34.4821 37.1683 34.3391 37.7005 33.9199 37.9409C33.5011 38.1809 32.9653 38.0384 32.7234 37.6224C32.4814 37.2062 32.6247 36.6742 33.0443 36.4339M33.9466 32.2201C34.3655 32.4602 34.509 32.9924 34.2672 33.4086C34.0255 33.8244 33.4893 33.9671 33.0709 33.7273C32.6513 33.4867 32.5083 32.9547 32.75 32.5387C32.9918 32.1228 33.5275 31.9798 33.9466 32.2201M38.0725 30.8898C38.0725 31.3699 37.6802 31.7597 37.1966 31.7597C36.7123 31.7597 36.3204 31.3699 36.3204 30.8898C36.3204 30.4089 36.7123 30.0201 37.1966 30.0201C37.6802 30.0201 38.0725 30.4089 38.0725 30.8898M37.1697 41.5144C40.7289 41.5144 43.6251 38.6383 43.6251 35.1036C43.6253 31.5686 40.7289 28.6924 37.1697 28.6924C33.6101 28.6924 30.7142 31.5686 30.7142 35.1036C30.7142 38.6383 33.6101 41.5144 37.1697 41.5144M50.0717 35.1036C50.0717 42.1684 44.284 47.9163 37.1697 47.9163C30.233 47.9163 24.5598 42.4506 24.2812 35.6286H25.6561C25.9335 41.6978 30.9911 46.5511 37.1697 46.5511C43.5258 46.5511 48.6968 41.4156 48.6968 35.1036C48.6968 28.9674 43.8103 23.9449 37.6986 23.6692V22.3038C44.5683 22.5805 50.0717 28.2143 50.0717 35.1036" fill="#313D47"/>
<g filter="url(#filter1_d_7729_104610)">
<circle cx="36.5" cy="34.5" r="30.5" stroke="#313D47" stroke-dasharray="4 12"/>
</g>
<defs>
<filter id="filter0_d_7729_104610" x="3.54199" y="3.66797" width="66.0378" height="65.6641" filterUnits="userSpaceOnUse" color-interpolation-filters="sRGB">
<feFlood flood-opacity="0" result="BackgroundImageFix"/>
<feColorMatrix in="SourceAlpha" type="matrix" values="0 0 0 0 0 0 0 0 0 0 0 0 0 0 0 0 0 0 127 0" result="hardAlpha"/>
<feMorphology radius="1" operator="dilate" in="SourceAlpha" result="effect1_dropShadow_7729_104610"/>
<feOffset dy="2"/>
<feGaussianBlur stdDeviation="2.5"/>
<feColorMatrix type="matrix" values="0 0 0 0 0 0 0 0 0 0 0 0 0 0 0 0 0 0 0.06 0"/>
<feBlend mode="normal" in2="BackgroundImageFix" result="effect1_dropShadow_7729_104610"/>
<feBlend mode="normal" in="SourceGraphic" in2="effect1_dropShadow_7729_104610" result="shape"/>
</filter>
<filter id="filter1_d_7729_104610" x="0" y="0" width="73" height="73" filterUnits="userSpaceOnUse" color-interpolation-filters="sRGB">
<feFlood flood-opacity="0" result="BackgroundImageFix"/>
<feColorMatrix in="SourceAlpha" type="matrix" values="0 0 0 0 0 0 0 0 0 0 0 0 0 0 0 0 0 0 127 0" result="hardAlpha"/>
<feMorphology radius="0.5" operator="dilate" in="SourceAlpha" result="effect1_dropShadow_7729_104610"/>
<feOffset dy="2"/>
<feGaussianBlur stdDeviation="2.5"/>
<feColorMatrix type="matrix" values="0 0 0 0 0 0 0 0 0 0 0 0 0 0 0 0 0 0 0.06 0"/>
<feBlend mode="normal" in2="BackgroundImageFix" result="effect1_dropShadow_7729_104610"/>
<feBlend mode="normal" in="SourceGraphic" in2="effect1_dropShadow_7729_104610" result="shape"/>
</filter>
</defs>
</svg>
