<svg width="80" height="80" viewBox="0 0 80 80" fill="none" xmlns="http://www.w3.org/2000/svg">
<circle cx="40" cy="40" r="40" fill="#666B70"/>
<path fill-rule="evenodd" clip-rule="evenodd" d="M57.1899 54.8323L50.0516 47.6957C52.1803 45.0402 53.3381 41.7373 53.3333 38.334C53.3333 30.054 46.6133 23.334 38.3333 23.334C30.0533 23.334 23.3333 30.054 23.3333 38.334C23.3333 46.614 30.0533 53.334 38.3333 53.334C41.7366 53.3388 45.0395 52.181 47.6949 50.0523L54.8316 57.1907L57.1899 54.8323ZM49.9999 38.334C50.0047 41.368 48.8234 44.2838 46.7083 46.459L46.4583 46.709C44.2831 48.8242 41.3673 50.0054 38.3333 50.0007C31.8866 50.0007 26.6666 44.779 26.6666 38.334C26.6666 31.8873 31.8866 26.6673 38.3333 26.6673C44.7783 26.6673 49.9999 31.8873 49.9999 38.334Z" fill="white"/>
</svg>
