<svg width="24" height="24" viewBox="0 0 24 24" fill="none" xmlns="http://www.w3.org/2000/svg">
<path d="M7.75 10C7.19772 10 6.75 10.4477 6.75 11V11.125C6.75 11.5779 6.40587 11.9501 5.96484 11.9951L5.78516 12.0049C5.34413 12.0499 5 12.4221 5 12.875V18.0576C5.00015 18.6098 5.44781 19.0576 6 19.0576H18C18.5522 19.0576 18.9999 18.6098 19 18.0576V12.875C19 12.4221 18.6559 12.0499 18.2148 12.0049L18.0352 11.9951C17.5941 11.9501 17.25 11.5779 17.25 11.125V11C17.25 10.4477 16.8023 10 16.25 10H20C20.5523 10 21 10.4477 21 11V19.9004C20.9999 20.4526 20.5522 20.9004 20 20.9004H4C3.44777 20.9004 3.00008 20.4526 3 19.9004V11C3 10.4477 3.44772 10 4 10H7.75ZM17 7.34277L15.7275 8.67773L12.9004 5.61328V16.1094H11.0996V5.61328L8.27246 8.67773L7 7.34277L12 2L17 7.34277Z" fill="#242C33"/>
</svg>
