<svg width="24" height="24" viewBox="0 0 24 24" fill="none" xmlns="http://www.w3.org/2000/svg">
<path fill-rule="evenodd" clip-rule="evenodd" d="M14.045 2.2087C12.6958 1.92716 11.303 1.92784 9.95405 2.2107V2.2117C9.77163 3.41262 9.05249 4.4652 8.00005 5.0717C6.94782 5.68018 5.67573 5.77625 4.54405 5.3327C3.62616 6.3608 2.92972 7.56683 2.49805 8.8757C3.44817 9.6341 4.00104 10.784 4.00005 11.9997C4.00092 13.2143 3.44887 14.3633 2.50005 15.1217C2.92905 16.432 3.62464 17.6393 4.54305 18.6677C5.67487 18.2235 6.9474 18.3192 8.00005 18.9277C9.05412 19.535 9.77383 20.5898 9.95505 21.7927C11.3044 22.0736 12.6973 22.0722 14.046 21.7887C14.2285 20.5878 14.9476 19.5352 16 18.9287C17.0523 18.3202 18.3244 18.2242 19.456 18.6677C20.3739 17.6396 21.0704 16.4336 21.502 15.1247C20.586 14.3917 20 13.2647 20 12.0007C19.9986 10.7854 20.5507 9.6355 21.5 8.8767C21.0709 7.56674 20.3753 6.35976 19.457 5.3317C18.3251 5.77558 17.0525 5.6795 16 5.0707C14.9467 4.46401 14.2271 3.41054 14.045 2.2087ZM15 12.0007C15 13.6576 13.6569 15.0007 12 15.0007C10.3432 15.0007 9.00005 13.6576 9.00005 12.0007C9.00005 10.3438 10.3432 9.0007 12 9.0007C13.6569 9.0007 15 10.3438 15 12.0007Z" fill="#242C33"/>
</svg>
