<svg width="24" height="24" viewBox="0 0 24 24" fill="none" xmlns="http://www.w3.org/2000/svg">
<path fill-rule="evenodd" clip-rule="evenodd" d="M12 22C6.477 22 2 17.523 2 12C2 6.477 6.477 2 12 2C17.523 2 22 6.477 22 12C22 17.523 17.523 22 12 22ZM11 15V17H13V15H11ZM15.4546 9.49647C15.7051 11.2131 14.6609 12.8544 12.9999 13.355V14H10.9999V12.5C10.9999 11.9477 11.4476 11.5 11.9999 11.5C12.79 11.5 13.4447 10.887 13.4966 10.0985C13.5485 9.31006 12.9798 8.61655 12.1965 8.51295C11.4131 8.40935 10.6838 8.93117 10.5289 9.706L8.56689 9.313C8.89477 7.67711 10.3315 6.49987 11.9999 6.5C13.7347 6.50524 15.2042 7.77982 15.4546 9.49647Z" fill="#242C33"/>
</svg>
