<svg width="80" height="80" viewBox="0 0 80 80" fill="none" xmlns="http://www.w3.org/2000/svg">
<circle cx="40" cy="40" r="40" fill="#666B70"/>
<path fill-rule="evenodd" clip-rule="evenodd" d="M40 24.2402L26.305 27.2836C25.5426 27.453 25.0001 28.1292 25 28.9102V45.5569C25.0008 48.8997 26.6719 52.0211 29.4533 53.8752L40 60.9069L50.5467 53.8752C53.3286 52.0208 54.9998 48.8987 55 45.5552V28.9102C54.9999 28.1292 54.4574 27.453 53.695 27.2836L40 24.2402ZM28.3333 45.5552V30.2469L40 27.6569L51.6667 30.2469V45.5569C51.6661 47.7851 50.5523 49.8658 48.6983 51.1019L40 56.9019L31.3017 51.1019C29.4472 49.8655 28.3334 47.7841 28.3333 45.5552Z" fill="white"/>
</svg>
