<svg width="24" height="24" viewBox="0 0 24 24" fill="none" xmlns="http://www.w3.org/2000/svg">
<path fill-rule="evenodd" clip-rule="evenodd" d="M7 6V3C7 2.44772 7.44772 2 8 2H16C16.5523 2 17 2.44772 17 3V6H22V8H20V21C20 21.5523 19.5523 22 19 22H5C4.44772 22 4 21.5523 4 21V8H2V6H7ZM13.4139 14L15.1819 12.232L13.7679 10.818L11.9999 12.586L10.2319 10.818L8.81787 12.232L10.5859 14L8.81787 15.768L10.2319 17.182L11.9999 15.414L13.7679 17.182L15.1819 15.768L13.4139 14ZM9 6V4H15V6H9Z" fill="#242C33"/>
</svg>
