<svg width="80" height="80" viewBox="0 0 80 80" fill="none" xmlns="http://www.w3.org/2000/svg">
<circle cx="40" cy="40" r="40" fill="#666B70"/>
<path fill-rule="evenodd" clip-rule="evenodd" d="M56.6666 37C56.6666 31.1667 52.5633 27 47.4999 27C44.3999 27 41.6666 28.6667 39.9999 30.3333C38.3333 28.6667 35.5999 27 32.4999 27C27.4999 27 23.3333 31.1667 23.3333 37C23.3333 48.0015 34.4485 54.5569 39.2098 57.3649C39.4977 57.5347 39.7624 57.6908 39.9999 57.8333C40.2375 57.6908 40.5021 57.5347 40.79 57.3649C45.5513 54.5569 56.6666 48.0015 56.6666 37ZM45.5899 50.1717C44.3499 51.1583 43.0249 52.08 41.5566 53.0067C41.0583 53.32 40.5649 53.6217 39.9999 53.9583C39.4349 53.6217 38.9416 53.32 38.4433 53.005C36.9749 52.08 35.6499 51.1583 34.4083 50.1717C29.4433 46.2217 26.6666 41.9067 26.6666 37C26.6666 33.0933 29.2666 30.3333 32.4999 30.3333C34.2933 30.3333 36.2333 31.2833 37.6433 32.69L39.9999 35.0467L42.3566 32.69C43.7666 31.2833 45.7066 30.3333 47.4999 30.3333C50.7716 30.3333 53.3333 33.0667 53.3333 37C53.3333 41.905 50.5583 46.2217 45.5899 50.1717Z" fill="white"/>
</svg>
