<svg width="24" height="24" viewBox="0 0 24 24" fill="none" xmlns="http://www.w3.org/2000/svg">
<path fill-rule="evenodd" clip-rule="evenodd" d="M22.638 12C21.697 7.44889 17.211 4 11.819 4C6.427 4 1.94 7.44889 1 12C1.941 16.5511 6.427 20 11.819 20C17.211 20 21.698 16.5511 22.638 12ZM20.596 12C19.6608 15.6397 16.0191 18.2214 11.819 18.2222C7.61888 18.2214 3.97717 15.6397 3.042 12C3.98058 8.36329 7.62142 5.78536 11.819 5.78536C16.0166 5.78536 19.6574 8.36329 20.596 12ZM11.8188 16C9.33357 16 7.31885 14.2091 7.31885 12C7.31885 9.79086 9.33357 8 11.8188 8C14.3041 8 16.3188 9.79086 16.3188 12C16.3188 14.2091 14.3041 16 11.8188 16ZM14.3188 12.0001C14.3188 13.2274 13.1996 14.2223 11.8188 14.2223C10.4381 14.2223 9.31885 13.2274 9.31885 12.0001C9.31885 10.7728 10.4381 9.77783 11.8188 9.77783C13.1996 9.77783 14.3188 10.7728 14.3188 12.0001Z" fill="#242C33"/>
</svg>
