<svg width="80" height="80" viewBox="0 0 80 80" fill="none" xmlns="http://www.w3.org/2000/svg">
<circle cx="40" cy="40" r="40" fill="#666B70"/>
<path fill-rule="evenodd" clip-rule="evenodd" d="M30.0001 31.666C30.0001 37.191 34.4751 41.666 40.0001 41.666C45.5251 41.666 50.0001 37.191 50.0001 31.666C50.0001 26.141 45.5251 21.666 40.0001 21.666C34.4751 21.666 30.0001 26.141 30.0001 31.666ZM40.0001 46.666V43.3327C32.6363 43.3327 26.6667 49.3022 26.6667 56.666H30.0001C30.0001 51.1432 34.4772 46.666 40.0001 46.666ZM40.0001 38.3327C43.6834 38.3327 46.6667 35.3493 46.6667 31.666C46.6667 27.9827 43.6834 24.9993 40.0001 24.9993C36.3167 24.9993 33.3334 27.9827 33.3334 31.666C33.3334 35.3493 36.3167 38.3327 40.0001 38.3327ZM45.1017 58.4077L50.0001 55.8327L54.8967 58.4077L53.9634 52.9543L57.9251 49.091L52.4501 48.2943L50.0001 43.3327L47.5517 48.2943L42.0751 49.091L46.0367 52.9543L45.1017 58.4077Z" fill="white"/>
</svg>
