<svg width="24" height="24" viewBox="0 0 24 24" fill="none" xmlns="http://www.w3.org/2000/svg">
<path fill-rule="evenodd" clip-rule="evenodd" d="M11.9999 2.00001C9.59888 1.99666 7.27745 2.86067 5.46289 4.43301L6.45989 6.22801C8.7728 4.00781 12.1878 3.38288 15.1371 4.64013C18.0863 5.89738 20.0002 8.79394 19.9999 12H16.9999L20.1899 17.74C21.3299 16.116 21.9999 14.136 21.9999 12C21.9999 6.47701 17.5229 2.00001 11.9999 2.00001ZM12 22C14.401 22.0034 16.7224 21.1394 18.537 19.567L17.54 17.772C15.2271 19.9922 11.8121 20.6171 8.86282 19.3599C5.91355 18.1026 3.99974 15.2061 4 12H7L3.81 6.26002C2.67 7.88402 2 9.86402 2 12C2 17.523 6.477 22 12 22Z" fill="#242C33"/>
</svg>
