<svg width="24" height="24" viewBox="0 0 24 24" fill="none" xmlns="http://www.w3.org/2000/svg">
<path fill-rule="evenodd" clip-rule="evenodd" d="M11.819 19.6365C13.9015 19.6393 15.9417 19.1381 17.7004 18.1918L21.01 21L22.425 19.8002L2.626 3L1.211 4.20062L4.34 6.85302C2.60163 8.21816 1.43003 10.0236 1 12C1.941 16.3443 6.427 19.6365 11.819 19.6365ZM5.754 8.05449C4.395 9.10289 3.44832 10.4802 3.042 12C3.67522 14.3509 5.57927 16.3102 8.17855 17.2855C10.7778 18.2609 13.7672 18.1378 16.243 16.9535L14.215 15.2328C12.437 16.1831 10.1205 15.9628 8.63457 14.702C7.14866 13.4412 6.88898 11.4757 8.009 9.967L5.754 8.05449ZM9.491 11.2245L12.732 13.9745C11.8064 14.283 10.7533 14.0967 10.0501 13.5C9.34693 12.9034 9.12738 12.0098 9.491 11.2245ZM20.626 15.8963L19.195 14.6829C19.8635 13.8746 20.3394 12.9632 20.596 12C20.0468 9.95901 18.5346 8.19863 16.4129 7.13014C14.2911 6.06166 11.7456 5.77868 9.371 6.34732L7.793 5.00839C9.04 4.59263 10.399 4.36353 11.819 4.36353C17.211 4.36353 21.697 7.6557 22.638 12C22.3316 13.4133 21.6429 14.7471 20.626 15.8963ZM15.0015 9.29962C14.0894 8.52563 12.8296 8.12104 11.542 8.18855H11.541L16.311 12.235C16.3906 11.1425 15.9137 10.0736 15.0015 9.29962Z" fill="#242C33"/>
</svg>
