<svg width="24" height="24" viewBox="0 0 24 24" fill="none" xmlns="http://www.w3.org/2000/svg">
<path fill-rule="evenodd" clip-rule="evenodd" d="M13.8734 1H9.67344C5.03425 1 1.27344 4.85724 1.27344 9.61539C1.27344 16.6154 8.62344 19.8462 13.8734 22V18.2308C18.5126 18.2308 22.2734 14.3735 22.2734 9.61539C22.2734 4.85724 18.5126 1 13.8734 1ZM13.8734 16.0764H11.7734V18.7472C5.95849 16.0398 3.37339 13.5026 3.37339 9.61486C3.37339 6.04625 6.194 3.15332 9.67339 3.15332H13.8734C16.1242 3.15332 18.204 4.38488 19.3293 6.38409C20.4547 8.3833 20.4547 10.8464 19.3293 12.8456C18.204 14.8448 16.1242 16.0764 13.8734 16.0764Z" fill="#242C33"/>
</svg>
