<svg width="24" height="24" viewBox="0 0 24 24" fill="none" xmlns="http://www.w3.org/2000/svg">
<path d="M21 4.5C22.6569 4.5 24 5.84315 24 7.5V18.5C24 20.1569 22.6569 21.5 21 21.5H3C1.34315 21.5 0 20.1569 0 18.5V7.5C0 5.84315 1.34315 4.5 3 4.5H21ZM2.5 12C2.22386 12 2 12.2239 2 12.5V18.5C2 19.0523 2.44772 19.5 3 19.5H21C21.5523 19.5 22 19.0523 22 18.5V12.5C22 12.2239 21.7761 12 21.5 12H2.5ZM8 15.5C8.55229 15.5 9 15.9477 9 16.5C9 17.0523 8.55229 17.5 8 17.5H5C4.44772 17.5 4 17.0523 4 16.5C4 15.9477 4.44772 15.5 5 15.5H8ZM3 6.5C2.44772 6.5 2 6.94772 2 7.5V8.5C2 8.77614 2.22386 9 2.5 9H21.5C21.7761 9 22 8.77614 22 8.5V7.5C22 6.94772 21.5523 6.5 21 6.5H3Z" fill="#242C33"/>
</svg>
