<svg width="80" height="80" viewBox="0 0 80 80" fill="none" xmlns="http://www.w3.org/2000/svg">
<circle cx="40" cy="40" r="40" fill="#666B70"/>
<path fill-rule="evenodd" clip-rule="evenodd" d="M39.9999 23.334L23.3333 31.6673V38.334H56.6666V31.6673L39.9999 23.334ZM29.9999 40.0007H26.6666V51.6673H29.9999V40.0007ZM56.6666 56.6673V53.334H23.3333V56.6673H56.6666ZM34.4444 40.0007H37.7777V51.6673H34.4444V40.0007ZM45.556 40.0007H42.2227V51.6673H45.556V40.0007ZM50.001 40.0007H53.3343V51.6673H50.001V40.0007ZM26.6666 33.7273V35.0007H53.3333V33.7273L39.9999 27.0607L26.6666 33.7273ZM38.3333 31.6673C38.3333 32.5878 39.0794 33.334 39.9999 33.334C40.9204 33.334 41.6666 32.5878 41.6666 31.6673C41.6666 30.7468 40.9204 30.0007 39.9999 30.0007C39.0794 30.0007 38.3333 30.7468 38.3333 31.6673Z" fill="white"/>
</svg>
