<svg width="24" height="24" viewBox="0 0 24 24" fill="none" xmlns="http://www.w3.org/2000/svg">
<mask id="mask0_12636_9260" style="mask-type:luminance" maskUnits="userSpaceOnUse" x="0" y="0" width="24" height="24">
<path fill-rule="evenodd" clip-rule="evenodd" d="M0 0H24V23.8547H0V0Z" fill="white"/>
</mask>
<g mask="url(#mask0_12636_9260)">
<path fill-rule="evenodd" clip-rule="evenodd" d="M23.9999 12.0007C23.9999 5.37289 18.627 0 11.9992 0C5.37143 0 -0.00146484 5.37289 -0.00146484 12.0007C-0.00146484 17.9906 4.38702 22.9553 10.1241 23.8556V15.4697H7.07708V12.0007H10.1241V9.3568C10.1241 6.34912 11.9157 4.68777 14.657 4.68777C15.9699 4.68777 17.3433 4.92216 17.3433 4.92216V7.87546H15.83C14.3393 7.87546 13.8743 8.80052 13.8743 9.74956V12.0007H17.2027L16.6706 15.4697H13.8743V23.8556C19.6115 22.9553 23.9999 17.9906 23.9999 12.0007Z" fill="#1877F2"/>
</g>
<path fill-rule="evenodd" clip-rule="evenodd" d="M16.6707 15.4694L17.2027 12.0004H13.8744V9.74929C13.8744 8.80025 14.3393 7.87519 15.8301 7.87519H17.3434V4.92189C17.3434 4.92189 15.97 4.6875 14.657 4.6875C11.9158 4.6875 10.1242 6.34885 10.1242 9.35652V12.0004H7.07715V15.4694H10.1242V23.8553C10.7352 23.9512 11.3614 24.0011 11.9993 24.0011C12.6372 24.0011 13.2634 23.9512 13.8744 23.8553V15.4694H16.6707Z" fill="white"/>
</svg>
