<svg width="24" height="24" viewBox="0 0 24 24" fill="none" xmlns="http://www.w3.org/2000/svg">
<path fill-rule="evenodd" clip-rule="evenodd" d="M18.4647 4.0003C17.7502 2.76238 16.4294 1.99984 15 2.00001C13.8514 1.99798 12.7578 2.4919 12 3.35501C10.6406 1.81348 8.33425 1.55302 6.66533 2.75256C4.99641 3.95209 4.50816 6.2212 5.536 8.00101L1 8.00001V10H3V20C3 20.5523 3.44772 21 4 21H20C20.5523 21 21 20.5523 21 20V10H23V8.00001L18.464 8.00101C19.179 6.76336 19.1793 5.23822 18.4647 4.0003ZM11 20V10H13V20H11ZM9.00019 4.00001C7.92136 3.99519 7.03312 4.84687 6.99264 5.92495C6.95217 7.00303 7.77403 7.91893 8.85019 7.99501L9.00019 8.00001H11.0002V6.00001C11.0002 5.01241 10.2794 4.17264 9.30319 4.02301L9.14919 4.00501L9.00019 4.00001ZM13.005 5.85001C13.0835 4.80633 13.9534 3.99967 15 4.00001C16.1046 4.00001 17 4.89544 17 6.00001L16.995 6.15001C16.9165 7.19368 16.0466 8.00034 15 8.00001H13V6.00001L13.005 5.85001Z" fill="#242C33"/>
</svg>
