<svg width="80" height="80" viewBox="0 0 80 80" fill="none" xmlns="http://www.w3.org/2000/svg">
<circle cx="40" cy="40" r="40" fill="#313D47"/>
<path fill-rule="evenodd" clip-rule="evenodd" d="M51.6667 34.6673H53.3333C54.2538 34.6673 55 35.4135 55 36.334V53.0007C55 53.9211 54.2538 54.6673 53.3333 54.6673H26.6667C25.7462 54.6673 25 53.9211 25 53.0007V36.334C25 35.4135 25.7462 34.6673 26.6667 34.6673H28.3333V33.0007C28.3333 28.8326 30.557 24.9811 34.1667 22.897C37.7763 20.813 42.2237 20.813 45.8333 22.897C49.443 24.9811 51.6667 28.8326 51.6667 33.0007V34.6673ZM48.3333 34.6673V33.0007C48.3333 28.3983 44.6024 24.6673 40 24.6673C35.3976 24.6673 31.6667 28.3983 31.6667 33.0007V34.6673H48.3333ZM38.3333 48.0007V41.334H41.6667V48.0007H38.3333Z" fill="white"/>
</svg>
