<svg width="73" height="73" viewBox="0 0 73 73" fill="none" xmlns="http://www.w3.org/2000/svg">
<g filter="url(#filter0_d_7729_104611)">
<ellipse cx="36.4497" cy="34.5001" rx="26.9565" ry="26.8849" fill="white"/>
</g>
<path fill-rule="evenodd" clip-rule="evenodd" d="M34.6382 40.8993L36.1815 36.5534H32.0105L34.8017 31.1065H36.8543L35.0113 34.7029H38.7741L34.6382 40.8993ZM49.46 27.8473H48.0462C47.3874 27.8473 46.8534 28.415 46.8534 29.1152V29.9929H46.1706L42.7276 26.6001V26.5793H42.7065L42.6828 26.556L42.6624 26.5793H37.9011H37.7093V25.4825H41.5942V24.0195H29.053V25.4825H32.938V26.5793H32.8181H27.975C27.4509 26.5793 27.0261 27.147 27.0261 27.8473V29.3468H24.7744C24.1269 29.3468 23.602 30.1058 23.602 31.0422V32.6995H22.6959V28.57H21.3196V41.9005H22.6959V37.771H23.602V40.5618C23.602 41.4982 24.1269 42.2573 24.7744 42.2573H27.2631L30.2308 45.3087V45.3295H30.251L30.2737 45.3529L30.2933 45.3295H34.8565H39.728H44.3696C44.8719 45.3295 45.279 44.7618 45.279 44.0615V41.9159H46.8534V43.4763C46.8534 44.1766 47.3874 44.7443 48.0462 44.7443H49.46C50.1189 44.7443 50.6529 44.1766 50.6529 43.4763V29.1152C50.6529 28.415 50.1189 27.8473 49.46 27.8473V27.8473Z" fill="#242C33"/>
<g filter="url(#filter1_d_7729_104611)">
<circle cx="36.5" cy="34.5" r="30.5" stroke="#313D47" stroke-dasharray="4 12"/>
</g>
<defs>
<filter id="filter0_d_7729_104611" x="3.49316" y="3.61523" width="65.9131" height="65.7695" filterUnits="userSpaceOnUse" color-interpolation-filters="sRGB">
<feFlood flood-opacity="0" result="BackgroundImageFix"/>
<feColorMatrix in="SourceAlpha" type="matrix" values="0 0 0 0 0 0 0 0 0 0 0 0 0 0 0 0 0 0 127 0" result="hardAlpha"/>
<feMorphology radius="1" operator="dilate" in="SourceAlpha" result="effect1_dropShadow_7729_104611"/>
<feOffset dy="2"/>
<feGaussianBlur stdDeviation="2.5"/>
<feColorMatrix type="matrix" values="0 0 0 0 0 0 0 0 0 0 0 0 0 0 0 0 0 0 0.06 0"/>
<feBlend mode="normal" in2="BackgroundImageFix" result="effect1_dropShadow_7729_104611"/>
<feBlend mode="normal" in="SourceGraphic" in2="effect1_dropShadow_7729_104611" result="shape"/>
</filter>
<filter id="filter1_d_7729_104611" x="0" y="0" width="73" height="73" filterUnits="userSpaceOnUse" color-interpolation-filters="sRGB">
<feFlood flood-opacity="0" result="BackgroundImageFix"/>
<feColorMatrix in="SourceAlpha" type="matrix" values="0 0 0 0 0 0 0 0 0 0 0 0 0 0 0 0 0 0 127 0" result="hardAlpha"/>
<feMorphology radius="0.5" operator="dilate" in="SourceAlpha" result="effect1_dropShadow_7729_104611"/>
<feOffset dy="2"/>
<feGaussianBlur stdDeviation="2.5"/>
<feColorMatrix type="matrix" values="0 0 0 0 0 0 0 0 0 0 0 0 0 0 0 0 0 0 0.06 0"/>
<feBlend mode="normal" in2="BackgroundImageFix" result="effect1_dropShadow_7729_104611"/>
<feBlend mode="normal" in="SourceGraphic" in2="effect1_dropShadow_7729_104611" result="shape"/>
</filter>
</defs>
</svg>
