<svg width="24" height="24" viewBox="0 0 24 24" fill="none" xmlns="http://www.w3.org/2000/svg">
<path d="M10.4 8.36026C10.4357 6.38945 11.6489 4.63188 13.4789 3.89963C15.309 3.16738 17.3997 3.60302 18.785 5.00526C19.496 5.00026 20.101 5.18026 21.454 4.36026C21.119 6.00026 20.954 6.71226 20.24 7.69126C20.24 15.3333 15.543 19.0493 10.777 20.0003C7.50902 20.6523 2.75702 19.5813 1.39502 18.1593C2.08902 18.1053 4.90902 17.8023 6.53902 16.6093C5.16002 15.7003 -0.328981 12.4703 3.27802 3.78626C4.97102 5.76326 6.68802 7.10926 8.42802 7.82326C9.58602 8.29826 9.87002 8.28826 10.401 8.36126L10.4 8.36026Z" fill="#242C33"/>
</svg>
