<svg width="24" height="24" viewBox="0 0 24 24" fill="none" xmlns="http://www.w3.org/2000/svg">
<path fill-rule="evenodd" clip-rule="evenodd" d="M20 2H4C3.44772 2 3 2.44772 3 3V22.276C3.00017 22.4453 3.08604 22.6031 3.22818 22.6952C3.37031 22.7872 3.54939 22.8011 3.704 22.732L12 19.03L20.296 22.733C20.4508 22.8022 20.6301 22.7882 20.7722 22.6959C20.9144 22.6036 21.0002 22.4455 21 22.276V3C21 2.44772 20.5523 2 20 2ZM14.9391 15.045L12.0001 13.5L9.06212 15.045L9.62212 11.773L7.24512 9.455L10.5301 8.977L12.0001 6L13.4691 8.977L16.7551 9.455L14.3781 11.773L14.9391 15.045Z" fill="#242C33"/>
</svg>
