<svg width="80" height="80" viewBox="0 0 80 80" fill="none" xmlns="http://www.w3.org/2000/svg">
<circle cx="40" cy="40" r="40" fill="#666B70"/>
<path fill-rule="evenodd" clip-rule="evenodd" d="M55.2331 53.1484V41.5227L57.1598 41.0422C57.8495 40.8694 58.3332 40.2496 58.3333 39.5386V38.4225C58.3333 37.9945 57.9863 37.6475 57.5582 37.6475H54.6518L51.3377 28.8089C50.884 27.5985 49.727 26.7967 48.4344 26.7969H31.03C29.7374 26.7967 28.5804 27.5985 28.1267 28.8089L24.8126 37.6475H21.9061C21.4781 37.6475 21.1311 37.9945 21.1311 38.4225V39.5386C21.1311 40.2496 21.6148 40.8694 22.3045 41.0422L24.2313 41.5227V53.1484C24.2313 54.0045 24.9253 54.6985 25.7814 54.6985H27.3315C28.1876 54.6985 28.8816 54.0045 28.8816 53.1484V51.5983H50.5828V53.1484C50.5828 54.0045 51.2768 54.6985 52.1329 54.6985H53.683C54.5391 54.6985 55.2331 54.0045 55.2331 53.1484ZM27.3315 46.948V43.8479C30.9246 43.8479 33.3458 45.0166 34.5936 47.3573C34.7221 47.5973 34.7153 47.8871 34.5756 48.1208C34.4359 48.3545 34.1838 48.4977 33.9116 48.4981H28.8816C28.0255 48.4981 27.3315 47.8041 27.3315 46.948ZM52.133 43.8479C48.5415 43.8479 46.1202 45.0182 44.8693 47.3573C44.7407 47.5975 44.7477 47.8877 44.8877 48.1214C45.0278 48.3552 45.2804 48.4982 45.5529 48.4981H50.5829C51.439 48.4981 52.133 47.8041 52.133 46.948V43.8479ZM28.0119 37.1577L30.4316 29.8971H49.0326L51.4523 37.1577C51.6097 37.6301 51.5305 38.1495 51.2394 38.5535C50.9483 38.9576 50.4808 39.1972 49.9828 39.1976H29.4813C28.9834 39.1972 28.5159 38.9576 28.2248 38.5535C27.9337 38.1495 27.8545 37.6301 28.0119 37.1577Z" fill="white"/>
</svg>
