<svg width="24" height="24" viewBox="0 0 24 24" fill="none" xmlns="http://www.w3.org/2000/svg">
<path d="M22.99 12.1878C22.99 11.3684 22.9186 10.7705 22.764 10.1504H12.7092V13.8487H18.6111C18.4922 14.7678 17.8496 16.1519 16.4217 17.082L16.4017 17.2058L19.5808 19.4976L19.8011 19.5181C21.8239 17.7796 22.99 15.2218 22.99 12.1878Z" fill="#4285F4"/>
<path d="M12.7092 21.9322C15.6007 21.9322 18.0281 21.0463 19.8011 19.5183L16.4217 17.0822C15.5174 17.669 14.3037 18.0787 12.7092 18.0787C9.87726 18.0787 7.47367 16.3403 6.61685 13.9375L6.49126 13.9474L3.18556 16.3281L3.14233 16.4399C4.90338 19.6954 8.52071 21.9322 12.7092 21.9322Z" fill="#34A853"/>
<path d="M6.6168 13.9363C6.39072 13.3163 6.25988 12.6518 6.25988 11.9653C6.25988 11.2788 6.39072 10.6144 6.60491 9.99435L6.59892 9.86229L3.2518 7.44336L3.14229 7.49183C2.41647 8.84275 2 10.3598 2 11.9653C2 13.5709 2.41647 15.0879 3.14229 16.4388L6.6168 13.9363Z" fill="#FBBC05"/>
<path d="M12.7092 5.85336C14.7201 5.85336 16.0766 6.66168 16.8501 7.33718L19.8724 4.59107C18.0162 2.9855 15.6007 2 12.7092 2C8.52071 2 4.90338 4.23672 3.14233 7.49214L6.60496 9.99466C7.47367 7.59183 9.87726 5.85336 12.7092 5.85336Z" fill="#EB4335"/>
</svg>
