<svg width="24" height="24" viewBox="0 0 24 24" fill="none" xmlns="http://www.w3.org/2000/svg">
<path fill-rule="evenodd" clip-rule="evenodd" d="M15.8957 0.849609C16.0397 2.14561 15.5237 3.45361 14.7437 4.38961C13.9637 5.32561 12.6917 6.05761 11.4557 5.96161C11.2877 4.68961 11.9117 3.35761 12.6317 2.52961C13.4357 1.59361 14.7797 0.897609 15.8957 0.849609ZM10.2541 6.82798C10.7783 7.03603 11.2458 7.22161 11.6239 7.22161C11.9561 7.22161 12.3894 7.05132 12.902 6.84986C13.7226 6.52735 14.7465 6.12497 15.8839 6.21361C16.5919 6.26161 18.6199 6.47761 19.9399 8.40961C19.8319 8.46961 17.5159 9.81361 17.5399 12.6216C17.5759 15.9816 20.4799 17.0976 20.5159 17.1096C20.4919 17.1936 20.0479 18.7056 18.9799 20.2656C18.0559 21.6216 17.0959 22.9656 15.5839 22.9896C14.8537 23.0073 14.3662 22.7966 13.8591 22.5775C13.3329 22.3501 12.7856 22.1136 11.9239 22.1136C11.0083 22.1136 10.4323 22.3596 9.87741 22.5965C9.39962 22.8005 8.93754 22.9978 8.28794 23.0256C6.82394 23.0736 5.71994 21.5616 4.78394 20.2176C2.87594 17.4576 1.42394 12.4416 3.37994 9.04561C4.35194 7.35361 6.07994 6.28561 7.96394 6.26161C8.77554 6.24115 9.56389 6.55405 10.2541 6.82798Z" fill="black"/>
</svg>
