<svg width="136" height="24" viewBox="0 0 136 24" fill="none" xmlns="http://www.w3.org/2000/svg">
<path fill-rule="evenodd" clip-rule="evenodd" d="M4.94691 22.208L11.9999 18.26L19.0529 22.208L17.4779 14.28L23.4129 8.792L15.3859 7.84L11.9999 0.5L8.61391 7.84L0.586914 8.792L6.52191 14.28L4.94691 22.208ZM16.2469 18.345L11.9999 15.968L7.75291 18.345L8.70191 13.572L5.12891 10.267L9.96191 9.695L11.9999 5.275L14.0379 9.694L18.8709 10.267L15.2979 13.572L16.2469 18.345Z" fill="#FACD46"/>
<path fill-rule="evenodd" clip-rule="evenodd" d="M32.9469 22.208L39.9999 18.26L47.0529 22.208L45.4779 14.28L51.4129 8.792L43.3859 7.84L39.9999 0.5L36.6139 7.84L28.5869 8.792L34.5219 14.28L32.9469 22.208ZM44.2469 18.345L39.9999 15.968L35.7529 18.345L36.7019 13.572L33.1289 10.267L37.9619 9.695L39.9999 5.275L42.0379 9.694L46.8709 10.267L43.2979 13.572L44.2469 18.345Z" fill="#FACD46"/>
<path fill-rule="evenodd" clip-rule="evenodd" d="M60.9469 22.208L67.9999 18.26L75.0529 22.208L73.4779 14.28L79.4129 8.792L71.3859 7.84L67.9999 0.5L64.6139 7.84L56.5869 8.792L62.5219 14.28L60.9469 22.208ZM72.2469 18.345L67.9999 15.968L63.7529 18.345L64.7019 13.572L61.1289 10.267L65.9619 9.695L67.9999 5.275L70.0379 9.694L74.8709 10.267L71.2979 13.572L72.2469 18.345Z" fill="#FACD46"/>
<path fill-rule="evenodd" clip-rule="evenodd" d="M88.9469 22.208L95.9999 18.26L103.053 22.208L101.478 14.28L107.413 8.792L99.3859 7.84L95.9999 0.5L92.6139 7.84L84.5869 8.792L90.5219 14.28L88.9469 22.208ZM100.247 18.345L95.9999 15.968L91.7529 18.345L92.7019 13.572L89.1289 10.267L93.9619 9.695L95.9999 5.275L98.0379 9.694L102.871 10.267L99.2979 13.572L100.247 18.345Z" fill="#FACD46"/>
<path fill-rule="evenodd" clip-rule="evenodd" d="M116.947 22.208L124 18.26L131.053 22.208L129.478 14.28L135.413 8.792L127.386 7.84L124 0.5L120.614 7.84L112.587 8.792L118.522 14.28L116.947 22.208ZM128.247 18.345L124 15.968L119.753 18.345L120.702 13.572L117.129 10.267L121.962 9.695L124 5.275L126.038 9.694L130.871 10.267L127.298 13.572L128.247 18.345Z" fill="#FACD46"/>
</svg>
