<svg width="24" height="24" viewBox="0 0 24 24" fill="none" xmlns="http://www.w3.org/2000/svg">
<path fill-rule="evenodd" clip-rule="evenodd" d="M9 2L2 5V21.241C1.99985 21.4092 2.08424 21.5661 2.22459 21.6588C2.36494 21.7514 2.54244 21.7673 2.697 21.701L9 19L15 22L22 19V2.759C22.0001 2.59084 21.9158 2.43387 21.7754 2.34124C21.6351 2.24862 21.4576 2.23275 21.303 2.299L15 5L9 2ZM20 17.681L16 19.395V6.747L20 5.033V17.681ZM14 19.264V6.736L10 4.736V17.264L14 19.264ZM8 4.605V17.253L4 18.967V6.319L8 4.605Z" fill="#242C33"/>
</svg>
