<svg width="63" height="64" viewBox="0 0 63 64" fill="none" xmlns="http://www.w3.org/2000/svg">
<path fill-rule="evenodd" clip-rule="evenodd" d="M31.5 5.33333L5.25 18.6667V29.3333H57.75V18.6667L31.5 5.33333ZM15.75 32H10.5V50.6667H15.75V32ZM57.75 58.6667V53.3333H5.25V58.6667H57.75ZM22.75 32H28V50.6667H22.75V32ZM40.2509 32H35.0009V50.6667H40.2509V32ZM47.2517 32H52.5017V50.6667H47.2517V32ZM10.5 21.9627V24H52.5V21.9627L31.5 11.296L10.5 21.9627ZM28.875 18.6667C28.875 20.1394 30.0503 21.3333 31.5 21.3333C32.9497 21.3333 34.125 20.1394 34.125 18.6667C34.125 17.1939 32.9497 16 31.5 16C30.0503 16 28.875 17.1939 28.875 18.6667Z" fill="currentColor"/>
</svg>
