<svg width="24" height="24" viewBox="0 0 24 24" fill="none" xmlns="http://www.w3.org/2000/svg">
<path fill-rule="evenodd" clip-rule="evenodd" d="M4.36279 7.46379C4.71117 7.45252 5.03781 7.63258 5.21533 7.93254C5.39274 8.23247 5.39282 8.6053 5.21533 8.9052C5.03776 9.20494 4.71102 9.38425 4.36279 9.37297H2.97705C2.42477 9.37297 1.97705 9.82069 1.97705 10.373V18.873C1.97705 19.4253 2.42477 19.873 2.97705 19.873H21.0181C21.5703 19.8729 22.0181 19.4252 22.0181 18.873V10.373C22.0181 9.82075 21.5703 9.37307 21.0181 9.37297H18.1997C17.8515 9.38418 17.5247 9.20496 17.3472 8.9052C17.1697 8.60534 17.1698 8.23245 17.3472 7.93254C17.5247 7.63263 17.8514 7.45259 18.1997 7.46379H22.0229C23.0774 7.46382 23.9325 8.31852 23.9331 9.37297V19.873C23.9326 20.9274 23.0774 21.7821 22.0229 21.7822H1.97705C0.922577 21.7822 0.0674466 20.9274 0.0668945 19.873V9.37297C0.0674507 8.3185 0.92258 7.46379 1.97705 7.46379H4.36279ZM17.728 15.5781C18.2429 15.5948 18.6517 16.017 18.6519 16.5322C18.6519 17.0475 18.2431 17.4704 17.728 17.4872H10.5679C10.3147 17.4875 10.0712 17.3869 9.89209 17.2079C9.71314 17.0291 9.61283 16.7862 9.61279 16.5331C9.61253 16.2798 9.71295 16.0365 9.89209 15.8573C10.0712 15.6782 10.3145 15.5778 10.5679 15.5781H17.728ZM6.77588 10.7665C6.8638 10.7398 6.95963 10.7634 7.0249 10.8281L8.63623 12.4384C8.70118 12.5036 8.72544 12.5993 8.69873 12.6874C8.67199 12.7756 8.59863 12.8422 8.5083 12.8603C8.42024 12.8791 6.83038 13.206 6.73584 13.206C6.60927 13.2055 6.48781 13.1555 6.39795 13.0663C6.28497 12.9536 6.23625 12.7911 6.26807 12.6347L6.604 10.956C6.62221 10.866 6.68814 10.7933 6.77588 10.7665ZM13.0474 3.83586C13.1449 3.73891 13.3024 3.73875 13.3999 3.83586L15.6274 6.06731C15.7247 6.16488 15.7247 6.32228 15.6274 6.41985L9.97412 12.0741C9.87655 12.1714 9.71817 12.1714 9.62061 12.0741L7.39014 9.8427C7.29289 9.74513 7.29288 9.58772 7.39014 9.49016L13.0474 3.83586ZM14.1284 2.74797C14.8419 2.03448 15.9988 2.03458 16.7124 2.74797C17.426 3.46153 17.426 4.61841 16.7124 5.33196L16.6528 5.39153C16.5553 5.48879 16.3969 5.48879 16.2993 5.39153L14.0688 3.16106C13.972 3.06293 13.972 2.9047 14.0688 2.80657L14.1284 2.74797Z" fill="#242C33"/>
</svg>
