<svg width="62" height="56" viewBox="0 0 61.958 55.8438" fill="none" xmlns="http://www.w3.org/2000/svg">
<path d="M18.3828 34.667C22.2033 34.8771 25.8684 36.2733 28.8828 38.667H38.0703C39.52 38.667 40.6952 39.8604 40.6953 41.333C40.6953 42.8058 39.5201 44 38.0703 44H27.5703C26.8456 44 26.258 44.5968 26.2578 45.333C26.2578 46.0694 26.8455 46.6669 27.5703 46.667H38.0703C40.1348 46.6577 42.0025 45.4197 42.8428 43.5039C42.9174 43.3253 43.0633 43.1872 43.2442 43.125L52.4795 39.9971H52.5078C54.68 39.263 57.072 39.7424 58.8076 41.2588C59.1719 41.5471 59.368 42.0034 59.3272 42.4707C59.2863 42.9379 59.0141 43.3518 58.6055 43.5703C29.106 58.7302 37.8681 58.6908 11.708 49.7363C10.9563 49.482 10.1319 49.5796 9.45802 50.0029L1.00294 55.3623C0.801088 55.4919 0.545747 55.4994 0.336926 55.3818C0.128048 55.2641 -0.00142598 55.0396 1.18526e-05 54.7969V40.4131C-0.000384631 40.1605 0.140011 39.9296 0.362317 39.8164L8.28224 35.7949C9.73999 35.0538 11.3474 34.6676 12.9776 34.667H18.3828ZM58.0205 0C60.1951 5.96875e-05 61.958 1.7909 61.958 4V25.333C61.958 27.5421 60.1951 29.3329 58.0205 29.333H21.2705C19.0959 29.333 17.333 27.5421 17.333 25.333V4C17.333 1.79086 19.0959 0 21.2705 0H58.0205ZM23.2471 5.33301C22.8847 5.33304 22.5908 5.63183 22.5908 6V23.333C22.5908 23.7012 22.8847 24 23.2471 24H56.0518C56.4142 23.9999 56.708 23.7012 56.708 23.333L56.7158 6C56.7158 5.63185 56.422 5.33307 56.0596 5.33301H23.2471ZM39.6533 9.33301C42.5528 9.33304 44.9033 11.7215 44.9033 14.667C44.9032 17.6123 42.5527 20 39.6533 20C36.7539 20 34.4035 17.6124 34.4033 14.667C34.4033 11.7215 36.7538 9.33301 39.6533 9.33301Z" fill="currentColor"/>
</svg>
