<svg width="67" height="36" viewBox="0 0 66.375 35.3437" fill="none" xmlns="http://www.w3.org/2000/svg">
<path d="M29.1375 10.4948C25.0875 10.4948 21.2625 11.5073 17.8875 13.3073L13.3875 8.80732C18.5625 4.98232 24.75 2.61981 31.6125 2.28231V10.6073C30.7125 10.4948 29.925 10.4948 29.1375 10.4948ZM55.575 10.8323L47.475 18.9323C50.625 22.6448 52.65 27.2573 53.2125 32.3198H66.375C65.5875 23.8823 61.5375 16.3448 55.575 10.8323ZM0 32.3198H5.0625C5.7375 25.2323 9.45 19.0448 14.9625 14.9948L10.8 10.8323C4.8375 16.3448 0.7875 23.8823 0 32.3198ZM52.9875 8.80732L30.7125 33.8948C30.6 34.0073 30.4875 34.1198 30.375 34.2323C30.375 34.3448 30.2625 34.3448 30.15 34.3448C28.6875 35.6948 26.325 35.6948 24.75 34.2323C23.2875 32.7698 23.175 30.4073 24.525 28.8323C24.525 28.7198 24.6375 28.7198 24.75 28.6073C24.8625 28.4948 24.975 28.3823 25.0875 28.2698L41.2875 13.7573C39.2625 12.5198 37.125 11.6198 34.7625 11.0573V2.16982C40.1625 2.39482 45.1125 3.96982 49.5 6.44482L56.3625 0.369816C56.925 -0.192684 57.825 -0.0801837 58.3875 0.482316C58.95 1.04482 58.95 1.94482 58.5 2.50732L52.9875 8.80732ZM29.025 29.9573C28.2375 29.1698 27 29.1698 26.2125 29.9573C25.425 30.7448 25.425 31.9823 26.2125 32.7698C27 33.5573 28.2375 33.5573 29.025 32.7698C29.8125 32.0948 29.8125 30.7448 29.025 29.9573Z" fill="currentColor"/>
</svg>
