<svg width="24" height="24" viewBox="0 0 24 24" fill="none" xmlns="http://www.w3.org/2000/svg">
<path fill-rule="evenodd" clip-rule="evenodd" d="M6.455 19L2 22.5V4C2 3.44772 2.44772 3 3 3H21C21.5523 3 22 3.44772 22 4V18C22 18.5523 21.5523 19 21 19H6.455ZM11 14V16H13V14H11ZM10.5289 9.20609L8.56689 8.81309C8.92874 7.0055 10.6306 5.78844 12.4581 6.03035C14.2856 6.27227 15.6122 7.89022 15.4913 9.72969C15.3703 11.5692 13.8433 12.9995 11.9999 13.0001H10.9999V11.0001H11.9999C12.79 11 13.4447 10.387 13.4966 9.59859C13.5485 8.81014 12.9798 8.11664 12.1965 8.01304C11.4131 7.90943 10.6838 8.43126 10.5289 9.20609Z" fill="#242C33"/>
</svg>
