<svg width="24" height="24" viewBox="0 0 24 24" fill="none" xmlns="http://www.w3.org/2000/svg">
<path fill-rule="evenodd" clip-rule="evenodd" d="M12 22C6.477 22 2 17.523 2 12C2 6.477 6.477 2 12 2C17.523 2 22 6.477 22 12C22 17.523 17.523 22 12 22ZM11.9999 19.9999C16.4182 19.9999 19.9999 16.4182 19.9999 11.9999C19.9999 7.5816 16.4182 3.99988 11.9999 3.99988C7.5816 3.99988 3.99988 7.5816 3.99988 11.9999C3.99988 16.4182 7.5816 19.9999 11.9999 19.9999ZM6.76001 11.7571L11.003 16.0001L18.074 8.92914L16.659 7.51514L11.003 13.1721L8.17401 10.3431L6.76001 11.7571Z" fill="#D4D7D9"/>
</svg>
