<svg width="80" height="80" viewBox="0 0 80 80" fill="none" xmlns="http://www.w3.org/2000/svg">
<path fill-rule="evenodd" clip-rule="evenodd" d="M54.6666 55.8512V44.7401L56.4896 44.2808C57.1422 44.1157 57.5999 43.5233 57.5999 42.8438V41.7771C57.5999 41.368 57.2716 41.0364 56.8666 41.0364H54.1166L50.9808 32.589C50.5516 31.4322 49.4568 30.6659 48.2338 30.666H31.766C30.543 30.6659 29.4482 31.4322 29.019 32.589L25.8832 41.0364H23.1332C22.7282 41.0364 22.3999 41.368 22.3999 41.7771V42.8438C22.3999 43.5233 22.8576 44.1157 23.5102 44.2808L25.3332 44.7401V55.8512C25.3332 56.6694 25.9899 57.3327 26.7999 57.3327H28.2666C29.0766 57.3327 29.7332 56.6694 29.7332 55.8512V54.3697H50.2666V55.8512C50.2666 56.6694 50.9232 57.3327 51.7332 57.3327H53.1999C54.0099 57.3327 54.6666 56.6694 54.6666 55.8512ZM28.2666 49.9253V46.9623C31.6663 46.9623 33.9572 48.0793 35.1379 50.3164C35.2595 50.5458 35.253 50.8228 35.1208 51.0461C34.9887 51.2694 34.7502 51.4063 34.4926 51.4068H29.7332C28.9232 51.4068 28.2666 50.7435 28.2666 49.9253ZM51.7332 46.9623C48.335 46.9623 46.044 48.0808 44.8604 50.3164C44.7387 50.546 44.7454 50.8233 44.8779 51.0467C45.0104 51.2702 45.2494 51.4069 45.5072 51.4068H50.2666C51.0766 51.4068 51.7332 50.7435 51.7332 49.9253V46.9623ZM28.9106 40.5683L31.2001 33.6291H48.8001L51.0895 40.5683C51.2384 41.0199 51.1635 41.5162 50.8881 41.9024C50.6127 42.2886 50.1703 42.5176 49.6991 42.518H30.301C29.8298 42.5176 29.3875 42.2886 29.1121 41.9024C28.8367 41.5162 28.7617 41.0199 28.9106 40.5683Z" fill="#242C33"/>
<path fill-rule="evenodd" clip-rule="evenodd" d="M40 30.666L48 20.666H32L40 30.666Z" fill="#242C33"/>
<circle cx="40" cy="40" r="39.5" stroke="#313D47"/>
</svg>
