<svg width="80" height="80" viewBox="0 0 80 80" fill="none" xmlns="http://www.w3.org/2000/svg">
<circle cx="40" cy="40" r="40" fill="#666B70"/>
<path fill-rule="evenodd" clip-rule="evenodd" d="M28.3333 56.6673H51.6666C54.428 56.6673 56.6666 54.4287 56.6666 51.6673V36.6673H49.9999V25.0007C49.9999 24.0802 49.2537 23.334 48.3333 23.334H24.9999C24.0794 23.334 23.3333 24.0802 23.3333 25.0007V51.6673C23.3333 54.4287 25.5718 56.6673 28.3333 56.6673ZM49.9999 51.6673V40.0007H53.3333V51.6673C53.3333 52.5878 52.5871 53.334 51.6666 53.334C50.7461 53.334 49.9999 52.5878 49.9999 51.6673ZM28.3333 30.0007V40.0007H38.3333V30.0007H28.3333ZM28.3333 45.0007V41.6673H44.9999V45.0007H28.3333ZM28.3333 46.6673V50.0007H44.9999V46.6673H28.3333ZM34.9999 33.334H31.6666V36.6673H34.9999V33.334Z" fill="white"/>
</svg>
