<svg width="24" height="24" viewBox="0 0 24 24" fill="none" xmlns="http://www.w3.org/2000/svg">
<circle cx="9.79475" cy="14.1932" r="8.06185" stroke="#242C33" stroke-width="1.46579"/>
<circle cx="9.79471" cy="14.1923" r="3.66448" stroke="#242C33" stroke-width="1.46579"/>
<circle cx="2.93158" cy="2.93158" r="2.19869" transform="matrix(1 0 0 -1 6.86279 17.123)" fill="#242C33" stroke="#242C33" stroke-width="1.46579"/>
<path d="M9.81227 13.8638L14.0232 1.23022C14.0676 1.09627 14.191 1.00435 14.3321 1.00014C14.4731 0.995936 14.6018 1.08034 14.6541 1.21141L17.0008 7.07842L22.9464 10.0512C23.0703 10.1131 23.1435 10.2448 23.1307 10.3827C23.1179 10.5206 23.0218 10.6366 22.8886 10.6747L10.2228 14.2938C10.1028 14.3279 9.97386 14.2929 9.88775 14.2027C9.80165 14.1125 9.77259 13.982 9.81227 13.8638Z" fill="#242C33" stroke="white" stroke-width="1.46579"/>
</svg>
