<svg width="24" height="24" viewBox="0 0 24 24" fill="none" xmlns="http://www.w3.org/2000/svg">
<path fill-rule="evenodd" clip-rule="evenodd" d="M18.031 16.617L22.314 20.899L20.899 22.314L16.617 18.031C15.0237 19.3082 13.042 20.0029 11 20C6.032 20 2 15.968 2 11C2 6.032 6.032 2 11 2C15.968 2 20 6.032 20 11C20.0029 13.042 19.3082 15.0237 18.031 16.617ZM16.025 15.875C17.2941 14.5699 18.0029 12.8204 18 11C18 7.132 14.867 4 11 4C7.132 4 4 7.132 4 11C4 14.867 7.132 18 11 18C12.8204 18.0029 14.5699 17.2941 15.875 16.025L16.025 15.875Z" fill="#242C33"/>
<path d="M13.3346 6.76758C14.9088 6.76758 16.1845 8.06301 16.1845 9.87662C16.1845 13.5038 12.2982 15.5765 11.0028 16.3538C9.70734 15.5765 5.82104 13.5038 5.82104 9.87662C5.82104 8.06301 7.11648 6.76758 8.671 6.76758C9.6348 6.76758 10.4846 7.67109 11.0028 8.18926C11.5209 7.67109 12.3707 6.76758 13.3346 6.76758Z" fill="#242C33"/>
</svg>
