<svg width="24" height="24" viewBox="0 0 24 24" fill="none" xmlns="http://www.w3.org/2000/svg">
<path fill-rule="evenodd" clip-rule="evenodd" d="M7.19996 14.5273C8.65537 14.6061 10.0516 15.1297 11.2 16.0273H14.7C15.2522 16.0273 15.7 16.4751 15.7 17.0273C15.7 17.5796 15.2522 18.0273 14.7 18.0273H10.7C10.4239 18.0274 10.2 18.2512 10.2 18.5273C10.2 18.8035 10.4239 19.0273 10.7 19.0273H14.7C15.4863 19.0239 16.1982 18.56 16.5183 17.8418C16.5467 17.7749 16.6019 17.7226 16.6707 17.6992L20.1892 16.5264H20.2C21.0275 16.2511 21.9392 16.4303 22.6003 16.999C22.7391 17.1071 22.8132 17.2789 22.7976 17.4541C22.782 17.6291 22.6787 17.7843 22.5232 17.8662C11.2852 23.5512 14.6229 23.5367 4.65699 20.1787C4.37062 20.0834 4.05628 20.1196 3.79957 20.2783L0.578862 22.2881C0.501929 22.3367 0.404526 22.3401 0.324956 22.2959C0.24541 22.2517 0.196478 22.1672 0.197026 22.0762V16.6826C0.19684 16.5879 0.250042 16.5005 0.334721 16.458L3.3523 14.9502C3.90763 14.6723 4.52038 14.5275 5.14136 14.5273H7.19996ZM22.2996 1.52734C23.128 1.52734 23.7996 2.19892 23.7996 3.02734V11.0273C23.7996 11.8558 23.128 12.5273 22.2996 12.5273H8.29957C7.47135 12.5271 6.79957 11.8556 6.79957 11.0273V3.02734C6.79957 2.19907 7.47135 1.5276 8.29957 1.52734H22.2996ZM9.0525 3.52734C8.91467 3.52764 8.8025 3.63945 8.8025 3.77734V10.2773C8.8025 10.4152 8.91467 10.5271 9.0525 10.5273H21.5496C21.6876 10.5273 21.7996 10.4154 21.7996 10.2773L21.8025 3.77734C21.8025 3.63927 21.6906 3.52734 21.5525 3.52734H9.0525ZM15.3035 5.02734C16.4078 5.02758 17.3035 5.92292 17.3035 7.02734C17.3035 8.13177 16.4078 9.02711 15.3035 9.02734C14.1989 9.02734 13.3035 8.13191 13.3035 7.02734C13.3035 5.92277 14.1989 5.02734 15.3035 5.02734Z" fill="#242C33"/>
</svg>
