<svg width="73" height="73" viewBox="0 0 73 73" fill="none" xmlns="http://www.w3.org/2000/svg">
<g filter="url(#filter0_d_7729_104608)">
<ellipse cx="36.1511" cy="34.4996" rx="27.3913" ry="27.1304" fill="white"/>
</g>
<path fill-rule="evenodd" clip-rule="evenodd" d="M49.4842 45.3659V35.3659L51.1415 34.9526C51.7348 34.8039 52.1509 34.2708 52.1509 33.6592V32.6992C52.1509 32.331 51.8524 32.0326 51.4842 32.0326H48.9842L46.1335 24.4299C45.7433 23.3888 44.748 22.6991 43.6362 22.6992H28.6655C27.5537 22.6991 26.5585 23.3888 26.1682 24.4299L23.3175 32.0326H20.8175C20.4494 32.0326 20.1509 32.331 20.1509 32.6992V33.6592C20.1509 34.2708 20.567 34.8039 21.1602 34.9526L22.8175 35.3659V45.3659C22.8175 46.1023 23.4145 46.6992 24.1509 46.6992H25.4842C26.2206 46.6992 26.8175 46.1023 26.8175 45.3659V44.0326H45.4842V45.3659C45.4842 46.1023 46.0812 46.6992 46.8175 46.6992H48.1509C48.8873 46.6992 49.4842 46.1023 49.4842 45.3659ZM25.4842 40.0326V37.3659C28.5749 37.3659 30.6575 38.3712 31.7309 40.3846C31.8414 40.591 31.8355 40.8403 31.7154 41.0413C31.5952 41.2423 31.3784 41.3655 31.1442 41.3659H26.8175C26.0812 41.3659 25.4842 40.7689 25.4842 40.0326ZM46.8175 37.3659C43.7282 37.3659 41.6455 38.3726 40.5695 40.3846C40.4589 40.5912 40.4649 40.8408 40.5854 41.0419C40.7059 41.243 40.9231 41.366 41.1575 41.3659H45.4842C46.2206 41.3659 46.8175 40.7689 46.8175 40.0326V37.3659ZM26.0695 31.6112L28.1509 25.3659H44.1509L46.2322 31.6112C46.3676 32.0176 46.2994 32.4643 46.0491 32.8119C45.7987 33.1595 45.3966 33.3656 44.9682 33.3659H27.3335C26.9052 33.3656 26.5031 33.1595 26.2527 32.8119C26.0023 32.4643 25.9342 32.0176 26.0695 31.6112Z" fill="#242C33"/>
<g filter="url(#filter1_d_7729_104608)">
<circle cx="36.5" cy="34.5" r="30.5" stroke="#313D47" stroke-dasharray="4 12"/>
</g>
<defs>
<filter id="filter0_d_7729_104608" x="2.75977" y="3.36914" width="66.7827" height="66.2617" filterUnits="userSpaceOnUse" color-interpolation-filters="sRGB">
<feFlood flood-opacity="0" result="BackgroundImageFix"/>
<feColorMatrix in="SourceAlpha" type="matrix" values="0 0 0 0 0 0 0 0 0 0 0 0 0 0 0 0 0 0 127 0" result="hardAlpha"/>
<feMorphology radius="1" operator="dilate" in="SourceAlpha" result="effect1_dropShadow_7729_104608"/>
<feOffset dy="2"/>
<feGaussianBlur stdDeviation="2.5"/>
<feColorMatrix type="matrix" values="0 0 0 0 0 0 0 0 0 0 0 0 0 0 0 0 0 0 0.06 0"/>
<feBlend mode="normal" in2="BackgroundImageFix" result="effect1_dropShadow_7729_104608"/>
<feBlend mode="normal" in="SourceGraphic" in2="effect1_dropShadow_7729_104608" result="shape"/>
</filter>
<filter id="filter1_d_7729_104608" x="0" y="0" width="73" height="73" filterUnits="userSpaceOnUse" color-interpolation-filters="sRGB">
<feFlood flood-opacity="0" result="BackgroundImageFix"/>
<feColorMatrix in="SourceAlpha" type="matrix" values="0 0 0 0 0 0 0 0 0 0 0 0 0 0 0 0 0 0 127 0" result="hardAlpha"/>
<feMorphology radius="0.5" operator="dilate" in="SourceAlpha" result="effect1_dropShadow_7729_104608"/>
<feOffset dy="2"/>
<feGaussianBlur stdDeviation="2.5"/>
<feColorMatrix type="matrix" values="0 0 0 0 0 0 0 0 0 0 0 0 0 0 0 0 0 0 0.06 0"/>
<feBlend mode="normal" in2="BackgroundImageFix" result="effect1_dropShadow_7729_104608"/>
<feBlend mode="normal" in="SourceGraphic" in2="effect1_dropShadow_7729_104608" result="shape"/>
</filter>
</defs>
</svg>
