<svg width="24" height="24" viewBox="0 0 24 24" fill="none" xmlns="http://www.w3.org/2000/svg">
<path fill-rule="evenodd" clip-rule="evenodd" d="M12.7938 11.2066C12.9857 11.3884 13.2304 11.4793 13.5281 11.4793C13.7993 11.4793 14.0209 11.3868 14.1929 11.2017L16.9713 8.40496L19.2834 5.98512L19.0849 9.04959V9.78347C19.0849 10.0612 19.1759 10.2893 19.3578 10.4678C19.5397 10.6463 19.7663 10.7355 20.0375 10.7355C20.3087 10.7355 20.5369 10.6446 20.7222 10.4628C20.9074 10.281 21 10.0545 21 9.78347V4.61653C21 4.10744 20.8578 3.71074 20.5733 3.42645C20.2889 3.14215 19.8886 3 19.3727 3H14.1731C13.8953 3 13.6637 3.08926 13.4785 3.26777C13.2933 3.44628 13.2007 3.67769 13.2007 3.96198C13.2007 4.23306 13.2933 4.4562 13.4785 4.6314C13.6637 4.80661 13.8953 4.89421 14.1731 4.89421H14.9173L18.0132 4.70579L15.5921 7.00661L12.7938 9.79339C12.7012 9.89256 12.6301 10 12.5805 10.1157C12.5309 10.2314 12.5061 10.3587 12.5061 10.4975C12.5061 10.7884 12.602 11.0248 12.7938 11.2066ZM3.42689 20.5736C3.71134 20.8578 4.11156 21 4.62755 21H9.83703C10.1149 21 10.3447 20.9091 10.5267 20.7273C10.7086 20.5455 10.7995 20.3157 10.7995 20.038C10.7995 19.7603 10.7086 19.5339 10.5267 19.3587C10.3447 19.1835 10.1149 19.0959 9.83703 19.0959H9.0829L5.98697 19.2942L8.41807 16.9835L11.2064 14.1967C11.299 14.1041 11.3701 13.9983 11.4197 13.8793C11.4693 13.7603 11.4941 13.6314 11.4941 13.4926C11.4941 13.2017 11.3982 12.9653 11.2064 12.7835C11.0145 12.6017 10.7731 12.5107 10.482 12.5107C10.2108 12.5107 9.98587 12.6066 9.80726 12.7983L7.03879 15.595L4.71685 18.0248L4.91531 14.9405V14.2165C4.91531 13.9388 4.826 13.7091 4.64739 13.5273C4.46878 13.3455 4.24386 13.2545 3.97264 13.2545C3.6948 13.2545 3.46327 13.3471 3.27804 13.5322C3.09282 13.7174 3.00021 13.9455 3.00021 14.2165V19.3835C3.00021 19.8926 3.14243 20.2893 3.42689 20.5736Z" fill="#242C33"/>
</svg>
