<svg width="24" height="24" viewBox="0 0 24 24" fill="none" xmlns="http://www.w3.org/2000/svg">
<path fill-rule="evenodd" clip-rule="evenodd" d="M20 3C20.552 3 21 3.448 21 4V5.757L19 7.757V5H5V13.1L9 9.1L13.328 13.429L12.001 14.756L11.995 18.995L16.241 19.001L17.571 17.671L18.899 19H19V16.242L21 14.242V20C21 20.552 20.552 21 20 21H4C3.448 21 3 20.552 3 20V4C3 3.448 3.448 3 4 3H20ZM21.778 7.808L23.192 9.222L15.414 17L13.998 16.998L14 15.586L21.778 7.808ZM17 8.5C17 7.672 16.328 7 15.5 7C14.672 7 14 7.672 14 8.5C14 9.328 14.672 10 15.5 10C16.328 10 17 9.328 17 8.5Z" fill="#242C33"/>
</svg>
