<svg width="24" height="24" viewBox="0 0 24 24" fill="none" xmlns="http://www.w3.org/2000/svg">
<path fill-rule="evenodd" clip-rule="evenodd" d="M21.008 3C21.556 3 22 3.445 22 3.993V13.342C21.3576 13.1151 20.6813 12.9994 20 13V5H4L4.001 19L13.293 9.707C13.6488 9.35003 14.2148 9.31401 14.613 9.623L14.706 9.708L18.252 13.258C16.6852 13.7354 15.3816 14.8323 14.6432 16.2944C13.9049 17.7565 13.7961 19.4567 14.342 21.001L2.992 21C2.44397 20.9994 2 20.555 2 20.007V3.993C2.00381 3.44656 2.44556 3.00436 2.992 3H21.008ZM21 15V18H24V20H21V23H19V20H16V18H19V15H21ZM10 9C10 7.89543 9.10457 7 8 7C6.89543 7 6 7.89543 6 9C6 10.1046 6.89543 11 8 11C9.10457 11 10 10.1046 10 9Z" fill="#242C33"/>
</svg>
