<svg width="80" height="80" viewBox="0 0 80 80" fill="none" xmlns="http://www.w3.org/2000/svg">
<circle cx="40" cy="40" r="40" fill="#666B70"/>
<path fill-rule="evenodd" clip-rule="evenodd" d="M51.6666 56.6673H28.3333C25.5718 56.6673 23.3333 54.4287 23.3333 51.6673V25.0007C23.3333 24.0802 24.0794 23.334 24.9999 23.334H48.3333C49.2537 23.334 49.9999 24.0802 49.9999 25.0007V45.0007H56.6666V51.6673C56.6666 54.4287 54.428 56.6673 51.6666 56.6673ZM49.9999 48.334V51.6673C49.9999 52.5878 50.7461 53.334 51.6666 53.334C52.5871 53.334 53.3333 52.5878 53.3333 51.6673V48.334H49.9999ZM29.9999 35.0007V31.6673H43.3333V35.0007H29.9999ZM29.9999 38.334V41.6673H43.3333V38.334H29.9999ZM29.9999 48.334V45.0007H38.3333V48.334H29.9999Z" fill="white"/>
</svg>
