<svg width="24" height="24" viewBox="0 0 24 24" fill="none" xmlns="http://www.w3.org/2000/svg">
<path fill-rule="evenodd" clip-rule="evenodd" d="M12 22C6.477 22 2 17.523 2 12C2 6.477 6.477 2 12 2C17.523 2 22 6.477 22 12C22 17.523 17.523 22 12 22ZM12 20C16.4183 20 20 16.4183 20 12C20 7.58172 16.4183 4 12 4C7.58172 4 4 7.58172 4 12C4 16.4183 7.58172 20 12 20ZM14 14H8.5V16H11V18H13V16H14C15.3807 16 16.5 14.8807 16.5 13.5C16.5 12.1193 15.3807 11 14 11H10C9.72386 11 9.5 10.7761 9.5 10.5C9.5 10.2239 9.72386 10 10 10H15.5V8H13V6H11V8H10C8.61929 8 7.5 9.11929 7.5 10.5C7.5 11.8807 8.61929 13 10 13H14C14.2761 13 14.5 13.2239 14.5 13.5C14.5 13.7761 14.2761 14 14 14Z" fill="#242C33"/>
</svg>
