<svg width="768" height="500" viewBox="0 0 768 500" fill="none" xmlns="http://www.w3.org/2000/svg">
<g id="Property 1=Variant4">
<g id="Frame 331">
<g id="Scene Illustration">
<rect id="Mask" x="0.773438" width="766" height="500" rx="18.7401" fill="#F5F4F3"/>
<mask id="mask0_8528_6649" style="mask-type:luminance" maskUnits="userSpaceOnUse" x="0" y="0" width="767" height="500">
<rect id="Mask_2" x="0.773438" width="766" height="500" rx="18.7401" fill="white"/>
</mask>
<g mask="url(#mask0_8528_6649)">
<ellipse id="Ellipse 318" cx="372.175" cy="412.979" rx="330.673" ry="331.366" fill="#EBDDB9"/>
<g id="Group 1892">
<path id="Fill 8" fill-rule="evenodd" clip-rule="evenodd" d="M782.802 499.999H-25.0823V467.883H782.802V499.999Z" fill="#666B70"/>
<g id="Group 70">
<path id="Fill 10" fill-rule="evenodd" clip-rule="evenodd" d="M342.954 441.674L361.74 443.247L475.158 448.192L498.726 450.428L838.409 448.424L994.362 441.674L1011.47 386.052L957.138 335.133H394.732L337.323 370.955L342.954 441.674Z" fill="black"/>
<path id="Fill 11" fill-rule="evenodd" clip-rule="evenodd" d="M1069.3 374.43C1069.3 374.43 1058.68 369.727 1061.03 356.795C1063.4 343.86 1059.85 332.103 1059.85 332.103C1059.85 332.103 1058.68 317.993 1062.81 300.354C1066.94 282.719 1055.13 278.015 1055.13 278.015C1051.59 272.137 1006.36 236.096 1006.36 236.096C1006.36 236.096 1033.5 227.474 1015.4 221.99C997.312 216.502 924.936 207.095 924.936 207.095C813.234 198.472 736.142 193.773 669.279 207.095C602.416 220.42 517.849 287.041 511.95 289.395C506.05 291.744 494.642 294.098 494.642 294.098C356.983 305.07 328.008 321.241 309.719 328.881C291.431 336.522 288.773 354.744 288.773 354.744L288.078 382.662C283.358 385.012 283.358 392.657 283.358 392.657C283.358 392.657 286.182 421.461 288.149 435.961C290.115 450.462 338.496 444.974 338.496 444.974L347.163 445.553C347.163 445.553 346.772 427.173 347.673 416.757C347.673 416.757 344.132 361.495 419.068 353.267C494.004 345.035 494.004 425.577 494.004 425.577C494.004 425.577 491.743 451.44 497.005 455.556H834.778C846.578 455.556 845.394 444.68 845.394 444.68C845.095 415.977 849.09 404.102 854.928 392.069C866.912 367.377 904.879 350.137 942.244 359.149C1002.95 373.795 989.05 434.984 988.46 439.687C987.871 444.386 991.606 446.131 991.606 446.131L993.771 445.995C993.771 445.995 1041.57 438.513 1055.72 432.634C1069.89 426.752 1072.25 423.815 1076.97 400.885C1081.69 377.959 1069.3 374.43 1069.3 374.43Z" fill="#62A744"/>
<path id="Fill 12" fill-rule="evenodd" clip-rule="evenodd" d="M1076.97 400.884C1079.2 390.017 1077.6 383.512 1075.29 379.668C1075.38 379.996 1080.84 401.103 998.1 403.825C998.1 403.825 986.692 346.796 930.049 347.97C930.049 347.97 876.943 345.621 856.881 372.663C836.819 399.709 839.182 418.518 839.182 418.518C839.182 418.518 530.832 425.769 503.3 426.553C503.3 426.553 501.334 348.567 433.287 345.086C433.287 345.086 393.56 339.554 361.246 366.333C361.246 366.333 334.827 391.284 340.005 426.163C340.005 426.163 321.712 421.46 315.812 432.042C309.913 442.623 289.117 438.569 289.117 438.569C296.274 449.76 338.496 444.973 338.496 444.973L347.167 445.552C347.167 445.552 346.772 427.167 347.673 416.756C347.673 416.756 344.136 361.494 419.072 353.266C494.009 345.034 494.009 425.576 494.009 425.576C494.009 425.576 491.743 451.434 497.005 455.555H834.778C846.577 455.555 845.398 444.679 845.398 444.679C845.095 415.972 849.09 404.101 854.928 392.068C866.912 367.372 904.879 350.136 942.248 359.148C1002.96 373.794 989.054 434.979 988.46 439.682C987.871 444.386 991.606 446.13 991.606 446.13L993.775 445.99C993.775 445.99 1041.57 438.507 1055.73 432.629C1069.89 426.751 1072.25 423.814 1076.97 400.884Z" fill="#222222"/>
<path id="Fill 13" fill-rule="evenodd" clip-rule="evenodd" d="M830.685 450.428C820.953 447.491 789.739 438.29 779.33 437.939C766.941 437.523 564.913 440.17 564.913 440.17C564.913 440.17 537.381 440.17 522.436 449.091V450.428" fill="#343434"/>
<path id="Fill 14" fill-rule="evenodd" clip-rule="evenodd" d="M491.207 362.468C582.751 344.618 838.413 332.108 891.211 332.428L882.465 349.751C882.465 349.751 850.212 357.589 838.413 394.428C838.413 394.428 744.013 376.898 543.42 386.59C543.42 386.59 570.248 407.359 590.305 412.063C590.305 412.063 557.238 425.419 512.346 426.353C512.346 426.353 509.988 384.074 491.207 362.468Z" fill="#306700"/>
<path id="Fill 15" fill-rule="evenodd" clip-rule="evenodd" d="M582.355 409.547C582.355 409.547 795.835 401.526 812.795 390.922C812.795 390.922 833.12 393.1 838.413 394.424L830.617 418.726C830.617 418.726 531.994 425.701 517.648 426.13C517.648 426.13 582.747 416.048 582.355 409.547Z" fill="#306700"/>
<path id="Fill 16" fill-rule="evenodd" clip-rule="evenodd" d="M368.39 324.664C368.39 324.664 378.615 331.362 380.581 334.676C382.548 337.99 389.631 322.315 480.88 317.611C480.88 317.611 423.063 310.164 368.39 324.664Z" fill="#306700"/>
<path id="Fill 17" fill-rule="evenodd" clip-rule="evenodd" d="M289.116 403.285L293.392 431.809C293.392 431.809 304.602 434.763 311.681 426.351C318.764 417.935 307.554 406.779 307.554 406.779C307.554 406.779 294.228 407.511 289.116 403.285Z" fill="#222222"/>
<path id="Fill 18" fill-rule="evenodd" clip-rule="evenodd" d="M319.411 368.861C309.913 365.609 303.719 368.133 299.442 362.461C299.442 362.461 294.858 361.129 288.681 358.512L288.083 382.66C283.362 385.01 283.362 392.655 283.362 392.655C283.362 392.655 283.525 394.307 283.798 397.012C286.547 398.384 288.426 399.287 288.426 399.287C288.426 399.287 299.557 404.262 307.819 402.474C316.077 400.69 320.406 418.697 320.406 418.697C320.406 418.697 329.055 417.505 333.384 418.697C333.384 418.697 330.947 389.946 354.387 363.18C354.387 363.18 328.91 372.114 319.411 368.861Z" fill="#306700"/>
<path id="Fill 19" fill-rule="evenodd" clip-rule="evenodd" d="M484.634 433.152C484.634 468.663 455.743 497.445 420.107 497.445C384.467 497.445 355.576 468.663 355.576 433.152C355.576 397.641 384.467 368.859 420.107 368.859C455.743 368.859 484.634 397.641 484.634 433.152Z" fill="#121615"/>
<path id="Fill 20" fill-rule="evenodd" clip-rule="evenodd" d="M421.371 376.307C424.499 376.373 427.561 376.693 430.549 377.245L432.427 367.825C428.833 367.159 425.142 366.777 421.371 366.707V376.307Z" fill="#121615"/>
<path id="Fill 21" fill-rule="evenodd" clip-rule="evenodd" d="M388.131 386.042C390.652 384.341 393.318 382.838 396.103 381.549L392.411 372.668C389.041 374.202 385.821 376.008 382.777 378.06L388.131 386.042Z" fill="#121615"/>
<path id="Fill 22" fill-rule="evenodd" clip-rule="evenodd" d="M409.665 377.245C412.648 376.697 415.714 376.377 418.838 376.307V366.707C415.068 366.777 411.376 367.159 407.786 367.829L409.665 377.245Z" fill="#121615"/>
<path id="Fill 23" fill-rule="evenodd" clip-rule="evenodd" d="M398.423 380.544C401.239 379.391 404.169 378.453 407.192 377.756L405.309 368.336C401.661 369.16 398.129 370.282 394.737 371.672L398.423 380.544Z" fill="#121615"/>
<path id="Fill 24" fill-rule="evenodd" clip-rule="evenodd" d="M364.034 397.142L372.045 402.477C373.677 399.947 375.503 397.554 377.505 395.323L370.677 388.52C368.235 391.202 366.013 394.087 364.034 397.142Z" fill="#121615"/>
<path id="Fill 25" fill-rule="evenodd" clip-rule="evenodd" d="M363.842 423.56C364.344 420.636 365.061 417.783 365.994 415.03L357.076 411.348C355.91 414.679 355.008 418.133 354.388 421.688L363.842 423.56Z" fill="#121615"/>
<path id="Fill 26" fill-rule="evenodd" clip-rule="evenodd" d="M366.857 412.654C367.939 409.866 369.233 407.188 370.724 404.632L362.699 399.293C360.865 402.37 359.272 405.605 357.948 408.976L366.857 412.654Z" fill="#121615"/>
<path id="Fill 27" fill-rule="evenodd" clip-rule="evenodd" d="M469.487 404.636C470.978 407.192 472.272 409.87 473.354 412.658L482.258 408.98C480.939 405.61 479.346 402.37 477.511 399.293L469.487 404.636Z" fill="#121615"/>
<path id="Fill 28" fill-rule="evenodd" clip-rule="evenodd" d="M374.764 467.695L366.735 473.039C368.786 475.757 371.038 478.308 373.471 480.679L380.281 473.889C378.297 471.96 376.454 469.891 374.764 467.695Z" fill="#121615"/>
<path id="Fill 29" fill-rule="evenodd" clip-rule="evenodd" d="M465.449 467.695C463.759 469.891 461.916 471.96 459.932 473.889L466.742 480.679C469.175 478.308 471.432 475.757 473.478 473.039L465.449 467.695Z" fill="#121615"/>
<path id="Fill 30" fill-rule="evenodd" clip-rule="evenodd" d="M363.031 433.158C363.031 430.751 363.18 428.38 363.475 426.052L354.003 424.176C353.607 427.113 353.396 430.111 353.396 433.158C353.396 433.684 353.405 434.21 353.418 434.736H363.053C363.04 434.21 363.031 433.684 363.031 433.158Z" fill="#121615"/>
<path id="Fill 31" fill-rule="evenodd" clip-rule="evenodd" d="M447.799 372.676L444.108 381.557C446.893 382.845 449.559 384.349 452.08 386.05L457.434 378.063C454.394 376.016 451.169 374.21 447.799 372.676Z" fill="#121615"/>
<path id="Fill 32" fill-rule="evenodd" clip-rule="evenodd" d="M433.021 377.756C436.044 378.453 438.97 379.391 441.79 380.544L445.476 371.676C442.084 370.282 438.552 369.16 434.9 368.336L433.021 377.756Z" fill="#121615"/>
<path id="Fill 33" fill-rule="evenodd" clip-rule="evenodd" d="M364.438 445.74C363.813 442.983 363.386 440.147 363.179 437.254H353.527C353.742 440.787 354.235 444.25 354.983 447.612L364.438 445.74Z" fill="#121615"/>
<path id="Fill 34" fill-rule="evenodd" clip-rule="evenodd" d="M462.714 395.326C464.716 397.562 466.542 399.951 468.17 402.48L476.186 397.145C474.206 394.09 471.98 391.21 469.538 388.527L462.714 395.326Z" fill="#121615"/>
<path id="Fill 35" fill-rule="evenodd" clip-rule="evenodd" d="M483.134 411.348L474.216 415.03C475.145 417.783 475.866 420.636 476.363 423.56L485.822 421.688C485.202 418.133 484.296 414.683 483.134 411.348Z" fill="#121615"/>
<path id="Fill 36" fill-rule="evenodd" clip-rule="evenodd" d="M477.027 437.254C476.82 440.147 476.398 442.983 475.773 445.74L485.223 447.612C485.975 444.25 486.464 440.787 486.684 437.254H477.027Z" fill="#121615"/>
<path id="Fill 37" fill-rule="evenodd" clip-rule="evenodd" d="M449.41 481.961C447.078 483.355 444.641 484.582 442.111 485.639L445.802 494.511C448.917 493.213 451.913 491.688 454.768 489.956L449.41 481.961Z" fill="#121615"/>
<path id="Fill 38" fill-rule="evenodd" clip-rule="evenodd" d="M471.231 458.457C469.977 460.969 468.543 463.375 466.942 465.659L474.957 470.994C476.906 468.193 478.649 465.234 480.158 462.139L471.231 458.457Z" fill="#121615"/>
<path id="Fill 39" fill-rule="evenodd" clip-rule="evenodd" d="M458.073 475.609C456.028 477.429 453.845 479.103 451.549 480.62L456.903 488.602C459.723 486.739 462.398 484.67 464.897 482.408L458.073 475.609Z" fill="#121615"/>
<path id="Fill 40" fill-rule="evenodd" clip-rule="evenodd" d="M475.158 448.191C474.401 450.94 473.447 453.609 472.307 456.174L481.212 459.852C482.598 456.709 483.746 453.443 484.63 450.068L475.158 448.191Z" fill="#121615"/>
<path id="Fill 41" fill-rule="evenodd" clip-rule="evenodd" d="M379.225 393.473C381.341 391.308 383.629 389.309 386.066 387.503L380.712 379.512C377.747 381.677 374.975 384.075 372.41 386.683L379.225 393.473Z" fill="#121615"/>
<path id="Fill 42" fill-rule="evenodd" clip-rule="evenodd" d="M454.143 387.503C456.58 389.313 458.868 391.312 460.984 393.478L467.799 386.688C465.239 384.075 462.463 381.677 459.502 379.512L454.143 387.503Z" fill="#121615"/>
<path id="Fill 43" fill-rule="evenodd" clip-rule="evenodd" d="M486.205 424.176L476.733 426.052C477.028 428.38 477.178 430.751 477.178 433.153C477.178 433.684 477.169 434.205 477.156 434.731H486.795C486.804 434.205 486.813 433.679 486.813 433.153C486.813 430.107 486.601 427.113 486.205 424.176Z" fill="#121615"/>
<path id="Fill 44" fill-rule="evenodd" clip-rule="evenodd" d="M388.66 480.615C386.364 479.103 384.182 477.429 382.136 475.609L375.312 482.408C377.811 484.666 380.486 486.735 383.306 488.598L388.66 480.615Z" fill="#121615"/>
<path id="Fill 45" fill-rule="evenodd" clip-rule="evenodd" d="M367.905 456.174C366.761 453.605 365.806 450.94 365.054 448.191L355.577 450.068C356.466 453.438 357.614 456.709 359 459.847L367.905 456.174Z" fill="#121615"/>
<path id="Fill 46" fill-rule="evenodd" clip-rule="evenodd" d="M439.759 486.562C437.23 487.487 434.616 488.233 431.937 488.798L433.816 498.218C437.124 497.53 440.34 496.596 443.451 495.439L439.759 486.562Z" fill="#121615"/>
<path id="Fill 47" fill-rule="evenodd" clip-rule="evenodd" d="M373.269 465.659C371.667 463.375 370.233 460.969 368.979 458.457L360.057 462.139C361.562 465.234 363.304 468.193 365.257 470.994L373.269 465.659Z" fill="#121615"/>
<path id="Fill 48" fill-rule="evenodd" clip-rule="evenodd" d="M398.096 485.639C395.566 484.582 393.129 483.355 390.797 481.961L385.439 489.952C388.294 491.688 391.29 493.213 394.409 494.511L398.096 485.639Z" fill="#121615"/>
<path id="Fill 49" fill-rule="evenodd" clip-rule="evenodd" d="M408.275 488.798C405.596 488.237 402.983 487.487 400.453 486.562L396.762 495.439C399.872 496.596 403.088 497.53 406.397 498.218L408.275 488.798Z" fill="#121615"/>
<path id="Fill 50" fill-rule="evenodd" clip-rule="evenodd" d="M429.449 489.266C426.813 489.7 424.117 489.954 421.367 490.011V499.615C424.759 499.549 428.085 499.234 431.332 498.686L429.449 489.266Z" fill="#121615"/>
<path id="Fill 51" fill-rule="evenodd" clip-rule="evenodd" d="M418.841 490.011C416.096 489.949 413.399 489.695 410.764 489.266L408.881 498.686C412.128 499.234 415.454 499.549 418.841 499.611V490.011Z" fill="#121615"/>
<path id="Fill 52" fill-rule="evenodd" clip-rule="evenodd" d="M481.607 433.16C481.607 467.005 454.07 494.437 420.106 494.437C386.138 494.437 358.602 467.005 358.602 433.16C358.602 399.315 386.138 371.883 420.106 371.883C454.07 371.883 481.607 399.315 481.607 433.16Z" fill="#252525"/>
<path id="Fill 53" fill-rule="evenodd" clip-rule="evenodd" d="M469.374 433.153C469.374 460.265 447.315 482.239 420.108 482.239C392.898 482.239 370.839 460.265 370.839 433.153C370.839 406.041 392.898 384.066 420.108 384.066C447.315 384.066 469.374 406.041 469.374 433.153Z" fill="#1A1A1A"/>
<path id="Fill 54" fill-rule="evenodd" clip-rule="evenodd" d="M434.613 433.156C434.613 441.138 428.115 447.613 420.104 447.613C412.092 447.613 405.594 441.138 405.594 433.156C405.594 425.174 412.092 418.699 420.104 418.699C428.115 418.699 434.613 425.174 434.613 433.156Z" fill="#535353"/>
<path id="Fill 55" fill-rule="evenodd" clip-rule="evenodd" d="M428.83 448.149C431.171 448.149 433.445 449.402 435.245 451.016C438.483 455.018 440.823 459.739 442.561 462.847C444 466.371 443.881 469.716 439.565 472.521C432.609 476.826 425.231 479.153 417.198 478.136C412.939 477.001 414.558 473.897 415.161 471.986C417.919 465.595 419.178 461.352 420.616 456.872C422.772 450.358 425.834 448.206 428.83 448.149ZM403.884 444.981C411.799 444.919 412.881 450.596 411.861 455.194C410.123 459.972 407.184 464.395 405.323 467.442C403.048 470.488 400.11 472.044 395.433 469.769C388.178 465.947 382.481 460.752 379.305 453.34C378.103 449.101 381.641 448.921 383.62 448.505C390.514 447.668 394.892 446.594 399.45 445.515C401.126 445.16 402.626 445.038 403.884 444.981ZM453.237 428.198H457.016C460.79 428.614 463.668 430.289 464.09 435.426C464.57 443.61 463.069 451.137 458.393 457.712C455.335 460.877 453.355 457.949 451.978 456.515C447.658 451.08 444.482 447.91 441.244 444.566C432.911 435.724 437.887 430.766 443.105 428.974C446.58 428.316 450.179 428.198 453.237 428.198ZM384.578 406.568C386.259 406.568 387.456 408.242 388.357 409.259C392.555 414.813 395.669 418.039 398.85 421.507C406.941 430.523 401.908 435.363 396.628 437.037C391.591 437.875 386.259 437.572 382.717 437.515C378.943 437.037 376.122 435.244 375.762 430.107C375.463 421.923 377.143 414.397 382 407.944C382.959 406.988 383.8 406.629 384.578 406.568ZM440.347 395.095C441.543 395.038 442.863 395.398 444.425 396.112C451.68 399.816 457.496 404.954 460.734 412.305C461.992 416.544 458.455 416.785 456.475 417.201C449.581 418.157 445.261 419.292 440.646 420.371C428.772 422.996 427.034 416.246 428.112 410.867C429.854 406.032 432.731 401.609 434.53 398.501C436.088 396.472 437.887 395.095 440.347 395.095ZM419.477 387.572C420.498 387.572 421.457 387.572 422.473 387.691C426.794 388.708 425.175 391.934 424.634 393.788C422.055 400.298 420.854 404.602 419.596 409.082C416.059 420.672 409.284 418.879 405.087 415.232C401.73 411.349 399.271 406.689 397.471 403.585C395.971 400.118 396.033 396.835 400.23 393.845C406.226 389.961 412.583 387.572 419.477 387.572ZM420.138 386.496C394.234 386.496 373.248 407.344 373.248 433.154C373.248 458.903 394.234 479.812 420.138 479.812C445.98 479.812 466.966 458.903 466.966 433.154C466.966 407.344 445.98 386.496 420.138 386.496Z" fill="#E0E0E0"/>
<path id="Fill 56" fill-rule="evenodd" clip-rule="evenodd" d="M420.09 422.205C426.161 422.205 431.079 427.11 431.079 433.155C431.079 439.204 426.161 444.109 420.09 444.109C414.018 444.109 409.1 439.204 409.1 433.155C409.1 427.11 414.018 422.205 420.09 422.205ZM420.091 417.469C411.393 417.469 404.372 424.491 404.372 433.157C404.372 441.828 411.393 448.846 420.091 448.846C428.789 448.846 435.837 441.828 435.837 433.157C435.837 424.491 428.789 417.469 420.091 417.469Z" fill="#1A1A1A"/>
<path id="Fill 57" fill-rule="evenodd" clip-rule="evenodd" d="M421.837 419.575C421.837 420.526 421.062 421.297 420.108 421.297C419.148 421.297 418.374 420.526 418.374 419.575C418.374 418.623 419.148 417.852 420.108 417.852C421.062 417.852 421.837 418.623 421.837 419.575Z" fill="#535353"/>
<path id="Fill 58" fill-rule="evenodd" clip-rule="evenodd" d="M421.837 447.481C421.837 448.432 421.062 449.204 420.108 449.204C419.148 449.204 418.374 448.432 418.374 447.481C418.374 446.53 419.148 445.758 420.108 445.758C421.062 445.758 421.837 446.53 421.837 447.481Z" fill="#535353"/>
<path id="Fill 59" fill-rule="evenodd" clip-rule="evenodd" d="M406.105 431.807C407.059 431.807 407.834 432.578 407.834 433.529C407.834 434.485 407.059 435.256 406.105 435.256C405.15 435.256 404.376 434.485 404.376 433.529C404.376 432.578 405.15 431.807 406.105 431.807Z" fill="#535353"/>
<path id="Fill 60" fill-rule="evenodd" clip-rule="evenodd" d="M434.109 431.807C435.064 431.807 435.838 432.578 435.838 433.529C435.838 434.485 435.064 435.256 434.109 435.256C433.155 435.256 432.38 434.485 432.38 433.529C432.38 432.578 433.155 431.807 434.109 431.807Z" fill="#535353"/>
<path id="Fill 61" fill-rule="evenodd" clip-rule="evenodd" d="M411.427 422.446C412.105 423.121 412.105 424.212 411.427 424.883C410.75 425.558 409.654 425.558 408.981 424.883C408.304 424.212 408.304 423.121 408.981 422.446C409.654 421.771 410.75 421.771 411.427 422.446Z" fill="#535353"/>
<path id="Fill 62" fill-rule="evenodd" clip-rule="evenodd" d="M431.228 442.172C431.906 442.847 431.906 443.939 431.228 444.61C430.551 445.285 429.455 445.285 428.782 444.61C428.105 443.939 428.105 442.847 428.782 442.172C429.455 441.497 430.551 441.497 431.228 442.172Z" fill="#535353"/>
<path id="Fill 63" fill-rule="evenodd" clip-rule="evenodd" d="M428.782 422.446C428.105 423.121 428.105 424.212 428.782 424.883C429.46 425.558 430.555 425.558 431.228 424.883C431.906 424.212 431.906 423.121 431.228 422.446C430.555 421.771 429.46 421.771 428.782 422.446Z" fill="#535353"/>
<path id="Fill 64" fill-rule="evenodd" clip-rule="evenodd" d="M408.981 442.172C408.304 442.847 408.304 443.939 408.981 444.61C409.659 445.285 410.754 445.285 411.427 444.61C412.105 443.939 412.105 442.847 411.427 442.172C410.754 441.497 409.659 441.497 408.981 442.172Z" fill="#535353"/>
<path id="Fill 65" fill-rule="evenodd" clip-rule="evenodd" d="M517.645 297.662C517.645 297.662 579.678 247.466 627.588 226.689C627.588 226.689 636.321 220.569 642.793 214.73C582.027 236.644 517.337 287.347 512.203 289.395C509.132 290.618 504.57 291.841 500.901 292.735L517.645 297.662Z" fill="#252A31"/>
<path id="Fill 66" fill-rule="evenodd" clip-rule="evenodd" d="M312.965 332.998C312.965 332.998 286.713 344.167 307.36 358.861C307.36 358.861 315.618 357.98 320.044 361.508C324.47 365.033 340.99 357.686 340.99 357.686C340.99 357.686 358.095 340.932 369.01 339.17C379.925 337.408 375.204 332.117 364.289 328.882C353.379 325.651 318.667 329.794 312.965 332.998Z" fill="#E5E5E5"/>
<path id="Fill 67" fill-rule="evenodd" clip-rule="evenodd" d="M528.226 298.589C528.226 298.589 612.014 228.041 676.915 218.634C741.82 209.227 857.469 218.634 857.469 218.634C857.469 218.634 910.575 219.221 942.436 236.861C942.436 236.861 964.86 246.579 964.468 256.521C964.468 256.521 962.893 265.726 957.192 270.188C951.683 274.502 927.821 276.72 927.821 276.72C927.821 276.72 908.225 280.091 893.461 280.95C882.603 281.585 812.036 287.42 812.036 287.42C812.036 287.42 758.032 291.137 726.479 293.298C632.11 299.764 557.729 305.712 528.226 298.589Z" fill="#131519"/>
<path id="Fill 68" fill-rule="evenodd" clip-rule="evenodd" d="M549.472 296.239C549.472 296.239 626.467 221.124 722.943 221.431L698.161 290.361C698.161 290.361 572.486 301.53 549.472 296.239Z" fill="#1B1B1B"/>
<path id="Fill 69" fill-rule="evenodd" clip-rule="evenodd" d="M746.353 221.431L741.236 288.008C741.236 288.008 879.304 281.542 883.436 278.601L859.832 225.692C859.832 225.692 811.865 219.726 746.353 221.431Z" fill="#1B1B1B"/>
</g>
<g id="Group 73">
<mask id="mask1_8528_6649" style="mask-type:alpha" maskUnits="userSpaceOnUse" x="652" y="221" width="69" height="73">
<path id="Clip 72" fill-rule="evenodd" clip-rule="evenodd" d="M720.542 228.115L719.644 230.623L666.389 292.943C661.98 293.272 657.268 293.622 652.354 293.964L714.184 221.619C714.972 221.584 715.759 221.553 716.551 221.531C717.915 223.71 719.244 225.897 720.542 228.115Z" fill="white"/>
</mask>
<g mask="url(#mask1_8528_6649)">
<path id="Fill 71" fill-rule="evenodd" clip-rule="evenodd" d="M720.542 228.115L719.644 230.623L666.389 292.943C661.98 293.272 657.268 293.622 652.354 293.964L714.184 221.619C714.972 221.584 715.759 221.553 716.551 221.531C717.915 223.71 719.244 225.897 720.542 228.115Z" fill="url(#paint0_linear_8528_6649)"/>
</g>
</g>
<g id="Group 76">
<mask id="mask2_8528_6649" style="mask-type:alpha" maskUnits="userSpaceOnUse" x="663" y="313" width="22" height="17">
<path id="Clip 75" fill-rule="evenodd" clip-rule="evenodd" d="M684.82 321.228C684.82 325.611 680.042 329.166 674.151 329.166C668.26 329.166 663.487 325.611 663.487 321.228C663.487 316.844 668.26 313.289 674.151 313.289C680.042 313.289 684.82 316.844 684.82 321.228Z" fill="white"/>
</mask>
<g mask="url(#mask2_8528_6649)">
<path id="Fill 74" fill-rule="evenodd" clip-rule="evenodd" d="M684.82 321.228C684.82 325.611 680.042 329.166 674.151 329.166C668.26 329.166 663.487 325.611 663.487 321.228C663.487 316.844 668.26 313.289 674.151 313.289C680.042 313.289 684.82 316.844 684.82 321.228Z" fill="url(#paint1_linear_8528_6649)"/>
</g>
</g>
<g id="Group 79">
<mask id="mask3_8528_6649" style="mask-type:alpha" maskUnits="userSpaceOnUse" x="652" y="316" width="47" height="10">
<path id="Clip 78" fill-rule="evenodd" clip-rule="evenodd" d="M693.029 317.231C693.029 317.231 699.426 316.355 698.088 320.081C697.195 322.566 695.708 322.513 693.227 322.465C691.986 322.443 690.499 322.421 688.713 322.706C683.355 323.587 660.733 325.779 654.934 325.341C649.127 324.902 654.934 320.081 654.934 320.081C667.451 317.503 678.418 316.973 685.334 316.973C690.174 316.973 693.029 317.231 693.029 317.231Z" fill="white"/>
</mask>
<g mask="url(#mask3_8528_6649)">
<path id="Fill 77" fill-rule="evenodd" clip-rule="evenodd" d="M693.029 317.231C693.029 317.231 699.426 316.355 698.088 320.081C697.195 322.566 695.708 322.513 693.227 322.465C691.986 322.443 690.499 322.421 688.713 322.706C683.355 323.587 660.733 325.779 654.934 325.341C649.127 324.902 654.934 320.081 654.934 320.081C667.451 317.503 678.418 316.973 685.334 316.973C690.174 316.973 693.029 317.231 693.029 317.231Z" fill="url(#paint2_linear_8528_6649)"/>
</g>
</g>
<g id="Group 82">
<mask id="mask4_8528_6649" style="mask-type:alpha" maskUnits="userSpaceOnUse" x="654" y="318" width="43" height="7">
<path id="Clip 81" fill-rule="evenodd" clip-rule="evenodd" d="M691.677 318.201C691.677 318.201 697.586 317.526 696.354 320.397C695.527 322.309 694.15 322.269 691.858 322.234C690.709 322.216 689.341 322.195 687.687 322.418C682.738 323.093 661.845 324.781 656.486 324.439C651.123 324.106 656.486 320.397 656.486 320.397C668.052 318.412 678.193 318.004 684.577 318.004C689.046 318.004 691.677 318.201 691.677 318.201Z" fill="white"/>
</mask>
<g mask="url(#mask4_8528_6649)">
<path id="Fill 80" fill-rule="evenodd" clip-rule="evenodd" d="M691.677 318.201C691.677 318.201 697.586 317.526 696.354 320.397C695.527 322.309 694.15 322.269 691.858 322.234C690.709 322.216 689.341 322.195 687.687 322.418C682.738 323.093 661.845 324.781 656.486 324.439C651.123 324.106 656.486 320.397 656.486 320.397C668.052 318.412 678.193 318.004 684.577 318.004C689.046 318.004 691.677 318.201 691.677 318.201Z" fill="url(#paint3_linear_8528_6649)"/>
</g>
</g>
<g id="Group 89">
<g id="Group 85">
<path id="Fill 83" fill-rule="evenodd" clip-rule="evenodd" d="M546.392 298.545C547.14 294.893 548.038 291.763 552.231 285.574C558.737 276.925 567.642 274.392 576.247 271.262C587.395 273.944 591.285 288.182 585.825 296.756C572.433 299.364 559.336 299.439 546.392 298.545Z" fill="#62A744"/>
</g>
<g id="Group 88">
<path id="Fill 86" fill-rule="evenodd" clip-rule="evenodd" d="M546.395 298.546C546.993 295.267 547.143 291.243 550.957 287.512C563.082 290.945 575.726 288.407 587.473 283.488C589.642 291.764 587.398 293.851 585.827 296.757C572.057 299.589 559.188 299.067 546.395 298.546Z" fill="#306700"/>
</g>
</g>
</g>
<g id="Logos / Protections">
<g id="Group">
<path id="Vector" d="M165.674 177.668H161.344L160.637 180.087H157.28L162.051 167.027H165.011L169.871 180.087H166.469L165.674 177.668ZM162.051 175.25H164.879L163.421 170.765L162.051 175.25Z" fill="#313D47"/>
<path id="Vector_2" d="M185.863 167.027V175.602C185.863 176.569 185.642 177.448 185.201 178.152C184.803 178.855 184.229 179.383 183.433 179.779C182.638 180.175 181.71 180.35 180.694 180.35C179.104 180.35 177.823 179.955 176.895 179.119C175.967 178.284 175.525 177.141 175.525 175.734V167.115H178.75V175.821C178.75 177.273 179.457 177.976 180.738 177.976C182.02 177.976 181.931 177.756 182.241 177.448C182.55 177.141 182.771 176.525 182.771 175.69V167.115L185.907 167.027H185.863Z" fill="#313D47"/>
<path id="Vector_3" d="M203.137 169.446H199.205V180.087H196.068V169.446H192.181V167.027H203.137V169.446Z" fill="#313D47"/>
<path id="Vector_4" d="M220.323 173.842C220.323 175.161 220.058 176.26 219.616 177.228C219.174 178.195 218.423 178.986 217.584 179.514C216.744 180.042 215.684 180.306 214.624 180.306C213.564 180.306 212.503 180.042 211.664 179.514C210.824 178.986 210.073 178.283 209.632 177.316C209.19 176.348 208.925 175.293 208.836 174.062V173.358C208.836 172.039 209.101 170.94 209.543 169.972C209.985 169.005 210.736 168.258 211.575 167.686C212.415 167.158 213.475 166.895 214.58 166.895C215.684 166.895 216.7 167.158 217.54 167.686C218.379 168.214 219.13 169.005 219.572 169.885C220.014 170.852 220.279 171.995 220.279 173.226V173.886L220.323 173.842ZM217.098 173.314C217.098 171.995 216.877 171.028 216.435 170.368C215.993 169.709 215.375 169.401 214.535 169.401C212.945 169.401 212.106 170.588 212.061 172.919V173.886C212.061 175.205 212.282 176.172 212.724 176.832C213.166 177.491 213.784 177.887 214.624 177.887C215.463 177.887 216.082 177.579 216.479 176.92C216.877 176.26 217.142 175.293 217.142 173.974V173.314H217.098Z" fill="#313D47"/>
<path id="Vector_5" d="M231.058 167.027L234.018 176.085L236.978 167.027H241.175V180.087H238.038V177.009L238.347 170.765L235.211 180.043H233.002L229.777 170.765L230.086 177.009V180.087H226.949V167.027H231.102H231.058Z" fill="#313D47"/>
<path id="Vector_6" d="M259.2 173.842C259.2 175.161 258.935 176.26 258.493 177.228C258.052 178.195 257.301 178.986 256.461 179.514C255.622 180.042 254.561 180.306 253.501 180.306C252.441 180.306 251.381 180.042 250.541 179.514C249.702 178.986 248.951 178.283 248.509 177.316C248.067 176.348 247.802 175.293 247.714 174.062V173.358C247.714 172.039 247.979 170.94 248.421 169.972C248.862 169.005 249.613 168.258 250.453 167.686C251.292 167.158 252.353 166.895 253.457 166.895C254.561 166.895 255.578 167.158 256.417 167.686C257.256 168.214 258.007 169.005 258.449 169.885C258.891 170.852 259.156 171.995 259.156 173.226V173.886L259.2 173.842ZM255.975 173.314C255.975 171.995 255.754 171.028 255.312 170.368C254.871 169.709 254.252 169.401 253.413 169.401C251.822 169.401 250.983 170.588 250.939 172.919V173.886C250.939 175.205 251.16 176.172 251.601 176.832C252.043 177.491 252.662 177.887 253.501 177.887C254.341 177.887 254.959 177.579 255.357 176.92C255.754 176.26 256.019 175.293 256.019 173.974V173.314H255.975Z" fill="#313D47"/>
<path id="Vector_7" d="M275.325 169.446H271.393V180.087H268.257V169.446H264.369V167.027H275.325V169.446Z" fill="#313D47"/>
<path id="Vector_8" d="M285.045 180.087H281.908V167.027H285.045V180.087Z" fill="#313D47"/>
<path id="Vector_9" d="M297.326 176.569L299.933 167.027H303.467L299.049 180.087H295.559L291.141 167.027H294.631L297.238 176.569H297.326Z" fill="#313D47"/>
<path id="Vector_10" d="M317.516 174.546H312.524V177.668H318.443V180.087H309.387V167.027H318.443V169.446H312.524V172.172H317.516V174.502V174.546Z" fill="#313D47"/>
</g>
<path id="Vector_11" d="M56.7734 77.3203V144.244H96.8877V133.911H67.1554V116.102H89.2447V105.945H67.1554V87.5655H96.4017V77.3203H56.7734Z" fill="#62A60A"/>
<path id="Vector_12" d="M121.937 144.333C108.771 144.333 99.0521 134.088 99.0521 121.468C99.0521 108.849 108.771 98.3398 122.025 98.3398C135.279 98.3398 135.588 101.418 139.741 105.903L133.467 112.674C130.375 109.42 127.106 107.178 121.981 107.178C114.647 107.178 109.257 113.51 109.257 121.293C109.257 129.075 114.691 135.583 122.511 135.583C130.331 135.583 130.861 133.384 133.997 130.087L140.182 136.111C135.72 140.859 130.596 144.289 122.025 144.289" fill="#62A60A"/>
<path id="Vector_13" d="M156.352 144.244H146.191V77.3203H156.352V106.033C159.224 101.856 163.288 98.2504 170.18 98.2504C180.165 98.2504 185.908 104.89 185.908 115.179V144.156H175.747V118.169C175.747 111.31 172.345 107.396 166.248 107.396C160.152 107.396 156.264 111.53 156.264 118.301V144.2H156.352V144.244Z" fill="#62A60A"/>
<path id="Vector_14" d="M215.596 135.497C207.732 135.497 202.077 129.165 202.077 121.382C202.077 113.6 207.246 107.488 215.375 107.488C223.504 107.488 228.938 113.82 228.938 121.602C229.026 129.253 223.769 135.497 215.552 135.497M249.702 98.2979H217.231C216.7 98.2979 216.17 98.2539 215.596 98.2539C202.033 98.2539 191.916 108.719 191.916 121.382C191.916 134.046 201.901 144.247 215.375 144.247C228.85 144.247 239.143 133.782 239.143 121.207C239.143 108.631 237.509 111.269 234.637 107.488H249.658L249.746 98.3419L249.702 98.2979Z" fill="#62A60A"/>
<path id="Vector_15" d="M356.349 109.202V98.2969H346.188V144.202H356.349V126.526C356.349 114.83 362.578 109.114 371.458 109.114H372.032V98.3848C364.212 98.121 359.132 102.606 356.349 109.202Z" fill="#313D47"/>
<path id="Vector_16" d="M313.584 135.54C305.72 135.54 300.065 129.208 300.065 121.425C300.065 113.643 305.234 107.531 313.363 107.531C321.492 107.531 326.926 113.863 326.926 121.645C326.926 129.428 321.757 135.54 313.54 135.54M328.207 98.2969V105.024C325.07 100.891 320.255 98.3848 313.496 98.3848C299.933 98.3848 289.816 108.85 289.816 121.513C289.816 134.177 299.8 144.378 313.319 144.378C326.838 144.378 325.07 141.784 328.207 137.607V144.246H337.396L337.308 98.2969H328.207C328.207 98.3408 328.207 98.3408 328.207 98.3408V98.2969Z" fill="#313D47"/>
<path id="Vector_17" d="M299.933 87.567C299.933 75.6069 291.318 68 277.622 68H254.473V144.245H264.766V77.2778H276.783C284.514 77.2778 289.462 80.8834 289.462 87.7868C289.462 94.6902 284.603 98.2958 276.783 98.2958H269.582V107.574H276.474C289.374 107.574 299.977 100.714 299.977 87.6109" fill="#313D47"/>
<path id="Vector_18" d="M405.873 144.156L409.408 144.244H418.199L393.547 120.104L418.773 97.8107H405.608L387.628 114.036V77.3203H377.511L377.466 144.244H387.628V126.436L405.873 144.156Z" fill="#313D47"/>
<g id="Group_2">
<g id="Group_3">
<path id="Vector_19" d="M90.6138 227.3L108.374 214.856L113.366 218.726L88.7583 234.511L84.0753 230.862L93.5737 203.336L98.5659 207.205L90.6579 227.3H90.6138Z" fill="#313D47"/>
</g>
</g>
<g id="Group_4">
<g id="Group_5">
<path id="Vector_20" d="M107.535 247.846C104.973 246.263 103.382 244.197 102.764 241.647C102.145 239.096 102.631 236.502 104.266 233.908L104.531 233.468C105.635 231.709 106.916 230.39 108.463 229.423C110.009 228.455 111.643 228.016 113.322 228.016C115.045 228.016 116.68 228.543 118.27 229.555C120.656 231.05 122.07 232.94 122.511 235.315C122.953 237.645 122.291 240.196 120.568 242.966L119.375 244.856L108.286 237.953C107.712 239.184 107.623 240.371 107.932 241.515C108.242 242.658 108.993 243.625 110.141 244.329C111.953 245.428 113.72 245.648 115.575 244.988L116.282 248.946C114.957 249.473 113.543 249.693 111.997 249.473C110.451 249.297 108.949 248.726 107.535 247.846ZM115.929 233.248C115.001 232.677 114.073 232.501 113.101 232.764C112.129 233.028 111.202 233.688 110.318 234.743L116.812 238.744L117.033 238.393C117.652 237.337 117.873 236.37 117.696 235.491C117.519 234.611 116.945 233.82 115.929 233.204V233.248Z" fill="#313D47"/>
</g>
</g>
<g id="Group_6">
<g id="Group_7">
<path id="Vector_21" d="M131.834 240.233C133.911 239.309 135.943 239.353 137.931 240.321C141.907 242.299 142.791 245.597 140.537 250.258L134.706 261.998L129.802 259.58L135.589 247.971C136.12 246.916 136.252 246.037 136.075 245.289C135.854 244.542 135.236 243.926 134.176 243.398C132.718 242.695 131.437 242.739 130.2 243.53L123.705 256.546L118.802 254.127L131.746 228.141L136.65 230.559L131.834 240.233Z" fill="#313D47"/>
</g>
</g>
<g id="Group_8">
<g id="Group_9">
<path id="Vector_22" d="M144.954 266.087L139.874 264.02L147.605 245.069L152.686 247.135L144.954 266.087ZM149.284 240.056C149.593 239.309 150.123 238.781 150.83 238.473C151.537 238.209 152.332 238.209 153.216 238.561C154.099 238.913 154.674 239.441 154.983 240.144C155.292 240.848 155.292 241.551 154.983 242.343C154.674 243.134 154.143 243.618 153.437 243.926C152.73 244.233 151.935 244.189 151.051 243.838C150.212 243.486 149.593 242.958 149.284 242.255C148.975 241.551 148.975 240.804 149.284 240.056Z" fill="#313D47"/>
</g>
</g>
<g id="Group_10">
<g id="Group_11">
<path id="Vector_23" d="M159.71 267.054C160.682 267.362 161.521 267.362 162.317 267.054C163.112 266.702 163.642 266.13 163.951 265.251L168.855 266.834C168.413 268.153 167.662 269.252 166.602 270.088C165.542 270.967 164.305 271.495 162.847 271.715C161.433 271.934 159.975 271.803 158.473 271.319C155.69 270.439 153.746 268.813 152.73 266.526C151.714 264.24 151.669 261.557 152.73 258.435L152.862 258.084C153.834 255.094 155.425 252.939 157.589 251.708C159.754 250.433 162.272 250.257 165.056 251.136C167.485 251.928 169.253 253.247 170.269 255.094C171.285 256.94 171.462 259.051 170.711 261.338L165.807 259.755C166.116 258.743 166.072 257.82 165.674 256.984C165.277 256.149 164.57 255.577 163.598 255.27C162.361 254.874 161.3 255.006 160.417 255.709C159.489 256.413 158.738 257.732 158.075 259.711L157.899 260.238C157.236 262.261 157.103 263.8 157.413 264.855C157.722 265.91 158.517 266.658 159.798 267.054H159.71Z" fill="#313D47"/>
</g>
</g>
<g id="Group_12">
<g id="Group_13">
<path id="Vector_24" d="M176.144 275.762L170.799 274.443L177.779 246.258L183.125 247.577L176.144 275.762Z" fill="#313D47"/>
</g>
</g>
<g id="Group_14">
<g id="Group_15">
<path id="Vector_25" d="M191.032 279.104C188.072 278.576 185.819 277.257 184.229 275.146C182.683 273.036 182.153 270.441 182.683 267.407L182.771 266.88C183.124 264.857 183.831 263.098 184.892 261.647C185.952 260.196 187.277 259.141 188.868 258.525C190.458 257.91 192.181 257.778 194.037 258.086C196.82 258.569 198.852 259.8 200.133 261.823C201.414 263.846 201.812 266.44 201.238 269.606L200.84 271.804L187.94 269.606C187.896 270.969 188.249 272.112 188.956 273.036C189.707 273.959 190.723 274.575 192.093 274.794C194.169 275.146 195.936 274.662 197.35 273.387L199.515 276.817C198.499 277.828 197.262 278.532 195.76 278.928C194.257 279.323 192.667 279.367 190.988 279.104H191.032ZM193.241 262.483C192.181 262.307 191.253 262.483 190.458 263.142C189.663 263.758 189.044 264.725 188.647 266.044L196.157 267.319L196.245 266.88C196.422 265.692 196.245 264.681 195.76 263.934C195.229 263.186 194.434 262.702 193.286 262.483H193.241Z" fill="#313D47"/>
</g>
</g>
<g id="Group_16">
<g id="Group_17">
<path id="Vector_26" d="M220.279 272.071L219.925 281.745L214.226 281.525L215.242 254.043L226.022 254.439C228.098 254.527 229.91 254.966 231.456 255.758C233.002 256.549 234.195 257.693 234.99 259.1C235.785 260.507 236.139 262.134 236.095 263.892C236.006 266.575 234.99 268.685 233.09 270.18C231.191 271.675 228.584 272.335 225.315 272.247L220.323 272.071H220.279ZM220.411 267.498L225.492 267.674C226.994 267.718 228.142 267.41 228.982 266.75C229.821 266.091 230.219 265.08 230.263 263.76C230.307 262.397 229.954 261.298 229.203 260.463C228.452 259.627 227.347 259.144 225.934 259.056L220.72 258.88L220.411 267.498Z" fill="#313D47"/>
</g>
</g>
<g id="Group_18">
<g id="Group_19">
<path id="Vector_27" d="M251.029 265.907C250.278 265.863 249.615 265.863 249.041 265.907C246.964 266.039 245.683 266.831 245.109 268.282L246.036 281.605L240.558 282.001L239.1 261.598L244.269 261.246L244.578 263.665C245.55 261.73 247.008 260.675 248.952 260.543C249.571 260.543 250.145 260.543 250.675 260.675L250.984 265.907H251.029Z" fill="#313D47"/>
</g>
</g>
<g id="Group_20">
<g id="Group_21">
<path id="Vector_28" d="M253.236 270.751C252.927 268.728 253.059 266.881 253.59 265.21C254.12 263.539 255.048 262.132 256.373 261.077C257.698 259.978 259.333 259.318 261.233 259.01C263.972 258.571 266.357 259.098 268.345 260.505C270.333 261.912 271.659 264.023 272.277 266.881L272.542 268.244C273.028 271.322 272.542 273.96 271.084 276.115C269.626 278.269 267.462 279.545 264.502 279.984C261.586 280.424 259.112 279.852 257.08 278.269C255.048 276.687 253.766 274.268 253.28 271.058V270.794L253.236 270.751ZM258.714 270.311C259.024 272.246 259.598 273.653 260.481 274.532C261.365 275.455 262.47 275.807 263.839 275.587C265.164 275.367 266.092 274.708 266.666 273.609C267.241 272.509 267.373 270.838 267.02 268.64C266.711 266.749 266.136 265.342 265.253 264.419C264.369 263.495 263.221 263.144 261.895 263.363C260.57 263.583 259.642 264.243 259.068 265.386C258.493 266.529 258.405 268.156 258.714 270.311Z" fill="#313D47"/>
</g>
</g>
<g id="Group_22">
<g id="Group_23">
<path id="Vector_29" d="M278.727 250.781L279.876 255.662L283.277 254.871L284.205 258.784L280.803 259.575L283.145 269.513C283.321 270.26 283.587 270.744 283.94 271.008C284.293 271.272 284.868 271.316 285.663 271.096C286.237 270.964 286.767 270.788 287.209 270.612L288.137 274.657C287.165 275.229 286.105 275.625 285 275.889C281.245 276.768 278.904 275.317 277.932 271.579L275.413 260.851L272.498 261.51L271.57 257.597L274.486 256.937L273.337 252.056L278.683 250.825L278.727 250.781Z" fill="#313D47"/>
</g>
</g>
<g id="Group_24">
<g id="Group_25">
<path id="Vector_30" d="M301.215 271.326C298.343 272.249 295.737 272.074 293.351 270.886C291.01 269.699 289.331 267.633 288.403 264.73L288.226 264.247C287.608 262.268 287.431 260.421 287.696 258.619C287.961 256.816 288.668 255.321 289.817 254.046C290.965 252.77 292.423 251.847 294.19 251.275C296.885 250.44 299.227 250.616 301.303 251.803C303.38 252.99 304.882 255.145 305.898 258.223L306.56 260.333L294.102 264.247C294.676 265.478 295.516 266.313 296.62 266.841C297.725 267.325 298.918 267.369 300.199 266.973C302.231 266.357 303.556 265.126 304.219 263.323L307.709 265.39C307.267 266.753 306.472 267.94 305.323 268.996C304.175 270.051 302.805 270.798 301.171 271.326H301.215ZM295.56 255.497C294.5 255.804 293.793 256.42 293.351 257.343C292.909 258.267 292.821 259.366 293.042 260.729L300.331 258.443L300.199 258.047C299.801 256.904 299.227 256.112 298.387 255.673C297.592 255.233 296.62 255.189 295.516 255.541L295.56 255.497Z" fill="#313D47"/>
</g>
</g>
<g id="Group_26">
<g id="Group_27">
<path id="Vector_31" d="M319.679 259.843C320.607 259.447 321.27 258.876 321.623 258.128C321.977 257.381 322.021 256.589 321.667 255.71L326.394 253.731C326.925 255.006 327.057 256.326 326.836 257.689C326.615 259.052 325.997 260.239 325.069 261.338C324.141 262.437 322.904 263.273 321.491 263.888C318.796 265.032 316.278 265.076 313.98 264.02C311.683 262.965 309.916 260.942 308.635 257.908L308.502 257.557C307.265 254.655 307.088 252.016 307.884 249.642C308.723 247.268 310.446 245.509 313.185 244.366C315.571 243.354 317.735 243.266 319.723 243.97C321.712 244.717 323.214 246.212 324.186 248.411L319.458 250.389C319.017 249.422 318.398 248.763 317.559 248.367C316.719 248.015 315.836 248.015 314.864 248.411C313.671 248.894 312.964 249.686 312.743 250.829C312.522 251.928 312.787 253.467 313.583 255.358L313.804 255.886C314.643 257.821 315.526 259.096 316.454 259.711C317.426 260.327 318.486 260.371 319.723 259.843H319.679Z" fill="#313D47"/>
</g>
</g>
<g id="Group_28">
<g id="Group_29">
<path id="Vector_32" d="M326.926 232.715L329.224 237.2L332.36 235.617L334.216 239.179L331.079 240.761L335.762 249.819C336.115 250.479 336.469 250.919 336.911 251.051C337.308 251.227 337.883 251.095 338.634 250.743C339.164 250.479 339.65 250.171 340.003 249.907L341.903 253.601C341.108 254.392 340.18 255.052 339.164 255.536C335.762 257.294 333.111 256.459 331.256 253.073L326.175 243.268L323.524 244.631L321.669 241.069L324.32 239.706L322.022 235.221L326.882 232.715H326.926Z" fill="#313D47"/>
</g>
</g>
<g id="Group_30">
<g id="Group_31">
<path id="Vector_33" d="M332.007 229.682C331.609 228.979 331.477 228.275 331.697 227.528C331.918 226.78 332.404 226.209 333.244 225.725C334.039 225.241 334.834 225.109 335.585 225.285C336.336 225.461 336.911 225.901 337.352 226.604C337.794 227.308 337.882 228.055 337.662 228.803C337.441 229.55 336.955 230.166 336.16 230.606C335.364 231.089 334.569 231.221 333.818 231.045C333.067 230.87 332.493 230.43 332.051 229.726L332.007 229.682ZM350.12 248.898L345.393 251.668L334.967 234.035L339.694 231.265L350.12 248.898Z" fill="#313D47"/>
</g>
</g>
<g id="Group_32">
<g id="Group_33">
<path id="Vector_34" d="M348.528 237.9C347.38 236.229 346.629 234.514 346.364 232.799C346.099 231.04 346.364 229.413 347.026 227.83C347.733 226.291 348.882 224.928 350.472 223.829C352.77 222.246 355.067 221.675 357.497 222.07C359.882 222.466 362.003 223.785 363.858 226.028L364.698 227.171C366.509 229.765 367.216 232.315 366.863 234.866C366.509 237.416 365.095 239.527 362.666 241.241C360.236 242.912 357.762 243.484 355.199 242.956C352.637 242.429 350.472 240.802 348.617 238.12L348.484 237.9H348.528ZM353.256 235.086C354.36 236.669 355.509 237.68 356.702 238.12C357.894 238.559 359.043 238.383 360.192 237.592C361.296 236.844 361.826 235.833 361.87 234.558C361.915 233.283 361.296 231.744 360.015 229.941C358.91 228.358 357.762 227.391 356.569 226.951C355.376 226.511 354.183 226.687 353.079 227.435C351.974 228.182 351.444 229.194 351.4 230.469C351.4 231.744 352.019 233.283 353.256 235.042V235.086Z" fill="#313D47"/>
</g>
</g>
<g id="Group_34">
<g id="Group_35">
<path id="Vector_35" d="M364.566 213.721L366.245 215.392C366.156 213.062 367.04 211.083 368.939 209.5C370.574 208.093 372.253 207.521 373.887 207.785C375.522 208.049 377.201 209.148 378.88 211.039L387.539 221.064L383.386 224.626L374.815 214.733C374.064 213.853 373.313 213.369 372.606 213.325C371.899 213.237 371.06 213.589 370.176 214.381C369.028 215.392 368.542 216.623 368.851 218.118L378.305 229.023L374.152 232.585L360.766 217.107L364.698 213.765L364.566 213.721Z" fill="#313D47"/>
</g>
</g>
<path id="Vector_36" d="M394.387 214.291C393.636 215.038 392.708 215.434 391.648 215.434C390.587 215.434 389.66 215.038 388.908 214.291C388.157 213.543 387.804 212.62 387.804 211.565C387.804 210.509 388.202 209.586 388.953 208.839C389.704 208.091 390.631 207.695 391.692 207.695C392.752 207.695 393.68 208.047 394.431 208.839C395.182 209.586 395.579 210.509 395.579 211.565C395.579 212.62 395.182 213.543 394.431 214.291H394.387ZM389.262 209.19C388.599 209.85 388.29 210.597 388.29 211.521C388.29 212.444 388.599 213.236 389.262 213.895C389.925 214.555 390.676 214.863 391.603 214.863C392.531 214.863 393.326 214.555 393.945 213.895C394.608 213.236 394.917 212.444 394.917 211.521C394.917 210.597 394.608 209.806 393.945 209.19C393.282 208.531 392.531 208.223 391.603 208.223C390.676 208.223 389.88 208.531 389.262 209.19ZM391.559 209.41C392.089 209.41 392.487 209.454 392.708 209.542C393.15 209.718 393.371 210.07 393.371 210.597C393.371 211.125 393.238 211.257 392.973 211.433C392.84 211.521 392.619 211.609 392.354 211.653C392.708 211.697 392.929 211.829 393.105 212.048C393.238 212.268 393.326 212.488 393.326 212.708V213.016C393.326 213.104 393.326 213.236 393.326 213.324C393.326 213.411 393.326 213.499 393.326 213.543C393.326 213.587 392.619 213.587 392.619 213.587C392.619 213.587 392.619 213.587 392.619 213.543V213.412V213.06C392.619 212.576 392.487 212.268 392.222 212.092C392.045 212.004 391.78 211.96 391.382 211.96H390.808V213.631H390.057V209.41H391.559ZM392.354 210.07C392.178 209.982 391.868 209.894 391.427 209.894H390.764V211.433H391.427C391.736 211.433 392.001 211.433 392.134 211.345C392.443 211.213 392.575 210.993 392.575 210.685C392.575 210.378 392.487 210.158 392.31 210.07H392.354Z" fill="#313D47"/>
</g>
</g>
</g>
</g>
</g>
<defs>
<linearGradient id="paint0_linear_8528_6649" x1="652.356" y1="220.209" x2="722.944" y2="220.209" gradientUnits="userSpaceOnUse">
<stop stop-color="#1F212D"/>
<stop offset="1" stop-color="#242A2F"/>
</linearGradient>
<linearGradient id="paint1_linear_8528_6649" x1="663.484" y1="313.287" x2="684.819" y2="313.287" gradientUnits="userSpaceOnUse">
<stop stop-color="#1F212D"/>
<stop offset="1" stop-color="#242A2F"/>
</linearGradient>
<linearGradient id="paint2_linear_8528_6649" x1="652.353" y1="316.971" x2="698.271" y2="316.971" gradientUnits="userSpaceOnUse">
<stop stop-color="#1F212D"/>
<stop offset="1" stop-color="#242A2F"/>
</linearGradient>
<linearGradient id="paint3_linear_8528_6649" x1="654.101" y1="318.005" x2="696.521" y2="318.005" gradientUnits="userSpaceOnUse">
<stop stop-color="#1F212D"/>
<stop offset="1" stop-color="#242A2F"/>
</linearGradient>
</defs>
</svg>
