<svg width="766" height="502" viewBox="0 0 766 502" fill="none" xmlns="http://www.w3.org/2000/svg">
<g id="Property 1=PersonDriving">
<rect id="Mask" width="766" height="500.669" rx="18.4578" fill="#F5F4F3"/>
<mask id="mask0_7403_83456" style="mask-type:luminance" maskUnits="userSpaceOnUse" x="0" y="0" width="766" height="501">
<rect id="Mask_2" width="766" height="500.669" rx="18.4578" fill="white"/>
</mask>
<g mask="url(#mask0_7403_83456)">
<g id="Group 238">
<path id="Fill 1" fill-rule="evenodd" clip-rule="evenodd" d="M0 500.669H766V0H0V500.669Z" fill="#F5F4F3"/>
<g id="Group 233">
<path id="Fill 2" fill-rule="evenodd" clip-rule="evenodd" d="M239.655 447.168H205.711L439.523 81.2109L465.797 93.213L239.655 447.168Z" fill="white"/>
<g id="Group 6">
<mask id="mask1_7403_83456" style="mask-type:luminance" maskUnits="userSpaceOnUse" x="21" y="40" width="362" height="461">
<path id="Clip 5" fill-rule="evenodd" clip-rule="evenodd" d="M21.9902 40.4102H382.03V500.668H21.9902V40.4102Z" fill="white"/>
</mask>
<g mask="url(#mask1_7403_83456)">
<path id="Fill 4" fill-rule="evenodd" clip-rule="evenodd" d="M89.2542 520.968L21.9902 521.106L329.108 40.4102L382.03 62.7179L89.2542 520.968Z" fill="white"/>
</g>
</g>
<g id="Group 9">
<mask id="mask2_7403_83456" style="mask-type:luminance" maskUnits="userSpaceOnUse" x="0" y="0" width="766" height="501">
<path id="Clip 8" fill-rule="evenodd" clip-rule="evenodd" d="M0 0H766V500.669H0V0Z" fill="white"/>
</mask>
<g mask="url(#mask2_7403_83456)">
<path id="Fill 7" fill-rule="evenodd" clip-rule="evenodd" d="M731.789 320.467H138.667L94.1731 68.146C87.7991 31.9878 129.031 2.12988 173.367 10.7614C310.887 37.5312 570.987 102.68 731.789 233.953V320.467ZM-81.7927 -26.9531V595.719H870.715V221.447C767.557 114.205 338.979 -26.9471 338.979 -26.9471L-81.7927 -26.9531Z" fill="#D4D7D9"/>
</g>
</g>
<path id="Fill 10" fill-rule="evenodd" clip-rule="evenodd" d="M428.25 270.522C429.624 267.606 429.362 259.114 427.412 257.833C424.19 255.714 418.756 258.371 418.002 261.163C416.876 265.335 428.25 270.522 428.25 270.522Z" fill="#B3856A"/>
<path id="Fill 12" fill-rule="evenodd" clip-rule="evenodd" d="M486.154 321.526L433.236 302.309L439.072 286.996L491.99 306.214L486.154 321.526Z" fill="#313D47"/>
<g id="Group 16">
<mask id="mask3_7403_83456" style="mask-type:luminance" maskUnits="userSpaceOnUse" x="408" y="232" width="359" height="269">
<path id="Clip 15" fill-rule="evenodd" clip-rule="evenodd" d="M408.745 232.953H766V500.667H408.745V232.953Z" fill="white"/>
</mask>
<g mask="url(#mask3_7403_83456)">
<path id="Fill 14" fill-rule="evenodd" clip-rule="evenodd" d="M870.715 595.718H577.415L408.745 429.283L493.901 305.77C493.901 265.555 527.299 232.953 568.497 232.953H870.715V595.718Z" fill="#A2A6AB"/>
</g>
</g>
<path id="Fill 17" fill-rule="evenodd" clip-rule="evenodd" d="M511.43 278.328C513.346 279.924 515.336 281.52 517.33 283.08C535.09 296.959 542.11 320.324 534.22 341.154C534.092 341.49 533.962 341.829 533.83 342.165C522.892 370.115 489.664 382.848 461.93 370.117C459.566 369.031 457.19 367.964 454.844 366.942L511.43 278.328Z" fill="#313D47"/>
<g id="Group 21">
<mask id="mask4_7403_83456" style="mask-type:luminance" maskUnits="userSpaceOnUse" x="0" y="79" width="28" height="132">
<path id="Clip 20" fill-rule="evenodd" clip-rule="evenodd" d="M0 79.2109H27.9462V210.829H0V79.2109Z" fill="white"/>
</mask>
<g mask="url(#mask4_7403_83456)">
<path id="Fill 19" fill-rule="evenodd" clip-rule="evenodd" d="M-30.8317 210.829L-81.7917 210.216V79.2109H-49.3557C-8.20374 79.2109 26.4603 110.631 27.8963 150.779C27.9283 151.666 27.9463 152.559 27.9463 153.454C27.9463 185.14 1.62825 210.829 -30.8317 210.829Z" fill="#A2A6AB"/>
</g>
</g>
<g id="Group 24">
<mask id="mask5_7403_83456" style="mask-type:luminance" maskUnits="userSpaceOnUse" x="231" y="429" width="347" height="72">
<path id="Clip 23" fill-rule="evenodd" clip-rule="evenodd" d="M231.31 429.285H577.414V500.67H231.31V429.285Z" fill="white"/>
</mask>
<g mask="url(#mask5_7403_83456)">
<path id="Fill 22" fill-rule="evenodd" clip-rule="evenodd" d="M269.688 481.517C314.19 442.521 419.052 427.793 440.948 429.403C467.41 431.35 478.438 446.384 497.832 468.441C497.832 468.441 520.278 462.926 532.626 467.66C566.128 480.501 573.59 554.418 577.414 595.719H235.196C217.542 550.257 265.534 485.158 269.688 481.517Z" fill="#F4F5F7"/>
</g>
</g>
<path id="Fill 25" fill-rule="evenodd" clip-rule="evenodd" d="M425.52 380.038C427.028 380.229 434.462 378.164 447.004 364.205C459.086 350.755 471.292 331.413 481.368 309.74C491.444 288.067 498.322 266.366 500.736 248.635C503.242 230.226 499.938 223.405 498.802 222.424C497.296 222.248 489.858 224.298 477.314 238.259C465.232 251.707 453.028 271.049 442.954 292.722C432.878 314.395 425.998 336.096 423.582 353.827C421.076 372.236 424.382 379.059 425.52 380.038ZM425.562 401.843C422.382 401.843 419.282 401.217 416.29 399.891C407.366 395.937 397.49 384.688 401.132 353.545C403.504 333.228 411.14 308.429 422.628 283.716C444.722 236.2 480.868 190.541 508.032 202.571C516.956 206.524 526.828 217.776 523.19 248.917C520.814 269.236 513.18 294.035 501.692 318.746C482.032 361.029 451.242 401.843 425.562 401.843Z" fill="#313D47"/>
<path id="Fill 27" fill-rule="evenodd" clip-rule="evenodd" d="M414.252 226.8C419.152 225.434 425.06 225.165 438.348 221.042C458.468 214.795 460.626 204.091 478.338 196.351C487.884 192.177 501.03 200.729 501.03 200.729C490.134 204.548 479.654 212.639 479.538 217.529C479.338 225.922 498.748 222.356 498.748 222.356C501.28 224.108 501.464 231.742 501.464 231.742C497.558 239.901 480.986 250.758 467.042 250.906C437.824 251.212 431.648 261.446 420.852 265.641C420.852 265.641 411.596 261.46 409.254 248.661C406.754 234.996 414.252 226.8 414.252 226.8Z" fill="#DDB78C"/>
<path id="Fill 29" fill-rule="evenodd" clip-rule="evenodd" d="M395.957 397.488C399.855 396.535 406.619 393.182 408.143 391.999C418.115 384.24 419.789 376.222 432.449 362.159C433.931 360.511 436.613 358.29 440.647 356.449C446.461 353.798 452.025 353.369 455.171 354.24L451.549 358.88L446.983 364.788C446.965 366.627 449.399 367.418 450.019 367.624C458.409 370.388 470.837 367.752 477.635 359.485C479.541 357.168 482.159 354.224 482.159 354.224C486.799 360.963 482.579 371.333 482.579 371.333C483.685 373.993 482.563 377.323 482.037 378.751C480.025 384.214 473.939 389.682 473.939 389.682C475.587 397.011 472.339 401.099 472.339 401.099C472.065 407.221 469.187 409.47 468.539 410.077C462.955 415.312 452.495 415.923 437.847 417.591C431.849 418.276 410.111 433.238 400.807 438.086L395.957 397.488Z" fill="#DDB78C"/>
<path id="Fill 31" fill-rule="evenodd" clip-rule="evenodd" d="M85.8828 258.681C95.5848 263.031 134.107 290.69 146.867 279.209L142.249 189L79.7968 188.754C79.7968 188.754 77.5968 194.267 77.1468 202.745C76.4408 215.948 70.1428 229.588 63.8928 244.58C63.2408 246.149 84.2868 257.966 85.8828 258.681Z" fill="#DDB78C"/>
<path id="Fill 33" fill-rule="evenodd" clip-rule="evenodd" d="M144.684 236.56L144.088 224.937C144.088 224.937 114.182 212.682 103.99 197.891C103.99 197.891 115.002 230.368 144.684 236.56Z" fill="#8F695D"/>
<path id="Fill 35" fill-rule="evenodd" clip-rule="evenodd" d="M72.844 181.264C72.844 181.264 88.834 181.21 94.18 167.726C94.252 167.539 118.708 93.2142 146.808 94.1454C180.106 95.2489 193.708 105.469 195.26 136.316C195.918 149.399 202.236 154.734 208.396 161.345C210.812 163.941 208.074 168.665 204.102 167.816L199.268 167.461C198.176 167.381 197.21 168.13 197.056 169.158C195.808 177.611 193.824 185.459 190.834 192.349C183.562 209.097 168.022 229.799 149.95 223.316C103.424 206.626 72.844 181.264 72.844 181.264Z" fill="#DDB78C"/>
<path id="Fill 37" fill-rule="evenodd" clip-rule="evenodd" d="M182.563 152.143C181.543 153.539 179.715 153.756 178.479 152.628C177.245 151.499 177.071 149.454 178.091 148.058C179.109 146.662 180.939 146.446 182.173 147.575C183.409 148.703 183.583 150.75 182.563 152.143Z" fill="#242C33"/>
<path id="Fill 39" fill-rule="evenodd" clip-rule="evenodd" d="M162.695 140.921C165.767 139.866 170.217 137.649 175.247 136.436C178.813 135.576 182.161 135.739 187.765 134.863C192.839 134.072 193.391 128.164 188.077 127.93C183.923 127.744 177.927 128.629 170.937 131.191C165.223 133.285 161.763 135.993 159.577 137.381C155.439 140.01 158.179 142.472 162.695 140.921Z" fill="#925953"/>
<path id="Fill 41" fill-rule="evenodd" clip-rule="evenodd" d="M192.704 187.555C192.484 188.178 192.036 189.423 191.788 190.036C191.684 190.292 191.496 190.799 191.306 191.24C191.126 191.654 190.932 192.125 190.932 192.125C177.652 191.804 176.322 181.016 178.3 182.4C185.144 187.188 192.704 187.555 192.704 187.555Z" fill="white"/>
<path id="Fill 43" fill-rule="evenodd" clip-rule="evenodd" d="M132.721 148.557C132.679 148.423 132.629 148.307 132.589 148.169C132.589 148.169 120.291 151.834 118.731 158.613C118.521 159.522 118.305 160.431 118.085 161.336C117.905 164.096 117.541 166.832 117.005 169.543C117.051 169.663 117.061 169.802 117.007 169.946C116.953 170.082 116.805 170.14 116.669 170.132C116.641 170.13 116.611 170.128 116.585 170.126C116.581 170.126 116.577 170.12 116.573 170.118C116.583 170.224 116.581 170.328 116.545 170.434C116.519 170.532 116.497 170.631 116.471 170.731C116.411 170.977 116.349 171.223 116.287 171.47C116.161 171.962 116.031 172.453 115.899 172.944C115.665 173.803 115.421 174.66 115.163 175.515C114.593 177.412 113.959 179.292 113.273 181.153C113.165 181.449 112.699 181.363 112.661 181.067L112.515 179.975C111.713 182.184 110.911 184.393 110.107 186.602C110.013 186.862 109.621 186.83 109.515 186.596C109.477 186.506 109.437 186.416 109.399 186.328C108.859 187.479 108.449 188.671 108.187 189.922C108.119 190.243 107.729 190.267 107.573 189.996C107.303 189.53 107.033 189.061 106.763 188.593L106.371 191.034C106.331 191.28 105.951 191.42 105.797 191.178L105.251 190.321C104.993 191.144 104.811 191.977 104.761 192.848C104.743 193.171 104.265 193.193 104.147 192.922C103.943 192.464 103.691 192.051 103.411 191.651C103.159 192.378 102.909 193.107 102.657 193.834C102.571 194.08 102.147 194.08 102.065 193.828C102.013 193.675 101.965 193.523 101.915 193.369C101.217 194.549 100.451 195.684 99.5787 196.748C99.3687 197.006 99.0347 196.814 99.0147 196.535C98.3607 197.286 97.7087 198.037 97.0567 198.786C96.8887 198.98 96.6247 198.916 96.5087 198.71C96.1007 198.001 95.5907 197.378 95.0007 196.812C94.5927 197.296 94.3327 197.837 94.2347 198.486C94.1827 198.816 93.7667 198.82 93.6207 198.56C93.3387 198.067 92.9607 197.683 92.5227 197.338C92.3587 197.705 92.2367 198.073 92.1847 198.49C92.1587 198.708 91.8487 198.86 91.6707 198.692C90.9667 198.033 90.2047 197.456 89.4027 196.928L89.2887 197.945C89.2607 198.225 88.8887 198.29 88.7167 198.089C88.5067 197.841 88.2687 197.639 88.0187 197.452C87.9047 197.985 87.8547 198.512 87.9167 199.073C87.9547 199.439 87.4667 199.541 87.3007 199.231C86.9107 198.502 86.4247 197.845 85.8927 197.216C85.8107 198.766 85.7267 200.316 85.6447 201.866C85.6267 202.203 85.1607 202.195 85.0287 201.94C84.2627 200.448 83.4947 198.952 82.7267 197.458C82.6527 198.256 82.6267 199.055 82.7087 199.862C82.7427 200.21 82.2347 200.36 82.0947 200.022C81.4987 198.592 80.9027 197.162 80.3047 195.732C80.1867 196.593 80.0687 197.454 79.9487 198.316C79.9127 198.59 79.5487 198.668 79.3767 198.46C78.2407 197.094 77.5007 195.496 77.1687 193.792L76.7807 194.925C76.6747 195.237 76.2227 195.119 76.1687 194.839C75.8567 193.265 75.6027 191.681 75.3787 190.093C75.0887 190.675 74.8447 191.276 74.6967 191.921C74.6227 192.249 74.1047 192.288 74.0607 191.917C73.8727 190.351 73.5347 188.815 73.1027 187.297C72.9987 187.561 72.8947 187.824 72.7907 188.086C72.6547 188.426 72.0867 188.264 72.1827 187.86C72.0567 186.818 71.9527 185.957 71.8287 184.918C67.1367 177.994 65.6607 169.497 63.8887 161.506C63.7307 161.837 63.5727 162.167 63.4147 162.498C63.2827 162.774 62.8427 162.73 62.8007 162.414C62.4007 159.366 62.2227 156.301 62.2387 153.233C62.1107 153.223 61.9867 153.141 61.9447 152.979C61.2787 150.446 60.6147 147.912 59.9487 145.379L59.6327 146.276C59.5307 146.562 59.0327 146.5 59.0187 146.192C58.9007 143.627 58.7807 141.061 58.6647 138.496L58.3307 139.349C58.2227 139.625 57.7267 139.579 57.7167 139.265C57.6507 137.32 57.5867 135.374 57.5207 133.429L57.4287 130.665C57.4107 130.155 57.3927 129.642 57.3747 129.131C57.3747 129.083 57.3707 129.033 57.3707 128.985C57.3147 128.695 57.2527 128.404 57.1987 128.116C57.0267 128.146 56.8307 128.072 56.8087 127.87C56.6387 126.161 56.5487 124.449 56.5207 122.737C55.6907 111.369 58.6927 100.577 63.7887 91.0183C64.5567 87.6618 66.3347 84.3934 66.3847 80.9248C66.3907 80.6525 66.8127 80.5643 66.9587 80.7786C67.3847 81.4035 67.6827 82.0723 67.8767 82.7753C68.9067 79.8454 70.8267 77.32 72.3627 74.6204C73.2387 73.0823 74.0127 71.4482 74.2947 69.6958C74.6587 67.4408 74.0467 65.2619 73.3887 63.111C73.2987 62.8146 73.6047 62.5563 73.8827 62.7465C75.9847 64.1865 77.6347 66.125 78.7707 68.354C78.6267 65.4321 77.0207 62.7465 75.4967 60.2732C75.3447 60.0269 75.5587 59.6464 75.8767 59.7966C78.3427 60.9642 80.5887 62.4902 82.5867 64.3166C82.5267 62.5262 82.0027 60.7939 80.9987 59.2759C80.7967 58.9715 81.1427 58.6431 81.4507 58.8413C82.5647 59.5583 83.5267 60.4435 84.4467 61.3747C84.2147 60.4655 83.9807 59.5583 83.7607 58.6451C83.6127 58.0443 83.4947 57.103 84.4127 57.099C84.7627 57.095 85.0727 57.3013 85.3467 57.4915C85.9007 57.88 86.4227 58.3246 86.9567 58.7372C87.8947 59.4642 88.8347 60.1891 89.7707 60.9161C89.6787 58.631 88.4387 56.5643 87.2387 54.6437C87.0767 54.3854 87.3027 54.0429 87.6187 54.1671C90.9487 55.4708 93.6767 57.9081 95.3467 60.9942C95.8507 59.7826 96.0267 58.5129 95.8207 57.1871C95.7627 56.8186 96.2747 56.7245 96.4347 57.0289C97.0907 58.2726 97.3787 59.6184 97.3427 60.9942C99.2027 59.2058 101.275 57.6658 103.559 56.4161C103.833 56.2659 104.157 56.6844 103.935 56.9007C103.527 57.3013 103.213 57.7519 102.937 58.2285C105.573 57.2372 108.249 56.354 110.971 55.619C111.251 55.5449 111.581 55.8413 111.347 56.1037C110.435 57.137 109.855 58.3366 109.583 59.6544C110.839 59.0596 112.149 58.615 113.521 58.3326C113.791 58.2766 113.919 58.5629 113.861 58.7692C113.641 59.5463 113.617 60.3253 113.753 61.1043C116.035 59.4742 118.869 58.633 121.549 57.854C121.683 57.8139 121.827 57.854 121.925 57.9541C124.369 60.4555 127.437 62.2939 130.803 63.3213C130.881 63.2092 130.811 63.3093 130.889 63.1971L125.981 57.0169C125.797 56.7846 126.075 56.376 126.363 56.5402C129.775 58.4828 133.305 60.2212 136.921 61.7712L135.019 53.8006C136.947 55.8153 139.579 55.6591 141.583 57.6017L149.427 60.111C147.659 58.1684 146.133 56.0416 144.889 53.7385C144.721 53.4301 145.143 53.2278 145.383 53.374C151.375 57.0329 155.727 63.6738 162.645 65.7626C160.179 63.3473 158.079 60.6157 156.435 57.5977C156.267 57.2872 156.691 57.089 156.929 57.2312C160.241 59.2278 163.551 61.2225 166.861 63.2192C164.377 60.5816 162.049 57.7739 160.789 54.3693C160.701 54.129 160.947 53.8286 161.213 53.9628C167.201 56.9628 172.993 60.3273 178.573 64.0082C176.019 60.6597 173.769 57.103 171.887 53.354C171.735 53.0516 172.135 52.8273 172.381 52.9895C178.705 57.1771 184.659 61.8734 190.209 67.0042C188.841 61.4468 185.617 56.4101 181.059 52.8013C180.763 52.5669 181.039 52.1163 181.385 52.2665C186.397 54.4655 191.057 57.3593 195.237 60.848C196.433 59.1738 195.179 56.5463 194.545 54.86C193.759 52.7752 192.819 50.7505 191.749 48.7879C191.567 48.4554 192.073 48.2251 192.299 48.4795C197.111 53.9007 200.427 60.3734 202.853 67.0983C204.073 70.4769 205.079 73.9235 205.979 77.3941C206.959 81.1711 207.939 84.9902 208.469 88.8534C208.731 90.764 208.845 92.7045 208.735 94.6211C208.633 107.919 202.069 119.813 182.701 115.697C174.029 113.855 167.597 113.028 161.131 117.648C152.955 123.492 146.529 137.374 144.993 144.564" fill="#925953"/>
<path id="Fill 45" fill-rule="evenodd" clip-rule="evenodd" d="M112.885 151.165C113.803 158.415 117.913 163.886 125.583 163.005C132.457 162.218 138.079 156.871 138.049 149.559C138.017 142.245 132.389 136.525 125.475 136.523C112.937 136.521 112.005 144.19 112.885 151.165Z" fill="#DDB78C"/>
<path id="Fill 47" fill-rule="evenodd" clip-rule="evenodd" d="M122.469 144.244C122.645 143.906 123.169 143.66 123.539 143.872C125.385 144.933 126.919 146.317 127.871 148.168C128.893 150.156 129.041 152.421 128.861 154.606C128.783 155.578 127.203 155.313 127.283 154.35C127.407 152.826 127.301 151.276 126.811 149.828H126.773C126.669 149.83 126.563 149.836 126.457 149.842C126.249 149.854 126.039 149.878 125.833 149.914C125.779 149.922 125.727 149.932 125.673 149.944C125.589 149.966 125.505 149.988 125.423 150.012C125.245 150.066 125.077 150.138 124.905 150.208C124.887 150.216 124.897 150.21 124.891 150.214C124.871 150.224 124.851 150.234 124.833 150.247C124.775 150.279 124.721 150.311 124.667 150.347C124.555 150.417 124.455 150.497 124.351 150.575C124.337 150.591 124.319 150.607 124.303 150.623C124.257 150.671 124.209 150.719 124.165 150.769C124.127 150.813 124.091 150.857 124.055 150.901C124.029 150.935 124.019 150.953 124.011 150.967C123.955 151.06 123.897 151.152 123.849 151.25C123.825 151.306 123.799 151.366 123.775 151.422C123.771 151.432 123.767 151.44 123.765 151.448C123.741 151.566 123.701 151.68 123.679 151.801C123.671 151.859 123.637 151.987 123.639 152.077C123.641 152.075 123.641 152.055 123.643 152.089V152.181C123.643 152.245 123.647 152.307 123.651 152.371C123.659 152.481 123.673 152.592 123.689 152.702C123.693 152.728 123.719 152.83 123.723 152.86C123.731 152.884 123.739 152.912 123.743 152.922C123.777 153.04 123.819 153.152 123.863 153.265C123.911 153.379 123.973 153.483 124.021 153.595C123.937 153.403 124.015 153.581 124.049 153.633C124.081 153.683 124.111 153.731 124.145 153.779C124.221 153.887 124.303 153.992 124.391 154.092C124.427 154.136 124.471 154.176 124.511 154.22C124.363 154.058 124.513 154.22 124.553 154.256C124.863 154.538 124.945 154.985 124.649 155.321C124.383 155.62 123.827 155.71 123.517 155.425C122.959 154.921 122.521 154.304 122.279 153.605C121.851 152.371 121.999 150.991 122.843 149.922C123.637 148.915 124.873 148.488 126.139 148.368C125.363 147.072 124.191 146.021 122.849 145.248C122.483 145.038 122.261 144.651 122.469 144.244Z" fill="#8F695D"/>
<g id="Group 51">
<mask id="mask6_7403_83456" style="mask-type:luminance" maskUnits="userSpaceOnUse" x="34" y="226" width="395" height="275">
<path id="Clip 50" fill-rule="evenodd" clip-rule="evenodd" d="M34.2383 226.797H428.25V500.668H34.2383V226.797Z" fill="white"/>
</mask>
<g mask="url(#mask6_7403_83456)">
<path id="Fill 49" fill-rule="evenodd" clip-rule="evenodd" d="M65.6603 230.091C65.6603 230.091 60.9483 237.261 56.7383 248.658C47.7263 273.059 39.7963 299.704 36.9203 318.145C29.4483 366.021 39.9603 422.082 39.9603 422.082C53.8523 521.518 52.6723 564.372 83.9323 595.718H235.196C270.286 567.886 274.286 515.282 274.286 515.282C318.676 502.693 415.452 448.92 415.452 448.92C403.856 434.476 395.956 397.489 395.956 397.489C352.466 409.833 309.578 436.134 241.494 452.825C241.494 452.825 217.542 420.337 205.876 338.518C205.876 338.518 306.28 326.929 428.25 270.519C428.25 270.519 410.154 250.22 414.252 226.797C414.252 226.797 291.882 263.981 170.862 254.904C170.862 254.904 156.314 245.536 145.058 243.88L145.816 258.705C145.816 258.705 113.332 239.29 65.6603 230.091Z" fill="#326B00"/>
</g>
</g>
<g id="Group 54">
<mask id="mask7_7403_83456" style="mask-type:luminance" maskUnits="userSpaceOnUse" x="67" y="301" width="207" height="200">
<path id="Clip 53" fill-rule="evenodd" clip-rule="evenodd" d="M67.0747 301.633H273.981V500.667H67.0747V301.633Z" fill="white"/>
</mask>
<g mask="url(#mask7_7403_83456)">
<path id="Fill 52" fill-rule="evenodd" clip-rule="evenodd" d="M75.5316 301.823C63.2176 321.542 66.4036 346.211 72.2036 367.523C78.8376 391.888 88.5796 415.375 99.8856 437.929C105.624 449.38 111.79 460.611 118.242 471.674C124.49 482.385 130.658 493.421 138.19 503.298C145.234 512.535 153.986 519.654 164.904 523.834C176.71 528.354 189.604 529.363 202.148 529.465C213.538 529.558 224.988 528.59 236.15 526.287C245.722 524.315 255.074 521.407 264.448 518.675C267.528 517.78 270.61 516.891 273.694 516.015C274.198 515.873 273.984 515.09 273.48 515.232C263.296 518.122 253.186 521.323 242.916 523.902C233.248 526.329 223.418 527.805 213.464 528.376C188.99 529.778 161.424 527.711 143.754 508.688C135.594 499.9 129.608 489.174 123.486 478.944C117.062 468.216 110.88 457.337 105.072 446.264C93.4796 424.159 83.3536 401.224 75.9376 377.376C69.3116 356.062 63.3976 331.447 72.2776 309.88C73.3736 307.221 74.7116 304.673 76.2356 302.234C76.5116 301.789 75.8096 301.381 75.5316 301.823Z" fill="#B3856A"/>
</g>
</g>
<path id="Fill 55" fill-rule="evenodd" clip-rule="evenodd" d="M129.621 304.054C141.479 307.726 151.873 315.453 158.577 325.903C162.237 331.61 164.855 337.891 167.419 344.145C170.233 350.99 173.062 357.833 175.916 364.664C181.497 378.008 187.173 391.314 192.941 404.582C195.839 411.251 198.735 417.926 201.715 424.562C204.345 430.424 207.249 436.216 211.051 441.423C214.825 446.594 219.547 451.597 225.777 453.685C230.853 455.386 236.171 454.687 241.227 453.291C241.731 453.151 241.517 452.368 241.011 452.508C236.163 453.848 231.097 454.545 226.209 452.974C220.005 450.982 215.287 445.909 211.581 440.776C207.809 435.547 204.919 429.753 202.298 423.886C199.368 417.333 196.503 410.752 193.643 404.171C187.771 390.665 181.995 377.115 176.317 363.525C173.511 356.818 170.742 350.097 167.978 343.372C165.571 337.52 163.107 331.646 159.757 326.253C152.929 315.255 142.213 307.102 129.837 303.27C129.337 303.114 129.123 303.897 129.621 304.054Z" fill="#B3856A"/>
<path id="Fill 57" fill-rule="evenodd" clip-rule="evenodd" d="M358.664 412.512C359.266 422.565 362.782 432.286 366.514 441.556C370.064 450.37 374.454 458.872 380.622 466.165C380.958 466.564 381.534 465.987 381.198 465.593C374.996 458.261 370.614 449.665 367.08 440.791C363.478 431.755 360.062 422.297 359.478 412.512C359.448 411.993 358.632 411.989 358.664 412.512Z" fill="#B3856A"/>
<path id="Fill 59" fill-rule="evenodd" clip-rule="evenodd" d="M224.467 452.93C214.893 465.1 209.943 479.976 207.101 495.012C207.005 495.523 207.789 495.741 207.887 495.226C210.699 480.344 215.563 465.555 225.041 453.505C225.361 453.098 224.789 452.519 224.467 452.93Z" fill="#B3856A"/>
<path id="Fill 61" fill-rule="evenodd" clip-rule="evenodd" d="M222.918 451.909C211.364 454.883 201.21 462.427 195.218 472.739C194.958 473.191 195.658 473.6 195.922 473.147C201.81 463.012 211.778 455.616 223.132 452.692C223.64 452.562 223.426 451.779 222.918 451.909Z" fill="#B3856A"/>
<path id="Fill 63" fill-rule="evenodd" clip-rule="evenodd" d="M151.881 251.02C171.901 269.319 189.541 291.46 199.331 316.942C201.967 323.806 203.979 330.895 205.291 338.133C205.383 338.643 206.169 338.427 206.075 337.916C201.323 311.691 187.257 288.126 169.883 268.243C164.417 261.987 158.589 256.053 152.457 250.446C152.071 250.095 151.495 250.666 151.881 251.02Z" fill="#B3856A"/>
<path id="Fill 65" fill-rule="evenodd" clip-rule="evenodd" d="M386.766 234.692C384.972 251.364 390.36 268.309 401.26 281.046C401.6 281.443 402.172 280.868 401.834 280.469C391.068 267.893 385.808 251.146 387.58 234.692C387.638 234.174 386.822 234.178 386.766 234.692Z" fill="#B3856A"/>
<path id="Fill 67" fill-rule="evenodd" clip-rule="evenodd" d="M55.1348 256.261C79.2048 265.578 103.693 274.277 129.153 278.966C136.263 280.273 143.433 281.253 150.639 281.865C150.927 281.889 151.071 281.587 151.031 281.351C149.789 273.811 148.397 266.295 146.853 258.809L146.175 259.203C150.945 263.134 154.679 268.081 157.113 273.759C157.291 274.173 157.835 273.901 157.871 273.556C159.057 262.381 152.323 252.811 146.053 244.245C145.749 243.829 145.043 244.233 145.351 244.656C151.539 253.111 158.229 262.52 157.059 273.556C157.311 273.488 157.563 273.418 157.817 273.35C155.357 267.614 151.569 262.602 146.749 258.63C146.435 258.372 145.985 258.612 146.069 259.025C147.611 266.511 149.007 274.025 150.249 281.569C150.377 281.397 150.509 281.227 150.639 281.054C124.865 278.865 99.8608 271.73 75.5968 263.056C68.8128 260.631 62.0728 258.08 55.3508 255.478C54.8628 255.29 54.6528 256.073 55.1348 256.261Z" fill="#B3856A"/>
<path id="Fill 69" fill-rule="evenodd" clip-rule="evenodd" d="M395.957 447.799C395.957 450.467 393.743 452.63 391.007 452.63C388.275 452.63 386.059 450.467 386.059 447.799C386.059 445.13 388.275 442.969 391.007 442.969C393.743 442.969 395.957 445.13 395.957 447.799Z" fill="#B3856A"/>
<path id="Fill 71" fill-rule="evenodd" clip-rule="evenodd" d="M206.631 337.73C209.829 327.741 207.945 317.213 206.031 307.167C205.933 306.655 205.151 306.873 205.247 307.386C207.135 317.291 209.001 327.661 205.845 337.516C205.685 338.015 206.471 338.227 206.631 337.73Z" fill="#B3856A"/>
<path id="Fill 73" fill-rule="evenodd" clip-rule="evenodd" d="M98.6508 272.34C97.1908 281.052 96.8728 289.898 97.7308 298.687C97.7808 299.202 98.5948 299.208 98.5428 298.687C97.6928 289.974 97.9868 281.194 99.4368 272.556C99.5208 272.046 98.7368 271.825 98.6508 272.34Z" fill="#B3856A"/>
<path id="Fill 75" fill-rule="evenodd" clip-rule="evenodd" d="M146.34 259.268C157.29 285.234 174.04 308.063 188.57 332.055C192.282 338.177 195.91 344.377 198.928 350.876C202.072 357.649 204.41 364.748 206.272 371.968C208.094 379.039 209.476 386.213 210.814 393.387C212.078 400.158 213.13 406.985 215.328 413.534C220.23 428.145 228.702 441.395 237.592 453.883C237.892 454.306 238.598 453.901 238.294 453.473C230.216 442.128 222.554 430.204 217.508 417.174C215.026 410.766 213.652 404.209 212.4 397.48C211.082 390.403 209.798 383.315 208.168 376.302C206.546 369.319 204.576 362.395 201.906 355.732C199.252 349.102 195.868 342.809 192.26 336.653C185.172 324.553 177.392 312.871 169.924 301.005C161.438 287.523 153.322 273.749 147.124 259.053C146.924 258.579 146.136 258.787 146.34 259.268Z" fill="#B3856A"/>
<g id="Group 81">
<path id="Fill 77" fill-rule="evenodd" clip-rule="evenodd" d="M450.748 215.733C449.642 216.538 449.032 217.685 448.45 218.893C447.72 220.407 447.006 221.935 446.432 223.515C445.32 226.573 444.802 229.89 445.734 233.062C445.88 233.562 446.666 233.35 446.518 232.846C445.656 229.914 446.116 226.872 447.11 224.032C447.624 222.56 448.276 221.14 448.946 219.734C449.516 218.54 450.054 217.237 451.158 216.434C451.578 216.129 451.172 215.424 450.748 215.733Z" fill="#8F695D"/>
<path id="Fill 79" fill-rule="evenodd" clip-rule="evenodd" d="M450.074 248.089C451.766 249.381 453.586 250.495 455.506 251.416C455.976 251.64 456.388 250.941 455.916 250.715C453.998 249.794 452.178 248.68 450.484 247.388C450.308 247.254 450.032 247.362 449.928 247.535C449.804 247.741 449.9 247.957 450.074 248.089Z" fill="#8F695D"/>
</g>
<g id="Group 92">
<path id="Fill 82" fill-rule="evenodd" clip-rule="evenodd" d="M446.133 364.774C445.041 365.894 444.263 367.245 443.505 368.597C442.673 370.075 441.873 371.575 441.107 373.087C440.871 373.552 441.573 373.964 441.809 373.496C442.553 372.03 443.325 370.578 444.129 369.146C444.877 367.81 445.629 366.454 446.707 365.349C447.073 364.974 446.499 364.4 446.133 364.774Z" fill="#8F695D"/>
<path id="Fill 84" fill-rule="evenodd" clip-rule="evenodd" d="M454.676 379.946C456.418 381.18 458.716 380.907 460.698 380.495C463.3 379.954 465.824 378.947 468.32 378.051C473.18 376.307 477.97 374.351 482.404 371.685C482.852 371.415 482.444 370.714 481.992 370.982C477.906 373.443 473.514 375.296 469.04 376.93C466.854 377.729 464.658 378.546 462.426 379.209C460.2 379.872 457.156 380.715 455.086 379.243C454.658 378.941 454.252 379.646 454.676 379.946Z" fill="#8F695D"/>
<path id="Fill 86" fill-rule="evenodd" clip-rule="evenodd" d="M453.953 393.657C454.751 394.751 456.241 394.742 457.479 394.68C459.211 394.592 460.899 394.138 462.553 393.643C466.241 392.536 469.889 391.298 473.535 390.068C474.029 389.902 473.819 389.117 473.321 389.285C470.255 390.319 467.193 391.352 464.109 392.315C462.593 392.788 461.077 393.283 459.519 393.599C458.343 393.835 455.525 394.44 454.655 393.246C454.349 392.83 453.645 393.234 453.953 393.657Z" fill="#8F695D"/>
<path id="Fill 88" fill-rule="evenodd" clip-rule="evenodd" d="M454.733 406.297C460.843 406.441 466.531 404.008 472.017 401.601C472.495 401.392 472.081 400.693 471.607 400.902C466.255 403.251 460.693 405.626 454.733 405.488C454.209 405.474 454.209 406.285 454.733 406.297Z" fill="#8F695D"/>
<path id="Fill 90" fill-rule="evenodd" clip-rule="evenodd" d="M436.098 417.056C430.942 412.544 427.252 406.552 425.62 399.903C425.494 399.396 424.712 399.61 424.836 400.117C426.498 406.892 430.27 413.032 435.522 417.63C435.914 417.973 436.492 417.402 436.098 417.056Z" fill="#8F695D"/>
</g>
<g id="Group 95">
<mask id="mask8_7403_83456" style="mask-type:luminance" maskUnits="userSpaceOnUse" x="293" y="468" width="204" height="33">
<path id="Clip 94" fill-rule="evenodd" clip-rule="evenodd" d="M293.335 468.312H496.267V500.668H293.335V468.312Z" fill="white"/>
</mask>
<g mask="url(#mask8_7403_83456)">
<path id="Fill 93" fill-rule="evenodd" clip-rule="evenodd" d="M293.723 510.814C320.357 507.664 347.007 504.505 373.471 500.117C400.081 495.706 426.413 489.928 452.185 481.953C466.717 477.457 481.153 472.597 495.975 469.108C496.485 468.986 496.269 468.205 495.761 468.325C482.633 471.415 469.805 475.577 456.949 479.616C444.127 483.645 431.221 487.33 418.139 490.429C392.035 496.613 365.515 500.87 338.937 504.421C323.885 506.432 308.803 508.218 293.723 510.005C293.209 510.065 293.203 510.876 293.723 510.814Z" fill="#D6D6D6"/>
</g>
</g>
<g id="Group 98">
<mask id="mask9_7403_83456" style="mask-type:luminance" maskUnits="userSpaceOnUse" x="0" y="224" width="251" height="277">
<path id="Clip 97" fill-rule="evenodd" clip-rule="evenodd" d="M0 224.406H250.493V500.668H0V224.406Z" fill="white"/>
</mask>
<g mask="url(#mask9_7403_83456)">
<path id="Fill 96" fill-rule="evenodd" clip-rule="evenodd" d="M-81.7927 224.408C-71.0407 224.408 -9.54672 224.206 -1.44872 227.969C31.5353 243.293 42.7813 291.868 42.7813 291.868C34.6933 322.449 34.3333 364.409 34.3333 364.409C74.9693 439.193 116.125 506.759 152.715 535.972C202.149 575.441 226.197 585.747 250.493 595.718H-81.7927V224.408Z" fill="#A2A6AB"/>
</g>
</g>
<path id="Fill 99" fill-rule="evenodd" clip-rule="evenodd" d="M516.412 281.8C517.958 276.115 519.94 270.579 520.928 264.753C521.836 259.412 523.686 253.913 523.46 248.462C523.44 247.941 522.626 247.939 522.648 248.462C522.772 251.502 522.134 254.43 521.49 257.381C520.932 259.951 520.49 262.542 520.046 265.134C519.084 270.747 517.12 276.101 515.626 281.584C515.49 282.088 516.274 282.305 516.412 281.8Z" fill="#302C3C"/>
<path id="Fill 101" fill-rule="evenodd" clip-rule="evenodd" d="M476.801 307.74C473.715 315.839 464.485 319.964 456.185 316.95C447.889 313.936 443.665 304.926 446.753 296.828C449.839 288.727 459.069 284.601 467.365 287.615C475.665 290.629 479.889 299.639 476.801 307.74Z" fill="#313D47"/>
<path id="Fill 103" fill-rule="evenodd" clip-rule="evenodd" d="M415.454 448.919C417.554 445.308 413.182 430.789 413.182 430.789C411.276 431.959 407.33 434.358 407.33 434.358C411.156 444.407 415.454 448.919 415.454 448.919Z" fill="#B3856A"/>
<path id="Fill 105" fill-rule="evenodd" clip-rule="evenodd" d="M81.3049 281.365C80.3269 280.999 79.7449 280.158 80.0089 279.485C80.2689 278.812 81.2769 278.561 82.2589 278.924C83.2389 279.29 83.8209 280.132 83.5569 280.806C83.2929 281.479 82.2849 281.73 81.3049 281.365Z" fill="#F2E8DB"/>
<path id="Fill 107" fill-rule="evenodd" clip-rule="evenodd" d="M54.9923 296.953C54.5343 297.874 53.6263 298.367 52.9623 298.054C52.2963 297.742 52.1283 296.739 52.5843 295.817C53.0403 294.894 53.9503 294.402 54.6163 294.716C55.2803 295.028 55.4503 296.03 54.9923 296.953Z" fill="#F2E8DB"/>
<path id="Fill 109" fill-rule="evenodd" clip-rule="evenodd" d="M132.37 292.212C131.39 291.846 130.808 291.005 131.072 290.334C131.332 289.659 132.34 289.408 133.322 289.773C134.302 290.137 134.884 290.978 134.62 291.653C134.358 292.326 133.35 292.577 132.37 292.212Z" fill="#F2E8DB"/>
<path id="Fill 111" fill-rule="evenodd" clip-rule="evenodd" d="M164.154 309.723C163.628 308.838 163.722 307.826 164.362 307.464C165.002 307.103 165.946 307.53 166.47 308.419C166.994 309.304 166.902 310.316 166.262 310.678C165.622 311.037 164.678 310.61 164.154 309.723Z" fill="#F2E8DB"/>
<path id="Fill 113" fill-rule="evenodd" clip-rule="evenodd" d="M171.432 284.155C170.788 283.348 170.734 282.335 171.316 281.89C171.9 281.446 172.894 281.742 173.542 282.549C174.186 283.358 174.236 284.37 173.654 284.814C173.072 285.259 172.078 284.962 171.432 284.155Z" fill="#F2E8DB"/>
<path id="Fill 115" fill-rule="evenodd" clip-rule="evenodd" d="M189.549 319.006C189.249 318.025 189.579 317.062 190.287 316.856C190.995 316.649 191.811 317.278 192.111 318.259C192.413 319.239 192.083 320.204 191.373 320.408C190.667 320.617 189.849 319.988 189.549 319.006Z" fill="#F2E8DB"/>
<path id="Fill 117" fill-rule="evenodd" clip-rule="evenodd" d="M219.648 277.631C218.6 277.631 217.75 277.046 217.75 276.327C217.75 275.604 218.6 275.02 219.648 275.02C220.696 275.02 221.548 275.604 221.548 276.327C221.548 277.046 220.696 277.631 219.648 277.631Z" fill="#F2E8DB"/>
<path id="Fill 119" fill-rule="evenodd" clip-rule="evenodd" d="M184.635 267.233C183.593 267.119 182.813 266.446 182.895 265.729C182.977 265.014 183.887 264.523 184.929 264.638C185.973 264.752 186.753 265.425 186.671 266.14C186.589 266.857 185.677 267.347 184.635 267.233Z" fill="#F2E8DB"/>
<path id="Fill 121" fill-rule="evenodd" clip-rule="evenodd" d="M262.389 302.537C261.341 302.537 260.491 301.952 260.491 301.232C260.491 300.509 261.341 299.926 262.389 299.926C263.437 299.926 264.289 300.509 264.289 301.232C264.289 301.952 263.437 302.537 262.389 302.537Z" fill="#F2E8DB"/>
<path id="Fill 123" fill-rule="evenodd" clip-rule="evenodd" d="M292.766 278.761C291.75 279.017 290.778 278.657 290.592 277.962C290.408 277.263 291.082 276.488 292.098 276.231C293.114 275.975 294.086 276.333 294.272 277.032C294.456 277.729 293.782 278.504 292.766 278.761Z" fill="#F2E8DB"/>
<path id="Fill 125" fill-rule="evenodd" clip-rule="evenodd" d="M221.512 329.627C220.464 329.627 219.612 329.042 219.612 328.321C219.612 327.6 220.464 327.016 221.512 327.016C222.56 327.016 223.41 327.6 223.41 328.321C223.41 329.042 222.56 329.627 221.512 329.627Z" fill="#F2E8DB"/>
<path id="Fill 127" fill-rule="evenodd" clip-rule="evenodd" d="M328.008 303.209C326.992 303.465 326.02 303.107 325.834 302.41C325.65 301.711 326.324 300.936 327.34 300.679C328.356 300.425 329.328 300.784 329.512 301.481C329.698 302.177 329.024 302.953 328.008 303.209Z" fill="#F2E8DB"/>
<path id="Fill 129" fill-rule="evenodd" clip-rule="evenodd" d="M263.367 258.696C262.321 258.756 261.435 258.221 261.393 257.5C261.349 256.781 262.163 256.151 263.211 256.091C264.257 256.03 265.143 256.567 265.185 257.286C265.229 258.005 264.413 258.638 263.367 258.696Z" fill="#F2E8DB"/>
<path id="Fill 131" fill-rule="evenodd" clip-rule="evenodd" d="M308.662 255.129C307.62 255.252 306.704 254.769 306.618 254.054C306.53 253.337 307.302 252.66 308.344 252.538C309.386 252.418 310.3 252.898 310.388 253.613C310.476 254.33 309.704 255.007 308.662 255.129Z" fill="#F2E8DB"/>
<path id="Fill 133" fill-rule="evenodd" clip-rule="evenodd" d="M340.504 275.493C339.488 275.749 338.516 275.391 338.332 274.694C338.146 273.995 338.82 273.222 339.836 272.966C340.852 272.709 341.824 273.068 342.01 273.767C342.194 274.464 341.522 275.237 340.504 275.493Z" fill="#F2E8DB"/>
<path id="Fill 135" fill-rule="evenodd" clip-rule="evenodd" d="M290.603 319.995C289.587 320.251 288.615 319.893 288.429 319.196C288.245 318.497 288.919 317.722 289.935 317.465C290.951 317.209 291.923 317.57 292.109 318.266C292.293 318.963 291.619 319.738 290.603 319.995Z" fill="#F2E8DB"/>
<path id="Fill 137" fill-rule="evenodd" clip-rule="evenodd" d="M377.93 287.316C377.022 287.827 375.986 287.737 375.618 287.112C375.248 286.489 375.684 285.566 376.594 285.055C377.502 284.542 378.538 284.632 378.906 285.259C379.276 285.882 378.838 286.803 377.93 287.316Z" fill="#F2E8DB"/>
<path id="Fill 139" fill-rule="evenodd" clip-rule="evenodd" d="M364.516 250.4C363.472 250.478 362.576 249.958 362.522 249.239C362.466 248.52 363.268 247.875 364.312 247.797C365.36 247.719 366.252 248.239 366.308 248.958C366.366 249.677 365.562 250.322 364.516 250.4Z" fill="#F2E8DB"/>
<path id="Fill 141" fill-rule="evenodd" clip-rule="evenodd" d="M122.6 320.225C122.864 321.216 122.496 322.165 121.782 322.346C121.066 322.526 120.274 321.867 120.012 320.876C119.748 319.884 120.116 318.935 120.83 318.757C121.546 318.575 122.338 319.233 122.6 320.225Z" fill="#F2E8DB"/>
<path id="Fill 143" fill-rule="evenodd" clip-rule="evenodd" d="M90.2248 355.295C90.4868 356.286 90.1208 357.237 89.4048 357.417C88.6888 357.596 87.8988 356.939 87.6348 355.947C87.3728 354.956 87.7408 354.005 88.4548 353.827C89.1708 353.646 89.9628 354.303 90.2248 355.295Z" fill="#F2E8DB"/>
<path id="Fill 145" fill-rule="evenodd" clip-rule="evenodd" d="M164.307 363.006C164.571 363.997 164.203 364.948 163.489 365.128C162.773 365.309 161.981 364.65 161.719 363.658C161.455 362.667 161.823 361.718 162.537 361.538C163.253 361.357 164.045 362.014 164.307 363.006Z" fill="#F2E8DB"/>
<path id="Fill 147" fill-rule="evenodd" clip-rule="evenodd" d="M153.148 407.091C153.41 408.083 153.042 409.034 152.328 409.214C151.612 409.393 150.822 408.736 150.558 407.744C150.296 406.753 150.664 405.802 151.378 405.624C152.094 405.443 152.886 406.1 153.148 407.091Z" fill="#F2E8DB"/>
<path id="Fill 149" fill-rule="evenodd" clip-rule="evenodd" d="M150.498 460.881C151.024 461.768 150.93 462.78 150.29 463.14C149.65 463.503 148.706 463.074 148.184 462.187C147.658 461.3 147.752 460.288 148.39 459.928C149.032 459.569 149.974 459.996 150.498 460.881Z" fill="#F2E8DB"/>
<path id="Fill 151" fill-rule="evenodd" clip-rule="evenodd" d="M59.4218 355.497C59.4818 356.518 58.9358 357.379 58.1978 357.423C57.4618 357.463 56.8118 356.67 56.7518 355.647C56.6918 354.624 57.2398 353.762 57.9778 353.72C58.7138 353.678 59.3618 354.473 59.4218 355.497Z" fill="#F2E8DB"/>
<path id="Fill 153" fill-rule="evenodd" clip-rule="evenodd" d="M75.2737 410.409C75.7517 411.32 75.6097 412.326 74.9537 412.656C74.2977 412.986 73.3757 412.516 72.8957 411.607C72.4137 410.695 72.5577 409.69 73.2157 409.36C73.8717 409.029 74.7937 409.5 75.2737 410.409Z" fill="#F2E8DB"/>
<path id="Fill 155" fill-rule="evenodd" clip-rule="evenodd" d="M194.738 426.279C195 427.27 194.632 428.222 193.918 428.402C193.202 428.582 192.41 427.923 192.148 426.932C191.886 425.941 192.254 424.991 192.968 424.811C193.684 424.631 194.474 425.288 194.738 426.279Z" fill="#F2E8DB"/>
<path id="Fill 157" fill-rule="evenodd" clip-rule="evenodd" d="M107.32 425.072C107.584 426.063 107.216 427.015 106.502 427.195C105.786 427.375 104.994 426.716 104.73 425.725C104.468 424.733 104.836 423.784 105.55 423.604C106.266 423.424 107.058 424.081 107.32 425.072Z" fill="#F2E8DB"/>
<path id="Fill 159" fill-rule="evenodd" clip-rule="evenodd" d="M271.358 475.207C272.37 474.934 273.348 475.277 273.544 475.974C273.738 476.667 273.078 477.452 272.066 477.724C271.056 477.997 270.076 477.652 269.882 476.957C269.684 476.26 270.346 475.477 271.358 475.207Z" fill="#F2E8DB"/>
<path id="Fill 161" fill-rule="evenodd" clip-rule="evenodd" d="M306.475 441.366C307.485 441.096 308.465 441.438 308.661 442.133C308.855 442.828 308.195 443.613 307.183 443.883C306.173 444.156 305.193 443.813 304.997 443.116C304.801 442.421 305.463 441.638 306.475 441.366Z" fill="#F2E8DB"/>
<path id="Fill 163" fill-rule="evenodd" clip-rule="evenodd" d="M347.9 467.113C348.808 466.6 349.844 466.692 350.212 467.317C350.582 467.94 350.146 468.861 349.236 469.374C348.328 469.887 347.292 469.794 346.924 469.17C346.554 468.547 346.992 467.626 347.9 467.113Z" fill="#F2E8DB"/>
<path id="Fill 165" fill-rule="evenodd" clip-rule="evenodd" d="M244.605 458.801C245.653 458.801 246.505 459.386 246.505 460.105C246.505 460.827 245.653 461.412 244.605 461.412C243.557 461.412 242.707 460.827 242.707 460.105C242.707 459.386 243.557 458.801 244.605 458.801Z" fill="#F2E8DB"/>
<path id="Fill 167" fill-rule="evenodd" clip-rule="evenodd" d="M313.008 489.738C313.916 489.225 314.954 489.317 315.322 489.942C315.692 490.565 315.254 491.486 314.346 491.999C313.438 492.512 312.4 492.419 312.032 491.795C311.662 491.172 312.1 490.251 313.008 489.738Z" fill="#F2E8DB"/>
<path id="Fill 169" fill-rule="evenodd" clip-rule="evenodd" d="M351.527 420.228C352.469 419.773 353.495 419.933 353.821 420.58C354.149 421.225 353.649 422.116 352.709 422.569C351.767 423.023 350.739 422.863 350.413 422.216C350.087 421.572 350.585 420.68 351.527 420.228Z" fill="#F2E8DB"/>
<path id="Fill 171" fill-rule="evenodd" clip-rule="evenodd" d="M112.221 257.933C112.963 258.658 113.141 259.658 112.617 260.168C112.097 260.677 111.071 260.505 110.331 259.78C109.589 259.057 109.411 258.058 109.931 257.547C110.453 257.036 111.479 257.211 112.221 257.933Z" fill="#F2E8DB"/>
<path id="Fill 173" fill-rule="evenodd" clip-rule="evenodd" d="M74.2168 238.576C74.9588 239.299 75.1368 240.3 74.6148 240.809C74.0928 241.32 73.0688 241.145 72.3268 240.42C71.5848 239.697 71.4068 238.698 71.9268 238.187C72.4508 237.677 73.4748 237.851 74.2168 238.576Z" fill="#F2E8DB"/>
<path id="Fill 175" fill-rule="evenodd" clip-rule="evenodd" d="M127.592 379.474C127.854 380.466 127.486 381.417 126.772 381.597C126.056 381.775 125.264 381.118 125.002 380.127C124.738 379.136 125.106 378.185 125.82 378.006C126.536 377.826 127.328 378.483 127.592 379.474Z" fill="#F2E8DB"/>
<path id="Fill 177" fill-rule="evenodd" clip-rule="evenodd" d="M405.657 256.158C404.611 256.236 403.717 255.716 403.661 254.997C403.607 254.28 404.409 253.633 405.453 253.555C406.501 253.477 407.393 253.997 407.449 254.716C407.507 255.435 406.703 256.08 405.657 256.158Z" fill="#F2E8DB"/>
<path id="Fill 179" fill-rule="evenodd" clip-rule="evenodd" d="M395.344 425.866C394.384 426.277 393.364 426.074 393.066 425.411C392.772 424.752 393.31 423.885 394.272 423.475C395.232 423.064 396.252 423.264 396.548 423.925C396.844 424.584 396.304 425.453 395.344 425.866Z" fill="#F2E8DB"/>
<path id="Fill 181" fill-rule="evenodd" clip-rule="evenodd" d="M484.688 377.022C486.988 383.66 489.308 390.339 492.642 396.55C495.994 402.794 500.64 408.159 505.206 413.538C509.656 418.785 514.354 423.868 519.85 428.046C525.132 432.061 531.014 435.448 537.076 438.145C543.426 440.967 550.15 443.328 557.066 444.245C557.584 444.315 557.578 443.502 557.066 443.434C544.74 441.8 532.582 435.986 522.466 428.949C516.752 424.972 511.878 420.009 507.332 414.776C502.85 409.611 498.17 404.376 494.668 398.486C490.64 391.707 488.042 384.223 485.474 376.807C485.304 376.315 484.516 376.527 484.688 377.022Z" fill="#666B70"/>
<path id="Fill 183" fill-rule="evenodd" clip-rule="evenodd" d="M537.705 312.752C542.493 314.21 547.359 315.692 551.637 318.353C556.015 321.077 559.057 325.12 561.987 329.266C564.661 333.051 567.387 336.72 570.931 339.75C574.347 342.672 578.225 344.965 582.395 346.643C582.881 346.839 583.091 346.054 582.611 345.86C577.893 343.963 573.557 341.218 569.879 337.705C566.303 334.289 563.693 330.127 560.767 326.182C558.081 322.557 555.045 319.345 551.093 317.084C546.991 314.732 542.423 313.339 537.921 311.969C537.419 311.817 537.205 312.6 537.705 312.752Z" fill="#666B70"/>
<path id="Fill 185" fill-rule="evenodd" clip-rule="evenodd" d="M624.217 282.33C607.941 307.91 591.669 333.49 575.395 359.07C573.907 361.41 571.759 363.602 573.481 366.328C575.105 368.902 577.425 371.167 579.657 373.209C583.455 376.684 587.679 379.736 591.995 382.544C599.897 387.689 608.159 392.307 616.413 396.863C625.259 401.743 634.165 406.562 643.267 410.954C643.737 411.178 644.149 410.479 643.677 410.251C627.483 402.442 611.541 393.713 596.245 384.272C592.719 382.095 589.279 379.812 585.961 377.331C583.371 375.392 580.857 373.335 578.567 371.05C577.487 369.971 576.453 368.841 575.493 367.654C574.971 367.009 574.233 366.218 573.891 365.441C573.149 363.757 574.011 362.757 574.841 361.456C582.677 349.135 590.515 336.815 598.353 324.496C607.209 310.576 616.065 296.659 624.919 282.74C625.201 282.298 624.497 281.889 624.217 282.33Z" fill="#666B70"/>
<path id="Fill 187" fill-rule="evenodd" clip-rule="evenodd" d="M575.717 383.266C571.727 392.987 568.097 402.852 564.863 412.849C563.279 417.742 561.789 422.664 560.391 427.613C559.753 429.878 559.131 432.151 558.531 434.43C557.895 436.839 557.091 439.298 556.759 441.772C556.187 446.039 559.127 448.811 562.037 451.457C565.497 454.601 569.063 457.629 572.727 460.533C579.943 466.254 587.535 471.505 595.439 476.24C604.543 481.693 614.055 486.441 623.869 490.489C624.351 490.689 624.563 489.904 624.085 489.706C607.291 482.779 591.397 473.72 576.919 462.762C573.217 459.96 569.609 457.03 566.105 453.986C564.505 452.594 562.909 451.19 561.363 449.736C559.563 448.04 557.675 446.08 557.487 443.476C557.321 441.183 558.259 438.714 558.829 436.511C559.471 434.023 560.139 431.54 560.829 429.065C562.153 424.318 563.563 419.598 565.057 414.902C568.441 404.278 572.267 393.798 576.503 383.48C576.699 382.997 575.915 382.789 575.717 383.266Z" fill="#666B70"/>
<path id="Fill 189" fill-rule="evenodd" clip-rule="evenodd" d="M576.024 383.945C592.406 395.302 609.38 405.882 626.46 416.16C630.642 418.677 634.842 421.165 639.088 423.574C639.544 423.832 639.956 423.131 639.498 422.873C622.15 413.032 605.248 402.33 588.576 391.397C584.498 388.723 580.44 386.022 576.434 383.244C576.002 382.946 575.596 383.649 576.024 383.945Z" fill="#666B70"/>
<path id="Fill 191" fill-rule="evenodd" clip-rule="evenodd" d="M523.854 253.589C538.5 248.561 554.756 248.765 569.306 254.07C583.112 259.107 594.844 268.902 602.46 281.423C606.606 288.24 609.452 295.776 610.808 303.632C610.896 304.147 611.68 303.929 611.592 303.418C609.14 289.195 601.73 276.029 591.06 266.312C579.808 256.065 565.156 250.175 549.982 249.256C541.064 248.715 532.086 249.906 523.638 252.806C523.146 252.977 523.356 253.762 523.854 253.589Z" fill="#666B70"/>
<path id="Fill 193" fill-rule="evenodd" clip-rule="evenodd" d="M556.66 443.842C556.754 459.915 556.478 475.991 555.986 492.056C555.97 492.579 556.784 492.579 556.8 492.056C557.292 475.991 557.568 459.915 557.472 443.842C557.47 443.319 556.656 443.317 556.66 443.842Z" fill="#666B70"/>
<path id="Fill 195" fill-rule="evenodd" clip-rule="evenodd" d="M624.402 282.925C636.128 286.984 647.86 291.028 659.582 295.103C670.872 299.032 682.112 303.16 692.74 308.669C693.204 308.911 693.616 308.211 693.15 307.97C682.648 302.525 671.548 298.415 660.392 294.528C648.476 290.377 636.542 286.271 624.616 282.142C624.122 281.969 623.91 282.755 624.402 282.925Z" fill="#666B70"/>
<g id="Group 199">
<mask id="mask10_7403_83456" style="mask-type:luminance" maskUnits="userSpaceOnUse" x="626" y="422" width="14" height="79">
<path id="Clip 198" fill-rule="evenodd" clip-rule="evenodd" d="M626.515 422.992H639.778V500.667H626.515V422.992Z" fill="white"/>
</mask>
<g mask="url(#mask10_7403_83456)">
<path id="Fill 197" fill-rule="evenodd" clip-rule="evenodd" d="M638.983 423.282C636.485 434.163 634.135 445.075 631.947 456.022C629.811 466.706 627.815 477.435 627.043 488.317C626.251 499.506 626.521 510.729 626.761 521.932C627.005 533.305 627.249 544.678 627.491 556.054C627.767 568.877 628.041 581.702 628.315 594.525C628.327 595.046 629.139 595.048 629.129 594.525C628.647 571.999 628.165 549.475 627.683 526.951C627.441 515.738 627.069 504.509 627.571 493.3C628.073 482.095 629.821 471.066 631.973 460.071C634.365 447.839 636.977 435.649 639.767 423.499C639.883 422.99 639.101 422.774 638.983 423.282Z" fill="#666B70"/>
</g>
</g>
<path id="Fill 200" fill-rule="evenodd" clip-rule="evenodd" d="M643.824 410.806C652.83 390.593 666.702 372.683 681.1 356.025C685.084 351.413 689.166 346.885 693.306 342.413C693.662 342.028 693.088 341.454 692.73 341.838C677.688 358.086 663.146 375.153 651.68 394.15C648.512 399.395 645.616 404.8 643.12 410.398C642.91 410.87 643.612 411.283 643.824 410.806Z" fill="#666B70"/>
<g id="Group 204">
<mask id="mask11_7403_83456" style="mask-type:luminance" maskUnits="userSpaceOnUse" x="216" y="0" width="550" height="272">
<path id="Clip 203" fill-rule="evenodd" clip-rule="evenodd" d="M216.33 0H766V271.256H216.33V0Z" fill="white"/>
</mask>
<g mask="url(#mask11_7403_83456)">
<path id="Fill 202" fill-rule="evenodd" clip-rule="evenodd" d="M915.016 177.55L254.93 -95.082L216.33 -1.37688L876.416 271.257L915.016 177.55Z" fill="#373F49"/>
</g>
</g>
<path id="Fill 205" fill-rule="evenodd" clip-rule="evenodd" d="M455.686 27.1791C450.556 29.8166 446.716 32.5182 444.158 35.2839C441.602 38.0496 439.09 41.6464 436.624 46.0763L435.002 49.1304L429.988 47.0596L431.608 44.0035C434.016 39.6777 436.788 35.9988 439.92 32.9648C443.058 29.9307 446.692 27.3353 450.836 25.1764L434.922 18.6036L436.582 14.5742L457.346 23.1497L455.686 27.1791Z" fill="#F5F4F3"/>
<path id="Fill 207" fill-rule="evenodd" clip-rule="evenodd" d="M463.532 48.2905L452.696 43.8145L454.356 39.7852L465.192 44.2611L463.532 48.2905Z" fill="#F5F4F3"/>
<path id="Fill 209" fill-rule="evenodd" clip-rule="evenodd" d="M479.685 37.0924L470.609 59.1218L475.195 61.0164C477.683 62.0417 479.975 62.0417 482.067 61.0043C484.159 59.967 485.737 58.1625 486.797 55.5891L488.695 50.985C489.741 48.4396 489.889 46.0604 489.137 43.8474C488.379 41.6345 486.757 40.0123 484.269 38.9849L479.685 37.0924ZM463.936 61.0804L476.33 30.9922L486.072 35.0156C489.884 36.5897 492.49 39.061 493.896 42.4295C495.304 45.8 495.232 49.3587 493.69 53.1057L491.81 57.6738C490.258 61.4348 487.804 64.0063 484.438 65.3901C481.074 66.774 477.488 66.6778 473.678 65.1058L463.936 61.0804Z" fill="#F5F4F3"/>
<path id="Fill 211" fill-rule="evenodd" clip-rule="evenodd" d="M499.844 71.706C501.11 72.2287 502.38 72.3829 503.652 72.1646C504.922 71.9503 505.89 71.5017 506.554 70.8268L507.918 67.5204L503.934 65.8762C502.476 65.2734 501.186 65.1612 500.062 65.5458C498.938 65.9283 498.176 66.6092 497.772 67.5865C497.42 68.4416 497.42 69.2347 497.77 69.9677C498.12 70.7006 498.812 71.2794 499.844 71.706ZM504.512 77.8402C504.566 77.2033 504.644 76.5905 504.75 76.0057C504.856 75.4209 504.996 74.8502 505.176 74.2954C504.056 75.0584 502.79 75.5631 501.378 75.8094C499.964 76.0558 498.562 75.8936 497.172 75.3188C494.846 74.3575 493.308 73.0197 492.556 71.3074C491.804 69.5951 491.86 67.6926 492.722 65.5978C493.614 63.4349 495.16 62.1031 497.366 61.6025C499.566 61.0998 502.216 61.4883 505.312 62.768L509.212 64.3802L510.02 62.4156C510.502 61.244 510.538 60.1866 510.124 59.2413C509.706 58.2961 508.86 57.5591 507.578 57.0304C506.438 56.5597 505.416 56.4596 504.514 56.732C503.612 57.0043 502.982 57.5751 502.626 58.4423L497.798 56.4476L497.826 56.3154C498.458 54.513 499.886 53.2733 502.124 52.6004C504.358 51.9276 506.814 52.1438 509.498 53.2533C512.098 54.3268 513.924 55.8548 514.974 57.8354C516.026 59.8161 516.042 62.0491 515.02 64.5284L510.926 74.4697C510.546 75.3929 510.242 76.3021 510.018 77.2013C509.792 78.0985 509.648 79.0117 509.59 79.937L504.512 77.8402Z" fill="#F5F4F3"/>
<path id="Fill 213" fill-rule="evenodd" clip-rule="evenodd" d="M524.84 75.7432L524.414 78.1784L524.54 78.2325L535.868 64.6263L541.356 66.8954L521.504 88.8247C520.27 90.1364 518.888 91.1237 517.364 91.7826C515.836 92.4415 514.09 92.3654 512.122 91.5523C511.708 91.3821 511.284 91.1578 510.842 90.8774C510.402 90.599 509.982 90.3126 509.588 90.0223L511.746 86.3674C511.92 86.4535 512.164 86.5817 512.484 86.7439C512.802 86.9081 513.046 87.0243 513.212 87.0923C514.12 87.4668 514.97 87.4568 515.772 87.0623C516.566 86.6658 517.308 86.1311 517.986 85.4622L519.646 83.7779L520.636 58.3359L526.106 60.595L524.84 75.7432Z" fill="#F5F4F3"/>
<path id="Fill 215" fill-rule="evenodd" clip-rule="evenodd" d="M570.393 100.289C569.123 101.102 567.387 101.599 565.181 101.775C562.973 101.951 560.439 101.448 557.579 100.267C553.961 98.7727 551.453 96.3956 550.061 93.1352C548.667 89.8748 548.717 86.4262 550.215 82.7894L552.803 76.507C554.301 72.8701 556.629 70.3608 559.779 68.9789C562.935 67.5971 566.259 67.6271 569.753 69.0711C573.287 70.533 575.677 72.5377 576.921 75.0911C578.163 77.6425 578.231 80.3261 577.119 83.1399L577.027 83.248L572.281 81.2874C572.851 79.5871 572.811 78.013 572.163 76.5571C571.517 75.1051 570.177 73.9616 568.155 73.1265C566.077 72.2693 564.083 72.3555 562.169 73.3828C560.255 74.4142 558.805 76.1265 557.819 78.5217L555.217 84.8401C554.219 87.2614 554.089 89.5404 554.827 91.6733C555.567 93.8081 557.037 95.3281 559.239 96.2393C560.809 96.8862 562.153 97.2287 563.281 97.2687C564.409 97.3068 565.295 97.1706 565.937 96.8582L568.451 90.756L562.487 88.2927L564.035 84.5317L575.017 89.0658L570.393 100.289Z" fill="#F5F4F3"/>
<path id="Fill 217" fill-rule="evenodd" clip-rule="evenodd" d="M589.483 109.116C588.293 110.013 587.029 110.558 585.693 110.756C584.357 110.952 582.985 110.76 581.583 110.181C579.189 109.194 577.631 107.656 576.915 105.569C576.193 103.482 576.501 100.829 577.829 97.6042L583.337 84.2344L588.329 86.2951L582.805 99.709C581.999 101.664 581.751 103.166 582.063 104.213C582.369 105.258 583.165 106.048 584.445 106.576C585.655 107.075 586.759 107.279 587.757 107.183C588.755 107.085 589.657 106.722 590.463 106.088L597.121 89.926L602.137 91.9987L592.929 114.359L588.553 112.552L589.483 109.116Z" fill="#F5F4F3"/>
<path id="Fill 219" fill-rule="evenodd" clip-rule="evenodd" d="M606.934 115.937C608.2 116.461 609.472 116.613 610.742 116.397C612.014 116.181 612.982 115.734 613.646 115.057L615.008 111.751L611.028 110.107C609.566 109.504 608.278 109.394 607.154 109.776C606.03 110.159 605.268 110.84 604.864 111.817C604.512 112.672 604.51 113.465 604.862 114.198C605.212 114.931 605.904 115.51 606.934 115.937ZM611.604 122.071C611.658 121.434 611.736 120.821 611.842 120.236C611.946 119.651 612.088 119.081 612.268 118.526C611.146 119.289 609.882 119.794 608.47 120.04C607.056 120.286 605.654 120.124 604.264 119.549C601.938 118.588 600.398 117.25 599.648 115.54C598.896 113.826 598.952 111.923 599.814 109.828C600.706 107.665 602.252 106.334 604.458 105.833C606.658 105.332 609.308 105.719 612.402 106.998L616.304 108.611L617.112 106.646C617.594 105.474 617.63 104.417 617.214 103.472C616.798 102.527 615.95 101.792 614.67 101.261C613.53 100.79 612.508 100.69 611.606 100.962C610.704 101.237 610.074 101.806 609.718 102.673L604.89 100.68L604.918 100.546C605.55 98.7435 606.98 97.5058 609.214 96.8309C611.448 96.158 613.906 96.3743 616.59 97.4838C619.19 98.5572 621.014 100.085 622.066 102.068C623.118 104.049 623.132 106.282 622.11 108.761L618.016 118.7C617.636 119.623 617.332 120.535 617.11 121.432C616.882 122.329 616.74 123.242 616.682 124.169L611.604 122.071Z" fill="#F5F4F3"/>
<path id="Fill 221" fill-rule="evenodd" clip-rule="evenodd" d="M639.629 112.778L637.515 111.809C636.539 111.403 635.641 111.274 634.817 111.419C633.993 111.563 633.245 111.939 632.575 112.548L626.173 128.091L621.159 126.016L630.367 103.656L634.949 105.551L633.945 108.931C634.979 108.02 636.075 107.425 637.229 107.143C638.381 106.863 639.539 106.961 640.693 107.437C640.997 107.563 641.269 107.704 641.507 107.86C641.751 108.016 641.969 108.174 642.161 108.334L639.629 112.778Z" fill="#F5F4F3"/>
<path id="Fill 223" fill-rule="evenodd" clip-rule="evenodd" d="M644.559 131.476C645.825 131.998 647.095 132.153 648.367 131.934C649.639 131.72 650.607 131.271 651.271 130.596L652.633 127.29L648.653 125.646C647.191 125.043 645.901 124.931 644.779 125.315C643.655 125.698 642.893 126.379 642.489 127.356C642.137 128.211 642.135 129.004 642.487 129.737C642.835 130.47 643.527 131.049 644.559 131.476ZM649.229 137.61C649.281 136.973 649.359 136.36 649.465 135.775C649.571 135.188 649.711 134.62 649.891 134.065C648.771 134.828 647.507 135.333 646.095 135.579C644.681 135.825 643.277 135.663 641.887 135.088C639.563 134.127 638.023 132.789 637.271 131.077C636.521 129.365 636.577 127.462 637.439 125.367C638.331 123.204 639.877 121.873 642.081 121.372C644.281 120.869 646.933 121.258 650.027 122.538L653.929 124.15L654.737 122.185C655.219 121.014 655.253 119.956 654.839 119.011C654.423 118.066 653.575 117.329 652.295 116.8C651.153 116.329 650.131 116.229 649.231 116.501C648.329 116.774 647.699 117.345 647.343 118.212L642.515 116.217L642.543 116.085C643.175 114.283 644.605 113.043 646.839 112.37C649.073 111.697 651.531 111.913 654.215 113.023C656.815 114.096 658.639 115.624 659.689 117.605C660.741 119.586 660.757 121.819 659.735 124.298L655.641 134.239C655.261 135.162 654.957 136.072 654.733 136.971C654.507 137.868 654.365 138.781 654.305 139.706L649.229 137.61Z" fill="#F5F4F3"/>
<path id="Fill 225" fill-rule="evenodd" clip-rule="evenodd" d="M672.535 121.072L671.495 124.415C672.695 123.574 673.981 123.059 675.351 122.877C676.723 122.694 678.105 122.889 679.493 123.461C681.819 124.423 683.341 125.877 684.059 127.827C684.777 129.776 684.521 132.245 683.289 135.235L677.501 149.288L672.487 147.217L678.257 133.206C678.949 131.524 679.093 130.186 678.693 129.191C678.289 128.194 677.379 127.403 675.963 126.818C674.985 126.413 674.023 126.269 673.073 126.385C672.125 126.501 671.245 126.836 670.439 127.389L663.757 143.612L658.743 141.54L667.953 119.18L672.535 121.072Z" fill="#F5F4F3"/>
<path id="Fill 227" fill-rule="evenodd" clip-rule="evenodd" d="M700.404 126.227L698.164 131.662L702.172 133.316L700.638 137.035L696.632 135.381L691.542 147.74C691.162 148.663 691.09 149.402 691.328 149.963C691.566 150.517 692.014 150.934 692.676 151.206C692.948 151.318 693.228 151.406 693.508 151.467C693.788 151.527 694.064 151.563 694.334 151.577L693.356 155.476C692.832 155.536 692.248 155.508 691.602 155.394C690.956 155.282 690.316 155.091 689.684 154.831C687.84 154.07 686.618 152.932 686.02 151.418C685.416 149.904 685.594 147.992 686.546 145.677L691.638 133.318L688.234 131.912L689.766 128.191L693.172 129.599L695.41 124.164L700.404 126.227Z" fill="#F5F4F3"/>
<path id="Fill 229" fill-rule="evenodd" clip-rule="evenodd" d="M714.139 142.49C712.899 141.977 711.679 142.049 710.473 142.706C709.269 143.361 708.263 144.407 707.443 145.843L707.441 145.963L716.295 149.622L716.509 149.105C717.095 147.685 717.211 146.377 716.855 145.184C716.501 143.99 715.597 143.093 714.139 142.49ZM706.815 161.906C703.651 160.598 701.557 158.522 700.533 155.674C699.509 152.822 699.667 149.772 701.005 146.521L701.347 145.694C702.685 142.444 704.727 140.131 707.475 138.759C710.223 137.387 712.997 137.285 715.799 138.459C718.813 139.704 720.743 141.571 721.595 144.058C722.443 146.544 722.237 149.325 720.971 152.397L719.755 155.353L705.825 149.6L705.741 149.686C705.093 151.49 705.015 153.154 705.509 154.674C706.001 156.194 707.093 157.304 708.785 158.005C710.133 158.56 711.357 158.874 712.457 158.94C713.555 159.008 714.681 158.916 715.831 158.666L716.085 162.623C714.935 163.024 713.561 163.194 711.961 163.134C710.361 163.07 708.645 162.661 706.815 161.906Z" fill="#F5F4F3"/>
<path id="Fill 231" fill-rule="evenodd" clip-rule="evenodd" d="M736.51 151.727C735.27 151.217 734.05 151.289 732.844 151.944C731.64 152.6 730.632 153.646 729.814 155.082L729.812 155.202L738.666 158.859L738.88 158.342C739.466 156.922 739.58 155.617 739.226 154.421C738.872 153.227 737.968 152.33 736.51 151.727ZM729.186 171.143C726.022 169.837 723.928 167.761 722.904 164.911C721.88 162.061 722.038 159.011 723.376 155.759L723.718 154.934C725.056 151.681 727.098 149.368 729.846 147.996C732.594 146.624 735.368 146.524 738.17 147.698C741.182 148.942 743.114 150.808 743.966 153.295C744.814 155.783 744.608 158.564 743.342 161.635L742.126 164.59L728.196 158.837L728.112 158.923C727.464 160.729 727.386 162.392 727.88 163.914C728.372 165.434 729.464 166.543 731.154 167.242C732.504 167.799 733.728 168.111 734.828 168.177C735.926 168.245 737.052 168.153 738.202 167.903L738.454 171.862C737.306 172.261 735.932 172.433 734.332 172.371C732.73 172.309 731.016 171.9 729.186 171.143Z" fill="#F5F4F3"/>
</g>
<path id="Fill 234" fill-rule="evenodd" clip-rule="evenodd" d="M521.434 310.319L519.127 339.161L516.819 310.319L519.127 281.48L521.434 310.319Z" fill="white"/>
<path id="Fill 235" fill-rule="evenodd" clip-rule="evenodd" d="M520.281 313.782L491.44 311.475L520.281 309.168L549.12 311.475L520.281 313.782Z" fill="white"/>
<path id="Fill 236" fill-rule="evenodd" clip-rule="evenodd" d="M426.837 361.079L425.683 380.692L424.53 361.079L425.683 341.469L426.837 361.079Z" fill="white"/>
<path id="Fill 237" fill-rule="evenodd" clip-rule="evenodd" d="M425.685 362.233L406.072 361.079L425.685 359.926L445.295 361.079L425.685 362.233Z" fill="white"/>
</g>
</g>
</g>
</svg>
