<svg width="384" height="250" viewBox="0 0 384 250" fill="none" xmlns="http://www.w3.org/2000/svg">
<g id="Property 1=Variant4">
<g id="Frame 331">
<g id="Scene Illustration">
<rect id="Mask" x="0.386719" width="383" height="250" rx="18.7401" fill="#F5F4F3"/>
<mask id="mask0_8528_6649" style="mask-type:luminance" maskUnits="userSpaceOnUse" x="0" y="0" width="384" height="250">
<rect id="Mask_2" x="0.386719" width="383" height="250" rx="18.7401" fill="white"/>
</mask>
<g mask="url(#mask0_8528_6649)">
<ellipse id="Ellipse 318" cx="186.088" cy="206.49" rx="165.336" ry="165.683" fill="#EBDDB9"/>
<g id="Group 1892">
<path id="Fill 8" fill-rule="evenodd" clip-rule="evenodd" d="M391.401 250H-12.5412V233.941H391.401V250Z" fill="#666B70"/>
<g id="Group 70">
<path id="Fill 10" fill-rule="evenodd" clip-rule="evenodd" d="M171.477 220.837L180.87 221.624L237.579 224.096L249.363 225.214L419.205 224.212L497.181 220.837L505.733 193.026L478.569 167.566H197.366L168.662 185.477L171.477 220.837Z" fill="black"/>
<path id="Fill 11" fill-rule="evenodd" clip-rule="evenodd" d="M534.648 187.215C534.648 187.215 529.338 184.863 530.517 178.398C531.698 171.93 529.927 166.052 529.927 166.052C529.927 166.052 529.338 158.996 531.403 150.177C533.469 141.359 527.567 139.008 527.567 139.008C525.796 136.068 503.179 118.048 503.179 118.048C503.179 118.048 516.749 113.737 507.701 110.995C498.656 108.251 462.468 103.547 462.468 103.547C406.617 99.2361 368.071 96.8866 334.639 103.547C301.208 110.21 258.925 143.52 255.975 144.697C253.025 145.872 247.321 147.049 247.321 147.049C178.491 152.535 164.004 160.62 154.86 164.441C145.715 168.261 144.387 177.372 144.387 177.372L144.039 191.331C141.679 192.506 141.679 196.328 141.679 196.328C141.679 196.328 143.091 210.73 144.074 217.981C145.058 225.231 169.248 222.487 169.248 222.487L173.582 222.776C173.582 222.776 173.386 213.586 173.837 208.379C173.837 208.379 172.066 180.747 209.534 176.633C247.002 172.517 247.002 212.788 247.002 212.788C247.002 212.788 245.871 225.72 248.502 227.778H417.389C423.289 227.778 422.697 222.34 422.697 222.34C422.547 207.989 424.545 202.051 427.464 196.035C433.456 183.689 452.44 175.068 471.122 179.575C501.476 186.897 494.525 217.492 494.23 219.844C493.935 222.193 495.803 223.066 495.803 223.066L496.885 222.998C496.885 222.998 520.783 219.256 527.862 216.317C534.943 213.376 536.124 211.907 538.484 200.442C540.843 188.979 534.648 187.215 534.648 187.215Z" fill="#62A744"/>
<path id="Fill 12" fill-rule="evenodd" clip-rule="evenodd" d="M538.484 200.442C539.602 195.008 538.799 191.756 537.644 189.834C537.69 189.998 540.418 200.551 499.05 201.913C499.05 201.913 493.346 173.398 465.024 173.985C465.024 173.985 438.471 172.81 428.441 186.331C418.41 199.854 419.591 209.259 419.591 209.259C419.591 209.259 265.416 212.884 251.65 213.277C251.65 213.277 250.667 174.283 216.644 172.543C216.644 172.543 196.78 169.777 180.623 183.166C180.623 183.166 167.414 195.642 170.003 213.082C170.003 213.082 160.856 210.73 157.906 216.021C154.956 221.312 144.558 219.284 144.558 219.284C148.137 224.88 169.248 222.486 169.248 222.486L173.584 222.776C173.584 222.776 173.386 213.584 173.837 208.378C173.837 208.378 172.068 180.747 209.536 176.633C247.004 172.517 247.004 212.788 247.004 212.788C247.004 212.788 245.871 225.717 248.502 227.777H417.389C423.289 227.777 422.699 222.34 422.699 222.34C422.547 207.986 424.545 202.051 427.464 196.034C433.456 183.686 452.44 175.068 471.124 179.574C501.478 186.897 494.527 217.489 494.23 219.841C493.935 222.193 495.803 223.065 495.803 223.065L496.887 222.995C496.887 222.995 520.783 219.254 527.864 216.314C534.945 213.375 536.124 211.907 538.484 200.442Z" fill="#222222"/>
<path id="Fill 13" fill-rule="evenodd" clip-rule="evenodd" d="M415.342 225.214C410.477 223.745 394.87 219.145 389.665 218.969C383.471 218.761 282.457 220.085 282.457 220.085C282.457 220.085 268.691 220.085 261.218 224.545V225.214" fill="#343434"/>
<path id="Fill 14" fill-rule="evenodd" clip-rule="evenodd" d="M245.603 181.234C291.376 172.309 419.206 166.054 445.605 166.214L441.232 174.876C441.232 174.876 425.106 178.795 419.206 197.214C419.206 197.214 372.007 188.449 271.71 193.295C271.71 193.295 285.124 203.68 295.152 206.031C295.152 206.031 278.619 212.71 256.173 213.177C256.173 213.177 254.994 192.037 245.603 181.234Z" fill="#306700"/>
<path id="Fill 15" fill-rule="evenodd" clip-rule="evenodd" d="M291.178 204.774C291.178 204.774 397.917 200.763 406.397 195.461C406.397 195.461 416.56 196.55 419.207 197.212L415.309 209.363C415.309 209.363 265.997 212.85 258.824 213.065C258.824 213.065 291.373 208.024 291.178 204.774Z" fill="#306700"/>
<path id="Fill 16" fill-rule="evenodd" clip-rule="evenodd" d="M184.195 162.332C184.195 162.332 189.307 165.681 190.291 167.338C191.274 168.995 194.816 161.157 240.44 158.806C240.44 158.806 211.531 155.082 184.195 162.332Z" fill="#306700"/>
<path id="Fill 17" fill-rule="evenodd" clip-rule="evenodd" d="M144.558 201.643L146.696 215.904C146.696 215.904 152.301 217.382 155.84 213.176C159.382 208.967 153.777 203.389 153.777 203.389C153.777 203.389 147.114 203.755 144.558 201.643Z" fill="#222222"/>
<path id="Fill 18" fill-rule="evenodd" clip-rule="evenodd" d="M159.706 184.431C154.957 182.804 151.859 184.067 149.721 181.231C149.721 181.231 147.429 180.564 144.341 179.256L144.041 191.33C141.681 192.505 141.681 196.327 141.681 196.327C141.681 196.327 141.763 197.154 141.899 198.506C143.274 199.192 144.213 199.644 144.213 199.644C144.213 199.644 149.778 202.131 153.909 201.237C158.038 200.345 160.203 209.349 160.203 209.349C160.203 209.349 164.528 208.752 166.692 209.349C166.692 209.349 165.473 194.973 177.194 181.59C177.194 181.59 164.455 186.057 159.706 184.431Z" fill="#306700"/>
<path id="Fill 19" fill-rule="evenodd" clip-rule="evenodd" d="M242.317 216.576C242.317 234.331 227.872 248.722 210.054 248.722C192.234 248.722 177.788 234.331 177.788 216.576C177.788 198.821 192.234 184.43 210.054 184.43C227.872 184.43 242.317 198.821 242.317 216.576Z" fill="#121615"/>
<path id="Fill 20" fill-rule="evenodd" clip-rule="evenodd" d="M210.686 188.153C212.25 188.186 213.781 188.346 215.274 188.622L216.214 183.912C214.416 183.579 212.571 183.389 210.686 183.354V188.153Z" fill="#121615"/>
<path id="Fill 21" fill-rule="evenodd" clip-rule="evenodd" d="M194.065 193.021C195.326 192.171 196.659 191.419 198.051 190.774L196.206 186.334C194.521 187.101 192.911 188.004 191.388 189.03L194.065 193.021Z" fill="#121615"/>
<path id="Fill 22" fill-rule="evenodd" clip-rule="evenodd" d="M204.833 188.622C206.324 188.349 207.857 188.189 209.419 188.153V183.354C207.534 183.389 205.688 183.579 203.893 183.915L204.833 188.622Z" fill="#121615"/>
<path id="Fill 23" fill-rule="evenodd" clip-rule="evenodd" d="M199.212 190.272C200.62 189.696 202.085 189.227 203.596 188.878L202.654 184.168C200.831 184.58 199.064 185.141 197.368 185.836L199.212 190.272Z" fill="#121615"/>
<path id="Fill 24" fill-rule="evenodd" clip-rule="evenodd" d="M182.017 198.571L186.023 201.238C186.839 199.974 187.752 198.777 188.752 197.661L185.338 194.26C184.118 195.601 183.007 197.043 182.017 198.571Z" fill="#121615"/>
<path id="Fill 25" fill-rule="evenodd" clip-rule="evenodd" d="M181.921 211.78C182.172 210.318 182.531 208.891 182.997 207.515L178.538 205.674C177.955 207.34 177.504 209.067 177.194 210.844L181.921 211.78Z" fill="#121615"/>
<path id="Fill 26" fill-rule="evenodd" clip-rule="evenodd" d="M183.428 206.327C183.97 204.933 184.616 203.594 185.362 202.316L181.35 199.646C180.432 201.185 179.636 202.803 178.974 204.488L183.428 206.327Z" fill="#121615"/>
<path id="Fill 27" fill-rule="evenodd" clip-rule="evenodd" d="M234.743 202.318C235.489 203.596 236.136 204.935 236.677 206.329L241.129 204.49C240.469 202.805 239.673 201.185 238.756 199.646L234.743 202.318Z" fill="#121615"/>
<path id="Fill 28" fill-rule="evenodd" clip-rule="evenodd" d="M187.382 233.848L183.368 236.519C184.393 237.878 185.519 239.154 186.735 240.34L190.141 236.945C189.149 235.98 188.227 234.946 187.382 233.848Z" fill="#121615"/>
<path id="Fill 29" fill-rule="evenodd" clip-rule="evenodd" d="M232.724 233.848C231.88 234.946 230.958 235.98 229.966 236.945L233.371 240.34C234.588 239.154 235.716 237.878 236.739 236.519L232.724 233.848Z" fill="#121615"/>
<path id="Fill 30" fill-rule="evenodd" clip-rule="evenodd" d="M181.515 216.579C181.515 215.376 181.59 214.19 181.738 213.026L177.002 212.088C176.804 213.556 176.698 215.056 176.698 216.579C176.698 216.842 176.702 217.105 176.709 217.368H181.526C181.52 217.105 181.515 216.842 181.515 216.579Z" fill="#121615"/>
<path id="Fill 31" fill-rule="evenodd" clip-rule="evenodd" d="M223.9 186.338L222.054 190.778C223.446 191.423 224.78 192.175 226.04 193.025L228.717 189.032C227.197 188.008 225.585 187.105 223.9 186.338Z" fill="#121615"/>
<path id="Fill 32" fill-rule="evenodd" clip-rule="evenodd" d="M216.511 188.878C218.022 189.227 219.485 189.696 220.895 190.272L222.738 185.838C221.042 185.141 219.276 184.58 217.45 184.168L216.511 188.878Z" fill="#121615"/>
<path id="Fill 33" fill-rule="evenodd" clip-rule="evenodd" d="M182.219 222.87C181.906 221.492 181.693 220.074 181.59 218.627H176.763C176.871 220.394 177.118 222.125 177.492 223.806L182.219 222.87Z" fill="#121615"/>
<path id="Fill 34" fill-rule="evenodd" clip-rule="evenodd" d="M231.357 197.663C232.358 198.781 233.271 199.975 234.085 201.24L238.093 198.573C237.103 197.045 235.99 195.605 234.769 194.264L231.357 197.663Z" fill="#121615"/>
<path id="Fill 35" fill-rule="evenodd" clip-rule="evenodd" d="M241.567 205.674L237.108 207.515C237.572 208.891 237.933 210.318 238.182 211.78L242.911 210.844C242.601 209.067 242.148 207.342 241.567 205.674Z" fill="#121615"/>
<path id="Fill 36" fill-rule="evenodd" clip-rule="evenodd" d="M238.513 218.627C238.41 220.074 238.199 221.492 237.887 222.87L242.612 223.806C242.988 222.125 243.232 220.394 243.342 218.627H238.513Z" fill="#121615"/>
<path id="Fill 37" fill-rule="evenodd" clip-rule="evenodd" d="M224.705 240.98C223.539 241.677 222.32 242.291 221.055 242.819L222.901 247.255C224.458 246.607 225.956 245.844 227.384 244.978L224.705 240.98Z" fill="#121615"/>
<path id="Fill 38" fill-rule="evenodd" clip-rule="evenodd" d="M235.616 229.229C234.989 230.484 234.271 231.688 233.471 232.83L237.479 235.497C238.453 234.096 239.324 232.617 240.079 231.07L235.616 229.229Z" fill="#121615"/>
<path id="Fill 39" fill-rule="evenodd" clip-rule="evenodd" d="M229.037 237.805C228.014 238.714 226.923 239.552 225.774 240.31L228.452 244.301C229.862 243.37 231.199 242.335 232.448 241.204L229.037 237.805Z" fill="#121615"/>
<path id="Fill 40" fill-rule="evenodd" clip-rule="evenodd" d="M237.579 224.096C237.201 225.47 236.723 226.805 236.154 228.087L240.606 229.926C241.299 228.354 241.873 226.721 242.315 225.034L237.579 224.096Z" fill="#121615"/>
<path id="Fill 41" fill-rule="evenodd" clip-rule="evenodd" d="M189.613 196.737C190.671 195.654 191.815 194.654 193.033 193.751L190.356 189.756C188.874 190.839 187.488 192.037 186.205 193.342L189.613 196.737Z" fill="#121615"/>
<path id="Fill 42" fill-rule="evenodd" clip-rule="evenodd" d="M227.072 193.751C228.29 194.657 229.434 195.656 230.492 196.739L233.9 193.344C232.619 192.037 231.231 190.839 229.751 189.756L227.072 193.751Z" fill="#121615"/>
<path id="Fill 43" fill-rule="evenodd" clip-rule="evenodd" d="M243.103 212.088L238.367 213.026C238.514 214.19 238.589 215.376 238.589 216.577C238.589 216.842 238.584 217.103 238.578 217.366H243.398C243.402 217.103 243.406 216.84 243.406 216.577C243.406 215.053 243.301 213.556 243.103 212.088Z" fill="#121615"/>
<path id="Fill 44" fill-rule="evenodd" clip-rule="evenodd" d="M194.33 240.308C193.182 239.552 192.091 238.714 191.068 237.805L187.656 241.204C188.906 242.333 190.243 243.367 191.653 244.299L194.33 240.308Z" fill="#121615"/>
<path id="Fill 45" fill-rule="evenodd" clip-rule="evenodd" d="M183.952 228.087C183.38 226.803 182.903 225.47 182.527 224.096L177.789 225.034C178.233 226.719 178.807 228.354 179.5 229.924L183.952 228.087Z" fill="#121615"/>
<path id="Fill 46" fill-rule="evenodd" clip-rule="evenodd" d="M219.88 243.281C218.615 243.744 217.308 244.116 215.969 244.399L216.908 249.109C218.562 248.765 220.17 248.298 221.725 247.72L219.88 243.281Z" fill="#121615"/>
<path id="Fill 47" fill-rule="evenodd" clip-rule="evenodd" d="M186.634 232.83C185.834 231.688 185.116 230.484 184.49 229.229L180.029 231.07C180.781 232.617 181.652 234.096 182.629 235.497L186.634 232.83Z" fill="#121615"/>
<path id="Fill 48" fill-rule="evenodd" clip-rule="evenodd" d="M199.048 242.819C197.783 242.291 196.565 241.677 195.399 240.98L192.719 244.976C194.147 245.844 195.645 246.607 197.205 247.255L199.048 242.819Z" fill="#121615"/>
<path id="Fill 49" fill-rule="evenodd" clip-rule="evenodd" d="M204.138 244.399C202.798 244.118 201.491 243.744 200.227 243.281L198.381 247.72C199.936 248.298 201.544 248.765 203.198 249.109L204.138 244.399Z" fill="#121615"/>
<path id="Fill 50" fill-rule="evenodd" clip-rule="evenodd" d="M214.724 244.633C213.407 244.85 212.058 244.977 210.683 245.005V249.808C212.379 249.775 214.042 249.617 215.666 249.343L214.724 244.633Z" fill="#121615"/>
<path id="Fill 51" fill-rule="evenodd" clip-rule="evenodd" d="M209.421 245.005C208.048 244.975 206.699 244.848 205.382 244.633L204.44 249.343C206.064 249.617 207.727 249.775 209.421 249.805V245.005Z" fill="#121615"/>
<path id="Fill 52" fill-rule="evenodd" clip-rule="evenodd" d="M240.803 216.58C240.803 233.502 227.035 247.218 210.053 247.218C193.069 247.218 179.301 233.502 179.301 216.58C179.301 199.657 193.069 185.941 210.053 185.941C227.035 185.941 240.803 199.657 240.803 216.58Z" fill="#252525"/>
<path id="Fill 53" fill-rule="evenodd" clip-rule="evenodd" d="M234.687 216.576C234.687 230.132 223.657 241.12 210.054 241.12C196.449 241.12 185.419 230.132 185.419 216.576C185.419 203.02 196.449 192.033 210.054 192.033C223.657 192.033 234.687 203.02 234.687 216.576Z" fill="#1A1A1A"/>
<path id="Fill 54" fill-rule="evenodd" clip-rule="evenodd" d="M217.307 216.578C217.307 220.569 214.058 223.806 210.052 223.806C206.046 223.806 202.797 220.569 202.797 216.578C202.797 212.587 206.046 209.35 210.052 209.35C214.058 209.35 217.307 212.587 217.307 216.578Z" fill="#535353"/>
<path id="Fill 55" fill-rule="evenodd" clip-rule="evenodd" d="M214.415 224.074C215.585 224.074 216.723 224.701 217.622 225.508C219.241 227.509 220.412 229.869 221.28 231.423C222 233.185 221.94 234.858 219.782 236.261C216.305 238.413 212.616 239.577 208.599 239.068C206.47 238.5 207.279 236.949 207.581 235.993C208.96 232.798 209.589 230.676 210.308 228.436C211.386 225.179 212.917 224.103 214.415 224.074ZM201.942 222.49C205.899 222.46 206.441 225.298 205.93 227.597C205.061 229.986 203.592 232.198 202.661 233.721C201.524 235.244 200.055 236.022 197.716 234.885C194.089 232.973 191.24 230.376 189.652 226.67C189.052 224.551 190.82 224.461 191.81 224.252C195.257 223.834 197.446 223.297 199.725 222.758C200.563 222.58 201.313 222.519 201.942 222.49ZM226.618 214.099H228.508C230.395 214.307 231.834 215.144 232.045 217.713C232.285 221.805 231.535 225.568 229.196 228.856C227.668 230.438 226.678 228.974 225.989 228.258C223.829 225.54 222.241 223.955 220.622 222.283C216.455 217.862 218.943 215.383 221.552 214.487C223.29 214.158 225.089 214.099 226.618 214.099ZM192.289 203.284C193.129 203.284 193.728 204.121 194.179 204.63C196.277 207.407 197.835 209.02 199.425 210.753C203.47 215.262 200.954 217.681 198.314 218.519C195.796 218.937 193.129 218.786 191.359 218.758C189.471 218.519 188.061 217.622 187.881 215.054C187.731 210.962 188.572 207.198 191 203.972C191.48 203.494 191.9 203.315 192.289 203.284ZM220.173 197.548C220.772 197.519 221.432 197.699 222.212 198.056C225.84 199.908 228.748 202.477 230.367 206.153C230.996 208.272 229.227 208.392 228.238 208.601C224.791 209.079 222.63 209.646 220.323 210.185C214.386 211.498 213.517 208.123 214.056 205.434C214.927 203.016 216.366 200.805 217.265 199.251C218.044 198.236 218.944 197.548 220.173 197.548ZM209.739 193.786C210.249 193.786 210.729 193.786 211.237 193.845C213.397 194.354 212.587 195.967 212.317 196.894C211.028 200.149 210.427 202.301 209.798 204.541C208.029 210.336 204.642 209.44 202.543 207.616C200.865 205.674 199.635 203.344 198.736 201.793C197.985 200.059 198.016 198.417 200.115 196.923C203.113 194.981 206.292 193.786 209.739 193.786ZM210.069 193.248C197.117 193.248 186.624 203.672 186.624 216.577C186.624 229.451 197.117 239.906 210.069 239.906C222.99 239.906 233.483 229.451 233.483 216.577C233.483 203.672 222.99 193.248 210.069 193.248Z" fill="#E0E0E0"/>
<path id="Fill 56" fill-rule="evenodd" clip-rule="evenodd" d="M210.045 211.102C213.08 211.102 215.54 213.555 215.54 216.577C215.54 219.602 213.08 222.054 210.045 222.054C207.009 222.054 204.55 219.602 204.55 216.577C204.55 213.555 207.009 211.102 210.045 211.102ZM210.045 208.734C205.697 208.734 202.186 212.246 202.186 216.579C202.186 220.914 205.697 224.423 210.045 224.423C214.394 224.423 217.918 220.914 217.918 216.579C217.918 212.246 214.394 208.734 210.045 208.734Z" fill="#1A1A1A"/>
<path id="Fill 57" fill-rule="evenodd" clip-rule="evenodd" d="M210.918 209.787C210.918 210.263 210.531 210.649 210.054 210.649C209.574 210.649 209.187 210.263 209.187 209.787C209.187 209.312 209.574 208.926 210.054 208.926C210.531 208.926 210.918 209.312 210.918 209.787Z" fill="#535353"/>
<path id="Fill 58" fill-rule="evenodd" clip-rule="evenodd" d="M210.918 223.74C210.918 224.216 210.531 224.602 210.054 224.602C209.574 224.602 209.187 224.216 209.187 223.74C209.187 223.265 209.574 222.879 210.054 222.879C210.531 222.879 210.918 223.265 210.918 223.74Z" fill="#535353"/>
<path id="Fill 59" fill-rule="evenodd" clip-rule="evenodd" d="M203.052 215.903C203.53 215.903 203.917 216.289 203.917 216.765C203.917 217.243 203.53 217.628 203.052 217.628C202.575 217.628 202.188 217.243 202.188 216.765C202.188 216.289 202.575 215.903 203.052 215.903Z" fill="#535353"/>
<path id="Fill 60" fill-rule="evenodd" clip-rule="evenodd" d="M217.055 215.903C217.532 215.903 217.919 216.289 217.919 216.765C217.919 217.243 217.532 217.628 217.055 217.628C216.577 217.628 216.19 217.243 216.19 216.765C216.19 216.289 216.577 215.903 217.055 215.903Z" fill="#535353"/>
<path id="Fill 61" fill-rule="evenodd" clip-rule="evenodd" d="M205.714 211.223C206.052 211.56 206.052 212.106 205.714 212.442C205.375 212.779 204.827 212.779 204.491 212.442C204.152 212.106 204.152 211.56 204.491 211.223C204.827 210.885 205.375 210.885 205.714 211.223Z" fill="#535353"/>
<path id="Fill 62" fill-rule="evenodd" clip-rule="evenodd" d="M215.614 221.086C215.953 221.424 215.953 221.969 215.614 222.305C215.275 222.642 214.728 222.642 214.391 222.305C214.052 221.969 214.052 221.424 214.391 221.086C214.728 220.749 215.275 220.749 215.614 221.086Z" fill="#535353"/>
<path id="Fill 63" fill-rule="evenodd" clip-rule="evenodd" d="M214.391 211.223C214.052 211.56 214.052 212.106 214.391 212.442C214.73 212.779 215.278 212.779 215.614 212.442C215.953 212.106 215.953 211.56 215.614 211.223C215.278 210.885 214.73 210.885 214.391 211.223Z" fill="#535353"/>
<path id="Fill 64" fill-rule="evenodd" clip-rule="evenodd" d="M204.491 221.086C204.152 221.424 204.152 221.969 204.491 222.305C204.829 222.642 205.377 222.642 205.714 222.305C206.052 221.969 206.052 221.424 205.714 221.086C205.377 220.749 204.829 220.749 204.491 221.086Z" fill="#535353"/>
<path id="Fill 65" fill-rule="evenodd" clip-rule="evenodd" d="M258.823 148.831C258.823 148.831 289.839 123.733 313.794 113.344C313.794 113.344 318.161 110.285 321.396 107.365C291.014 118.322 258.669 143.674 256.102 144.697C254.566 145.309 252.285 145.92 250.451 146.367L258.823 148.831Z" fill="#252A31"/>
<path id="Fill 66" fill-rule="evenodd" clip-rule="evenodd" d="M156.483 166.499C156.483 166.499 143.357 172.084 153.68 179.43C153.68 179.43 157.809 178.99 160.022 180.754C162.235 182.516 170.495 178.843 170.495 178.843C170.495 178.843 179.047 170.466 184.505 169.585C189.962 168.704 187.602 166.058 182.145 164.441C176.689 162.826 159.333 164.897 156.483 166.499Z" fill="#E5E5E5"/>
<path id="Fill 67" fill-rule="evenodd" clip-rule="evenodd" d="M264.113 149.294C264.113 149.294 306.007 114.02 338.457 109.317C370.91 104.614 428.734 109.317 428.734 109.317C428.734 109.317 455.287 109.611 471.218 118.43C471.218 118.43 482.43 123.289 482.234 128.26C482.234 128.26 481.447 132.863 478.596 135.094C475.842 137.251 463.91 138.36 463.91 138.36C463.91 138.36 454.113 140.045 446.73 140.475C441.301 140.793 406.018 143.71 406.018 143.71C406.018 143.71 379.016 145.569 363.24 146.649C316.055 149.882 278.864 152.856 264.113 149.294Z" fill="#131519"/>
<path id="Fill 68" fill-rule="evenodd" clip-rule="evenodd" d="M274.736 148.12C274.736 148.12 313.234 110.562 361.472 110.715L349.081 145.181C349.081 145.181 286.243 150.765 274.736 148.12Z" fill="#1B1B1B"/>
<path id="Fill 69" fill-rule="evenodd" clip-rule="evenodd" d="M373.176 110.716L370.618 144.004C370.618 144.004 439.652 140.771 441.718 139.301L429.916 112.846C429.916 112.846 405.932 109.863 373.176 110.716Z" fill="#1B1B1B"/>
</g>
<g id="Group 73">
<mask id="mask1_8528_6649" style="mask-type:alpha" maskUnits="userSpaceOnUse" x="326" y="110" width="35" height="37">
<path id="Clip 72" fill-rule="evenodd" clip-rule="evenodd" d="M360.271 114.058L359.822 115.311L333.194 146.471C330.99 146.636 328.634 146.811 326.177 146.982L357.092 110.809C357.486 110.792 357.88 110.777 358.276 110.766C358.958 111.855 359.622 112.949 360.271 114.058Z" fill="white"/>
</mask>
<g mask="url(#mask1_8528_6649)">
<path id="Fill 71" fill-rule="evenodd" clip-rule="evenodd" d="M360.271 114.058L359.822 115.311L333.194 146.471C330.99 146.636 328.634 146.811 326.177 146.982L357.092 110.809C357.486 110.792 357.88 110.777 358.276 110.766C358.958 111.855 359.622 112.949 360.271 114.058Z" fill="url(#paint0_linear_8528_6649)"/>
</g>
</g>
<g id="Group 76">
<mask id="mask2_8528_6649" style="mask-type:alpha" maskUnits="userSpaceOnUse" x="331" y="156" width="12" height="9">
<path id="Clip 75" fill-rule="evenodd" clip-rule="evenodd" d="M342.41 160.614C342.41 162.806 340.021 164.583 337.075 164.583C334.13 164.583 331.743 162.806 331.743 160.614C331.743 158.422 334.13 156.645 337.075 156.645C340.021 156.645 342.41 158.422 342.41 160.614Z" fill="white"/>
</mask>
<g mask="url(#mask2_8528_6649)">
<path id="Fill 74" fill-rule="evenodd" clip-rule="evenodd" d="M342.41 160.614C342.41 162.806 340.021 164.583 337.075 164.583C334.13 164.583 331.743 162.806 331.743 160.614C331.743 158.422 334.13 156.645 337.075 156.645C340.021 156.645 342.41 158.422 342.41 160.614Z" fill="url(#paint1_linear_8528_6649)"/>
</g>
</g>
<g id="Group 79">
<mask id="mask3_8528_6649" style="mask-type:alpha" maskUnits="userSpaceOnUse" x="326" y="158" width="24" height="5">
<path id="Clip 78" fill-rule="evenodd" clip-rule="evenodd" d="M346.515 158.616C346.515 158.616 349.713 158.177 349.044 160.04C348.598 161.283 347.854 161.257 346.614 161.233C345.993 161.222 345.25 161.211 344.357 161.353C341.677 161.794 330.366 162.89 327.467 162.67C324.563 162.451 327.467 160.04 327.467 160.04C333.725 158.752 339.209 158.486 342.667 158.486C345.087 158.486 346.515 158.616 346.515 158.616Z" fill="white"/>
</mask>
<g mask="url(#mask3_8528_6649)">
<path id="Fill 77" fill-rule="evenodd" clip-rule="evenodd" d="M346.515 158.616C346.515 158.616 349.713 158.177 349.044 160.04C348.598 161.283 347.854 161.257 346.614 161.233C345.993 161.222 345.25 161.211 344.357 161.353C341.677 161.794 330.366 162.89 327.467 162.67C324.563 162.451 327.467 160.04 327.467 160.04C333.725 158.752 339.209 158.486 342.667 158.486C345.087 158.486 346.515 158.616 346.515 158.616Z" fill="url(#paint2_linear_8528_6649)"/>
</g>
</g>
<g id="Group 82">
<mask id="mask4_8528_6649" style="mask-type:alpha" maskUnits="userSpaceOnUse" x="327" y="159" width="22" height="4">
<path id="Clip 81" fill-rule="evenodd" clip-rule="evenodd" d="M345.839 159.101C345.839 159.101 348.793 158.763 348.177 160.199C347.763 161.154 347.075 161.135 345.929 161.117C345.355 161.108 344.671 161.097 343.844 161.209C341.369 161.547 330.922 162.39 328.243 162.219C325.562 162.053 328.243 160.199 328.243 160.199C334.026 159.206 339.097 159.002 342.288 159.002C344.523 159.002 345.839 159.101 345.839 159.101Z" fill="white"/>
</mask>
<g mask="url(#mask4_8528_6649)">
<path id="Fill 80" fill-rule="evenodd" clip-rule="evenodd" d="M345.839 159.101C345.839 159.101 348.793 158.763 348.177 160.199C347.763 161.154 347.075 161.135 345.929 161.117C345.355 161.108 344.671 161.097 343.844 161.209C341.369 161.547 330.922 162.39 328.243 162.219C325.562 162.053 328.243 160.199 328.243 160.199C334.026 159.206 339.097 159.002 342.288 159.002C344.523 159.002 345.839 159.101 345.839 159.101Z" fill="url(#paint3_linear_8528_6649)"/>
</g>
</g>
<g id="Group 89">
<g id="Group 85">
<path id="Fill 83" fill-rule="evenodd" clip-rule="evenodd" d="M273.196 149.272C273.57 147.447 274.019 145.882 276.115 142.787C279.369 138.463 283.821 137.196 288.124 135.631C293.698 136.972 295.642 144.091 292.912 148.378C286.216 149.682 279.668 149.719 273.196 149.272Z" fill="#62A744"/>
</g>
<g id="Group 88">
<path id="Fill 86" fill-rule="evenodd" clip-rule="evenodd" d="M273.197 149.273C273.497 147.633 273.571 145.621 275.479 143.756C281.541 145.472 287.863 144.203 293.736 141.744C294.821 145.882 293.699 146.925 292.914 148.379C286.028 149.794 279.594 149.534 273.197 149.273Z" fill="#306700"/>
</g>
</g>
</g>
<g id="Logos / Protections">
<g id="Group">
<path id="Vector" d="M82.8369 88.8341H80.6721L80.3187 90.0433H78.6399L81.0255 83.5137H82.5055L84.9353 90.0433H83.2345L82.8369 88.8341ZM81.0255 87.6249H82.4393L81.7103 85.3824L81.0255 87.6249Z" fill="#313D47"/>
<path id="Vector_2" d="M92.9316 83.5137V87.8008C92.9316 88.2845 92.8212 88.7242 92.6003 89.076C92.4015 89.4277 92.1143 89.6916 91.7167 89.8894C91.3191 90.0873 90.8552 90.1752 90.3471 90.1752C89.5519 90.1752 88.9113 89.9774 88.4475 89.5596C87.9836 89.1419 87.7627 88.5703 87.7627 87.8668V83.5576H89.3752V87.9107C89.3752 88.6363 89.7286 88.988 90.3692 88.988C91.0098 88.988 90.9657 88.8781 91.1203 88.7242C91.2749 88.5703 91.3853 88.2625 91.3853 87.8448V83.5576L92.9537 83.5137H92.9316Z" fill="#313D47"/>
<path id="Vector_3" d="M101.568 84.7229H99.6025V90.0433H98.0341V84.7229H96.0903V83.5137H101.568V84.7229Z" fill="#313D47"/>
<path id="Vector_4" d="M110.161 86.9209C110.161 87.5805 110.029 88.1301 109.808 88.6138C109.587 89.0975 109.212 89.4932 108.792 89.7571C108.372 90.0209 107.842 90.1528 107.312 90.1528C106.782 90.1528 106.252 90.0209 105.832 89.7571C105.412 89.4932 105.037 89.1415 104.816 88.6578C104.595 88.1741 104.462 87.6465 104.418 87.0309V86.6791C104.418 86.0196 104.551 85.4699 104.772 84.9862C104.993 84.5026 105.368 84.1288 105.788 83.843C106.207 83.5792 106.738 83.4473 107.29 83.4473C107.842 83.4473 108.35 83.5792 108.77 83.843C109.189 84.1068 109.565 84.5026 109.786 84.9423C110.007 85.4259 110.139 85.9976 110.139 86.6132V86.9429L110.161 86.9209ZM108.549 86.6571C108.549 85.9976 108.438 85.5139 108.218 85.1841C107.997 84.8543 107.687 84.7004 107.268 84.7004C106.473 84.7004 106.053 85.294 106.031 86.4593V86.9429C106.031 87.6025 106.141 88.0862 106.362 88.4159C106.583 88.7457 106.892 88.9436 107.312 88.9436C107.732 88.9436 108.041 88.7897 108.24 88.4599C108.438 88.1301 108.571 87.6465 108.571 86.9869V86.6571H108.549Z" fill="#313D47"/>
<path id="Vector_5" d="M115.529 83.5137L117.009 88.0427L118.489 83.5137H120.587V90.0433H119.019V88.5043L119.174 85.3824L117.605 90.0213H116.501L114.888 85.3824L115.043 88.5043V90.0433H113.475V83.5137H115.551H115.529Z" fill="#313D47"/>
<path id="Vector_6" d="M129.6 86.9209C129.6 87.5805 129.468 88.1301 129.247 88.6138C129.026 89.0975 128.65 89.4932 128.231 89.7571C127.811 90.0209 127.281 90.1528 126.751 90.1528C126.22 90.1528 125.69 90.0209 125.271 89.7571C124.851 89.4932 124.475 89.1415 124.254 88.6578C124.034 88.1741 123.901 87.6465 123.857 87.0309V86.6791C123.857 86.0196 123.989 85.4699 124.21 84.9862C124.431 84.5026 124.807 84.1288 125.226 83.843C125.646 83.5792 126.176 83.4473 126.728 83.4473C127.281 83.4473 127.789 83.5792 128.208 83.843C128.628 84.1068 129.004 84.5026 129.225 84.9423C129.445 85.4259 129.578 85.9976 129.578 86.6132V86.9429L129.6 86.9209ZM127.988 86.6571C127.988 85.9976 127.877 85.5139 127.656 85.1841C127.435 84.8543 127.126 84.7004 126.706 84.7004C125.911 84.7004 125.491 85.294 125.469 86.4593V86.9429C125.469 87.6025 125.58 88.0862 125.801 88.4159C126.022 88.7457 126.331 88.9436 126.751 88.9436C127.17 88.9436 127.48 88.7897 127.678 88.4599C127.877 88.1301 128.01 87.6465 128.01 86.9869V86.6571H127.988Z" fill="#313D47"/>
<path id="Vector_7" d="M137.663 84.7229H135.697V90.0433H134.128V84.7229H132.184V83.5137H137.663V84.7229Z" fill="#313D47"/>
<path id="Vector_8" d="M142.522 90.0433H140.954V83.5137H142.522V90.0433Z" fill="#313D47"/>
<path id="Vector_9" d="M148.663 88.2845L149.966 83.5137H151.734L149.525 90.0433H147.78L145.571 83.5137H147.316L148.619 88.2845H148.663Z" fill="#313D47"/>
<path id="Vector_10" d="M158.758 87.2732H156.262V88.8341H159.222V90.0433H154.693V83.5137H159.222V84.7229H156.262V86.086H158.758V87.2512V87.2732Z" fill="#313D47"/>
</g>
<path id="Vector_11" d="M28.3867 38.6602V72.1218H48.4438V66.9553H33.5777V58.0512H44.6224V52.9726H33.5777V43.7827H48.2008V38.6602H28.3867Z" fill="#62A60A"/>
<path id="Vector_12" d="M60.9683 72.1666C54.3857 72.1666 49.5261 67.044 49.5261 60.7342C49.5261 54.4244 54.3857 49.1699 61.0125 49.1699C67.6393 49.1699 67.7939 50.7089 69.8703 52.9514L66.7336 56.3371C65.1874 54.7102 63.5528 53.589 60.9904 53.589C57.3236 53.589 54.6287 56.7549 54.6287 60.6463C54.6287 64.5377 57.3457 67.7915 61.2555 67.7915C65.1653 67.7915 65.4304 66.6922 66.9987 65.0433L70.0912 68.0553C67.8602 70.4297 65.2978 72.1446 61.0125 72.1446" fill="#62A60A"/>
<path id="Vector_13" d="M78.1762 72.1218H73.0956V38.6602H78.1762V53.0166C79.612 50.928 81.6442 49.1252 85.0901 49.1252C90.0823 49.1252 92.9539 52.445 92.9539 57.5895V72.0779H87.8734V59.0845C87.8734 55.6548 86.1725 53.6981 83.1242 53.6981C80.0759 53.6981 78.132 55.7648 78.132 59.1505V72.0999H78.1762V72.1218Z" fill="#62A60A"/>
<path id="Vector_14" d="M107.798 67.7485C103.866 67.7485 101.039 64.5827 101.039 60.6912C101.039 56.7998 103.623 53.7439 107.688 53.7439C111.752 53.7439 114.469 56.9098 114.469 60.8012C114.513 64.6266 111.885 67.7485 107.776 67.7485M124.851 49.1489H108.615C108.35 49.1489 108.085 49.127 107.798 49.127C101.017 49.127 95.9581 54.3595 95.9581 60.6912C95.9581 67.023 100.95 72.1236 107.688 72.1236C114.425 72.1236 119.572 66.8911 119.572 60.6033C119.572 54.3155 118.754 55.6346 117.319 53.7439H124.829L124.873 49.1709L124.851 49.1489Z" fill="#62A60A"/>
<path id="Vector_15" d="M178.174 54.6008V49.1484H173.094V72.1011H178.174V63.263C178.174 57.4149 181.289 54.5568 185.729 54.5568H186.016V49.1924C182.106 49.0605 179.566 51.303 178.174 54.6008Z" fill="#313D47"/>
<path id="Vector_16" d="M156.792 67.77C152.86 67.77 150.033 64.6041 150.033 60.7127C150.033 56.8213 152.617 53.7654 156.682 53.7654C160.746 53.7654 163.463 56.9313 163.463 60.8227C163.463 64.7141 160.879 67.77 156.77 67.77M164.104 49.1484V52.5122C162.535 50.4456 160.127 49.1924 156.748 49.1924C149.966 49.1924 144.908 54.4249 144.908 60.7567C144.908 67.0885 149.9 72.1891 156.659 72.1891C163.419 72.1891 162.535 70.8919 164.104 68.8033V72.1231H168.698L168.654 49.1484H164.104C164.104 49.1704 164.104 49.1704 164.104 49.1704V49.1484Z" fill="#313D47"/>
<path id="Vector_17" d="M149.966 43.7835C149.966 37.8035 145.659 34 138.811 34H127.236V72.1226H132.383V38.6389H138.391C142.257 38.6389 144.731 40.4417 144.731 43.8934C144.731 47.3451 142.301 49.1479 138.391 49.1479H134.791V53.7868H138.237C144.687 53.7868 149.988 50.3571 149.988 43.8055" fill="#313D47"/>
<path id="Vector_18" d="M202.937 72.0779L204.704 72.1218H209.1L196.774 60.0519L209.387 48.9053H202.804L193.814 57.0179V38.6602H188.755L188.733 72.1218H193.814V63.2178L202.937 72.0779Z" fill="#313D47"/>
<g id="Group_2">
<g id="Group_3">
<path id="Vector_19" d="M45.3069 113.65L54.1868 107.428L56.6829 109.363L44.3791 117.256L42.0377 115.431L46.7869 101.668L49.283 103.603L45.329 113.65H45.3069Z" fill="#313D47"/>
</g>
</g>
<g id="Group_4">
<g id="Group_5">
<path id="Vector_20" d="M53.7674 123.923C52.4863 123.132 51.691 122.098 51.3818 120.823C51.0725 119.548 51.3155 118.251 52.1328 116.954L52.2654 116.734C52.8176 115.855 53.4582 115.195 54.2313 114.711C55.0044 114.228 55.8217 114.008 56.6611 114.008C57.5226 114.008 58.3399 114.272 59.1351 114.777C60.328 115.525 61.0348 116.47 61.2557 117.657C61.4766 118.823 61.1453 120.098 60.2838 121.483L59.6874 122.428L54.1429 118.976C53.8558 119.592 53.8116 120.186 53.9662 120.757C54.1209 121.329 54.4964 121.813 55.0707 122.164C55.9764 122.714 56.8599 122.824 57.7877 122.494L58.1411 124.473C57.4784 124.737 56.7716 124.847 55.9985 124.737C55.2253 124.649 54.4743 124.363 53.7674 123.923ZM57.9644 116.624C57.5005 116.338 57.0367 116.25 56.5507 116.382C56.0647 116.514 55.6008 116.844 55.1591 117.372L58.4062 119.372L58.5166 119.196C58.8259 118.669 58.9363 118.185 58.848 117.745C58.7596 117.306 58.4725 116.91 57.9644 116.602V116.624Z" fill="#313D47"/>
</g>
</g>
<g id="Group_6">
<g id="Group_7">
<path id="Vector_21" d="M65.9171 120.116C66.9553 119.655 67.9714 119.677 68.9654 120.16C70.9535 121.15 71.3953 122.798 70.2687 125.129L67.3529 130.999L64.901 129.79L67.7947 123.986C68.0598 123.458 68.126 123.018 68.0377 122.645C67.9272 122.271 67.618 121.963 67.0878 121.699C66.3589 121.347 65.7183 121.369 65.0998 121.765L61.8527 128.273L59.4008 127.064L65.8729 114.07L68.3248 115.28L65.9171 120.116Z" fill="#313D47"/>
</g>
</g>
<g id="Group_8">
<g id="Group_9">
<path id="Vector_22" d="M72.4772 133.043L69.9369 132.01L73.8025 122.534L76.3428 123.568L72.4772 133.043ZM74.6419 120.028C74.7965 119.654 75.0616 119.391 75.415 119.237C75.7685 119.105 76.1661 119.105 76.6079 119.281C77.0497 119.456 77.3368 119.72 77.4914 120.072C77.6461 120.424 77.6461 120.776 77.4914 121.171C77.3368 121.567 77.0717 121.809 76.7183 121.963C76.3649 122.117 75.9673 122.095 75.5255 121.919C75.1058 121.743 74.7965 121.479 74.6419 121.127C74.4873 120.776 74.4873 120.402 74.6419 120.028Z" fill="#313D47"/>
</g>
</g>
<g id="Group_10">
<g id="Group_11">
<path id="Vector_23" d="M79.855 133.527C80.341 133.681 80.7607 133.681 81.1583 133.527C81.5559 133.351 81.821 133.065 81.9756 132.625L84.4275 133.417C84.2066 134.076 83.8311 134.626 83.3009 135.044C82.7708 135.484 82.1523 135.747 81.4233 135.857C80.7165 135.967 79.9875 135.901 79.2365 135.659C77.8449 135.22 76.8729 134.406 76.3649 133.263C75.8568 132.12 75.8347 130.779 76.3649 129.218L76.4312 129.042C76.9171 127.547 77.7123 126.47 78.7947 125.854C79.8771 125.216 81.1362 125.128 82.5278 125.568C83.7427 125.964 84.6263 126.623 85.1344 127.547C85.6424 128.47 85.7308 129.526 85.3553 130.669L82.9033 129.877C83.058 129.372 83.0359 128.91 82.8371 128.492C82.6383 128.075 82.2848 127.789 81.7989 127.635C81.1804 127.437 80.6502 127.503 80.2084 127.855C79.7446 128.206 79.369 128.866 79.0377 129.855L78.9493 130.119C78.618 131.13 78.5517 131.9 78.7064 132.428C78.861 132.955 79.2586 133.329 79.8992 133.527H79.855Z" fill="#313D47"/>
</g>
</g>
<g id="Group_12">
<g id="Group_13">
<path id="Vector_24" d="M88.0722 137.881L85.3994 137.222L88.8895 123.129L91.5623 123.788L88.0722 137.881Z" fill="#313D47"/>
</g>
</g>
<g id="Group_14">
<g id="Group_15">
<path id="Vector_25" d="M95.5162 139.552C94.0362 139.288 92.9097 138.628 92.1145 137.573C91.3413 136.518 91.0763 135.221 91.3413 133.704L91.3855 133.44C91.5622 132.429 91.9156 131.549 92.4458 130.824C92.9759 130.098 93.6386 129.57 94.4338 129.263C95.229 128.955 96.0905 128.889 97.0183 129.043C98.4099 129.285 99.426 129.9 100.067 130.912C100.707 131.923 100.906 133.22 100.619 134.803L100.42 135.902L93.97 134.803C93.9479 135.484 94.1246 136.056 94.478 136.518C94.8535 136.979 95.3616 137.287 96.0464 137.397C97.0845 137.573 97.9681 137.331 98.675 136.694L99.7574 138.409C99.2493 138.914 98.6308 139.266 97.8798 139.464C97.1287 139.662 96.3335 139.684 95.4941 139.552H95.5162ZM96.6207 131.241C96.0905 131.153 95.6267 131.241 95.229 131.571C94.8314 131.879 94.5222 132.363 94.3234 133.022L98.0786 133.66L98.1227 133.44C98.2111 132.846 98.1227 132.341 97.8798 131.967C97.6147 131.593 97.2171 131.351 96.6428 131.241H96.6207Z" fill="#313D47"/>
</g>
</g>
<g id="Group_16">
<g id="Group_17">
<path id="Vector_26" d="M110.139 136.035L109.963 140.872L107.113 140.762L107.621 127.021L113.011 127.219C114.049 127.263 114.955 127.483 115.728 127.879C116.501 128.275 117.097 128.846 117.495 129.55C117.893 130.253 118.069 131.067 118.047 131.946C118.003 133.287 117.495 134.343 116.545 135.09C115.595 135.838 114.292 136.167 112.658 136.123L110.161 136.035H110.139ZM110.206 133.749L112.746 133.837C113.497 133.859 114.071 133.705 114.491 133.375C114.911 133.045 115.109 132.54 115.132 131.88C115.154 131.199 114.977 130.649 114.601 130.231C114.226 129.814 113.674 129.572 112.967 129.528L110.36 129.44L110.206 133.749Z" fill="#313D47"/>
</g>
</g>
<g id="Group_18">
<g id="Group_19">
<path id="Vector_27" d="M125.514 132.954C125.139 132.932 124.807 132.932 124.52 132.954C123.482 133.02 122.841 133.415 122.554 134.141L123.018 140.802L120.279 141L119.55 130.799L122.135 130.623L122.289 131.832C122.775 130.865 123.504 130.337 124.476 130.271C124.785 130.271 125.072 130.271 125.338 130.337L125.492 132.954H125.514Z" fill="#313D47"/>
</g>
</g>
<g id="Group_20">
<g id="Group_21">
<path id="Vector_28" d="M126.618 135.375C126.463 134.364 126.53 133.441 126.795 132.605C127.06 131.77 127.524 131.066 128.186 130.538C128.849 129.989 129.666 129.659 130.616 129.505C131.986 129.285 133.179 129.549 134.173 130.253C135.167 130.956 135.829 132.011 136.139 133.441L136.271 134.122C136.514 135.661 136.271 136.98 135.542 138.057C134.813 139.135 133.731 139.772 132.251 139.992C130.793 140.212 129.556 139.926 128.54 139.135C127.524 138.343 126.883 137.134 126.64 135.529V135.397L126.618 135.375ZM129.357 135.155C129.512 136.123 129.799 136.826 130.241 137.266C130.683 137.728 131.235 137.904 131.92 137.794C132.582 137.684 133.046 137.354 133.333 136.804C133.62 136.255 133.687 135.419 133.51 134.32C133.355 133.375 133.068 132.671 132.626 132.209C132.185 131.748 131.61 131.572 130.948 131.682C130.285 131.792 129.821 132.121 129.534 132.693C129.247 133.265 129.203 134.078 129.357 135.155Z" fill="#313D47"/>
</g>
</g>
<g id="Group_22">
<g id="Group_23">
<path id="Vector_29" d="M139.363 125.391L139.938 127.831L141.639 127.435L142.103 129.392L140.402 129.788L141.572 134.756C141.661 135.13 141.793 135.372 141.97 135.504C142.147 135.636 142.434 135.658 142.831 135.548C143.119 135.482 143.384 135.394 143.605 135.306L144.068 137.329C143.583 137.614 143.052 137.812 142.5 137.944C140.623 138.384 139.452 137.658 138.966 135.79L137.707 130.425L136.249 130.755L135.785 128.798L137.243 128.469L136.669 126.028L139.341 125.413L139.363 125.391Z" fill="#313D47"/>
</g>
</g>
<g id="Group_24">
<g id="Group_25">
<path id="Vector_30" d="M150.607 135.663C149.172 136.125 147.868 136.037 146.676 135.443C145.505 134.85 144.665 133.816 144.202 132.365L144.113 132.123C143.804 131.134 143.716 130.211 143.848 129.309C143.981 128.408 144.334 127.66 144.908 127.023C145.483 126.385 146.212 125.924 147.095 125.638C148.443 125.22 149.613 125.308 150.652 125.902C151.69 126.495 152.441 127.572 152.949 129.111L153.28 130.167L147.051 132.123C147.338 132.739 147.758 133.157 148.31 133.421C148.862 133.662 149.459 133.684 150.099 133.486C151.115 133.179 151.778 132.563 152.109 131.662L153.855 132.695C153.634 133.377 153.236 133.97 152.662 134.498C152.087 135.025 151.403 135.399 150.585 135.663H150.607ZM147.78 127.748C147.25 127.902 146.896 128.21 146.676 128.672C146.455 129.133 146.41 129.683 146.521 130.365L150.166 129.221L150.099 129.023C149.901 128.452 149.613 128.056 149.194 127.836C148.796 127.616 148.31 127.594 147.758 127.77L147.78 127.748Z" fill="#313D47"/>
</g>
</g>
<g id="Group_26">
<g id="Group_27">
<path id="Vector_31" d="M159.84 129.922C160.304 129.724 160.635 129.438 160.812 129.064C160.988 128.69 161.01 128.295 160.834 127.855L163.197 126.866C163.462 127.503 163.529 128.163 163.418 128.844C163.308 129.526 162.998 130.119 162.535 130.669C162.071 131.219 161.452 131.636 160.745 131.944C159.398 132.516 158.139 132.538 156.99 132.01C155.841 131.483 154.958 130.471 154.317 128.954L154.251 128.778C153.633 127.327 153.544 126.008 153.942 124.821C154.361 123.634 155.223 122.754 156.593 122.183C157.785 121.677 158.868 121.633 159.862 121.985C160.856 122.359 161.607 123.106 162.093 124.205L159.729 125.195C159.508 124.711 159.199 124.381 158.779 124.183C158.36 124.008 157.918 124.008 157.432 124.205C156.835 124.447 156.482 124.843 156.372 125.415C156.261 125.964 156.394 126.734 156.791 127.679L156.902 127.943C157.321 128.91 157.763 129.548 158.227 129.856C158.713 130.163 159.243 130.185 159.862 129.922H159.84Z" fill="#313D47"/>
</g>
</g>
<g id="Group_28">
<g id="Group_29">
<path id="Vector_32" d="M163.463 116.357L164.612 118.6L166.18 117.808L167.108 119.589L165.539 120.381L167.881 124.91C168.058 125.239 168.234 125.459 168.455 125.525C168.654 125.613 168.941 125.547 169.317 125.371C169.582 125.24 169.825 125.086 170.002 124.954L170.951 126.8C170.554 127.196 170.09 127.526 169.582 127.768C167.881 128.647 166.556 128.23 165.628 126.537L163.088 121.634L161.762 122.315L160.834 120.535L162.16 119.853L161.011 117.611L163.441 116.357H163.463Z" fill="#313D47"/>
</g>
</g>
<g id="Group_30">
<g id="Group_31">
<path id="Vector_33" d="M166.003 114.841C165.805 114.489 165.738 114.138 165.849 113.764C165.959 113.39 166.202 113.104 166.622 112.863C167.019 112.621 167.417 112.555 167.793 112.643C168.168 112.731 168.455 112.95 168.676 113.302C168.897 113.654 168.941 114.028 168.831 114.401C168.72 114.775 168.477 115.083 168.08 115.303C167.682 115.545 167.285 115.611 166.909 115.523C166.534 115.435 166.246 115.215 166.025 114.863L166.003 114.841ZM175.06 124.449L172.696 125.834L167.483 117.018L169.847 115.633L175.06 124.449Z" fill="#313D47"/>
</g>
</g>
<g id="Group_32">
<g id="Group_33">
<path id="Vector_34" d="M174.264 118.95C173.69 118.114 173.314 117.257 173.182 116.4C173.049 115.52 173.182 114.707 173.513 113.915C173.867 113.146 174.441 112.464 175.236 111.915C176.385 111.123 177.533 110.837 178.748 111.035C179.941 111.233 181.001 111.893 181.929 113.014L182.349 113.585C183.255 114.883 183.608 116.158 183.431 117.433C183.255 118.708 182.548 119.763 181.333 120.621C180.118 121.456 178.881 121.742 177.6 121.478C176.319 121.214 175.236 120.401 174.308 119.06L174.242 118.95H174.264ZM176.628 117.543C177.18 118.334 177.754 118.84 178.351 119.06C178.947 119.28 179.521 119.192 180.096 118.796C180.648 118.422 180.913 117.917 180.935 117.279C180.957 116.641 180.648 115.872 180.007 114.971C179.455 114.179 178.881 113.695 178.284 113.475C177.688 113.256 177.092 113.344 176.539 113.717C175.987 114.091 175.722 114.597 175.7 115.234C175.7 115.872 176.009 116.641 176.628 117.521V117.543Z" fill="#313D47"/>
</g>
</g>
<g id="Group_34">
<g id="Group_35">
<path id="Vector_35" d="M182.283 106.861L183.122 107.696C183.078 106.531 183.52 105.541 184.47 104.75C185.287 104.046 186.126 103.761 186.944 103.893C187.761 104.024 188.6 104.574 189.44 105.519L193.769 110.532L191.693 112.313L187.408 107.366C187.032 106.927 186.657 106.685 186.303 106.663C185.95 106.619 185.53 106.795 185.088 107.19C184.514 107.696 184.271 108.312 184.426 109.059L189.153 114.511L187.076 116.292L180.383 108.553L182.349 106.883L182.283 106.861Z" fill="#313D47"/>
</g>
</g>
<path id="Vector_36" d="M197.193 107.145C196.818 107.519 196.354 107.717 195.824 107.717C195.294 107.717 194.83 107.519 194.454 107.145C194.079 106.772 193.902 106.31 193.902 105.782C193.902 105.255 194.101 104.793 194.476 104.419C194.852 104.046 195.316 103.848 195.846 103.848C196.376 103.848 196.84 104.024 197.215 104.419C197.591 104.793 197.79 105.255 197.79 105.782C197.79 106.31 197.591 106.772 197.215 107.145H197.193ZM194.631 104.595C194.3 104.925 194.145 105.299 194.145 105.76C194.145 106.222 194.3 106.618 194.631 106.948C194.962 107.277 195.338 107.431 195.802 107.431C196.266 107.431 196.663 107.277 196.972 106.948C197.304 106.618 197.458 106.222 197.458 105.76C197.458 105.299 197.304 104.903 196.972 104.595C196.641 104.265 196.266 104.111 195.802 104.111C195.338 104.111 194.94 104.265 194.631 104.595ZM195.78 104.705C196.045 104.705 196.243 104.727 196.354 104.771C196.575 104.859 196.685 105.035 196.685 105.299C196.685 105.563 196.619 105.628 196.486 105.716C196.42 105.76 196.31 105.804 196.177 105.826C196.354 105.848 196.464 105.914 196.553 106.024C196.619 106.134 196.663 106.244 196.663 106.354V106.508C196.663 106.552 196.663 106.618 196.663 106.662C196.663 106.706 196.663 106.75 196.663 106.772C196.663 106.794 196.31 106.794 196.31 106.794C196.31 106.794 196.31 106.794 196.31 106.772V106.706V106.53C196.31 106.288 196.243 106.134 196.111 106.046C196.023 106.002 195.89 105.98 195.691 105.98H195.404V106.816H195.029V104.705H195.78ZM196.177 105.035C196.089 104.991 195.934 104.947 195.713 104.947H195.382V105.716H195.713C195.868 105.716 196 105.716 196.067 105.672C196.221 105.606 196.288 105.497 196.288 105.343C196.288 105.189 196.243 105.079 196.155 105.035H196.177Z" fill="#313D47"/>
</g>
</g>
</g>
</g>
</g>
<defs>
<linearGradient id="paint0_linear_8528_6649" x1="326.178" y1="110.105" x2="361.472" y2="110.105" gradientUnits="userSpaceOnUse">
<stop stop-color="#1F212D"/>
<stop offset="1" stop-color="#242A2F"/>
</linearGradient>
<linearGradient id="paint1_linear_8528_6649" x1="331.742" y1="156.644" x2="342.409" y2="156.644" gradientUnits="userSpaceOnUse">
<stop stop-color="#1F212D"/>
<stop offset="1" stop-color="#242A2F"/>
</linearGradient>
<linearGradient id="paint2_linear_8528_6649" x1="326.176" y1="158.485" x2="349.135" y2="158.485" gradientUnits="userSpaceOnUse">
<stop stop-color="#1F212D"/>
<stop offset="1" stop-color="#242A2F"/>
</linearGradient>
<linearGradient id="paint3_linear_8528_6649" x1="327.05" y1="159.002" x2="348.26" y2="159.002" gradientUnits="userSpaceOnUse">
<stop stop-color="#1F212D"/>
<stop offset="1" stop-color="#242A2F"/>
</linearGradient>
</defs>
</svg>
