<svg width="766" height="500" viewBox="0 0 766 500" fill="none" xmlns="http://www.w3.org/2000/svg">
<g id="Property 1=Car">
<rect id="Mask" width="766" height="498.954" rx="18.7401" fill="#F5F4F3"/>
<mask id="mask0_7403_83615" style="mask-type:luminance" maskUnits="userSpaceOnUse" x="0" y="0" width="766" height="499">
<rect id="Mask_2" width="766" height="498.954" rx="18.7401" fill="white"/>
</mask>
<g mask="url(#mask0_7403_83615)">
<g id="Group 154">
<path id="Fill 1" fill-rule="evenodd" clip-rule="evenodd" d="M2.34277 498.954H763.658V0H2.34277V498.954Z" fill="#F5F4F3"/>
<g id="Group 4">
<mask id="mask1_7403_83615" style="mask-type:luminance" maskUnits="userSpaceOnUse" x="2" y="140" width="762" height="303">
<path id="Clip 3" fill-rule="evenodd" clip-rule="evenodd" d="M2.34302 140.551H763.658V442.734H2.34302V140.551Z" fill="white"/>
</mask>
<g mask="url(#mask1_7403_83615)">
<path id="Fill 2" fill-rule="evenodd" clip-rule="evenodd" d="M-64.0925 140.551C-65.8179 140.551 -67.2451 141.887 -67.2451 143.508V147.522V206.898H-94.0661V188.786V186.047C-94.0661 184.429 -95.4595 183.122 -97.1849 183.122H-101.003H-130.611H-134.394C-136.121 183.122 -137.549 184.429 -137.549 186.047V188.786V222.488H-171.603V217.665V208.516C-171.603 206.898 -172.999 205.56 -174.724 205.56H-186.408H-256.809H-268.461C-270.187 205.56 -271.614 206.898 -271.614 208.516V217.665V237.768H-299.131V228.432V225.072C-299.131 223.454 -300.558 222.115 -302.283 222.115H-306.897H-339.958H-344.537C-346.265 222.115 -347.69 223.454 -347.69 225.072V228.432V243.992H-355.923V442.734H1111.23V246.358H1013.78V228.245V222.333C1013.78 220.715 1012.35 219.376 1010.62 219.376H1002.92H956.651H948.916C947.189 219.376 945.795 220.715 945.795 222.333V228.245V246.358L923.755 231.513V194.511V189.999C923.755 188.381 922.362 187.043 920.636 187.043H914.595H875.494H869.487C867.76 187.043 866.332 188.381 866.332 189.999V194.511V243.992H838.484V221.586V213.558C838.484 211.939 837.056 210.601 835.331 210.601H825.04H780.959H775.318V192.613V189.999C775.318 188.381 773.891 187.043 772.166 187.043H768.48H739.304H735.618C733.893 187.043 732.466 188.381 732.466 189.999V192.613V221.461H720.151V213.215V204.096C720.151 202.48 718.724 201.141 716.999 201.141H705.315H634.647H630.264V191.338V186.795C630.264 185.176 628.871 183.838 627.114 183.838H621.105H582.003H581.971H579.016V164.107V162.614C579.016 160.995 577.588 159.659 575.863 159.659H573.573H550.372H548.082C546.355 159.659 544.927 160.995 544.927 162.614V164.107V194.636V216.047H499.121V198.091V196.598C499.121 194.979 497.728 193.672 495.969 193.672H493.679H475.92V178.921V174.378C475.92 172.76 474.493 171.453 472.767 171.453H466.758H427.657H421.616C419.89 171.453 418.495 172.76 418.495 174.378V178.921V195.291H406.845H404.555C402.829 195.291 401.402 196.598 401.402 198.246V199.709V206.617H363.597V178.921V174.378C363.597 172.76 362.167 171.453 360.442 171.453H354.435H315.334H309.293C307.565 171.453 306.172 172.76 306.172 174.378V178.921V205.187H284.298V201.575V197.002C284.298 195.384 282.871 194.045 281.146 194.045H262.854V149.295V145.281C262.854 143.662 261.429 142.324 259.704 142.324H254.291H217.78H212.369C210.644 142.324 209.216 143.662 209.216 145.281V149.295V206.089V206.617H197.101V165.228V163.734C197.101 162.116 195.674 160.809 193.946 160.809H191.658H168.455H166.165C164.44 160.809 163.046 162.116 163.046 163.734V165.228V216.638V216.824H149.802V185.954V181.94C149.802 180.29 148.375 178.983 146.649 178.983H141.239H121.19V159.347V155.333C121.19 153.713 119.763 152.376 118.037 152.376H112.625H76.1131H70.7024C68.977 152.376 67.5498 153.713 67.5498 155.333V159.347V212.562H63.0356V196.566V195.072C63.0356 193.454 61.6083 192.116 59.8829 192.116H57.591H34.3898H32.0999C30.3745 192.116 28.981 193.454 28.981 195.072V196.566V212.562H12.4825V194.823V190.777C12.4825 189.159 11.0553 187.854 9.32993 187.854H3.91919H-13.607V147.522V143.508C-13.607 141.887 -15.0342 140.551 -16.7596 140.551H-64.0925Z" fill="#E8E8E8"/>
</g>
</g>
<path id="Fill 5" fill-rule="evenodd" clip-rule="evenodd" d="M383.929 386.516C197.41 386.516 2.34277 449.462 2.34277 449.462V496.613H763.658V441.564C763.658 441.564 570.447 386.516 383.929 386.516Z" fill="#D3D5D7"/>
<g id="Group 9">
<mask id="mask2_7403_83615" style="mask-type:luminance" maskUnits="userSpaceOnUse" x="133" y="435" width="484" height="22">
<path id="Clip 8" fill-rule="evenodd" clip-rule="evenodd" d="M133.523 435.707C133.523 435.707 176.576 452.394 274.819 454.861C337.743 456.441 451.203 458.773 515.344 453.671C591.591 447.605 616.08 435.707 616.08 435.707H133.523Z" fill="white"/>
</mask>
<g mask="url(#mask2_7403_83615)">
<path id="Fill 7" fill-rule="evenodd" clip-rule="evenodd" d="M129.076 519.254H620.527V431.129H129.076V519.254Z" fill="#676B6F"/>
</g>
</g>
<g id="Group 93">
<path id="Fill 10" fill-rule="evenodd" clip-rule="evenodd" d="M331.85 438.047H355.244C375.109 438.047 391.211 413.183 391.211 382.507C391.211 351.833 375.109 326.965 355.244 326.965H331.85C310.218 326.965 309.509 438.047 331.85 438.047Z" fill="#212121"/>
<path id="Fill 12" fill-rule="evenodd" clip-rule="evenodd" d="M331.849 438.047C312.04 438.047 295.883 413.097 295.883 382.505C295.883 351.917 312.04 326.965 331.849 326.965C351.66 326.965 367.819 351.917 367.819 382.505C367.819 413.097 351.66 438.047 331.849 438.047Z" fill="#212121"/>
<path id="Fill 14" fill-rule="evenodd" clip-rule="evenodd" d="M331.849 423.057C317.385 423.057 305.589 404.837 305.589 382.503C305.589 360.167 317.385 341.949 331.849 341.949C346.316 341.949 358.111 360.167 358.111 382.503C358.111 404.837 346.316 423.057 331.849 423.057Z" fill="#212121"/>
<path id="Fill 16" fill-rule="evenodd" clip-rule="evenodd" d="M331.849 417.289C319.443 417.289 309.323 401.661 309.323 382.503C309.323 363.345 319.443 347.719 331.849 347.719C344.258 347.719 354.375 363.345 354.375 382.503C354.375 401.661 344.258 417.289 331.849 417.289Z" fill="#212121"/>
<path id="Fill 18" fill-rule="evenodd" clip-rule="evenodd" d="M336.205 416.636C346.561 413.502 354.376 399.413 354.376 382.504C354.376 365.595 346.561 351.505 336.205 348.371C325.849 351.505 318.036 365.595 318.036 382.504C318.036 399.413 325.849 413.502 336.205 416.636Z" fill="#212121"/>
<path id="Fill 20" fill-rule="evenodd" clip-rule="evenodd" d="M330.371 409.691C327.837 407.625 326.398 404.925 327.029 402.69C327.66 400.454 330.944 398.149 333.132 399.906C335.309 401.697 336.308 407.491 335.677 409.727C335.045 411.96 332.905 411.747 330.371 409.691ZM320.767 389.13C320.136 384.482 320.483 380.885 321.906 380.33C323.327 379.77 326.438 382.688 326.991 386.691C327.527 390.696 325.483 395.635 324.061 396.192C322.638 396.75 321.4 393.778 320.767 389.13ZM324.238 363.558C325.986 359.825 327.855 358.04 328.999 359.58C330.144 361.12 330.741 367.065 329.246 370.298C327.734 373.508 324.189 373.877 323.044 372.339C321.899 370.798 322.495 367.302 324.238 363.558ZM338.239 352.214C341.048 352.22 343.033 353.601 343.033 356.079C343.033 358.556 340.658 363.044 338.239 363.064C335.819 363.044 333.442 358.556 333.442 356.079C333.442 353.601 335.429 352.22 338.239 352.214ZM335.307 416.881C339.254 415.944 342.861 413.424 345.851 409.754L345.825 409.776C343.297 411.846 341.155 412.071 340.518 409.838C339.883 407.609 340.871 401.813 343.046 400.008C345.23 398.235 348.518 400.52 349.153 402.753C349.322 403.349 349.344 403.981 349.236 404.624C350.55 402.166 351.647 399.422 352.487 396.463C352.399 396.456 352.316 396.436 352.226 396.402C350.803 395.852 348.751 390.927 349.276 386.914C349.822 382.924 352.911 379.995 354.34 380.521C354.238 377.71 353.918 374.986 353.408 372.392L353.345 372.482C352.204 374.03 348.657 373.679 347.138 370.48C345.638 367.256 346.223 361.307 347.363 359.759C347.712 359.287 348.13 359.125 348.592 359.235C345.164 353.361 340.459 349.299 335.15 348.094C325.269 350.556 314.895 360.914 314.895 382.469C314.895 404.022 325.351 414.534 335.307 416.881Z" fill="#212121"/>
<path id="Fill 22" fill-rule="evenodd" clip-rule="evenodd" d="M347.893 363.71C349.643 367.442 350.248 370.937 349.105 372.481C347.965 374.029 344.416 373.678 342.897 370.478C341.398 367.255 341.982 361.306 343.124 359.76C344.265 358.214 346.138 359.987 347.893 363.71ZM351.269 389.32C350.642 393.97 349.412 396.95 347.987 396.4C346.564 395.85 344.512 390.925 345.037 386.913C345.585 382.912 348.688 379.978 350.111 380.525C351.536 381.075 351.888 384.666 351.269 389.32ZM341.586 409.775C339.056 411.845 336.916 412.07 336.281 409.837C335.644 407.607 336.631 401.811 338.805 400.006C340.989 398.233 344.279 400.52 344.914 402.752C345.549 404.987 344.116 407.693 341.586 409.775ZM326.13 409.689C323.596 407.623 322.159 404.926 322.79 402.688C323.421 400.453 326.703 398.148 328.892 399.905C331.068 401.696 332.069 407.49 331.436 409.725C330.805 411.958 328.665 411.745 326.13 409.689ZM316.526 389.128C315.897 384.48 316.243 380.884 317.664 380.328C319.086 379.77 322.197 382.687 322.752 386.69C323.287 390.694 321.243 395.633 319.822 396.191C318.399 396.749 317.161 393.776 316.526 389.128ZM319.999 363.557C321.747 359.823 323.616 358.038 324.761 359.578C325.905 361.118 326.502 367.065 325.007 370.297C323.495 373.507 319.948 373.877 318.805 372.337C317.661 370.797 318.256 367.3 319.999 363.557ZM333.998 352.213C336.807 352.218 338.793 353.599 338.793 356.078C338.793 358.554 336.418 363.043 333.998 363.063C331.578 363.043 329.203 358.554 329.203 356.078C329.203 353.599 331.189 352.218 333.998 352.213ZM333.405 417.206C344.929 415.991 354.072 401.395 354.368 383.404L354.37 383.365L354.376 382.506V382.468C354.364 363.836 344.866 348.636 332.937 347.762C322.087 348.624 313.442 363.832 313.442 382.468C313.442 401.371 322.336 416.75 333.405 417.206Z" fill="#212121"/>
<path id="Fill 24" fill-rule="evenodd" clip-rule="evenodd" d="M333.91 374.469C330.895 374.469 328.45 378.242 328.45 382.894C328.45 387.548 330.895 391.322 333.91 391.322C336.926 391.322 339.37 387.548 339.37 382.894C339.37 378.242 336.926 374.469 333.91 374.469Z" fill="#212121"/>
<path id="Fill 26" fill-rule="evenodd" clip-rule="evenodd" d="M597.025 438.047H620.419C640.283 438.047 656.386 413.183 656.386 382.507C656.386 351.833 640.283 326.965 620.419 326.965H597.025C575.392 326.965 574.684 438.047 597.025 438.047Z" fill="#212121"/>
<path id="Fill 28" fill-rule="evenodd" clip-rule="evenodd" d="M597.024 438.047C577.215 438.047 561.058 413.097 561.058 382.505C561.058 351.917 577.215 326.965 597.024 326.965C616.835 326.965 632.991 351.917 632.991 382.505C632.991 413.097 616.835 438.047 597.024 438.047Z" fill="#212121"/>
<path id="Fill 30" fill-rule="evenodd" clip-rule="evenodd" d="M597.023 423.057C582.559 423.057 570.763 404.837 570.763 382.503C570.763 360.167 582.559 341.949 597.023 341.949C611.49 341.949 623.285 360.167 623.285 382.503C623.285 404.837 611.49 423.057 597.023 423.057Z" fill="#212121"/>
<path id="Fill 32" fill-rule="evenodd" clip-rule="evenodd" d="M597.023 417.289C584.617 417.289 574.497 401.661 574.497 382.503C574.497 363.345 584.617 347.719 597.023 347.719C609.43 347.719 619.549 363.345 619.549 382.503C619.549 401.661 609.43 417.289 597.023 417.289Z" fill="#212121"/>
<path id="Fill 34" fill-rule="evenodd" clip-rule="evenodd" d="M601.38 416.636C611.736 413.502 619.551 399.413 619.551 382.504C619.551 365.595 611.736 351.505 601.38 348.371C591.024 351.505 583.209 365.595 583.209 382.504C583.209 399.413 591.024 413.502 601.38 416.636Z" fill="#212121"/>
<path id="Fill 36" fill-rule="evenodd" clip-rule="evenodd" d="M595.544 409.691C593.012 407.625 591.573 404.925 592.204 402.69C592.833 400.454 596.119 398.149 598.305 399.906C600.482 401.697 601.482 407.491 600.851 409.727C600.22 411.96 598.08 411.747 595.544 409.691ZM585.94 389.13C585.311 384.482 585.656 380.885 587.079 380.33C588.5 379.77 591.611 382.688 592.166 386.691C592.7 390.696 590.658 395.635 589.237 396.192C587.811 396.75 586.575 393.778 585.94 389.13ZM589.413 363.558C591.159 359.825 593.028 358.04 594.175 359.58C595.317 361.12 595.916 367.065 594.421 370.298C592.907 373.508 589.362 373.877 588.217 372.339C587.075 370.798 587.67 367.302 589.413 363.558ZM603.413 352.214C606.221 352.22 608.208 353.601 608.208 356.079C608.208 358.556 605.833 363.044 603.413 363.064C600.992 363.044 598.618 358.556 598.618 356.079C598.618 353.601 600.604 352.22 603.413 352.214ZM600.482 416.881C604.43 415.944 608.036 413.424 611.026 409.754L611 409.776C608.47 411.846 606.328 412.071 605.694 409.838C605.059 407.609 606.046 401.813 608.219 400.008C610.403 398.235 613.691 400.52 614.328 402.753C614.495 403.349 614.519 403.981 614.412 404.624C615.725 402.166 616.822 399.422 617.662 396.463C617.575 396.456 617.489 396.436 617.399 396.402C615.978 395.852 613.924 390.927 614.452 386.914C614.997 382.924 618.086 379.995 619.513 380.521C619.412 377.71 619.093 374.986 618.584 372.392L618.518 372.482C617.378 374.03 613.831 373.679 612.312 370.48C610.811 367.256 611.396 361.307 612.537 359.759C612.885 359.287 613.305 359.125 613.767 359.235C610.339 353.361 605.632 349.299 600.325 348.094C590.443 350.556 580.07 360.914 580.07 382.469C580.07 404.022 590.526 414.534 600.482 416.881Z" fill="#212121"/>
<path id="Fill 38" fill-rule="evenodd" clip-rule="evenodd" d="M613.067 363.71C614.815 367.442 615.422 370.937 614.279 372.481C613.139 374.029 609.59 373.678 608.071 370.478C606.572 367.255 607.155 361.306 608.298 359.76C609.438 358.214 611.311 359.987 613.067 363.71ZM616.443 389.32C615.816 393.97 614.586 396.95 613.161 396.4C611.738 395.85 609.686 390.925 610.211 386.913C610.758 382.912 613.862 379.978 615.285 380.525C616.71 381.075 617.062 384.666 616.443 389.32ZM606.76 409.775C604.23 411.845 602.09 412.07 601.455 409.837C600.818 407.607 601.805 401.811 603.979 400.006C606.162 398.233 609.451 400.52 610.088 402.752C610.723 404.987 609.289 407.693 606.76 409.775ZM591.303 409.689C588.77 407.623 587.332 404.926 587.963 402.688C588.594 400.453 591.877 398.148 594.066 399.905C596.242 401.696 597.243 407.49 596.61 409.725C595.979 411.958 593.839 411.745 591.303 409.689ZM581.699 389.128C581.07 384.48 581.415 380.884 582.838 380.328C584.259 379.77 587.37 382.687 587.926 386.69C588.461 390.694 586.417 395.633 584.996 396.191C583.572 396.749 582.334 393.776 581.699 389.128ZM585.173 363.557C586.921 359.823 588.79 358.038 589.932 359.578C591.079 361.118 591.676 367.065 590.179 370.297C588.668 373.507 585.121 373.877 583.979 372.337C582.834 370.797 583.429 367.3 585.173 363.557ZM599.172 352.213C601.98 352.218 603.967 353.599 603.967 356.078C603.967 358.554 601.592 363.043 599.172 363.063C596.751 363.043 594.377 358.554 594.377 356.078C594.377 353.599 596.363 352.218 599.172 352.213ZM598.579 417.206C610.104 415.991 619.246 401.395 619.542 383.404L619.544 383.365L619.55 382.506V382.468C619.538 363.836 610.04 348.636 598.111 347.762C587.261 348.624 578.616 363.832 578.616 382.468C578.616 401.371 587.51 416.75 598.579 417.206Z" fill="#212121"/>
<path id="Fill 40" fill-rule="evenodd" clip-rule="evenodd" d="M599.085 374.469C596.069 374.469 593.625 378.242 593.625 382.894C593.625 387.548 596.069 391.322 599.085 391.322C602.1 391.322 604.545 387.548 604.545 382.894C604.545 378.242 602.1 374.469 599.085 374.469Z" fill="#212121"/>
<path id="Fill 42" fill-rule="evenodd" clip-rule="evenodd" d="M491.245 402.184L199.816 402.16L105.677 388.274L105.403 300.41H491.245V402.184Z" fill="#212121"/>
<path id="Fill 44" fill-rule="evenodd" clip-rule="evenodd" d="M414.372 326.965H437.766C457.631 326.965 473.736 351.831 473.736 382.507C473.736 413.179 457.631 438.047 437.766 438.047H414.372C392.74 438.047 392.031 326.965 414.372 326.965Z" fill="#212121"/>
<path id="Fill 46" fill-rule="evenodd" clip-rule="evenodd" d="M414.373 438.047C394.562 438.047 378.403 413.097 378.403 382.505C378.403 351.917 394.562 326.965 414.373 326.965C434.184 326.965 450.34 351.917 450.34 382.505C450.34 413.097 434.184 438.047 414.373 438.047Z" fill="#373737"/>
<path id="Fill 48" fill-rule="evenodd" clip-rule="evenodd" d="M414.373 423.061C399.906 423.061 388.111 404.843 388.111 382.507C388.111 360.171 399.906 341.953 414.373 341.953C428.837 341.953 440.635 360.171 440.635 382.507C440.635 404.843 428.837 423.061 414.373 423.061Z" fill="white"/>
<path id="Fill 50" fill-rule="evenodd" clip-rule="evenodd" d="M414.373 417.293C401.964 417.293 391.847 401.667 391.847 382.507C391.847 363.348 401.964 347.723 414.373 347.723C426.779 347.723 436.899 363.348 436.899 382.507C436.899 401.667 426.779 417.293 414.373 417.293Z" fill="#969696"/>
<path id="Fill 52" fill-rule="evenodd" clip-rule="evenodd" d="M418.728 348.375C429.084 351.509 436.899 365.599 436.899 382.51C436.899 399.418 429.084 413.508 418.728 416.642C408.371 413.508 400.557 399.418 400.557 382.51C400.557 365.599 408.371 351.509 418.728 348.375Z" fill="#212121"/>
<path id="Fill 54" fill-rule="evenodd" clip-rule="evenodd" d="M420.079 405.545C411.862 405.545 405.16 395.197 405.16 382.508C405.16 369.817 411.862 359.469 420.079 359.469C428.295 359.469 434.999 369.817 434.999 382.508C434.999 395.197 428.295 405.545 420.079 405.545Z" fill="#C9C9C9"/>
<path id="Fill 56" fill-rule="evenodd" clip-rule="evenodd" d="M428.935 355.971C431.382 359.176 433.38 363.171 434.764 367.708L429.801 378.562L436.895 381.851L436.899 382.507C436.899 387.222 436.29 391.715 435.191 395.817L426.981 392.01V411.338C424.439 413.993 421.525 415.868 418.388 416.741C418.197 416.687 418.006 416.631 417.817 416.571V392.01L402.586 399.073H398.328C400.46 391.912 400.358 392.711 399.956 385.539L414.996 378.562L405.938 358.758C408.615 354.343 408.89 356.07 409.15 350.605H413.408L422.397 370.266L428.935 355.971Z" fill="#676767"/>
<path id="Fill 58" fill-rule="evenodd" clip-rule="evenodd" d="M426.119 352.821C428.772 355.331 431.063 358.666 432.842 362.593L425.541 378.562L436.883 383.824C436.764 388.727 435.989 393.375 434.688 397.559L422.723 392.01V414.822C420.693 416.073 418.519 416.882 416.25 417.171C415.336 417.054 414.437 416.852 413.557 416.571V392.01L398.328 399.073C397.707 397.308 397.185 395.453 396.767 393.522L396.355 391.39C396.031 389.5 395.81 387.543 395.698 385.539L410.736 378.562L401.68 358.758C402.605 357.234 403.615 355.837 404.703 354.588L405.675 353.528C406.769 352.405 407.932 351.424 409.15 350.605L418.139 370.266L426.119 352.821Z" fill="white"/>
<path id="Fill 60" fill-rule="evenodd" clip-rule="evenodd" d="M417.224 389.581C414.702 389.581 412.644 386.401 412.644 382.504C412.644 378.609 414.702 375.43 417.224 375.43C419.75 375.43 421.808 378.609 421.808 382.504C421.808 386.401 419.75 389.581 417.224 389.581Z" fill="#AFAFAF"/>
<path id="Fill 62" fill-rule="evenodd" clip-rule="evenodd" d="M149.198 438.047H172.592C192.457 438.047 208.561 413.183 208.561 382.507C208.561 351.833 192.457 326.965 172.592 326.965H149.198C127.566 326.965 126.857 438.047 149.198 438.047Z" fill="#212121"/>
<path id="Fill 64" fill-rule="evenodd" clip-rule="evenodd" d="M149.198 438.047C129.387 438.047 113.229 413.097 113.229 382.505C113.229 351.917 129.387 326.965 149.198 326.965C169.009 326.965 185.166 351.917 185.166 382.505C185.166 413.097 169.009 438.047 149.198 438.047Z" fill="#373737"/>
<path id="Fill 66" fill-rule="evenodd" clip-rule="evenodd" d="M149.198 423.057C134.731 423.057 122.936 404.839 122.936 382.503C122.936 360.167 134.731 341.949 149.198 341.949C163.663 341.949 175.46 360.167 175.46 382.503C175.46 404.839 163.663 423.057 149.198 423.057Z" fill="white"/>
<path id="Fill 68" fill-rule="evenodd" clip-rule="evenodd" d="M149.198 417.289C136.792 417.289 126.672 401.663 126.672 382.503C126.672 363.345 136.792 347.719 149.198 347.719C161.605 347.719 171.724 363.345 171.724 382.503C171.724 401.663 161.605 417.289 149.198 417.289Z" fill="#969696"/>
<path id="Fill 70" fill-rule="evenodd" clip-rule="evenodd" d="M153.553 416.638C163.909 413.504 171.724 399.415 171.724 382.506C171.724 365.597 163.909 351.507 153.553 348.371C143.197 351.507 135.382 365.597 135.382 382.506C135.382 399.415 143.197 413.504 153.553 416.638Z" fill="#212121"/>
<path id="Fill 72" fill-rule="evenodd" clip-rule="evenodd" d="M154.904 405.541C146.687 405.541 139.985 395.193 139.985 382.504C139.985 369.815 146.687 359.465 154.904 359.465C163.12 359.465 169.824 369.815 169.824 382.504C169.824 395.193 163.12 405.541 154.904 405.541Z" fill="#C9C9C9"/>
<path id="Fill 74" fill-rule="evenodd" clip-rule="evenodd" d="M163.761 409.04C166.209 405.836 168.206 401.839 169.589 397.305L164.627 386.449L171.721 383.159L171.725 382.506C171.725 377.788 171.116 373.295 170.017 369.195L161.806 373V353.675C159.264 351.017 156.352 349.142 153.213 348.27C153.022 348.323 152.831 348.379 152.642 348.441V373L137.411 365.937H133.154C135.285 373.098 135.186 372.301 134.782 379.473L149.822 386.449L140.763 406.254C143.44 410.667 143.717 408.94 143.976 414.407H148.233L157.222 394.745L163.761 409.04Z" fill="#676767"/>
<path id="Fill 76" fill-rule="evenodd" clip-rule="evenodd" d="M160.945 412.19C163.598 409.68 165.889 406.347 167.668 402.42L160.367 386.449L171.709 381.189C171.592 376.284 170.815 371.636 169.514 367.454L157.549 373.001V350.189C155.519 348.938 153.345 348.129 151.076 347.84C150.162 347.959 149.263 348.159 148.383 348.442V373.001L133.154 365.938C132.535 367.703 132.011 369.558 131.593 371.489L131.181 373.623C130.857 375.513 130.638 377.468 130.524 379.474L145.562 386.449L136.508 406.255C137.431 407.777 138.442 409.176 139.529 410.425L140.503 411.483C141.595 412.606 142.758 413.589 143.976 414.408L152.965 394.745L160.945 412.19Z" fill="white"/>
<path id="Fill 78" fill-rule="evenodd" clip-rule="evenodd" d="M152.051 389.581C149.527 389.581 147.469 386.403 147.469 382.504C147.469 378.609 149.527 375.43 152.051 375.43C154.575 375.43 156.633 378.609 156.633 382.504C156.633 386.403 154.575 389.581 152.051 389.581Z" fill="#AFAFAF"/>
<path id="Fill 80" fill-rule="evenodd" clip-rule="evenodd" d="M203.328 402.176H360.409V391.727H203.328V402.176Z" fill="#212121"/>
<path id="Fill 82" fill-rule="evenodd" clip-rule="evenodd" d="M154.5 203.649C211.126 193.229 285.699 189.742 339.35 189.742C383.453 189.742 452.567 189.796 473.27 200.172C509.19 218.593 533.687 244.067 565.178 265.148C604.256 270.507 647.021 277.998 663.479 285.667C685.123 295.752 685.34 305.19 687.416 328.159C687.744 331.815 693.401 332.919 694.659 336.71C696.456 342.129 695.636 351.758 694.701 355.337C694.189 357.293 691.128 359.275 691.202 361.294C691.859 379.272 687.499 393.689 674.82 402.192L477.378 402.186L467.267 389.728H457.878C458.823 385.14 459.327 380.338 459.327 375.391C459.327 342.99 441.711 315.747 415.169 315.747C388.626 315.747 371.008 342.99 371.008 375.391C371.008 379.729 371.394 383.954 372.125 388.023L365.284 402.176L350.198 389.728H201.624L193.499 375.391C193.499 342.99 175.885 315.747 149.341 315.747C126.578 315.747 111.416 336.041 106.446 361.977L105.678 388.274L88.9858 372.845C85.8966 363.13 82.8074 358.299 79.7202 348.585C79.3599 337.049 80.383 327.824 80.9901 323.549C81.223 321.917 81.842 320.198 82.479 318.897C84.2127 315.362 87.477 309.266 87.5387 308.541C88.2394 300.412 87.4989 294.268 89.3162 286.808C90.3931 282.381 88.745 275.653 89.4595 271.762C89.981 268.931 103.602 263.546 104.947 262.277L141.144 212.13C144.311 207.739 148.286 204.792 154.5 203.649Z" fill="#326B00"/>
<path id="Fill 83" fill-rule="evenodd" clip-rule="evenodd" d="M179.898 304.007C165.842 295.008 146.532 295.275 132.193 301.955C118.823 308.181 108.984 324.335 112.981 326.484C116.241 328.24 120.728 320.89 129.06 317.358C141.916 311.909 160.82 309.452 174.289 316.222C196.487 327.375 192.116 371.031 202.747 371.075C213.378 371.121 211.159 324.014 179.898 304.007Z" fill="#7AA44D"/>
<path id="Fill 84" fill-rule="evenodd" clip-rule="evenodd" d="M448.439 304.233C432.077 293.634 410.228 291.666 390.976 304.269C378.349 312.533 372.344 326.95 372.716 332.423C372.971 336.2 384.945 323.393 397.819 317.992C411.225 312.372 427.935 310.531 439.259 316.221C461.458 327.374 463.268 375.905 467.718 371.074C472.169 366.24 474.002 320.795 448.439 304.233Z" fill="#7AA44D"/>
<path id="Fill 85" fill-rule="evenodd" clip-rule="evenodd" d="M154.5 203.649C211.126 193.229 285.699 189.742 339.35 189.742C383.452 189.742 452.567 189.796 473.27 200.172C509.19 218.593 533.686 244.067 565.177 265.148C604.256 270.507 647.021 277.998 663.478 285.667C670.66 289.014 675.483 292.291 678.797 296.013C648.673 299.26 599.736 300.49 558.949 299.519C523.941 297.481 496.415 299.5 468.604 295.162C447.533 291.879 430.083 290.929 415.897 288.894H88.894C89.2503 286.948 89.3777 285.001 89.109 283.051L104.947 262.277L133.104 265.104H368.285C374.181 265.104 378.07 259.37 371.595 251.221C358.59 234.858 351.211 223.158 335.255 205.438C319.843 188.324 244.451 196.004 154.5 203.649Z" fill="#7AA44D"/>
<path id="Fill 86" fill-rule="evenodd" clip-rule="evenodd" d="M194.166 382.059C196.177 360.353 187.656 330.193 174.56 313.043C180.962 317.442 198.33 322.321 200.922 327.461C215.094 355.573 223.772 372.161 309.378 377.63C311.99 377.798 312.27 381.908 309.322 381.912L194.166 382.059Z" fill="#7AA44D"/>
<path id="Fill 87" fill-rule="evenodd" clip-rule="evenodd" d="M89.3165 286.81C89.211 284.429 88.5521 276.693 89.4598 271.764C90.1405 268.064 103.268 263.185 104.948 262.278C107.046 260.991 108.465 274.423 107.728 277.179C106.614 281.347 89.3424 290.278 89.3165 286.81Z" fill="#D12937"/>
<path id="Fill 88" fill-rule="evenodd" clip-rule="evenodd" d="M475.51 201.34C510.192 219.647 534.313 244.474 565.113 265.104H392.311C390.321 265.104 388.487 264.323 387.148 262.632L341.055 204.478C339.705 202.776 340.225 201.34 342.882 201.34H475.51Z" fill="#212121"/>
<path id="Fill 89" fill-rule="evenodd" clip-rule="evenodd" d="M466.603 389.726H456.903C457.846 385.138 458.35 380.336 458.35 375.389C458.35 342.988 440.1 316.721 415.169 316.721C390.237 316.721 371.984 342.988 371.984 375.389C371.984 380.28 372.474 385.034 373.399 389.575C374.89 396.906 370.495 402.174 366.869 402.174C364.076 393.92 362.529 384.875 362.529 375.389C362.529 336.615 383.403 305.18 415.169 305.18C446.933 305.18 467.805 336.615 467.805 375.389C467.805 380.304 467.389 385.096 466.603 389.726Z" fill="#373737"/>
<path id="Fill 90" fill-rule="evenodd" clip-rule="evenodd" d="M200.658 390.382L197.396 402.16C190.433 402.16 190.439 392.806 191.066 389.774C192.016 385.172 192.523 380.352 192.523 375.389C192.523 342.988 173.196 316.721 150.318 316.721C127.437 316.721 112.391 336.039 107.421 361.975L105.678 388.272C101.828 379.753 99.3181 369.378 100.057 359.929C103.46 329.777 120.728 305.18 150.318 305.18C179.906 305.18 201.978 336.615 201.978 375.389C201.978 380.537 201.52 385.55 200.658 390.382Z" fill="#373737"/>
<path id="Fill 91" fill-rule="evenodd" clip-rule="evenodd" d="M224.053 389.729L206.726 402.178L196.483 402.164L192.789 389.729H224.053ZM368.278 389.729L366.869 402.178L362.922 402.176C361.228 402.176 359.558 401.476 358.137 400.303L345.32 389.729H368.278ZM686.031 389.729C683.933 393.68 679.813 399.434 674.821 402.193H587.716C547.483 402.191 509.949 402.187 469.716 402.187C463.404 402.187 456.903 396.211 456.903 389.729L467.381 383.94L473.916 389.729H538.795L544.428 383.94L552.39 363.744C553.966 359.743 556.667 357.422 560.831 357.422H677.438C681.875 357.422 685.48 359.37 686.366 363.744L689.668 380.085C688.86 383.272 687.747 386.48 686.031 389.729Z" fill="#373737"/>
<path id="Fill 92" fill-rule="evenodd" clip-rule="evenodd" d="M152.766 214.932C183.762 207.853 226.69 202.107 257.443 200.788C277.899 199.912 315.884 197.507 327.206 209.666C340.481 223.921 353.343 243.992 364.8 261.644C365.871 263.29 365.085 265.105 363.419 265.105H126.026C124.595 265.105 123.498 263.443 124.185 262.228L149.707 217.209C150.34 216.089 151.064 215.32 152.766 214.932Z" fill="#212121"/>
</g>
<g id="Group 96">
<mask id="mask3_7403_83615" style="mask-type:luminance" maskUnits="userSpaceOnUse" x="128" y="203" width="432" height="60">
<path id="Clip 95" fill-rule="evenodd" clip-rule="evenodd" d="M267.399 204.193L262.454 262.36H362.631C351.566 245.462 339.86 227.079 326.086 212.446C319.399 205.336 300.645 203.797 283.826 203.797C277.908 203.797 272.228 203.988 267.399 204.193ZM204.427 209.735C202.848 209.949 201.272 210.17 199.693 210.394L181.878 262.36H244.961L252.443 204.897C236.415 205.807 220.28 207.569 204.427 209.735ZM345.623 205.138L390.384 261.011C391.122 261.932 392.076 262.36 393.253 262.36H559.859C550.259 255.688 541.04 248.523 531.828 241.329C514.961 228.152 498.486 215.442 479.708 205.138H345.623ZM154.645 218.496C153.957 218.651 153.818 218.769 153.48 219.354L128.838 262.36H170.751L188.804 212.026C177.347 213.838 165.906 215.952 154.645 218.496Z" fill="white"/>
</mask>
<g mask="url(#mask3_7403_83615)">
<path id="Fill 94" fill-rule="evenodd" clip-rule="evenodd" d="M267.399 204.193L262.454 262.36H362.631C351.566 245.462 339.86 227.079 326.086 212.446C319.399 205.336 300.645 203.797 283.826 203.797C277.908 203.797 272.228 203.988 267.399 204.193ZM204.427 209.735C202.848 209.949 201.272 210.17 199.693 210.394L181.878 262.36H244.961L252.443 204.897C236.415 205.807 220.28 207.569 204.427 209.735ZM345.623 205.138L390.384 261.011C391.122 261.932 392.076 262.36 393.253 262.36H559.859C550.259 255.688 541.04 248.523 531.828 241.329C514.961 228.152 498.486 215.442 479.708 205.138H345.623ZM154.645 218.496C153.957 218.651 153.818 218.769 153.48 219.354L128.838 262.36H170.751L188.804 212.026C177.347 213.838 165.906 215.952 154.645 218.496Z" fill="url(#paint0_linear_7403_83615)"/>
</g>
</g>
<g id="Group 135">
<path id="Fill 97" fill-rule="evenodd" clip-rule="evenodd" d="M179.055 239.024C165.656 239.781 152.664 240.924 140.15 242.423L128.838 262.455H170.77L179.055 239.024ZM248.095 238.494C228.144 237.723 208.711 237.745 189.997 238.5L181.904 262.455H245.022L248.095 238.494ZM560.084 262.455H393.389C392.213 262.455 391.257 262.021 390.519 261.086L365.631 229.566C383.392 229.572 401.662 230.214 420.298 231.553C465.172 234.777 507.408 241.66 544.937 251.227C549.916 255.066 554.944 258.834 560.084 262.455ZM362.751 262.455H262.522L264.463 239.298C267.59 239.485 270.725 239.685 273.874 239.911C302.041 241.934 329.167 245.401 354.745 250.064C357.462 254.231 360.125 258.386 362.751 262.455Z" fill="#212121"/>
<path id="Fill 99" fill-rule="evenodd" clip-rule="evenodd" d="M666.452 301.457H565.749C563.9 301.457 562.69 302.412 561.982 304.325L558.489 313.774H673.513L670.15 304.325C669.583 302.73 668.28 301.457 666.452 301.457ZM675.262 318.687H556.683L555.675 321.627C555.012 323.557 556.977 325.45 559.096 326.259L568.204 329.747C572.208 331.28 576.417 333.003 581.34 333.003H666.331C669.012 333.003 671.275 331.574 672.859 329.747L675.884 326.259C677.026 324.942 676.855 323.17 676.306 321.627L675.262 318.687Z" fill="#373737"/>
<path id="Fill 101" fill-rule="evenodd" clip-rule="evenodd" d="M666.743 313.774L663.381 304.323C662.813 302.73 661.512 301.457 659.682 301.457H565.75C563.9 301.457 562.691 302.41 561.983 304.323L558.49 313.774H666.743ZM668.491 318.687H556.684L555.675 321.627C555.013 323.557 556.976 325.45 559.095 326.259L568.203 329.747C572.207 331.28 576.418 333.003 581.339 333.003H659.56C662.242 333.003 664.505 331.574 666.089 329.747L669.112 326.259C670.256 324.942 670.087 323.17 669.536 321.627L668.491 318.687Z" fill="#212121"/>
<path id="Fill 103" fill-rule="evenodd" clip-rule="evenodd" d="M638.341 390.41C640.257 390.41 640.977 392.329 639.696 393.652L630.721 402.913H591.858L601.117 393.36C602.563 391.867 604.2 390.41 607.21 390.41H638.341ZM670.521 390.41H652.547C649.82 390.41 647.402 391.409 645.51 393.36L636.249 402.913H675.707L674.151 393.72C673.837 391.861 672.669 390.41 670.521 390.41ZM592.842 390.41H561.792C559.383 390.41 557.362 391.767 555.817 393.36L546.56 402.913H585.347L594.224 393.752C595.607 392.325 594.885 390.41 592.842 390.41Z" fill="#232323"/>
<path id="Fill 105" fill-rule="evenodd" clip-rule="evenodd" d="M678.114 381.203H565.744C563.792 381.203 561.732 378.957 562.384 377.11L564.148 372.132C564.799 370.285 566.724 368.57 568.668 368.57H678.114C680.061 368.57 681.661 370.173 681.661 372.132V377.64C681.661 379.595 680.063 381.203 678.114 381.203Z" fill="#272727"/>
<path id="Fill 107" fill-rule="evenodd" clip-rule="evenodd" d="M671.345 381.203H565.743C563.794 381.203 561.733 378.957 562.386 377.11L564.148 372.132C564.801 370.285 566.724 368.57 568.667 368.57H671.345C673.292 368.57 674.892 370.173 674.892 372.132V377.64C674.892 379.595 673.294 381.203 671.345 381.203Z" fill="#212121"/>
<path id="Fill 109" fill-rule="evenodd" clip-rule="evenodd" d="M528.775 358H504.474C501.335 358 498.197 360.58 497.497 363.734L496.214 369.51C495.515 372.664 497.51 375.244 500.649 375.244H524.95C528.087 375.244 531.228 372.664 531.928 369.51L533.209 363.734C533.909 360.58 531.914 358 528.775 358Z" fill="#373737"/>
<path id="Fill 111" fill-rule="evenodd" clip-rule="evenodd" d="M522.488 358H504.475C501.336 358 498.197 360.58 497.497 363.734L496.214 369.51C495.514 372.664 497.509 375.244 500.65 375.244H518.663C521.802 375.244 524.941 372.664 525.641 369.51L526.922 363.734C527.622 360.58 525.627 358 522.488 358Z" fill="#212121"/>
<path id="Fill 113" fill-rule="evenodd" clip-rule="evenodd" d="M514.478 361.051H506.452C504.423 361.051 502.396 362.718 501.942 364.756L501.117 368.486C500.663 370.522 501.952 372.189 503.981 372.189H512.007C514.036 372.189 516.063 370.522 516.514 368.486L517.342 364.756C517.795 362.718 516.506 361.051 514.478 361.051Z" fill="#E3E3E3"/>
<path id="Fill 115" fill-rule="evenodd" clip-rule="evenodd" d="M252.897 281.918H267.188C268.831 281.918 270.176 283.269 270.176 284.92C270.176 286.571 268.831 287.922 267.188 287.922H252.897C251.254 287.922 249.911 286.571 249.911 284.92C249.911 283.269 251.254 281.918 252.897 281.918Z" fill="#212121"/>
<path id="Fill 117" fill-rule="evenodd" clip-rule="evenodd" d="M175.776 281.918H190.067C191.71 281.918 193.053 283.269 193.053 284.92C193.053 286.571 191.71 287.922 190.067 287.922H175.776C174.131 287.922 172.788 286.571 172.788 284.92C172.788 283.269 174.131 281.918 175.776 281.918Z" fill="#212121"/>
<path id="Fill 119" fill-rule="evenodd" clip-rule="evenodd" d="M490.39 294.858L547.605 300.68C549.958 300.918 551.414 303.27 550.636 305.474L545.853 319.017C545.164 320.965 543.366 322.079 541.057 321.921L505.895 319.502C503.962 319.37 502.271 318.379 501.076 316.852L487.775 299.848C486.138 297.76 487.264 294.54 490.39 294.858Z" fill="#E3E3E3"/>
<path id="Fill 121" fill-rule="evenodd" clip-rule="evenodd" d="M681.133 298.16C685.668 300.514 688.63 317.275 687.741 321.817L685.348 321.985C682.885 322.157 680.968 321.032 680.232 319.081L675.347 306.117C674.517 303.912 675.247 302.523 677.031 301.11L681.133 298.16Z" fill="#E3E3E3"/>
<path id="Fill 123" fill-rule="evenodd" clip-rule="evenodd" d="M323.408 239.645H341.425C352.077 239.645 352.079 261.475 341.425 261.475H323.408C319.193 261.475 315.746 258.014 315.746 253.781V247.343C315.746 243.108 319.193 239.645 323.408 239.645Z" fill="#7AA44D"/>
<path id="Fill 125" fill-rule="evenodd" clip-rule="evenodd" d="M344.761 250.908L355.448 253.924C357.925 254.621 359.16 256.672 358.78 259.622C358.428 262.342 355.53 264.196 350.607 262.955L343.581 261.184C342.061 260.799 340.335 259.843 340.731 258.318L341.91 253.776C342.304 252.249 343.255 250.484 344.761 250.908Z" fill="#7AA44D"/>
<path id="Fill 127" fill-rule="evenodd" clip-rule="evenodd" d="M319.249 243.824C321.173 243.824 322.752 245.413 322.752 247.344V255.604C322.752 257.195 323.703 258.046 325.218 258.046H341.913C345.115 258.046 345.121 261.478 341.913 261.478H323.408C318.766 261.478 315.746 257.944 315.746 253.547V247.344C315.746 245.407 317.324 243.824 319.249 243.824Z" fill="#476718"/>
<path id="Fill 129" fill-rule="evenodd" clip-rule="evenodd" d="M693.102 340.01C693.727 338.817 693.271 337.338 692.084 336.71C690.896 336.081 689.424 336.54 688.8 337.733C688.163 338.94 687.111 339.796 685.681 340.359C683.986 341.029 681.79 341.325 679.145 341.329V341.319C631.315 341.319 547.486 341.173 504.643 332.051C490.033 328.942 506.767 344.68 512.434 344.68C561.99 347.726 629.349 346.215 679.145 346.215V346.207C682.403 346.201 685.188 345.806 687.451 344.912C689.981 343.913 691.883 342.32 693.102 340.01Z" fill="#7AA44D"/>
<path id="Fill 131" fill-rule="evenodd" clip-rule="evenodd" d="M214.561 396.192H356.822V390.406H214.561V396.192Z" fill="#373737"/>
<path id="Fill 133" fill-rule="evenodd" clip-rule="evenodd" d="M620.021 313.109H634.313C635.956 313.109 637.299 314.458 637.299 316.109V316.111C637.299 317.762 635.956 319.111 634.313 319.111H620.021C618.378 319.111 617.034 317.762 617.034 316.111V316.109C617.034 314.458 618.378 313.109 620.021 313.109Z" fill="#AFAFAF"/>
<path id="Fill 134" fill-rule="evenodd" clip-rule="evenodd" d="M565.525 298.52C558.945 291.905 541.244 286.111 516.537 281.248C490.635 276.152 460.751 273.248 423.97 270.202C417.4 269.659 401.489 271.363 414.222 272.365C453.007 275.462 488.739 279.765 515.791 285.09C537.807 289.423 554.511 294.429 560.952 299.941C562.834 301.554 563.776 301.72 565.483 301.038C567.192 300.355 565.835 298.832 565.525 298.52Z" fill="#476718"/>
</g>
<g id="Group 138">
<mask id="mask4_7403_83615" style="mask-type:luminance" maskUnits="userSpaceOnUse" x="220" y="37" width="329" height="116">
<path id="Clip 137" fill-rule="evenodd" clip-rule="evenodd" d="M230.457 37.4805C224.794 37.5893 220.196 42.8812 220.196 49.3328V110.593C220.196 117.114 224.892 122.449 230.637 122.449H366.368L381.524 152.263L396.679 122.449H537.704C543.445 122.449 548.147 117.114 548.147 110.593V49.3328C548.147 42.8812 543.541 37.5893 537.884 37.4805H230.457Z" fill="white"/>
</mask>
<g mask="url(#mask4_7403_83615)">
<path id="Fill 136" fill-rule="evenodd" clip-rule="evenodd" d="M214.541 154.241H552.901V35.5H214.541V154.241Z" fill="#383F48"/>
</g>
</g>
<g id="Group 141">
<mask id="mask5_7403_83615" style="mask-type:luminance" maskUnits="userSpaceOnUse" x="243" y="56" width="48" height="43">
<path id="Clip 140" fill-rule="evenodd" clip-rule="evenodd" d="M265.066 57.5727L260.963 69.4691C260.684 70.2747 259.886 70.823 258.984 70.823H245.706C243.689 70.823 242.853 73.2518 244.483 74.3682L255.223 81.7218C255.955 82.2186 256.257 83.1054 255.981 83.913L251.876 95.8074C251.252 97.6146 253.448 99.117 255.081 98.0006L265.822 90.649C266.552 90.1502 267.537 90.1502 268.269 90.649L279.012 98.0006C280.643 99.117 282.839 97.6146 282.215 95.8074L278.112 83.913C277.832 83.1054 278.136 82.2186 278.868 81.7218L289.609 74.3682C291.242 73.2518 290.4 70.823 288.385 70.823H275.109C274.207 70.823 273.406 70.2747 273.128 69.4691L269.025 57.5727C268.713 56.6681 267.877 56.2188 267.046 56.2188C266.21 56.2188 265.376 56.6681 265.066 57.5727Z" fill="white"/>
</mask>
<g mask="url(#mask5_7403_83615)">
<path id="Fill 139" fill-rule="evenodd" clip-rule="evenodd" d="M240.724 101.222H293.372V53.6562H240.724V101.222Z" fill="#EDCB53"/>
</g>
</g>
<g id="Group 144">
<mask id="mask6_7403_83615" style="mask-type:luminance" maskUnits="userSpaceOnUse" x="304" y="56" width="48" height="43">
<path id="Clip 143" fill-rule="evenodd" clip-rule="evenodd" d="M325.971 57.5727L321.869 69.4691C321.591 70.2747 320.791 70.823 319.887 70.823H306.611C304.594 70.823 303.758 73.2518 305.388 74.3682L316.128 81.7218C316.858 82.2186 317.164 83.1054 316.888 83.913L312.781 95.8074C312.16 97.6146 314.357 99.117 315.986 98.0006L326.727 90.649C327.457 90.1502 328.444 90.1502 329.174 90.649L339.917 98.0006C341.548 99.117 343.744 97.6146 343.12 95.8074L339.017 83.913C338.739 83.1054 339.041 82.2186 339.773 81.7218L350.513 74.3682C352.147 73.2518 351.307 70.823 349.29 70.823H336.012C335.112 70.823 334.313 70.2747 334.033 69.4691L329.93 57.5727C329.618 56.6681 328.784 56.2188 327.951 56.2188C327.115 56.2188 326.281 56.6681 325.971 57.5727Z" fill="white"/>
</mask>
<g mask="url(#mask6_7403_83615)">
<path id="Fill 142" fill-rule="evenodd" clip-rule="evenodd" d="M301.629 101.222H354.276V53.6562H301.629V101.222Z" fill="#EDCB53"/>
</g>
</g>
<g id="Group 147">
<mask id="mask7_7403_83615" style="mask-type:luminance" maskUnits="userSpaceOnUse" x="360" y="56" width="48" height="43">
<path id="Clip 146" fill-rule="evenodd" clip-rule="evenodd" d="M382.191 57.5727L378.089 69.4691C377.809 70.2747 377.011 70.823 376.107 70.823H362.832C360.814 70.823 359.979 73.2518 361.608 74.3682L372.349 81.7218C373.078 82.2186 373.38 83.1054 373.106 83.913L369.002 95.8074C368.378 97.6146 370.575 99.117 372.207 98.0006L382.947 90.649C383.677 90.1502 384.661 90.1502 385.394 90.649L396.137 98.0006C397.766 99.117 399.964 97.6146 399.34 95.8074L395.237 83.913C394.957 83.1054 395.261 82.2186 395.993 81.7218L406.734 74.3682C408.367 73.2518 407.527 70.823 405.51 70.823H392.232C391.332 70.823 390.531 70.2747 390.253 69.4691L386.15 57.5727C385.838 56.6681 385.005 56.2188 384.171 56.2188C383.335 56.2188 382.501 56.6681 382.191 57.5727Z" fill="white"/>
</mask>
<g mask="url(#mask7_7403_83615)">
<path id="Fill 145" fill-rule="evenodd" clip-rule="evenodd" d="M357.849 101.222H410.497V53.6562H357.849V101.222Z" fill="#EDCB53"/>
</g>
</g>
<g id="Group 150">
<mask id="mask8_7403_83615" style="mask-type:luminance" maskUnits="userSpaceOnUse" x="416" y="56" width="48" height="43">
<path id="Clip 149" fill-rule="evenodd" clip-rule="evenodd" d="M438.41 57.5727L434.307 69.4691C434.029 70.2747 433.231 70.823 432.328 70.823H419.05C417.034 70.823 416.199 73.2518 417.828 74.3682L428.567 81.7218C429.299 82.2186 429.603 83.1054 429.327 83.913L425.22 95.8074C424.6 97.6146 426.795 99.117 428.425 98.0006L439.166 90.649C439.899 90.1502 440.883 90.1502 441.613 90.649L452.358 98.0006C453.989 99.117 456.185 97.6146 455.561 95.8074L451.456 83.913C451.178 83.1054 451.482 82.2186 452.212 81.7218L462.953 74.3682C464.588 73.2518 463.746 70.823 461.729 70.823H448.451C447.551 70.823 446.751 70.2747 446.474 69.4691L442.369 57.5727C442.059 56.6681 441.225 56.2188 440.389 56.2188C439.556 56.2188 438.72 56.6681 438.41 57.5727Z" fill="white"/>
</mask>
<g mask="url(#mask8_7403_83615)">
<path id="Fill 148" fill-rule="evenodd" clip-rule="evenodd" d="M414.069 101.222H466.718V53.6562H414.069V101.222Z" fill="#EDCB53"/>
</g>
</g>
<g id="Group 153">
<mask id="mask9_7403_83615" style="mask-type:luminance" maskUnits="userSpaceOnUse" x="477" y="56" width="48" height="43">
<path id="Clip 152" fill-rule="evenodd" clip-rule="evenodd" d="M499.317 57.5727L495.214 69.4691C494.934 70.2747 494.136 70.823 493.235 70.823H479.957C477.939 70.823 477.104 73.2518 478.733 74.3682L489.474 81.7218C490.204 82.2186 490.508 83.1054 490.232 83.913L486.127 95.8074C485.503 97.6146 487.7 99.117 489.332 98.0006L500.073 90.649C500.802 90.1502 501.788 90.1502 502.52 90.649L513.263 98.0006C514.894 99.117 517.089 97.6146 516.466 95.8074L512.363 83.913C512.083 83.1054 512.387 82.2186 513.119 81.7218L523.859 74.3682C525.493 73.2518 524.651 70.823 522.636 70.823H509.36C508.458 70.823 507.656 70.2747 507.378 69.4691L503.276 57.5727C502.964 56.6681 502.13 56.2188 501.296 56.2188C500.461 56.2188 499.627 56.6681 499.317 57.5727Z" fill="white"/>
</mask>
<g mask="url(#mask9_7403_83615)">
<path id="Fill 151" fill-rule="evenodd" clip-rule="evenodd" d="M474.975 101.222H527.622V53.6562H474.975V101.222Z" fill="#EDCB53"/>
</g>
</g>
</g>
</g>
</g>
<defs>
<linearGradient id="paint0_linear_7403_83615" x1="56.7081" y1="148.384" x2="56.7081" y2="226.547" gradientUnits="userSpaceOnUse">
<stop stop-color="#242631"/>
<stop offset="1" stop-color="#2A2D31"/>
</linearGradient>
</defs>
</svg>
