<svg width="383" height="250" viewBox="0 0 383 250" fill="none" xmlns="http://www.w3.org/2000/svg">
<g id="Property 1=Car">
<rect id="Mask" width="383" height="249.477" rx="18.7401" fill="#F5F4F3"/>
<mask id="mask0_7403_83615" style="mask-type:luminance" maskUnits="userSpaceOnUse" x="0" y="0" width="383" height="250">
<rect id="Mask_2" width="383" height="249.477" rx="18.7401" fill="white"/>
</mask>
<g mask="url(#mask0_7403_83615)">
<g id="Group 154">
<path id="Fill 1" fill-rule="evenodd" clip-rule="evenodd" d="M1.17139 249.477H381.829V0H1.17139V249.477Z" fill="#F5F4F3"/>
<g id="Group 4">
<mask id="mask1_7403_83615" style="mask-type:luminance" maskUnits="userSpaceOnUse" x="1" y="70" width="381" height="152">
<path id="Clip 3" fill-rule="evenodd" clip-rule="evenodd" d="M1.17151 70.2754H381.829V221.367H1.17151V70.2754Z" fill="white"/>
</mask>
<g mask="url(#mask1_7403_83615)">
<path id="Fill 2" fill-rule="evenodd" clip-rule="evenodd" d="M-32.0462 70.2754C-32.9089 70.2754 -33.6225 70.9437 -33.6225 71.7539V73.7608V103.449H-47.033V94.3929V93.0235C-47.033 92.2143 -47.7298 91.5609 -48.5925 91.5609H-50.5017H-65.3056H-67.197C-68.0607 91.5609 -68.7743 92.2143 -68.7743 93.0235V94.3929V111.244H-85.8016V108.832V104.258C-85.8016 103.449 -86.4993 102.78 -87.362 102.78H-93.204H-128.405H-134.231C-135.093 102.78 -135.807 103.449 -135.807 104.258V108.832V118.884H-149.565V114.216V112.536C-149.565 111.727 -150.279 111.058 -151.142 111.058H-153.448H-169.979H-172.269C-173.132 111.058 -173.845 111.727 -173.845 112.536V114.216V121.996H-177.962V221.367H555.614V123.179H506.888V114.123V111.167C506.888 110.357 506.174 109.688 505.31 109.688H501.46H478.325H474.458C473.594 109.688 472.898 110.357 472.898 111.167V114.123V123.179L461.878 115.757V97.2556V94.9997C461.878 94.1906 461.181 93.5213 460.318 93.5213H457.298H437.747H434.743C433.88 93.5213 433.166 94.1906 433.166 94.9997V97.2556V121.996H419.242V110.793V106.779C419.242 105.97 418.528 105.3 417.665 105.3H412.52H390.48H387.659V96.3066V94.9997C387.659 94.1906 386.945 93.5213 386.083 93.5213H384.24H369.652H367.809C366.946 93.5213 366.233 94.1906 366.233 94.9997V96.3066V110.73H360.076V106.607V102.048C360.076 101.24 359.362 100.57 358.499 100.57H352.657H317.324H315.132V95.6691V93.3973C315.132 92.5882 314.435 91.9189 313.557 91.9189H310.552H291.002H290.986H289.508V82.0535V81.3068C289.508 80.4977 288.794 79.8294 287.932 79.8294H286.787H275.186H274.041C273.177 79.8294 272.464 80.4977 272.464 81.3068V82.0535V97.3181V108.023H249.561V99.0454V98.2988C249.561 97.4896 248.864 96.8362 247.984 96.8362H246.839H237.96V89.4607V87.189C237.96 86.3798 237.246 85.7264 236.384 85.7264H233.379H213.828H210.808C209.945 85.7264 209.248 86.3798 209.248 87.189V89.4607V97.6453H203.422H202.277C201.415 97.6453 200.701 98.2988 200.701 99.1228V99.8546V103.308H181.798V89.4607V87.189C181.798 86.3798 181.084 85.7264 180.221 85.7264H177.218H157.667H154.646C153.783 85.7264 153.086 86.3798 153.086 87.189V89.4607V102.593H142.149V100.788V98.501C142.149 97.6919 141.436 97.0226 140.573 97.0226H131.427V74.6473V72.6403C131.427 71.8312 130.715 71.1619 129.852 71.1619H127.146H108.89H106.184C105.322 71.1619 104.608 71.8312 104.608 72.6403V74.6473V103.045V103.308H98.5504V82.6138V81.8671C98.5504 81.058 97.8368 80.4045 96.9731 80.4045H95.8292H84.2275H83.0826C82.2199 80.4045 81.5232 81.058 81.5232 81.8671V82.6138V108.319V108.412H74.9009V92.9769V90.9699C74.9009 90.1449 74.1873 89.4914 73.3246 89.4914H70.6193H60.5949V79.6737V77.6667C60.5949 76.8566 59.8813 76.1882 59.0186 76.1882H56.3123H38.0565H35.3512C34.4885 76.1882 33.7749 76.8566 33.7749 77.6667V79.6737V106.281H31.5178V98.2829V97.5362C31.5178 96.7271 30.8042 96.0578 29.9415 96.0578H28.7955H17.1949H16.0499C15.1872 96.0578 14.4905 96.7271 14.4905 97.5362V98.2829V106.281H6.24126V97.4113V95.3884C6.24126 94.5793 5.52765 93.9268 4.66496 93.9268H1.95959H-6.8035V73.7608V71.7539C-6.8035 70.9437 -7.51712 70.2754 -8.37981 70.2754H-32.0462Z" fill="#E8E8E8"/>
</g>
</g>
<path id="Fill 5" fill-rule="evenodd" clip-rule="evenodd" d="M191.964 193.258C98.7052 193.258 1.17139 224.731 1.17139 224.731V248.307H381.829V220.782C381.829 220.782 285.223 193.258 191.964 193.258Z" fill="#D3D5D7"/>
<g id="Group 9">
<mask id="mask2_7403_83615" style="mask-type:luminance" maskUnits="userSpaceOnUse" x="66" y="217" width="243" height="12">
<path id="Clip 8" fill-rule="evenodd" clip-rule="evenodd" d="M66.7616 217.854C66.7616 217.854 88.288 226.197 137.409 227.431C168.871 228.221 225.602 229.387 257.672 226.836C295.796 223.802 308.04 217.854 308.04 217.854H66.7616Z" fill="white"/>
</mask>
<g mask="url(#mask2_7403_83615)">
<path id="Fill 7" fill-rule="evenodd" clip-rule="evenodd" d="M64.5381 259.627H310.263V215.564H64.5381V259.627Z" fill="#676B6F"/>
</g>
</g>
<g id="Group 93">
<path id="Fill 10" fill-rule="evenodd" clip-rule="evenodd" d="M165.925 219.024H177.622C187.554 219.024 195.606 206.591 195.606 191.253C195.606 175.917 187.554 163.482 177.622 163.482H165.925C155.109 163.482 154.754 219.024 165.925 219.024Z" fill="#212121"/>
<path id="Fill 12" fill-rule="evenodd" clip-rule="evenodd" d="M165.924 219.024C156.02 219.024 147.942 206.549 147.942 191.252C147.942 175.958 156.02 163.482 165.924 163.482C175.83 163.482 183.909 175.958 183.909 191.252C183.909 206.549 175.83 219.024 165.924 219.024Z" fill="#212121"/>
<path id="Fill 14" fill-rule="evenodd" clip-rule="evenodd" d="M165.925 211.528C158.692 211.528 152.795 202.419 152.795 191.252C152.795 180.084 158.692 170.975 165.925 170.975C173.158 170.975 179.056 180.084 179.056 191.252C179.056 202.419 173.158 211.528 165.925 211.528Z" fill="#212121"/>
<path id="Fill 16" fill-rule="evenodd" clip-rule="evenodd" d="M165.925 208.644C159.721 208.644 154.661 200.831 154.661 191.251C154.661 181.672 159.721 173.859 165.925 173.859C172.129 173.859 177.188 181.672 177.188 191.251C177.188 200.831 172.129 208.644 165.925 208.644Z" fill="#212121"/>
<path id="Fill 18" fill-rule="evenodd" clip-rule="evenodd" d="M168.103 208.318C173.281 206.751 177.188 199.706 177.188 191.252C177.188 182.797 173.281 175.753 168.103 174.186C162.924 175.753 159.018 182.797 159.018 191.252C159.018 199.706 162.924 206.751 168.103 208.318Z" fill="#212121"/>
<path id="Fill 20" fill-rule="evenodd" clip-rule="evenodd" d="M165.185 204.845C163.919 203.812 163.199 202.463 163.514 201.345C163.83 200.227 165.472 199.075 166.566 199.953C167.655 200.849 168.154 203.746 167.839 204.863C167.522 205.98 166.452 205.873 165.185 204.845ZM160.384 194.565C160.068 192.241 160.241 190.443 160.953 190.165C161.663 189.885 163.219 191.344 163.496 193.346C163.763 195.348 162.741 197.817 162.031 198.096C161.319 198.375 160.7 196.889 160.384 194.565ZM162.119 181.779C162.993 179.912 163.927 179.02 164.5 179.79C165.072 180.56 165.371 183.532 164.623 185.149C163.867 186.754 162.094 186.938 161.522 186.169C160.95 185.399 161.247 183.651 162.119 181.779ZM169.12 176.107C170.524 176.11 171.516 176.8 171.516 178.04C171.516 179.278 170.329 181.522 169.12 181.532C167.91 181.522 166.721 179.278 166.721 178.04C166.721 176.8 167.714 176.11 169.12 176.107ZM167.654 208.44C169.627 207.972 171.43 206.712 172.925 204.877L172.912 204.888C171.648 205.923 170.578 206.036 170.259 204.919C169.942 203.804 170.435 200.906 171.523 200.004C172.615 199.117 174.259 200.26 174.576 201.377C174.661 201.674 174.672 201.99 174.618 202.312C175.275 201.083 175.823 199.711 176.243 198.232C176.2 198.228 176.158 198.218 176.113 198.201C175.401 197.926 174.375 195.463 174.638 193.457C174.911 191.462 176.455 189.997 177.17 190.26C177.119 188.855 176.959 187.493 176.704 186.196L176.672 186.241C176.102 187.015 174.329 186.84 173.569 185.24C172.819 183.628 173.111 180.653 173.682 179.879C173.856 179.643 174.065 179.563 174.296 179.617C172.582 176.681 170.229 174.65 167.575 174.047C162.635 175.278 157.448 180.457 157.448 191.235C157.448 202.011 162.675 207.267 167.654 208.44Z" fill="#212121"/>
<path id="Fill 22" fill-rule="evenodd" clip-rule="evenodd" d="M173.947 181.855C174.821 183.721 175.124 185.468 174.553 186.24C173.982 187.014 172.208 186.839 171.449 185.239C170.699 183.627 170.991 180.653 171.562 179.88C172.132 179.107 173.069 179.993 173.947 181.855ZM175.635 194.66C175.321 196.985 174.706 198.475 173.994 198.2C173.282 197.925 172.256 195.463 172.519 193.456C172.792 191.456 174.344 189.989 175.055 190.263C175.768 190.538 175.944 192.333 175.635 194.66ZM170.793 204.887C169.528 205.922 168.458 206.035 168.141 204.918C167.822 203.804 168.316 200.906 169.403 200.003C170.494 199.117 172.139 200.26 172.457 201.376C172.774 202.494 172.058 203.846 170.793 204.887ZM163.065 204.845C161.798 203.812 161.079 202.463 161.395 201.344C161.71 200.226 163.351 199.074 164.446 199.952C165.534 200.848 166.035 203.745 165.718 204.863C165.403 205.979 164.333 205.873 163.065 204.845ZM158.263 194.564C157.948 192.24 158.122 190.442 158.832 190.164C159.543 189.885 161.098 191.344 161.376 193.345C161.644 195.347 160.622 197.817 159.911 198.096C159.199 198.374 158.58 196.888 158.263 194.564ZM160 181.778C160.873 179.912 161.808 179.019 162.38 179.789C162.953 180.559 163.251 183.533 162.504 185.148C161.747 186.753 159.974 186.939 159.403 186.169C158.83 185.398 159.128 183.65 160 181.778ZM166.999 176.106C168.403 176.109 169.397 176.8 169.397 178.039C169.397 179.277 168.209 181.521 166.999 181.531C165.789 181.521 164.601 179.277 164.601 178.039C164.601 176.8 165.595 176.109 166.999 176.106ZM166.702 208.603C172.465 207.995 177.036 200.698 177.184 191.702L177.185 191.682L177.188 191.253V191.234C177.182 181.918 172.433 174.318 166.468 173.881C161.043 174.312 156.721 181.916 156.721 191.234C156.721 200.686 161.168 208.375 166.702 208.603Z" fill="#212121"/>
<path id="Fill 24" fill-rule="evenodd" clip-rule="evenodd" d="M166.955 187.234C165.447 187.234 164.225 189.121 164.225 191.447C164.225 193.774 165.447 195.661 166.955 195.661C168.463 195.661 169.685 193.774 169.685 191.447C169.685 189.121 168.463 187.234 166.955 187.234Z" fill="#212121"/>
<path id="Fill 26" fill-rule="evenodd" clip-rule="evenodd" d="M298.512 219.024H310.209C320.142 219.024 328.193 206.591 328.193 191.253C328.193 175.917 320.142 163.482 310.209 163.482H298.512C287.696 163.482 287.342 219.024 298.512 219.024Z" fill="#212121"/>
<path id="Fill 28" fill-rule="evenodd" clip-rule="evenodd" d="M298.512 219.024C288.607 219.024 280.529 206.549 280.529 191.252C280.529 175.958 288.607 163.482 298.512 163.482C308.417 163.482 316.496 175.958 316.496 191.252C316.496 206.549 308.417 219.024 298.512 219.024Z" fill="#212121"/>
<path id="Fill 30" fill-rule="evenodd" clip-rule="evenodd" d="M298.512 211.528C291.279 211.528 285.382 202.419 285.382 191.252C285.382 180.084 291.279 170.975 298.512 170.975C305.745 170.975 311.643 180.084 311.643 191.252C311.643 202.419 305.745 211.528 298.512 211.528Z" fill="#212121"/>
<path id="Fill 32" fill-rule="evenodd" clip-rule="evenodd" d="M298.512 208.644C292.308 208.644 287.249 200.831 287.249 191.251C287.249 181.672 292.308 173.859 298.512 173.859C304.715 173.859 309.775 181.672 309.775 191.251C309.775 200.831 304.715 208.644 298.512 208.644Z" fill="#212121"/>
<path id="Fill 34" fill-rule="evenodd" clip-rule="evenodd" d="M300.69 208.318C305.868 206.751 309.775 199.706 309.775 191.252C309.775 182.797 305.868 175.753 300.69 174.186C295.512 175.753 291.604 182.797 291.604 191.252C291.604 199.706 295.512 206.751 300.69 208.318Z" fill="#212121"/>
<path id="Fill 36" fill-rule="evenodd" clip-rule="evenodd" d="M297.772 204.845C296.506 203.812 295.787 202.463 296.102 201.345C296.417 200.227 298.06 199.075 299.152 199.953C300.241 200.849 300.741 203.746 300.425 204.863C300.11 205.98 299.04 205.873 297.772 204.845ZM292.97 194.565C292.656 192.241 292.828 190.443 293.539 190.165C294.25 189.885 295.806 191.344 296.083 193.346C296.35 195.348 295.329 197.817 294.618 198.096C293.906 198.375 293.288 196.889 292.97 194.565ZM294.707 181.779C295.58 179.912 296.514 179.02 297.087 179.79C297.659 180.56 297.958 183.532 297.211 185.149C296.453 186.754 294.681 186.938 294.109 186.169C293.537 185.399 293.835 183.651 294.707 181.779ZM301.706 176.107C303.111 176.11 304.104 176.8 304.104 178.04C304.104 179.278 302.917 181.522 301.706 181.532C300.496 181.522 299.309 179.278 299.309 178.04C299.309 176.8 300.302 176.11 301.706 176.107ZM300.241 208.44C302.215 207.972 304.018 206.712 305.513 204.877L305.5 204.888C304.235 205.923 303.164 206.036 302.847 204.919C302.529 203.804 303.023 200.906 304.11 200.004C305.201 199.117 306.846 200.26 307.164 201.377C307.248 201.674 307.26 201.99 307.206 202.312C307.863 201.083 308.411 199.711 308.831 198.232C308.787 198.228 308.744 198.218 308.7 198.201C307.989 197.926 306.962 195.463 307.226 193.457C307.498 191.462 309.043 189.997 309.757 190.26C309.706 188.855 309.547 187.493 309.292 186.196L309.259 186.241C308.689 187.015 306.915 186.84 306.156 185.24C305.405 183.628 305.698 180.653 306.268 179.879C306.443 179.643 306.653 179.563 306.883 179.617C305.17 176.681 302.816 174.65 300.163 174.047C295.221 175.278 290.035 180.457 290.035 191.235C290.035 202.011 295.263 207.267 300.241 208.44Z" fill="#212121"/>
<path id="Fill 38" fill-rule="evenodd" clip-rule="evenodd" d="M306.534 181.855C307.407 183.721 307.711 185.468 307.14 186.24C306.569 187.014 304.795 186.839 304.036 185.239C303.286 183.627 303.578 180.653 304.149 179.88C304.719 179.107 305.656 179.993 306.534 181.855ZM308.222 194.66C307.908 196.985 307.293 198.475 306.58 198.2C305.869 197.925 304.843 195.463 305.106 193.456C305.379 191.456 306.931 189.989 307.642 190.263C308.355 190.538 308.531 192.333 308.222 194.66ZM303.38 204.887C302.115 205.922 301.045 206.035 300.727 204.918C300.409 203.804 300.903 200.906 301.989 200.003C303.081 199.117 304.725 200.26 305.044 201.376C305.361 202.494 304.645 203.846 303.38 204.887ZM295.652 204.845C294.385 203.812 293.666 202.463 293.982 201.344C294.297 200.226 295.938 199.074 297.033 199.952C298.121 200.848 298.621 203.745 298.305 204.863C297.989 205.979 296.92 205.873 295.652 204.845ZM290.85 194.564C290.535 192.24 290.707 190.442 291.419 190.164C292.13 189.885 293.685 191.344 293.963 193.345C294.231 195.347 293.208 197.817 292.498 198.096C291.786 198.374 291.167 196.888 290.85 194.564ZM292.587 181.778C293.46 179.912 294.395 179.019 294.966 179.789C295.539 180.559 295.838 183.533 295.09 185.148C294.334 186.753 292.561 186.939 291.989 186.169C291.417 185.398 291.715 183.65 292.587 181.778ZM299.586 176.106C300.99 176.109 301.983 176.8 301.983 178.039C301.983 179.277 300.796 181.521 299.586 181.531C298.376 181.521 297.188 179.277 297.188 178.039C297.188 176.8 298.182 176.109 299.586 176.106ZM299.289 208.603C305.052 207.995 309.623 200.698 309.771 191.702L309.772 191.682L309.775 191.253V191.234C309.769 181.918 305.02 174.318 299.056 173.881C293.631 174.312 289.308 181.916 289.308 191.234C289.308 200.686 293.755 208.375 299.289 208.603Z" fill="#212121"/>
<path id="Fill 40" fill-rule="evenodd" clip-rule="evenodd" d="M299.542 187.234C298.035 187.234 296.812 189.121 296.812 191.447C296.812 193.774 298.035 195.661 299.542 195.661C301.05 195.661 302.272 193.774 302.272 191.447C302.272 189.121 301.05 187.234 299.542 187.234Z" fill="#212121"/>
<path id="Fill 42" fill-rule="evenodd" clip-rule="evenodd" d="M245.623 201.092L99.9081 201.08L52.8386 194.137L52.7013 150.205H245.623V201.092Z" fill="#212121"/>
<path id="Fill 44" fill-rule="evenodd" clip-rule="evenodd" d="M207.186 163.482H218.883C228.816 163.482 236.868 175.916 236.868 191.253C236.868 206.589 228.816 219.024 218.883 219.024H207.186C196.37 219.024 196.016 163.482 207.186 163.482Z" fill="#212121"/>
<path id="Fill 46" fill-rule="evenodd" clip-rule="evenodd" d="M207.186 219.024C197.281 219.024 189.202 206.549 189.202 191.252C189.202 175.958 197.281 163.482 207.186 163.482C217.092 163.482 225.17 175.958 225.17 191.252C225.17 206.549 217.092 219.024 207.186 219.024Z" fill="#373737"/>
<path id="Fill 48" fill-rule="evenodd" clip-rule="evenodd" d="M207.186 211.53C199.953 211.53 194.055 202.421 194.055 191.253C194.055 180.085 199.953 170.977 207.186 170.977C214.419 170.977 220.317 180.085 220.317 191.253C220.317 202.421 214.419 211.53 207.186 211.53Z" fill="white"/>
<path id="Fill 50" fill-rule="evenodd" clip-rule="evenodd" d="M207.186 208.646C200.982 208.646 195.923 200.833 195.923 191.253C195.923 181.674 200.982 173.861 207.186 173.861C213.39 173.861 218.449 181.674 218.449 191.253C218.449 200.833 213.39 208.646 207.186 208.646Z" fill="#969696"/>
<path id="Fill 52" fill-rule="evenodd" clip-rule="evenodd" d="M209.364 174.188C214.542 175.754 218.449 182.799 218.449 191.255C218.449 199.709 214.542 206.754 209.364 208.321C204.186 206.754 200.278 199.709 200.278 191.255C200.278 182.799 204.186 175.754 209.364 174.188Z" fill="#212121"/>
<path id="Fill 54" fill-rule="evenodd" clip-rule="evenodd" d="M210.039 202.773C205.931 202.773 202.58 197.599 202.58 191.254C202.58 184.908 205.931 179.734 210.039 179.734C214.148 179.734 217.5 184.908 217.5 191.254C217.5 197.599 214.148 202.773 210.039 202.773Z" fill="#C9C9C9"/>
<path id="Fill 56" fill-rule="evenodd" clip-rule="evenodd" d="M214.468 177.985C215.691 179.588 216.69 181.586 217.382 183.854L214.901 189.281L218.448 190.926L218.45 191.253C218.45 193.611 218.145 195.858 217.596 197.909L213.49 196.005V205.669C212.219 206.997 210.762 207.934 209.194 208.37C209.098 208.343 209.003 208.316 208.908 208.286V196.005L201.293 199.536H199.164C200.23 195.956 200.179 196.356 199.978 192.769L207.498 189.281L202.969 179.379C204.307 177.172 204.445 178.035 204.575 175.303H206.704L211.198 185.133L214.468 177.985Z" fill="#676767"/>
<path id="Fill 58" fill-rule="evenodd" clip-rule="evenodd" d="M213.059 176.41C214.386 177.666 215.531 179.333 216.421 181.297L212.771 189.281L218.442 191.912C218.382 194.363 217.995 196.687 217.344 198.779L211.361 196.005V207.411C210.346 208.037 209.26 208.441 208.125 208.586C207.668 208.527 207.218 208.426 206.778 208.286V196.005L199.164 199.536C198.853 198.654 198.593 197.726 198.384 196.761L198.178 195.695C198.015 194.75 197.905 193.772 197.849 192.769L205.368 189.281L200.84 179.379C201.303 178.617 201.807 177.919 202.352 177.294L202.837 176.764C203.385 176.202 203.966 175.712 204.575 175.303L209.069 185.133L213.059 176.41Z" fill="white"/>
<path id="Fill 60" fill-rule="evenodd" clip-rule="evenodd" d="M208.612 194.791C207.351 194.791 206.322 193.201 206.322 191.252C206.322 189.305 207.351 187.715 208.612 187.715C209.875 187.715 210.904 189.305 210.904 191.252C210.904 193.201 209.875 194.791 208.612 194.791Z" fill="#AFAFAF"/>
<path id="Fill 62" fill-rule="evenodd" clip-rule="evenodd" d="M74.5989 219.024H86.2959C96.2283 219.024 104.281 206.591 104.281 191.253C104.281 175.917 96.2283 163.482 86.2959 163.482H74.5989C63.7828 163.482 63.4284 219.024 74.5989 219.024Z" fill="#212121"/>
<path id="Fill 64" fill-rule="evenodd" clip-rule="evenodd" d="M74.5991 219.024C64.6935 219.024 56.6143 206.549 56.6143 191.252C56.6143 175.958 64.6935 163.482 74.5991 163.482C84.5046 163.482 92.5829 175.958 92.5829 191.252C92.5829 206.549 84.5046 219.024 74.5991 219.024Z" fill="#373737"/>
<path id="Fill 66" fill-rule="evenodd" clip-rule="evenodd" d="M74.599 211.528C67.3656 211.528 61.4679 202.42 61.4679 191.252C61.4679 180.084 67.3656 170.975 74.599 170.975C81.8313 170.975 87.73 180.084 87.73 191.252C87.73 202.42 81.8313 211.528 74.599 211.528Z" fill="white"/>
<path id="Fill 68" fill-rule="evenodd" clip-rule="evenodd" d="M74.5991 208.644C68.3958 208.644 63.3361 200.832 63.3361 191.251C63.3361 181.672 68.3958 173.859 74.5991 173.859C80.8024 173.859 85.8621 181.672 85.8621 191.251C85.8621 200.832 80.8024 208.644 74.5991 208.644Z" fill="#969696"/>
<path id="Fill 70" fill-rule="evenodd" clip-rule="evenodd" d="M76.7765 208.319C81.9547 206.752 85.862 199.707 85.862 191.253C85.862 182.798 81.9547 175.754 76.7765 174.186C71.5983 175.754 67.691 182.798 67.691 191.253C67.691 199.707 71.5983 206.752 76.7765 208.319Z" fill="#212121"/>
<path id="Fill 72" fill-rule="evenodd" clip-rule="evenodd" d="M77.4519 202.771C73.3436 202.771 69.9927 197.597 69.9927 191.252C69.9927 184.907 73.3436 179.732 77.4519 179.732C81.5602 179.732 84.9122 184.907 84.9122 191.252C84.9122 197.597 81.5602 202.771 77.4519 202.771Z" fill="#C9C9C9"/>
<path id="Fill 74" fill-rule="evenodd" clip-rule="evenodd" d="M81.8804 204.52C83.1046 202.918 84.1028 200.92 84.7945 198.652L82.3134 193.224L85.8604 191.58L85.8624 191.253C85.8624 188.894 85.5578 186.648 85.0084 184.597L80.9031 186.5V176.837C79.6322 175.508 78.1762 174.571 76.6067 174.135C76.5112 174.162 76.4156 174.19 76.3211 174.22V186.5L68.7056 182.969H66.5768C67.6427 186.549 67.5929 186.15 67.3909 189.737L74.9108 193.224L70.3815 203.127C71.7201 205.334 71.8585 204.47 71.9878 207.203H74.1166L78.6111 197.372L81.8804 204.52Z" fill="#676767"/>
<path id="Fill 76" fill-rule="evenodd" clip-rule="evenodd" d="M80.4723 206.095C81.799 204.84 82.9445 203.173 83.8342 201.21L80.1837 193.225L85.8545 190.595C85.7958 188.142 85.4077 185.818 84.7568 183.727L78.7744 186.5V175.094C77.7593 174.469 76.6725 174.064 75.538 173.92C75.0811 173.98 74.6313 174.079 74.1914 174.221V186.5L66.5769 182.969C66.2674 183.852 66.0056 184.779 65.7966 185.744L65.5906 186.811C65.4284 187.757 65.3189 188.734 65.2622 189.737L72.7812 193.225L68.2539 203.127C68.7157 203.889 69.2212 204.588 69.7646 205.212L70.2513 205.741C70.7977 206.303 71.3789 206.794 71.988 207.204L76.4824 197.373L80.4723 206.095Z" fill="white"/>
<path id="Fill 78" fill-rule="evenodd" clip-rule="evenodd" d="M76.0254 194.791C74.7634 194.791 73.7344 193.202 73.7344 191.252C73.7344 189.305 74.7634 187.715 76.0254 187.715C77.2873 187.715 78.3164 189.305 78.3164 191.252C78.3164 193.202 77.2873 194.791 76.0254 194.791Z" fill="#AFAFAF"/>
<path id="Fill 80" fill-rule="evenodd" clip-rule="evenodd" d="M101.664 201.088H180.205V195.863H101.664V201.088Z" fill="#212121"/>
<path id="Fill 82" fill-rule="evenodd" clip-rule="evenodd" d="M77.2499 101.824C105.563 96.6144 142.85 94.8711 169.675 94.8711C191.726 94.8711 226.284 94.898 236.635 100.086C254.595 109.297 266.843 122.033 282.589 132.574C302.128 135.254 323.511 138.999 331.739 142.833C342.561 147.876 342.67 152.595 343.708 164.08C343.872 165.908 346.701 166.459 347.33 168.355C348.228 171.065 347.818 175.879 347.35 177.668C347.095 178.646 345.564 179.638 345.601 180.647C345.929 189.636 343.75 196.844 337.41 201.096L238.689 201.093L233.633 194.864H228.939C229.412 192.57 229.663 190.169 229.663 187.696C229.663 171.495 220.856 157.873 207.584 157.873C194.313 157.873 185.504 171.495 185.504 187.696C185.504 189.864 185.697 191.977 186.062 194.011L182.642 201.088L175.099 194.864H100.812L96.7495 187.696C96.7495 171.495 87.9427 157.873 74.6703 157.873C63.2888 157.873 55.7082 168.02 53.2231 180.988L52.8389 194.137L44.4929 186.423C42.9483 181.565 41.4037 179.15 39.8601 174.292C39.68 168.524 40.1915 163.912 40.4951 161.774C40.6115 160.959 40.921 160.099 41.2395 159.448C42.1063 157.681 43.7385 154.633 43.7694 154.27C44.1197 150.206 43.7495 147.134 44.6581 143.404C45.1965 141.191 44.3725 137.827 44.7298 135.881C44.9905 134.466 51.8009 131.773 52.4737 131.138L70.5719 106.065C72.1553 103.869 74.1428 102.396 77.2499 101.824Z" fill="#326B00"/>
<path id="Fill 83" fill-rule="evenodd" clip-rule="evenodd" d="M89.9492 152.004C82.9209 147.504 73.2662 147.637 66.0965 150.977C59.4116 154.09 54.4921 162.167 56.4906 163.242C58.1207 164.12 60.364 160.445 64.53 158.679C70.9582 155.954 80.4099 154.726 87.1446 158.111C98.2435 163.688 96.0579 185.515 101.373 185.537C106.689 185.56 105.579 162.007 89.9492 152.004Z" fill="#7AA44D"/>
<path id="Fill 84" fill-rule="evenodd" clip-rule="evenodd" d="M224.219 152.117C216.039 146.817 205.114 145.833 195.488 152.135C189.174 156.267 186.172 163.475 186.358 166.211C186.485 168.1 192.473 161.697 198.91 158.996C205.613 156.186 213.968 155.266 219.629 158.111C230.729 163.687 231.634 187.953 233.859 185.537C236.085 183.12 237.001 160.398 224.219 152.117Z" fill="#7AA44D"/>
<path id="Fill 85" fill-rule="evenodd" clip-rule="evenodd" d="M77.2498 101.824C105.563 96.6144 142.849 94.8711 169.675 94.8711C191.726 94.8711 226.284 94.898 236.635 100.086C254.595 109.297 266.843 122.033 282.589 132.574C302.128 135.254 323.511 138.999 331.739 142.833C335.33 144.507 337.741 146.146 339.398 148.006C324.337 149.63 299.868 150.245 279.475 149.76C261.971 148.741 248.207 149.75 234.302 147.581C223.767 145.939 215.041 145.464 207.948 144.447H44.447C44.6252 143.474 44.6889 142.501 44.5545 141.525L52.4736 131.138L66.5521 132.552H184.143C187.09 132.552 189.035 129.685 185.798 125.611C179.295 117.429 175.605 111.579 167.628 102.719C159.922 94.1618 122.225 98.002 77.2498 101.824Z" fill="#7AA44D"/>
<path id="Fill 86" fill-rule="evenodd" clip-rule="evenodd" d="M97.0832 191.03C98.0884 180.176 93.8278 165.096 87.2802 156.521C90.4808 158.721 99.1652 161.161 100.461 163.731C107.547 177.787 111.886 186.081 154.689 188.815C155.995 188.899 156.135 190.954 154.661 190.956L97.0832 191.03Z" fill="#7AA44D"/>
<path id="Fill 87" fill-rule="evenodd" clip-rule="evenodd" d="M44.6582 143.405C44.6055 142.214 44.2761 138.346 44.7299 135.882C45.0703 134.032 51.6338 131.592 52.4738 131.139C53.5228 130.496 54.2324 137.212 53.8641 138.589C53.3068 140.673 44.6712 145.139 44.6582 143.405Z" fill="#D12937"/>
<path id="Fill 88" fill-rule="evenodd" clip-rule="evenodd" d="M237.755 100.67C255.096 109.824 267.156 122.237 282.557 132.552H196.156C195.16 132.552 194.244 132.162 193.574 131.316L170.527 102.239C169.853 101.388 170.112 100.67 171.441 100.67H237.755Z" fill="#212121"/>
<path id="Fill 89" fill-rule="evenodd" clip-rule="evenodd" d="M233.301 194.863H228.452C228.923 192.569 229.175 190.168 229.175 187.695C229.175 171.494 220.05 158.361 207.585 158.361C195.118 158.361 185.992 171.494 185.992 187.695C185.992 190.14 186.237 192.517 186.7 194.787C187.445 198.453 185.248 201.087 183.434 201.087C182.038 196.96 181.265 192.437 181.265 187.695C181.265 168.307 191.702 152.59 207.585 152.59C223.466 152.59 233.902 168.307 233.902 187.695C233.902 190.152 233.694 192.548 233.301 194.863Z" fill="#373737"/>
<path id="Fill 90" fill-rule="evenodd" clip-rule="evenodd" d="M100.329 195.191L98.698 201.08C95.2167 201.08 95.2197 196.403 95.5332 194.887C96.0079 192.586 96.2617 190.176 96.2617 187.695C96.2617 171.494 86.598 158.361 75.1589 158.361C63.7187 158.361 56.1957 168.019 53.7106 180.987L52.8388 194.136C50.9141 189.876 49.6591 184.689 50.0283 179.964C51.7301 164.888 60.3638 152.59 75.1589 152.59C89.953 152.59 100.989 168.307 100.989 187.695C100.989 190.269 100.76 192.775 100.329 195.191Z" fill="#373737"/>
<path id="Fill 91" fill-rule="evenodd" clip-rule="evenodd" d="M112.027 194.865L103.363 201.089L98.2417 201.082L96.3945 194.865H112.027ZM184.139 194.865L183.435 201.089L181.461 201.088C180.614 201.088 179.779 200.738 179.068 200.151L172.66 194.865H184.139ZM343.016 194.865C341.967 196.84 339.907 199.717 337.41 201.097H293.858C273.742 201.096 254.975 201.094 234.858 201.094C231.702 201.094 228.452 198.105 228.452 194.865L233.691 191.97L236.958 194.865H269.397L272.214 191.97L276.195 181.872C276.983 179.871 278.334 178.711 280.416 178.711H338.719C340.938 178.711 342.74 179.685 343.183 181.872L344.834 190.042C344.43 191.636 343.874 193.24 343.016 194.865Z" fill="#373737"/>
<path id="Fill 92" fill-rule="evenodd" clip-rule="evenodd" d="M76.3831 107.466C91.8808 103.927 113.345 101.054 128.721 100.394C138.949 99.9558 157.942 98.7535 163.603 104.833C170.24 111.961 176.671 121.996 182.4 130.822C182.935 131.645 182.542 132.552 181.709 132.552H63.0132C62.2976 132.552 61.7492 131.722 62.0926 131.114L74.8534 108.605C75.1699 108.045 75.5322 107.66 76.3831 107.466Z" fill="#212121"/>
</g>
<g id="Group 96">
<mask id="mask3_7403_83615" style="mask-type:luminance" maskUnits="userSpaceOnUse" x="64" y="101" width="216" height="31">
<path id="Clip 95" fill-rule="evenodd" clip-rule="evenodd" d="M133.699 102.096L131.227 131.18H181.316C175.783 122.731 169.93 113.54 163.043 106.223C159.699 102.668 150.323 101.898 141.913 101.898C138.954 101.898 136.114 101.994 133.699 102.096ZM102.213 104.867C101.424 104.975 100.636 105.085 99.8465 105.197L90.939 131.18H122.481L126.221 102.449C118.207 102.904 110.14 103.785 102.213 104.867ZM172.812 102.569L195.192 130.506C195.561 130.966 196.038 131.18 196.627 131.18H279.93C275.13 127.844 270.52 124.262 265.914 120.665C257.48 114.076 249.243 107.721 239.854 102.569H172.812ZM77.3226 109.248C76.9787 109.326 76.9091 109.385 76.7401 109.677L64.4191 131.18H85.3753L94.4021 106.013C88.6735 106.919 82.9528 107.976 77.3226 109.248Z" fill="white"/>
</mask>
<g mask="url(#mask3_7403_83615)">
<path id="Fill 94" fill-rule="evenodd" clip-rule="evenodd" d="M133.699 102.096L131.227 131.18H181.316C175.783 122.731 169.93 113.54 163.043 106.223C159.699 102.668 150.323 101.898 141.913 101.898C138.954 101.898 136.114 101.994 133.699 102.096ZM102.213 104.867C101.424 104.975 100.636 105.085 99.8465 105.197L90.939 131.18H122.481L126.221 102.449C118.207 102.904 110.14 103.785 102.213 104.867ZM172.812 102.569L195.192 130.506C195.561 130.966 196.038 131.18 196.627 131.18H279.93C275.13 127.844 270.52 124.262 265.914 120.665C257.48 114.076 249.243 107.721 239.854 102.569H172.812ZM77.3226 109.248C76.9787 109.326 76.9091 109.385 76.7401 109.677L64.4191 131.18H85.3753L94.4021 106.013C88.6735 106.919 82.9528 107.976 77.3226 109.248Z" fill="url(#paint0_linear_7403_83615)"/>
</g>
</g>
<g id="Group 135">
<path id="Fill 97" fill-rule="evenodd" clip-rule="evenodd" d="M89.5275 119.512C82.8282 119.891 76.3318 120.462 70.0751 121.212L64.4191 131.228H85.3852L89.5275 119.512ZM124.048 119.247C114.072 118.861 104.355 118.872 94.9987 119.25L90.9519 131.228H122.511L124.048 119.247ZM280.042 131.228H196.694C196.107 131.228 195.628 131.011 195.259 130.543L182.815 114.783C191.696 114.786 200.831 115.107 210.149 115.777C232.586 117.388 253.704 120.83 272.468 125.614C274.958 127.533 277.472 129.417 280.042 131.228ZM181.375 131.228H131.261L132.232 119.649C133.795 119.743 135.362 119.843 136.937 119.956C151.021 120.967 164.583 122.701 177.372 125.032C178.731 127.116 180.063 129.193 181.375 131.228Z" fill="#212121"/>
<path id="Fill 99" fill-rule="evenodd" clip-rule="evenodd" d="M333.226 150.729H282.875C281.95 150.729 281.345 151.206 280.991 152.163L279.245 156.887H336.757L335.075 152.163C334.791 151.365 334.14 150.729 333.226 150.729ZM337.631 159.343H278.342L277.837 160.813C277.506 161.779 278.489 162.725 279.548 163.13L284.102 164.873C286.104 165.64 288.209 166.501 290.67 166.501H333.165C334.506 166.501 335.638 165.787 336.429 164.873L337.942 163.13C338.513 162.471 338.427 161.585 338.153 160.813L337.631 159.343Z" fill="#373737"/>
<path id="Fill 101" fill-rule="evenodd" clip-rule="evenodd" d="M333.372 156.887L331.691 152.162C331.406 151.365 330.756 150.729 329.841 150.729H282.875C281.95 150.729 281.345 151.205 280.991 152.162L279.245 156.887H333.372ZM334.246 159.343H278.342L277.838 160.813C277.507 161.779 278.488 162.725 279.547 163.13L284.101 164.873C286.103 165.64 288.209 166.501 290.669 166.501H329.78C331.121 166.501 332.253 165.787 333.044 164.873L334.556 163.13C335.128 162.471 335.043 161.585 334.768 160.813L334.246 159.343Z" fill="#212121"/>
<path id="Fill 103" fill-rule="evenodd" clip-rule="evenodd" d="M319.171 195.205C320.128 195.205 320.488 196.164 319.848 196.826L315.36 201.457H295.929L300.558 196.68C301.282 195.934 302.1 195.205 303.605 195.205H319.171ZM335.26 195.205H326.274C324.91 195.205 323.701 195.705 322.755 196.68L318.124 201.457H337.853L337.076 196.86C336.918 195.931 336.335 195.205 335.26 195.205ZM296.421 195.205H280.896C279.692 195.205 278.681 195.884 277.908 196.68L273.28 201.457H292.674L297.112 196.876C297.803 196.162 297.442 195.205 296.421 195.205Z" fill="#232323"/>
<path id="Fill 105" fill-rule="evenodd" clip-rule="evenodd" d="M339.057 190.602H282.872C281.896 190.602 280.866 189.478 281.192 188.555L282.074 186.066C282.399 185.143 283.362 184.285 284.334 184.285H339.057C340.031 184.285 340.83 185.087 340.83 186.066V188.82C340.83 189.797 340.032 190.602 339.057 190.602Z" fill="#272727"/>
<path id="Fill 107" fill-rule="evenodd" clip-rule="evenodd" d="M335.672 190.602H282.872C281.897 190.602 280.867 189.478 281.193 188.555L282.074 186.066C282.4 185.143 283.362 184.285 284.334 184.285H335.672C336.646 184.285 337.446 185.087 337.446 186.066V188.82C337.446 189.797 336.647 190.602 335.672 190.602Z" fill="#212121"/>
<path id="Fill 109" fill-rule="evenodd" clip-rule="evenodd" d="M264.388 179H252.237C250.668 179 249.098 180.29 248.748 181.867L248.107 184.755C247.758 186.332 248.755 187.622 250.325 187.622H262.475C264.043 187.622 265.614 186.332 265.964 184.755L266.604 181.867C266.955 180.29 265.957 179 264.388 179Z" fill="#373737"/>
<path id="Fill 111" fill-rule="evenodd" clip-rule="evenodd" d="M261.244 179H252.237C250.668 179 249.099 180.29 248.749 181.867L248.107 184.755C247.757 186.332 248.755 187.622 250.325 187.622H259.332C260.901 187.622 262.47 186.332 262.821 184.755L263.461 181.867C263.811 180.29 262.814 179 261.244 179Z" fill="#212121"/>
<path id="Fill 113" fill-rule="evenodd" clip-rule="evenodd" d="M257.239 180.525H253.226C252.211 180.525 251.198 181.359 250.971 182.378L250.558 184.243C250.332 185.261 250.976 186.094 251.991 186.094H256.004C257.018 186.094 258.031 185.261 258.257 184.243L258.671 182.378C258.898 181.359 258.253 180.525 257.239 180.525Z" fill="#E3E3E3"/>
<path id="Fill 115" fill-rule="evenodd" clip-rule="evenodd" d="M126.448 140.959H133.594C134.416 140.959 135.088 141.635 135.088 142.46C135.088 143.285 134.416 143.961 133.594 143.961H126.448C125.627 143.961 124.955 143.285 124.955 142.46C124.955 141.635 125.627 140.959 126.448 140.959Z" fill="#212121"/>
<path id="Fill 117" fill-rule="evenodd" clip-rule="evenodd" d="M87.8879 140.959H95.0337C95.8552 140.959 96.5265 141.635 96.5265 142.46C96.5265 143.285 95.8552 143.961 95.0337 143.961H87.8879C87.0654 143.961 86.394 143.285 86.394 142.46C86.394 141.635 87.0654 140.959 87.8879 140.959Z" fill="#212121"/>
<path id="Fill 119" fill-rule="evenodd" clip-rule="evenodd" d="M245.195 147.429L273.803 150.34C274.979 150.459 275.707 151.635 275.318 152.737L272.926 159.508C272.582 160.483 271.683 161.039 270.528 160.96L252.948 159.751C251.981 159.685 251.136 159.19 250.538 158.426L243.887 149.924C243.069 148.88 243.632 147.27 245.195 147.429Z" fill="#E3E3E3"/>
<path id="Fill 121" fill-rule="evenodd" clip-rule="evenodd" d="M340.566 149.08C342.834 150.257 344.315 158.637 343.87 160.909L342.674 160.993C341.443 161.079 340.484 160.516 340.116 159.541L337.673 153.058C337.259 151.956 337.624 151.262 338.516 150.555L340.566 149.08Z" fill="#E3E3E3"/>
<path id="Fill 123" fill-rule="evenodd" clip-rule="evenodd" d="M161.704 119.822H170.713C176.038 119.822 176.039 130.738 170.713 130.738H161.704C159.596 130.738 157.873 129.007 157.873 126.89V123.672C157.873 121.554 159.596 119.822 161.704 119.822Z" fill="#7AA44D"/>
<path id="Fill 125" fill-rule="evenodd" clip-rule="evenodd" d="M172.38 125.454L177.724 126.962C178.962 127.311 179.58 128.336 179.39 129.811C179.214 131.171 177.765 132.098 175.303 131.478L171.791 130.592C171.031 130.399 170.167 129.922 170.365 129.159L170.955 126.888C171.152 126.124 171.627 125.242 172.38 125.454Z" fill="#7AA44D"/>
<path id="Fill 127" fill-rule="evenodd" clip-rule="evenodd" d="M159.625 121.912C160.586 121.912 161.376 122.707 161.376 123.672V127.802C161.376 128.597 161.851 129.023 162.609 129.023H170.957C172.558 129.023 172.561 130.739 170.957 130.739H161.704C159.383 130.739 157.873 128.972 157.873 126.774V123.672C157.873 122.704 158.662 121.912 159.625 121.912Z" fill="#476718"/>
<path id="Fill 129" fill-rule="evenodd" clip-rule="evenodd" d="M346.551 170.005C346.863 169.408 346.636 168.669 346.042 168.355C345.448 168.04 344.712 168.27 344.4 168.867C344.082 169.47 343.556 169.898 342.84 170.18C341.993 170.515 340.895 170.662 339.572 170.664V170.659C315.657 170.659 273.743 170.586 252.321 166.026C245.016 164.471 253.383 172.34 256.217 172.34C280.995 173.863 314.675 173.108 339.572 173.108V173.104C341.201 173.101 342.594 172.903 343.726 172.456C344.991 171.956 345.941 171.16 346.551 170.005Z" fill="#7AA44D"/>
<path id="Fill 131" fill-rule="evenodd" clip-rule="evenodd" d="M107.281 198.096H178.411V195.203H107.281V198.096Z" fill="#373737"/>
<path id="Fill 133" fill-rule="evenodd" clip-rule="evenodd" d="M310.011 156.555H317.157C317.978 156.555 318.649 157.229 318.649 158.055V158.056C318.649 158.881 317.978 159.556 317.157 159.556H310.011C309.189 159.556 308.517 158.881 308.517 158.056V158.055C308.517 157.229 309.189 156.555 310.011 156.555Z" fill="#AFAFAF"/>
<path id="Fill 134" fill-rule="evenodd" clip-rule="evenodd" d="M282.762 149.26C279.472 145.952 270.622 143.055 258.269 140.624C245.318 138.076 230.375 136.624 211.985 135.101C208.7 134.829 200.745 135.682 207.111 136.182C226.504 137.731 244.37 139.883 257.896 142.545C268.903 144.711 277.256 147.215 280.476 149.971C281.417 150.777 281.888 150.86 282.742 150.519C283.596 150.177 282.918 149.416 282.762 149.26Z" fill="#476718"/>
</g>
<g id="Group 138">
<mask id="mask4_7403_83615" style="mask-type:luminance" maskUnits="userSpaceOnUse" x="110" y="18" width="165" height="59">
<path id="Clip 137" fill-rule="evenodd" clip-rule="evenodd" d="M115.229 18.7402C112.397 18.7947 110.098 21.4406 110.098 24.6664V55.2966C110.098 58.557 112.446 61.2247 115.318 61.2247H183.184L190.762 76.1317L198.34 61.2247H268.852C271.723 61.2247 274.074 58.557 274.074 55.2966V24.6664C274.074 21.4406 271.771 18.7947 268.942 18.7402H115.229Z" fill="white"/>
</mask>
<g mask="url(#mask4_7403_83615)">
<path id="Fill 136" fill-rule="evenodd" clip-rule="evenodd" d="M107.27 77.1205H276.45V17.75H107.27V77.1205Z" fill="#383F48"/>
</g>
</g>
<g id="Group 141">
<mask id="mask5_7403_83615" style="mask-type:luminance" maskUnits="userSpaceOnUse" x="121" y="28" width="25" height="22">
<path id="Clip 140" fill-rule="evenodd" clip-rule="evenodd" d="M132.533 28.7863L130.482 34.7345C130.342 35.1373 129.943 35.4115 129.492 35.4115H122.853C121.844 35.4115 121.427 36.6259 122.241 37.1841L127.612 40.8609C127.977 41.1093 128.128 41.5527 127.99 41.9565L125.938 47.9037C125.626 48.8073 126.724 49.5585 127.541 49.0003L132.911 45.3245C133.276 45.0751 133.769 45.0751 134.135 45.3245L139.506 49.0003C140.322 49.5585 141.419 48.8073 141.107 47.9037L139.056 41.9565C138.916 41.5527 139.068 41.1093 139.434 40.8609L144.804 37.1841C145.621 36.6259 145.2 35.4115 144.192 35.4115H137.555C137.104 35.4115 136.703 35.1373 136.564 34.7345L134.512 28.7863C134.357 28.334 133.939 28.1094 133.523 28.1094C133.105 28.1094 132.688 28.334 132.533 28.7863Z" fill="white"/>
</mask>
<g mask="url(#mask5_7403_83615)">
<path id="Fill 139" fill-rule="evenodd" clip-rule="evenodd" d="M120.362 50.611H146.686V26.8281H120.362V50.611Z" fill="#EDCB53"/>
</g>
</g>
<g id="Group 144">
<mask id="mask6_7403_83615" style="mask-type:luminance" maskUnits="userSpaceOnUse" x="152" y="28" width="24" height="22">
<path id="Clip 143" fill-rule="evenodd" clip-rule="evenodd" d="M162.986 28.7863L160.934 34.7345C160.795 35.1373 160.395 35.4115 159.944 35.4115H153.306C152.297 35.4115 151.879 36.6259 152.694 37.1841L158.064 40.8609C158.429 41.1093 158.582 41.5527 158.444 41.9565L156.391 47.9037C156.08 48.8073 157.178 49.5585 157.993 49.0003L163.363 45.3245C163.728 45.0751 164.222 45.0751 164.587 45.3245L169.958 49.0003C170.774 49.5585 171.872 48.8073 171.56 47.9037L169.509 41.9565C169.37 41.5527 169.521 41.1093 169.886 40.8609L175.257 37.1841C176.073 36.6259 175.654 35.4115 174.645 35.4115H168.006C167.556 35.4115 167.156 35.1373 167.016 34.7345L164.965 28.7863C164.809 28.334 164.392 28.1094 163.975 28.1094C163.557 28.1094 163.141 28.334 162.986 28.7863Z" fill="white"/>
</mask>
<g mask="url(#mask6_7403_83615)">
<path id="Fill 142" fill-rule="evenodd" clip-rule="evenodd" d="M150.815 50.611H177.138V26.8281H150.815V50.611Z" fill="#EDCB53"/>
</g>
</g>
<g id="Group 147">
<mask id="mask7_7403_83615" style="mask-type:luminance" maskUnits="userSpaceOnUse" x="180" y="28" width="24" height="22">
<path id="Clip 146" fill-rule="evenodd" clip-rule="evenodd" d="M191.096 28.7863L189.044 34.7345C188.904 35.1373 188.506 35.4115 188.054 35.4115H181.416C180.407 35.4115 179.989 36.6259 180.804 37.1841L186.174 40.8609C186.539 41.1093 186.69 41.5527 186.553 41.9565L184.501 47.9037C184.189 48.8073 185.288 49.5585 186.103 49.0003L191.474 45.3245C191.838 45.0751 192.33 45.0751 192.697 45.3245L198.068 49.0003C198.883 49.5585 199.982 48.8073 199.67 47.9037L197.619 41.9565C197.479 41.5527 197.631 41.1093 197.996 40.8609L203.367 37.1841C204.184 36.6259 203.764 35.4115 202.755 35.4115H196.116C195.666 35.4115 195.265 35.1373 195.126 34.7345L193.075 28.7863C192.919 28.334 192.502 28.1094 192.085 28.1094C191.668 28.1094 191.251 28.334 191.096 28.7863Z" fill="white"/>
</mask>
<g mask="url(#mask7_7403_83615)">
<path id="Fill 145" fill-rule="evenodd" clip-rule="evenodd" d="M178.925 50.611H205.248V26.8281H178.925V50.611Z" fill="#EDCB53"/>
</g>
</g>
<g id="Group 150">
<mask id="mask8_7403_83615" style="mask-type:luminance" maskUnits="userSpaceOnUse" x="208" y="28" width="24" height="22">
<path id="Clip 149" fill-rule="evenodd" clip-rule="evenodd" d="M219.205 28.7863L217.154 34.7345C217.015 35.1373 216.616 35.4115 216.164 35.4115H209.525C208.517 35.4115 208.099 36.6259 208.914 37.1841L214.283 40.8609C214.649 41.1093 214.801 41.5527 214.663 41.9565L212.61 47.9037C212.3 48.8073 213.398 49.5585 214.212 49.0003L219.583 45.3245C219.95 45.0751 220.442 45.0751 220.806 45.3245L226.179 49.0003C226.995 49.5585 228.092 48.8073 227.78 47.9037L225.728 41.9565C225.589 41.5527 225.741 41.1093 226.106 40.8609L231.476 37.1841C232.294 36.6259 231.873 35.4115 230.864 35.4115H224.225C223.776 35.4115 223.376 35.1373 223.237 34.7345L221.184 28.7863C221.029 28.334 220.613 28.1094 220.195 28.1094C219.778 28.1094 219.36 28.334 219.205 28.7863Z" fill="white"/>
</mask>
<g mask="url(#mask8_7403_83615)">
<path id="Fill 148" fill-rule="evenodd" clip-rule="evenodd" d="M207.035 50.611H233.359V26.8281H207.035V50.611Z" fill="#EDCB53"/>
</g>
</g>
<g id="Group 153">
<mask id="mask9_7403_83615" style="mask-type:luminance" maskUnits="userSpaceOnUse" x="238" y="28" width="25" height="22">
<path id="Clip 152" fill-rule="evenodd" clip-rule="evenodd" d="M249.658 28.7863L247.607 34.7345C247.467 35.1373 247.068 35.4115 246.617 35.4115H239.978C238.97 35.4115 238.552 36.6259 239.367 37.1841L244.737 40.8609C245.102 41.1093 245.254 41.5527 245.116 41.9565L243.063 47.9037C242.752 48.8073 243.85 49.5585 244.666 49.0003L250.036 45.3245C250.401 45.0751 250.894 45.0751 251.26 45.3245L256.631 49.0003C257.447 49.5585 258.545 48.8073 258.233 47.9037L256.181 41.9565C256.041 41.5527 256.193 41.1093 256.559 40.8609L261.93 37.1841C262.746 36.6259 262.326 35.4115 261.318 35.4115H254.68C254.229 35.4115 253.828 35.1373 253.689 34.7345L251.638 28.7863C251.482 28.334 251.065 28.1094 250.648 28.1094C250.23 28.1094 249.813 28.334 249.658 28.7863Z" fill="white"/>
</mask>
<g mask="url(#mask9_7403_83615)">
<path id="Fill 151" fill-rule="evenodd" clip-rule="evenodd" d="M237.487 50.611H263.811V26.8281H237.487V50.611Z" fill="#EDCB53"/>
</g>
</g>
</g>
</g>
</g>
<defs>
<linearGradient id="paint0_linear_7403_83615" x1="28.3541" y1="74.1919" x2="28.3541" y2="113.274" gradientUnits="userSpaceOnUse">
<stop stop-color="#242631"/>
<stop offset="1" stop-color="#2A2D31"/>
</linearGradient>
</defs>
</svg>
