<svg width="383" height="251" viewBox="0 0 383 251" fill="none" xmlns="http://www.w3.org/2000/svg">
<g id="Property 1=PersonDriving">
<rect id="Mask" width="383" height="250.334" rx="18.4578" fill="#F5F4F3"/>
<mask id="mask0_7403_83456" style="mask-type:luminance" maskUnits="userSpaceOnUse" x="0" y="0" width="383" height="251">
<rect id="Mask_2" width="383" height="250.334" rx="18.4578" fill="white"/>
</mask>
<g mask="url(#mask0_7403_83456)">
<g id="Group 238">
<path id="Fill 1" fill-rule="evenodd" clip-rule="evenodd" d="M0 250.334H383V0H0V250.334Z" fill="#F5F4F3"/>
<g id="Group 233">
<path id="Fill 2" fill-rule="evenodd" clip-rule="evenodd" d="M119.827 223.584H102.855L219.761 40.6055L232.898 46.6065L119.827 223.584Z" fill="white"/>
<g id="Group 6">
<mask id="mask1_7403_83456" style="mask-type:luminance" maskUnits="userSpaceOnUse" x="10" y="20" width="182" height="231">
<path id="Clip 5" fill-rule="evenodd" clip-rule="evenodd" d="M10.9951 20.2051H191.015V250.334H10.9951V20.2051Z" fill="white"/>
</mask>
<g mask="url(#mask1_7403_83456)">
<path id="Fill 4" fill-rule="evenodd" clip-rule="evenodd" d="M44.6271 260.484L10.9951 260.553L164.554 20.2051L191.015 31.359L44.6271 260.484Z" fill="white"/>
</g>
</g>
<g id="Group 9">
<mask id="mask2_7403_83456" style="mask-type:luminance" maskUnits="userSpaceOnUse" x="0" y="0" width="383" height="251">
<path id="Clip 8" fill-rule="evenodd" clip-rule="evenodd" d="M0 0H383V250.334H0V0Z" fill="white"/>
</mask>
<g mask="url(#mask2_7403_83456)">
<path id="Fill 7" fill-rule="evenodd" clip-rule="evenodd" d="M365.895 160.234H69.3336L47.0866 34.073C43.8996 15.9939 64.5156 1.06494 86.6836 5.3807C155.444 18.7656 285.494 51.3401 365.895 116.977V160.234ZM-40.8964 -13.4766V297.859H435.358V110.723C383.779 57.1027 169.49 -13.4736 169.49 -13.4736L-40.8964 -13.4766Z" fill="#D4D7D9"/>
</g>
</g>
<path id="Fill 10" fill-rule="evenodd" clip-rule="evenodd" d="M214.125 135.261C214.812 133.803 214.681 129.557 213.706 128.916C212.095 127.857 209.378 129.186 209.001 130.582C208.438 132.667 214.125 135.261 214.125 135.261Z" fill="#B3856A"/>
<path id="Fill 12" fill-rule="evenodd" clip-rule="evenodd" d="M243.077 160.763L216.618 151.154L219.536 143.498L245.995 153.107L243.077 160.763Z" fill="#313D47"/>
<g id="Group 16">
<mask id="mask3_7403_83456" style="mask-type:luminance" maskUnits="userSpaceOnUse" x="204" y="116" width="179" height="135">
<path id="Clip 15" fill-rule="evenodd" clip-rule="evenodd" d="M204.373 116.477H383V250.334H204.373V116.477Z" fill="white"/>
</mask>
<g mask="url(#mask3_7403_83456)">
<path id="Fill 14" fill-rule="evenodd" clip-rule="evenodd" d="M435.358 297.859H288.708L204.373 214.642L246.951 152.885C246.951 132.777 263.65 116.477 284.249 116.477H435.358V297.859Z" fill="#A2A6AB"/>
</g>
</g>
<path id="Fill 17" fill-rule="evenodd" clip-rule="evenodd" d="M255.715 139.164C256.673 139.962 257.668 140.76 258.665 141.54C267.545 148.48 271.055 160.162 267.11 170.577C267.046 170.745 266.981 170.914 266.915 171.083C261.446 185.057 244.832 191.424 230.965 185.058C229.783 184.516 228.595 183.982 227.422 183.471L255.715 139.164Z" fill="#313D47"/>
<g id="Group 21">
<mask id="mask4_7403_83456" style="mask-type:luminance" maskUnits="userSpaceOnUse" x="0" y="39" width="14" height="67">
<path id="Clip 20" fill-rule="evenodd" clip-rule="evenodd" d="M0 39.6055H13.9731V105.414H0V39.6055Z" fill="white"/>
</mask>
<g mask="url(#mask4_7403_83456)">
<path id="Fill 19" fill-rule="evenodd" clip-rule="evenodd" d="M-15.4159 105.414L-40.8959 105.108V39.6055H-24.6779C-4.10187 39.6055 13.2301 55.3154 13.9481 75.3893C13.9641 75.8329 13.9731 76.2794 13.9731 76.727C13.9731 92.5702 0.814125 105.414 -15.4159 105.414Z" fill="#A2A6AB"/>
</g>
</g>
<g id="Group 24">
<mask id="mask5_7403_83456" style="mask-type:luminance" maskUnits="userSpaceOnUse" x="115" y="214" width="174" height="37">
<path id="Clip 23" fill-rule="evenodd" clip-rule="evenodd" d="M115.655 214.643H288.707V250.335H115.655V214.643Z" fill="white"/>
</mask>
<g mask="url(#mask5_7403_83456)">
<path id="Fill 22" fill-rule="evenodd" clip-rule="evenodd" d="M134.844 240.758C157.095 221.26 209.526 213.897 220.474 214.702C233.705 215.675 239.219 223.192 248.916 234.221C248.916 234.221 260.139 231.463 266.313 233.83C283.064 240.251 286.795 277.209 288.707 297.86H117.598C108.771 275.128 132.767 242.579 134.844 240.758Z" fill="#F4F5F7"/>
</g>
</g>
<path id="Fill 25" fill-rule="evenodd" clip-rule="evenodd" d="M212.76 190.019C213.514 190.114 217.231 189.082 223.502 182.103C229.543 175.378 235.646 165.707 240.684 154.87C245.722 144.034 249.161 133.183 250.368 124.317C251.621 115.113 249.969 111.703 249.401 111.212C248.648 111.124 244.929 112.149 238.657 119.129C232.616 125.853 226.514 135.524 221.477 146.361C216.439 157.197 212.999 168.048 211.791 176.914C210.538 186.118 212.191 189.529 212.76 190.019ZM212.781 200.922C211.191 200.922 209.641 200.608 208.145 199.945C203.683 197.969 198.745 192.344 200.566 176.772C201.752 166.614 205.57 154.214 211.314 141.858C222.361 118.1 240.434 95.2706 254.016 101.286C258.478 103.262 263.414 108.888 261.595 124.459C260.407 134.618 256.59 147.018 250.846 159.373C241.016 180.514 225.621 200.922 212.781 200.922Z" fill="#313D47"/>
<path id="Fill 27" fill-rule="evenodd" clip-rule="evenodd" d="M207.126 113.4C209.576 112.717 212.53 112.583 219.174 110.521C229.234 107.398 230.313 102.046 239.169 98.1754C243.942 96.0886 250.515 100.364 250.515 100.364C245.067 102.274 239.827 106.319 239.769 108.765C239.669 112.961 249.374 111.178 249.374 111.178C250.64 112.054 250.732 115.871 250.732 115.871C248.779 119.951 240.493 125.379 233.521 125.453C218.912 125.606 215.824 130.723 210.426 132.821C210.426 132.821 205.798 130.73 204.627 124.33C203.377 117.498 207.126 113.4 207.126 113.4Z" fill="#DDB78C"/>
<path id="Fill 29" fill-rule="evenodd" clip-rule="evenodd" d="M197.979 198.744C199.928 198.267 203.31 196.591 204.072 195.999C209.058 192.12 209.895 188.111 216.225 181.079C216.966 180.255 218.307 179.145 220.324 178.225C223.231 176.899 226.013 176.685 227.586 177.12L225.775 179.44L223.492 182.394C223.483 183.313 224.7 183.709 225.01 183.812C229.205 185.194 235.419 183.876 238.818 179.743C239.771 178.584 241.08 177.112 241.08 177.112C243.4 180.482 241.29 185.667 241.29 185.667C241.843 186.996 241.282 188.662 241.019 189.375C240.013 192.107 236.97 194.841 236.97 194.841C237.794 198.506 236.17 200.549 236.17 200.549C236.033 203.611 234.594 204.735 234.27 205.038C231.478 207.656 226.248 207.961 218.924 208.795C215.925 209.138 205.056 216.619 200.404 219.043L197.979 198.744Z" fill="#DDB78C"/>
<path id="Fill 31" fill-rule="evenodd" clip-rule="evenodd" d="M42.9414 129.341C47.7924 131.516 67.0534 145.345 73.4334 139.604L71.1244 94.5001L39.8984 94.377C39.8984 94.377 38.7984 97.1336 38.5734 101.372C38.2204 107.974 35.0714 114.794 31.9464 122.29C31.6204 123.074 42.1434 128.983 42.9414 129.341Z" fill="#DDB78C"/>
<path id="Fill 33" fill-rule="evenodd" clip-rule="evenodd" d="M72.3419 118.28L72.0439 112.468C72.0439 112.468 57.0909 106.341 51.9949 98.9453C51.9949 98.9453 57.5009 115.184 72.3419 118.28Z" fill="#8F695D"/>
<path id="Fill 35" fill-rule="evenodd" clip-rule="evenodd" d="M36.422 90.6319C36.422 90.6319 44.417 90.6048 47.09 83.8628C47.126 83.7697 59.354 46.6071 73.404 47.0727C90.053 47.6244 96.854 52.7343 97.63 68.1579C97.959 74.6996 101.118 77.3672 104.198 80.6726C105.406 81.9703 104.037 84.3325 102.051 83.9079L99.634 83.7307C99.088 83.6906 98.605 84.0651 98.528 84.5788C97.904 88.8054 96.912 92.7297 95.417 96.1743C91.781 104.548 84.011 114.899 74.975 111.658C51.712 103.313 36.422 90.6319 36.422 90.6319Z" fill="#DDB78C"/>
<path id="Fill 37" fill-rule="evenodd" clip-rule="evenodd" d="M91.2813 76.0717C90.7713 76.7697 89.8573 76.8778 89.2393 76.314C88.6223 75.7493 88.5353 74.7269 89.0453 74.029C89.5543 73.3311 90.4693 73.2229 91.0863 73.7877C91.7043 74.3514 91.7913 75.3748 91.2813 76.0717Z" fill="#242C33"/>
<path id="Fill 39" fill-rule="evenodd" clip-rule="evenodd" d="M81.3477 70.4607C82.8837 69.933 85.1087 68.8246 87.6237 68.2178C89.4067 67.7882 91.0807 67.8693 93.8827 67.4317C96.4197 67.0362 96.6957 64.0822 94.0387 63.9651C91.9617 63.872 88.9637 64.3145 85.4687 65.5953C82.6117 66.6427 80.8817 67.9965 79.7887 68.6904C77.7197 70.0051 79.0897 71.2358 81.3477 70.4607Z" fill="#925953"/>
<path id="Fill 41" fill-rule="evenodd" clip-rule="evenodd" d="M96.3518 93.7774C96.2418 94.0888 96.0178 94.7116 95.8938 95.018C95.8418 95.1462 95.7478 95.3995 95.6528 95.6198C95.5628 95.8271 95.4658 96.0624 95.4658 96.0624C88.8258 95.9022 88.1608 90.508 89.1498 91.1999C92.5718 93.5941 96.3518 93.7774 96.3518 93.7774Z" fill="white"/>
<path id="Fill 43" fill-rule="evenodd" clip-rule="evenodd" d="M66.3603 74.2786C66.3393 74.2115 66.3143 74.1534 66.2943 74.0843C66.2943 74.0843 60.1453 75.9168 59.3653 79.3063C59.2603 79.7609 59.1523 80.2155 59.0423 80.6681C58.9523 82.0479 58.7703 83.4158 58.5023 84.7716C58.5253 84.8317 58.5303 84.9008 58.5033 84.9729C58.4763 85.0409 58.4023 85.07 58.3343 85.066C58.3203 85.065 58.3053 85.064 58.2923 85.063C58.2903 85.063 58.2883 85.06 58.2863 85.059C58.2913 85.112 58.2903 85.1641 58.2723 85.2172C58.2593 85.2662 58.2483 85.3153 58.2353 85.3654C58.2053 85.4885 58.1743 85.6117 58.1433 85.7349C58.0803 85.9812 58.0153 86.2265 57.9493 86.4719C57.8323 86.9014 57.7103 87.33 57.5813 87.7576C57.2963 88.7058 56.9793 89.6461 56.6363 90.5763C56.5823 90.7245 56.3493 90.6815 56.3303 90.5333L56.2573 89.9876C55.8563 91.092 55.4553 92.1965 55.0533 93.301C55.0063 93.4312 54.8103 93.4151 54.7573 93.298C54.7383 93.2529 54.7183 93.2079 54.6993 93.1638C54.4293 93.7396 54.2243 94.3354 54.0933 94.9612C54.0593 95.1214 53.8643 95.1334 53.7863 94.9982C53.6513 94.7649 53.5163 94.5306 53.3813 94.2963L53.1853 95.5169C53.1653 95.6401 52.9753 95.7102 52.8983 95.589L52.6253 95.1605C52.4963 95.572 52.4053 95.9886 52.3803 96.4241C52.3713 96.5854 52.1323 96.5964 52.0733 96.4612C51.9713 96.2319 51.8453 96.0256 51.7053 95.8253C51.5793 96.1888 51.4543 96.5533 51.3283 96.9168C51.2853 97.04 51.0733 97.04 51.0323 96.9138C51.0063 96.8377 50.9823 96.7616 50.9573 96.6845C50.6083 97.2743 50.2253 97.842 49.7893 98.3738C49.6843 98.5029 49.5173 98.4068 49.5073 98.2676C49.1803 98.6431 48.8543 99.0186 48.5283 99.3931C48.4443 99.4902 48.3123 99.4582 48.2543 99.3551C48.0503 99.0006 47.7953 98.6892 47.5003 98.4058C47.2963 98.6481 47.1663 98.9185 47.1173 99.2429C47.0913 99.4081 46.8833 99.4101 46.8103 99.28C46.6693 99.0336 46.4803 98.8414 46.2613 98.6691C46.1793 98.8524 46.1183 99.0366 46.0923 99.2449C46.0793 99.3541 45.9243 99.4302 45.8353 99.3461C45.4833 99.0166 45.1023 98.7282 44.7013 98.4639L44.6443 98.9726C44.6303 99.1127 44.4443 99.1448 44.3583 99.0446C44.2533 98.9205 44.1343 98.8194 44.0093 98.7262C43.9523 98.9926 43.9273 99.2559 43.9583 99.5363C43.9773 99.7196 43.7333 99.7706 43.6503 99.6154C43.4553 99.2509 43.2123 98.9225 42.9463 98.6081C42.9053 99.3831 42.8633 100.158 42.8223 100.933C42.8133 101.101 42.5803 101.097 42.5143 100.97C42.1313 100.224 41.7473 99.4762 41.3633 98.7292C41.3263 99.1278 41.3133 99.5273 41.3543 99.9308C41.3713 100.105 41.1173 100.18 41.0473 100.011C40.7493 99.296 40.4513 98.581 40.1523 97.8661C40.0933 98.2967 40.0343 98.7272 39.9743 99.1578C39.9563 99.295 39.7743 99.334 39.6883 99.2299C39.1203 98.547 38.7503 97.7479 38.5843 96.8958L38.3903 97.4625C38.3373 97.6187 38.1113 97.5597 38.0843 97.4195C37.9283 96.6324 37.8013 95.8404 37.6893 95.0463C37.5443 95.3377 37.4223 95.6381 37.3483 95.9605C37.3113 96.1247 37.0523 96.1438 37.0303 95.9585C36.9363 95.1755 36.7673 94.4075 36.5513 93.6484C36.4993 93.7806 36.4473 93.9118 36.3953 94.043C36.3273 94.2132 36.0433 94.1321 36.0913 93.9298C36.0283 93.4091 35.9763 92.9785 35.9143 92.4589C33.5683 88.9972 32.8303 84.7486 31.9443 80.7532C31.8653 80.9184 31.7863 81.0837 31.7073 81.2489C31.6413 81.3871 31.4213 81.365 31.4003 81.2068C31.2003 79.6828 31.1113 78.1507 31.1193 76.6167C31.0553 76.6117 30.9933 76.5706 30.9723 76.4895C30.6393 75.2228 30.3073 73.9561 29.9743 72.6895L29.8163 73.1381C29.7653 73.2812 29.5163 73.2502 29.5093 73.096C29.4503 71.8133 29.3903 70.5306 29.3323 69.2479L29.1653 69.6744C29.1113 69.8126 28.8633 69.7896 28.8583 69.6324C28.8253 68.6601 28.7933 67.6868 28.7603 66.7145L28.7143 65.3326C28.7053 65.0773 28.6963 64.8209 28.6873 64.5656C28.6873 64.5416 28.6853 64.5165 28.6853 64.4925C28.6573 64.3473 28.6263 64.2021 28.5993 64.0579C28.5133 64.0729 28.4153 64.0359 28.4043 63.9348C28.3193 63.0806 28.2743 62.2245 28.2603 61.3683C27.8453 55.6847 29.3463 50.2885 31.8943 45.5091C32.2783 43.8309 33.1673 42.1967 33.1923 40.4624C33.1953 40.3262 33.4063 40.2822 33.4793 40.3893C33.6923 40.7017 33.8413 41.0362 33.9383 41.3876C34.4533 39.9227 35.4133 38.66 36.1813 37.3102C36.6193 36.5412 37.0063 35.7241 37.1473 34.8479C37.3293 33.7204 37.0233 32.6309 36.6943 31.5555C36.6493 31.4073 36.8023 31.2781 36.9413 31.3733C37.9923 32.0932 38.8173 33.0625 39.3853 34.177C39.3133 32.7161 38.5103 31.3733 37.7483 30.1366C37.6723 30.0135 37.7793 29.8232 37.9383 29.8983C39.1713 30.4821 40.2943 31.2451 41.2933 32.1583C41.2633 31.2631 41.0013 30.397 40.4993 29.638C40.3983 29.4857 40.5713 29.3215 40.7253 29.4207C41.2823 29.7791 41.7633 30.2217 42.2233 30.6874C42.1073 30.2327 41.9903 29.7791 41.8803 29.3225C41.8063 29.0221 41.7473 28.5515 42.2063 28.5495C42.3813 28.5475 42.5363 28.6506 42.6733 28.7458C42.9503 28.94 43.2113 29.1623 43.4783 29.3686C43.9473 29.7321 44.4173 30.0946 44.8853 30.458C44.8393 29.3155 44.2193 28.2821 43.6193 27.3219C43.5383 27.1927 43.6513 27.0215 43.8093 27.0835C45.4743 27.7354 46.8383 28.954 47.6733 30.4971C47.9253 29.8913 48.0133 29.2564 47.9103 28.5936C47.8813 28.4093 48.1373 28.3622 48.2173 28.5144C48.5453 29.1363 48.6893 29.8092 48.6713 30.4971C49.6013 29.6029 50.6373 28.8329 51.7793 28.208C51.9163 28.1329 52.0783 28.3422 51.9673 28.4504C51.7633 28.6506 51.6063 28.8759 51.4683 29.1143C52.7863 28.6186 54.1243 28.177 55.4853 27.8095C55.6253 27.7725 55.7903 27.9207 55.6733 28.0518C55.2173 28.5685 54.9273 29.1683 54.7913 29.8272C55.4193 29.5298 56.0743 29.3075 56.7603 29.1663C56.8953 29.1383 56.9593 29.2815 56.9303 29.3846C56.8203 29.7731 56.8083 30.1627 56.8763 30.5522C58.0173 29.7371 59.4343 29.3165 60.7743 28.927C60.8413 28.907 60.9133 28.927 60.9623 28.9771C62.1843 30.2277 63.7183 31.147 65.4013 31.6607C65.4403 31.6046 65.4053 31.6546 65.4443 31.5986L62.9903 28.5084C62.8983 28.3923 63.0373 28.188 63.1813 28.2701C64.8873 29.2414 66.6523 30.1106 68.4603 30.8856L67.5093 26.9003C68.4733 27.9076 69.7893 27.8295 70.7913 28.8008L74.7133 30.0555C73.8293 29.0842 73.0663 28.0208 72.4443 26.8693C72.3603 26.715 72.5713 26.6139 72.6913 26.687C75.6873 28.5165 77.8633 31.8369 81.3223 32.8813C80.0893 31.6737 79.0393 30.3078 78.2173 28.7988C78.1333 28.6436 78.3453 28.5445 78.4643 28.6156C80.1203 29.6139 81.7753 30.6113 83.4303 31.6096C82.1883 30.2908 81.0243 28.8869 80.3943 27.1847C80.3503 27.0645 80.4733 26.9143 80.6063 26.9814C83.6003 28.4814 86.4963 30.1637 89.2863 32.0041C88.0093 30.3299 86.8843 28.5515 85.9433 26.677C85.8673 26.5258 86.0673 26.4136 86.1903 26.4948C89.3523 28.5885 92.3293 30.9367 95.1043 33.5021C94.4203 30.7234 92.8083 28.205 90.5293 26.4006C90.3813 26.2835 90.5193 26.0582 90.6923 26.1333C93.1983 27.2327 95.5283 28.6797 97.6183 30.424C98.2163 29.5869 97.5893 28.2731 97.2723 27.43C96.8793 26.3876 96.4093 25.3753 95.8743 24.3939C95.7833 24.2277 96.0363 24.1126 96.1493 24.2397C98.5553 26.9504 100.213 30.1867 101.426 33.5492C102.036 35.2384 102.539 36.9617 102.989 38.697C103.479 40.5856 103.969 42.4951 104.234 44.4267C104.365 45.382 104.422 46.3523 104.367 47.3106C104.316 53.9594 101.034 59.9064 91.3503 57.8486C87.0143 56.9274 83.7983 56.5138 80.5653 58.8239C76.4773 61.7458 73.2643 68.6871 72.4963 72.2819" fill="#925953"/>
<path id="Fill 45" fill-rule="evenodd" clip-rule="evenodd" d="M56.4425 75.5825C56.9015 79.2073 58.9565 81.943 62.7915 81.5024C66.2285 81.1089 69.0395 78.4353 69.0245 74.7794C69.0085 71.1225 66.1945 68.2627 62.7375 68.2617C56.4685 68.2607 56.0025 72.0948 56.4425 75.5825Z" fill="#DDB78C"/>
<path id="Fill 47" fill-rule="evenodd" clip-rule="evenodd" d="M61.2346 72.1222C61.3226 71.953 61.5846 71.8299 61.7696 71.936C62.6926 72.4667 63.4596 73.1586 63.9356 74.0839C64.4466 75.0782 64.5206 76.2107 64.4306 77.3032C64.3916 77.7888 63.6016 77.6566 63.6416 77.175C63.7036 76.413 63.6506 75.6379 63.4056 74.914H63.3866C63.3346 74.915 63.2816 74.918 63.2286 74.921C63.1246 74.927 63.0196 74.939 62.9166 74.957C62.8896 74.961 62.8636 74.966 62.8366 74.972C62.7946 74.9831 62.7526 74.9941 62.7116 75.0061C62.6226 75.0331 62.5386 75.0692 62.4526 75.1042C62.4436 75.1082 62.4486 75.1052 62.4456 75.1072C62.4356 75.1122 62.4256 75.1172 62.4166 75.1233C62.3876 75.1393 62.3606 75.1553 62.3336 75.1733C62.2776 75.2084 62.2276 75.2484 62.1756 75.2875C62.1686 75.2955 62.1596 75.3035 62.1516 75.3115C62.1286 75.3355 62.1046 75.3596 62.0826 75.3846C62.0636 75.4066 62.0456 75.4287 62.0276 75.4507C62.0146 75.4677 62.0096 75.4767 62.0056 75.4837C61.9776 75.5298 61.9486 75.5759 61.9246 75.6249C61.9126 75.653 61.8996 75.683 61.8876 75.711C61.8856 75.716 61.8836 75.72 61.8826 75.7241C61.8706 75.7831 61.8506 75.8402 61.8396 75.9003C61.8356 75.9293 61.8186 75.9934 61.8196 76.0385C61.8206 76.0375 61.8206 76.0275 61.8216 76.0445V76.0905C61.8216 76.1226 61.8236 76.1536 61.8256 76.1857C61.8296 76.2407 61.8366 76.2958 61.8446 76.3509C61.8466 76.3639 61.8596 76.415 61.8616 76.43C61.8656 76.442 61.8696 76.456 61.8716 76.461C61.8886 76.5201 61.9096 76.5762 61.9316 76.6323C61.9556 76.6893 61.9866 76.7414 62.0106 76.7975C61.9686 76.7014 62.0076 76.7905 62.0246 76.8165C62.0406 76.8415 62.0556 76.8656 62.0726 76.8896C62.1106 76.9437 62.1516 76.9958 62.1956 77.0458C62.2136 77.0678 62.2356 77.0879 62.2556 77.1099C62.1816 77.0288 62.2566 77.1099 62.2766 77.1279C62.4316 77.2691 62.4726 77.4924 62.3246 77.6606C62.1916 77.8098 61.9136 77.8549 61.7586 77.7127C61.4796 77.4604 61.2606 77.152 61.1396 76.8025C60.9256 76.1857 60.9996 75.4957 61.4216 74.961C61.8186 74.4574 62.4366 74.2441 63.0696 74.184C62.6816 73.5361 62.0956 73.0104 61.4246 72.6239C61.2416 72.5188 61.1306 72.3255 61.2346 72.1222Z" fill="#8F695D"/>
<g id="Group 51">
<mask id="mask6_7403_83456" style="mask-type:luminance" maskUnits="userSpaceOnUse" x="17" y="113" width="198" height="138">
<path id="Clip 50" fill-rule="evenodd" clip-rule="evenodd" d="M17.1191 113.398H214.125V250.334H17.1191V113.398Z" fill="white"/>
</mask>
<g mask="url(#mask6_7403_83456)">
<path id="Fill 49" fill-rule="evenodd" clip-rule="evenodd" d="M32.8301 115.046C32.8301 115.046 30.4741 118.63 28.3691 124.329C23.8631 136.529 19.8981 149.852 18.4601 159.072C14.7241 183.01 19.9801 211.041 19.9801 211.041C26.9261 260.759 26.3361 282.186 41.9661 297.859H117.598C135.143 283.943 137.143 257.641 137.143 257.641C159.338 251.347 207.726 224.46 207.726 224.46C201.928 217.238 197.978 198.744 197.978 198.744C176.233 204.917 154.789 218.067 120.747 226.412C120.747 226.412 108.771 210.169 102.938 169.259C102.938 169.259 153.14 163.464 214.125 135.26C214.125 135.26 205.077 125.11 207.126 113.398C207.126 113.398 145.941 131.99 85.4311 127.452C85.4311 127.452 78.1571 122.768 72.5291 121.94L72.9081 129.353C72.9081 129.353 56.6661 119.645 32.8301 115.046Z" fill="#326B00"/>
</g>
</g>
<g id="Group 54">
<mask id="mask7_7403_83456" style="mask-type:luminance" maskUnits="userSpaceOnUse" x="33" y="150" width="104" height="101">
<path id="Clip 53" fill-rule="evenodd" clip-rule="evenodd" d="M33.5374 150.816H136.991V250.334H33.5374V150.816Z" fill="white"/>
</mask>
<g mask="url(#mask7_7403_83456)">
<path id="Fill 52" fill-rule="evenodd" clip-rule="evenodd" d="M37.7658 150.912C31.6088 160.771 33.2018 173.105 36.1018 183.762C39.4188 195.944 44.2898 207.688 49.9428 218.965C52.8118 224.69 55.8948 230.306 59.1208 235.837C62.2448 241.192 65.3288 246.711 69.0948 251.649C72.6168 256.267 76.9928 259.827 82.4518 261.917C88.3548 264.177 94.8018 264.682 101.074 264.733C106.769 264.779 112.494 264.295 118.075 263.144C122.861 262.157 127.537 260.703 132.224 259.338C133.764 258.89 135.305 258.445 136.847 258.008C137.099 257.937 136.992 257.545 136.74 257.616C131.648 259.061 126.593 260.661 121.458 261.951C116.624 263.165 111.709 263.903 106.732 264.188C94.4948 264.889 80.7118 263.856 71.8768 254.344C67.7968 249.95 64.8038 244.587 61.7428 239.472C58.5308 234.108 55.4398 228.669 52.5358 223.132C46.7398 212.079 41.6768 200.612 37.9688 188.688C34.6558 178.031 31.6988 165.723 36.1388 154.94C36.6868 153.61 37.3558 152.337 38.1178 151.117C38.2558 150.895 37.9048 150.69 37.7658 150.912Z" fill="#B3856A"/>
</g>
</g>
<path id="Fill 55" fill-rule="evenodd" clip-rule="evenodd" d="M64.8107 152.027C70.7397 153.863 75.9367 157.726 79.2887 162.951C81.1187 165.805 82.4277 168.945 83.7097 172.073C85.1167 175.495 86.5308 178.917 87.9578 182.332C90.7487 189.004 93.5867 195.657 96.4707 202.291C97.9197 205.625 99.3677 208.963 100.858 212.281C102.173 215.212 103.625 218.108 105.526 220.712C107.413 223.297 109.774 225.798 112.889 226.843C115.427 227.693 118.086 227.343 120.614 226.645C120.866 226.575 120.759 226.184 120.506 226.254C118.082 226.924 115.549 227.272 113.105 226.487C110.003 225.491 107.644 222.955 105.791 220.388C103.905 217.774 102.46 214.877 101.149 211.943C99.6838 208.666 98.2517 205.376 96.8217 202.086C93.8857 195.333 90.9977 188.558 88.1587 181.762C86.7557 178.409 85.3708 175.049 83.9888 171.686C82.7857 168.76 81.5537 165.823 79.8787 163.127C76.4647 157.627 71.1067 153.551 64.9187 151.635C64.6687 151.557 64.5617 151.949 64.8107 152.027Z" fill="#B3856A"/>
<path id="Fill 57" fill-rule="evenodd" clip-rule="evenodd" d="M179.332 206.256C179.633 211.283 181.391 216.143 183.257 220.778C185.032 225.185 187.227 229.436 190.311 233.083C190.479 233.282 190.767 232.994 190.599 232.796C187.498 229.13 185.307 224.833 183.54 220.396C181.739 215.878 180.031 211.148 179.739 206.256C179.724 205.996 179.316 205.994 179.332 206.256Z" fill="#B3856A"/>
<path id="Fill 59" fill-rule="evenodd" clip-rule="evenodd" d="M112.234 226.465C107.447 232.55 104.972 239.988 103.551 247.506C103.503 247.761 103.895 247.87 103.944 247.613C105.35 240.172 107.782 232.777 112.521 226.752C112.681 226.549 112.395 226.26 112.234 226.465Z" fill="#B3856A"/>
<path id="Fill 61" fill-rule="evenodd" clip-rule="evenodd" d="M111.459 225.955C105.682 227.442 100.605 231.214 97.6092 236.369C97.4792 236.596 97.8292 236.8 97.9612 236.574C100.905 231.506 105.889 227.808 111.566 226.346C111.82 226.281 111.713 225.889 111.459 225.955Z" fill="#B3856A"/>
<path id="Fill 63" fill-rule="evenodd" clip-rule="evenodd" d="M75.9405 125.51C85.9505 134.659 94.7705 145.73 99.6655 158.471C100.983 161.903 101.99 165.448 102.646 169.066C102.691 169.322 103.084 169.214 103.038 168.958C100.662 155.846 93.6285 144.063 84.9415 134.122C82.2085 130.994 79.2945 128.027 76.2285 125.223C76.0355 125.048 75.7475 125.333 75.9405 125.51Z" fill="#B3856A"/>
<path id="Fill 65" fill-rule="evenodd" clip-rule="evenodd" d="M193.383 117.346C192.486 125.682 195.18 134.155 200.63 140.523C200.8 140.721 201.086 140.434 200.917 140.235C195.534 133.946 192.904 125.573 193.79 117.346C193.819 117.087 193.411 117.089 193.383 117.346Z" fill="#B3856A"/>
<path id="Fill 67" fill-rule="evenodd" clip-rule="evenodd" d="M27.5674 128.131C39.6024 132.789 51.8464 137.139 64.5764 139.483C68.1314 140.137 71.7164 140.626 75.3194 140.933C75.4634 140.945 75.5354 140.794 75.5154 140.675C74.8944 136.905 74.1984 133.147 73.4264 129.404L73.0874 129.602C75.4724 131.567 77.3394 134.041 78.5564 136.879C78.6454 137.087 78.9174 136.95 78.9354 136.778C79.5284 131.191 76.1614 126.405 73.0264 122.123C72.8744 121.914 72.5214 122.117 72.6754 122.328C75.7694 126.556 79.1144 131.26 78.5294 136.778C78.6554 136.744 78.7814 136.709 78.9084 136.675C77.6784 133.807 75.7844 131.301 73.3744 129.315C73.2174 129.186 72.9924 129.306 73.0344 129.512C73.8054 133.255 74.5034 137.012 75.1244 140.785C75.1884 140.698 75.2544 140.613 75.3194 140.527C62.4324 139.433 49.9304 135.865 37.7984 131.528C34.4064 130.316 31.0364 129.04 27.6754 127.739C27.4314 127.645 27.3264 128.037 27.5674 128.131Z" fill="#B3856A"/>
<path id="Fill 69" fill-rule="evenodd" clip-rule="evenodd" d="M197.979 223.9C197.979 225.233 196.872 226.315 195.504 226.315C194.138 226.315 193.03 225.233 193.03 223.9C193.03 222.565 194.138 221.484 195.504 221.484C196.872 221.484 197.979 222.565 197.979 223.9Z" fill="#B3856A"/>
<path id="Fill 71" fill-rule="evenodd" clip-rule="evenodd" d="M103.315 168.865C104.914 163.87 103.972 158.606 103.015 153.584C102.966 153.327 102.575 153.436 102.623 153.693C103.567 158.645 104.5 163.83 102.922 168.758C102.842 169.007 103.235 169.113 103.315 168.865Z" fill="#B3856A"/>
<path id="Fill 73" fill-rule="evenodd" clip-rule="evenodd" d="M49.3254 136.17C48.5954 140.526 48.4364 144.949 48.8654 149.344C48.8904 149.601 49.2974 149.604 49.2714 149.344C48.8464 144.987 48.9934 140.597 49.7184 136.278C49.7604 136.023 49.3684 135.913 49.3254 136.17Z" fill="#B3856A"/>
<path id="Fill 75" fill-rule="evenodd" clip-rule="evenodd" d="M73.1701 129.634C78.6451 142.617 87.0201 154.031 94.2851 166.027C96.1411 169.088 97.9551 172.189 99.4641 175.438C101.036 178.824 102.205 182.374 103.136 185.984C104.047 189.52 104.738 193.107 105.407 196.693C106.039 200.079 106.565 203.492 107.664 206.767C110.115 214.073 114.351 220.697 118.796 226.942C118.946 227.153 119.299 226.951 119.147 226.736C115.108 221.064 111.277 215.102 108.754 208.587C107.513 205.383 106.826 202.105 106.2 198.74C105.541 195.201 104.899 191.658 104.084 188.151C103.273 184.659 102.288 181.198 100.953 177.866C99.6261 174.551 97.9341 171.405 96.1301 168.326C92.5861 162.276 88.6961 156.436 84.9621 150.503C80.7191 143.762 76.6611 136.874 73.5621 129.527C73.4621 129.289 73.0681 129.393 73.1701 129.634Z" fill="#B3856A"/>
<g id="Group 81">
<path id="Fill 77" fill-rule="evenodd" clip-rule="evenodd" d="M225.374 107.866C224.821 108.269 224.516 108.843 224.225 109.446C223.86 110.203 223.503 110.967 223.216 111.758C222.66 113.287 222.401 114.945 222.867 116.531C222.94 116.781 223.333 116.675 223.259 116.423C222.828 114.957 223.058 113.436 223.555 112.016C223.812 111.28 224.138 110.57 224.473 109.867C224.758 109.27 225.027 108.618 225.579 108.217C225.789 108.065 225.586 107.712 225.374 107.866Z" fill="#8F695D"/>
<path id="Fill 79" fill-rule="evenodd" clip-rule="evenodd" d="M225.037 124.045C225.883 124.691 226.793 125.247 227.753 125.708C227.988 125.82 228.194 125.471 227.958 125.357C226.999 124.897 226.089 124.34 225.242 123.694C225.154 123.627 225.016 123.681 224.964 123.767C224.902 123.87 224.95 123.979 225.037 124.045Z" fill="#8F695D"/>
</g>
<g id="Group 92">
<path id="Fill 82" fill-rule="evenodd" clip-rule="evenodd" d="M223.067 182.387C222.521 182.947 222.132 183.623 221.753 184.299C221.337 185.038 220.937 185.788 220.554 186.544C220.436 186.776 220.787 186.982 220.905 186.748C221.277 186.015 221.663 185.289 222.065 184.573C222.439 183.905 222.815 183.227 223.354 182.674C223.537 182.487 223.25 182.2 223.067 182.387Z" fill="#8F695D"/>
<path id="Fill 84" fill-rule="evenodd" clip-rule="evenodd" d="M227.338 189.973C228.209 190.59 229.358 190.454 230.349 190.247C231.65 189.977 232.912 189.473 234.16 189.026C236.59 188.154 238.985 187.175 241.202 185.842C241.426 185.707 241.222 185.357 240.996 185.491C238.953 186.722 236.757 187.648 234.52 188.465C233.427 188.865 232.329 189.273 231.213 189.605C230.1 189.936 228.578 190.358 227.543 189.622C227.329 189.47 227.126 189.823 227.338 189.973Z" fill="#8F695D"/>
<path id="Fill 86" fill-rule="evenodd" clip-rule="evenodd" d="M226.977 196.829C227.376 197.375 228.121 197.371 228.74 197.34C229.606 197.296 230.45 197.069 231.277 196.822C233.121 196.268 234.945 195.649 236.768 195.034C237.015 194.951 236.91 194.558 236.661 194.643C235.128 195.159 233.597 195.676 232.055 196.158C231.297 196.394 230.539 196.641 229.76 196.799C229.172 196.918 227.763 197.22 227.328 196.623C227.175 196.415 226.823 196.617 226.977 196.829Z" fill="#8F695D"/>
<path id="Fill 88" fill-rule="evenodd" clip-rule="evenodd" d="M227.366 203.148C230.421 203.22 233.265 202.004 236.008 200.8C236.247 200.696 236.04 200.347 235.803 200.451C233.127 201.625 230.346 202.813 227.366 202.744C227.104 202.737 227.104 203.142 227.366 203.148Z" fill="#8F695D"/>
<path id="Fill 90" fill-rule="evenodd" clip-rule="evenodd" d="M218.049 208.528C215.471 206.272 213.626 203.276 212.81 199.951C212.747 199.698 212.356 199.805 212.418 200.058C213.249 203.446 215.135 206.516 217.761 208.815C217.957 208.986 218.246 208.701 218.049 208.528Z" fill="#8F695D"/>
</g>
<g id="Group 95">
<mask id="mask8_7403_83456" style="mask-type:luminance" maskUnits="userSpaceOnUse" x="146" y="234" width="103" height="17">
<path id="Clip 94" fill-rule="evenodd" clip-rule="evenodd" d="M146.668 234.156H248.133V250.334H146.668V234.156Z" fill="white"/>
</mask>
<g mask="url(#mask8_7403_83456)">
<path id="Fill 93" fill-rule="evenodd" clip-rule="evenodd" d="M146.862 255.407C160.179 253.832 173.504 252.253 186.736 250.059C200.041 247.853 213.207 244.964 226.093 240.977C233.359 238.729 240.577 236.298 247.988 234.554C248.243 234.493 248.135 234.102 247.881 234.163C241.317 235.708 234.903 237.788 228.475 239.808C222.064 241.823 215.611 243.665 209.07 245.214C196.018 248.306 182.758 250.435 169.469 252.211C161.943 253.216 154.402 254.109 146.862 255.002C146.605 255.032 146.602 255.438 146.862 255.407Z" fill="#D6D6D6"/>
</g>
</g>
<g id="Group 98">
<mask id="mask9_7403_83456" style="mask-type:luminance" maskUnits="userSpaceOnUse" x="0" y="112" width="126" height="139">
<path id="Clip 97" fill-rule="evenodd" clip-rule="evenodd" d="M0 112.203H125.247V250.334H0V112.203Z" fill="white"/>
</mask>
<g mask="url(#mask9_7403_83456)">
<path id="Fill 96" fill-rule="evenodd" clip-rule="evenodd" d="M-40.8964 112.204C-35.5204 112.204 -4.77336 112.103 -0.724361 113.984C15.7676 121.647 21.3906 145.934 21.3906 145.934C17.3466 161.225 17.1666 182.205 17.1666 182.205C37.4846 219.597 58.0626 253.38 76.3576 267.986C101.075 287.72 113.099 292.873 125.247 297.859H-40.8964V112.204Z" fill="#A2A6AB"/>
</g>
</g>
<path id="Fill 99" fill-rule="evenodd" clip-rule="evenodd" d="M258.206 140.9C258.979 138.057 259.97 135.29 260.464 132.377C260.918 129.706 261.843 126.956 261.73 124.231C261.72 123.97 261.313 123.969 261.324 124.231C261.386 125.751 261.067 127.215 260.745 128.691C260.466 129.975 260.245 131.271 260.023 132.567C259.542 135.374 258.56 138.05 257.813 140.792C257.745 141.044 258.137 141.152 258.206 140.9Z" fill="#302C3C"/>
<path id="Fill 101" fill-rule="evenodd" clip-rule="evenodd" d="M238.4 153.87C236.857 157.919 232.242 159.982 228.092 158.475C223.944 156.968 221.832 152.463 223.376 148.414C224.919 144.363 229.534 142.301 233.682 143.808C237.832 145.315 239.944 149.82 238.4 153.87Z" fill="#313D47"/>
<path id="Fill 103" fill-rule="evenodd" clip-rule="evenodd" d="M207.727 224.46C208.777 222.654 206.591 215.395 206.591 215.395C205.638 215.979 203.665 217.179 203.665 217.179C205.578 222.204 207.727 224.46 207.727 224.46Z" fill="#B3856A"/>
<path id="Fill 105" fill-rule="evenodd" clip-rule="evenodd" d="M40.6525 140.683C40.1635 140.499 39.8725 140.079 40.0045 139.742C40.1345 139.406 40.6385 139.281 41.1295 139.462C41.6195 139.645 41.9105 140.066 41.7785 140.403C41.6465 140.74 41.1425 140.865 40.6525 140.683Z" fill="#F2E8DB"/>
<path id="Fill 107" fill-rule="evenodd" clip-rule="evenodd" d="M27.4962 148.476C27.2672 148.937 26.8132 149.183 26.4812 149.027C26.1482 148.871 26.0642 148.369 26.2922 147.909C26.5202 147.447 26.9752 147.201 27.3082 147.358C27.6402 147.514 27.7252 148.015 27.4962 148.476Z" fill="#F2E8DB"/>
<path id="Fill 109" fill-rule="evenodd" clip-rule="evenodd" d="M66.1848 146.106C65.6948 145.923 65.4038 145.502 65.5358 145.167C65.6658 144.829 66.1698 144.704 66.6608 144.886C67.1508 145.069 67.4418 145.489 67.3098 145.827C67.1788 146.163 66.6748 146.288 66.1848 146.106Z" fill="#F2E8DB"/>
<path id="Fill 111" fill-rule="evenodd" clip-rule="evenodd" d="M82.0772 154.861C81.8142 154.419 81.8612 153.913 82.1812 153.732C82.5012 153.552 82.9732 153.765 83.2352 154.21C83.4972 154.652 83.4512 155.158 83.1312 155.339C82.8112 155.518 82.3392 155.305 82.0772 154.861Z" fill="#F2E8DB"/>
<path id="Fill 113" fill-rule="evenodd" clip-rule="evenodd" d="M85.7159 142.078C85.3939 141.674 85.3669 141.167 85.6579 140.945C85.9499 140.723 86.4469 140.871 86.7709 141.275C87.0929 141.679 87.1179 142.185 86.8269 142.407C86.5359 142.629 86.0389 142.481 85.7159 142.078Z" fill="#F2E8DB"/>
<path id="Fill 115" fill-rule="evenodd" clip-rule="evenodd" d="M94.7746 159.503C94.6246 159.013 94.7896 158.531 95.1436 158.428C95.4976 158.325 95.9056 158.639 96.0556 159.13C96.2066 159.619 96.0416 160.102 95.6866 160.204C95.3336 160.308 94.9246 159.994 94.7746 159.503Z" fill="#F2E8DB"/>
<path id="Fill 117" fill-rule="evenodd" clip-rule="evenodd" d="M109.824 138.816C109.3 138.816 108.875 138.523 108.875 138.164C108.875 137.802 109.3 137.51 109.824 137.51C110.348 137.51 110.774 137.802 110.774 138.164C110.774 138.523 110.348 138.816 109.824 138.816Z" fill="#F2E8DB"/>
<path id="Fill 119" fill-rule="evenodd" clip-rule="evenodd" d="M92.3175 133.617C91.7965 133.559 91.4065 133.223 91.4475 132.865C91.4885 132.507 91.9435 132.262 92.4645 132.319C92.9865 132.376 93.3765 132.712 93.3355 133.07C93.2945 133.428 92.8385 133.674 92.3175 133.617Z" fill="#F2E8DB"/>
<path id="Fill 121" fill-rule="evenodd" clip-rule="evenodd" d="M131.194 151.269C130.67 151.269 130.245 150.976 130.245 150.616C130.245 150.254 130.67 149.963 131.194 149.963C131.718 149.963 132.144 150.254 132.144 150.616C132.144 150.976 131.718 151.269 131.194 151.269Z" fill="#F2E8DB"/>
<path id="Fill 123" fill-rule="evenodd" clip-rule="evenodd" d="M146.383 139.38C145.875 139.508 145.389 139.328 145.296 138.981C145.204 138.631 145.541 138.244 146.049 138.116C146.557 137.987 147.043 138.167 147.136 138.516C147.228 138.865 146.891 139.252 146.383 139.38Z" fill="#F2E8DB"/>
<path id="Fill 125" fill-rule="evenodd" clip-rule="evenodd" d="M110.756 164.814C110.232 164.814 109.806 164.521 109.806 164.161C109.806 163.8 110.232 163.508 110.756 163.508C111.28 163.508 111.705 163.8 111.705 164.161C111.705 164.521 111.28 164.814 110.756 164.814Z" fill="#F2E8DB"/>
<path id="Fill 127" fill-rule="evenodd" clip-rule="evenodd" d="M164.004 151.604C163.496 151.733 163.01 151.553 162.917 151.205C162.825 150.855 163.162 150.468 163.67 150.34C164.178 150.213 164.664 150.392 164.756 150.74C164.849 151.089 164.512 151.476 164.004 151.604Z" fill="#F2E8DB"/>
<path id="Fill 129" fill-rule="evenodd" clip-rule="evenodd" d="M131.684 129.348C131.161 129.378 130.718 129.111 130.697 128.75C130.675 128.391 131.082 128.075 131.606 128.045C132.129 128.015 132.572 128.284 132.593 128.643C132.615 129.003 132.207 129.319 131.684 129.348Z" fill="#F2E8DB"/>
<path id="Fill 131" fill-rule="evenodd" clip-rule="evenodd" d="M154.331 127.565C153.81 127.626 153.352 127.384 153.309 127.027C153.265 126.669 153.651 126.33 154.172 126.269C154.693 126.209 155.15 126.449 155.194 126.807C155.238 127.165 154.852 127.504 154.331 127.565Z" fill="#F2E8DB"/>
<path id="Fill 133" fill-rule="evenodd" clip-rule="evenodd" d="M170.252 137.747C169.744 137.875 169.258 137.695 169.166 137.347C169.073 136.998 169.41 136.611 169.918 136.483C170.426 136.355 170.912 136.534 171.005 136.883C171.097 137.232 170.761 137.618 170.252 137.747Z" fill="#F2E8DB"/>
<path id="Fill 135" fill-rule="evenodd" clip-rule="evenodd" d="M145.302 159.997C144.794 160.126 144.308 159.946 144.215 159.598C144.123 159.248 144.46 158.861 144.968 158.733C145.476 158.605 145.962 158.785 146.055 159.133C146.147 159.482 145.81 159.869 145.302 159.997Z" fill="#F2E8DB"/>
<path id="Fill 137" fill-rule="evenodd" clip-rule="evenodd" d="M188.965 143.658C188.511 143.913 187.993 143.868 187.809 143.556C187.624 143.244 187.842 142.783 188.297 142.527C188.751 142.271 189.269 142.316 189.453 142.63C189.638 142.941 189.419 143.402 188.965 143.658Z" fill="#F2E8DB"/>
<path id="Fill 139" fill-rule="evenodd" clip-rule="evenodd" d="M182.258 125.2C181.736 125.239 181.288 124.979 181.261 124.619C181.233 124.26 181.634 123.937 182.156 123.898C182.68 123.859 183.126 124.12 183.154 124.479C183.183 124.839 182.781 125.161 182.258 125.2Z" fill="#F2E8DB"/>
<path id="Fill 141" fill-rule="evenodd" clip-rule="evenodd" d="M61.2999 160.112C61.4319 160.608 61.2479 161.083 60.8909 161.173C60.5329 161.263 60.1369 160.934 60.0059 160.438C59.8739 159.942 60.0579 159.468 60.4149 159.378C60.7729 159.287 61.1689 159.617 61.2999 160.112Z" fill="#F2E8DB"/>
<path id="Fill 143" fill-rule="evenodd" clip-rule="evenodd" d="M45.1124 177.647C45.2434 178.143 45.0604 178.619 44.7024 178.709C44.3444 178.798 43.9494 178.469 43.8174 177.974C43.6864 177.478 43.8704 177.002 44.2274 176.913C44.5854 176.823 44.9814 177.152 45.1124 177.647Z" fill="#F2E8DB"/>
<path id="Fill 145" fill-rule="evenodd" clip-rule="evenodd" d="M82.1534 181.503C82.2854 181.998 82.1014 182.474 81.7444 182.564C81.3864 182.654 80.9904 182.325 80.8594 181.829C80.7274 181.334 80.9114 180.859 81.2684 180.769C81.6264 180.679 82.0224 181.007 82.1534 181.503Z" fill="#F2E8DB"/>
<path id="Fill 147" fill-rule="evenodd" clip-rule="evenodd" d="M76.5742 203.546C76.7052 204.041 76.5212 204.517 76.1642 204.607C75.8062 204.696 75.4112 204.368 75.2792 203.872C75.1482 203.377 75.3322 202.901 75.6892 202.812C76.0472 202.722 76.4432 203.05 76.5742 203.546Z" fill="#F2E8DB"/>
<path id="Fill 149" fill-rule="evenodd" clip-rule="evenodd" d="M75.2491 230.441C75.5121 230.884 75.4651 231.39 75.1451 231.57C74.8251 231.751 74.3531 231.537 74.0921 231.093C73.8291 230.65 73.8761 230.144 74.1951 229.964C74.5161 229.785 74.9871 229.998 75.2491 230.441Z" fill="#F2E8DB"/>
<path id="Fill 151" fill-rule="evenodd" clip-rule="evenodd" d="M29.7109 177.748C29.7409 178.259 29.4679 178.69 29.0989 178.712C28.7309 178.732 28.4059 178.335 28.3759 177.823C28.3459 177.312 28.6199 176.881 28.9889 176.86C29.3569 176.839 29.6809 177.237 29.7109 177.748Z" fill="#F2E8DB"/>
<path id="Fill 153" fill-rule="evenodd" clip-rule="evenodd" d="M37.6368 205.204C37.8758 205.66 37.8048 206.163 37.4768 206.328C37.1488 206.493 36.6878 206.258 36.4478 205.803C36.2068 205.348 36.2788 204.845 36.6078 204.68C36.9358 204.515 37.3968 204.75 37.6368 205.204Z" fill="#F2E8DB"/>
<path id="Fill 155" fill-rule="evenodd" clip-rule="evenodd" d="M97.3692 213.139C97.5002 213.635 97.3162 214.111 96.9592 214.201C96.6012 214.291 96.2052 213.962 96.0742 213.466C95.9432 212.97 96.1272 212.496 96.4842 212.406C96.8422 212.315 97.2372 212.644 97.3692 213.139Z" fill="#F2E8DB"/>
<path id="Fill 157" fill-rule="evenodd" clip-rule="evenodd" d="M53.6602 212.536C53.7922 213.032 53.6082 213.507 53.2512 213.597C52.8932 213.688 52.4972 213.358 52.3652 212.862C52.2342 212.367 52.4182 211.892 52.7752 211.802C53.1332 211.712 53.5292 212.04 53.6602 212.536Z" fill="#F2E8DB"/>
<path id="Fill 159" fill-rule="evenodd" clip-rule="evenodd" d="M135.679 237.603C136.185 237.467 136.674 237.638 136.772 237.987C136.869 238.333 136.539 238.726 136.033 238.862C135.528 238.998 135.038 238.826 134.941 238.479C134.842 238.13 135.173 237.739 135.679 237.603Z" fill="#F2E8DB"/>
<path id="Fill 161" fill-rule="evenodd" clip-rule="evenodd" d="M153.238 220.683C153.743 220.548 154.233 220.719 154.331 221.066C154.428 221.414 154.098 221.806 153.592 221.942C153.087 222.078 152.597 221.907 152.499 221.558C152.401 221.211 152.732 220.819 153.238 220.683Z" fill="#F2E8DB"/>
<path id="Fill 163" fill-rule="evenodd" clip-rule="evenodd" d="M173.95 233.556C174.404 233.3 174.922 233.346 175.106 233.659C175.291 233.97 175.073 234.431 174.618 234.687C174.164 234.943 173.646 234.897 173.462 234.585C173.277 234.273 173.496 233.813 173.95 233.556Z" fill="#F2E8DB"/>
<path id="Fill 165" fill-rule="evenodd" clip-rule="evenodd" d="M122.303 229.4C122.827 229.4 123.253 229.693 123.253 230.052C123.253 230.414 122.827 230.706 122.303 230.706C121.779 230.706 121.354 230.414 121.354 230.052C121.354 229.693 121.779 229.4 122.303 229.4Z" fill="#F2E8DB"/>
<path id="Fill 167" fill-rule="evenodd" clip-rule="evenodd" d="M156.504 244.869C156.958 244.613 157.477 244.659 157.661 244.971C157.846 245.283 157.627 245.743 157.173 245.999C156.719 246.256 156.2 246.21 156.016 245.897C155.831 245.586 156.05 245.125 156.504 244.869Z" fill="#F2E8DB"/>
<path id="Fill 169" fill-rule="evenodd" clip-rule="evenodd" d="M175.764 210.114C176.235 209.887 176.748 209.967 176.911 210.29C177.075 210.613 176.825 211.058 176.355 211.284C175.884 211.512 175.37 211.432 175.207 211.108C175.044 210.786 175.293 210.34 175.764 210.114Z" fill="#F2E8DB"/>
<path id="Fill 171" fill-rule="evenodd" clip-rule="evenodd" d="M56.1103 128.967C56.4813 129.329 56.5703 129.829 56.3083 130.084C56.0483 130.339 55.5353 130.252 55.1653 129.89C54.7943 129.528 54.7053 129.029 54.9653 128.773C55.2263 128.518 55.7393 128.605 56.1103 128.967Z" fill="#F2E8DB"/>
<path id="Fill 173" fill-rule="evenodd" clip-rule="evenodd" d="M37.1084 119.288C37.4794 119.649 37.5684 120.15 37.3074 120.404C37.0464 120.66 36.5344 120.573 36.1634 120.21C35.7924 119.849 35.7034 119.349 35.9634 119.094C36.2254 118.838 36.7374 118.926 37.1084 119.288Z" fill="#F2E8DB"/>
<path id="Fill 175" fill-rule="evenodd" clip-rule="evenodd" d="M63.796 189.737C63.927 190.233 63.743 190.708 63.386 190.799C63.028 190.888 62.632 190.559 62.501 190.064C62.369 189.568 62.553 189.092 62.91 189.003C63.268 188.913 63.664 189.241 63.796 189.737Z" fill="#F2E8DB"/>
<path id="Fill 177" fill-rule="evenodd" clip-rule="evenodd" d="M202.828 128.079C202.305 128.118 201.858 127.858 201.83 127.498C201.803 127.14 202.204 126.816 202.726 126.777C203.25 126.738 203.696 126.999 203.724 127.358C203.753 127.718 203.351 128.04 202.828 128.079Z" fill="#F2E8DB"/>
<path id="Fill 179" fill-rule="evenodd" clip-rule="evenodd" d="M197.672 212.933C197.192 213.138 196.682 213.037 196.533 212.706C196.386 212.376 196.655 211.943 197.136 211.737C197.616 211.532 198.126 211.632 198.274 211.963C198.422 212.292 198.152 212.727 197.672 212.933Z" fill="#F2E8DB"/>
<path id="Fill 181" fill-rule="evenodd" clip-rule="evenodd" d="M242.344 188.511C243.494 191.83 244.654 195.17 246.321 198.275C247.997 201.397 250.32 204.08 252.603 206.769C254.828 209.393 257.177 211.934 259.925 214.023C262.566 216.031 265.507 217.724 268.538 219.073C271.713 220.483 275.075 221.664 278.533 222.123C278.792 222.158 278.789 221.751 278.533 221.717C272.37 220.9 266.291 217.993 261.233 214.474C258.376 212.486 255.939 210.004 253.666 207.388C251.425 204.806 249.085 202.188 247.334 199.243C245.32 195.854 244.021 192.112 242.737 188.404C242.652 188.157 242.258 188.263 242.344 188.511Z" fill="#666B70"/>
<path id="Fill 183" fill-rule="evenodd" clip-rule="evenodd" d="M268.852 156.376C271.246 157.105 273.679 157.846 275.818 159.177C278.007 160.538 279.528 162.56 280.993 164.633C282.33 166.525 283.693 168.36 285.465 169.875C287.173 171.336 289.112 172.482 291.197 173.322C291.44 173.42 291.545 173.027 291.305 172.93C288.946 171.982 286.778 170.609 284.939 168.853C283.151 167.144 281.846 165.063 280.383 163.091C279.04 161.278 277.522 159.672 275.546 158.542C273.495 157.366 271.211 156.669 268.96 155.984C268.709 155.908 268.602 156.3 268.852 156.376Z" fill="#666B70"/>
<path id="Fill 185" fill-rule="evenodd" clip-rule="evenodd" d="M312.108 141.165C303.97 153.955 295.834 166.745 287.697 179.535C286.953 180.705 285.879 181.801 286.74 183.164C287.552 184.451 288.712 185.583 289.828 186.605C291.727 188.342 293.839 189.868 295.997 191.272C299.948 193.844 304.079 196.153 308.206 198.431C312.629 200.872 317.082 203.281 321.633 205.477C321.868 205.589 322.074 205.24 321.838 205.125C313.741 201.221 305.77 196.856 298.122 192.136C296.359 191.048 294.639 189.906 292.98 188.665C291.685 187.696 290.428 186.668 289.283 185.525C288.743 184.985 288.226 184.421 287.746 183.827C287.485 183.505 287.116 183.109 286.945 182.72C286.574 181.878 287.005 181.379 287.42 180.728C291.338 174.568 295.257 168.407 299.176 162.248C303.604 155.288 308.032 148.33 312.459 141.37C312.6 141.149 312.248 140.945 312.108 141.165Z" fill="#666B70"/>
<path id="Fill 187" fill-rule="evenodd" clip-rule="evenodd" d="M287.859 191.633C285.864 196.493 284.049 201.426 282.432 206.425C281.64 208.871 280.895 211.332 280.196 213.806C279.877 214.939 279.566 216.075 279.266 217.215C278.948 218.42 278.546 219.649 278.38 220.886C278.094 223.02 279.564 224.406 281.019 225.728C282.749 227.3 284.532 228.814 286.364 230.266C289.972 233.127 293.768 235.753 297.72 238.12C302.272 240.847 307.028 243.221 311.935 245.244C312.176 245.345 312.282 244.952 312.043 244.853C303.646 241.389 295.699 236.86 288.46 231.381C286.609 229.98 284.805 228.515 283.053 226.993C282.253 226.297 281.455 225.595 280.682 224.868C279.782 224.02 278.838 223.04 278.744 221.738C278.661 220.591 279.13 219.357 279.415 218.255C279.736 217.012 280.07 215.77 280.415 214.532C281.077 212.159 281.782 209.799 282.529 207.451C284.221 202.139 286.134 196.899 288.252 191.74C288.35 191.499 287.958 191.394 287.859 191.633Z" fill="#666B70"/>
<path id="Fill 189" fill-rule="evenodd" clip-rule="evenodd" d="M288.012 191.973C296.203 197.651 304.69 202.941 313.23 208.08C315.321 209.339 317.421 210.582 319.544 211.787C319.772 211.916 319.978 211.566 319.749 211.437C311.075 206.516 302.624 201.165 294.288 195.699C292.249 194.362 290.22 193.011 288.217 191.622C288.001 191.473 287.798 191.824 288.012 191.973Z" fill="#666B70"/>
<path id="Fill 191" fill-rule="evenodd" clip-rule="evenodd" d="M261.927 126.795C269.25 124.28 277.378 124.382 284.653 127.035C291.556 129.553 297.422 134.451 301.23 140.711C303.303 144.12 304.726 147.888 305.404 151.816C305.448 152.073 305.84 151.964 305.796 151.709C304.57 144.597 300.865 138.015 295.53 133.156C289.904 128.032 282.578 125.087 274.991 124.628C270.532 124.357 266.043 124.953 261.819 126.403C261.573 126.488 261.678 126.881 261.927 126.795Z" fill="#666B70"/>
<path id="Fill 193" fill-rule="evenodd" clip-rule="evenodd" d="M278.33 221.921C278.377 229.958 278.239 237.995 277.993 246.028C277.985 246.29 278.392 246.29 278.4 246.028C278.646 237.995 278.784 229.958 278.736 221.921C278.735 221.66 278.328 221.659 278.33 221.921Z" fill="#666B70"/>
<path id="Fill 195" fill-rule="evenodd" clip-rule="evenodd" d="M312.201 141.462C318.064 143.492 323.93 145.514 329.791 147.552C335.436 149.516 341.056 151.58 346.37 154.335C346.602 154.456 346.808 154.105 346.575 153.985C341.324 151.262 335.774 149.208 330.196 147.264C324.238 145.188 318.271 143.136 312.308 141.071C312.061 140.985 311.955 141.377 312.201 141.462Z" fill="#666B70"/>
<g id="Group 199">
<mask id="mask10_7403_83456" style="mask-type:luminance" maskUnits="userSpaceOnUse" x="313" y="211" width="7" height="40">
<path id="Clip 198" fill-rule="evenodd" clip-rule="evenodd" d="M313.257 211.496H319.889V250.334H313.257V211.496Z" fill="white"/>
</mask>
<g mask="url(#mask10_7403_83456)">
<path id="Fill 197" fill-rule="evenodd" clip-rule="evenodd" d="M319.491 211.641C318.242 217.081 317.067 222.538 315.973 228.011C314.905 233.353 313.907 238.717 313.521 244.159C313.125 249.753 313.26 255.365 313.38 260.966C313.502 266.653 313.624 272.339 313.745 278.027C313.883 284.438 314.02 290.851 314.157 297.262C314.163 297.523 314.569 297.524 314.564 297.262C314.323 285.999 314.082 274.737 313.841 263.475C313.72 257.869 313.534 252.254 313.785 246.65C314.036 241.047 314.91 235.533 315.986 230.036C317.182 223.92 318.488 217.824 319.883 211.749C319.941 211.495 319.55 211.387 319.491 211.641Z" fill="#666B70"/>
</g>
</g>
<path id="Fill 200" fill-rule="evenodd" clip-rule="evenodd" d="M321.912 205.403C326.415 195.297 333.351 186.342 340.55 178.012C342.542 175.706 344.583 173.442 346.653 171.206C346.831 171.014 346.544 170.727 346.365 170.919C338.844 179.043 331.573 187.576 325.84 197.075C324.256 199.697 322.808 202.4 321.56 205.199C321.455 205.435 321.806 205.641 321.912 205.403Z" fill="#666B70"/>
<g id="Group 204">
<mask id="mask11_7403_83456" style="mask-type:luminance" maskUnits="userSpaceOnUse" x="108" y="0" width="275" height="136">
<path id="Clip 203" fill-rule="evenodd" clip-rule="evenodd" d="M108.165 0H383V135.628H108.165V0Z" fill="white"/>
</mask>
<g mask="url(#mask11_7403_83456)">
<path id="Fill 202" fill-rule="evenodd" clip-rule="evenodd" d="M457.508 88.775L127.465 -47.541L108.165 -0.688442L438.208 135.629L457.508 88.775Z" fill="#373F49"/>
</g>
</g>
<path id="Fill 205" fill-rule="evenodd" clip-rule="evenodd" d="M227.843 13.5895C225.278 14.9083 223.358 16.2591 222.079 17.6419C220.801 19.0248 219.545 20.8232 218.312 23.0381L217.501 24.5652L214.994 23.5298L215.804 22.0018C217.008 19.8389 218.394 17.9994 219.96 16.4824C221.529 14.9654 223.346 13.6676 225.418 12.5882L217.461 9.3018L218.291 7.28711L228.673 11.5748L227.843 13.5895Z" fill="#F5F4F3"/>
<path id="Fill 207" fill-rule="evenodd" clip-rule="evenodd" d="M231.766 24.1453L226.348 21.9073L227.178 19.8926L232.596 22.1306L231.766 24.1453Z" fill="#F5F4F3"/>
<path id="Fill 209" fill-rule="evenodd" clip-rule="evenodd" d="M239.843 18.5462L235.305 29.5609L237.598 30.5082C238.842 31.0209 239.988 31.0209 241.034 30.5022C242.08 29.9835 242.869 29.0813 243.399 27.7946L244.348 25.4925C244.871 24.2198 244.945 23.0302 244.569 21.9237C244.19 20.8172 243.379 20.0062 242.135 19.4925L239.843 18.5462ZM231.968 30.5402L238.165 15.4961L243.036 17.5078C244.942 18.2948 246.245 19.5305 246.948 21.2147C247.652 22.9 247.616 24.6794 246.845 26.5529L245.905 28.8369C245.129 30.7174 243.902 32.0031 242.219 32.6951C240.537 33.387 238.744 33.3389 236.839 32.5529L231.968 30.5402Z" fill="#F5F4F3"/>
<path id="Fill 211" fill-rule="evenodd" clip-rule="evenodd" d="M249.922 35.853C250.555 36.1143 251.19 36.1914 251.826 36.0823C252.461 35.9752 252.945 35.7509 253.277 35.4134L253.959 33.7602L251.967 32.9381C251.238 32.6367 250.593 32.5806 250.031 32.7729C249.469 32.9641 249.088 33.3046 248.886 33.7932C248.71 34.2208 248.71 34.6173 248.885 34.9838C249.06 35.3503 249.406 35.6397 249.922 35.853ZM252.256 38.9201C252.283 38.6017 252.322 38.2952 252.375 38.0029C252.428 37.7105 252.498 37.4251 252.588 37.1477C252.028 37.5292 251.395 37.7816 250.689 37.9047C249.982 38.0279 249.281 37.9468 248.586 37.6594C247.423 37.1788 246.654 36.5099 246.278 35.6537C245.902 34.7976 245.93 33.8463 246.361 32.7989C246.807 31.7175 247.58 31.0516 248.683 30.8012C249.783 30.5499 251.108 30.7442 252.656 31.384L254.606 32.1901L255.01 31.2078C255.251 30.622 255.269 30.0933 255.062 29.6207C254.853 29.148 254.43 28.7795 253.789 28.5152C253.219 28.2799 252.708 28.2298 252.257 28.366C251.806 28.5022 251.491 28.7875 251.313 29.2211L248.899 28.2238L248.913 28.1577C249.229 27.2565 249.943 26.6367 251.062 26.3002C252.179 25.9638 253.407 26.0719 254.749 26.6267C256.049 27.1634 256.962 27.9274 257.487 28.9177C258.013 29.908 258.021 31.0245 257.51 32.2642L255.463 37.2348C255.273 37.6964 255.121 38.1511 255.009 38.6007C254.896 39.0493 254.824 39.5059 254.795 39.9685L252.256 38.9201Z" fill="#F5F4F3"/>
<path id="Fill 213" fill-rule="evenodd" clip-rule="evenodd" d="M262.42 37.8716L262.207 39.0892L262.27 39.1163L267.934 32.3132L270.678 33.4477L260.752 44.4123C260.135 45.0682 259.444 45.5619 258.682 45.8913C257.918 46.2207 257.045 46.1827 256.061 45.7762C255.854 45.691 255.642 45.5789 255.421 45.4387C255.201 45.2995 254.991 45.1563 254.794 45.0111L255.873 43.1837C255.96 43.2267 256.082 43.2908 256.242 43.3719C256.401 43.4541 256.523 43.5121 256.606 43.5462C257.06 43.7334 257.485 43.7284 257.886 43.5312C258.283 43.3329 258.654 43.0655 258.993 42.7311L259.823 41.889L260.318 29.168L263.053 30.2975L262.42 37.8716Z" fill="#F5F4F3"/>
<path id="Fill 215" fill-rule="evenodd" clip-rule="evenodd" d="M285.196 50.1444C284.561 50.5509 283.693 50.7993 282.59 50.8874C281.486 50.9755 280.219 50.7242 278.789 50.1334C276.98 49.3864 275.726 48.1978 275.03 46.5676C274.333 44.9374 274.358 43.2131 275.107 41.3947L276.401 38.2535C277.15 36.4351 278.314 35.1804 279.889 34.4895C281.467 33.7985 283.129 33.8136 284.876 34.5355C286.643 35.2665 287.838 36.2688 288.46 37.5456C289.081 38.8213 289.115 40.163 288.559 41.5699L288.513 41.624L286.14 40.6437C286.425 39.7936 286.405 39.0065 286.081 38.2785C285.758 37.5526 285.088 36.9808 284.077 36.5632C283.038 36.1347 282.041 36.1777 281.084 36.6914C280.127 37.2071 279.402 38.0632 278.909 39.2608L277.608 42.4201C277.109 43.6307 277.044 44.7702 277.413 45.8366C277.783 46.9041 278.518 47.6641 279.619 48.1197C280.404 48.4431 281.076 48.6143 281.64 48.6344C282.204 48.6534 282.647 48.5853 282.968 48.4291L284.225 45.378L281.243 44.1464L282.017 42.2659L287.508 44.5329L285.196 50.1444Z" fill="#F5F4F3"/>
<path id="Fill 217" fill-rule="evenodd" clip-rule="evenodd" d="M294.741 54.5578C294.146 55.0064 293.514 55.2788 292.846 55.3779C292.178 55.476 291.492 55.3799 290.791 55.0905C289.594 54.5969 288.815 53.8278 288.457 52.7844C288.096 51.741 288.25 50.4143 288.914 48.8021L291.668 42.1172L294.164 43.1476L291.402 49.8545C290.999 50.8318 290.875 51.5828 291.031 52.1065C291.184 52.6292 291.582 53.0238 292.222 53.2881C292.827 53.5374 293.379 53.6396 293.878 53.5915C294.377 53.5424 294.828 53.3612 295.231 53.0438L298.56 44.963L301.068 45.9994L296.464 57.1793L294.276 56.2761L294.741 54.5578Z" fill="#F5F4F3"/>
<path id="Fill 219" fill-rule="evenodd" clip-rule="evenodd" d="M303.467 57.9683C304.1 58.2306 304.736 58.3067 305.371 58.1986C306.007 58.0904 306.491 57.8671 306.823 57.5287L307.504 55.8755L305.514 55.0534C304.783 54.752 304.139 54.6969 303.577 54.8882C303.015 55.0794 302.634 55.4199 302.432 55.9085C302.256 56.3361 302.255 56.7326 302.431 57.0991C302.606 57.4656 302.952 57.755 303.467 57.9683ZM305.802 61.0353C305.829 60.7169 305.868 60.4105 305.921 60.1181C305.973 59.8257 306.044 59.5403 306.134 59.2629C305.573 59.6445 304.941 59.8968 304.235 60.02C303.528 60.1431 302.827 60.062 302.132 59.7746C300.969 59.294 300.199 58.6251 299.824 57.77C299.448 56.9128 299.476 55.9615 299.907 54.9141C300.353 53.8327 301.126 53.1668 302.229 52.9165C303.329 52.6661 304.654 52.8594 306.201 53.4992L308.152 54.3053L308.556 53.323C308.797 52.7372 308.815 52.2085 308.607 51.7359C308.399 51.2633 307.975 50.8958 307.335 50.6304C306.765 50.3951 306.254 50.345 305.803 50.4812C305.352 50.6184 305.037 50.9028 304.859 51.3364L302.445 50.34L302.459 50.2729C302.775 49.3717 303.49 48.7529 304.607 48.4155C305.724 48.079 306.953 48.1872 308.295 48.7419C309.595 49.2786 310.507 50.0426 311.033 51.034C311.559 52.0243 311.566 53.1408 311.055 54.3804L309.008 59.3501C308.818 59.8117 308.666 60.2673 308.555 60.7159C308.441 61.1645 308.37 61.6211 308.341 62.0847L305.802 61.0353Z" fill="#F5F4F3"/>
<path id="Fill 221" fill-rule="evenodd" clip-rule="evenodd" d="M319.814 56.3892L318.757 55.9046C318.269 55.7013 317.82 55.6372 317.408 55.7093C316.996 55.7814 316.622 55.9697 316.287 56.2741L313.086 64.0454L310.579 63.0081L315.183 51.8281L317.474 52.7754L316.972 54.4656C317.489 54.01 318.037 53.7126 318.614 53.5715C319.19 53.4313 319.769 53.4803 320.346 53.7187C320.498 53.7817 320.634 53.8518 320.753 53.9299C320.875 54.008 320.984 54.0871 321.08 54.1672L319.814 56.3892Z" fill="#F5F4F3"/>
<path id="Fill 223" fill-rule="evenodd" clip-rule="evenodd" d="M322.279 65.7378C322.912 65.9992 323.547 66.0763 324.183 65.9671C324.819 65.86 325.303 65.6357 325.635 65.2982L326.316 63.645L324.326 62.8229C323.595 62.5215 322.95 62.4654 322.389 62.6577C321.827 62.849 321.446 63.1894 321.244 63.6781C321.068 64.1056 321.067 64.5022 321.243 64.8686C321.417 65.2351 321.763 65.5245 322.279 65.7378ZM324.614 68.8048C324.64 68.4864 324.679 68.18 324.732 67.8876C324.785 67.5942 324.855 67.3098 324.945 67.0325C324.385 67.414 323.753 67.6663 323.047 67.7895C322.34 67.9127 321.638 67.8315 320.943 67.5442C319.781 67.0635 319.011 66.3946 318.635 65.5385C318.26 64.6823 318.288 63.7311 318.719 62.6837C319.165 61.6022 319.938 60.9363 321.04 60.686C322.14 60.4347 323.466 60.6289 325.013 61.2688L326.964 62.0749L327.368 61.0925C327.609 60.5068 327.626 59.9781 327.419 59.5054C327.211 59.0328 326.787 58.6643 326.147 58.3999C325.576 58.1646 325.065 58.1146 324.615 58.2507C324.164 58.3869 323.849 58.6723 323.671 59.1059L321.257 58.1086L321.271 58.0425C321.587 57.1413 322.302 56.5214 323.419 56.185C324.536 55.8485 325.765 55.9567 327.107 56.5114C328.407 57.0481 329.319 57.8122 329.844 58.8025C330.37 59.7928 330.378 60.9093 329.867 62.149L327.82 67.1196C327.63 67.5812 327.478 68.0358 327.366 68.4854C327.253 68.934 327.182 69.3906 327.152 69.8532L324.614 68.8048Z" fill="#F5F4F3"/>
<path id="Fill 225" fill-rule="evenodd" clip-rule="evenodd" d="M336.268 60.5361L335.748 62.2073C336.348 61.7868 336.991 61.5294 337.676 61.4383C338.362 61.3472 339.053 61.4443 339.747 61.7307C340.91 62.2113 341.671 62.9383 342.03 63.9136C342.389 64.8879 342.261 66.1226 341.645 67.6176L338.751 74.644L336.244 73.6086L339.129 66.6032C339.475 65.7621 339.547 65.0932 339.347 64.5955C339.145 64.0969 338.69 63.7013 337.982 63.4089C337.493 63.2067 337.012 63.1346 336.537 63.1927C336.063 63.2507 335.623 63.418 335.22 63.6943L331.879 71.8062L329.372 70.7698L333.977 59.5898L336.268 60.5361Z" fill="#F5F4F3"/>
<path id="Fill 227" fill-rule="evenodd" clip-rule="evenodd" d="M350.202 63.1134L349.082 65.831L351.086 66.6581L350.319 68.5176L348.316 67.6905L345.771 73.8698C345.581 74.3314 345.545 74.7009 345.664 74.9813C345.783 75.2586 346.007 75.4669 346.338 75.6031C346.474 75.6592 346.614 75.7032 346.754 75.7333C346.894 75.7633 347.032 75.7813 347.167 75.7883L346.678 77.7379C346.416 77.768 346.124 77.754 345.801 77.6969C345.478 77.6408 345.158 77.5457 344.842 77.4155C343.92 77.035 343.309 76.4662 343.01 75.7092C342.708 74.9522 342.797 73.9959 343.273 72.8384L345.819 66.6591L344.117 65.9562L344.883 64.0957L346.586 64.7997L347.705 62.082L350.202 63.1134Z" fill="#F5F4F3"/>
<path id="Fill 229" fill-rule="evenodd" clip-rule="evenodd" d="M357.069 71.245C356.449 70.9887 355.839 71.0247 355.236 71.3532C354.634 71.6806 354.131 72.2033 353.721 72.9213L353.72 72.9813L358.147 74.8108L358.254 74.5524C358.547 73.8425 358.605 73.1886 358.427 72.5918C358.25 71.995 357.798 71.5464 357.069 71.245ZM353.407 80.953C351.825 80.2991 350.778 79.2608 350.266 77.8369C349.754 76.411 349.833 74.8859 350.502 73.2607L350.673 72.8472C351.342 71.222 352.363 70.0655 353.737 69.3796C355.111 68.6936 356.498 68.6426 357.899 69.2294C359.406 69.8522 360.371 70.7854 360.797 72.0291C361.221 73.2718 361.118 74.6626 360.485 76.1987L359.877 77.6766L352.912 74.7998L352.87 74.8429C352.546 75.7451 352.507 76.5772 352.754 77.3372C353 78.0972 353.546 78.6519 354.392 79.0024C355.066 79.2798 355.678 79.437 356.228 79.47C356.777 79.5041 357.34 79.458 357.915 79.3329L358.042 81.3115C357.467 81.5118 356.78 81.5969 355.98 81.5668C355.18 81.5348 354.322 81.3305 353.407 80.953Z" fill="#F5F4F3"/>
<path id="Fill 231" fill-rule="evenodd" clip-rule="evenodd" d="M368.255 75.8637C367.635 75.6083 367.025 75.6444 366.422 75.9718C365.82 76.3002 365.316 76.8229 364.907 77.5409L364.906 77.601L369.333 79.4294L369.44 79.1711C369.733 78.4611 369.79 77.8083 369.613 77.2105C369.436 76.6137 368.984 76.1651 368.255 75.8637ZM364.593 85.5716C363.011 84.9187 361.964 83.8803 361.452 82.4554C360.94 81.0305 361.019 79.5055 361.688 77.8793L361.859 77.4668C362.528 75.8406 363.549 74.6841 364.923 73.9981C366.297 73.3122 367.684 73.2622 369.085 73.8489C370.591 74.4708 371.557 75.404 371.983 76.6477C372.407 77.8913 372.304 79.2822 371.671 80.8173L371.063 82.2952L364.098 79.4184L364.056 79.4614C363.732 80.3646 363.693 81.1958 363.94 81.9568C364.186 82.7168 364.732 83.2715 365.577 83.621C366.252 83.8994 366.864 84.0556 367.414 84.0886C367.963 84.1227 368.526 84.0766 369.101 83.9514L369.227 85.9311C368.653 86.1304 367.966 86.2165 367.166 86.1854C366.365 86.1544 365.508 85.9501 364.593 85.5716Z" fill="#F5F4F3"/>
</g>
<path id="Fill 234" fill-rule="evenodd" clip-rule="evenodd" d="M260.717 155.159L259.564 169.581L258.41 155.159L259.564 140.74L260.717 155.159Z" fill="white"/>
<path id="Fill 235" fill-rule="evenodd" clip-rule="evenodd" d="M260.141 156.891L245.72 155.738L260.141 154.584L274.56 155.738L260.141 156.891Z" fill="white"/>
<path id="Fill 236" fill-rule="evenodd" clip-rule="evenodd" d="M213.419 180.54L212.842 190.346L212.265 180.54L212.842 170.734L213.419 180.54Z" fill="white"/>
<path id="Fill 237" fill-rule="evenodd" clip-rule="evenodd" d="M212.842 181.117L203.036 180.539L212.842 179.963L222.648 180.539L212.842 181.117Z" fill="white"/>
</g>
</g>
</g>
</svg>
