<svg width="219" height="83" viewBox="0 0 219 83" fill="none" xmlns="http://www.w3.org/2000/svg">
<path fill-rule="evenodd" clip-rule="evenodd" d="M123.304 69.0762C123.339 70.2238 122.917 71.3375 122.132 72.1684C120.905 73.4253 119.045 73.8031 117.433 73.1227C115.82 72.4422 114.779 70.8403 114.804 69.0762V67.3747C114.769 66.2272 115.191 65.1134 115.976 64.2825C117.72 62.6636 120.402 62.6636 122.147 64.2825C122.952 65.1033 123.391 66.2199 123.363 67.3747L123.304 69.0762ZM88.9645 72.2276C89.7552 71.4004 90.1785 70.2841 90.137 69.1354V67.3748C90.1729 66.2242 89.7444 65.1082 88.9499 64.2826C87.2105 62.6656 84.5335 62.6656 82.7942 64.2826C81.9996 65.1082 81.5712 66.2242 81.607 67.3748V69.1354C81.5563 70.2948 81.9913 71.4222 82.8057 72.2414C83.62 73.0606 84.7383 73.496 85.8867 73.4408C87.0351 73.4859 88.1503 73.0464 88.9645 72.2276ZM41.0535 63.2173L37.8145 73.352H40.1595L40.7164 71.3842H43.8822L44.4538 73.352H46.7988L43.5598 63.2173H41.0535ZM42.2842 65.9396L43.3395 69.5644H41.2876L42.2842 65.9396ZM58.8167 69.8603V63.2173H61.1471V69.8603C61.2032 70.8846 60.78 71.876 60.0039 72.5382C58.2079 73.8214 55.8054 73.8214 54.0094 72.5382C53.2333 71.876 52.8101 70.8846 52.8662 69.8603V63.2173H55.1966V69.8603C55.1549 70.3678 55.331 70.8689 55.6802 71.2363C56.0511 71.553 56.5292 71.7121 57.014 71.6801C57.4991 71.7152 57.9784 71.5557 58.3477 71.2363C58.6868 70.8634 58.8567 70.3649 58.8167 69.8603ZM67.7575 63.2173V65.0223H70.381V73.352H72.726V65.0223H75.3641V63.2173H67.7575ZM87.8221 67.3008C87.8279 66.6939 87.6489 66.0999 87.3091 65.5993C86.9719 65.128 86.4181 64.8653 85.8434 64.9039C85.2699 64.8709 84.7186 65.1324 84.3778 65.5993C84.0254 66.1265 83.8507 66.7542 83.8795 67.3895V69.2241C83.8507 69.8594 84.0254 70.4872 84.3778 71.0143C84.715 71.4856 85.2688 71.7484 85.8434 71.7097C86.4202 71.7604 86.9797 71.495 87.3091 71.0143C87.6666 70.489 87.8465 69.8611 87.8221 69.2241V67.3008ZM102.464 70.245L104.736 63.1581L107.74 63.2173V73.2928H105.395V70.7776L105.615 66.1467L103.182 73.2928H101.614L99.2251 66.2059L99.445 70.7776V73.2928H97.0999V63.1581H100.207L102.464 70.245ZM120.432 65.5993C120.771 66.0799 120.96 66.6518 120.974 67.2416L120.945 69.2241C120.974 69.8594 120.799 70.4872 120.446 71.0143C120.115 71.4926 119.557 71.7573 118.981 71.7097C118.406 71.7484 117.852 71.4856 117.515 71.0143C117.158 70.4889 116.978 69.8611 117.002 69.2241V67.3895C116.973 66.7542 117.148 66.1265 117.501 65.5993C117.853 65.1444 118.394 64.8786 118.966 64.8786C119.538 64.8786 120.079 65.1444 120.432 65.5993ZM129.563 63.0989V64.9039H132.157V73.2336H134.502V65.0223H137.14V63.2173L129.563 63.0989ZM146.213 73.352H143.883V63.2173H146.213V73.352ZM159.389 63.2173L157.396 70.6149V70.5853L155.432 63.1877H152.999L156.238 73.3224H158.539L161.793 63.1877L159.389 63.2173ZM168.359 73.352V63.2173H175.379V65.0223H170.733V67.1972H174.661V69.017H170.704V71.5174H175.335V73.352H168.359Z" fill="white"/>
<path fill-rule="evenodd" clip-rule="evenodd" d="M143.18 12.203C143.18 5.07171 138.108 0.5 130.077 0.5H116.461V45.9803H122.529V6.03339H129.578C134.107 6.03339 137.024 8.1639 137.024 12.3065C137.024 16.0349 134.166 18.5797 129.578 18.5797H125.328V24.1723H129.373C136.965 24.1723 143.18 20.0888 143.18 12.2326V12.203ZM165.311 18.5797V45.9803H159.888V42.0004C157.799 44.7338 154.508 46.2507 151.094 46.0543C147.457 46.1421 143.94 44.7429 141.34 42.1742C138.74 39.6055 137.279 36.0854 137.288 32.4132C137.275 28.7057 138.746 25.1502 141.368 22.5538C143.99 19.9574 147.539 18.5402 151.211 18.6241C154.558 18.4432 157.781 19.9236 159.844 22.5892V18.5797H165.311ZM185.58 18.6833C181.061 18.4938 178.078 21.0901 176.435 24.9301V18.6241H170.47V45.936H176.435V35.4166C176.435 28.4925 180.011 25.06 185.229 25.06H185.58V18.6833ZM157.007 38.3596C155.511 39.9348 153.432 40.8091 151.27 40.7724L151.211 40.8168C149.049 40.8101 146.981 39.9186 145.481 38.346C143.982 36.7734 143.177 34.654 143.253 32.4724C143.127 30.3015 143.899 28.1752 145.386 26.6015C146.873 25.0278 148.94 24.148 151.094 24.1723C153.266 24.1512 155.354 25.0243 156.875 26.5903C158.395 28.1564 159.219 30.2802 159.155 32.4724C159.282 34.651 158.503 36.7845 157.007 38.3596ZM212.768 45.9804H205.44L194.756 35.3722V46.0395H188.791V6.09259H194.741V27.8711L205.323 18.2542H213.076L198.229 31.5699L212.768 45.9804ZM217.648 9.58424C218.046 9.19809 218.264 8.66118 218.249 8.10472C218.266 7.54792 218.047 7.01029 217.648 6.6252C217.267 6.21992 216.737 5.99049 216.183 5.99049C215.629 5.99049 215.099 6.21992 214.717 6.6252C214.318 7.01029 214.1 7.54792 214.116 8.10472C214.102 8.66118 214.32 9.19809 214.717 9.58424C215.099 9.98674 215.631 10.2072 216.183 10.1908C216.734 10.2053 217.266 9.98518 217.648 9.58424ZM216.213 6.35886C215.746 6.35606 215.297 6.54261 214.967 6.87669C214.64 7.21111 214.46 7.66447 214.469 8.13428C214.457 8.60472 214.637 9.05937 214.967 9.39187C215.297 9.72596 215.746 9.91251 216.213 9.9097C216.676 9.91531 217.122 9.72802 217.444 9.39187C217.784 9.065 217.97 8.60792 217.957 8.13428C217.957 7.1595 217.178 6.36699 216.213 6.35886ZM215.391 6.99506V9.25873H215.787V8.37102H216.095C216.24 8.34071 216.389 8.34071 216.534 8.37102C216.684 8.49823 216.761 8.69248 216.74 8.88885V9.19954H217.165C217.161 9.16017 217.161 9.12056 217.165 9.08118V8.77048C217.157 8.64848 217.116 8.53093 217.047 8.4302C216.956 8.30657 216.818 8.22632 216.666 8.20827C216.78 8.1895 216.89 8.14935 216.989 8.08991C217.139 7.99568 217.224 7.82403 217.209 7.64605C217.23 7.39999 217.086 7.16965 216.857 7.08384C216.659 7.0142 216.45 6.98405 216.241 6.99506H215.391ZM216.74 7.67567C216.757 7.54791 216.7 7.42194 216.594 7.35017C216.448 7.2809 216.286 7.25035 216.125 7.2614H215.788V8.03075H216.14C216.266 8.05096 216.394 8.05096 216.521 8.03075C216.666 7.9773 216.757 7.83092 216.74 7.67567Z" fill="white"/>
<path fill-rule="evenodd" clip-rule="evenodd" d="M23.5537 6.07759V12.2028H6.31775V23.166H19.3033V29.232H6.31775V39.855H23.8028V45.9802H0.25V6.0332L23.5537 6.07759ZM49.1724 41.0977L45.567 37.5173C43.8811 39.5337 41.4232 40.7286 38.8104 40.8018C34.2229 40.8018 31.0278 37.0143 31.0278 32.2798C31.0278 27.5454 34.179 23.8762 38.5173 23.8762C41.1422 23.8981 43.6202 25.1027 45.2738 27.1607L48.9673 23.1216C46.3642 20.0892 42.5324 18.4221 38.5612 18.5943C34.9482 18.5779 31.4807 20.0307 28.9411 22.625C26.4015 25.2193 25.0035 28.7366 25.0627 32.3834C25.0071 36.0079 26.4049 39.5012 28.9385 42.07C31.4721 44.6387 34.9266 46.0649 38.5173 46.0245C42.6364 46.1527 46.5781 44.3301 49.1724 41.0977ZM64.6358 24.0537C61.1916 24.0537 58.7733 26.4949 58.7733 30.5784V46.0245H52.8081V6.07757H58.7733V23.2104C60.4767 20.3171 63.5735 18.5541 66.9076 18.5795C72.7848 18.5795 76.1851 22.5594 76.1851 28.6846V45.9801H70.2199V30.4748C70.2199 26.3913 68.0801 24.0537 64.6358 24.0537ZM113.647 24.0833H104.853C108.835 29.2869 108.744 36.5723 104.634 41.6728C100.524 46.7732 93.4762 48.3466 87.6188 45.4713C81.7615 42.5961 78.6355 36.0289 80.0717 29.6159C81.5079 23.2029 87.1283 18.6317 93.6413 18.5795H94.5939H113.647V24.0833ZM101.481 32.4869C101.603 34.6644 100.824 36.7953 99.3281 38.3694C97.8327 39.9435 95.7563 40.8193 93.596 40.787C91.4268 40.7728 89.3562 39.8701 87.8586 38.2858C86.3611 36.7016 85.5648 34.5714 85.6523 32.3834C85.5261 30.2125 86.2987 28.0863 87.7854 26.5126C89.2721 24.9389 91.3394 24.059 93.4934 24.0833C95.6703 24.0855 97.7523 24.9829 99.2595 26.5686C100.767 28.1542 101.569 30.2912 101.481 32.4869Z" fill="white"/>
</svg>
