<svg width="140" height="47" viewBox="0 0 140 47" fill="none" xmlns="http://www.w3.org/2000/svg">
<path fill-rule="evenodd" clip-rule="evenodd" d="M79.0259 44.1512C79.0482 44.8901 78.777 45.6072 78.2729 46.1421C77.4852 46.9514 76.2905 47.1946 75.2549 46.7565C74.2193 46.3184 73.551 45.2871 73.5667 44.1512V43.0558C73.5444 42.3169 73.8156 41.5999 74.3197 41.0649C75.4398 40.0226 77.1622 40.0226 78.2823 41.0649C78.7995 41.5934 79.0815 42.3123 79.0635 43.0558L79.0259 44.1512ZM56.9727 46.1802C57.4805 45.6477 57.7523 44.9289 57.7257 44.1894V43.0558C57.7487 42.315 57.4735 41.5966 56.9633 41.0649C55.8463 40.0239 54.1271 40.0239 53.0101 41.0649C52.4998 41.5966 52.2247 42.315 52.2477 43.0558V44.1894C52.2151 44.9358 52.4945 45.6617 53.0175 46.1891C53.5404 46.7166 54.2586 46.9969 54.9961 46.9613C55.7336 46.9904 56.4498 46.7074 56.9727 46.1802ZM26.2042 40.3791L24.124 46.9042H25.63L25.9877 45.6373H28.0207L28.3878 46.9042H29.8938L27.8137 40.3791H26.2042ZM26.9945 42.1318L27.6722 44.4656H26.3545L26.9945 42.1318ZM37.6117 44.6561V40.3791H39.1083V44.6561C39.1443 45.3156 38.8725 45.9539 38.3741 46.3803C37.2207 47.2064 35.6779 47.2064 34.5245 46.3803C34.026 45.9539 33.7542 45.3156 33.7903 44.6561V40.3791H35.2869V44.6561C35.2601 44.9828 35.3732 45.3054 35.5975 45.542C35.8357 45.7459 36.1427 45.8483 36.454 45.8278C36.7655 45.8504 37.0733 45.7477 37.3105 45.542C37.5283 45.3019 37.6374 44.9809 37.6117 44.6561ZM43.3535 40.3791V41.5412H45.0383V46.9042H46.5443V41.5412H48.2385V40.3791H43.3535ZM56.239 43.0082C56.2428 42.6175 56.1278 42.235 55.9096 41.9127C55.693 41.6093 55.3373 41.4401 54.9683 41.465C54.6 41.4437 54.2459 41.6121 54.0271 41.9127C53.8008 42.2521 53.6886 42.6563 53.7071 43.0653V44.2465C53.6886 44.6555 53.8008 45.0597 54.0271 45.3991C54.2436 45.7025 54.5993 45.8717 54.9683 45.8468C55.3388 45.8794 55.698 45.7086 55.9096 45.3991C56.1392 45.0608 56.2547 44.6566 56.239 44.2465V43.0082ZM65.6422 44.9038L67.1011 40.341L69.0306 40.3791V46.866H67.5247V45.2467L67.6658 42.2652L66.1034 46.866H65.0963L63.5621 42.3033L63.7032 45.2467V46.866H62.1973V40.341H64.1927L65.6422 44.9038ZM77.181 41.9127C77.3987 42.2222 77.5199 42.5904 77.5293 42.9701L77.5105 44.2465C77.5289 44.6555 77.4167 45.0597 77.1904 45.3991C76.9776 45.707 76.6193 45.8774 76.2492 45.8468C75.8802 45.8717 75.5245 45.7025 75.308 45.3991C75.0784 45.0608 74.9628 44.6566 74.9785 44.2465V43.0653C74.96 42.6563 75.0723 42.2521 75.2985 41.9127C75.5251 41.6198 75.8722 41.4487 76.2398 41.4487C76.6073 41.4487 76.9544 41.6198 77.181 41.9127ZM83.0449 40.3029V41.465H84.7109V46.828H86.2169V41.5412H87.9111V40.3791L83.0449 40.3029ZM93.7378 46.9042H92.2413V40.3791H93.7378V46.9042ZM102.2 40.3791L100.919 45.1419V45.1229L99.6582 40.36H98.0958L100.176 46.8851H101.654L103.743 40.36L102.2 40.3791ZM107.96 46.9042V40.3791H112.468V41.5412H109.485V42.9415H112.007V44.1131H109.466V45.723H112.44V46.9042H107.96Z" fill="black"/>
<path fill-rule="evenodd" clip-rule="evenodd" d="M91.7896 7.53479C91.7896 2.94343 88.5329 0 83.3749 0H74.6309V29.2819H78.5276V3.5626H83.0549C85.9633 3.5626 87.8364 4.93429 87.8364 7.60147C87.8364 10.0019 86.001 11.6404 83.0549 11.6404H80.3253V15.241H82.9232C87.7988 15.241 91.7896 12.612 91.7896 7.55384V7.53479ZM106.002 11.6404V29.2819H102.52V26.7195C101.178 28.4793 99.065 29.4559 96.8723 29.3295C94.5367 29.386 92.2777 28.4851 90.6081 26.8313C88.9385 25.1775 88.0001 22.9112 88.0058 20.5468C87.9976 18.1598 88.9426 15.8707 90.6263 14.199C92.31 12.5274 94.5895 11.615 96.9476 11.6689C99.0966 11.5525 101.166 12.5056 102.491 14.2218V11.6404H106.002ZM119.02 11.707C116.117 11.585 114.201 13.2566 113.146 15.729V11.6689H109.315V29.2533H113.146V22.4805C113.146 18.0225 115.443 15.8126 118.794 15.8126H119.02V11.707ZM100.67 24.3754C99.7086 25.3895 98.3734 25.9525 96.9852 25.9288L96.9476 25.9574C95.5588 25.9531 94.2311 25.3791 93.2679 24.3666C92.3046 23.3541 91.7882 21.9896 91.8367 20.5849C91.7557 19.1873 92.2518 17.8183 93.2065 16.8051C94.1613 15.7919 95.4889 15.2254 96.8723 15.241C98.2674 15.2275 99.6078 15.7896 100.585 16.7979C101.561 17.8062 102.09 19.1736 102.049 20.5849C102.13 21.9876 101.631 23.3612 100.67 24.3754ZM136.48 29.2819H131.773L124.912 22.452V29.32H121.081V3.60071H124.902V17.6225L131.698 11.4308H136.677L127.143 20.0039L136.48 29.2819ZM139.614 5.84876C139.869 5.60014 140.009 5.25446 140 4.89619C140.01 4.5377 139.87 4.19155 139.614 3.94362C139.368 3.68269 139.028 3.53497 138.672 3.53497C138.317 3.53497 137.976 3.68269 137.731 3.94362C137.475 4.19155 137.335 4.5377 137.345 4.89619C137.336 5.25446 137.476 5.60014 137.731 5.84876C137.976 6.1079 138.318 6.24982 138.672 6.23931C139.026 6.24862 139.368 6.10689 139.614 5.84876ZM138.692 3.77215C138.392 3.77034 138.103 3.89045 137.892 4.10554C137.682 4.32085 137.566 4.61274 137.572 4.91522C137.564 5.21811 137.68 5.51083 137.892 5.7249C138.103 5.94 138.392 6.06011 138.692 6.0583C138.989 6.06191 139.275 5.94133 139.482 5.7249C139.701 5.51445 139.82 5.22017 139.812 4.91522C139.812 4.28762 139.312 3.77738 138.692 3.77215ZM138.164 4.18175V5.63918H138.418V5.06764H138.616C138.709 5.04813 138.805 5.04813 138.898 5.06764C138.994 5.14955 139.044 5.27461 139.03 5.40104V5.60108H139.303C139.301 5.57573 139.301 5.55022 139.303 5.52487V5.32483C139.298 5.24628 139.272 5.1706 139.228 5.10574C139.169 5.02614 139.08 4.97448 138.983 4.96286C139.056 4.95077 139.126 4.92492 139.19 4.88665C139.287 4.82599 139.341 4.71547 139.331 4.60088C139.345 4.44246 139.253 4.29416 139.105 4.23891C138.978 4.19408 138.844 4.17466 138.71 4.18175H138.164ZM139.031 4.61995C139.041 4.5377 139.004 4.45659 138.936 4.41039C138.842 4.36578 138.739 4.34612 138.635 4.35323H138.419V4.84857H138.645C138.726 4.86158 138.808 4.86158 138.889 4.84857C138.983 4.81415 139.041 4.71991 139.031 4.61995Z" fill="black"/>
<path fill-rule="evenodd" clip-rule="evenodd" d="M14.9657 3.59108V7.5347H3.89672V14.5932H12.2361V18.4987H3.89672V25.3381H15.1257V29.2818H0V3.5625L14.9657 3.59108ZM31.4181 26.1383L29.1026 23.8331C28.02 25.1313 26.4415 25.9006 24.7635 25.9478C21.8175 25.9478 19.7656 23.5092 19.7656 20.461C19.7656 17.4128 21.7892 15.0504 24.5753 15.0504C26.261 15.0646 27.8524 15.8401 28.9144 17.1651L31.2863 14.5646C29.6147 12.6123 27.1538 11.5389 24.6035 11.6498C22.2832 11.6392 20.0564 12.5746 18.4255 14.2449C16.7945 15.9152 15.8968 18.1797 15.9348 20.5277C15.8991 22.8613 16.7967 25.1104 18.4238 26.7643C20.0509 28.4181 22.2694 29.3363 24.5753 29.3103C27.2206 29.3928 29.752 28.2194 31.4181 26.1383ZM41.3487 15.1647C39.1368 15.1647 37.5838 16.7365 37.5838 19.3656V29.3103H33.7529V3.59106H37.5838V14.6218C38.6777 12.759 40.6665 11.6239 42.8076 11.6402C46.582 11.6402 48.7656 14.2026 48.7656 18.1463V29.2818H44.9348V19.2989C44.9348 16.6698 43.5606 15.1647 41.3487 15.1647ZM72.8239 15.1838H67.1765C69.7332 18.534 69.6747 23.2247 67.0353 26.5085C64.3959 29.7924 59.87 30.8054 56.1084 28.9542C52.3468 27.103 50.3393 22.8748 51.2616 18.7459C52.184 14.617 55.7934 11.6739 59.9761 11.6403H60.5879H72.8239V15.1838ZM65.0108 20.5944C65.0894 21.9963 64.5885 23.3682 63.6282 24.3817C62.6678 25.3952 61.3343 25.959 59.947 25.9383C58.5539 25.9291 57.2242 25.3479 56.2624 24.3279C55.3007 23.3079 54.7893 21.9364 54.8455 20.5277C54.7645 19.13 55.2606 17.761 56.2154 16.7478C57.1701 15.7346 58.4978 15.1682 59.8811 15.1838C61.2791 15.1852 62.6162 15.763 63.5841 16.7839C64.552 17.8048 65.0672 19.1807 65.0108 20.5944Z" fill="black"/>
</svg>
