<svg width="179" height="72" viewBox="0 0 179 72" fill="none" xmlns="http://www.w3.org/2000/svg">
<g clip-path="url(#clip0_10493_8001)">
<path d="M41.526 19.9629C40.4273 19.2985 39.0832 18.8806 37.1419 18.8806H25.1417C23.4564 18.8806 22.8377 19.1914 22.379 20.2201L21.4083 22.3204C20.9603 23.2955 21.3657 23.6063 23.051 23.6063H32.3418C37.0886 23.6063 39.4886 25.4602 37.5046 29.9287L33.6965 38.555C31.4351 43.645 27.9684 46.3133 22.9123 46.3133H0L1.84536 39.6373C2.64537 40.2588 4.06406 40.8696 6.04809 40.8696H18.6563C20.235 40.8696 20.7683 40.516 21.227 39.4337L22.2297 37.1726C22.7523 36.0474 22.3577 35.7367 20.7683 35.7367H10.1015C5.40808 35.7367 4.26673 33.9364 6.5281 28.8571L9.98415 20.9916C11.7868 16.9303 15.3176 13.4369 19.9683 13.4369H43.35L41.526 19.9629ZM68.833 39.3265C66.913 43.6986 64.2676 46.3133 59.1155 46.3133H39.7126C34.5605 46.3133 34.2512 43.6986 36.1605 39.3265L40.6193 29.1571C42.5393 24.7851 45.1847 22.1704 50.3368 22.1704H69.729C74.8811 22.1704 75.2011 24.7958 73.2811 29.1571L68.8224 39.3265H68.833ZM60.5662 26.8961H55.3608C54.1875 26.8961 53.4621 27.464 52.9181 28.6963L48.022 39.7873C47.478 41.0196 47.7234 41.5876 48.8967 41.5876H54.1021C55.2755 41.5876 56.0542 41.0196 56.5982 39.7873L61.4943 28.6963C62.0383 27.464 61.7396 26.8961 60.5662 26.8961ZM102.274 40.8696C101.282 43.0771 100.823 45.1881 101.218 46.3133H86.5186C87.8626 45.1881 89.2387 43.0771 90.22 40.8696L95.6388 28.6428C96.0974 27.5605 95.9268 26.8961 94.6468 26.8961H89.644C88.6733 26.8961 87.7986 27.464 87.2653 28.6428L81.8466 40.8696C80.8545 43.0771 80.4065 45.1881 80.8012 46.3133H66.1023C67.4463 45.1881 68.8224 43.0771 69.8037 40.8696L75.6811 27.614C76.6731 25.4066 77.1318 23.2955 76.7371 22.1704H89.196L88.46 24.6886H88.5667C89.8253 23.1991 91.2974 22.1704 92.9294 22.1704H102.626C108.14 22.1704 109.058 25.6102 106.796 30.7002L102.284 40.8696H102.274ZM117.89 40.8696C116.898 43.0771 116.439 45.1881 116.834 46.3133H102.135C103.479 45.1881 104.855 43.0771 105.836 40.8696L111.714 27.614C112.706 25.4066 113.164 23.2955 112.77 22.1704H126.146L117.89 40.8696ZM127.213 19.8022H115.17L117.975 13.4369H130.029L127.213 19.8022ZM153.933 28.182C153.069 27.0997 151.117 26.8961 149.229 26.8961H141.677C140.045 26.8961 138.807 27.7748 138.093 29.3607L133.815 39.1229C133.101 40.7196 133.591 41.5876 135.223 41.5876H142.775C144.663 41.5876 146.797 41.384 148.589 40.3017L144.877 46.3133H125.933C120.93 46.3133 119.863 43.3878 121.751 39.1229L126.029 29.3607C127.927 25.0958 131.554 22.1704 136.557 22.1704H155.49L153.922 28.182H153.933ZM27.3817 59.6545C27.5311 59.3866 27.6377 59.1402 27.6377 58.8723C27.6377 58.4865 27.5311 58.1757 27.3391 57.7685L26.8164 56.6005H21.611L20.779 58.2293C20.7043 58.3686 20.651 58.6365 20.651 58.8723C20.651 59.2795 20.779 59.4402 20.907 59.6545H17.5363C17.9203 59.2259 18.4109 58.5722 18.8163 57.7793L23.2217 48.9601L22.699 48.3171H28.0538L32.1605 57.8328C32.4058 58.3793 32.6832 59.0009 33.3125 59.6545H27.3711H27.3817ZM24.363 50.9104L22.5497 54.7359H26.0484L24.363 50.9104ZM40.4806 59.6545L40.3526 58.7865H40.3099C40.0859 59.3009 39.7126 59.6545 39.1259 59.6545H35.6059C33.6005 59.6545 32.7365 58.4651 32.7365 56.7184V53.2143C32.7365 52.4535 32.5658 51.7248 32.2565 51.339H37.1099V57.4256C37.1099 57.8007 37.2806 58.0257 37.7392 58.0257H39.5526C39.9046 58.0257 40.1393 57.8328 40.1393 57.4256V53.0321C40.1393 52.2713 40.0646 51.7248 39.7553 51.339H44.5127V57.79C44.5127 58.5508 44.6833 59.2795 44.9927 59.6652H40.4699L40.4806 59.6545ZM54.9342 59.6545H49.2914C47.9047 59.6545 46.9234 58.7544 46.9234 57.2863V52.9571H45.0887V51.3283H46.9234V49.6245L51.2968 49.5173V51.3283H53.8888V52.9571H51.2968V57.4042C51.2968 57.865 51.4994 58.0257 52.0008 58.0257H53.7928C54.2728 58.0257 54.7742 57.9507 55.2222 57.7257L54.9448 59.6545H54.9342ZM64.9183 59.6545H57.8782C56.0115 59.6545 55.4675 58.7544 55.4675 57.2435V53.7394C55.4675 52.2391 56.0008 51.3283 57.8782 51.3283H64.9183C66.785 51.3283 67.329 52.2284 67.329 53.7394V57.2435C67.329 58.7437 66.7957 59.6545 64.9183 59.6545ZM62.9556 53.5786C62.9556 53.15 62.7743 52.9571 62.3476 52.9571H60.4596C60.0329 52.9571 59.8516 53.15 59.8516 53.5786V57.4042C59.8516 57.8328 60.0329 58.0257 60.4596 58.0257H62.3476C62.7743 58.0257 62.9556 57.8328 62.9556 57.4042V53.5786ZM80.6519 59.6545C80.9612 59.2688 81.1319 58.5401 81.1319 57.7793V53.5143C81.1319 53.1393 80.9612 52.9678 80.5025 52.9678H79.2119C78.8598 52.9678 78.6145 53.1071 78.6145 53.5143V57.7793C78.6145 58.5401 78.7852 59.2688 79.0945 59.6545H74.1344C74.4438 59.2688 74.6144 58.5401 74.6144 57.7793V53.5143C74.6144 53.1393 74.4438 52.9678 73.9851 52.9678H72.6944C72.3424 52.9678 72.1077 53.1071 72.1077 53.5143V57.7793C72.1077 58.5401 72.2784 59.2688 72.5878 59.6545H67.6277C67.937 59.2688 68.1077 58.5401 68.1077 57.7793V53.2143C68.1077 52.4535 67.937 51.7248 67.6277 51.339H71.7771L71.8837 52.3463H71.9264C72.1717 51.6712 72.3851 51.339 73.0358 51.339H77.0891C78.1452 51.339 78.3052 51.7676 78.4758 52.2391H78.5078C78.6145 51.7569 78.8385 51.339 79.4892 51.339H82.5612C84.5559 51.339 85.1319 52.5392 85.1319 54.5966V57.7793C85.1319 58.5401 85.3026 59.2688 85.6119 59.6545H80.6519ZM95.1268 59.6545H88.0866C86.22 59.6545 85.6759 58.7544 85.6759 57.2435V53.7394C85.6759 52.2391 86.2093 51.3283 88.0866 51.3283H95.1268C96.9934 51.3283 97.5375 52.2284 97.5375 53.7394V57.2435C97.5375 58.7437 97.0041 59.6545 95.1268 59.6545ZM93.1641 53.5786C93.1641 53.15 92.9827 52.9571 92.556 52.9571H90.668C90.2413 52.9571 90.06 53.15 90.06 53.5786V57.4042C90.06 57.8328 90.2413 58.0257 90.668 58.0257H92.556C92.9827 58.0257 93.1641 57.8328 93.1641 57.4042V53.5786ZM107.575 59.6545H101.932C100.545 59.6545 99.5641 58.7544 99.5641 57.2863V52.9571H97.7295V51.3283H99.5641V49.6245L103.938 49.5173V51.3283H106.722V52.9571H103.938V57.4042C103.938 57.865 104.14 58.0257 104.642 58.0257H106.434C106.914 58.0257 107.415 57.9507 107.863 57.7257L107.586 59.6545H107.575ZM108.535 59.6545C108.855 59.2688 109.015 58.5401 109.015 57.7793V53.2143C109.015 52.4535 108.855 51.7248 108.535 51.339H113.388V57.79C113.388 58.5508 113.559 59.2795 113.868 59.6652H108.535V59.6545ZM109.015 48.3278H113.388V50.5246H109.015V48.3278ZM125.399 52.8607L122.487 59.6652H117.836L114.711 52.8607C114.434 52.2391 114.231 51.7141 113.836 51.339H119.127C119.074 51.4783 119.052 51.564 119.052 51.7141C119.052 51.982 119.159 52.1856 119.298 52.4963L121.516 57.5114L123.65 52.4963C123.767 52.2499 123.821 52.0891 123.821 51.8212C123.821 51.6283 123.789 51.5212 123.714 51.339H126.285C125.879 51.8641 125.687 52.1749 125.399 52.8607ZM131.127 56.3969V57.1792C131.127 57.7257 131.447 58.0257 132.034 58.0257H136.461C137.271 58.0257 137.815 57.8971 138.317 57.6721L137.986 59.6545H129.197C127.383 59.6545 126.775 58.8937 126.775 57.1792V53.7072C126.775 52.1641 127.383 51.339 129.197 51.339H136.023C137.837 51.339 138.455 52.1748 138.455 53.7072V56.3969H131.138H131.127ZM134.178 53.6215C134.178 53.1393 134.007 52.9678 133.517 52.9678H131.789C131.287 52.9678 131.127 53.15 131.127 53.6215V54.7681H134.178V53.6215ZM148.994 9.7721C135.554 5.1857 120.034 1.96022 103.5 0.738613C67.1157 -1.96179 33.6325 2.81749 9.51481 13.8441C33.8138 4.46774 66.945 -0.0650778 100.855 3.39615C123.991 5.75365 146.498 10.0293 160.461 21.6453C164.92 25.353 170.04 31.0967 169.283 39.005C169.005 41.8662 167.672 44.0415 166.285 45.9168C160.77 53.375 150.53 57.7257 140.717 61.1548C130.445 64.7339 119.98 66.802 107.394 68.5916C82.7106 72.1171 51.7554 70.0489 30.6885 65.5804C29.7284 65.7411 31.0725 65.6447 31.0405 65.934C55.3075 72.4493 88.908 73.7566 117.271 69.6524C137.207 66.7592 157.432 61.9906 170.168 51.2318C174.168 47.8456 178.627 42.2948 178.989 36.176C179.437 28.3427 172.376 22.1704 167.352 18.6341C161.794 14.7228 155.512 11.9903 149.016 9.7721" fill="#EF4228"/>
<path d="M178.84 18.2066C178.84 19.1067 178.136 19.814 177.23 19.814C176.323 19.814 175.619 19.1067 175.619 18.1959C175.619 17.285 176.323 16.5778 177.24 16.5778C178.158 16.5778 178.851 17.3064 178.84 18.1959M179 18.2173C179 17.2421 178.254 16.4277 177.23 16.4277C176.28 16.4277 175.459 17.1778 175.459 18.2066C175.459 19.2353 176.302 19.9854 177.219 19.9854C178.222 19.9854 178.99 19.2031 179 18.2173ZM176.846 17.3386H177.144C177.411 17.3386 177.518 17.3386 177.614 17.4243C177.678 17.4779 177.72 17.5743 177.72 17.6708C177.72 18.0244 177.347 18.0244 177.208 18.0244H176.835V17.3493L176.846 17.3386ZM176.515 17.0921V19.3103H176.835V18.2816H176.995C177.315 18.2816 177.486 18.3244 177.56 18.6566C177.56 18.7102 177.603 18.9567 177.614 19.0103C177.635 19.1174 177.656 19.2139 177.699 19.3103H178.072C177.976 19.1067 177.955 18.9888 177.912 18.6674C177.87 18.3995 177.795 18.2709 177.56 18.1744C177.838 18.1316 178.051 17.9494 178.051 17.6386C178.051 17.4243 177.934 17.2207 177.71 17.135C177.582 17.0814 177.454 17.0814 177.198 17.0814H176.515V17.0921Z" fill="#EF4228"/>
</g>
<defs>
<clipPath id="clip0_10493_8001">
<rect width="179" height="72" fill="white"/>
</clipPath>
</defs>
</svg>
