<svg width="125" height="75" viewBox="0 0 125 75" fill="none" xmlns="http://www.w3.org/2000/svg">
<path d="M8.28242 45.2839L6.14121 42.7997L4.57493 44.1499L7.10375 47.0836L5.88905 48.1312L2 43.6182L8.55188 37.9727L12.4496 42.4943L11.2305 43.5447L8.69452 40.6023L7.31268 41.7925L9.45245 44.2767L8.28242 45.2839Z" fill="#313D47"/>
<path d="M10.0898 48.9085L13.6359 46.7125L15.1488 48.1808L9.16901 51.3336L7.70215 49.9114L10.6719 43.8379L12.1892 45.3105L10.0898 48.9085Z" fill="#313D47"/>
<path d="M13.6544 55.4C12.8965 54.7689 12.4714 54.0326 12.3777 53.1911C12.2855 52.3496 12.5406 51.5657 13.1429 50.8409L13.2495 50.7127C13.6702 50.2069 14.1342 49.8395 14.6429 49.6089C15.1515 49.3784 15.6731 49.3063 16.2092 49.3928C16.7437 49.4807 17.2581 49.7285 17.7524 50.1392C18.4455 50.717 18.8158 51.3885 18.859 52.1522C18.9022 52.9173 18.604 53.6853 17.9628 54.4547L17.4656 55.0527L14.4066 52.5081C14.2308 52.8308 14.1703 53.1478 14.2236 53.4605C14.2769 53.7732 14.4527 54.0527 14.7481 54.2977C15.2351 54.7026 15.7567 54.8496 16.3158 54.7357L16.3273 56.1522C15.9152 56.2573 15.4685 56.2429 14.9858 56.106C14.5017 55.9735 14.0593 55.7372 13.6544 55.4ZM16.7553 51.3207C16.3043 50.9461 15.7884 51.021 15.2077 51.547L16.7596 52.838L16.859 52.7199C17.0708 52.4778 17.1674 52.2357 17.1486 51.9908C17.1299 51.7458 16.9988 51.5225 16.7553 51.3207Z" fill="#313D47"/>
<path d="M22.6394 56.1057L22.1235 55.6922C21.6062 55.3334 21.161 55.2671 20.7892 55.4919L18.4751 58.8391L16.8281 57.7008L20.4823 52.4141L22.0255 53.4818L21.6105 54.1979C22.246 53.8708 22.8108 53.8795 23.3051 54.221C23.4809 54.342 23.6206 54.4674 23.7244 54.5971L22.6394 56.1057Z" fill="#313D47"/>
<path d="M24.6243 59.4138L27.3722 56.8202L29.2252 57.8994L23.1863 63.0637L22.9514 63.2424C22.2108 63.7741 21.4341 63.8029 20.62 63.3274C20.3938 63.1962 20.1762 63.0233 19.9658 62.8101L20.6834 61.5781L20.9096 61.7092C21.1517 61.8504 21.3592 61.9239 21.5278 61.9282C21.6978 61.9326 21.865 61.8619 22.0321 61.7164L22.3866 61.4268L23.7237 54.6934L25.571 55.7697L24.6243 59.4138Z" fill="#313D47"/>
<path d="M37.3988 65.2501C37.1481 65.7976 36.7979 66.2299 36.3498 66.5455C35.9017 66.861 35.3815 67.0368 34.7878 67.07C34.1956 67.1031 33.5803 66.9907 32.9406 66.7328C31.8873 66.3063 31.1971 65.6276 30.8685 64.6968C30.54 63.7659 30.6293 62.6737 31.1365 61.4216L31.2965 61.0253C31.6149 60.24 32.0285 59.6074 32.5414 59.129C33.053 58.6507 33.6308 58.3553 34.2749 58.2414C34.919 58.1276 35.5789 58.2083 36.2533 58.4806C37.2259 58.874 37.9045 59.4461 38.2878 60.1982C38.6711 60.9489 38.7215 61.7904 38.4391 62.7227L36.5112 61.9432C36.6942 61.4489 36.7129 61.0484 36.5674 60.7429C36.4218 60.436 36.1135 60.1867 35.6394 59.9965C35.1581 59.802 34.7331 59.8394 34.3642 60.1089C33.9953 60.3783 33.6452 60.9057 33.3152 61.6896L33.0861 62.2573C32.7403 63.1132 32.6005 63.7674 32.6668 64.2213C32.7331 64.6752 33.0285 65.008 33.553 65.2213C33.9968 65.4014 34.3786 65.4331 34.6985 65.3192C35.0184 65.2054 35.2777 64.923 35.4752 64.4749L37.3988 65.2501Z" fill="#313D47"/>
<path d="M41.0609 69.3666C41.0292 69.2211 41.022 69.0194 41.0393 68.76C40.5566 69.1015 39.9975 69.1807 39.3621 68.9963C38.7799 68.8277 38.3376 68.5078 38.0321 68.0381C37.7266 67.5683 37.6517 67.0669 37.8073 66.5352C38.0018 65.8666 38.3952 65.4315 38.9903 65.2341C39.584 65.0352 40.352 65.0727 41.2958 65.3464L41.8894 65.5194L41.9845 65.1923C42.1502 64.6231 41.9874 64.2672 41.4975 64.1245C41.0407 63.992 40.7468 64.1505 40.6157 64.6015L38.6935 64.0439C38.8664 63.4473 39.2612 63.0367 39.8765 62.8119C40.4917 62.5871 41.1935 62.5885 41.9816 62.8176C42.7684 63.0467 43.3347 63.4185 43.6791 63.9358C44.0234 64.4531 44.1041 65.0467 43.9211 65.7197L43.1272 68.4516C42.9701 69.0208 42.9312 69.479 43.0119 69.8277L42.9845 69.9243L41.0609 69.3666ZM40.2223 67.7629C40.4615 67.832 40.6747 67.8392 40.8635 67.7816C41.0508 67.7254 41.1978 67.6418 41.3044 67.5323L41.5912 66.5453L41.0321 66.3825C40.3635 66.1879 39.9413 66.3911 39.767 66.992C39.7165 67.1663 39.7338 67.3263 39.8203 67.4689C39.9053 67.6116 40.0393 67.7096 40.2223 67.7629Z" fill="#313D47"/>
<path d="M48.8731 66.433L48.2377 66.2529C47.621 66.1247 47.1858 66.2371 46.9308 66.5872L46.1022 70.5714L44.1426 70.1636L45.4509 63.8711L47.2881 64.2529L47.1844 65.0743C47.6426 64.5267 48.1656 64.3135 48.755 64.4359C48.9639 64.4792 49.1411 64.5411 49.2867 64.6189L48.8731 66.433Z" fill="#313D47"/>
<path d="M48.1312 73.3199L47.2119 72.6859L47.477 72.3199C47.8344 71.8574 48.0577 71.3963 48.1456 70.9381L48.3877 69.4727L49.9698 69.7349L49.7537 71.0058C49.6759 71.4539 49.4842 71.892 49.1802 72.3199C48.8776 72.7479 48.5275 73.0807 48.1312 73.3199Z" fill="#313D47"/>
<path d="M61.9089 72.1882L59.8368 72.1061L59.9795 68.498L56.9103 68.377L56.7691 71.9851L54.6855 71.9029L55.0256 63.2617L57.1092 63.3438L56.9737 66.7747L60.0429 66.8957L60.1783 63.4649L62.2504 63.547L61.9089 72.1882Z" fill="#313D47"/>
<path d="M67.2002 71.8836C67.1209 71.7582 67.0446 71.5709 66.974 71.3202C66.6368 71.8058 66.1382 72.0709 65.4783 72.1141C64.8731 72.153 64.3486 72.0046 63.9019 71.666C63.4552 71.3274 63.2146 70.8822 63.1786 70.3288C63.1339 69.6329 63.3558 69.0911 63.8471 68.702C64.3385 68.313 65.0734 68.0868 66.0532 68.0234L66.6699 67.983L66.6483 67.643C66.6094 67.0507 66.3356 66.7726 65.8255 66.8058C65.3515 66.836 65.1296 67.0868 65.1598 67.5551L63.1627 67.6848C63.1224 67.0652 63.3529 66.545 63.8558 66.1242C64.3587 65.7035 65.0186 65.4657 65.8371 65.4124C66.6555 65.3591 67.314 65.5176 67.814 65.885C68.314 66.2539 68.5921 66.7856 68.6497 67.4801L68.8342 70.3188C68.8803 70.9066 68.9999 71.3519 69.1944 71.653L69.2016 71.7539L67.2002 71.8836ZM65.8644 70.6603C66.1137 70.6444 66.3169 70.5767 66.474 70.46C66.631 70.3432 66.7405 70.215 66.8025 70.0752L66.7362 69.0493L66.1555 69.0868C65.4595 69.1314 65.1325 69.4672 65.1728 70.0911C65.1843 70.2726 65.2549 70.4153 65.3861 70.5205C65.5157 70.6271 65.6757 70.6732 65.8644 70.6603Z" fill="#313D47"/>
<path d="M75.8256 67.5506C75.9826 68.5362 75.8847 69.359 75.5345 70.0175C75.1844 70.676 74.631 71.0665 73.876 71.1861C73.2939 71.2783 72.7809 71.1414 72.3371 70.7739L72.8068 73.7365L70.8299 74.0506L69.4365 65.2624L71.2838 64.9699L71.4351 65.5477C71.7391 65.0175 72.2017 64.7048 72.8198 64.6068C73.6022 64.4829 74.2564 64.6745 74.7809 65.1832C75.3068 65.6918 75.6498 66.4497 75.8097 67.4584L75.8256 67.5506ZM73.8299 67.7408C73.6512 66.614 73.2334 66.1039 72.5763 66.2077C72.1065 66.2826 71.8212 66.5002 71.7175 66.8604L72.1138 69.359C72.3414 69.6832 72.6872 69.81 73.1483 69.7365C73.778 69.6371 74.0172 69.042 73.863 67.9512L73.8299 67.7408Z" fill="#313D47"/>
<path d="M82.5749 65.8466C82.8242 66.8134 82.8054 67.6405 82.5201 68.3307C82.2334 69.0195 81.7204 69.4604 80.9798 69.6506C80.4092 69.7976 79.8847 69.7097 79.4092 69.3869L80.1585 72.2918L78.2204 72.7918L75.9971 64.1765L77.8083 63.7097L78.0144 64.2702C78.268 63.714 78.6974 63.3581 79.3025 63.201C80.0691 63.0036 80.7377 63.1319 81.3097 63.5872C81.8818 64.0425 82.2939 64.7659 82.5489 65.7544L82.5749 65.8466ZM80.6066 66.2255C80.3213 65.1218 79.8573 64.6521 79.2132 64.8192C78.7536 64.9374 78.4884 65.1823 78.4207 65.5512L79.0533 68.0007C79.3112 68.3019 79.6657 68.3941 80.1181 68.2774C80.7348 68.1175 80.9164 67.5036 80.6599 66.4316L80.6066 66.2255Z" fill="#313D47"/>
<path d="M86.0003 65.0274L85.787 61.2551L87.8058 60.5332L87.8648 68.4784L87.8504 68.7738C87.7798 69.6816 87.3014 70.2954 86.4138 70.6124C86.1674 70.7003 85.8951 70.7565 85.5968 70.7796L85.117 69.4367L85.3634 69.3488C85.6285 69.2537 85.8173 69.1442 85.9297 69.0174C86.0421 68.8906 86.0968 68.7162 86.0925 68.4943L86.0997 68.0375L81.8115 62.6773L83.8245 61.9568L86.0003 65.0274Z" fill="#313D47"/>
<path d="M98.4081 57.7838C98.8044 58.5288 99.0162 59.2607 99.045 59.9812C99.0739 60.7017 98.9154 61.3515 98.5724 61.9308C98.228 62.5115 97.7309 62.974 97.0811 63.3198C96.4312 63.6656 95.7741 63.8227 95.1128 63.791C94.4499 63.7593 93.8303 63.5417 93.254 63.1354C92.6776 62.729 92.1906 62.17 91.7929 61.4567L91.5638 61.0273C91.1661 60.2795 90.9514 59.546 90.9226 58.8285C90.8923 58.1109 91.0522 57.461 91.3981 56.876C91.7439 56.2924 92.2453 55.827 92.8981 55.4798C93.545 55.1354 94.2035 54.9826 94.875 55.0215C95.545 55.059 96.1733 55.2881 96.7569 55.706C97.3404 56.1239 97.8289 56.7002 98.2237 57.4322L98.4081 57.7838ZM96.3664 58.4581C95.9629 57.7002 95.5306 57.1916 95.0667 56.9322C94.6041 56.6743 94.1373 56.67 93.6646 56.9207C92.741 57.412 92.6214 58.363 93.3058 59.7751L93.5998 60.3385C93.9975 61.0864 94.4283 61.5965 94.8894 61.8659C95.352 62.1354 95.8275 62.1411 96.3159 61.8803C96.7813 61.6325 97.035 61.2449 97.0753 60.7161C97.1171 60.1872 96.9427 59.5518 96.5522 58.8083L96.3664 58.4581Z" fill="#313D47"/>
<path d="M104.691 55.3127L103.051 51.8358L104.623 50.7363L107.064 56.8718L105.676 57.8415L102.62 55.3257L103.928 59.0634L102.541 60.0332L97.6172 55.634L99.1892 54.5346L101.933 57.3487L100.548 53.585L101.692 52.7853L104.691 55.3127Z" fill="#313D47"/>
<path d="M106.346 49.1584L106.894 49.6815C106.843 48.951 107.11 48.3285 107.696 47.8141C108.199 47.3731 108.706 47.193 109.219 47.2752C109.732 47.3573 110.258 47.6973 110.797 48.2924L113.529 51.4034L112.019 52.7305L109.343 49.6815C109.13 49.438 108.923 49.3011 108.724 49.2723C108.525 49.2435 108.296 49.3429 108.036 49.5705C107.742 49.8299 107.624 50.1368 107.686 50.4942L110.681 53.9048L109.176 55.2262L104.936 50.3962L106.346 49.1584Z" fill="#313D47"/>
<path d="M116.838 48.1644C116.16 48.882 115.4 49.2609 114.554 49.2998C113.708 49.3402 112.941 49.0361 112.257 48.3906L112.136 48.2768C111.657 47.8258 111.319 47.3387 111.12 46.8171C110.921 46.2955 110.882 45.7696 111.003 45.2408C111.123 44.7119 111.404 44.2148 111.843 43.748C112.463 43.0909 113.156 42.7653 113.923 42.7696C114.689 42.7739 115.437 43.1197 116.166 43.807L116.732 44.3402L114.002 47.235C114.313 47.431 114.626 47.5116 114.941 47.4771C115.257 47.4425 115.546 47.2854 115.81 47.0059C116.245 46.5448 116.424 46.0333 116.345 45.4699L117.758 45.5462C117.838 45.9641 117.794 46.4093 117.629 46.882C117.461 47.3531 117.198 47.7811 116.838 48.1644ZM112.957 44.8157C112.555 45.2422 112.598 45.7624 113.087 46.3748L114.473 44.905L114.361 44.7984C114.133 44.5722 113.897 44.4612 113.652 44.4641C113.407 44.4684 113.175 44.5851 112.957 44.8157Z" fill="#313D47"/>
<path d="M118.193 39.3163L117.735 39.7932C117.333 40.2774 117.226 40.714 117.416 41.1044L120.545 43.7068L119.265 45.2457L114.324 41.1347L115.525 39.6923L116.202 40.1707C115.932 39.5094 115.991 38.9474 116.376 38.4849C116.513 38.3206 116.65 38.1923 116.788 38.1016L118.193 39.3163Z" fill="#313D47"/>
<path d="M38.4765 36.8047H37.0298L36.7777 37.6231H35.6494L37.256 33.2441H38.2488L39.867 37.6231H38.733L38.4765 36.8047ZM37.282 35.9891H38.2229L37.7503 34.4704L37.282 35.9891Z" fill="#313D47"/>
<path d="M45.2323 33.2456V36.1116C45.2323 36.4358 45.1631 36.7182 45.0248 36.9545C44.8864 37.1923 44.6876 37.3738 44.4297 37.4977C44.1703 37.6217 43.8648 37.6836 43.5118 37.6836C42.9787 37.6836 42.5579 37.5453 42.251 37.2686C41.9441 36.992 41.7885 36.613 41.7812 36.1317V33.2441H42.8432V36.1534C42.8547 36.6332 43.0781 36.8724 43.5104 36.8724C43.7294 36.8724 43.8936 36.8119 44.006 36.6923C44.1184 36.5712 44.1746 36.3767 44.1746 36.1058V33.2456H45.2323Z" fill="#313D47"/>
<path d="M50.9924 34.0597H49.6783V37.6245H48.6221V34.0597H47.3311V33.2441H50.991V34.0597H50.9924Z" fill="#313D47"/>
<path d="M56.7245 35.5242C56.7245 35.9507 56.6452 36.3296 56.4867 36.6582C56.3282 36.9867 56.1034 37.2403 55.8109 37.4175C55.5198 37.5948 55.187 37.6841 54.8138 37.6841C54.4406 37.6841 54.1106 37.5977 53.821 37.4276C53.5328 37.2562 53.3066 37.0112 53.1452 36.6928C52.9838 36.3743 52.8988 36.0083 52.8916 35.5948V35.3484C52.8916 34.919 52.9708 34.5415 53.1279 34.2129C53.285 33.8858 53.5112 33.6322 53.8051 33.4536C54.0991 33.2749 54.4334 33.1855 54.808 33.1855C55.1783 33.1855 55.5098 33.2734 55.8008 33.4507C56.0919 33.6279 56.3181 33.8786 56.4795 34.2043C56.6409 34.5299 56.723 34.9031 56.7245 35.3253V35.5242ZM55.651 35.3412C55.651 34.906 55.5789 34.576 55.4334 34.3498C55.2879 34.125 55.0804 34.0112 54.8095 34.0112C54.2807 34.0112 53.9997 34.4089 53.9709 35.2028L53.968 35.5242C53.968 35.9536 54.0386 36.2835 54.1812 36.5141C54.3239 36.7446 54.5357 36.8599 54.8152 36.8599C55.0818 36.8599 55.2879 36.7461 55.4319 36.5198C55.576 36.2936 55.6495 35.968 55.651 35.5429V35.3412Z" fill="#313D47"/>
<path d="M60.3197 33.2441L61.2967 36.2917L62.2707 33.2441H63.6598V37.6231H62.6007V36.6L62.703 34.5064L61.6439 37.6231H60.9465L59.8846 34.5035L59.9869 36.6V37.6231H58.9307V33.2441H60.3197Z" fill="#313D47"/>
<path d="M69.703 35.5242C69.703 35.9507 69.6237 36.3296 69.4652 36.6582C69.3067 36.9867 69.0819 37.2403 68.7894 37.4175C68.4984 37.5948 68.1655 37.6841 67.7923 37.6841C67.4191 37.6841 67.0891 37.5977 66.7995 37.4276C66.5113 37.2562 66.2851 37.0112 66.1237 36.6928C65.9623 36.3743 65.8773 36.0083 65.8701 35.5948V35.3484C65.8701 34.919 65.9494 34.5415 66.1064 34.2129C66.2635 33.8858 66.4897 33.6322 66.7837 33.4536C67.0776 33.2749 67.4119 33.1855 67.7865 33.1855C68.1569 33.1855 68.4883 33.2734 68.7793 33.4507C69.0704 33.6279 69.2966 33.8786 69.458 34.2043C69.6194 34.5299 69.7015 34.9031 69.703 35.3253V35.5242ZM68.6295 35.3412C68.6295 34.906 68.5574 34.576 68.4119 34.3498C68.2664 34.125 68.0589 34.0112 67.788 34.0112C67.2592 34.0112 66.9782 34.4089 66.9494 35.2028L66.9465 35.5242C66.9465 35.9536 67.0171 36.2835 67.1597 36.5141C67.3024 36.7446 67.5142 36.8599 67.7937 36.8599C68.0603 36.8599 68.2664 36.7461 68.4105 36.5198C68.5546 36.2936 68.628 35.968 68.6295 35.5429V35.3412Z" fill="#313D47"/>
<path d="M75.0935 34.0597H73.7794V37.6245H72.7232V34.0597H71.4336V33.2441H75.0935V34.0597Z" fill="#313D47"/>
<path d="M78.3268 37.6231H77.2734V33.2441H78.3268V37.6231Z" fill="#313D47"/>
<path d="M82.4236 36.4329L83.2954 33.2441H84.4741L83 37.6231H81.8444L80.3818 33.2441H81.5519L82.4236 36.4329Z" fill="#313D47"/>
<path d="M89.1732 35.7643H87.5132V36.8104H89.4743V37.6231H86.457V33.2441H89.4801V34.0597H87.5132V34.9833H89.1732V35.7643Z" fill="#313D47"/>
<path d="M2.12988 3.14062V25.5888H15.5074V22.1334H5.57801V16.1608H12.9584V12.7545H5.57801V6.58011H15.3619V3.14062H2.12988Z" fill="#62A60A"/>
<path d="M23.8657 25.6287C19.4709 25.6287 16.2188 22.182 16.2188 17.9572C16.2188 13.7325 19.4637 10.2051 23.8902 10.2051C26.6899 10.2051 28.4306 11.2411 29.798 12.7541L27.6943 15.0206C26.6582 13.9284 25.566 13.1763 23.8585 13.1763C21.3989 13.1763 19.602 15.3045 19.602 17.9097C19.602 20.5725 21.4234 22.7008 24.0286 22.7008C25.6222 22.7008 26.8038 21.9486 27.8643 20.8564L29.9118 22.8708C28.4551 24.4875 26.7476 25.6287 23.8657 25.6287Z" fill="#62A60A"/>
<path d="M35.3661 25.5888H31.9756V3.14062H35.3661V12.779C36.3214 11.3784 37.6888 10.1738 39.9871 10.1738C43.3214 10.1738 45.2479 12.4158 45.2479 15.8553V25.583H41.8646V16.8669C41.8646 14.5686 40.7162 13.2573 38.7004 13.2573C36.7422 13.2573 35.3661 14.6334 35.3661 16.923V25.5888Z" fill="#62A60A"/>
<path d="M55.1438 22.6589C52.5141 22.6589 50.6366 20.5307 50.6366 17.9327C50.6366 15.3592 52.3758 13.2627 55.0876 13.2627C57.7504 13.2627 59.6279 15.3909 59.6279 17.9889C59.6265 20.5624 57.8873 22.6589 55.1438 22.6589ZM66.5299 10.1877H55.6856C55.5069 10.1791 55.3297 10.1719 55.1438 10.1719C50.6034 10.1719 47.2461 13.6675 47.2461 17.924C47.2461 22.1488 50.5804 25.5955 55.0876 25.5955C59.6524 25.5955 63.0098 22.0912 63.0098 17.8678C63.0098 16.1358 62.4594 14.5422 61.504 13.2627H66.5213L66.5299 10.1877Z" fill="#62A60A"/>
<path d="M102.146 13.8374V10.1875H98.7539V25.5881H102.144V19.6644C102.144 15.748 104.216 13.8129 107.186 13.8129H107.381V10.2278C104.776 10.1155 103.068 11.6284 102.146 13.8374Z" fill="#313D47"/>
<path d="M87.8533 22.6823C85.2236 22.6823 83.3461 20.554 83.3461 17.9561C83.3461 15.3912 85.0781 13.286 87.7971 13.286C90.4599 13.286 92.3374 15.4143 92.3374 18.0123C92.3374 20.5785 90.5968 22.6823 87.8533 22.6823ZM92.7582 10.1708V12.42C91.7063 11.044 90.104 10.1953 87.8547 10.1953C83.323 10.1953 79.957 13.6909 79.957 17.9474C79.957 22.1722 83.2913 25.6189 87.7985 25.6189C90.0809 25.6189 91.715 24.7442 92.7755 23.3365V25.5785H95.8504L95.8346 10.1621H92.7596L92.7582 10.1708Z" fill="#313D47"/>
<path d="M83.3057 6.57925C83.3057 2.57349 80.4253 0 75.8605 0H68.1328V25.5879H71.5795V9.32133V3.13113H75.5853C78.1587 3.13113 79.8172 4.33718 79.8172 6.65994C79.8172 8.76369 78.1904 10.1888 75.5853 10.1888H73.1732V13.2968H75.4801C79.7783 13.2954 83.3057 10.9971 83.3057 6.57925Z" fill="#313D47"/>
<path d="M118.67 25.5801L119.852 25.5888H122.797L114.568 17.4879L123 10.0268L118.597 10.0354L112.585 15.449V3.14062H109.211L109.202 25.5888H112.585V19.6161L118.67 25.5801Z" fill="#313D47"/>
<path d="M122.62 41.2065C122.367 41.4601 122.061 41.5869 121.703 41.5869C121.346 41.5869 121.039 41.4601 120.788 41.2065C120.537 40.9543 120.412 40.6474 120.412 40.2872C120.412 39.9313 120.539 39.6258 120.791 39.3736C121.043 39.1215 121.347 38.9961 121.703 38.9961C122.062 38.9961 122.367 39.1215 122.62 39.3736C122.872 39.6258 122.999 39.9298 122.999 40.2872C123 40.646 122.873 40.9529 122.62 41.2065ZM120.916 39.5019C120.7 39.7194 120.592 39.9817 120.592 40.29C120.592 40.5998 120.7 40.865 120.915 41.084C121.131 41.303 121.395 41.4125 121.703 41.4125C122.013 41.4125 122.275 41.303 122.491 41.084C122.708 40.865 122.816 40.6013 122.816 40.29C122.816 39.9817 122.708 39.7194 122.491 39.5019C122.274 39.2828 122.012 39.1733 121.703 39.1733C121.396 39.1733 121.134 39.2828 120.916 39.5019ZM121.679 39.5739C121.854 39.5739 121.984 39.5912 122.066 39.6243C122.213 39.6849 122.287 39.8059 122.287 39.9846C122.287 40.1114 122.241 40.205 122.148 40.2655C122.099 40.2972 122.03 40.3203 121.942 40.3347C122.053 40.352 122.135 40.3981 122.186 40.4745C122.238 40.5494 122.264 40.6229 122.264 40.6949V40.7987C122.264 40.8318 122.265 40.8664 122.267 40.9039C122.269 40.9413 122.274 40.9658 122.28 40.9774L122.288 40.9947H122.053C122.052 40.9903 122.05 40.986 122.05 40.9802C122.049 40.9759 122.048 40.9702 122.048 40.9644L122.042 40.9183V40.8059C122.042 40.6416 121.997 40.5336 121.908 40.4802C121.854 40.45 121.762 40.4341 121.63 40.4341H121.432V40.9932H121.182V39.5725H121.679V39.5739ZM121.95 39.7972C121.886 39.7627 121.785 39.7439 121.646 39.7439H121.432V40.2583H121.659C121.765 40.2583 121.844 40.2483 121.898 40.2266C121.996 40.1877 122.045 40.1142 122.045 40.0047C122.043 39.9024 122.012 39.8333 121.95 39.7972Z" fill="#313D47"/>
</svg>
