<svg width="125" height="75" viewBox="0 0 125 75" fill="none" xmlns="http://www.w3.org/2000/svg">
<path d="M37.6035 38.0472H36.1085L35.8645 38.8862H34.7051L36.3526 34.3555H37.3747L39.0528 38.8862H37.8781L37.6035 38.0472ZM36.3526 37.2082H37.3289L36.8255 35.6521L36.3526 37.2082Z" fill="white"/>
<path d="M44.5755 34.3555V37.3302C44.5755 37.6658 44.4993 37.9709 44.3467 38.215C44.2094 38.4591 44.0111 38.6421 43.7365 38.7794C43.4619 38.9167 43.1416 38.9778 42.7907 38.9778C42.2415 38.9778 41.7991 38.8405 41.4788 38.5506C41.1584 38.2608 41.0059 37.8641 41.0059 37.376V34.386H42.1195V37.4065C42.1195 37.9099 42.3636 38.154 42.806 38.154C43.2484 38.154 43.2178 38.0777 43.3246 37.9709C43.4314 37.8641 43.5077 37.6506 43.5077 37.3607V34.386L44.5908 34.3555H44.5755Z" fill="white"/>
<path d="M50.5391 35.1945H49.1814V38.8862H48.0983V35.1945H46.7559V34.3555H50.5391V35.1945Z" fill="white"/>
<path d="M56.4741 36.7208C56.4741 37.1785 56.3826 37.5599 56.23 37.8955C56.0775 38.2311 55.8182 38.5057 55.5283 38.6888C55.2385 38.8718 54.8723 38.9633 54.5062 38.9633C54.1401 38.9633 53.774 38.8718 53.4841 38.6888C53.1943 38.5057 52.935 38.2616 52.7824 37.926C52.6299 37.5904 52.5383 37.2243 52.5078 36.7971V36.553C52.5078 36.0954 52.5993 35.714 52.7519 35.3784C52.9044 35.0428 53.1638 34.7835 53.4536 34.5851C53.7435 34.4021 54.1096 34.3105 54.491 34.3105C54.8723 34.3105 55.2232 34.4021 55.5131 34.5851C55.8029 34.7682 56.0622 35.0428 56.2148 35.3479C56.3673 35.6835 56.4589 36.0801 56.4589 36.5073V36.7361L56.4741 36.7208ZM55.3605 36.5378C55.3605 36.0801 55.2842 35.7445 55.1317 35.5157C54.9791 35.2869 54.7656 35.1801 54.4757 35.1801C53.9265 35.1801 53.6367 35.592 53.6214 36.4005V36.7361C53.6214 37.1938 53.6977 37.5294 53.8503 37.7582C54.0028 37.987 54.2164 38.1243 54.5062 38.1243C54.7961 38.1243 55.0096 38.0175 55.1469 37.7887C55.2842 37.5599 55.3758 37.2243 55.3758 36.7666V36.5378H55.3605Z" fill="white"/>
<path d="M60.1804 34.3555L61.2025 37.498L62.2246 34.3555H63.6738V38.8862H62.5907V37.8184L62.6975 35.6521L61.6144 38.871H60.8517L59.738 35.6521L59.8448 37.8184V38.8862H58.7617V34.3555H60.1957H60.1804Z" fill="white"/>
<path d="M69.898 36.7208C69.898 37.1785 69.8064 37.5599 69.6539 37.8955C69.5013 38.2311 69.242 38.5057 68.9521 38.6888C68.6623 38.8718 68.2962 38.9633 67.93 38.9633C67.5639 38.9633 67.1978 38.8718 66.908 38.6888C66.6181 38.5057 66.3588 38.2616 66.2062 37.926C66.0537 37.5904 65.9622 37.2243 65.9316 36.7971V36.553C65.9316 36.0954 66.0232 35.714 66.1757 35.3784C66.3283 35.0428 66.5876 34.7835 66.8774 34.5851C67.1673 34.4021 67.5334 34.3105 67.9148 34.3105C68.2962 34.3105 68.647 34.4021 68.9369 34.5851C69.2267 34.7682 69.4861 35.0428 69.6386 35.3479C69.7912 35.6835 69.8827 36.0801 69.8827 36.5073V36.7361L69.898 36.7208ZM68.7843 36.5378C68.7843 36.0801 68.7081 35.7445 68.5555 35.5157C68.403 35.2869 68.1894 35.1801 67.8995 35.1801C67.3504 35.1801 67.0605 35.592 67.0453 36.4005V36.7361C67.0453 37.1938 67.1215 37.5294 67.2741 37.7582C67.4266 37.987 67.6402 38.1243 67.93 38.1243C68.2199 38.1243 68.4335 38.0175 68.5708 37.7887C68.7081 37.5599 68.7996 37.2243 68.7996 36.7666V36.5378H68.7843Z" fill="white"/>
<path d="M75.4669 35.1945H74.1092V38.8862H73.026V35.1945H71.6836V34.3555H75.4669V35.1945Z" fill="white"/>
<path d="M78.8233 38.8862H77.7402V34.3555H78.8233V38.8862Z" fill="white"/>
<path d="M83.0634 37.6658L83.9635 34.3555H85.1839L83.6584 38.8862H82.4532L80.9277 34.3555H82.1329L83.0329 37.6658H83.0634Z" fill="white"/>
<path d="M90.0355 36.9641H88.3116V38.0472H90.3558V38.8862H87.2285V34.3555H90.3558V35.1945H88.3116V36.1403H90.0355V36.9488V36.9641Z" fill="white"/>
<path d="M0 3.23438V26.4526H13.8516V22.8676H3.58494V16.6893H11.2125V13.1654H3.58494V6.78881H13.6838V3.23438H0Z" fill="#62A60A"/>
<path d="M22.5017 26.4822C17.9557 26.4822 14.5996 22.9278 14.5996 18.5496C14.5996 14.1714 17.9557 10.5254 22.5322 10.5254C27.1088 10.5254 27.2155 11.5932 28.6495 13.1493L26.4833 15.4985C25.4154 14.3697 24.2866 13.5917 22.517 13.5917C19.9846 13.5917 18.1235 15.7884 18.1235 18.4885C18.1235 21.1887 19.9999 23.4464 22.7 23.4464C25.4002 23.4464 25.5833 22.6837 26.6664 21.5395L28.8021 23.6295C27.2613 25.277 25.4917 26.4669 22.5322 26.4669" fill="#62A60A"/>
<path d="M34.3856 26.4526H30.877V3.23438H34.3856V13.1959C35.3772 11.7467 36.7807 10.4958 39.1604 10.4958C42.6081 10.4958 44.5913 12.7993 44.5913 16.369V26.4221H41.0826V17.4063C41.0826 15.0265 39.9079 13.6688 37.8027 13.6688C35.6976 13.6688 34.3551 15.1028 34.3551 17.4521V26.4373H34.3856V26.4526Z" fill="#62A60A"/>
<path d="M54.8427 23.4171C52.1273 23.4171 50.1747 21.2204 50.1747 18.5203C50.1747 15.8201 51.9595 13.6997 54.7665 13.6997C57.5734 13.6997 59.4498 15.8964 59.4498 18.5965C59.4803 21.2509 57.6649 23.4171 54.8275 23.4171M66.6196 10.5113H55.4072C55.2241 10.5113 55.041 10.4961 54.8427 10.4961C50.1594 10.4961 46.666 14.1268 46.666 18.5203C46.666 22.9137 50.1137 26.4529 54.7665 26.4529C59.4192 26.4529 62.9737 22.8222 62.9737 18.4592C62.9737 14.0963 62.4092 15.0116 61.4177 13.6997H66.6044L66.6349 10.5266L66.6196 10.5113Z" fill="#62A60A"/>
<path d="M103.444 14.293V10.5098H99.9355V26.4361H103.444V20.3035C103.444 16.2457 105.595 14.2625 108.661 14.2625H108.86V10.5403C106.16 10.4487 104.405 12.0048 103.444 14.293Z" fill="white"/>
<path d="M88.6779 23.4308C85.9625 23.4308 84.0099 21.2341 84.0099 18.5339C84.0099 15.8338 85.7947 13.7133 88.6016 13.7133C91.4086 13.7133 93.285 15.9101 93.285 18.6102C93.285 21.3103 91.5001 23.4308 88.6627 23.4308M93.7273 10.5098V12.8438C92.6442 11.4098 90.9814 10.5403 88.6474 10.5403C83.9641 10.5403 80.4707 14.171 80.4707 18.5644C80.4707 22.9579 83.9183 26.4971 88.5864 26.4971C93.2544 26.4971 92.6442 25.597 93.7273 24.1478V26.4513H96.9004L96.8699 10.5098H93.7273C93.7273 10.525 93.7273 10.525 93.7273 10.525V10.5098Z" fill="white"/>
<path d="M83.9631 6.7885C83.9631 2.63913 80.9883 0 76.2593 0H68.2656V26.4523H71.8201V3.21882H75.9694C78.6391 3.21882 80.3476 4.46973 80.3476 6.86478C80.3476 9.25982 78.6696 10.5107 75.9694 10.5107H73.4829V13.7296H75.8626C80.3171 13.7296 83.9783 11.3498 83.9783 6.80376" fill="white"/>
<path d="M120.545 26.4221L121.766 26.4526H124.801L116.289 18.0776L125 10.3432H120.454L114.245 15.9723V3.23438H110.752L110.736 26.4526H114.245V20.2743L120.545 26.4221Z" fill="white"/>
<path d="M11.6855 55.2671L17.818 50.9499L19.5418 52.2924L11.0448 57.769L9.42773 56.5028L12.7076 46.9531L14.4314 48.2956L11.7007 55.2671H11.6855Z" fill="white"/>
<path d="M17.5279 62.3957C16.6431 61.8465 16.094 61.1295 15.8804 60.2447C15.6668 59.3599 15.8346 58.4599 16.3991 57.5598L16.4906 57.4073C16.872 56.7971 17.3144 56.3394 17.8483 56.0038C18.3822 55.6682 18.9467 55.5156 19.5263 55.5156C20.1213 55.5156 20.6857 55.6987 21.2349 56.0496C22.0587 56.5682 22.5468 57.2242 22.6994 58.048C22.8519 58.8565 22.6231 59.7413 22.0282 60.7023L21.6163 61.3583L17.7873 58.9633C17.5889 59.3904 17.5584 59.8023 17.6652 60.1989C17.772 60.5956 18.0313 60.9312 18.428 61.1752C19.0534 61.5566 19.6636 61.6329 20.3044 61.4041L20.5484 62.777C20.0908 62.9601 19.6026 63.0364 19.0687 62.9601C18.5348 62.8991 18.0161 62.7008 17.5279 62.3957ZM20.4264 57.331C20.106 57.1327 19.7857 57.0716 19.4501 57.1632C19.1145 57.2547 18.7941 57.4835 18.489 57.8496L20.7315 59.2379L20.8078 59.1158C21.0213 58.7497 21.0976 58.4141 21.0366 58.109C20.9756 57.8039 20.7773 57.5293 20.4264 57.3157V57.331Z" fill="white"/>
<path d="M25.9182 59.7537C26.6352 59.4334 27.3369 59.4486 28.0234 59.7842C29.3964 60.4707 29.7015 61.6149 28.9235 63.2319L26.9098 67.305L25.2165 66.466L27.2149 62.4386C27.398 62.0725 27.4437 61.7674 27.3827 61.5081C27.3064 61.2487 27.0928 61.0352 26.7267 60.8521C26.2233 60.608 25.7809 60.6233 25.3538 60.8979L23.1113 65.4134L21.418 64.5743L25.8877 55.5586L27.581 56.3976L25.9182 59.7537Z" fill="white"/>
<path d="M30.4496 68.7235L28.6953 68.0066L31.3649 61.4316L33.1193 62.1486L30.4496 68.7235ZM31.9446 59.6926C32.0514 59.4332 32.2345 59.2502 32.4786 59.1434C32.7227 59.0518 32.9972 59.0518 33.3023 59.1739C33.6074 59.2959 33.8058 59.479 33.9125 59.7231C34.0193 59.9671 34.0193 60.2112 33.9125 60.4858C33.8058 60.7604 33.6227 60.9282 33.3786 61.035C33.1345 61.1418 32.8599 61.1265 32.5548 61.0045C32.265 60.8824 32.0514 60.6994 31.9446 60.4553C31.8379 60.2112 31.8379 59.9519 31.9446 59.6926Z" fill="white"/>
<path d="M35.5444 69.0596C35.88 69.1664 36.1699 69.1664 36.4445 69.0596C36.7191 68.9375 36.9021 68.7392 37.0089 68.4341L38.7022 68.9833C38.5497 69.441 38.2903 69.8223 37.9242 70.1122C37.5581 70.4173 37.131 70.6004 36.6275 70.6766C36.1394 70.7529 35.636 70.7071 35.1173 70.5393C34.1562 70.2342 33.485 69.6698 33.1341 68.8765C32.7833 68.0833 32.768 67.1527 33.1341 66.0696L33.1799 65.9476C33.5155 64.9102 34.0647 64.1627 34.8122 63.7356C35.5597 63.2932 36.4292 63.2322 37.3903 63.5373C38.2293 63.8118 38.8395 64.2695 39.1904 64.9102C39.5413 65.5509 39.6023 66.2832 39.3429 67.0764L37.6496 66.5272C37.7564 66.1764 37.7412 65.856 37.6039 65.5662C37.4666 65.2763 37.2225 65.078 36.8869 64.9712C36.4597 64.8339 36.0936 64.8797 35.7885 65.1238C35.4682 65.3679 35.2088 65.8255 34.98 66.512L34.919 66.6951C34.6902 67.3968 34.6444 67.9307 34.7512 68.2968C34.858 68.663 35.1325 68.9223 35.5749 69.0596H35.5444Z" fill="white"/>
<path d="M41.2189 72.0799L39.373 71.6222L41.7833 61.8438L43.6292 62.3014L41.2189 72.0799Z" fill="white"/>
<path d="M46.3603 73.2399C45.3382 73.0569 44.5602 72.5992 44.011 71.867C43.4771 71.1347 43.294 70.2347 43.4771 69.1821L43.5076 68.999C43.6296 68.2973 43.8737 67.6871 44.2398 67.1837C44.606 66.6802 45.0636 66.3141 45.6128 66.1006C46.162 65.887 46.7569 65.8412 47.3976 65.948C48.3587 66.1158 49.0604 66.543 49.5028 67.2447C49.9452 67.9464 50.0825 68.8465 49.8842 69.9448L49.7469 70.7076L45.2924 69.9448C45.2772 70.4177 45.3992 70.8144 45.6433 71.1347C45.9026 71.4551 46.2535 71.6687 46.7264 71.7449C47.4434 71.867 48.0536 71.6992 48.5418 71.2568L49.2893 72.4467C48.9384 72.7975 48.5113 73.0416 47.9926 73.1789C47.4739 73.3162 46.9247 73.3314 46.345 73.2399H46.3603ZM47.123 67.4735C46.7569 67.4125 46.4366 67.4735 46.162 67.7023C45.8874 67.9159 45.6738 68.2515 45.5365 68.7092L48.1299 69.1516L48.1604 68.999C48.2214 68.5871 48.1604 68.2363 47.9926 67.9769C47.8095 67.7176 47.5349 67.5498 47.1383 67.4735H47.123Z" fill="white"/>
<path d="M56.4591 70.7995L56.337 74.1556L54.3691 74.0793L54.72 64.5449L58.4422 64.6822C59.1592 64.7127 59.7847 64.8653 60.3186 65.1399C60.8525 65.4145 61.2644 65.8111 61.539 66.2993C61.8136 66.7874 61.9356 67.3518 61.9204 67.962C61.8899 68.8926 61.539 69.6249 60.8831 70.1435C60.2271 70.6622 59.327 70.891 58.1982 70.8605L56.4743 70.7995H56.4591ZM56.5048 69.213L58.2592 69.274C58.7779 69.2892 59.1745 69.1825 59.4643 68.9536C59.7542 68.7248 59.8915 68.3739 59.9067 67.9163C59.922 67.4434 59.7999 67.062 59.5406 66.7722C59.2813 66.4823 58.8999 66.3145 58.4117 66.284L56.6116 66.223L56.5048 69.213Z" fill="white"/>
<path d="M67.0779 68.6619C66.8185 68.6466 66.5897 68.6466 66.3914 68.6619C65.6744 68.7077 65.232 68.9823 65.0337 69.4857L65.354 74.108L63.4624 74.2452L62.959 67.1669L64.7438 67.0449L64.8506 67.8839C65.1862 67.2127 65.6896 66.8465 66.3609 66.8008C66.5744 66.8008 66.7727 66.8008 66.9558 66.8465L67.0626 68.6619H67.0779Z" fill="white"/>
<path d="M67.8399 70.3423C67.7332 69.6405 67.7789 68.9998 67.962 68.4201C68.145 67.8404 68.4654 67.3523 68.923 66.9862C69.3807 66.6048 69.9451 66.376 70.6011 66.2692C71.5469 66.1166 72.3707 66.2997 73.0572 66.7878C73.7436 67.276 74.2013 68.0082 74.4149 68.9998L74.5064 69.4727C74.6742 70.5406 74.5064 71.4559 74.003 72.2034C73.4996 72.9509 72.7521 73.3933 71.73 73.5458C70.7231 73.6984 69.8689 73.5001 69.1671 72.9509C68.4654 72.4017 68.023 71.5627 67.8552 70.4491V70.3575L67.8399 70.3423ZM69.7316 70.1897C69.8383 70.8609 70.0367 71.3491 70.3418 71.6542C70.6469 71.9746 71.0282 72.0966 71.5012 72.0203C71.9588 71.9441 72.2792 71.7152 72.4775 71.3338C72.6758 70.9525 72.7215 70.3728 72.5995 69.61C72.4927 68.9541 72.2944 68.4659 71.9893 68.1455C71.6842 67.8252 71.2876 67.7031 70.8299 67.7794C70.3723 67.8557 70.0519 68.0845 69.8536 68.4811C69.6553 68.8778 69.6248 69.4422 69.7316 70.1897Z" fill="white"/>
<path d="M76.6412 63.4141L77.0379 65.1074L78.2125 64.8328L78.5329 66.1905L77.3582 66.4651L78.1667 69.9127C78.2278 70.1721 78.3193 70.3399 78.4413 70.4314C78.5634 70.5229 78.7617 70.5382 79.0363 70.4619C79.2346 70.4161 79.4177 70.3551 79.5702 70.2941L79.8906 71.6976C79.555 71.8959 79.1888 72.0332 78.8075 72.1247C77.5108 72.4298 76.7023 71.9264 76.3666 70.6297L75.4971 66.9075L74.4903 67.1363L74.1699 65.7786L75.1768 65.5498L74.7801 63.8565L76.626 63.4293L76.6412 63.4141Z" fill="white"/>
<path d="M84.4065 70.5402C83.4149 70.8605 82.5149 70.7995 81.6911 70.3876C80.8826 69.9757 80.3029 69.2588 79.9825 68.2519L79.9215 68.0841C79.7079 67.3976 79.6469 66.7569 79.7385 66.1315C79.83 65.506 80.0741 64.9873 80.4707 64.5449C80.8673 64.1025 81.3707 63.7822 81.9809 63.5839C82.9115 63.294 83.72 63.355 84.437 63.7669C85.154 64.1788 85.6727 64.9263 86.0235 65.9942L86.2524 66.7264L81.9504 68.0841C82.1488 68.5113 82.4386 68.8011 82.82 68.9842C83.2013 69.152 83.6132 69.1672 84.0556 69.0299C84.7574 68.8164 85.215 68.3892 85.4438 67.7638L86.649 68.4807C86.4964 68.9537 86.2219 69.3655 85.8252 69.7317C85.4286 70.0978 84.9557 70.3571 84.3912 70.5402H84.4065ZM82.4539 65.0484C82.0877 65.1551 81.8437 65.3687 81.6911 65.6891C81.5386 66.0094 81.508 66.3908 81.5843 66.8637L84.1014 66.0705L84.0556 65.9332C83.9183 65.5365 83.72 65.2619 83.4302 65.1094C83.1556 64.9568 82.82 64.9416 82.4386 65.0636L82.4539 65.0484Z" fill="white"/>
<path d="M90.7825 66.5566C91.1029 66.4193 91.3317 66.221 91.4538 65.9617C91.5758 65.7023 91.5911 65.4277 91.469 65.1226L93.1013 64.4362C93.2844 64.8786 93.3301 65.3362 93.2539 65.8091C93.1776 66.282 92.964 66.6939 92.6437 67.0753C92.3233 67.4567 91.8962 67.7465 91.408 67.9601C90.4774 68.3567 89.6079 68.372 88.8146 68.0058C88.0214 67.6397 87.4112 66.938 86.9688 65.8854L86.923 65.7634C86.4959 64.7565 86.4348 63.8412 86.7094 63.0174C86.9993 62.1937 87.5942 61.5835 88.54 61.1868C89.3638 60.836 90.1113 60.8055 90.7978 61.0495C91.4843 61.3089 92.0029 61.8275 92.3386 62.5903L90.7063 63.2768C90.5537 62.9412 90.3401 62.7123 90.0503 62.575C89.7604 62.453 89.4554 62.453 89.1197 62.5903C88.7079 62.7581 88.4638 63.0327 88.3875 63.4293C88.3112 63.8107 88.4027 64.3446 88.6773 65.0006L88.7536 65.1837C89.0435 65.8549 89.3486 66.2973 89.6689 66.5108C90.0045 66.7244 90.3707 66.7397 90.7978 66.5566H90.7825Z" fill="white"/>
<path d="M93.2841 57.1465L94.0774 58.7025L95.1605 58.1533L95.8012 59.389L94.7181 59.9382L96.3351 63.0807C96.4572 63.3095 96.5792 63.4621 96.7317 63.5078C96.869 63.5689 97.0674 63.5231 97.3267 63.4011C97.5098 63.3095 97.6776 63.2027 97.7996 63.1112L98.4556 64.3926C98.181 64.6672 97.8606 64.896 97.5098 65.0639C96.3351 65.6741 95.4198 65.3842 94.7791 64.2096L93.0248 60.8077L92.1095 61.2806L91.4688 60.0449L92.3841 59.572L91.5908 58.016L93.2688 57.1465H93.2841Z" fill="white"/>
<path d="M95.04 56.0943C94.9027 55.8502 94.857 55.6061 94.9332 55.3468C95.0095 55.0875 95.1773 54.8891 95.4672 54.7213C95.7417 54.5535 96.0163 54.5078 96.2757 54.5688C96.535 54.6298 96.7333 54.7823 96.8859 55.0264C97.0384 55.2705 97.0689 55.5298 96.9927 55.7892C96.9164 56.0485 96.7486 56.2621 96.474 56.4146C96.1994 56.5824 95.9248 56.6282 95.6655 56.5672C95.4061 56.5062 95.2078 56.3536 95.0553 56.1095L95.04 56.0943ZM101.295 62.7607L99.6623 63.7218L96.0621 57.6045L97.6944 56.6435L101.295 62.7607Z" fill="white"/>
<path d="M100.744 58.944C100.347 58.3643 100.088 57.7693 99.996 57.1744C99.9045 56.5642 99.996 55.9997 100.225 55.4506C100.469 54.9166 100.866 54.4437 101.415 54.0624C102.208 53.5132 103.001 53.3149 103.84 53.4522C104.664 53.5894 105.396 54.0471 106.037 54.8251L106.327 55.2217C106.952 56.1218 107.196 57.0066 107.074 57.8914C106.952 58.7762 106.464 59.5084 105.625 60.1034C104.786 60.683 103.932 60.8814 103.047 60.6983C102.162 60.5152 101.415 59.9508 100.774 59.0202L100.728 58.944H100.744ZM102.376 57.9676C102.757 58.5168 103.154 58.8677 103.566 59.0202C103.978 59.1728 104.374 59.1118 104.771 58.8372C105.152 58.5778 105.335 58.227 105.351 57.7846C105.366 57.3422 105.152 56.8083 104.71 56.1828C104.328 55.6336 103.932 55.298 103.52 55.1455C103.108 54.9929 102.696 55.0539 102.315 55.3133C101.933 55.5726 101.75 55.9235 101.735 56.3659C101.735 56.8083 101.949 57.3422 102.376 57.9524V57.9676Z" fill="white"/>
<path d="M106.283 50.5557L106.862 51.1354C106.832 50.3269 107.137 49.6404 107.793 49.0912C108.357 48.6031 108.937 48.4048 109.501 48.4963C110.066 48.5878 110.646 48.9692 111.225 49.6252L114.215 53.1033L112.781 54.339L109.822 50.9066C109.562 50.6015 109.303 50.4337 109.059 50.4184C108.815 50.3879 108.525 50.51 108.22 50.7845C107.823 51.1354 107.656 51.5626 107.762 52.0812L111.027 55.8645L109.593 57.1001L104.971 51.7304L106.328 50.571L106.283 50.5557Z" fill="white"/>
<path d="M116.58 50.7531C116.32 51.0124 116 51.1497 115.634 51.1497C115.268 51.1497 114.947 51.0124 114.688 50.7531C114.429 50.4938 114.307 50.1734 114.307 49.8073C114.307 49.4412 114.444 49.1208 114.703 48.8615C114.963 48.6021 115.283 48.4648 115.649 48.4648C116.015 48.4648 116.336 48.5869 116.595 48.8615C116.854 49.1208 116.992 49.4412 116.992 49.8073C116.992 50.1734 116.854 50.4938 116.595 50.7531H116.58ZM114.81 48.9835C114.581 49.2123 114.474 49.4717 114.474 49.792C114.474 50.1124 114.581 50.387 114.81 50.6158C115.039 50.8446 115.298 50.9514 115.619 50.9514C115.939 50.9514 116.214 50.8446 116.427 50.6158C116.656 50.387 116.763 50.1124 116.763 49.792C116.763 49.4717 116.656 49.1971 116.427 48.9835C116.198 48.7547 115.939 48.6479 115.619 48.6479C115.298 48.6479 115.024 48.7547 114.81 48.9835ZM115.603 49.0598C115.786 49.0598 115.924 49.075 116 49.1056C116.152 49.1666 116.229 49.2886 116.229 49.4717C116.229 49.6547 116.183 49.7005 116.091 49.7615C116.046 49.792 115.969 49.8225 115.878 49.8378C116 49.8531 116.076 49.8988 116.137 49.9751C116.183 50.0514 116.214 50.1276 116.214 50.2039V50.3107C116.214 50.3412 116.214 50.387 116.214 50.4175C116.214 50.448 116.214 50.4785 116.214 50.4938C116.214 50.509 115.969 50.509 115.969 50.509C115.969 50.509 115.969 50.509 115.969 50.4938V50.448V50.326C115.969 50.1582 115.924 50.0514 115.832 49.9903C115.771 49.9598 115.68 49.9446 115.542 49.9446H115.344V50.5243H115.085V49.0598H115.603ZM115.878 49.2886C115.817 49.2581 115.71 49.2276 115.558 49.2276H115.329V49.7615H115.558C115.664 49.7615 115.756 49.7615 115.802 49.731C115.908 49.6852 115.954 49.609 115.954 49.5022C115.954 49.3954 115.924 49.3191 115.863 49.2886H115.878Z" fill="white"/>
</svg>
