<svg width="379" height="71" viewBox="0 0 379 71" fill="none" xmlns="http://www.w3.org/2000/svg">
<path fill-rule="evenodd" clip-rule="evenodd" d="M0 7C0 3.1 3.2 0 7.1 0H358.5C362.4 0 365.6 3.2 365.6 7V64C365.6 67.9 362.4 71 358.5 71H7.1C3.2 71 0 67.8 0 64V7ZM3 6.99998V64C3 66.2 4.8 67.9 7.1 67.9H358.5C360.8 67.9 362.6 66.2 362.6 64V6.99998C362.6 4.89998 360.7 3.09998 358.5 3.09998H7.1C4.8 3.09998 3 4.79998 3 6.99998Z" fill="black"/>
<path d="M65.5996 65.0994H122.3V5.90039H65.5996V65.0994Z" fill="black"/>
<path d="M124.7 65.0994H181.4V5.90039H124.7V65.0994Z" fill="black"/>
<path d="M184.3 65.0994H241V5.90039H184.3V65.0994Z" fill="black"/>
<path d="M243.8 65.0994H300.5V5.90039H243.8V65.0994Z" fill="black"/>
<path d="M358.1 63.5008H349.6L337.701 46.5008L351.401 27.3008H337.8L335.401 31.1008C333.901 33.6008 332.201 36.2008 331.201 38.3008C330.3 36.2008 328.6 33.6008 327.1 31.1008L324.701 27.3008H310.8L324.5 46.8008L312.3 63.5008H304.5V7.30078H358.1V63.5008Z" fill="white"/>
<path d="M6 65.0994H62.7V5.90039H6V65.0994Z" fill="black"/>
<path d="M35.7002 56.3C23.9002 56.3 17.7002 47.6 17.7002 35.901C17.7002 23.2 25.2002 15.5 35.8002 15.5C45.5002 15.5 49.4002 19.7 52.1002 27.1L42.1002 31C40.7002 27.3 39.3002 25 35.7002 25C31.1002 25 29.1002 29.6 29.1002 35.901C29.1002 42 31.0002 46.8 35.8002 46.8C39.2002 46.8 40.7002 44.901 42.9002 41.2L52.2002 46.1C49.5002 51.2 45.1002 56.3 35.7002 56.3Z" fill="white"/>
<path fill-rule="evenodd" clip-rule="evenodd" d="M99.5996 15.5996L114 55.2006H102.1L99.9996 48.2006H88.0996L85.9996 55.2006H74.0996L88.4996 15.5996H99.5996ZM90.6996 39.5006H97.2996L96.3996 36.9006C96.2799 36.4645 96.166 36.0504 96.0576 35.6559C94.8977 31.4371 94.3568 29.4697 93.8996 27.0006C93.3996 29.7006 92.7996 31.9006 91.3996 36.9006L90.6996 39.5006Z" fill="white"/>
<path fill-rule="evenodd" clip-rule="evenodd" d="M162.399 40.2988L170.299 55.3998H158.099L151.599 41.9998H147.199V55.3998H136.399V15.7988H154.099C163.299 15.7988 169.499 19.2988 169.499 28.6998C169.499 34.6998 166.799 38.2988 162.399 40.2988ZM153.599 33.3998C157.199 33.3998 158.599 31.7988 158.599 28.9998C158.599 26.4998 157.299 24.6998 153.699 24.6998H147.099V33.3998H153.599Z" fill="white"/>
<path d="M207.799 25.0988V30.5988H220.199V39.8998H207.799V55.3998H196.9V15.7988H228.199V25.0988H207.799Z" fill="white"/>
<path fill-rule="evenodd" clip-rule="evenodd" d="M277.3 15.9004L291.7 55.5004H279.8L277.7 48.5004H265.8L263.7 55.5004H251.9L266.2 15.9004H277.3ZM268.4 39.8004H275L274.099 37.2004C273.973 36.7407 273.854 36.3054 273.74 35.8918C272.593 31.717 272.054 29.7571 271.599 27.3004C271.099 30.0004 270.5 32.2004 269.099 37.2004L268.4 39.8004Z" fill="white"/>
<path fill-rule="evenodd" clip-rule="evenodd" d="M359.599 65.0008H302.9V5.80078H359.599V65.0008ZM358.099 63.5008H349.599L337.7 46.5008L351.4 27.3008H337.799L335.4 31.1008C335.009 31.7527 334.604 32.4114 334.202 33.0663C333.061 34.9228 331.94 36.7484 331.2 38.3008C330.497 36.6621 329.308 34.7191 328.106 32.7566L328.106 32.7566C327.768 32.204 327.429 31.65 327.099 31.1008L324.7 27.3008H310.799L324.499 46.8008L312.299 63.5008H304.499V7.30078H358.099V63.5008ZM325.7 63.5008L326.7 62.1008C328.299 59.6008 329.9 56.9008 330.9 54.8008C331.999 56.9008 333.499 59.6008 334.999 62.1008L335.9 63.5008H325.7Z" fill="black"/>
<path fill-rule="evenodd" clip-rule="evenodd" d="M378.8 5.50061C378.8 2.50061 376.4 0.0996094 373.4 0.0996094C370.4 0.0996094 368 2.50061 368 5.50061C368 8.50061 370.4 10.9006 373.4 10.9006C376.4 10.9006 378.8 8.50061 378.8 5.50061ZM377.8 5.50061C377.8 3.00061 375.8 1.00061 373.4 1.00061C370.9 1.00061 369 3.00061 369 5.50061C369 8.00061 371 10.0006 373.4 10.0006C375.8 10.0006 377.8 8.00061 377.8 5.50061ZM373.599 2.40063H371.2H371.099V8.59963H372.099V6.00063H373.099L374.8 8.59963H375.8L374 5.90063C375 5.80063 375.7 5.30063 375.7 4.20063C375.7 3.00063 375 2.40063 373.599 2.40063ZM374.8 4.2006C374.8 5.2006 374.099 5.2006 373.2 5.2006H372.099V3.3006H373.4C374.099 3.3006 374.8 3.4006 374.8 4.2006Z" fill="white"/>
</svg>
